<?xml version="1.0" encoding="UTF-8" standalone="no"?>
<svg
   xmlns:dc="http://purl.org/dc/elements/1.1/"
   xmlns:cc="http://creativecommons.org/ns#"
   xmlns:rdf="http://www.w3.org/1999/02/22-rdf-syntax-ns#"
   xmlns:svg="http://www.w3.org/2000/svg"
   xmlns="http://www.w3.org/2000/svg"
   xmlns:sodipodi="http://sodipodi.sourceforge.net/DTD/sodipodi-0.dtd"
   xmlns:inkscape="http://www.inkscape.org/namespaces/inkscape"
   width="297mm"
   height="210mm"
   viewBox="0 0 297 210"
   version="1.1"
   id="svg8"
   inkscape:version="1.0.1 (0767f8302a, 2020-10-17)"
   sodipodi:docname="grid.svg">
  <defs
     id="defs2">
    <marker
       style="overflow:visible;"
       id="marker1165"
       refX="0.0"
       refY="0.0"
       orient="auto"
       inkscape:stockid="Arrow1Lend"
       inkscape:isstock="true">
      <path
         transform="scale(0.8) rotate(180) translate(12.5,0)"
         style="fill-rule:evenodd;stroke:#000000;stroke-width:1pt;stroke-opacity:1;fill:#000000;fill-opacity:1"
         d="M 0.0,0.0 L 5.0,-5.0 L -12.5,0.0 L 5.0,5.0 L 0.0,0.0 z "
         id="path1163" />
    </marker>
    <marker
       style="overflow:visible;"
       id="Arrow1Lend"
       refX="0.0"
       refY="0.0"
       orient="auto"
       inkscape:stockid="Arrow1Lend"
       inkscape:isstock="true"
       inkscape:collect="always">
      <path
         transform="scale(0.8) rotate(180) translate(12.5,0)"
         style="fill-rule:evenodd;stroke:#000000;stroke-width:1pt;stroke-opacity:1;fill:#000000;fill-opacity:1"
         d="M 0.0,0.0 L 5.0,-5.0 L -12.5,0.0 L 5.0,5.0 L 0.0,0.0 z "
         id="path858" />
    </marker>
  </defs>
  <sodipodi:namedview
     id="base"
     pagecolor="#ffffff"
     bordercolor="#666666"
     borderopacity="1.0"
     inkscape:pageopacity="0.0"
     inkscape:pageshadow="2"
     inkscape:zoom="0.88572421"
     inkscape:cx="561.25984"
     inkscape:cy="351.68961"
     inkscape:document-units="mm"
     inkscape:current-layer="layer1"
     inkscape:document-rotation="0"
     showgrid="false"
     showguides="false"
     inkscape:guide-bbox="true"
     inkscape:window-width="1848"
     inkscape:window-height="886"
     inkscape:window-x="72"
     inkscape:window-y="27"
     inkscape:window-maximized="1">
    <sodipodi:guide
       position="24.713534,175.57003"
       orientation="1,0"
       id="guide835" />
    <sodipodi:guide
       position="-7.1817106,184.86401"
       orientation="0,-1"
       id="guide837" />
  </sodipodi:namedview>
  <metadata
     id="metadata5">
    <rdf:RDF>
      <cc:Work
         rdf:about="">
        <dc:format>image/svg+xml</dc:format>
        <dc:type
           rdf:resource="http://purl.org/dc/dcmitype/StillImage" />
        <dc:title></dc:title>
      </cc:Work>
    </rdf:RDF>
  </metadata>
  <g
     inkscape:label="Layer 1"
     inkscape:groupmode="layer"
     id="layer1">
    <rect
       style="fill:none;stroke:#e9afaf;stroke-width:0.264999;opacity:0.9"
       id="rect841"
       width="297.23856"
       height="209.81075"
       x="0.045960907"
       y="-0.21476665" />
    <path
       d="M 0.04596091,-0.21476665 V 209.86098 M 2.6917949,-0.21476665 V 209.86098 M 5.3376279,-0.21476665 V 209.86098 M 7.9834619,-0.21476665 V 209.86098 M 10.629295,-0.21476665 V 209.86098 M 13.275128,-0.21476665 V 209.86098 M 15.920962,-0.21476665 V 209.86098 M 18.566795,-0.21476665 V 209.86098 M 21.212629,-0.21476665 V 209.86098 M 23.858462,-0.21476665 V 209.86098 M 26.504295,-0.21476665 V 209.86098 M 29.150129,-0.21476665 V 209.86098 M 31.795962,-0.21476665 V 209.86098 M 34.441796,-0.21476665 V 209.86098 M 37.087629,-0.21476665 V 209.86098 M 39.733463,-0.21476665 V 209.86098 M 42.379296,-0.21476665 V 209.86098 M 45.025129,-0.21476665 V 209.86098 M 47.670963,-0.21476665 V 209.86098 M 50.316796,-0.21476665 V 209.86098 M 52.96263,-0.21476665 V 209.86098 M 55.608463,-0.21476665 V 209.86098 M 58.254296,-0.21476665 V 209.86098 M 60.90013,-0.21476665 V 209.86098 M 63.545963,-0.21476665 V 209.86098 M 66.191797,-0.21476665 V 209.86098 M 68.83763,-0.21476665 V 209.86098 M 71.483463,-0.21476665 V 209.86098 M 74.129297,-0.21476665 V 209.86098 M 76.77513,-0.21476665 V 209.86098 M 79.420964,-0.21476665 V 209.86098 M 82.066797,-0.21476665 V 209.86098 M 84.71263,-0.21476665 V 209.86098 M 87.358464,-0.21476665 V 209.86098 M 90.004297,-0.21476665 V 209.86098 M 92.650131,-0.21476665 V 209.86098 M 95.295964,-0.21476665 V 209.86098 M 97.941798,-0.21476665 V 209.86098 M 100.58763,-0.21476665 V 209.86098 M 103.23346,-0.21476665 V 209.86098 M 105.8793,-0.21476665 V 209.86098 M 108.52513,-0.21476665 V 209.86098 M 111.17096,-0.21476665 V 209.86098 M 113.8168,-0.21476665 V 209.86098 M 116.46263,-0.21476665 V 209.86098 M 119.10846,-0.21476665 V 209.86098 M 121.7543,-0.21476665 V 209.86098 M 124.40013,-0.21476665 V 209.86098 M 127.04596,-0.21476665 V 209.86098 M 129.6918,-0.21476665 V 209.86098 M 132.33763,-0.21476665 V 209.86098 M 134.98347,-0.21476665 V 209.86098 M 137.6293,-0.21476665 V 209.86098 M 140.27513,-0.21476665 V 209.86098 M 142.92097,-0.21476665 V 209.86098 M 145.5668,-0.21476665 V 209.86098 M 148.21263,-0.21476665 V 209.86098 M 150.85847,-0.21476665 V 209.86098 M 153.5043,-0.21476665 V 209.86098 M 156.15013,-0.21476665 V 209.86098 M 158.79597,-0.21476665 V 209.86098 M 161.4418,-0.21476665 V 209.86098 M 164.08763,-0.21476665 V 209.86098 M 166.73347,-0.21476665 V 209.86098 M 169.3793,-0.21476665 V 209.86098 M 172.02513,-0.21476665 V 209.86098 M 174.67097,-0.21476665 V 209.86098 M 177.3168,-0.21476665 V 209.86098 M 179.96263,-0.21476665 V 209.86098 M 182.60847,-0.21476665 V 209.86098 M 185.2543,-0.21476665 V 209.86098 M 187.90013,-0.21476665 V 209.86098 M 190.54597,-0.21476665 V 209.86098 M 193.1918,-0.21476665 V 209.86098 M 195.83763,-0.21476665 V 209.86098 M 198.48347,-0.21476665 V 209.86098 M 201.1293,-0.21476665 V 209.86098 M 203.77513,-0.21476665 V 209.86098 M 206.42097,-0.21476665 V 209.86098 M 209.0668,-0.21476665 V 209.86098 M 211.71263,-0.21476665 V 209.86098 M 214.35847,-0.21476665 V 209.86098 M 217.0043,-0.21476665 V 209.86098 M 219.65013,-0.21476665 V 209.86098 M 222.29597,-0.21476665 V 209.86098 M 224.9418,-0.21476665 V 209.86098 M 227.58763,-0.21476665 V 209.86098 M 230.23347,-0.21476665 V 209.86098 M 232.8793,-0.21476665 V 209.86098 M 235.52513,-0.21476665 V 209.86098 M 238.17097,-0.21476665 V 209.86098 M 240.8168,-0.21476665 V 209.86098 M 243.46263,-0.21476665 V 209.86098 M 246.10847,-0.21476665 V 209.86098 M 248.7543,-0.21476665 V 209.86098 M 251.40014,-0.21476665 V 209.86098 M 254.04597,-0.21476665 V 209.86098 M 256.6918,-0.21476665 V 209.86098 M 259.33764,-0.21476665 V 209.86098 M 261.98347,-0.21476665 V 209.86098 M 264.6293,-0.21476665 V 209.86098 M 267.27514,-0.21476665 V 209.86098 M 269.92097,-0.21476665 V 209.86098 M 272.5668,-0.21476665 V 209.86098 M 275.21264,-0.21476665 V 209.86098 M 277.85847,-0.21476665 V 209.86098 M 280.5043,-0.21476665 V 209.86098 M 283.15014,-0.21476665 V 209.86098 M 285.79597,-0.21476665 V 209.86098 M 288.4418,-0.21476665 V 209.86098 M 291.08764,-0.21476665 V 209.86098 M 293.73347,-0.21476665 V 209.86098 M 296.3793,-0.21476665 V 209.86098 M 0.04596091,-0.21476665 H 297.54952 M 0.04596091,2.4310667 H 297.54952 M 0.04596091,5.0769002 H 297.54952 M 0.04596091,7.7227336 H 297.54952 M 0.04596091,10.368567 H 297.54952 M 0.04596091,13.014401 H 297.54952 M 0.04596091,15.660234 H 297.54952 M 0.04596091,18.306068 H 297.54952 M 0.04596091,20.951901 H 297.54952 M 0.04596091,23.597735 H 297.54952 M 0.04596091,26.243568 H 297.54952 M 0.04596091,28.889401 H 297.54952 M 0.04596091,31.535235 H 297.54952 M 0.04596091,34.181068 H 297.54952 M 0.04596091,36.826902 H 297.54952 M 0.04596091,39.472735 H 297.54952 M 0.04596091,42.118568 H 297.54952 M 0.04596091,44.764402 H 297.54952 M 0.04596091,47.410235 H 297.54952 M 0.04596091,50.056069 H 297.54952 M 0.04596091,52.701902 H 297.54952 M 0.04596091,55.347735 H 297.54952 M 0.04596091,57.993569 H 297.54952 M 0.04596091,60.639402 H 297.54952 M 0.04596091,63.285236 H 297.54952 M 0.04596091,65.931069 H 297.54952 M 0.04596091,68.576902 H 297.54952 M 0.04596091,71.222736 H 297.54952 M 0.04596091,73.868569 H 297.54952 M 0.04596091,76.514403 H 297.54952 M 0.04596091,79.160236 H 297.54952 M 0.04596091,81.806069 H 297.54952 M 0.04596091,84.451903 H 297.54952 M 0.04596091,87.097736 H 297.54952 M 0.04596091,89.74357 H 297.54952 M 0.04596091,92.389403 H 297.54952 M 0.04596091,95.035237 H 297.54952 M 0.04596091,97.68107 H 297.54952 M 0.04596091,100.3269 H 297.54952 M 0.04596091,102.97274 H 297.54952 M 0.04596091,105.61857 H 297.54952 M 0.04596091,108.2644 H 297.54952 M 0.04596091,110.91024 H 297.54952 M 0.04596091,113.55607 H 297.54952 M 0.04596091,116.2019 H 297.54952 M 0.04596091,118.84774 H 297.54952 M 0.04596091,121.49357 H 297.54952 M 0.04596091,124.1394 H 297.54952 M 0.04596091,126.78524 H 297.54952 M 0.04596091,129.43107 H 297.54952 M 0.04596091,132.0769 H 297.54952 M 0.04596091,134.72274 H 297.54952 M 0.04596091,137.36857 H 297.54952 M 0.04596091,140.0144 H 297.54952 M 0.04596091,142.66024 H 297.54952 M 0.04596091,145.30607 H 297.54952 M 0.04596091,147.9519 H 297.54952 M 0.04596091,150.59774 H 297.54952 M 0.04596091,153.24357 H 297.54952 M 0.04596091,155.8894 H 297.54952 M 0.04596091,158.53524 H 297.54952 M 0.04596091,161.18107 H 297.54952 M 0.04596091,163.82691 H 297.54952 M 0.04596091,166.47274 H 297.54952 M 0.04596091,169.11857 H 297.54952 M 0.04596091,171.76441 H 297.54952 M 0.04596091,174.41024 H 297.54952 M 0.04596091,177.05607 H 297.54952 M 0.04596091,179.70191 H 297.54952 M 0.04596091,182.34774 H 297.54952 M 0.04596091,184.99357 H 297.54952 M 0.04596091,187.63941 H 297.54952 M 0.04596091,190.28524 H 297.54952 M 0.04596091,192.93107 H 297.54952 M 0.04596091,195.57691 H 297.54952 M 0.04596091,198.22274 H 297.54952 M 0.04596091,200.86857 H 297.54952 M 0.04596091,203.51441 H 297.54952 M 0.04596091,206.16024 H 297.54952 M 0.04596091,208.80607 H 297.54952"
       style="fill:none;stroke:#000000;stroke-width:0.264583px;opacity:0.5"
       id="path843" />
    <ellipse
       style="opacity:1;fill:#aa0000;stroke:#aa0000;stroke-width:0.264999"
       id="path845"
       cx="88.818626"
       cy="92.38842"
       rx="2.5451555"
       ry="2.5468698" />
    <text
       xml:space="preserve"
       style="font-style:normal;font-weight:normal;font-size:16.9333px;line-height:1.25;font-family:sans-serif;letter-spacing:0px;word-spacing:0px;fill:#000000;fill-opacity:1;stroke:none;stroke-width:0.264583"
       x="8.4526434"
       y="22.837654"
       id="text849"><tspan
         sodipodi:role="line"
         id="tspan847"
         x="8.4526434"
         y="22.837654"
         style="font-size:16.9333px;stroke-width:0.264583">0,0</tspan></text>
    <ellipse
       style="opacity:0.9;fill:#000000;stroke:#000000;stroke-width:0.264999"
       id="ellipse851"
       cx="8.9090166"
       cy="7.4110913"
       rx="2.5451555"
       ry="2.5468698" />
    <path
       style="fill:none;stroke:#000000;stroke-width:1.25601;stroke-linecap:butt;stroke-linejoin:miter;stroke-miterlimit:4;stroke-dasharray:none;stroke-opacity:1;marker-end:url(#Arrow1Lend)"
       d="M 8.0571397,8.4209625 H 297.58431"
       id="path853" />
    <path
       style="fill:none;stroke:#000000;stroke-width:1.25601;stroke-linecap:butt;stroke-linejoin:miter;stroke-miterlimit:4;stroke-dasharray:none;stroke-opacity:1;marker-end:url(#marker1165)"
       d="M 8.0571397,8.4209625 7.9834619,209.86098"
       id="path1161"
       sodipodi:nodetypes="cc" />
    <g
       id="g1215"
       transform="matrix(-1,0,0,1,80.903744,-10.110636)"
       style="stroke-width:1.3;stroke-miterlimit:4;stroke-dasharray:none">
      <path
         style="fill:none;stroke:#000000;stroke-width:1.3;stroke-linecap:butt;stroke-linejoin:miter;stroke-miterlimit:4;stroke-dasharray:none;stroke-opacity:1"
         d="m -11.286015,20.683718 c -14.234335,5.297726 -3.692484,28.653441 -20.31205,40.322173"
         id="path1209"
         sodipodi:nodetypes="cc" />
      <path
         style="fill:none;stroke:#000000;stroke-width:1.3;stroke-linecap:butt;stroke-linejoin:miter;stroke-miterlimit:4;stroke-dasharray:none;stroke-opacity:1"
         d="M -11.286015,101.32806 C -24.381126,97.228302 -12.443173,71.517348 -31.598065,61.005891"
         id="path1211"
         sodipodi:nodetypes="cc" />
    </g>
    <g
       id="g1221"
       transform="matrix(-0.01213728,-0.99992634,-0.99992634,0.01213728,109.55997,84.972866)"
       style="stroke-width:1.3;stroke-miterlimit:4;stroke-dasharray:none">
      <path
         style="fill:none;stroke:#000000;stroke-width:1.3;stroke-linecap:butt;stroke-linejoin:miter;stroke-miterlimit:4;stroke-dasharray:none;stroke-opacity:1"
         d="m -11.286015,20.683718 c -14.234335,5.297726 -3.692484,28.653441 -20.31205,40.322173"
         id="path1217"
         sodipodi:nodetypes="cc" />
      <path
         style="fill:none;stroke:#000000;stroke-width:1.3;stroke-linecap:butt;stroke-linejoin:miter;stroke-miterlimit:4;stroke-dasharray:none;stroke-opacity:1"
         d="M -11.286015,101.32806 C -24.381126,97.228302 -12.443173,71.517348 -31.598065,61.005891"
         id="path1219"
         sodipodi:nodetypes="cc" />
    </g>
    <text
       xml:space="preserve"
       style="font-style:normal;font-weight:normal;font-size:16.9333px;line-height:1.25;font-family:sans-serif;letter-spacing:0px;word-spacing:0px;fill:#000000;fill-opacity:1;stroke:none;stroke-width:0.264583"
       x="93.884033"
       y="109.16314"
       id="text1225"><tspan
         sodipodi:role="line"
         id="tspan1223"
         x="93.884033"
         y="109.16314"
         style="font-size:16.9333px;stroke-width:0.264583">X,Y</tspan></text>
    <text
       xml:space="preserve"
       style="font-style:normal;font-weight:normal;font-size:10.5833px;line-height:1.25;font-family:sans-serif;letter-spacing:0px;word-spacing:0px;fill:#000000;fill-opacity:1;stroke:none;stroke-width:0.264583"
       x="254.57343"
       y="18.592142"
       id="text1229"><tspan
         sodipodi:role="line"
         id="tspan1227"
         x="254.57343"
         y="18.592142"
         style="stroke-width:0.264583">x</tspan></text>
    <text
       xml:space="preserve"
       style="font-style:normal;font-weight:normal;font-size:10.5833px;line-height:1.25;font-family:sans-serif;letter-spacing:0px;word-spacing:0px;fill:#000000;fill-opacity:1;stroke:none;stroke-width:0.264583"
       x="11.423917"
       y="179.59508"
       id="text1233"><tspan
         sodipodi:role="line"
         id="tspan1231"
         x="11.423917"
         y="179.59508"
         style="stroke-width:0.264583">y</tspan></text>
  </g>
</svg>
