<?xml version="1.0" encoding="UTF-8" standalone="no"?>
<!-- Created with Inkscape (http://www.inkscape.org/) -->

<svg
   xmlns:dc="http://purl.org/dc/elements/1.1/"
   xmlns:cc="http://creativecommons.org/ns#"
   xmlns:rdf="http://www.w3.org/1999/02/22-rdf-syntax-ns#"
   xmlns:svg="http://www.w3.org/2000/svg"
   xmlns="http://www.w3.org/2000/svg"
   xmlns:sodipodi="http://sodipodi.sourceforge.net/DTD/sodipodi-0.dtd"
   xmlns:inkscape="http://www.inkscape.org/namespaces/inkscape"
   width="297mm"
   height="210mm"
   viewBox="0 0 297 210"
   version="1.1"
   id="svg8"
   inkscape:version="0.92.5 (2060ec1f9f, 2020-04-08)"
   sodipodi:docname="architecture.svg">
  <defs
     id="defs2">
    <marker
       inkscape:stockid="Arrow1Lend"
       orient="auto"
       refY="0.0"
       refX="0.0"
       id="Arrow1Lend"
       style="overflow:visible;"
       inkscape:isstock="true">
      <path
         id="path843"
         d="M 0.0,0.0 L 5.0,-5.0 L -12.5,0.0 L 5.0,5.0 L 0.0,0.0 z "
         style="fill-rule:evenodd;stroke:#000000;stroke-width:1pt;stroke-opacity:1;fill:#000000;fill-opacity:1"
         transform="scale(0.8) rotate(180) translate(12.5,0)" />
    </marker>
    <marker
       inkscape:stockid="Arrow1Lstart"
       orient="auto"
       refY="0.0"
       refX="0.0"
       id="Arrow1Lstart"
       style="overflow:visible"
       inkscape:isstock="true">
      <path
         id="path840"
         d="M 0.0,0.0 L 5.0,-5.0 L -12.5,0.0 L 5.0,5.0 L 0.0,0.0 z "
         style="fill-rule:evenodd;stroke:#000000;stroke-width:1pt;stroke-opacity:1;fill:#000000;fill-opacity:1"
         transform="scale(0.8) translate(12.5,0)" />
    </marker>
  </defs>
  <sodipodi:namedview
     id="base"
     pagecolor="#ffffff"
     bordercolor="#666666"
     borderopacity="1.0"
     inkscape:pageopacity="0.0"
     inkscape:pageshadow="2"
     inkscape:zoom="0.89202381"
     inkscape:cx="563.50194"
     inkscape:cy="386.76097"
     inkscape:document-units="mm"
     inkscape:current-layer="layer1"
     showgrid="false"
     inkscape:window-width="1848"
     inkscape:window-height="886"
     inkscape:window-x="72"
     inkscape:window-y="27"
     inkscape:window-maximized="1" />
  <metadata
     id="metadata5">
    <rdf:RDF>
      <cc:Work
         rdf:about="">
        <dc:format>image/svg+xml</dc:format>
        <dc:type
           rdf:resource="http://purl.org/dc/dcmitype/StillImage" />
        <dc:title />
      </cc:Work>
    </rdf:RDF>
  </metadata>
  <g
     inkscape:label="Layer 1"
     inkscape:groupmode="layer"
     id="layer1"
     transform="translate(0,-87)">
    <path
       style="stroke-width:1.2477473"
       inkscape:connector-curvature="0"
       d="m 29.52848,165.6275 v 2.4955 h 17.468464 v -2.4955 z m 0,12.47747 h 4.990989 v 7.48648 h 7.486484 v -7.48648 h 4.990991 l -8.734232,-8.73424 z"
       id="path4" />
    <path
       style="stroke-width:2.21046019"
       inkscape:connector-curvature="0"
       d="m 36.779661,103.21997 c -12.201741,0 -22.104605,9.90292 -22.104605,22.10461 0,12.20175 9.902864,22.1046 22.104605,22.1046 12.20174,0 22.104606,-9.90285 22.104606,-22.1046 0,-12.20169 -9.902866,-22.10461 -22.104606,-22.10461 z m 9.94707,30.94645 H 27.93782 c -3.669363,0 -6.631382,-2.96202 -6.631382,-6.63137 0,-3.66934 2.962019,-6.63138 6.631382,-6.63138 l 0.30945,0.0261 c 0.972599,-3.82412 4.398809,-6.65349 8.532387,-6.65349 4.885103,0 8.841835,3.95673 8.841835,8.84181 h 1.105224 c 3.050439,0 5.52615,2.47572 5.52615,5.52618 0,3.05041 -2.475711,5.52614 -5.52615,5.52614 z"
       id="path4-3" />
    <path
       style="stroke-width:0.52916664"
       inkscape:connector-curvature="0"
       d="m 38.559322,203.08594 -4.7625,2.11667 v 3.175 c 0,2.93687 2.032,5.68325 4.7625,6.35 2.7305,-0.66675 4.7625,-3.41313 4.7625,-6.35 v -3.175 z m -1.058333,8.46667 -2.116667,-2.11667 0.746125,-0.74612 1.370542,1.36525 3.487208,-3.48721 0.746125,0.75141 z"
       id="path4-6" />
    <path
       style="stroke-width:1.66075158"
       inkscape:connector-curvature="0"
       d="m 138.87761,205.94769 c -9.16735,0 -16.60751,7.44017 -16.60751,16.60751 0,9.16732 7.44016,16.60752 16.60751,16.60752 9.16732,0 16.60752,-7.4402 16.60752,-16.60752 0,-9.16735 -7.4402,-16.60751 -16.60752,-16.60751 z m 0,4.98225 c 2.75687,0 4.98228,2.22539 4.98228,4.98225 0,2.75685 -2.22541,4.98225 -4.98228,4.98225 -2.75686,0 -4.9823,-2.2254 -4.9823,-4.98225 0,-2.75686 2.22544,-4.98225 4.9823,-4.98225 z m 0,23.58266 c -4.15187,0 -7.82214,-2.12575 -9.96452,-5.34757 0.0496,-3.30496 6.64303,-5.11514 9.96452,-5.11514 3.30487,0 9.91467,1.81018 9.9645,5.11514 -2.14235,3.22182 -5.81262,5.34757 -9.9645,5.34757 z"
       id="path2" />
    <path
       style="stroke-width:1.372522;fill:#00c853;fill-opacity:1"
       inkscape:connector-curvature="0"
       d="m 146.68195,134.75635 h -5.73712 c -0.57646,-1.59217 -2.08625,-2.74506 -3.87052,-2.74506 -1.78429,0 -3.29407,1.15289 -3.87053,2.74506 h -5.73716 c -1.50977,0 -2.74503,1.23525 -2.74503,2.74503 v 19.21531 c 0,1.5098 1.23526,2.74506 2.74503,2.74506 h 19.21533 c 1.50977,0 2.74508,-1.23526 2.74508,-2.74506 v -19.21531 c 0,-1.50978 -1.23531,-2.74503 -2.74508,-2.74503 z m -9.60764,0 c 0.75485,0 1.3725,0.61763 1.3725,1.37248 0,0.7549 -0.61765,1.37255 -1.3725,1.37255 -0.75493,0 -1.37254,-0.61765 -1.37254,-1.37255 0,-0.75485 0.61761,-1.37248 1.37254,-1.37248 z m 2.74503,19.2153 h -9.60767 v -2.74503 h 9.60767 z m 4.11754,-5.4901 h -13.72521 v -2.74503 h 13.72521 z m 0,-5.49007 h -13.72521 v -2.74506 h 13.72521 z"
       id="path4-7" />
    <path
       style="stroke-width:0.52916664"
       inkscape:connector-curvature="0"
       d="m 158.83067,192.70251 v 1.98438 h 1.98437 l 5.85259,-5.85259 -1.98438,-1.98437 z m 9.37154,-5.40279 c 0.20638,-0.20638 0.20638,-0.53975 0,-0.74613 l -1.23825,-1.23825 c -0.20637,-0.20637 -0.53975,-0.20637 -0.74612,0 l -0.96838,0.96838 1.98438,1.98437 z"
       id="path2-3" />
    <path
       style="stroke-width:0.52916664"
       inkscape:connector-curvature="0"
       d="m 121.81754,191.117 h -0.41804 l -0.14817,-0.14288 c 0.51858,-0.60325 0.83079,-1.38641 0.83079,-2.23837 0,-1.89971 -1.53987,-3.43958 -3.43958,-3.43958 -1.89971,0 -3.43959,1.53987 -3.43959,3.43958 0,1.89971 1.53988,3.43958 3.43959,3.43958 0.85196,0 1.63512,-0.31221 2.23837,-0.83079 l 0.14288,0.14817 v 0.41804 l 2.64583,2.64054 0.78846,-0.78846 z m -3.175,0 c -1.31763,0 -2.38125,-1.06363 -2.38125,-2.38125 0,-1.31763 1.06362,-2.38125 2.38125,-2.38125 1.31762,0 2.38125,1.06362 2.38125,2.38125 0,1.31762 -1.06363,2.38125 -2.38125,2.38125 z"
       id="path2-5" />
    <path
       style="stroke-width:0.52916664"
       inkscape:connector-curvature="0"
       d="m 223.58523,122.29415 h 1.5875 v 5.18583 h -1.5875 z m 2.96333,-2.2225 h 1.48167 v 7.40833 h -1.48167 z m 2.96333,4.23333 h 1.48167 v 3.175 h -1.48167 z"
       id="path2-2" />
    <path
       style="stroke-width:2.11666656"
       inkscape:connector-curvature="0"
       d="m 248.21658,171.25254 c 3.51364,0 6.3288,-2.83632 6.3288,-6.35 0,-3.51368 -2.81516,-6.35 -6.3288,-6.35 -3.51368,0 -6.35,2.83632 -6.35,6.35 0,3.51368 2.83632,6.35 6.35,6.35 z m -16.93336,0 c 3.51368,0 6.32884,-2.83632 6.32884,-6.35 0,-3.51368 -2.81516,-6.35 -6.32884,-6.35 -3.51364,0 -6.35,2.83632 -6.35,6.35 0,3.51368 2.83636,6.35 6.35,6.35 z m 0,4.23332 c -4.93184,0 -14.81664,2.47652 -14.81664,7.40836 v 5.29164 h 29.63332 v -5.29164 c 0,-4.93184 -9.88484,-7.40836 -14.81668,-7.40836 z m 16.93336,0 c -0.61384,0 -1.31236,0.0424 -2.0532,0.106 2.45536,1.778 4.16984,4.16984 4.16984,7.30252 v 5.29164 h 12.7 v -5.29164 c 0,-4.93184 -9.88484,-7.40836 -14.81664,-7.40836 z"
       id="path4-9" />
    <path
       style="stroke-width:0.52916664"
       inkscape:connector-curvature="0"
       d="m 250.29688,118.48414 h -4.23334 c -0.58208,0 -1.05304,0.47625 -1.05304,1.05834 l -0.005,8.46666 c 0,0.58209 0.47096,1.05834 1.05304,1.05834 h 6.35529 c 0.58209,0 1.05834,-0.47625 1.05834,-1.05834 v -6.35 z m 1.05833,8.46667 h -4.23333 v -1.05833 h 4.23333 z m 0,-2.11667 h -4.23333 v -1.05833 h 4.23333 z m -1.5875,-2.64583 v -2.91042 l 2.91042,2.91042 z"
       id="path4-1" />
    <path
       style="stroke-width:1.58749986"
       inkscape:connector-curvature="0"
       d="m 252.91658,216.71314 c 1.74627,0 3.15915,-1.42875 3.15915,-3.17499 l 0.015,-15.87501 c -3e-5,-1.74624 -1.42878,-3.17499 -3.17505,-3.17499 H 227.5157 c -1.74627,0 -3.17502,1.42875 -3.17502,3.17499 v 15.87501 c 0,1.74624 1.42875,3.17499 3.17502,3.17499 h -6.35001 v 3.17499 h 38.1 v -3.17499 z m -25.39998,-19.05 h 25.39998 v 15.87501 H 227.5166 Z"
       id="path4-2" />
    <text
       xml:space="preserve"
       style="font-style:normal;font-weight:normal;font-size:10.58333302px;line-height:1.25;font-family:sans-serif;letter-spacing:0px;word-spacing:0px;fill:#000000;fill-opacity:1;stroke:none;stroke-width:0.26458332"
       x="39.954784"
       y="234.65482"
       id="text4617"><tspan
         sodipodi:role="line"
         x="39.954784"
         y="234.65482"
         style="text-align:center;text-anchor:middle;stroke-width:0.26458332;font-size:8.46666667px"
         id="tspan4619">Publication</tspan><tspan
         sodipodi:role="line"
         x="39.954784"
         y="247.88399"
         style="text-align:center;text-anchor:middle;stroke-width:0.26458332;font-size:8.46666667px"
         id="tspan4623">of Datasets</tspan></text>
    <path
       id="path4640"
       d="m 233.22783,135.88331 v 1.59712 h 11.17988 v -1.59712 z m 0,7.98557 h 3.19425 v 4.79135 h 4.79138 v -4.79135 h 3.19425 l -5.58994,-5.58991 z"
       inkscape:connector-curvature="0"
       style="stroke-width:0.79855829" />
    <text
       xml:space="preserve"
       style="font-style:normal;font-weight:normal;font-size:10.58333302px;line-height:1.25;font-family:sans-serif;letter-spacing:0px;word-spacing:0px;fill:#000000;fill-opacity:1;stroke:none;stroke-width:0.26458332"
       x="241.16461"
       y="232.21297"
       id="text4644"><tspan
         sodipodi:role="line"
         id="tspan4642"
         x="241.16461"
         y="232.21297"
         style="font-size:8.46666622px;text-align:center;text-anchor:middle;stroke-width:0.26458332">Publication</tspan><tspan
         sodipodi:role="line"
         x="241.16461"
         y="245.44214"
         style="font-size:8.46666622px;text-align:center;text-anchor:middle;stroke-width:0.26458332"
         id="tspan4646">of Analysis and Results</tspan></text>
    <path
       style="fill:none;stroke:#000000;stroke-width:0.75;stroke-linecap:butt;stroke-linejoin:miter;stroke-opacity:1;stroke-miterlimit:4;stroke-dasharray:none;marker-start:url(#Arrow1Lstart);marker-end:url(#Arrow1Lend)"
       d="M 61.694914,127.48729 H 216.22881"
       id="path838"
       inkscape:connector-curvature="0"
       sodipodi:nodetypes="cc" />
    <text
       xml:space="preserve"
       style="font-style:normal;font-weight:normal;font-size:10.58333302px;line-height:1.25;font-family:sans-serif;letter-spacing:0px;word-spacing:0px;fill:#00c853;fill-opacity:1;stroke:none;stroke-width:0.26458332;"
       x="118.47556"
       y="173.89532"
       id="text1138"><tspan
         sodipodi:role="line"
         id="tspan1136"
         x="118.47556"
         y="173.89532"
         style="stroke-width:0.26458332;fill:#00c853;fill-opacity:1;">ODDOL</tspan></text>
    <text
       xml:space="preserve"
       style="font-style:normal;font-weight:normal;font-size:10.58333302px;line-height:1.25;font-family:sans-serif;text-align:center;letter-spacing:0px;word-spacing:0px;text-anchor:middle;fill:#000000;fill-opacity:1;stroke:none;stroke-width:0.26458332"
       x="142.14008"
       y="107.33937"
       id="text1142"><tspan
         sodipodi:role="line"
         id="tspan1140"
         x="142.14008"
         y="107.33937"
         style="font-size:8.46666622px;text-align:center;text-anchor:middle;stroke-width:0.26458332">Linking</tspan><tspan
         sodipodi:role="line"
         x="142.14008"
         y="120.56853"
         style="font-size:8.46666622px;text-align:center;text-anchor:middle;stroke-width:0.26458332"
         id="tspan1144">datasets and Results</tspan></text>
    <text
       xml:space="preserve"
       style="font-style:normal;font-weight:normal;font-size:10.58333302px;line-height:1.25;font-family:sans-serif;letter-spacing:0px;word-spacing:0px;fill:#000000;fill-opacity:1;stroke:none;stroke-width:0.26458332"
       x="137.89232"
       y="254.05559"
       id="text1196"><tspan
         sodipodi:role="line"
         id="tspan1194"
         x="137.89232"
         y="254.05559"
         style="font-size:8.46666622px;text-align:center;text-anchor:middle;stroke-width:0.26458332">Use of real datasets</tspan><tspan
         sodipodi:role="line"
         x="137.89232"
         y="267.28473"
         style="font-size:8.46666622px;text-align:center;text-anchor:middle;stroke-width:0.26458332"
         id="tspan1198">for</tspan><tspan
         sodipodi:role="line"
         x="137.89232"
         y="280.51392"
         style="font-size:8.46666622px;text-align:center;text-anchor:middle;stroke-width:0.26458332"
         id="tspan1200">online learning</tspan></text>
    <circle
       style="stroke-width:0.52916664"
       cx="132.97047"
       cy="191.17003"
       r="1.6933334"
       id="circle4" />
    <circle
       style="stroke-width:0.52916664"
       cx="136.99214"
       cy="193.07503"
       r="1.0583333"
       id="circle6" />
    <circle
       style="stroke-width:0.52916664"
       cx="137.20381"
       cy="188.2067"
       r="2.5400002"
       id="circle8" />
    <path
       style="stroke-width:0.52916664"
       inkscape:connector-curvature="0"
       d="m 144.34472,188.18586 h 1.5875 v 5.18583 h -1.5875 z m 2.96333,-2.2225 h 1.48167 v 7.40833 h -1.48167 z m 2.96333,4.23333 h 1.48167 v 3.175 h -1.48167 z"
       id="path2-2-3" />
  </g>
</svg>
