<?xml version="1.0" encoding="UTF-8" standalone="no"?>
<!-- Created with Inkscape (http://www.inkscape.org/) -->

<svg
   xmlns:dc="http://purl.org/dc/elements/1.1/"
   xmlns:cc="http://creativecommons.org/ns#"
   xmlns:rdf="http://www.w3.org/1999/02/22-rdf-syntax-ns#"
   xmlns:svg="http://www.w3.org/2000/svg"
   xmlns="http://www.w3.org/2000/svg"
   xmlns:sodipodi="http://sodipodi.sourceforge.net/DTD/sodipodi-0.dtd"
   xmlns:inkscape="http://www.inkscape.org/namespaces/inkscape"
   width="297mm"
   height="210mm"
   viewBox="0 0 297 210"
   version="1.1"
   id="svg8"
   inkscape:version="0.92.5 (2060ec1f9f, 2020-04-08)"
   sodipodi:docname="currentapproach.svg">
  <defs
     id="defs2">
    <marker
       inkscape:stockid="Arrow1Lend"
       orient="auto"
       refY="0.0"
       refX="0.0"
       id="Arrow1Lend"
       style="overflow:visible;"
       inkscape:isstock="true">
      <path
         id="path4676"
         d="M 0.0,0.0 L 5.0,-5.0 L -12.5,0.0 L 5.0,5.0 L 0.0,0.0 z "
         style="fill-rule:evenodd;stroke:#000000;stroke-width:1pt;stroke-opacity:1;fill:#000000;fill-opacity:1"
         transform="scale(0.8) rotate(180) translate(12.5,0)" />
    </marker>
  </defs>
  <sodipodi:namedview
     id="base"
     pagecolor="#ffffff"
     bordercolor="#666666"
     borderopacity="1.0"
     inkscape:pageopacity="0.0"
     inkscape:pageshadow="2"
     inkscape:zoom="1"
     inkscape:cx="551.17043"
     inkscape:cy="396.85039"
     inkscape:document-units="mm"
     inkscape:current-layer="layer1"
     showgrid="false"
     inkscape:window-width="1848"
     inkscape:window-height="886"
     inkscape:window-x="72"
     inkscape:window-y="27"
     inkscape:window-maximized="1" />
  <metadata
     id="metadata5">
    <rdf:RDF>
      <cc:Work
         rdf:about="">
        <dc:format>image/svg+xml</dc:format>
        <dc:type
           rdf:resource="http://purl.org/dc/dcmitype/StillImage" />
        <dc:title></dc:title>
      </cc:Work>
    </rdf:RDF>
  </metadata>
  <g
     inkscape:label="Layer 1"
     inkscape:groupmode="layer"
     id="layer1"
     transform="translate(0,-87)">
    <path
       style="stroke-width:1.2477473"
       inkscape:connector-curvature="0"
       d="m 29.52848,165.6275 v 2.4955 h 17.468464 v -2.4955 z m 0,12.47747 h 4.990989 v 7.48648 h 7.486484 v -7.48648 h 4.990991 l -8.734232,-8.73424 z"
       id="path4" />
    <path
       style="stroke-width:2.21046019"
       inkscape:connector-curvature="0"
       d="m 36.779661,103.21997 c -12.201741,0 -22.104605,9.90292 -22.104605,22.10461 0,12.20175 9.902864,22.1046 22.104605,22.1046 12.20174,0 22.104606,-9.90285 22.104606,-22.1046 0,-12.20169 -9.902866,-22.10461 -22.104606,-22.10461 z m 9.94707,30.94645 H 27.93782 c -3.669363,0 -6.631382,-2.96202 -6.631382,-6.63137 0,-3.66934 2.962019,-6.63138 6.631382,-6.63138 l 0.30945,0.0261 c 0.972599,-3.82412 4.398809,-6.65349 8.532387,-6.65349 4.885103,0 8.841835,3.95673 8.841835,8.84181 h 1.105224 c 3.050439,0 5.52615,2.47572 5.52615,5.52618 0,3.05041 -2.475711,5.52614 -5.52615,5.52614 z"
       id="path4-3" />
    <path
       style="stroke-width:0.52916664"
       inkscape:connector-curvature="0"
       d="m 38.559322,203.08594 -4.7625,2.11667 v 3.175 c 0,2.93687 2.032,5.68325 4.7625,6.35 2.7305,-0.66675 4.7625,-3.41313 4.7625,-6.35 v -3.175 z m -1.058333,8.46667 -2.116667,-2.11667 0.746125,-0.74612 1.370542,1.36525 3.487208,-3.48721 0.746125,0.75141 z"
       id="path4-6" />
    <path
       style="stroke-width:0.52916664"
       inkscape:connector-curvature="0"
       d="m 211.41434,119.6483 h 1.5875 v 5.18583 h -1.5875 z m 2.96333,-2.2225 h 1.48167 v 7.40833 h -1.48167 z m 2.96333,4.23333 h 1.48167 v 3.175 H 217.341 Z"
       id="path2-2" />
    <path
       style="stroke-width:2.11666656"
       inkscape:connector-curvature="0"
       d="m 236.04569,165.43167 c 3.51364,0 6.3288,-2.83632 6.3288,-6.35 0,-3.51368 -2.81516,-6.35 -6.3288,-6.35 -3.51368,0 -6.35,2.83632 -6.35,6.35 0,3.51368 2.83632,6.35 6.35,6.35 z m -16.93336,0 c 3.51368,0 6.32884,-2.83632 6.32884,-6.35 0,-3.51368 -2.81516,-6.35 -6.32884,-6.35 -3.51364,0 -6.35,2.83632 -6.35,6.35 0,3.51368 2.83636,6.35 6.35,6.35 z m 0,4.23332 c -4.93184,0 -14.81664,2.47652 -14.81664,7.40836 v 5.29164 h 29.63332 v -5.29164 c 0,-4.93184 -9.88484,-7.40836 -14.81668,-7.40836 z m 16.93336,0 c -0.61384,0 -1.31236,0.0424 -2.0532,0.106 2.45536,1.778 4.16984,4.16984 4.16984,7.30252 v 5.29164 h 12.7 v -5.29164 c 0,-4.93184 -9.88484,-7.40836 -14.81664,-7.40836 z"
       id="path4-9" />
    <path
       style="stroke-width:0.52916664"
       inkscape:connector-curvature="0"
       d="m 238.12599,115.83829 h -4.23334 c -0.58208,0 -1.05304,0.47625 -1.05304,1.05834 l -0.005,8.46666 c 0,0.58209 0.47096,1.05834 1.05304,1.05834 h 6.35529 c 0.58209,0 1.05834,-0.47625 1.05834,-1.05834 v -6.35 z m 1.05833,8.46667 h -4.23333 v -1.05833 h 4.23333 z m 0,-2.11667 h -4.23333 v -1.05833 h 4.23333 z m -1.5875,-2.64583 v -2.91042 l 2.91042,2.91042 z"
       id="path4-1" />
    <path
       style="stroke-width:1.58749986"
       inkscape:connector-curvature="0"
       d="m 240.74569,214.06729 c 1.74627,0 3.15915,-1.42875 3.15915,-3.17499 l 0.015,-15.87501 c -3e-5,-1.74624 -1.42878,-3.17499 -3.17505,-3.17499 h -25.39998 c -1.74627,0 -3.17502,1.42875 -3.17502,3.17499 v 15.87501 c 0,1.74624 1.42875,3.17499 3.17502,3.17499 h -6.35001 v 3.17499 h 38.1 v -3.17499 z m -25.39998,-19.05 h 25.39998 v 15.87501 h -25.39998 z"
       id="path4-2" />
    <text
       xml:space="preserve"
       style="font-style:normal;font-weight:normal;font-size:10.58333302px;line-height:1.25;font-family:sans-serif;letter-spacing:0px;word-spacing:0px;fill:#000000;fill-opacity:1;stroke:none;stroke-width:0.26458332"
       x="39.954784"
       y="234.65482"
       id="text4617"><tspan
         sodipodi:role="line"
         x="39.954784"
         y="234.65482"
         style="text-align:center;text-anchor:middle;stroke-width:0.26458332"
         id="tspan4619">Publication</tspan><tspan
         sodipodi:role="line"
         x="39.954784"
         y="247.88399"
         style="text-align:center;text-anchor:middle;stroke-width:0.26458332"
         id="tspan4623">of Datasets</tspan></text>
    <path
       id="path4640"
       d="m 221.05694,133.23746 v 1.59712 h 11.17988 v -1.59712 z m 0,7.98557 h 3.19425 v 4.79135 h 4.79138 v -4.79135 h 3.19425 l -5.58994,-5.58991 z"
       inkscape:connector-curvature="0"
       style="stroke-width:0.79855829" />
    <text
       xml:space="preserve"
       style="font-style:normal;font-weight:normal;font-size:10.58333302px;line-height:1.25;font-family:sans-serif;letter-spacing:0px;word-spacing:0px;fill:#000000;fill-opacity:1;stroke:none;stroke-width:0.26458332"
       x="233.75635"
       y="233.62904"
       id="text4644"><tspan
         sodipodi:role="line"
         id="tspan4642"
         x="233.75635"
         y="233.62904"
         style="text-align:center;text-anchor:middle;stroke-width:0.26458332">Publication</tspan><tspan
         sodipodi:role="line"
         x="233.75635"
         y="246.8582"
         style="text-align:center;text-anchor:middle;stroke-width:0.26458332"
         id="tspan4646">of Analysis and Results</tspan></text>
    <path
       style="fill:none;stroke:#000000;stroke-width:0.69999999;stroke-linecap:butt;stroke-linejoin:miter;stroke-miterlimit:4;stroke-dasharray:none;stroke-opacity:1;marker-end:url(#Arrow1Lend)"
       d="M 59.915252,134.16102 199.75512,209.28274"
       id="path4671"
       inkscape:connector-curvature="0"
       sodipodi:nodetypes="cc" />
  </g>
</svg>
