<svg version="1.1" xmlns="http://www.w3.org/2000/svg" viewBox="0 0 872 795" width="872" height="795">
  <!-- svg-source:excalidraw -->
  
  <defs>
    <style>
      @font-face {
        font-family: "Virgil";
        src: url("https://excalidraw.com/Virgil.woff2");
      }
      @font-face {
        font-family: "Cascadia";
        src: url("https://excalidraw.com/Cascadia.woff2");
      }
    </style>
  </defs>
  <rect x="0" y="0" width="872" height="795" fill="#ffffff"></rect><g stroke-linecap="round" transform="translate(10 102) rotate(0 119 115)"><path d="M109.83 -1.59 C123.57 -3.98, 141.97 2.14, 155.73 6.21 C169.48 10.28, 181.14 14.81, 192.37 22.84 C203.6 30.88, 215.94 42.12, 223.11 54.43 C230.28 66.74, 232.96 82.75, 235.4 96.69 C237.85 110.64, 240.6 124.7, 237.78 138.09 C234.97 151.47, 226.47 165.84, 218.52 177.01 C210.57 188.18, 201.28 197.19, 190.07 205.1 C178.86 213, 164.4 220.17, 151.24 224.43 C138.08 228.69, 125.19 231.75, 111.14 230.65 C97.08 229.55, 80.19 224.09, 66.93 217.84 C53.66 211.59, 40.8 202.6, 31.56 193.16 C22.31 183.73, 16.98 173.71, 11.45 161.23 C5.92 148.75, -0.95 131.8, -1.62 118.28 C-2.29 104.76, 2.94 93.16, 7.45 80.1 C11.95 67.04, 16.45 50.56, 25.4 39.92 C34.35 29.28, 48.29 22.44, 61.16 16.27 C74.03 10.09, 92.68 5.87, 102.6 2.88 C112.53 -0.11, 115.93 -1.4, 120.72 -1.69 C125.51 -1.97, 131.44 -1.15, 131.35 1.19 M139.95 -0.03 C153.46 0.87, 167.77 11.13, 180.22 18.38 C192.67 25.63, 206.25 32.89, 214.63 43.47 C223.01 54.04, 226.76 68.21, 230.5 81.84 C234.23 95.48, 237.52 112.09, 237.05 125.29 C236.57 138.5, 233.03 149.07, 227.64 161.06 C222.25 173.06, 215.08 187.57, 204.69 197.25 C194.3 206.93, 178.47 213.27, 165.3 219.13 C152.13 224.99, 139.51 231.39, 125.7 232.42 C111.89 233.44, 96.31 229.82, 82.46 225.29 C68.62 220.76, 53.91 214.02, 42.63 205.24 C31.36 196.46, 21.37 184.66, 14.84 172.61 C8.31 160.55, 5.93 146.02, 3.47 132.91 C1.01 119.8, -2.68 107.13, 0.06 93.93 C2.79 80.73, 12.26 65.79, 19.88 53.72 C27.5 41.65, 34.21 29.51, 45.79 21.52 C57.38 13.53, 75.46 9.48, 89.38 5.77 C103.3 2.06, 120.49 0.27, 129.3 -0.76 C138.12 -1.79, 140.4 -1.47, 142.3 -0.42 C144.2 0.62, 141.7 3.59, 140.7 5.5" stroke="#000000" stroke-width="4" fill="none"></path></g><g stroke-linecap="round" transform="translate(316 252) rotate(0 119.5 110.5)"><path d="M111.66 1.26 C125.35 -1.41, 139.74 -0.57, 153.58 2.82 C167.41 6.21, 183.43 12.9, 194.66 21.59 C205.88 30.28, 213.54 43.14, 220.94 54.95 C228.33 66.76, 236.67 79.45, 239.04 92.45 C241.4 105.44, 238.36 120.37, 235.14 132.91 C231.91 145.45, 227.24 156.85, 219.69 167.68 C212.13 178.51, 200.85 189.55, 189.82 197.89 C178.79 206.22, 167.24 214.11, 153.53 217.68 C139.82 221.26, 122.29 220.93, 107.56 219.33 C92.84 217.73, 77.48 213.5, 65.2 208.08 C52.92 202.66, 43.59 196.43, 33.87 186.82 C24.15 177.21, 12.33 162.57, 6.89 150.42 C1.45 138.27, 1.45 127.25, 1.24 113.91 C1.03 100.56, 0.7 82.88, 5.61 70.37 C10.52 57.86, 20.68 48.21, 30.7 38.85 C40.71 29.49, 53.29 20.85, 65.72 14.21 C78.16 7.58, 95.95 1.69, 105.32 -0.95 C114.68 -3.59, 117.86 -2.35, 121.9 -1.6 C125.95 -0.86, 129.77 1.5, 129.58 3.53 M112.74 1.59 C126.61 -0.62, 144.99 0.37, 158.32 4.28 C171.65 8.19, 181.99 16.1, 192.71 25.03 C203.44 33.97, 215.04 46.83, 222.65 57.91 C230.26 68.98, 235.65 78.78, 238.36 91.47 C241.08 104.15, 242.26 120.94, 238.93 134.01 C235.6 147.09, 226.45 158.42, 218.38 169.9 C210.31 181.39, 201.84 194.81, 190.51 202.93 C179.18 211.05, 164.7 215.54, 150.42 218.63 C136.14 221.71, 119.36 223.1, 104.83 221.45 C90.29 219.8, 75.37 215.08, 63.21 208.74 C51.05 202.4, 41.56 192.97, 31.86 183.42 C22.16 173.87, 10.14 163.68, 5.01 151.45 C-0.13 139.22, 0.88 123.83, 1.04 110.03 C1.21 96.23, 0.46 80.82, 5.97 68.65 C11.48 56.49, 24.09 46.8, 34.1 37.04 C44.12 27.29, 53.41 16.62, 66.07 10.13 C78.73 3.63, 102.11 -0.49, 110.08 -1.94 C118.04 -3.39, 113.67 1.06, 113.88 1.41 C114.09 1.76, 110.82 -1.44, 111.33 0.15" stroke="#c92a2a" stroke-width="4" fill="none"></path></g><g transform="translate(28.5 179.5) rotate(0 91 23)"><text x="91" y="32" font-family="Virgil, Segoe UI Emoji" font-size="36px" fill="#000000" text-anchor="middle" style="white-space: pre;" direction="ltr">Languages</text></g><g transform="translate(368.5 351.5) rotate(0 66 23)"><text x="66" y="32" font-family="Virgil, Segoe UI Emoji" font-size="36px" fill="#c92a2a" text-anchor="middle" style="white-space: pre;" direction="ltr">WDProp</text></g><g stroke-linecap="round" transform="translate(65 345) rotate(0 119 115)"><path d="M22.83 47.94 C29.35 36.97, 45.34 26.71, 57.11 19.37 C68.88 12.03, 80.13 7.08, 93.44 3.9 C106.75 0.72, 123.04 -1.53, 136.98 0.28 C150.93 2.1, 164.51 7.55, 177.11 14.77 C189.71 22, 203.65 33.11, 212.57 43.64 C221.49 54.18, 226.71 65.47, 230.62 78 C234.54 90.53, 236.17 104.8, 236.05 118.83 C235.94 132.85, 235.58 149.57, 229.93 162.15 C224.29 174.73, 212.21 184.47, 202.2 194.33 C192.19 204.19, 182.72 215.73, 169.88 221.31 C157.04 226.88, 139.27 226.97, 125.15 227.77 C111.03 228.58, 98.05 229.55, 85.14 226.13 C72.23 222.71, 59.04 216.11, 47.68 207.24 C36.32 198.37, 24.35 185.09, 16.96 172.89 C9.58 160.7, 5.97 147.06, 3.37 134.06 C0.77 121.06, -1.02 108.12, 1.38 94.88 C3.78 81.64, 10.21 66.62, 17.77 54.62 C25.33 42.62, 37.18 30.43, 46.75 22.9 C56.32 15.37, 73.81 7.64, 75.19 9.43 M69.49 12.29 C81.49 4.91, 98.05 -1.01, 112.71 -2.2 C127.37 -3.39, 144.25 0.88, 157.46 5.14 C170.67 9.4, 181.08 14.44, 191.96 23.36 C202.84 32.28, 215.22 46.49, 222.76 58.65 C230.29 70.81, 235.19 83.1, 237.19 96.32 C239.19 109.54, 237.75 124.72, 234.74 137.97 C231.74 151.23, 226.07 164.49, 219.14 175.87 C212.21 187.25, 204.65 197.62, 193.17 206.27 C181.7 214.92, 164 223.73, 150.3 227.77 C136.59 231.8, 125.04 232.1, 110.95 230.48 C96.86 228.86, 78.3 223.74, 65.75 218.03 C53.19 212.33, 45.09 206.15, 35.61 196.27 C26.13 186.39, 14.55 171.97, 8.86 158.75 C3.17 145.53, 1.86 130.18, 1.46 116.96 C1.07 103.74, 2.61 92.32, 6.5 79.42 C10.39 66.52, 15.4 50.35, 24.8 39.58 C34.21 28.81, 55.81 20.21, 62.94 14.82 C70.08 9.43, 66.23 7.29, 67.59 7.25 C68.96 7.21, 69.93 12.72, 71.12 14.56" stroke="#000000" stroke-width="4" fill="none"></path></g><g transform="translate(81 433.5) rotate(0 95.5 23)"><text x="95.5" y="32" font-family="Virgil, Segoe UI Emoji" font-size="36px" fill="#000000" text-anchor="middle" style="white-space: pre;" direction="ltr">Datatypes</text></g><g stroke-linecap="round" transform="translate(282 10) rotate(0 119 115)"><path d="M153.24 5.02 C166.39 6.86, 178.68 13.7, 189.79 22.23 C200.89 30.77, 212.41 44.16, 219.87 56.26 C227.33 68.35, 231.75 81.6, 234.56 94.83 C237.37 108.06, 239.2 122.19, 236.73 135.64 C234.25 149.09, 227.21 163.84, 219.73 175.55 C212.25 187.25, 202.73 197.52, 191.87 205.87 C181.01 214.21, 168.16 221.82, 154.56 225.6 C140.96 229.38, 124.65 229.44, 110.29 228.53 C95.92 227.62, 81.3 225.52, 68.37 220.14 C55.44 214.75, 42.19 205.68, 32.69 196.2 C23.19 186.73, 16.72 175.85, 11.38 163.26 C6.05 150.68, 1.43 134.45, 0.69 120.71 C-0.05 106.96, 2.59 93.82, 6.96 80.77 C11.33 67.72, 18.38 53.35, 26.93 42.42 C35.47 31.48, 46.02 22.06, 58.24 15.15 C70.46 8.25, 86.45 3.1, 100.24 0.99 C114.03 -1.11, 128.33 0.41, 140.99 2.55 C153.65 4.68, 166.96 9.21, 176.19 13.81 C185.42 18.42, 197.42 28.12, 196.36 30.15 M72.59 9.59 C84.5 2.53, 101.1 -0.58, 116 -1.14 C130.89 -1.7, 148.31 1.73, 161.96 6.22 C175.62 10.71, 187.25 16.51, 197.93 25.82 C208.61 35.13, 219.93 49.59, 226.06 62.08 C232.19 74.57, 233.6 87.25, 234.73 100.76 C235.86 114.27, 236.14 130.38, 232.83 143.16 C229.52 155.94, 222.22 166.79, 214.86 177.43 C207.51 188.06, 200.15 198.58, 188.71 206.97 C177.27 215.36, 160.59 224.5, 146.22 227.74 C131.86 230.98, 115.86 228.15, 102.52 226.42 C89.18 224.69, 78.21 223.04, 66.17 217.35 C54.13 211.66, 39.87 202.38, 30.29 192.28 C20.71 182.18, 14.21 169.57, 8.68 156.76 C3.16 143.95, -3.06 129.55, -2.89 115.4 C-2.71 101.26, 4.45 84.8, 9.73 71.9 C15.01 59, 19.47 47.41, 28.8 37.99 C38.13 28.58, 58.17 20.64, 65.7 15.41 C73.23 10.17, 72.38 6.89, 73.97 6.57 C75.56 6.24, 74.28 11.06, 75.25 13.47" stroke="#000000" stroke-width="4" fill="none"></path></g><g transform="translate(321 81.5) rotate(0 74.5 46)"><text x="74.5" y="32" font-family="Virgil, Segoe UI Emoji" font-size="36px" fill="#000000" text-anchor="middle" style="white-space: pre;" direction="ltr">Property</text><text x="74.5" y="78" font-family="Virgil, Segoe UI Emoji" font-size="36px" fill="#000000" text-anchor="middle" style="white-space: pre;" direction="ltr">Classes</text></g><g stroke-linecap="round" transform="translate(542 83) rotate(0 119 115)"><path d="M88.98 5.46 C101.27 0.01, 115.99 -1.59, 129.53 -0.56 C143.06 0.47, 157.65 5.12, 170.21 11.62 C182.77 18.12, 194.81 28.6, 204.91 38.43 C215.01 48.26, 225.03 58.34, 230.81 70.59 C236.6 82.84, 239.68 98.29, 239.61 111.94 C239.55 125.6, 235.61 139.24, 230.43 152.54 C225.24 165.83, 217.3 181.25, 208.53 191.72 C199.75 202.18, 190.06 208.82, 177.78 215.31 C165.51 221.79, 148.96 228.62, 134.86 230.65 C120.76 232.68, 106.86 231.16, 93.18 227.49 C79.51 223.83, 64.97 216.17, 52.82 208.66 C40.67 201.16, 28.68 193.1, 20.28 182.46 C11.89 171.81, 5.4 158.01, 2.44 144.8 C-0.52 131.58, 0.52 116.9, 2.51 103.16 C4.5 89.43, 8.28 74.86, 14.36 62.39 C20.43 49.93, 28.82 37.81, 38.97 28.39 C49.12 18.97, 57.1 10.4, 75.25 5.89 C93.41 1.37, 127.89 -2.57, 147.91 1.29 C167.94 5.15, 196.47 26.82, 195.4 29.06 M63.4 13.43 C73.74 5.61, 86.94 0.5, 100.94 -1.41 C114.93 -3.32, 132.84 -1.47, 147.37 1.96 C161.91 5.4, 176.94 11.36, 188.17 19.22 C199.39 27.07, 206.96 37.54, 214.74 49.12 C222.51 60.69, 231 75.95, 234.82 88.68 C238.65 101.41, 239.81 112.07, 237.66 125.5 C235.52 138.94, 228.8 156.47, 221.95 169.27 C215.1 182.07, 206.89 193.34, 196.55 202.31 C186.22 211.28, 172.97 218.03, 159.94 223.1 C146.92 228.16, 132.22 232.55, 118.4 232.7 C104.58 232.85, 90.15 228.84, 77.04 223.98 C63.92 219.13, 50.56 212.8, 39.72 203.56 C28.88 194.32, 18.43 181.13, 12 168.52 C5.57 155.92, 2.93 141.84, 1.15 127.92 C-0.63 114, -2.49 98.59, 1.33 85.02 C5.16 71.44, 15.31 56.9, 24.09 46.46 C32.86 36.03, 47.74 27.37, 53.99 22.43 C60.25 17.49, 60.3 17.65, 61.63 16.81 C62.97 15.96, 61.13 15.69, 62.01 17.38" stroke="#000000" stroke-width="4" fill="none"></path></g><g transform="translate(586.5 179.5) rotate(0 90 23)"><text x="90" y="32" font-family="Virgil, Segoe UI Emoji" font-size="36px" fill="#000000" text-anchor="middle" style="white-space: pre;" direction="ltr">Properties</text></g><g stroke-linecap="round" transform="translate(624 320) rotate(0 119 115)"><path d="M130.14 -0.55 C143.55 -1.01, 157.88 5.94, 170.54 12.1 C183.2 18.25, 196.45 26.95, 206.09 36.37 C215.73 45.8, 222.82 56.37, 228.36 68.65 C233.9 80.93, 239.01 96.22, 239.31 110.04 C239.62 123.86, 235.06 138.34, 230.17 151.57 C225.28 164.79, 219.01 178.97, 209.97 189.4 C200.94 199.84, 188.02 207.38, 175.96 214.16 C163.9 220.94, 151.19 227.77, 137.61 230.08 C124.04 232.39, 108.76 230.99, 94.51 228.03 C80.27 225.07, 63.97 220.12, 52.12 212.32 C40.27 204.52, 31.33 192.4, 23.43 181.24 C15.53 170.08, 8.39 158.3, 4.75 145.34 C1.1 132.39, 0.24 116.92, 1.58 103.51 C2.92 90.1, 6.89 77.35, 12.77 64.88 C18.64 52.4, 26.19 37.8, 36.84 28.67 C47.49 19.53, 63.09 14.81, 76.68 10.09 C90.28 5.36, 99.8 -1.81, 118.4 0.3 C137 2.4, 170.49 11.45, 188.27 22.72 C206.06 33.99, 226.11 66.67, 225.1 67.92 M107.33 2.86 C120.5 0.29, 135.65 3.36, 148.7 6.42 C161.75 9.48, 173.94 13.78, 185.63 21.23 C197.31 28.68, 210.93 39.53, 218.79 51.12 C226.64 62.72, 229.33 77.15, 232.76 90.79 C236.2 104.42, 241.21 119.3, 239.42 132.95 C237.62 146.6, 229.22 161.05, 221.99 172.69 C214.76 184.33, 206.54 194.23, 196.03 202.8 C185.53 211.38, 172.56 219.8, 158.97 224.14 C145.38 228.47, 128.36 229.13, 114.5 228.81 C100.64 228.49, 88.94 227.05, 75.79 222.22 C62.65 217.38, 46.34 208.74, 35.61 199.8 C24.87 190.86, 17.74 181.31, 11.39 168.57 C5.04 155.83, -1.36 137.13, -2.48 123.35 C-3.59 109.58, 0.19 98.99, 4.71 85.91 C9.22 72.83, 15.76 56.07, 24.61 44.86 C33.45 33.65, 45.74 25.87, 57.77 18.66 C69.8 11.45, 88.99 4.33, 96.79 1.6 C104.59 -1.14, 103.37 1.66, 104.57 2.24 C105.77 2.82, 103.51 3.7, 103.99 5.08" stroke="#000000" stroke-width="4" fill="none"></path></g><g transform="translate(645 392.5) rotate(0 101.5 46)"><text x="101.5" y="32" font-family="Virgil, Segoe UI Emoji" font-size="36px" fill="#000000" text-anchor="middle" style="white-space: pre;" direction="ltr">Translation</text><text x="101.5" y="78" font-family="Virgil, Segoe UI Emoji" font-size="36px" fill="#000000" text-anchor="middle" style="white-space: pre;" direction="ltr">Statistics</text></g><g stroke-linecap="round" transform="translate(248 535) rotate(0 119 115)"><path d="M162.87 8.2 C176.11 11.82, 188.88 22.03, 199.58 31.61 C210.28 41.19, 220.65 53.51, 227.07 65.68 C233.49 77.84, 236.84 91.42, 238.11 104.6 C239.39 117.79, 238.59 131.56, 234.74 144.77 C230.88 157.98, 223.21 172.99, 214.99 183.85 C206.77 194.72, 197.37 202.49, 185.44 209.98 C173.51 217.47, 157.49 225.72, 143.41 228.8 C129.34 231.88, 115.08 230.87, 101.01 228.44 C86.94 226, 71.39 220.76, 58.99 214.18 C46.58 207.6, 35.19 199.4, 26.59 188.95 C17.99 178.49, 11.94 164.25, 7.39 151.47 C2.85 138.7, -0.92 125.62, -0.68 112.31 C-0.44 99, 2.82 84.52, 8.84 71.62 C14.85 58.72, 25.17 45.05, 35.4 34.9 C45.63 24.76, 57.92 16.79, 70.21 10.76 C82.5 4.72, 95.52 -0.05, 109.15 -1.31 C122.78 -2.58, 136.52 -2.14, 151.98 3.15 C167.44 8.44, 189.46 19.14, 201.91 30.42 C214.37 41.7, 228.04 69.4, 226.69 70.81 M105.77 -1.3 C119.43 -4.62, 137.91 -0.01, 151.6 3.66 C165.29 7.34, 177.07 12.14, 187.93 20.74 C198.79 29.34, 209.2 43.14, 216.75 55.26 C224.31 67.38, 230.05 80.36, 233.26 93.48 C236.48 106.59, 237.92 120.52, 236.04 133.96 C234.16 147.39, 228.66 162.14, 221.99 174.07 C215.32 186.01, 206.44 197.07, 196.01 205.56 C185.59 214.06, 173.24 221.07, 159.43 225.04 C145.62 229.02, 128.11 230.24, 113.16 229.41 C98.21 228.58, 82.23 225.32, 69.73 220.04 C57.23 214.76, 47.8 206.67, 38.18 197.73 C28.57 188.78, 18.02 179.08, 12.04 166.35 C6.06 153.63, 3.03 135.26, 2.31 121.38 C1.6 107.49, 4.08 96.18, 7.74 83.06 C11.39 69.94, 15.92 53.25, 24.24 42.66 C32.57 32.06, 45.42 26.4, 57.68 19.5 C69.94 12.59, 89.86 4.47, 97.81 1.23 C105.77 -2.01, 104.24 -0.36, 105.41 0.03 C106.59 0.43, 104.08 1.19, 104.87 3.6" stroke="#000000" stroke-width="4" fill="none"></path></g><g transform="translate(257 623.5) rotate(0 104.5 23)"><text x="104.5" y="32" font-family="Virgil, Segoe UI Emoji" font-size="36px" fill="#000000" text-anchor="middle" style="white-space: pre;" direction="ltr">WikiProjects</text></g><g stroke-linecap="round" transform="translate(505 555) rotate(0 119 115)"><path d="M196.81 28.7 C207.61 36.16, 215.86 49.95, 222.78 62.4 C229.7 74.84, 236.19 89.77, 238.32 103.38 C240.45 116.99, 239.08 131.1, 235.56 144.04 C232.04 156.99, 225.3 170.29, 217.19 181.05 C209.08 191.81, 198.85 201.17, 186.9 208.59 C174.94 216.01, 159.16 222.22, 145.45 225.58 C131.74 228.95, 118.38 230.44, 104.64 228.77 C90.89 227.1, 75.84 222.25, 62.99 215.56 C50.14 208.86, 37.12 198.82, 27.53 188.58 C17.94 178.34, 10.38 166.52, 5.46 154.09 C0.55 141.67, -2.49 127.72, -1.95 114.04 C-1.42 100.37, 2.82 84.85, 8.67 72.03 C14.53 59.22, 23.88 47.52, 33.17 37.17 C42.45 26.82, 52.07 15.77, 64.39 9.93 C76.7 4.09, 92.65 3.28, 107.05 2.12 C121.44 0.96, 137.07 -0.6, 150.76 2.99 C164.44 6.57, 178.39 15.95, 189.17 23.63 C199.94 31.3, 209.12 40.25, 215.39 49.03 C221.67 57.82, 228.26 75.01, 226.8 76.35 M185.79 20.06 C198.67 25.87, 208.99 36.23, 217.32 47.34 C225.66 58.44, 232.69 73.11, 235.81 86.69 C238.92 100.27, 237.83 115.3, 236.03 128.83 C234.24 142.37, 231.22 156.58, 225.06 167.9 C218.91 179.21, 209.09 187.5, 199.11 196.75 C189.13 206, 177.79 217.82, 165.2 223.38 C152.62 228.95, 138.3 229.74, 123.58 230.12 C108.86 230.5, 90.44 230.03, 76.9 225.65 C63.37 221.27, 53.05 212.91, 42.38 203.85 C31.71 194.79, 20.08 183.68, 12.87 171.31 C5.66 158.93, 0.74 143.09, -0.9 129.62 C-2.53 116.15, -0.19 103.47, 3.04 90.49 C6.28 77.51, 10.17 63.78, 18.5 51.72 C26.83 39.66, 41.61 26.49, 53.03 18.14 C64.45 9.78, 73.85 4.59, 87.05 1.59 C100.24 -1.42, 117.89 -1.34, 132.2 0.1 C146.51 1.54, 164.52 7.51, 172.91 10.23 C181.3 12.96, 181.2 14.63, 182.52 16.47 C183.84 18.31, 181.3 19.11, 180.84 21.25" stroke="#000000" stroke-width="4" fill="none"></path></g><g transform="translate(545.5 619.5) rotate(0 89 46)"><text x="89" y="32" font-family="Virgil, Segoe UI Emoji" font-size="36px" fill="#000000" text-anchor="middle" style="white-space: pre;" direction="ltr">Property</text><text x="89" y="78" font-family="Virgil, Segoe UI Emoji" font-size="36px" fill="#000000" text-anchor="middle" style="white-space: pre;" direction="ltr">Discussion</text></g></svg>