<svg version="1.1" xmlns="http://www.w3.org/2000/svg" viewBox="0 0 699 674.9999999999999" width="699" height="674.9999999999999">
  <!-- svg-source:excalidraw -->
  
  <defs>
    <style>
      @font-face {
        font-family: "Virgil";
        src: url("https://excalidraw.com/Virgil.woff2");
      }
      @font-face {
        font-family: "Cascadia";
        src: url("https://excalidraw.com/Cascadia.woff2");
      }
    </style>
  </defs>
  <rect x="0" y="0" width="699" height="674.9999999999999" fill="#ffffff"></rect><g stroke-linecap="round" transform="translate(10 10) rotate(0 339.5 327.49999999999994)"><path d="M313.83 1.59 C336.47 -5.43, 362.55 0.19, 386.5 3.2 C410.45 6.22, 434.88 11.71, 457.51 19.69 C480.14 27.67, 502.14 38.55, 522.29 51.08 C542.44 63.61, 561.13 78.15, 578.4 94.87 C595.66 111.59, 612.5 131.52, 625.86 151.41 C639.21 171.31, 650.11 192.57, 658.53 214.27 C666.95 235.97, 673.01 258.54, 676.4 281.6 C679.79 304.66, 680.77 329.38, 678.89 352.61 C677 375.83, 672.07 398.52, 665.09 420.94 C658.11 443.36, 648.9 466.62, 637.01 487.14 C625.12 507.67, 609.81 526.71, 593.76 544.08 C577.71 561.44, 560.06 577.57, 540.7 591.34 C521.33 605.1, 499.75 617.17, 477.57 626.67 C455.38 636.17, 431.59 643.7, 407.59 648.34 C383.6 652.98, 358.02 654.97, 333.58 654.5 C309.14 654.03, 284.24 650.73, 260.96 645.53 C237.68 640.33, 215.66 633.31, 193.87 623.29 C172.08 613.27, 149.57 599.87, 130.22 585.42 C110.86 570.97, 93.26 554.37, 77.74 536.57 C62.21 518.76, 48.05 499.39, 37.08 478.57 C26.11 457.76, 18.09 434.33, 11.94 411.66 C5.78 389, 1.15 365.9, 0.14 342.59 C-0.87 319.27, 1.76 294.96, 5.86 271.77 C9.97 248.58, 15.71 224.95, 24.78 203.46 C33.85 181.96, 46.62 162.04, 60.3 142.81 C73.99 123.57, 89.22 104.25, 106.87 88.06 C124.52 71.87, 145.24 57.6, 166.2 45.67 C187.16 33.74, 209.75 23.94, 232.63 16.49 C255.51 9.03, 288.86 3.7, 303.48 0.92 C318.09 -1.86, 316.29 -1.09, 320.34 -0.2 C324.39 0.69, 327.51 0.84, 327.75 6.25 M184.94 35.62 C202.89 20.99, 230.45 17.1, 253.92 11.09 C277.38 5.07, 301.73 0.33, 325.73 -0.47 C349.74 -1.26, 374.04 2.1, 397.95 6.33 C421.86 10.56, 446.81 16.03, 469.17 24.92 C491.53 33.81, 512.11 46.29, 532.11 59.69 C552.11 73.09, 572.77 88.48, 589.16 105.31 C605.56 122.13, 618.43 140.49, 630.48 160.63 C642.54 180.78, 653.59 203.94, 661.5 226.16 C669.41 248.37, 675.64 270.61, 677.95 293.93 C680.26 317.24, 678.35 342.93, 675.36 366.04 C672.36 389.15, 667.83 410.9, 659.99 432.59 C652.14 454.28, 640.49 476.14, 628.27 496.18 C616.06 516.23, 603.38 535.8, 586.69 552.87 C570 569.95, 548.63 585.57, 528.14 598.66 C507.65 611.75, 486.23 622.64, 463.73 631.42 C441.23 640.2, 416.87 647.6, 393.13 651.33 C369.4 655.05, 345.2 655.38, 321.31 653.78 C297.43 652.18, 273.12 647.61, 249.84 641.74 C226.56 635.87, 203.06 628.97, 181.63 618.57 C160.19 608.18, 139.73 594.52, 121.22 579.37 C102.71 564.23, 85.39 546.46, 70.56 527.71 C55.73 508.97, 42.61 488.4, 32.27 466.9 C21.92 445.39, 13.66 421.59, 8.47 398.68 C3.28 375.78, 1.23 352.58, 1.15 329.46 C1.06 306.35, 3.37 282.98, 7.98 259.98 C12.58 236.99, 18.87 212.58, 28.77 191.48 C38.67 170.39, 52.64 152.06, 67.38 133.4 C82.12 114.74, 99.24 95.15, 117.2 79.54 C135.15 63.94, 163.61 47.07, 175.12 39.79 C186.64 32.5, 184.05 35.3, 186.29 35.85 C188.54 36.39, 185.99 38.27, 188.6 43.06" stroke="#000000" stroke-width="1" fill="none"></path></g><g stroke-linecap="round" transform="translate(146 22.999999999999886) rotate(0 159.5 153)"><path d="M135.62 1.41 C150.49 -3.15, 169.1 -0.72, 185.32 1.88 C201.54 4.49, 218.33 9.71, 232.94 17.02 C247.55 24.34, 261.43 34.56, 273 45.78 C284.58 57, 294.89 70.03, 302.4 84.37 C309.92 98.7, 315.55 116.11, 318.07 131.77 C320.58 147.44, 320.48 163.06, 317.51 178.35 C314.54 193.63, 308.16 209.49, 300.27 223.47 C292.39 237.45, 281.82 250.97, 270.19 262.24 C258.57 273.51, 245.23 284.06, 230.53 291.1 C215.82 298.15, 198.46 302.3, 181.94 304.49 C165.43 306.69, 147.73 307.01, 131.41 304.29 C115.09 301.56, 98.63 295.74, 84.02 288.15 C69.41 280.57, 55.2 270.16, 43.76 258.8 C32.31 247.44, 22.45 234.2, 15.35 219.99 C8.25 205.78, 3.19 189.36, 1.15 173.54 C-0.88 157.73, 0.33 140.53, 3.16 125.1 C5.99 109.67, 10.34 94.85, 18.13 80.97 C25.92 67.09, 37.78 52.73, 49.88 41.82 C61.99 30.91, 72.66 22.55, 90.75 15.51 C108.83 8.46, 143.32 1.34, 158.38 -0.45 C173.44 -2.24, 180.89 2.22, 181.12 4.76 M84.26 17.27 C97.2 7.85, 116.12 4.67, 132.43 1.97 C148.75 -0.73, 165.91 -1.23, 182.13 1.08 C198.35 3.39, 214.84 8.92, 229.78 15.82 C244.73 22.71, 259.95 31.45, 271.79 42.45 C283.64 53.46, 293.54 67.82, 300.84 81.87 C308.14 95.92, 312.92 111.33, 315.58 126.75 C318.24 142.16, 319.08 158.83, 316.79 174.36 C314.5 189.89, 309.22 205.57, 301.83 219.93 C294.45 234.3, 284.1 249.13, 272.49 260.56 C260.88 271.98, 246.85 281.25, 232.17 288.51 C217.49 295.76, 200.47 301.7, 184.42 304.08 C168.37 306.46, 151.84 304.99, 135.87 302.79 C119.91 300.6, 103.6 297.98, 88.65 290.92 C73.69 283.87, 58.01 271.88, 46.15 260.46 C34.28 249.03, 24.77 236.07, 17.45 222.37 C10.13 208.67, 4.92 193.75, 2.23 178.26 C-0.46 162.76, -1.12 145.07, 1.33 129.41 C3.77 113.75, 9.07 98.61, 16.88 84.27 C24.69 69.93, 37.07 54.57, 48.2 43.39 C59.32 32.22, 77.52 21.05, 83.63 17.22 C89.74 13.39, 83.53 18.1, 84.86 20.43" stroke="#000000" stroke-width="1" fill="none"></path></g><g stroke-linecap="round" transform="translate(371 265.9999999999999) rotate(0 147 139)"><path d="M153.91 0.97 C168.89 -0.57, 185.16 3.5, 199.81 8.76 C214.45 14.01, 229.55 22.59, 241.79 32.5 C254.03 42.41, 265.15 55.3, 273.24 68.23 C281.34 81.16, 287.12 95.45, 290.35 110.07 C293.58 124.69, 294.3 141.23, 292.64 155.94 C290.99 170.65, 287.36 184.97, 280.43 198.33 C273.49 211.69, 262.46 225.27, 251.03 236.09 C239.61 246.9, 225.99 256.46, 211.88 263.22 C197.77 269.97, 181.91 274.71, 166.37 276.6 C150.84 278.49, 134.17 277.28, 118.66 274.57 C103.16 271.86, 87.1 267.72, 73.34 260.35 C59.59 252.98, 46.43 241.86, 36.12 230.33 C25.81 218.8, 17.58 204.94, 11.48 191.16 C5.38 177.39, 0.45 162.58, -0.49 147.68 C-1.43 132.78, 1.3 116.37, 5.82 101.78 C10.34 87.19, 17.76 72.6, 26.62 60.14 C35.48 47.68, 46.37 36.04, 59.01 27.02 C71.64 18, 87.38 10.69, 102.42 6.03 C117.47 1.37, 140.12 0, 149.26 -0.94 C158.4 -1.87, 155.23 -0.47, 157.26 0.42 C159.28 1.31, 161.42 2.17, 161.39 4.41 M203.28 10.89 C217.76 14.34, 231.59 24.2, 243.29 34.17 C254.99 44.14, 265.55 57.58, 273.47 70.71 C281.4 83.84, 287.41 98.53, 290.83 112.96 C294.24 127.4, 295.9 142.74, 293.95 157.3 C292.01 171.86, 286.5 187.08, 279.16 200.33 C271.83 213.57, 261.52 226.03, 249.93 236.76 C238.35 247.5, 223.85 257.95, 209.64 264.76 C195.43 271.57, 180.13 275.92, 164.67 277.63 C149.21 279.34, 132.24 278.39, 116.87 275.01 C101.5 271.63, 86.21 265.24, 72.46 257.35 C58.71 249.45, 44.58 239.09, 34.36 227.64 C24.14 216.19, 16.79 202.53, 11.15 188.64 C5.51 174.75, 1.13 159.12, 0.5 144.29 C-0.13 129.46, 2.83 113.83, 7.37 99.64 C11.92 85.44, 18.79 71.33, 27.78 59.12 C36.78 46.91, 48.57 35.3, 61.32 26.38 C74.07 17.47, 88.92 10.27, 104.29 5.64 C119.66 1.01, 137.61 -1.98, 153.55 -1.4 C169.49 -0.83, 191.66 7.25, 199.91 9.1 C208.17 10.95, 202.8 9.01, 203.1 9.71 C203.39 10.41, 202.72 10.85, 201.68 13.31" stroke="#000000" stroke-width="1" fill="none"></path></g><g stroke-linecap="round" transform="translate(43 298.9999999999999) rotate(0 119.5 110.5)"><path d="M95.68 1.24 C108.44 -2.78, 124.6 -0.64, 138.76 1.78 C152.91 4.2, 168.12 9.05, 180.62 15.75 C193.11 22.45, 204.76 31.76, 213.72 41.97 C222.68 52.19, 230.23 64.53, 234.38 77.04 C238.53 89.54, 239.54 103.8, 238.61 117 C237.69 130.2, 234.74 144.18, 228.82 156.24 C222.91 168.3, 213.35 180.04, 203.12 189.36 C192.9 198.67, 180.57 206.81, 167.46 212.13 C154.35 217.46, 138.87 220.8, 124.46 221.3 C110.05 221.81, 94.61 219.56, 81.01 215.18 C67.41 210.79, 53.68 203.69, 42.85 195.02 C32.02 186.36, 22.92 174.7, 16.04 163.18 C9.16 151.66, 3.72 138.93, 1.58 125.92 C-0.55 112.92, 0.07 97.98, 3.22 85.13 C6.36 72.28, 12.5 59.57, 20.44 48.83 C28.37 38.08, 38.96 28.39, 50.82 20.67 C62.68 12.96, 81.29 6.06, 91.61 2.54 C101.94 -0.99, 106.48 -0.35, 112.78 -0.47 C119.07 -0.6, 129.42 -0.17, 129.39 1.8 M133.49 0.14 C147.09 0.11, 161.88 6.7, 174.63 12.9 C187.38 19.09, 200.33 27.07, 209.98 37.29 C219.64 47.51, 227.74 61.57, 232.56 74.21 C237.38 86.86, 239.11 100.32, 238.88 113.15 C238.65 125.98, 236.68 138.94, 231.19 151.2 C225.7 163.47, 216.07 176.69, 205.95 186.72 C195.83 196.76, 183.49 205.56, 170.47 211.43 C157.44 217.3, 141.72 220.92, 127.81 221.95 C113.91 222.98, 100.38 221.84, 87.03 217.63 C73.69 213.42, 59.55 204.88, 47.73 196.7 C35.91 188.52, 23.79 179.43, 16.11 168.55 C8.42 157.66, 3.75 144.46, 1.61 131.39 C-0.53 118.32, 0.41 103.42, 3.24 90.11 C6.08 76.81, 11.53 62.54, 18.62 51.54 C25.7 40.54, 34.41 32.01, 45.77 24.13 C57.13 16.25, 72.89 8.27, 86.79 4.25 C100.68 0.24, 121.34 0.44, 129.14 0.05 C136.93 -0.35, 132.62 1.63, 133.56 1.9 C134.5 2.17, 134.74 0.23, 134.78 1.67" stroke="#c92a2a" stroke-width="1" fill="none"></path></g><g stroke-linecap="round" transform="translate(253 489.9999999999999) rotate(0 97 84)"><path d="M90.03 0.77 C102.1 -1.16, 115.91 1.75, 127.92 5.3 C139.93 8.86, 152.58 14.64, 162.1 22.12 C171.61 29.6, 179.65 39.85, 185.03 50.19 C190.4 60.54, 194.22 72.98, 194.35 84.2 C194.49 95.42, 191.08 107.14, 185.83 117.5 C180.57 127.86, 172.39 138.76, 162.82 146.34 C153.24 153.93, 140.87 159.43, 128.38 163.03 C115.88 166.62, 100.87 168.73, 87.82 167.92 C74.78 167.11, 61.42 163.65, 50.08 158.17 C38.75 152.7, 27.73 144.1, 19.83 135.06 C11.93 126.02, 5.72 114.64, 2.68 103.92 C-0.35 93.19, -0.73 81.8, 1.63 70.71 C3.99 59.61, 9.63 46.81, 16.83 37.37 C24.03 27.93, 34.09 20.21, 44.83 14.06 C55.57 7.9, 72.47 2.86, 81.28 0.45 C90.09 -1.97, 93.43 -0.55, 97.71 -0.42 C101.98 -0.29, 106.85 -0.16, 106.91 1.22 M83.2 -0.43 C95.09 -3.21, 109.57 -0.32, 121.92 2.78 C134.27 5.87, 147.01 10.78, 157.3 18.15 C167.58 25.52, 177.57 36.92, 183.63 46.99 C189.68 57.05, 192.81 67.42, 193.63 78.55 C194.45 89.68, 193.28 103.1, 188.55 113.77 C183.81 124.45, 174.27 134.58, 165.22 142.59 C156.17 150.61, 146.08 157.7, 134.26 161.87 C122.45 166.04, 107.46 167.85, 94.3 167.63 C81.15 167.4, 66.98 165.05, 55.35 160.52 C43.72 155.99, 32.87 149.16, 24.52 140.44 C16.17 131.72, 9.13 119.21, 5.26 108.2 C1.39 97.18, -0.06 85.34, 1.28 74.37 C2.62 63.4, 6.72 51.95, 13.32 42.36 C19.92 32.77, 30.28 23.61, 40.87 16.85 C51.45 10.08, 69.64 4.19, 76.84 1.77 C84.03 -0.66, 83.08 2.18, 84.04 2.3 C85 2.42, 82.35 1.56, 82.6 2.51" stroke="#000000" stroke-width="1" fill="none"></path></g><g transform="translate(222 117.49999999999989) rotate(0 83.5 46)"><text x="83.5" y="32" font-family="Virgil, Segoe UI Emoji" font-size="36px" fill="#000000" text-anchor="middle" style="white-space: pre;" direction="ltr">Wikidata </text><text x="83.5" y="78" font-family="Virgil, Segoe UI Emoji" font-size="36px" fill="#000000" text-anchor="middle" style="white-space: pre;" direction="ltr">Items</text></g><g transform="translate(387 364.4999999999999) rotate(0 130 46)"><text x="130" y="32" font-family="Virgil, Segoe UI Emoji" font-size="36px" fill="#000000" text-anchor="middle" style="white-space: pre;" direction="ltr">Lexicographical</text><text x="130" y="78" font-family="Virgil, Segoe UI Emoji" font-size="36px" fill="#000000" text-anchor="middle" style="white-space: pre;" direction="ltr">Data</text></g><g transform="translate(283 530.9999999999999) rotate(0 72 46)"><text x="72" y="32" font-family="Virgil, Segoe UI Emoji" font-size="36px" fill="#000000" text-anchor="middle" style="white-space: pre;" direction="ltr">Entity</text><text x="72" y="78" font-family="Virgil, Segoe UI Emoji" font-size="36px" fill="#000000" text-anchor="middle" style="white-space: pre;" direction="ltr">Schemas</text></g><g transform="translate(67.5 372.4999999999999) rotate(0 90 46)"><text x="90" y="32" font-family="Virgil, Segoe UI Emoji" font-size="36px" fill="#c92a2a" text-anchor="middle" style="white-space: pre;" direction="ltr">Wikidata</text><text x="90" y="78" font-family="Virgil, Segoe UI Emoji" font-size="36px" fill="#c92a2a" text-anchor="middle" style="white-space: pre;" direction="ltr">Properties</text></g></svg>