<?xml version="1.0" encoding="UTF-8" standalone="no"?>
<!-- Created with Inkscape (http://www.inkscape.org/) -->

<!-- 
Artwork by John Samuel. 
This work is licensed under a Creative Commons Attribution-ShareAlike 4.0 International License. 
-->

<svg
   xmlns:osb="http://www.openswatchbook.org/uri/2009/osb"
   xmlns:dc="http://purl.org/dc/elements/1.1/"
   xmlns:cc="http://creativecommons.org/ns#"
   xmlns:rdf="http://www.w3.org/1999/02/22-rdf-syntax-ns#"
   xmlns:svg="http://www.w3.org/2000/svg"
   xmlns="http://www.w3.org/2000/svg"
   xmlns:sodipodi="http://sodipodi.sourceforge.net/DTD/sodipodi-0.dtd"
   xmlns:inkscape="http://www.inkscape.org/namespaces/inkscape"
   width="297mm"
   height="210mm"
   viewBox="0 0 1052.3622 744.09448"
   id="svg2"
   version="1.1"
   inkscape:version="0.92.3 (2405546, 2018-03-11)"
   sodipodi:docname="volcano.svg">
  <defs
     id="defs4">
    <linearGradient
       id="linearGradient4824"
       osb:paint="solid">
      <stop
         style="stop-color:#000000;stop-opacity:1;"
         offset="0"
         id="stop4826" />
    </linearGradient>
  </defs>
  <sodipodi:namedview
     id="base"
     pagecolor="#ffffff"
     bordercolor="#666666"
     borderopacity="1.0"
     inkscape:pageopacity="0.0"
     inkscape:pageshadow="2"
     inkscape:zoom="0.84987374"
     inkscape:cx="561.25984"
     inkscape:cy="396.85039"
     inkscape:document-units="px"
     inkscape:current-layer="layer1"
     showgrid="false"
     inkscape:window-width="1600"
     inkscape:window-height="849"
     inkscape:window-x="0"
     inkscape:window-y="0"
     inkscape:window-maximized="1"
     showguides="false" />
  <metadata
     id="metadata7">
    <rdf:RDF>
      <cc:Work
         rdf:about="">
        <dc:format>image/svg+xml</dc:format>
        <dc:type
           rdf:resource="http://purl.org/dc/dcmitype/StillImage" />
        <dc:title></dc:title>
      </cc:Work>
    </rdf:RDF>
  </metadata>
  <g
     inkscape:label="Layer 1"
     inkscape:groupmode="layer"
     id="layer1"
     transform="translate(0,-308.26772)">
    <path
       inkscape:connector-curvature="0"
       id="path1656"
       d="M 5.4075565,1005.7737 190.4774,371.93958"
       style="fill:none;fill-rule:evenodd;stroke:#000000;stroke-width:1.76539576;stroke-linecap:butt;stroke-linejoin:miter;stroke-miterlimit:4;stroke-dasharray:none;stroke-opacity:1"
       sodipodi:nodetypes="cc" />
    <path
       style="fill:none;fill-rule:evenodd;stroke:#000000;stroke-width:1.76539576;stroke-linecap:butt;stroke-linejoin:miter;stroke-miterlimit:4;stroke-dasharray:none;stroke-opacity:1"
       d="m 190.4774,371.93958 c 128.06544,164.93698 585.2535,148.39629 665.40653,0"
       id="path2844"
       inkscape:connector-curvature="0"
       sodipodi:nodetypes="cc" />
    <path
       sodipodi:nodetypes="cc"
       inkscape:connector-curvature="0"
       id="path2873"
       d="m 190.4774,371.93958 c 120.72137,-75.2139 588.40488,-54.2244 665.40653,0"
       style="fill:none;fill-rule:evenodd;stroke:#000000;stroke-width:1.76539576;stroke-linecap:butt;stroke-linejoin:miter;stroke-miterlimit:4;stroke-dasharray:none;stroke-opacity:1" />
    <path
       sodipodi:nodetypes="cc"
       style="fill:none;fill-rule:evenodd;stroke:#000000;stroke-width:1.76539576;stroke-linecap:butt;stroke-linejoin:miter;stroke-miterlimit:4;stroke-dasharray:none;stroke-opacity:1"
       d="M 856.45088,371.93958 1047.0362,1016.8047"
       id="path2877"
       inkscape:connector-curvature="0" />
    <path
       sodipodi:nodetypes="cccccccc"
       inkscape:connector-curvature="0"
       id="path2879"
       d="m 190.4774,371.93958 c -12.68959,161.89253 39.21823,190.26072 92.33402,72.77733 m 0,0 c 33.79603,346.46306 118.94415,186.36147 222.45571,46.63004 m 0,0 c 97.36431,232.20847 220.22386,125.20275 189.31968,-20.06633 m 0,0 c 169.31025,137.62285 147.331,-31.238 161.29712,-99.34104"
       style="fill:none;fill-rule:evenodd;stroke:#000000;stroke-width:1.76539576;stroke-linecap:butt;stroke-linejoin:miter;stroke-miterlimit:4;stroke-dasharray:none;stroke-opacity:1" />
    <path
       style="fill:none;fill-rule:evenodd;stroke:#000000;stroke-width:1.76539576;stroke-linecap:butt;stroke-linejoin:miter;stroke-miterlimit:4;stroke-dasharray:none;stroke-opacity:1"
       d="m 282.81142,444.71691 c 122.17272,-48.36337 415.4542,-35.76169 491.3603,-1.80524"
       id="path2881"
       inkscape:connector-curvature="0"
       sodipodi:nodetypes="cc" />
    <path
       style="fill:none;fill-rule:evenodd;stroke:#000000;stroke-width:1.76539576;stroke-linecap:butt;stroke-linejoin:miter;stroke-miterlimit:4;stroke-dasharray:none;stroke-opacity:1"
       d="m 190.4774,371.93958 c -12.68959,161.89251 39.21823,190.26072 92.33402,72.77733 m 0,0 c 33.79603,346.46305 118.94415,186.36147 222.45571,46.63005 m 0,0 c 97.36431,232.20846 220.22385,125.20274 189.31968,-20.06634 m 0,0 c 169.31025,137.62285 147.331,-31.238 161.29712,-99.34104"
       id="path2883"
       inkscape:connector-curvature="0"
       sodipodi:nodetypes="cccccccc" />
    <path
       sodipodi:nodetypes="cccccssccc"
       inkscape:connector-curvature="0"
       id="path2885"
       d="m 186.39081,396.77364 c -12.68959,161.89252 32.40888,229.0736 85.52466,111.59022 m 0,0 c -26.16197,431.90226 133.97226,190.45227 241.911,44.41217 m 0,0 c 31.69579,98.08375 75.15298,156.80122 113.87575,182.90575 23.5866,15.90065 45.41664,19.70123 61.76216,12.92797 39.47575,-16.35798 43.70153,-94.57028 30.21877,-209.24643 m 0,0 C 909.72404,739.29044 848.51594,458.16885 856.45088,371.93958"
       style="fill:none;fill-rule:evenodd;stroke:#000000;stroke-width:1.76539576;stroke-linecap:butt;stroke-linejoin:miter;stroke-miterlimit:4;stroke-dasharray:none;stroke-opacity:1" />
    <path
       style="fill:none;fill-rule:evenodd;stroke:#000000;stroke-width:1.76539576;stroke-linecap:butt;stroke-linejoin:miter;stroke-miterlimit:4;stroke-dasharray:none;stroke-opacity:1"
       d="m 168.74113,455.33653 c -12.68959,161.89252 13.65609,254.44503 66.77187,136.96165 m 0,0 c -26.16197,431.90222 170.37473,187.14295 278.31347,41.10285 m 0,0 c 128.534,329.73978 320.97557,246.53647 262.11504,6.44318 m 0,0 c 354.22019,630.27589 80.80586,-160.09903 80.50937,-267.90463"
       id="path2887"
       inkscape:connector-curvature="0"
       sodipodi:nodetypes="cccccccc" />
    <path
       sodipodi:nodetypes="cccccc"
       inkscape:connector-curvature="0"
       id="path2889"
       d="m 123.51382,608.66813 c -12.68959,161.89252 58.8834,101.11343 111.99918,-16.36995 m 0,0 C 66.962338,1247.1818 474.69484,912.4415 513.82647,633.40103 m 262.11504,6.44318 C 965.9824,839.77133 848.51594,458.16885 856.45088,371.93958"
       style="fill:none;fill-rule:evenodd;stroke:#000000;stroke-width:1.76539576;stroke-linecap:butt;stroke-linejoin:miter;stroke-miterlimit:4;stroke-dasharray:none;stroke-opacity:1" />
    <path
       sodipodi:nodetypes="cc"
       inkscape:connector-curvature="0"
       id="path2891"
       d="m 323.62631,459.27344 c 118.99618,-32.48069 341.05382,-23.37205 419.65847,-2.90835"
       style="fill:none;fill-rule:evenodd;stroke:#000000;stroke-width:1.76539576;stroke-linecap:butt;stroke-linejoin:miter;stroke-miterlimit:4;stroke-dasharray:none;stroke-opacity:1" />
  </g>
</svg>
