<?xml version="1.0" encoding="UTF-8" standalone="no"?>
<!-- Created with Inkscape (http://www.inkscape.org/) -->

<!-- 
Artwork by John Samuel. 
This work is licensed under a Creative Commons Attribution-ShareAlike 4.0 International License. 
-->

<svg
   xmlns:osb="http://www.openswatchbook.org/uri/2009/osb"
   xmlns:dc="http://purl.org/dc/elements/1.1/"
   xmlns:cc="http://creativecommons.org/ns#"
   xmlns:rdf="http://www.w3.org/1999/02/22-rdf-syntax-ns#"
   xmlns:svg="http://www.w3.org/2000/svg"
   xmlns="http://www.w3.org/2000/svg"
   xmlns:sodipodi="http://sodipodi.sourceforge.net/DTD/sodipodi-0.dtd"
   xmlns:inkscape="http://www.inkscape.org/namespaces/inkscape"
   width="297mm"
   height="210mm"
   viewBox="0 0 1052.3622 744.09448"
   id="svg2"
   version="1.1"
   inkscape:version="0.91 r13725"
   sodipodi:docname="path.svg">
  <defs
     id="defs4">
    <linearGradient
       id="linearGradient4824"
       osb:paint="solid">
      <stop
         style="stop-color:#000000;stop-opacity:1;"
         offset="0"
         id="stop4826" />
    </linearGradient>
  </defs>
  <sodipodi:namedview
     id="base"
     pagecolor="#ffffff"
     bordercolor="#666666"
     borderopacity="1.0"
     inkscape:pageopacity="0.0"
     inkscape:pageshadow="2"
     inkscape:zoom="0.95955556"
     inkscape:cx="526.1811"
     inkscape:cy="372.04724"
     inkscape:document-units="px"
     inkscape:current-layer="layer1"
     showgrid="false"
     inkscape:window-width="1600"
     inkscape:window-height="871"
     inkscape:window-x="0"
     inkscape:window-y="0"
     inkscape:window-maximized="1"
     showguides="false"
     inkscape:guide-bbox="true">
    <sodipodi:guide
       position="0,0"
       orientation="0,1052.3622"
       id="guide22179" />
    <sodipodi:guide
       position="1052.3622,0"
       orientation="-744.09449,0"
       id="guide22181" />
    <sodipodi:guide
       position="0,744.09449"
       orientation="744.09449,0"
       id="guide22185" />
    <sodipodi:guide
       position="0,0"
       orientation="0,1052.3622"
       id="guide22187" />
    <sodipodi:guide
       position="1052.3622,0"
       orientation="-744.09449,0"
       id="guide22189" />
    <sodipodi:guide
       position="1052.3622,744.09449"
       orientation="0,-1052.3622"
       id="guide22191" />
    <sodipodi:guide
       position="0,744.09449"
       orientation="744.09449,0"
       id="guide22193" />
    <sodipodi:guide
       position="5.684342e-14,552.54958"
       orientation="372.04721,0"
       id="guide22197" />
    <sodipodi:guide
       position="1.8457631,369.56484"
       orientation="0,526.18109"
       id="guide22199" />
    <sodipodi:guide
       position="528.02686,369.56484"
       orientation="-372.04721,0"
       id="guide22201" />
    <sodipodi:guide
       position="528.02686,741.61205"
       orientation="0,-526.18109"
       id="guide22203" />
    <inkscape:grid
       type="xygrid"
       id="grid22211" />
  </sodipodi:namedview>
  <metadata
     id="metadata7">
    <rdf:RDF>
      <cc:Work
         rdf:about="">
        <dc:format>image/svg+xml</dc:format>
        <dc:type
           rdf:resource="http://purl.org/dc/dcmitype/StillImage" />
        <dc:title></dc:title>
      </cc:Work>
    </rdf:RDF>
  </metadata>
  <g
     inkscape:label="Layer 1"
     inkscape:groupmode="layer"
     id="layer1"
     transform="translate(0,-308.26772)">
    <path
       style="fill:#c5beb7;fill-opacity:1;fill-rule:evenodd;stroke:#c5beb7;stroke-width:1px;stroke-linecap:butt;stroke-linejoin:miter;stroke-opacity:1"
       d="m 1052.0756,401.23344 c -81.90491,0.12961 -159.37688,2.93623 -206.40279,4.9481 -142.17119,6.0824 -92.50633,12.73063 10.45271,38.17094 31.92407,7.88817 65.60123,16.60803 85.50938,20.79827 101.9688,21.46226 80.4368,36.92712 21.83197,41.04101 -120.02736,8.42559 -226.14803,12.76413 -285.44015,16.32197 -99.19844,5.95243 -201.80699,-2.63646 -6.36161,30.65903 82.55764,14.06427 147.74789,31.26669 208.32726,43.75579 80.1401,16.52176 101.82248,42.61092 -34.80942,53.16409 -81.3572,6.28386 -293.81697,8.28326 -424.01419,13.48549 -126.88704,5.06997 -168.23652,9.07091 56.13555,62.59139 133.20433,31.77383 226.74605,58.2185 272.00092,70.86616 126.88665,35.46179 88.19343,65.2495 -23.93884,95.97402 C 556.33332,939.32519 224.4736,1003.4016 4.682073e-8,1046.1093 L -0.48263085,948.40019 C 200.37659,927.91153 510.55974,884.18266 661.75743,857.44177 760.83165,839.91946 774.90487,840.09758 698.79944,818.13156 653.65326,805.10119 573.62073,784.91654 436.17785,749.3497 158.36722,677.45914 241.95268,643.59468 402.5293,639.97129 528.49611,637.12886 716.7168,635.24674 786.33997,632.4604 924.49242,626.9315 912.11686,620.54757 860.50581,607.46797 801.56461,592.53072 687.28631,571.347 650.86058,563.84715 441.80437,520.80364 501.39805,524.33097 673.42341,513.377 c 54.49933,-3.47033 146.03193,-10.75157 237.97446,-16.22739 58.85902,-3.50546 140.81513,3.10133 12.97299,-26.25145 -22.30066,-5.12027 -41.38142,-9.28129 -121.87758,-30.54568 -107.13933,-28.30262 -76.47926,-34.01529 46.26915,-37.47533 48.54881,-1.3685 117.50702,-3.0566 205.40977,-6.33338 z"
       id="path4215"
       inkscape:connector-curvature="0"
       sodipodi:nodetypes="cssssssssssssccsssssssssssscc" />
  </g>
</svg>
