<svg xmlns="http://www.w3.org/2000/svg" width="1600" height="900" viewBox="0 0 1600 900">
  <defs>
    <linearGradient id="bg4" x1="0" y1="0" x2="1" y2="1"><stop offset="0" stop-color="#081C33"/><stop offset="1" stop-color="#124A71"/></linearGradient>
  </defs>
  <rect width="1600" height="900" fill="url(#bg4)"/>
  <text x="800" y="95" text-anchor="middle" font-family="Segoe UI, Arial" font-size="48" fill="#E8F6FF">Cl&#233;s de jointure entre les sources</text>
  <g font-family="Segoe UI, Arial" fill="#E8F6FF">
    <rect x="170" y="190" width="560" height="520" rx="24" fill="#ffffff" fill-opacity="0.1" stroke="#4EDBFF"/>
    <text x="450" y="260" text-anchor="middle" font-size="34">MESURES PROCESS</text>
    <text x="250" y="350" font-size="30">lot_id</text><text x="500" y="350" font-size="30">A102</text>
    <text x="250" y="430" font-size="30">machine_id</text><text x="500" y="430" font-size="30">LIG-3</text>
    <text x="250" y="510" font-size="30">horodatage</text><text x="500" y="510" font-size="30">08:15</text>

    <rect x="870" y="190" width="560" height="520" rx="24" fill="#ffffff" fill-opacity="0.1" stroke="#6EF0C0"/>
    <text x="1150" y="260" text-anchor="middle" font-size="34">ERP QUALIT&#201;</text>
    <text x="950" y="350" font-size="30">lot_id</text><text x="1200" y="350" font-size="30">A102</text>
    <text x="950" y="430" font-size="30">machine_id</text><text x="1200" y="430" font-size="30">LIG-3</text>
    <text x="950" y="510" font-size="30">horodatage</text><text x="1200" y="510" font-size="30">08:20</text>
  </g>
  <line x1="730" y1="340" x2="870" y2="340" stroke="#60E6FF" stroke-width="7"/>
  <line x1="730" y1="420" x2="870" y2="420" stroke="#60E6FF" stroke-width="7"/>
  <line x1="730" y1="500" x2="870" y2="500" stroke="#60E6FF" stroke-width="7"/>
</svg>