<svg xmlns="http://www.w3.org/2000/svg" width="960" height="540" viewBox="0 0 960 540">
  <rect width="960" height="540" fill="#fffaf5"/>
  <text x="40" y="60" font-size="34" font-family="Arial" fill="#8a4d12">Extraction et intégration</text>
  <rect x="70" y="130" width="180" height="90" rx="12" fill="#ffd8b2"/><text x="115" y="185" font-size="22" font-family="Arial">SCADA</text>
  <rect x="70" y="260" width="180" height="90" rx="12" fill="#ffd8b2"/><text x="130" y="315" font-size="22" font-family="Arial">ERP</text>
  <rect x="70" y="390" width="180" height="90" rx="12" fill="#ffd8b2"/><text x="125" y="445" font-size="22" font-family="Arial">LIMS</text>
  <rect x="360" y="220" width="260" height="160" rx="14" fill="#ffbf86"/>
  <text x="435" y="290" font-size="30" font-family="Arial">Jointure</text>
  <text x="420" y="325" font-size="22" font-family="Arial">lot + horodatage</text>
  <rect x="700" y="250" width="190" height="110" rx="12" fill="#ffab5f"/>
  <text x="735" y="315" font-size="24" font-family="Arial">Table cible</text>
  <path d="M260 175 L350 255" stroke="#8a4d12" stroke-width="6" marker-end="url(#b)"/>
  <path d="M260 305 L350 300" stroke="#8a4d12" stroke-width="6" marker-end="url(#b)"/>
  <path d="M260 435 L350 345" stroke="#8a4d12" stroke-width="6" marker-end="url(#b)"/>
  <path d="M630 300 L690 305" stroke="#8a4d12" stroke-width="6" marker-end="url(#b)"/>
  <defs><marker id="b" markerWidth="12" markerHeight="12" refX="8" refY="4" orient="auto"><path d="M0,0 L0,8 L10,4 z" fill="#8a4d12"/></marker></defs>
</svg>