<svg xmlns="http://www.w3.org/2000/svg" width="960" height="540" viewBox="0 0 960 540">
<style>text{letter-spacing:.2px} line,polyline,path{stroke-linecap:round;stroke-linejoin:round}</style>
<defs>
  <linearGradient id="fx-bg-gradient" x1="0" y1="0" x2="1" y2="1">
    <stop offset="0%" stop-color="#f3f8ff"/>
    <stop offset="55%" stop-color="#eaf4ff"/>
    <stop offset="100%" stop-color="#e6fbff"/>
  </linearGradient>
  <linearGradient id="fx-panel-gradient" x1="0" y1="0" x2="1" y2="1">
    <stop offset="0%" stop-color="#ffffff" stop-opacity="0.92"/>
    <stop offset="100%" stop-color="#eff8ff" stop-opacity="0.76"/>
  </linearGradient>
  <pattern id="fx-grid" width="32" height="32" patternUnits="userSpaceOnUse">
    <path d="M32 0H0V32" fill="none" stroke="#3b82f6" stroke-opacity="0.12" stroke-width="1"/>
  </pattern>
  <filter id="fx-shadow" x="-20%" y="-20%" width="140%" height="140%">
    <feDropShadow dx="0" dy="6" stdDeviation="8" flood-color="#0f172a" flood-opacity="0.18"/>
  </filter>
  <filter id="fx-glow" x="-50%" y="-50%" width="200%" height="200%">
    <feGaussianBlur stdDeviation="14" result="blur"/>
    <feMerge>
      <feMergeNode in="blur"/>
      <feMergeNode in="SourceGraphic"/>
    </feMerge>
  </filter>
</defs>
<rect class="fx-bg" width="960" height="540" fill="url(#fx-bg-gradient)"/>
<circle cx="120" cy="90" r="130" fill="#38bdf8" opacity="0.16" filter="url(#fx-glow)"/>
<circle cx="860" cy="460" r="180" fill="#22d3ee" opacity="0.14" filter="url(#fx-glow)"/>
<rect class="fx-overlay" width="960" height="540" fill="url(#fx-grid)" opacity="0.42"/>
<rect class="fx-panel" x="34" y="88" width="892" height="420" rx="24" fill="url(#fx-panel-gradient)" stroke="#93c5fd" stroke-opacity="0.55" stroke-width="2" filter="url(#fx-shadow)"/>
<path d="M52 64H180" stroke="#0ea5e9" stroke-width="3" stroke-linecap="round"/>
<path d="M780 474H908" stroke="#06b6d4" stroke-width="3" stroke-linecap="round"/>


  <text x="40" y="60" font-size="34" font-family="Segoe UI, Inter, Arial, sans-serif" fill="#5037a0">Prétraitement</text>
  <polygon points="120,120 840,120 650,430 310,430" fill="#d8d0ff"/>
  <line x1="170" y1="190" x2="790" y2="190" stroke="#6a54c2" stroke-width="4"/>
  <line x1="215" y1="260" x2="745" y2="260" stroke="#6a54c2" stroke-width="4"/>
  <line x1="255" y1="330" x2="705" y2="330" stroke="#6a54c2" stroke-width="4"/>
  <text x="380" y="170" font-size="24" font-family="Segoe UI, Inter, Arial, sans-serif">Nettoyage</text>
  <text x="360" y="240" font-size="24" font-family="Segoe UI, Inter, Arial, sans-serif">Valeurs manquantes</text>
  <text x="370" y="310" font-size="24" font-family="Segoe UI, Inter, Arial, sans-serif">Normalisation</text>
  <text x="350" y="395" font-size="26" font-family="Segoe UI, Inter, Arial, sans-serif">Dataset fiable</text>
</svg>