<svg xmlns="http://www.w3.org/2000/svg" width="960" height="540" viewBox="0 0 960 540">
<style>text{letter-spacing:.2px} line,polyline,path{stroke-linecap:round;stroke-linejoin:round}</style>
<defs>
  <linearGradient id="fx-bg-gradient" x1="0" y1="0" x2="1" y2="1">
    <stop offset="0%" stop-color="#f3f8ff"/>
    <stop offset="55%" stop-color="#eaf4ff"/>
    <stop offset="100%" stop-color="#e6fbff"/>
  </linearGradient>
  <linearGradient id="fx-panel-gradient" x1="0" y1="0" x2="1" y2="1">
    <stop offset="0%" stop-color="#ffffff" stop-opacity="0.92"/>
    <stop offset="100%" stop-color="#eff8ff" stop-opacity="0.76"/>
  </linearGradient>
  <pattern id="fx-grid" width="32" height="32" patternUnits="userSpaceOnUse">
    <path d="M32 0H0V32" fill="none" stroke="#3b82f6" stroke-opacity="0.12" stroke-width="1"/>
  </pattern>
  <filter id="fx-shadow" x="-20%" y="-20%" width="140%" height="140%">
    <feDropShadow dx="0" dy="6" stdDeviation="8" flood-color="#0f172a" flood-opacity="0.18"/>
  </filter>
  <filter id="fx-glow" x="-50%" y="-50%" width="200%" height="200%">
    <feGaussianBlur stdDeviation="14" result="blur"/>
    <feMerge>
      <feMergeNode in="blur"/>
      <feMergeNode in="SourceGraphic"/>
    </feMerge>
  </filter>
</defs>
<rect class="fx-bg" width="960" height="540" fill="url(#fx-bg-gradient)"/>
<circle cx="120" cy="90" r="130" fill="#38bdf8" opacity="0.16" filter="url(#fx-glow)"/>
<circle cx="860" cy="460" r="180" fill="#22d3ee" opacity="0.14" filter="url(#fx-glow)"/>
<rect class="fx-overlay" width="960" height="540" fill="url(#fx-grid)" opacity="0.42"/>
<rect class="fx-panel" x="34" y="88" width="892" height="420" rx="24" fill="url(#fx-panel-gradient)" stroke="#93c5fd" stroke-opacity="0.55" stroke-width="2" filter="url(#fx-shadow)"/>
<path d="M52 64H180" stroke="#0ea5e9" stroke-width="3" stroke-linecap="round"/>
<path d="M780 474H908" stroke="#06b6d4" stroke-width="3" stroke-linecap="round"/>


  <text x="40" y="60" font-size="34" font-family="Segoe UI, Inter, Arial, sans-serif" fill="#8d2430">ETL</text>
  <circle cx="260" cy="270" r="110" fill="#ffc6cc"/><text x="220" y="280" font-size="40" font-family="Segoe UI, Inter, Arial, sans-serif">E</text>
  <circle cx="480" cy="170" r="110" fill="#ff9ea9"/><text x="440" y="180" font-size="40" font-family="Segoe UI, Inter, Arial, sans-serif">T</text>
  <circle cx="700" cy="270" r="110" fill="#ff7687"/><text x="664" y="280" font-size="40" font-family="Segoe UI, Inter, Arial, sans-serif">L</text>
  <path d="M350 220 L400 195" stroke="#8d2430" stroke-width="8" marker-end="url(#d)"/>
  <path d="M560 195 L610 220" stroke="#8d2430" stroke-width="8" marker-end="url(#d)"/>
  <path d="M610 320 L350 320" stroke="#8d2430" stroke-width="8" marker-end="url(#d)"/>
  <text x="170" y="450" font-size="24" font-family="Segoe UI, Inter, Arial, sans-serif" fill="#611822">Extract -> Transform -> Load -> Dashboard</text>
  <defs><marker id="d" markerWidth="12" markerHeight="12" refX="8" refY="4" orient="auto"><path d="M0,0 L0,8 L10,4 z" fill="#8d2430"/></marker></defs>
</svg>