<?xml version="1.0"?><svg xmlns="http://www.w3.org/2000/svg" version="1.1" width="120" height="60">


<defs><clipPath id="chart0-0"><rect x="-2.500000" y="-0.500000" width="5.000000" height="2.000000" /></clipPath></defs>
<g transform="translate(0.000000 60.000000) scale(24.000000 -30.000000) translate(2.500000 0.500000)">

<!-- Horiz labels -->
<line x1="-2.500000" y1="-0.500000" x2="-2.500000" y2="1.500000" style="stroke:#c0c0c0;stroke-width:0.008333"/>
<line x1="-2.000000" y1="-0.500000" x2="-2.000000" y2="1.500000" style="stroke:#c0c0c0;stroke-width:0.008333"/>
<line x1="-1.500000" y1="-0.500000" x2="-1.500000" y2="1.500000" style="stroke:#c0c0c0;stroke-width:0.008333"/>
<line x1="-1.000000" y1="-0.500000" x2="-1.000000" y2="1.500000" style="stroke:#c0c0c0;stroke-width:0.008333"/>
<line x1="-0.500000" y1="-0.500000" x2="-0.500000" y2="1.500000" style="stroke:#c0c0c0;stroke-width:0.008333"/>
<line x1="0.000000" y1="-0.500000" x2="0.000000" y2="1.500000" style="stroke:#000000;stroke-width:0.008333"/>
<line x1="0.500000" y1="-0.500000" x2="0.500000" y2="1.500000" style="stroke:#c0c0c0;stroke-width:0.008333"/>
<line x1="1.000000" y1="-0.500000" x2="1.000000" y2="1.500000" style="stroke:#c0c0c0;stroke-width:0.008333"/>
<line x1="1.500000" y1="-0.500000" x2="1.500000" y2="1.500000" style="stroke:#c0c0c0;stroke-width:0.008333"/>
<line x1="2.000000" y1="-0.500000" x2="2.000000" y2="1.500000" style="stroke:#c0c0c0;stroke-width:0.008333"/>
<line x1="2.500000" y1="-0.500000" x2="2.500000" y2="1.500000" style="stroke:#c0c0c0;stroke-width:0.008333"/>


<!-- Vert labels -->
<line x1="-2.500000" y1="-0.500000" x2="2.500000" y2="-0.500000" style="stroke:#c0c0c0;stroke-width:0.006667"/>
<line x1="-2.500000" y1="0.000000" x2="2.500000" y2="0.000000" style="stroke:#000000;stroke-width:0.006667"/>
<line x1="-2.500000" y1="0.500000" x2="2.500000" y2="0.500000" style="stroke:#c0c0c0;stroke-width:0.006667"/>
<line x1="-2.500000" y1="1.000000" x2="2.500000" y2="1.000000" style="stroke:#c0c0c0;stroke-width:0.006667"/>
<line x1="-2.500000" y1="1.500000" x2="2.500000" y2="1.500000" style="stroke:#c0c0c0;stroke-width:0.006667"/>


<!-- Clipped region -->
<g clip-path="url(#chart0-0)">
<line x1="-2.500000" y1="0.001930" x2="-2.416667" y2="0.002908" style="stroke:#7f0000;stroke-width:0.016910"/>
<line x1="-2.416667" y1="0.002908" x2="-2.333333" y2="0.004320" style="stroke:#7f0000;stroke-width:0.017017"/>
<line x1="-2.333333" y1="0.004320" x2="-2.250000" y2="0.006330" style="stroke:#7f0000;stroke-width:0.017164"/>
<line x1="-2.250000" y1="0.006330" x2="-2.166667" y2="0.009146" style="stroke:#7f0000;stroke-width:0.017361"/>
<line x1="-2.166667" y1="0.009146" x2="-2.083333" y2="0.013033" style="stroke:#7f0000;stroke-width:0.017619"/>
<line x1="-2.083333" y1="0.013033" x2="-2.000000" y2="0.018316" style="stroke:#7f0000;stroke-width:0.017951"/>
<line x1="-2.000000" y1="0.018316" x2="-1.916667" y2="0.025385" style="stroke:#7f0000;stroke-width:0.018368"/>
<line x1="-1.916667" y1="0.025385" x2="-1.833333" y2="0.034697" style="stroke:#7f0000;stroke-width:0.018877"/>
<line x1="-1.833333" y1="0.034697" x2="-1.750000" y2="0.046771" style="stroke:#7f0000;stroke-width:0.019482"/>
<line x1="-1.750000" y1="0.046771" x2="-1.666667" y2="0.062177" style="stroke:#7f0000;stroke-width:0.020176"/>
<line x1="-1.666667" y1="0.062177" x2="-1.583333" y2="0.081517" style="stroke:#7f0000;stroke-width:0.020945"/>
<line x1="-1.583333" y1="0.081517" x2="-1.500000" y2="0.105399" style="stroke:#7f0000;stroke-width:0.021761"/>
<line x1="-1.500000" y1="0.105399" x2="-1.416667" y2="0.134399" style="stroke:#7f0000;stroke-width:0.022588"/>
<line x1="-1.416667" y1="0.134399" x2="-1.333333" y2="0.169013" style="stroke:#7f0000;stroke-width:0.023383"/>
<line x1="-1.333333" y1="0.169013" x2="-1.250000" y2="0.209611" style="stroke:#7f0000;stroke-width:0.024108"/>
<line x1="-1.250000" y1="0.209611" x2="-1.166667" y2="0.256376" style="stroke:#7f0000;stroke-width:0.024730"/>
<line x1="-1.166667" y1="0.256376" x2="-1.083333" y2="0.309248" style="stroke:#7f0000;stroke-width:0.025234"/>
<line x1="-1.083333" y1="0.309248" x2="-1.000000" y2="0.367879" style="stroke:#7f0000;stroke-width:0.025619"/>
<line x1="-1.000000" y1="0.367879" x2="-0.916667" y2="0.431591" style="stroke:#7f0000;stroke-width:0.025894"/>
<line x1="-0.916667" y1="0.431591" x2="-0.833333" y2="0.499352" style="stroke:#7f0000;stroke-width:0.026075"/>
<line x1="-0.833333" y1="0.499352" x2="-0.750000" y2="0.569783" style="stroke:#7f0000;stroke-width:0.026177"/>
<line x1="-0.750000" y1="0.569783" x2="-0.666667" y2="0.641180" style="stroke:#7f0000;stroke-width:0.026211"/>
<line x1="-0.666667" y1="0.641180" x2="-0.583333" y2="0.711573" style="stroke:#7f0000;stroke-width:0.026176"/>
<line x1="-0.583333" y1="0.711573" x2="-0.500000" y2="0.778801" style="stroke:#7f0000;stroke-width:0.026053"/>
<line x1="-0.500000" y1="0.778801" x2="-0.416667" y2="0.840624" style="stroke:#7f0000;stroke-width:0.025798"/>
<line x1="-0.416667" y1="0.840624" x2="-0.333333" y2="0.894839" style="stroke:#7f0000;stroke-width:0.025331"/>
<line x1="-0.333333" y1="0.894839" x2="-0.250000" y2="0.939413" style="stroke:#7f0000;stroke-width:0.024523"/>
<line x1="-0.250000" y1="0.939413" x2="-0.166667" y2="0.972604" style="stroke:#7f0000;stroke-width:0.023193"/>
<line x1="-0.166667" y1="0.972604" x2="-0.083333" y2="0.993080" style="stroke:#7f0000;stroke-width:0.021156"/>
<line x1="-0.083333" y1="0.993080" x2="-0.000000" y2="1.000000" style="stroke:#7f0000;stroke-width:0.018334"/>
<line x1="-0.000000" y1="1.000000" x2="0.083333" y2="0.993080" style="stroke:#7f0000;stroke-width:0.018334"/>
<line x1="0.083333" y1="0.993080" x2="0.166667" y2="0.972604" style="stroke:#7f0000;stroke-width:0.021156"/>
<line x1="0.166667" y1="0.972604" x2="0.250000" y2="0.939413" style="stroke:#7f0000;stroke-width:0.023193"/>
<line x1="0.250000" y1="0.939413" x2="0.333333" y2="0.894839" style="stroke:#7f0000;stroke-width:0.024523"/>
<line x1="0.333333" y1="0.894839" x2="0.416667" y2="0.840624" style="stroke:#7f0000;stroke-width:0.025331"/>
<line x1="0.416667" y1="0.840624" x2="0.500000" y2="0.778801" style="stroke:#7f0000;stroke-width:0.025798"/>
<line x1="0.500000" y1="0.778801" x2="0.583333" y2="0.711573" style="stroke:#7f0000;stroke-width:0.026053"/>
<line x1="0.583333" y1="0.711573" x2="0.666667" y2="0.641180" style="stroke:#7f0000;stroke-width:0.026176"/>
<line x1="0.666667" y1="0.641180" x2="0.750000" y2="0.569783" style="stroke:#7f0000;stroke-width:0.026211"/>
<line x1="0.750000" y1="0.569783" x2="0.833333" y2="0.499352" style="stroke:#7f0000;stroke-width:0.026177"/>
<line x1="0.833333" y1="0.499352" x2="0.916667" y2="0.431591" style="stroke:#7f0000;stroke-width:0.026075"/>
<line x1="0.916667" y1="0.431591" x2="1.000000" y2="0.367879" style="stroke:#7f0000;stroke-width:0.025894"/>
<line x1="1.000000" y1="0.367879" x2="1.083333" y2="0.309248" style="stroke:#7f0000;stroke-width:0.025619"/>
<line x1="1.083333" y1="0.309248" x2="1.166667" y2="0.256376" style="stroke:#7f0000;stroke-width:0.025234"/>
<line x1="1.166667" y1="0.256376" x2="1.250000" y2="0.209611" style="stroke:#7f0000;stroke-width:0.024730"/>
<line x1="1.250000" y1="0.209611" x2="1.333333" y2="0.169013" style="stroke:#7f0000;stroke-width:0.024108"/>
<line x1="1.333333" y1="0.169013" x2="1.416667" y2="0.134399" style="stroke:#7f0000;stroke-width:0.023383"/>
<line x1="1.416667" y1="0.134399" x2="1.500000" y2="0.105399" style="stroke:#7f0000;stroke-width:0.022588"/>
<line x1="1.500000" y1="0.105399" x2="1.583333" y2="0.081517" style="stroke:#7f0000;stroke-width:0.021761"/>
<line x1="1.583333" y1="0.081517" x2="1.666667" y2="0.062177" style="stroke:#7f0000;stroke-width:0.020945"/>
<line x1="1.666667" y1="0.062177" x2="1.750000" y2="0.046771" style="stroke:#7f0000;stroke-width:0.020176"/>
<line x1="1.750000" y1="0.046771" x2="1.833333" y2="0.034697" style="stroke:#7f0000;stroke-width:0.019482"/>
<line x1="1.833333" y1="0.034697" x2="1.916667" y2="0.025385" style="stroke:#7f0000;stroke-width:0.018877"/>
<line x1="1.916667" y1="0.025385" x2="2.000000" y2="0.018316" style="stroke:#7f0000;stroke-width:0.018368"/>
<line x1="2.000000" y1="0.018316" x2="2.083333" y2="0.013033" style="stroke:#7f0000;stroke-width:0.017951"/>
<line x1="2.083333" y1="0.013033" x2="2.166667" y2="0.009146" style="stroke:#7f0000;stroke-width:0.017619"/>
<line x1="2.166667" y1="0.009146" x2="2.250000" y2="0.006330" style="stroke:#7f0000;stroke-width:0.017361"/>
<line x1="2.250000" y1="0.006330" x2="2.333333" y2="0.004320" style="stroke:#7f0000;stroke-width:0.017164"/>
<line x1="2.333333" y1="0.004320" x2="2.416667" y2="0.002908" style="stroke:#7f0000;stroke-width:0.017017"/>
<line x1="2.416667" y1="0.002908" x2="2.500000" y2="0.001930" style="stroke:#7f0000;stroke-width:0.016910"/>
<line x1="2.500000" y1="0.001930" x2="2.583333" y2="0.001264" style="stroke:#7f0000;stroke-width:0.016833"/>
</g></g>

</svg>
