<?xml version="1.0" encoding="UTF-8" standalone="no"?>
<!-- Created with Inkscape (http://www.inkscape.org/) -->
<svg xmlns:dc="http://purl.org/dc/elements/1.1/" xmlns:cc="http://web.resource.org/cc/" xmlns:rdf="http://www.w3.org/1999/02/22-rdf-syntax-ns#" xmlns:svg="http://www.w3.org/2000/svg" xmlns="http://www.w3.org/2000/svg" xmlns:sodipodi="http://inkscape.sourceforge.net/DTD/sodipodi-0.dtd" xmlns:inkscape="http://www.inkscape.org/namespaces/inkscape" id="svg2" sodipodi:version="0.32" inkscape:version="0.43" width="558pt" height="500pt" sodipodi:docbase="C:\Documents and Settings\Owner\Desktop\SVG" sodipodi:docname="CashRegister.svg" version="1.0">
  <metadata id="metadata7">
    <rdf:RDF>
      <cc:Work rdf:about="">
        <dc:format>image/svg+xml</dc:format>
        <dc:type rdf:resource="http://purl.org/dc/dcmitype/StillImage"/>
      </cc:Work>
    </rdf:RDF>
  </metadata>
  <defs id="defs5"/>
  <sodipodi:namedview inkscape:window-height="704" inkscape:window-width="1280" inkscape:pageshadow="2" inkscape:pageopacity="0.0" borderopacity="1.0" bordercolor="#666666" pagecolor="#ffffff" id="base" inkscape:zoom="0.74582198" inkscape:cx="235.20882" inkscape:cy="318.45669" inkscape:window-x="-4" inkscape:window-y="-4" inkscape:current-layer="svg2"/>
  <g id="g1384" transform="translate(21.45284,-13.40803)">
    <path sodipodi:nodetypes="ccccc" id="path3446" d="M 443.54493,42.326271 L 456.72521,31.681198 L 644.92598,33.458738 L 644.64579,83.855483 L 633.17032,103.37548" style="fill:none;fill-opacity:1;fill-rule:evenodd;stroke:#888a85;stroke-width:31.25;stroke-linecap:butt;stroke-linejoin:miter;stroke-miterlimit:4;stroke-dasharray:none;stroke-opacity:1"/>
    <path sodipodi:nodetypes="cccccc" id="path3286" d="M 246.30654,151.98152 L 310.83964,129.34187 L 659.01206,155.39103 L 636.57183,322.85199 L 634.50895,471.64358 L 606.98765,521.41902" style="fill:none;fill-opacity:1;fill-rule:evenodd;stroke:#888a85;stroke-width:25;stroke-linecap:butt;stroke-linejoin:miter;stroke-miterlimit:4;stroke-dasharray:none;stroke-opacity:1"/>
    <path sodipodi:nodetypes="ccccccc" id="path3258" d="M -11.915319,450.35118 L -6.669619,581.91171 L 439.47115,630.32499 C 517.95236,638.58268 591.97104,563.5535 627.06691,499.11752 L 626.97493,318.52041 L 141.1252,278.82677 L -11.915319,450.35118 z " style="fill:#729fcf;fill-opacity:1;fill-rule:evenodd;stroke:#204a87;stroke-width:10;stroke-linecap:butt;stroke-linejoin:miter;stroke-miterlimit:4;stroke-dasharray:none;stroke-opacity:1"/>
    <path style="fill:#ffffff;fill-opacity:1;fill-rule:evenodd;stroke:#204a87;stroke-width:8.95721722;stroke-linecap:butt;stroke-linejoin:miter;stroke-miterlimit:4;stroke-dasharray:none;stroke-opacity:1" d="M 9.0066807,463.96373 L 17.209593,563.46316 L 436.48741,610.77186 L 436.33658,515.39452 L 9.0066807,463.96373 z " id="path3278" sodipodi:nodetypes="ccccc"/>
    <path sodipodi:nodetypes="ccccc" id="path3260" d="M 181.18274,273.86925 L -6.5531812,443.82556 L 378.73049,484.67813 C 548.53805,505.34546 551.61225,436.18882 625.05387,323.70849 L 181.18274,273.86925 z " style="fill:#d3d7cf;fill-opacity:1;fill-rule:evenodd;stroke:#204a87;stroke-width:10;stroke-linecap:butt;stroke-linejoin:miter;stroke-miterlimit:4;stroke-dasharray:none;stroke-opacity:1"/>
    <path sodipodi:nodetypes="ccccc" id="path3262" d="M 125.64961,273.79775 L 15.990019,419.24859 L 478.62047,469.4834 L 595.51382,309.73175 L 125.64961,273.79775 z " style="fill:#eeeeec;fill-opacity:1;fill-rule:evenodd;stroke:#204a87;stroke-width:8.95721722;stroke-linecap:butt;stroke-linejoin:miter;stroke-miterlimit:4;stroke-dasharray:none;stroke-opacity:1"/>
    <path sodipodi:nodetypes="ccccccc" id="path2185" d="M 131.59591,271.19717 L 195.3999,233.42903 L 197.17805,176.96952 L 246.8602,130.70524 L 650.4061,158.69726 L 626.21347,323.35471 L 131.59591,271.19717 z " style="fill:#729fcf;fill-opacity:1;fill-rule:evenodd;stroke:#204a87;stroke-width:10;stroke-linecap:butt;stroke-linejoin:miter;stroke-miterlimit:4;stroke-dasharray:none;stroke-opacity:1"/>
    <path transform="matrix(1.33227,0,0,1.099713,-92.80117,-72.85198)" d="M 252.45347 554.54663 A 24.110723 26.947279 0 1 1  204.23202,554.54663 A 24.110723 26.947279 0 1 1  252.45347 554.54663 z" sodipodi:ry="26.947279" sodipodi:rx="24.110723" sodipodi:cy="554.54663" sodipodi:cx="228.34274" id="path1308" style="fill:#3465a4;fill-opacity:1;fill-rule:nonzero;stroke:#204a87;stroke-width:3;stroke-linecap:butt;stroke-linejoin:bevel;stroke-miterlimit:4;stroke-dasharray:none;stroke-dashoffset:0;stroke-opacity:1" sodipodi:type="arc"/>
    <path sodipodi:nodetypes="cccc" id="path1310" d="M 214.68339,520.3834 L 211.42594,544.08249 L 217.84816,535.28195 L 214.17058,556.61233" style="fill:none;fill-opacity:0.75;fill-rule:evenodd;stroke:#2e3436;stroke-width:5;stroke-linecap:butt;stroke-linejoin:miter;stroke-miterlimit:4;stroke-dasharray:none;stroke-opacity:1"/>
    <path sodipodi:nodetypes="ccccc" id="path3066" d="M 112.11068,393.31092 L 125.71707,379.70452 L 157.46535,381.00037 L 145.15479,394.60678 L 112.11068,393.31092 z " style="fill:none;fill-opacity:0.75;fill-rule:evenodd;stroke:#3465a4;stroke-width:3.40470123;stroke-linecap:butt;stroke-linejoin:miter;stroke-miterlimit:4;stroke-dasharray:none;stroke-opacity:1"/>
    <path sodipodi:nodetypes="ccccc" id="path3068" d="M 73.559195,388.45149 L 87.165601,374.8451 L 118.91387,376.14094 L 106.60332,389.74735 L 73.559195,388.45149 z " style="fill:none;fill-opacity:0.75;fill-rule:evenodd;stroke:#3465a4;stroke-width:3.40470123;stroke-linecap:butt;stroke-linejoin:miter;stroke-miterlimit:4;stroke-dasharray:none;stroke-opacity:1"/>
    <path sodipodi:nodetypes="ccccc" id="path3070" d="M 150.66215,398.17037 L 164.26856,384.56396 L 196.01682,385.85981 L 183.70627,399.46622 L 150.66215,398.17037 z " style="fill:none;fill-opacity:0.75;fill-rule:evenodd;stroke:#3465a4;stroke-width:3.40470123;stroke-linecap:butt;stroke-linejoin:miter;stroke-miterlimit:4;stroke-dasharray:none;stroke-opacity:1"/>
    <path sodipodi:nodetypes="ccccc" id="path3072" d="M 188.88967,402.70583 L 202.49608,389.09942 L 234.24435,390.39527 L 221.9338,404.00167 L 188.88967,402.70583 z " style="fill:none;fill-opacity:0.75;fill-rule:evenodd;stroke:#3465a4;stroke-width:3.40470123;stroke-linecap:butt;stroke-linejoin:miter;stroke-miterlimit:4;stroke-dasharray:none;stroke-opacity:1"/>
    <path sodipodi:nodetypes="ccccc" id="path3074" d="M 225.17342,407.88923 L 238.77983,394.28282 L 270.52809,395.57867 L 258.21754,409.18507 L 225.17342,407.88923 z " style="fill:none;fill-opacity:0.75;fill-rule:evenodd;stroke:#3465a4;stroke-width:3.40470123;stroke-linecap:butt;stroke-linejoin:miter;stroke-miterlimit:4;stroke-dasharray:none;stroke-opacity:1"/>
    <path sodipodi:nodetypes="ccccc" id="path3076" d="M 91.053141,370.30962 L 104.65955,356.70323 L 136.40782,357.99907 L 124.09726,371.60548 L 91.053141,370.30962 z " style="fill:none;fill-opacity:0.75;fill-rule:evenodd;stroke:#3465a4;stroke-width:3.40470123;stroke-linecap:butt;stroke-linejoin:miter;stroke-miterlimit:4;stroke-dasharray:none;stroke-opacity:1"/>
    <path sodipodi:nodetypes="ccccc" id="path3086" d="M 130.41452,374.03519 L 144.02093,360.42878 L 175.7692,361.72464 L 163.45864,375.33103 L 130.41452,374.03519 z " style="fill:none;fill-opacity:0.75;fill-rule:evenodd;stroke:#3465a4;stroke-width:3.40470123;stroke-linecap:butt;stroke-linejoin:miter;stroke-miterlimit:4;stroke-dasharray:none;stroke-opacity:1"/>
    <path sodipodi:nodetypes="ccccc" id="path3088" d="M 168.966,378.89464 L 182.57241,365.28823 L 214.32068,366.58408 L 202.01013,380.19048 L 168.966,378.89464 z " style="fill:none;fill-opacity:0.75;fill-rule:evenodd;stroke:#3465a4;stroke-width:3.40470123;stroke-linecap:butt;stroke-linejoin:miter;stroke-miterlimit:4;stroke-dasharray:none;stroke-opacity:1"/>
    <path sodipodi:nodetypes="ccccc" id="path3090" d="M 207.19353,383.43008 L 220.79992,369.82368 L 252.5482,371.11953 L 240.23765,384.72594 L 207.19353,383.43008 z " style="fill:none;fill-opacity:0.75;fill-rule:evenodd;stroke:#3465a4;stroke-width:3.40470123;stroke-linecap:butt;stroke-linejoin:miter;stroke-miterlimit:4;stroke-dasharray:none;stroke-opacity:1"/>
    <path sodipodi:nodetypes="ccccc" id="path3092" d="M 243.47727,388.61348 L 257.08367,375.00708 L 288.83194,376.30293 L 276.52139,389.90934 L 243.47727,388.61348 z " style="fill:none;fill-opacity:0.75;fill-rule:evenodd;stroke:#3465a4;stroke-width:3.40470123;stroke-linecap:butt;stroke-linejoin:miter;stroke-miterlimit:4;stroke-dasharray:none;stroke-opacity:1"/>
    <path sodipodi:nodetypes="ccccc" id="path3094" d="M 108.79007,351.43884 L 122.39646,337.83243 L 154.14474,339.12828 L 141.83418,352.73469 L 108.79007,351.43884 z " style="fill:none;fill-opacity:0.75;fill-rule:evenodd;stroke:#3465a4;stroke-width:3.40470123;stroke-linecap:butt;stroke-linejoin:miter;stroke-miterlimit:4;stroke-dasharray:none;stroke-opacity:1"/>
    <path sodipodi:nodetypes="ccccc" id="path3096" d="M 148.15145,355.1644 L 161.75784,341.558 L 193.50612,342.85384 L 181.19556,356.46025 L 148.15145,355.1644 z " style="fill:none;fill-opacity:0.75;fill-rule:evenodd;stroke:#3465a4;stroke-width:3.40470123;stroke-linecap:butt;stroke-linejoin:miter;stroke-miterlimit:4;stroke-dasharray:none;stroke-opacity:1"/>
    <path sodipodi:nodetypes="ccccc" id="path3098" d="M 186.70292,360.02384 L 200.30933,346.41744 L 232.05759,347.71328 L 219.74704,361.31969 L 186.70292,360.02384 z " style="fill:none;fill-opacity:0.75;fill-rule:evenodd;stroke:#3465a4;stroke-width:3.40470123;stroke-linecap:butt;stroke-linejoin:miter;stroke-miterlimit:4;stroke-dasharray:none;stroke-opacity:1"/>
    <path sodipodi:nodetypes="ccccc" id="path3100" d="M 224.93044,364.5593 L 238.53685,350.95289 L 270.28512,352.24874 L 257.97457,365.85515 L 224.93044,364.5593 z " style="fill:none;fill-opacity:0.75;fill-rule:evenodd;stroke:#3465a4;stroke-width:3.40470123;stroke-linecap:butt;stroke-linejoin:miter;stroke-miterlimit:4;stroke-dasharray:none;stroke-opacity:1"/>
    <path sodipodi:nodetypes="ccccc" id="path3102" d="M 261.21419,369.7427 L 274.8206,356.13629 L 306.56886,357.43214 L 294.25831,371.03855 L 261.21419,369.7427 z " style="fill:none;fill-opacity:0.75;fill-rule:evenodd;stroke:#3465a4;stroke-width:3.40470123;stroke-linecap:butt;stroke-linejoin:miter;stroke-miterlimit:4;stroke-dasharray:none;stroke-opacity:1"/>
    <path sodipodi:nodetypes="ccccc" id="path3114" d="M 125.63608,332.00112 L 139.24249,318.39471 L 170.99076,319.69056 L 158.6802,333.29697 L 125.63608,332.00112 z " style="fill:none;fill-opacity:0.75;fill-rule:evenodd;stroke:#3465a4;stroke-width:3.40470123;stroke-linecap:butt;stroke-linejoin:miter;stroke-miterlimit:4;stroke-dasharray:none;stroke-opacity:1"/>
    <path sodipodi:nodetypes="ccccc" id="path3116" d="M 164.99746,335.72667 L 178.60387,322.12027 L 210.35214,323.41612 L 198.04158,337.02253 L 164.99746,335.72667 z " style="fill:none;fill-opacity:0.75;fill-rule:evenodd;stroke:#3465a4;stroke-width:3.40470123;stroke-linecap:butt;stroke-linejoin:miter;stroke-miterlimit:4;stroke-dasharray:none;stroke-opacity:1"/>
    <path sodipodi:nodetypes="ccccc" id="path3118" d="M 203.54894,340.58612 L 217.15535,326.97971 L 248.90362,328.27556 L 236.59307,341.88197 L 203.54894,340.58612 z " style="fill:none;fill-opacity:0.75;fill-rule:evenodd;stroke:#3465a4;stroke-width:3.40470123;stroke-linecap:butt;stroke-linejoin:miter;stroke-miterlimit:4;stroke-dasharray:none;stroke-opacity:1"/>
    <path sodipodi:nodetypes="ccccc" id="path3120" d="M 241.77647,345.12158 L 255.38286,331.51517 L 287.13114,332.81102 L 274.82059,346.41742 L 241.77647,345.12158 z " style="fill:none;fill-opacity:0.75;fill-rule:evenodd;stroke:#3465a4;stroke-width:3.40470123;stroke-linecap:butt;stroke-linejoin:miter;stroke-miterlimit:4;stroke-dasharray:none;stroke-opacity:1"/>
    <path sodipodi:nodetypes="ccccc" id="path3122" d="M 278.06021,350.30498 L 291.66661,336.69857 L 323.41489,337.99442 L 311.10432,351.60082 L 278.06021,350.30498 z " style="fill:none;fill-opacity:0.75;fill-rule:evenodd;stroke:#3465a4;stroke-width:3.40470123;stroke-linecap:butt;stroke-linejoin:miter;stroke-miterlimit:4;stroke-dasharray:none;stroke-opacity:1"/>
    <rect y="107.1757" x="526.08344" height="42.025616" width="26.912874" id="rect3124" style="fill:#4e9ac8;fill-opacity:1;fill-rule:nonzero;stroke:#204a87;stroke-width:5.47993422;stroke-linecap:butt;stroke-linejoin:bevel;stroke-miterlimit:4;stroke-dasharray:none;stroke-dashoffset:0;stroke-opacity:1"/>
    <rect transform="matrix(0.999999,-1.501204e-3,1.501204e-3,0.999999,0,0)" rx="0" ry="0" y="28.264139" x="436.48267" height="92.956764" width="205.73929" id="rect3444" style="fill:#4e9ac8;fill-opacity:1;fill-rule:nonzero;stroke:#204a87;stroke-width:5.00000429;stroke-linecap:butt;stroke-linejoin:bevel;stroke-miterlimit:4;stroke-dasharray:none;stroke-dashoffset:0;stroke-opacity:1"/>
    <rect rx="41.714954" ry="41.714954" y="31.316692" x="439.90952" height="83.429909" width="198.77155" id="rect3126" style="fill:#4e9a06;fill-opacity:1;fill-rule:nonzero;stroke:#73d216;stroke-width:5.24964142;stroke-linecap:butt;stroke-linejoin:bevel;stroke-miterlimit:4;stroke-dasharray:none;stroke-dashoffset:0;stroke-opacity:1"/>
    <rect transform="matrix(0.997273,7.380379e-2,-7.380379e-2,0.997273,0,0)" rx="0" ry="0" y="138.35999" x="417.021" height="83.429924" width="180.31631" id="rect3128" style="fill:#3465a4;fill-opacity:1;fill-rule:nonzero;stroke:#204a87;stroke-width:5.00000095;stroke-linecap:butt;stroke-linejoin:bevel;stroke-miterlimit:4;stroke-dasharray:none;stroke-dashoffset:0;stroke-opacity:1"/>
    <path sodipodi:nodetypes="ccccc" id="path3154" d="M 267.89592,410.65168 L 281.50232,397.04527 L 313.2506,398.34112 L 300.94005,411.94752 L 267.89592,410.65168 z " style="fill:none;fill-opacity:0.75;fill-rule:evenodd;stroke:#3465a4;stroke-width:3.40470123;stroke-linecap:butt;stroke-linejoin:miter;stroke-miterlimit:4;stroke-dasharray:none;stroke-opacity:1"/>
    <path sodipodi:nodetypes="ccccc" id="path3156" d="M 285.63284,391.78088 L 299.23925,378.17449 L 330.98752,379.47033 L 318.67697,393.07673 L 285.63284,391.78088 z " style="fill:none;fill-opacity:0.75;fill-rule:evenodd;stroke:#3465a4;stroke-width:3.40470123;stroke-linecap:butt;stroke-linejoin:miter;stroke-miterlimit:4;stroke-dasharray:none;stroke-opacity:1"/>
    <path sodipodi:nodetypes="ccccc" id="path3158" d="M 302.47885,372.34316 L 316.08526,358.73675 L 347.83354,360.0326 L 335.52298,373.63901 L 302.47885,372.34316 z " style="fill:none;fill-opacity:0.75;fill-rule:evenodd;stroke:#3465a4;stroke-width:3.40470123;stroke-linecap:butt;stroke-linejoin:miter;stroke-miterlimit:4;stroke-dasharray:none;stroke-opacity:1"/>
    <path sodipodi:nodetypes="ccccc" id="path3160" d="M 320.39713,353.02751 L 334.00354,339.4211 L 365.75182,340.71696 L 353.44126,354.32335 L 320.39713,353.02751 z " style="fill:none;fill-opacity:0.75;fill-rule:evenodd;stroke:#3465a4;stroke-width:3.40470123;stroke-linecap:butt;stroke-linejoin:miter;stroke-miterlimit:4;stroke-dasharray:none;stroke-opacity:1"/>
    <path sodipodi:nodetypes="ccccc" id="path3162" d="M 306.53515,415.09324 L 320.14155,401.48684 L 351.88982,402.78269 L 339.57927,416.3891 L 306.53515,415.09324 z " style="fill:none;fill-opacity:0.75;fill-rule:evenodd;stroke:#3465a4;stroke-width:3.40470123;stroke-linecap:butt;stroke-linejoin:miter;stroke-miterlimit:4;stroke-dasharray:none;stroke-opacity:1"/>
    <path sodipodi:nodetypes="ccccc" id="path3164" d="M 324.27207,396.22246 L 337.87847,382.61605 L 369.62674,383.9119 L 357.31619,397.5183 L 324.27207,396.22246 z " style="fill:none;fill-opacity:0.75;fill-rule:evenodd;stroke:#3465a4;stroke-width:3.40470123;stroke-linecap:butt;stroke-linejoin:miter;stroke-miterlimit:4;stroke-dasharray:none;stroke-opacity:1"/>
    <path sodipodi:nodetypes="ccccc" id="path3166" d="M 341.11809,376.78472 L 354.72449,363.17833 L 386.47276,364.47417 L 374.1622,378.08058 L 341.11809,376.78472 z " style="fill:none;fill-opacity:0.75;fill-rule:evenodd;stroke:#3465a4;stroke-width:3.40470123;stroke-linecap:butt;stroke-linejoin:miter;stroke-miterlimit:4;stroke-dasharray:none;stroke-opacity:1"/>
    <path sodipodi:nodetypes="ccccc" id="path3168" d="M 359.03637,357.46908 L 372.64276,343.86267 L 404.39104,345.15852 L 392.08048,358.76493 L 359.03637,357.46908 z " style="fill:none;fill-opacity:0.75;fill-rule:evenodd;stroke:#3465a4;stroke-width:3.40470123;stroke-linecap:butt;stroke-linejoin:miter;stroke-miterlimit:4;stroke-dasharray:none;stroke-opacity:1"/>
    <path sodipodi:nodetypes="ccccc" id="path3170" d="M 93.768213,412.3297 L 107.3746,398.7233 L 139.12288,400.01915 L 126.81232,413.62556 L 93.768213,412.3297 z " style="fill:none;fill-opacity:0.75;fill-rule:evenodd;stroke:#3465a4;stroke-width:3.40470123;stroke-linecap:butt;stroke-linejoin:miter;stroke-miterlimit:4;stroke-dasharray:none;stroke-opacity:1"/>
    <path sodipodi:nodetypes="ccccc" id="path3172" d="M 55.216728,407.47027 L 68.823134,393.86388 L 100.5714,395.15972 L 88.260853,408.76613 L 55.216728,407.47027 z " style="fill:none;fill-opacity:0.75;fill-rule:evenodd;stroke:#3465a4;stroke-width:3.40470123;stroke-linecap:butt;stroke-linejoin:miter;stroke-miterlimit:4;stroke-dasharray:none;stroke-opacity:1"/>
    <path sodipodi:nodetypes="ccccc" id="path3174" d="M 132.31968,417.18915 L 145.92609,403.58274 L 177.67435,404.87859 L 165.3638,418.485 L 132.31968,417.18915 z " style="fill:none;fill-opacity:0.75;fill-rule:evenodd;stroke:#3465a4;stroke-width:3.40470123;stroke-linecap:butt;stroke-linejoin:miter;stroke-miterlimit:4;stroke-dasharray:none;stroke-opacity:1"/>
    <path sodipodi:nodetypes="ccccc" id="path3176" d="M 170.5472,421.72461 L 184.15361,408.1182 L 215.90188,409.41405 L 203.59133,423.02045 L 170.5472,421.72461 z " style="fill:none;fill-opacity:0.75;fill-rule:evenodd;stroke:#3465a4;stroke-width:3.40470123;stroke-linecap:butt;stroke-linejoin:miter;stroke-miterlimit:4;stroke-dasharray:none;stroke-opacity:1"/>
    <path sodipodi:nodetypes="ccccc" id="path3178" d="M 206.83095,426.90801 L 220.43736,413.3016 L 252.18562,414.59745 L 239.87507,428.20385 L 206.83095,426.90801 z " style="fill:none;fill-opacity:0.75;fill-rule:evenodd;stroke:#3465a4;stroke-width:3.40470123;stroke-linecap:butt;stroke-linejoin:miter;stroke-miterlimit:4;stroke-dasharray:none;stroke-opacity:1"/>
    <path sodipodi:nodetypes="ccccc" id="path3180" d="M 249.55345,429.67046 L 263.15985,416.06405 L 294.90813,417.3599 L 282.59758,430.9663 L 249.55345,429.67046 z " style="fill:none;fill-opacity:0.75;fill-rule:evenodd;stroke:#3465a4;stroke-width:3.40470123;stroke-linecap:butt;stroke-linejoin:miter;stroke-miterlimit:4;stroke-dasharray:none;stroke-opacity:1"/>
    <path sodipodi:nodetypes="ccccc" id="path3182" d="M 288.19268,434.11202 L 301.79908,420.50562 L 333.54735,421.80147 L 321.2368,435.40788 L 288.19268,434.11202 z " style="fill:none;fill-opacity:0.75;fill-rule:evenodd;stroke:#3465a4;stroke-width:3.40470123;stroke-linecap:butt;stroke-linejoin:miter;stroke-miterlimit:4;stroke-dasharray:none;stroke-opacity:1"/>
    <path sodipodi:nodetypes="ccccc" id="path3184" d="M 181.86253,315.61746 L 195.46892,302.01106 L 227.2172,303.30691 L 214.90664,316.91332 L 181.86253,315.61746 z " style="fill:none;fill-opacity:0.75;fill-rule:evenodd;stroke:#3465a4;stroke-width:3.40470123;stroke-linecap:butt;stroke-linejoin:miter;stroke-miterlimit:4;stroke-dasharray:none;stroke-opacity:1"/>
    <path sodipodi:nodetypes="ccccc" id="path3186" d="M 143.31105,310.75803 L 156.91745,297.15164 L 188.66572,298.44748 L 176.35517,312.05389 L 143.31105,310.75803 z " style="fill:none;fill-opacity:0.75;fill-rule:evenodd;stroke:#3465a4;stroke-width:3.40470123;stroke-linecap:butt;stroke-linejoin:miter;stroke-miterlimit:4;stroke-dasharray:none;stroke-opacity:1"/>
    <path sodipodi:nodetypes="ccccc" id="path3188" d="M 220.414,320.47691 L 234.02041,306.8705 L 265.76867,308.16635 L 253.45812,321.77276 L 220.414,320.47691 z " style="fill:none;fill-opacity:0.75;fill-rule:evenodd;stroke:#3465a4;stroke-width:3.40470123;stroke-linecap:butt;stroke-linejoin:miter;stroke-miterlimit:4;stroke-dasharray:none;stroke-opacity:1"/>
    <path sodipodi:nodetypes="ccccc" id="path3190" d="M 258.64152,325.01237 L 272.24793,311.40596 L 303.9962,312.70181 L 291.68565,326.30821 L 258.64152,325.01237 z " style="fill:none;fill-opacity:0.75;fill-rule:evenodd;stroke:#3465a4;stroke-width:3.40470123;stroke-linecap:butt;stroke-linejoin:miter;stroke-miterlimit:4;stroke-dasharray:none;stroke-opacity:1"/>
    <path sodipodi:nodetypes="ccccc" id="path3192" d="M 294.92527,330.19577 L 308.53168,316.58936 L 340.27994,317.88521 L 327.96939,331.49161 L 294.92527,330.19577 z " style="fill:none;fill-opacity:0.75;fill-rule:evenodd;stroke:#3465a4;stroke-width:3.40470123;stroke-linecap:butt;stroke-linejoin:miter;stroke-miterlimit:4;stroke-dasharray:none;stroke-opacity:1"/>
    <path sodipodi:nodetypes="ccccc" id="path3194" d="M 337.64777,332.95822 L 351.25417,319.35181 L 383.00245,320.64766 L 370.6919,334.25406 L 337.64777,332.95822 z " style="fill:none;fill-opacity:0.75;fill-rule:evenodd;stroke:#3465a4;stroke-width:3.40470123;stroke-linecap:butt;stroke-linejoin:miter;stroke-miterlimit:4;stroke-dasharray:none;stroke-opacity:1"/>
    <path sodipodi:nodetypes="ccccc" id="path3196" d="M 376.287,337.39978 L 389.8934,323.79338 L 421.64167,325.08923 L 409.33112,338.69564 L 376.287,337.39978 z " style="fill:none;fill-opacity:0.75;fill-rule:evenodd;stroke:#3465a4;stroke-width:3.40470123;stroke-linecap:butt;stroke-linejoin:miter;stroke-miterlimit:4;stroke-dasharray:none;stroke-opacity:1"/>
    <path sodipodi:nodetypes="ccccc" id="path3214" d="M 376.60544,405.25428 L 386.27929,395.58043 L 408.85157,396.50175 L 400.09905,406.17559 L 376.60544,405.25428 z " style="fill:none;fill-opacity:0.75;fill-rule:evenodd;stroke:#3465a4;stroke-width:2.42066479;stroke-linecap:butt;stroke-linejoin:miter;stroke-miterlimit:4;stroke-dasharray:none;stroke-opacity:1"/>
    <path sodipodi:nodetypes="ccccc" id="path3216" d="M 389.61906,391.54966 L 399.2929,381.87582 L 421.86519,382.79714 L 413.11267,392.47099 L 389.61906,391.54966 z " style="fill:none;fill-opacity:0.75;fill-rule:evenodd;stroke:#3465a4;stroke-width:2.42066479;stroke-linecap:butt;stroke-linejoin:miter;stroke-miterlimit:4;stroke-dasharray:none;stroke-opacity:1"/>
    <path sodipodi:nodetypes="ccccc" id="path3218" d="M 402.2296,378.13297 L 411.90345,368.45912 L 434.47574,369.38044 L 425.72322,379.05429 L 402.2296,378.13297 z " style="fill:none;fill-opacity:0.75;fill-rule:evenodd;stroke:#3465a4;stroke-width:2.42066479;stroke-linecap:butt;stroke-linejoin:miter;stroke-miterlimit:4;stroke-dasharray:none;stroke-opacity:1"/>
    <path sodipodi:nodetypes="ccccc" id="path3220" d="M 406.98016,407.21832 L 416.654,397.54447 L 439.2263,398.46579 L 430.47378,408.13963 L 406.98016,407.21832 z " style="fill:none;fill-opacity:0.75;fill-rule:evenodd;stroke:#3465a4;stroke-width:2.42066479;stroke-linecap:butt;stroke-linejoin:miter;stroke-miterlimit:4;stroke-dasharray:none;stroke-opacity:1"/>
    <path sodipodi:nodetypes="ccccc" id="path3222" d="M 419.5907,393.80161 L 429.26455,384.12778 L 451.83685,385.04909 L 443.08433,394.72293 L 419.5907,393.80161 z " style="fill:none;fill-opacity:0.75;fill-rule:evenodd;stroke:#3465a4;stroke-width:2.42066479;stroke-linecap:butt;stroke-linejoin:miter;stroke-miterlimit:4;stroke-dasharray:none;stroke-opacity:1"/>
    <path sodipodi:nodetypes="ccccc" id="path3224" d="M 431.56783,379.98183 L 441.24168,370.30799 L 463.81398,371.22931 L 455.06145,380.90315 L 431.56783,379.98183 z " style="fill:none;fill-opacity:0.75;fill-rule:evenodd;stroke:#3465a4;stroke-width:2.42066479;stroke-linecap:butt;stroke-linejoin:miter;stroke-miterlimit:4;stroke-dasharray:none;stroke-opacity:1"/>
    <path sodipodi:nodetypes="ccccccccc" id="path3226" d="M 418.17997,362.41866 L 427.58023,352.19764 L 443.48783,352.46089 L 448.0852,354.80201 L 477.51102,355.03407 L 467.39057,365.52865 L 443.50637,364.8976 L 438.59133,363.3517 L 418.17997,362.41866 z " style="fill:none;fill-opacity:0.75;fill-rule:evenodd;stroke:#3465a4;stroke-width:2.42066479;stroke-linecap:butt;stroke-linejoin:miter;stroke-miterlimit:4;stroke-dasharray:none;stroke-opacity:1"/>
    <path sodipodi:nodetypes="ccccc" id="path3228" d="M 434.45177,410.37616 L 444.12561,400.70232 L 466.6979,401.62364 L 457.94538,411.29749 L 434.45177,410.37616 z " style="fill:none;fill-opacity:0.75;fill-rule:evenodd;stroke:#3465a4;stroke-width:2.42066479;stroke-linecap:butt;stroke-linejoin:miter;stroke-miterlimit:4;stroke-dasharray:none;stroke-opacity:1"/>
    <path sodipodi:nodetypes="ccccc" id="path3230" d="M 447.06231,396.95947 L 456.73615,387.28562 L 479.30845,388.20694 L 470.55593,397.88078 L 447.06231,396.95947 z " style="fill:none;fill-opacity:0.75;fill-rule:evenodd;stroke:#3465a4;stroke-width:2.42066479;stroke-linecap:butt;stroke-linejoin:miter;stroke-miterlimit:4;stroke-dasharray:none;stroke-opacity:1"/>
    <path sodipodi:nodetypes="ccccc" id="path3232" d="M 459.03945,383.13968 L 468.71329,373.46585 L 491.28558,374.38716 L 482.53306,384.06101 L 459.03945,383.13968 z " style="fill:none;fill-opacity:0.75;fill-rule:evenodd;stroke:#3465a4;stroke-width:2.42066479;stroke-linecap:butt;stroke-linejoin:miter;stroke-miterlimit:4;stroke-dasharray:none;stroke-opacity:1"/>
    <path sodipodi:nodetypes="ccccc" id="path3234" d="M 473.29327,366.83785 L 482.96712,357.164 L 505.53941,358.08532 L 496.78689,367.75916 L 473.29327,366.83785 z " style="fill:none;fill-opacity:0.75;fill-rule:evenodd;stroke:#3465a4;stroke-width:2.42066479;stroke-linecap:butt;stroke-linejoin:miter;stroke-miterlimit:4;stroke-dasharray:none;stroke-opacity:1"/>
    <path sodipodi:nodetypes="ccccc" id="path3238" d="M 447.54196,338.88683 L 454.15379,332.275 L 469.58141,332.9047 L 463.59928,339.51654 L 447.54196,338.88683 z " style="fill:none;fill-opacity:0.75;fill-rule:evenodd;stroke:#3465a4;stroke-width:1.6544652;stroke-linecap:butt;stroke-linejoin:miter;stroke-miterlimit:4;stroke-dasharray:none;stroke-opacity:1"/>
    <path sodipodi:nodetypes="ccccc" id="path3240" d="M 484.24187,388.86211 L 507.44895,389.75764 L 476.16929,429.52081 L 449.30458,428.4493 L 484.24187,388.86211 z " style="fill:none;fill-opacity:0.75;fill-rule:evenodd;stroke:#3465a4;stroke-width:2.42066479;stroke-linecap:butt;stroke-linejoin:miter;stroke-miterlimit:4;stroke-dasharray:none;stroke-opacity:1"/>
    <path sodipodi:nodetypes="ccccc" id="path3244" d="M 488.62993,384.46596 L 511.47124,356.50398 L 534.04353,357.42529 L 512.12354,385.38729 L 488.62993,384.46596 z " style="fill:none;fill-opacity:0.75;fill-rule:evenodd;stroke:#3465a4;stroke-width:2.42066479;stroke-linecap:butt;stroke-linejoin:miter;stroke-miterlimit:4;stroke-dasharray:none;stroke-opacity:1"/>
    <path sodipodi:nodetypes="ccccc" id="path3246" d="M 467.02962,340.89478 L 473.64145,334.28295 L 489.06907,334.91265 L 483.08694,341.52449 L 467.02962,340.89478 z " style="fill:none;fill-opacity:0.75;fill-rule:evenodd;stroke:#3465a4;stroke-width:1.6544652;stroke-linecap:butt;stroke-linejoin:miter;stroke-miterlimit:4;stroke-dasharray:none;stroke-opacity:1"/>
    <path sodipodi:nodetypes="ccccc" id="path3248" d="M 486.9642,342.90599 L 493.57603,336.29416 L 509.00365,336.92386 L 503.02152,343.5357 L 486.9642,342.90599 z " style="fill:none;fill-opacity:0.75;fill-rule:evenodd;stroke:#3465a4;stroke-width:1.6544652;stroke-linecap:butt;stroke-linejoin:miter;stroke-miterlimit:4;stroke-dasharray:none;stroke-opacity:1"/>
    <path sodipodi:nodetypes="ccccc" id="path3250" d="M 508.9711,343.63753 L 515.58293,337.0257 L 531.01055,337.6554 L 525.02842,344.26724 L 508.9711,343.63753 z " style="fill:none;fill-opacity:0.75;fill-rule:evenodd;stroke:#3465a4;stroke-width:1.6544652;stroke-linecap:butt;stroke-linejoin:miter;stroke-miterlimit:4;stroke-dasharray:none;stroke-opacity:1"/>
    <path sodipodi:nodetypes="ccccccccc" id="path3252" d="M 393.88808,423.14764 L 403.28834,412.92662 L 419.19594,413.18987 L 423.79331,415.53099 L 453.21913,415.76305 L 443.09868,426.25763 L 419.21448,425.62658 L 414.29944,424.08068 L 393.88808,423.14764 z " style="fill:none;fill-opacity:0.75;fill-rule:evenodd;stroke:#3465a4;stroke-width:2.42066479;stroke-linecap:butt;stroke-linejoin:miter;stroke-miterlimit:4;stroke-dasharray:none;stroke-opacity:1"/>
    <path sodipodi:nodetypes="ccccc" id="path3256" d="M 192.39133,250.91266 L 200.14552,228.52795 L 356.25323,241.52821 L 339.55352,265.37599 L 192.39133,250.91266 z " style="fill:#2e3436;fill-opacity:1;fill-rule:evenodd;stroke:#204a87;stroke-width:3.40470123;stroke-linecap:butt;stroke-linejoin:miter;stroke-miterlimit:4;stroke-dasharray:none;stroke-opacity:1"/>
    <path sodipodi:nodetypes="ccccc" id="path3254" d="M 322.51005,250.57117 L 224.93964,243.80203 C 128.94872,145.38191 227.64292,132.26487 264.63095,96.770246 L 379.30089,104.72464 C 330.1499,141.75615 244.8892,178.69393 322.51005,250.57117 z " style="fill:#ffffff;fill-opacity:1;fill-rule:evenodd;stroke:#729fcf;stroke-width:2;stroke-linecap:butt;stroke-linejoin:miter;stroke-miterlimit:4;stroke-dasharray:none;stroke-opacity:1"/>
    <path sodipodi:nodetypes="ccccc" id="path4349" d="M 456.21539,329.30711 L 462.82722,322.69528 L 478.25484,323.32498 L 472.27271,329.93682 L 456.21539,329.30711 z " style="fill:none;fill-opacity:0.75;fill-rule:evenodd;stroke:#3465a4;stroke-width:1.6544652;stroke-linecap:butt;stroke-linejoin:miter;stroke-miterlimit:4;stroke-dasharray:none;stroke-opacity:1"/>
    <path sodipodi:nodetypes="ccccc" id="path4351" d="M 475.70305,331.31506 L 482.31488,324.70323 L 497.7425,325.33293 L 491.76037,331.94477 L 475.70305,331.31506 z " style="fill:none;fill-opacity:0.75;fill-rule:evenodd;stroke:#3465a4;stroke-width:1.6544652;stroke-linecap:butt;stroke-linejoin:miter;stroke-miterlimit:4;stroke-dasharray:none;stroke-opacity:1"/>
    <path sodipodi:nodetypes="ccccc" id="path4353" d="M 495.63763,333.32627 L 502.24946,326.71444 L 517.67708,327.34414 L 511.69495,333.95598 L 495.63763,333.32627 z " style="fill:none;fill-opacity:0.75;fill-rule:evenodd;stroke:#3465a4;stroke-width:1.6544652;stroke-linecap:butt;stroke-linejoin:miter;stroke-miterlimit:4;stroke-dasharray:none;stroke-opacity:1"/>
    <path sodipodi:nodetypes="ccccc" id="path4355" d="M 517.64453,334.05781 L 524.25636,327.44598 L 539.68398,328.07568 L 533.70185,334.68752 L 517.64453,334.05781 z " style="fill:none;fill-opacity:0.75;fill-rule:evenodd;stroke:#3465a4;stroke-width:1.6544652;stroke-linecap:butt;stroke-linejoin:miter;stroke-miterlimit:4;stroke-dasharray:none;stroke-opacity:1"/>
    <path sodipodi:nodetypes="ccccc" id="path4361" d="M 260.19392,272.1297 L 276.79023,264.7769 L 315.66568,268.15257 L 302.7247,275.57401 L 260.19392,272.1297 z " style="fill:#ffffff;fill-opacity:1;fill-rule:evenodd;stroke:#204a87;stroke-width:3.41400003;stroke-linecap:butt;stroke-linejoin:miter;stroke-miterlimit:4;stroke-dasharray:none;stroke-opacity:1"/>
    <path sodipodi:nodetypes="ccccc" id="path4365" d="M 180.08851,265.25415 L 196.68482,257.90135 L 235.56027,261.27702 L 222.61929,268.69846 L 180.08851,265.25415 z " style="fill:#ffffff;fill-opacity:1;fill-rule:evenodd;stroke:#204a87;stroke-width:3.41400003;stroke-linecap:butt;stroke-linejoin:miter;stroke-miterlimit:4;stroke-dasharray:none;stroke-opacity:1"/>
  </g>
</svg>