<?xml version="1.0" encoding="UTF-8" standalone="no"?>
<!-- Created with Inkscape (http://www.inkscape.org/) -->

<!-- 
Artwork by John Samuel. 
This work is licensed under a Creative Commons Attribution-ShareAlike 4.0 International License. 
-->

<svg
   xmlns:dc="http://purl.org/dc/elements/1.1/"
   xmlns:cc="http://creativecommons.org/ns#"
   xmlns:rdf="http://www.w3.org/1999/02/22-rdf-syntax-ns#"
   xmlns:svg="http://www.w3.org/2000/svg"
   xmlns="http://www.w3.org/2000/svg"
   xmlns:sodipodi="http://sodipodi.sourceforge.net/DTD/sodipodi-0.dtd"
   xmlns:inkscape="http://www.inkscape.org/namespaces/inkscape"
   sodipodi:docname="book.svg"
   inkscape:version="0.91 r13725"
   version="1.1"
   id="svg2"
   viewBox="0 0 1052.3622 744.09448"
   height="210mm"
   width="297mm">
  <sodipodi:namedview
     inkscape:snap-object-midpoints="true"
     inkscape:window-maximized="1"
     inkscape:window-y="0"
     inkscape:window-x="16"
     inkscape:window-height="849"
     inkscape:window-width="1584"
     showgrid="false"
     inkscape:current-layer="layer1"
     inkscape:document-units="px"
     inkscape:cy="415.43468"
     inkscape:cx="526.1811"
     inkscape:zoom="0.92192593"
     inkscape:pageshadow="2"
     inkscape:pageopacity="0.0"
     borderopacity="1.0"
     bordercolor="#666666"
     pagecolor="#ffffff"
     id="base" />
  <defs
     id="defs4">
    <inkscape:path-effect
       effect="spiro"
       id="path-effect5292"
       is_visible="true" />
  </defs>
  <metadata
     id="metadata7">
    <rdf:RDF>
      <cc:Work
         rdf:about="">
        <dc:format>image/svg+xml</dc:format>
        <dc:type
           rdf:resource="http://purl.org/dc/dcmitype/StillImage" />
        <dc:title />
      </cc:Work>
    </rdf:RDF>
  </metadata>
  <g
     inkscape:label="Layer 1"
     inkscape:groupmode="layer"
     id="layer1"
     transform="translate(0,-308.26772)">
    <path
       style="fill:#ffffff;fill-opacity:1;stroke:#000000;stroke-width:1.5;stroke-linecap:round;stroke-miterlimit:4;stroke-dasharray:none;stroke-opacity:1"
       d="m 329.07058,355.6207 431.81904,0.002 109.02542,568.78314 -671.51769,0.002 z"
       id="rect4136"
       inkscape:connector-curvature="0"
       sodipodi:nodetypes="ccccc" />
    <path
       sodipodi:nodetypes="ccccc"
       inkscape:connector-curvature="0"
       id="path5276"
       d="m 394.65404,409.51794 303.13596,6.7e-4 19.63049,127.23329 -348.09023,6.7e-4 z"
       style="fill:#ffffff;fill-opacity:1;stroke:#000000;stroke-width:1;stroke-linecap:round;stroke-miterlimit:4;stroke-dasharray:none;stroke-opacity:1" />
    <rect
       style="fill:none;fill-opacity:1;stroke:#000000;stroke-width:1.50315523;stroke-linecap:round;stroke-miterlimit:4;stroke-dasharray:none;stroke-opacity:1"
       id="rect5297"
       width="670.98041"
       height="46.641491"
       x="198.93524"
       y="924.36926" />
    <path
       style="fill:none;fill-rule:evenodd;stroke:#000000;stroke-width:1px;stroke-linecap:butt;stroke-linejoin:miter;stroke-opacity:1"
       d="M423.303265926 452.26794908C423.303265926 452.26794908 411.589241986 451.721609514 417.95401138 451.721609514C420.760890697 451.721609514 434.048835826 450.446793592 437.860263714 450.446793592C440.896963831 450.446793592 434.685000077 451.057909717 438.277944216 451.057909717C441.40961276 451.057909717 459.118541808 452.30256596 462.62145358 452.30256596C465.805002399 452.30256596 456.50093831 450.781036624 459.953424399 450.781036624C463.17015094 450.781036624 465.580002918 451.991559512 469.000092225 451.991559512C472.240608874 451.991559512 475.991608189 452.051989187 479.389311424 452.051989187C482.647488322 452.051989187 492.608668991 452.437496756 495.989143593 452.437496756C499.261081524 452.437496756 493.914860466 451.402823026 497.281294537 451.402823026C500.564966752 451.402823026 520.164692182 450.668459054 523.519714421 450.668459054C526.813393034 450.668459054 518.566253998 452.295148819 521.911196817 452.295148819C525.213932883 452.295148819 532.091090214 450.461361495 535.427007338 450.461361495C538.738777492 450.461361495 536.505927705 452.130896319 539.834009643 452.130896319C543.153697238 452.130896319 562.124980738 451.995163919 565.444669591 451.995163919C568.772376805 451.995163919 557.45856609 450.667928397 560.769968655 450.667928397C564.106000495 450.667928397 580.780506158 450.739259661 584.083358956 450.739259661C587.428620529 450.739259661 577.229044444 450.68217771 580.523035537 450.68217771C583.878311231 450.68217771 594.634267963 452.44143177 597.918185027 452.44143177C601.284853373 452.44143177 612.574516879 451.893161217 615.846676755 451.893161217C619.227135217 451.893161217 623.151011478 451.744491353 626.40917325 451.744491353C629.806629178 451.744491353 624.939678344 452.437055953 628.179971381 452.437055953C631.600280033 452.437055953 639.588117769 452.245132677 642.805040131 452.245132677C646.257522058 452.245132677 646.694730468 450.496335164 649.878276247 450.496335164C653.381294355 450.496335164 643.595030152 451.402710595 646.726782615 451.402710595C650.319923806 451.402710595 660.383957153 452.391636084 663.420786582 452.391636084C667.231979871 452.391636084 673.247191345 450.447985944 676.053923791 450.447985944C682.418612247 450.447985944 678.17389371 451.983811369 678.17389371 451.983811369"
       id="path5299"
       inkscape:connector-curvature="0" />
    <path
       style="fill:none;fill-rule:evenodd;stroke:#000000;stroke-width:1px;stroke-linecap:butt;stroke-linejoin:miter;stroke-opacity:1"
       d="m 394.26873,494.07914 c 0,0 18.72851,1.27165 25.11953,1.27165 2.80758,0 7.43218,-0.71222 11.25489,-0.71222 3.03798,0 5.52175,-0.2522 9.12535,-0.2522 3.13237,0 -2.82407,-0.55557 0.68844,-0.55557 3.18456,0 -3.11146,0.90665 0.35117,0.90665 3.21754,0 26.05712,0.3887 29.48748,0.3887 3.24078,0 5.15919,0.28487 8.56714,0.28487 3.25858,0 5.37786,0.14017 8.76948,0.14017 3.2721,0 5.91062,-1.50243 9.28884,-1.50243 3.28319,0 -9.45482,0.96611 -6.08759,0.96611 3.29236,0 14.82656,-1.17136 18.1842,-1.17136 3.30107,0 18.25162,1.00164 21.60149,1.00164 3.30821,0 6.63767,-0.009 9.97974,-0.009 3.31554,0 -6.93094,-0.94025 -3.59546,-0.94025 3.32193,0 14.74269,1.82608 18.0712,1.82608 3.3284,0 9.00801,-0.16533 12.32982,-0.16533 3.33528,0 7.78291,-1.32859 11.09825,-1.32859 3.34203,0 -11.28634,0.67916 -7.97816,0.67916 3.3496,0 25.53998,-0.53501 28.84079,-0.53501 3.35777,0 4.32164,-0.30006 7.61415,-0.30006 3.36723,0 9.61635,0.42959 12.89954,0.42959 3.37796,0 0.23125,-0.6268 3.50311,-0.6268 3.39098,0 4.47682,1.95221 7.73482,1.95221 3.40778,0 15.88783,-1.15345 19.12847,-1.15345 3.43081,0 6.87893,0.189 10.09686,0.189 3.46289,0 0.16003,-0.97477 3.34483,-0.97477 3.51287,0 3.99698,-0.0568 7.12964,-0.0568 3.6032,0 8.34814,0.0173 11.38584,0.0173 3.8231,0 -4.18359,1.31207 -1.37578,1.31207 6.39098,0 24.64672,-1.18298 24.64672,-1.18298 0,0 -3.53293,-0.13315 -3.53293,-0.13315"
       id="path5301"
       inkscape:connector-curvature="0" />
  </g>
</svg>
