<?xml version="1.0" encoding="UTF-8" standalone="no"?>
<!-- Created with Inkscape (http://www.inkscape.org/) -->

<!-- 
Artwork by John Samuel. 
This work is licensed under a Creative Commons Attribution-ShareAlike 4.0 International License. 
-->

<svg
   xmlns:dc="http://purl.org/dc/elements/1.1/"
   xmlns:cc="http://creativecommons.org/ns#"
   xmlns:rdf="http://www.w3.org/1999/02/22-rdf-syntax-ns#"
   xmlns:svg="http://www.w3.org/2000/svg"
   xmlns="http://www.w3.org/2000/svg"
   xmlns:sodipodi="http://sodipodi.sourceforge.net/DTD/sodipodi-0.dtd"
   xmlns:inkscape="http://www.inkscape.org/namespaces/inkscape"
   sodipodi:docname="fractal-simple.svg"
   inkscape:version="0.91 r13725"
   version="1.1"
   id="svg2"
   viewBox="0 0 1052.3622 744.09448"
   height="210mm"
   width="297mm">
  <sodipodi:namedview
     inkscape:snap-object-midpoints="true"
     inkscape:window-maximized="1"
     inkscape:window-y="0"
     inkscape:window-x="0"
     inkscape:window-height="847"
     inkscape:window-width="1600"
     showgrid="false"
     inkscape:current-layer="layer1"
     inkscape:document-units="px"
     inkscape:cy="282.864"
     inkscape:cx="526.1811"
     inkscape:zoom="0.89702955"
     inkscape:pageshadow="2"
     inkscape:pageopacity="0.0"
     borderopacity="1.0"
     bordercolor="#666666"
     pagecolor="#ffffff"
     id="base"
     showguides="false"
     inkscape:guide-bbox="true">
    <sodipodi:guide
       position="526.1811,372.04727"
       orientation="1,0"
       id="guide7552" />
    <sodipodi:guide
       position="526.1811,372.04727"
       orientation="0,1"
       id="guide7554" />
    <inkscape:grid
       type="xygrid"
       id="grid5069" />
  </sodipodi:namedview>
  <defs
     id="defs4" />
  <metadata
     id="metadata7">
    <rdf:RDF>
      <cc:Work
         rdf:about="">
        <dc:format>image/svg+xml</dc:format>
        <dc:type
           rdf:resource="http://purl.org/dc/dcmitype/StillImage" />
        <dc:title />
      </cc:Work>
    </rdf:RDF>
  </metadata>
  <g
     inkscape:label="Layer 1"
     inkscape:groupmode="layer"
     id="layer1"
     transform="translate(0,-308.26772)">
    <path
       id="path4153"
       style="fill:none;fill-opacity:1;stroke:#000000;stroke-width:1.5;stroke-linecap:butt;stroke-linejoin:miter;stroke-miterlimit:4;stroke-dasharray:none;stroke-opacity:1"
       d="m 557.38559,717.63976 -64.64848,37.3248 0,-74.6496 0,-74.6496 64.64848,37.3248 0,-74.6496 64.64846,37.3248 64.64844,37.3248 -64.64844,37.3248 0,-74.6496 64.64844,37.3248 64.64844,37.3248 -64.64844,37.3248 64.64844,37.3248 -64.64844,37.3248 -64.64844,37.3248 0,-74.6496 0,-74.6496 64.64844,37.3248 64.64844,37.3248 -64.64844,37.3248 64.64844,37.3248 -64.64844,37.3248 -64.64844,37.3248 0,-74.6496 64.64844,37.3248 -64.64844,37.3248 -64.64846,37.3248 0,-74.6496 -64.64848,37.3248 0,-74.6496 0,-74.6496 64.64848,37.3248 0,-74.6496 64.64846,37.3248 64.64844,37.3248 -64.64844,37.3248 64.64844,37.3248 -64.64844,37.3248 -64.64846,37.3248 0,-74.6496 64.64846,37.3248 -64.64846,37.3248 -64.64848,37.3248 0,-74.6496 -64.64843,37.3248 0,-74.6496 0,-74.6496 64.64843,37.3248 64.64848,37.3248 -64.64848,37.3248 -64.64843,37.3248 0,-74.6496 -64.64846,37.3248 0,-74.6496 0,-74.6496 64.64846,37.3248 -64.64846,37.3248 0,-74.6496 0,-74.6496 64.64846,37.3248 0,-74.6496 64.64843,37.3248 64.64848,37.3248 -64.64848,37.3248 0,-74.6496 64.64848,37.3248 64.64846,37.3248 -64.64846,37.3248 64.64846,37.3248 -64.64846,37.3248 -64.64848,37.3248 0,-74.6496 64.64848,37.3248 -64.64848,37.3248 -64.64843,37.3248 0,-74.6496 -64.64846,37.3248 0,-74.6496 0,-74.6496 64.64846,37.3248 64.64843,37.3248 -64.64843,37.3248 -64.64846,37.3248 0,-74.6496 -64.64844,37.3248 0,-74.6496 0,-74.6496 64.64844,37.3248 -64.64844,37.3248 0,-74.6496 0,-74.6496 64.64844,37.3248 0,-74.6496 64.64846,37.3248 64.64843,37.3248 -64.64843,37.3248 64.64843,37.3248 -64.64843,37.3248 -64.64846,37.3248 0,-74.6496 -64.64844,37.3248 0,-74.6496 0,-74.6496 64.64844,37.3248 -64.64844,37.3248 0,-74.6496 0,-74.6496 64.64844,37.3248 0,-74.6496 64.64846,37.3248 64.64843,37.3248 -64.64843,37.3248 -64.64846,37.3248 0,-74.6496 0,-74.6496 64.64846,37.3248 0,-74.6496 64.64843,37.3248 64.64848,37.3248 -64.64848,37.3248 0,-74.6496 64.64848,37.3248 64.64846,37.3248 -64.64846,37.3248 64.64846,37.3248 -64.64846,37.3248 -64.64848,37.3248 0,-74.6496 0,-74.6496 64.64848,37.3248 64.64846,37.3248 -64.64846,37.3248 64.64846,37.3248 -64.64846,37.3248 -64.64848,37.3248 0,-74.6496 64.64848,37.3248 -64.64848,37.3248 -64.64843,37.3248 0,-74.6496 -64.64846,37.3248 0,-74.6496 0,-74.6496 64.64846,37.3248 64.64843,37.3248 -64.64843,37.3248 -64.64846,37.3248 0,-74.6496 -64.64844,37.3248 0,-74.6496 0,-74.6496 64.64844,37.3248 -64.64844,37.3248 0,-74.6496 0,-74.6496 64.64844,37.3248 0,-74.6496 64.64846,37.3248 64.64843,37.3248 -64.64843,37.3248 64.64843,37.3248 -64.64843,37.3248 -64.64846,37.3248 0,-74.6496 -64.64844,37.3248 0,-74.6496 0,-74.6496 64.64844,37.3248 -64.64844,37.3248 0,-74.6496 0,-74.6496 64.64844,37.3248 0,-74.6496 64.64846,37.3248 64.64843,37.3248 -64.64843,37.3248 -64.64846,37.3248 0,-74.6496 0,-74.6496 64.64846,37.3248 0,-74.6496 64.64843,37.3248 64.64848,37.3248 -64.64848,37.3248 0,-74.6496 64.64848,37.3248 64.64846,37.3248 -64.64846,37.3248 64.64846,37.3248 -64.64846,37.3248 -64.64848,37.3248 0,-74.6496 64.64848,37.3248 -64.64848,37.3248 -64.64843,37.3248 0,-74.6496 -64.64846,37.3248 0,-74.6496 0,-74.6496 64.64846,37.3248 -64.64846,37.3248 0,-74.6496 0,-74.6496 64.64846,37.3248 0,-74.6496 64.64843,37.3248 64.64848,37.3248 -64.64848,37.3248 -64.64843,37.3248 0,-74.6496 0,-74.6496 64.64843,37.3248 0,-74.6496 64.64848,37.3248 64.64846,37.3248 -64.64846,37.3248 0,-74.6496 64.64846,37.3248 64.64844,37.3248 -64.64844,37.3248 64.64844,37.3248 -64.64844,37.3248 -64.64846,37.3248 0,-74.6496 -64.64848,37.3248 0,-74.6496 0,-74.6496 64.64848,37.3248 0,-74.6496 64.64846,37.3248 64.64844,37.3248 -64.64844,37.3248 0,-74.6496 64.64844,37.3248 64.64844,37.3248 -64.64844,37.3248 64.64844,37.3248 -64.64844,37.3248 -64.64844,37.3248 0,-74.6496 0,-74.6496 64.64844,37.3248 64.64844,37.3248 -64.64844,37.3248 64.64844,37.3248 -64.64844,37.3248 -64.64844,37.3248 0,-74.6496 64.64844,37.3248 -64.64844,37.3248 -64.64846,37.3248 0,-74.6496 -64.64848,37.3248 0,-74.6496 0,-74.6496 64.64848,37.3248"
       inkscape:connector-curvature="0" />
  </g>
</svg>
