<?xml version="1.0" encoding="UTF-8" standalone="no"?>
<!-- Created with Inkscape (http://www.inkscape.org/) -->
<!-- 
Artwork by John Samuel. 
This work is licensed under a Creative Commons Attribution-ShareAlike 4.0 International License. 
-->

<svg
   xmlns:dc="http://purl.org/dc/elements/1.1/"
   xmlns:cc="http://creativecommons.org/ns#"
   xmlns:rdf="http://www.w3.org/1999/02/22-rdf-syntax-ns#"
   xmlns:svg="http://www.w3.org/2000/svg"
   xmlns="http://www.w3.org/2000/svg"
   xmlns:sodipodi="http://sodipodi.sourceforge.net/DTD/sodipodi-0.dtd"
   xmlns:inkscape="http://www.inkscape.org/namespaces/inkscape"
   width="297mm"
   height="210mm"
   viewBox="0 0 1052.3622 744.09448"
   id="svg2"
   version="1.1"
   inkscape:version="0.91 r13725"
   sodipodi:docname="hut-with-chimney.svg">
  <defs
     id="defs4">
    <inkscape:path-effect
       effect="spiro"
       id="path-effect4253"
       is_visible="true" />
    <inkscape:path-effect
       effect="spiro"
       id="path-effect4249"
       is_visible="true" />
    <inkscape:path-effect
       effect="spiro"
       id="path-effect4245"
       is_visible="true" />
    <inkscape:path-effect
       effect="spiro"
       id="path-effect4241"
       is_visible="true" />
    <inkscape:path-effect
       effect="spiro"
       id="path-effect4237"
       is_visible="true" />
    <inkscape:path-effect
       effect="spiro"
       id="path-effect4233"
       is_visible="true" />
    <inkscape:path-effect
       effect="spiro"
       id="path-effect4229"
       is_visible="true" />
    <inkscape:path-effect
       effect="spiro"
       id="path-effect4225"
       is_visible="true" />
    <inkscape:path-effect
       effect="spiro"
       id="path-effect4221"
       is_visible="true" />
    <inkscape:path-effect
       effect="spiro"
       id="path-effect4217"
       is_visible="true" />
    <inkscape:path-effect
       effect="spiro"
       id="path-effect4213"
       is_visible="true" />
    <inkscape:path-effect
       effect="spiro"
       id="path-effect4406"
       is_visible="true" />
    <inkscape:path-effect
       effect="spiro"
       id="path-effect4384"
       is_visible="true" />
    <inkscape:path-effect
       effect="spiro"
       id="path-effect4273"
       is_visible="true" />
    <inkscape:path-effect
       effect="spiro"
       id="path-effect4267"
       is_visible="true" />
    <inkscape:path-effect
       effect="spiro"
       id="path-effect4263"
       is_visible="true" />
    <inkscape:path-effect
       effect="spiro"
       id="path-effect4259"
       is_visible="true" />
    <inkscape:path-effect
       effect="spiro"
       id="path-effect4384-6"
       is_visible="true" />
    <inkscape:path-effect
       effect="spiro"
       id="path-effect4384-3"
       is_visible="true" />
    <inkscape:path-effect
       effect="spiro"
       id="path-effect4384-3-8"
       is_visible="true" />
    <inkscape:path-effect
       effect="spiro"
       id="path-effect4384-3-6"
       is_visible="true" />
  </defs>
  <sodipodi:namedview
     id="base"
     pagecolor="#ffffff"
     bordercolor="#666666"
     borderopacity="1.0"
     inkscape:pageopacity="0.0"
     inkscape:pageshadow="2"
     inkscape:zoom="0.62"
     inkscape:cx="608.44114"
     inkscape:cy="452.96069"
     inkscape:document-units="px"
     inkscape:current-layer="layer1"
     showgrid="false"
     inkscape:window-width="1600"
     inkscape:window-height="829"
     inkscape:window-x="-6"
     inkscape:window-y="0"
     inkscape:window-maximized="1" />
  <metadata
     id="metadata7">
    <rdf:RDF>
      <cc:Work
         rdf:about="">
        <dc:format>image/svg+xml</dc:format>
        <dc:type
           rdf:resource="http://purl.org/dc/dcmitype/StillImage" />
        <dc:title></dc:title>
      </cc:Work>
    </rdf:RDF>
  </metadata>
  <g
     inkscape:label="Layer 1"
     inkscape:groupmode="layer"
     id="layer1"
     transform="translate(0,-308.26772)">
    <rect
       style="fill:#decd87;fill-opacity:0;stroke:#000000;stroke-width:1.64306104;stroke-miterlimit:4;stroke-dasharray:none;stroke-opacity:1"
       id="rect3340"
       width="531.65424"
       height="291.28549"
       x="387.9978"
       y="755.42908" />
    <rect
       style="fill:#decd87;fill-opacity:0;stroke:#000000;stroke-width:1.59834838;stroke-miterlimit:4;stroke-dasharray:none;stroke-opacity:1"
       id="rect4142"
       width="294.55606"
       height="289.71729"
       x="93.321075"
       y="757.01971" />
    <path
       sodipodi:type="star"
       style="fill:#decd87;fill-opacity:0;stroke:#000000;stroke-width:1.5;stroke-miterlimit:4;stroke-dasharray:none;stroke-opacity:1"
       id="path4150"
       sodipodi:sides="3"
       sodipodi:cx="282.85715"
       sodipodi:cy="589.50507"
       sodipodi:r1="180.3277"
       sodipodi:r2="82.869453"
       sodipodi:arg1="-1.5716204"
       sodipodi:arg2="-0.5244228"
       inkscape:flatsided="true"
       inkscape:rounded="0"
       inkscape:randomized="0"
       d="m 282.70854,409.17743 156.39122,270.36276 -312.33663,0.25739 z"
       inkscape:transform-center-x="1.3579465"
       inkscape:transform-center-y="-39.290237"
       transform="matrix(0.95056234,0,0,0.97757814,-28.529865,92.446717)" />
    <path
       style="fill:#decd87;fill-opacity:0;stroke:#000000;stroke-width:2.08984852;stroke-miterlimit:4;stroke-dasharray:none;stroke-opacity:1"
       d="m 240.94362,490.30603 541.27639,2.12546 136.42553,262.65173 -530.60277,0 z"
       id="rect4156"
       inkscape:connector-curvature="0"
       sodipodi:nodetypes="ccccc" />
    <rect
       style="fill:#decd87;fill-opacity:0;stroke:#000000;stroke-width:1.67212009;stroke-miterlimit:4;stroke-dasharray:none;stroke-opacity:1"
       id="rect4218"
       width="96.970741"
       height="220.51912"
       x="195.70818"
       y="826.54962" />
    <rect
       style="fill:#decd87;fill-opacity:0;stroke:#000000;stroke-width:1.5;stroke-miterlimit:4;stroke-dasharray:none;stroke-opacity:1"
       id="rect4220"
       width="214.28572"
       height="105.71429"
       x="541.84332"
       y="846.78613" />
    <ellipse
       style="fill:#decd87;fill-opacity:0;stroke:#000000;stroke-width:1.5;stroke-miterlimit:4;stroke-dasharray:none;stroke-opacity:1"
       id="path4269"
       cx="217.74196"
       cy="953.16864"
       rx="4.8387098"
       ry="4.032258" />
    <path
       style="fill:none;fill-rule:evenodd;stroke:#000000;stroke-width:1px;stroke-linecap:butt;stroke-linejoin:miter;stroke-opacity:1"
       d="m 641.93549,844.29769 0,106.45161"
       id="path4271"
       inkscape:path-effect="#path-effect4273"
       inkscape:original-d="m 641.93549,844.29769 0,106.45161"
       inkscape:connector-curvature="0" />
    <path
       style="fill:none;fill-rule:evenodd;stroke:#000000;stroke-width:0.99246413px;stroke-linecap:butt;stroke-linejoin:miter;stroke-opacity:1"
       d="m 356.45162,697.5235 529.03225,0 0,0"
       id="path4275"
       inkscape:connector-curvature="0" />
    <path
       style="fill:none;fill-rule:evenodd;stroke:#000000;stroke-width:0.99246413px;stroke-linecap:butt;stroke-linejoin:miter;stroke-opacity:1"
       d="m 324.19355,630.58802 529.03225,0 0,0"
       id="path4275-1"
       inkscape:connector-curvature="0" />
    <path
       style="fill:none;fill-rule:evenodd;stroke:#000000;stroke-width:0.99246413px;stroke-linecap:butt;stroke-linejoin:miter;stroke-opacity:1"
       d="m 287.09679,567.68479 529.03225,0 0,0"
       id="path4275-3"
       inkscape:connector-curvature="0" />
    <path
       style="fill:none;fill-rule:evenodd;stroke:#000000;stroke-width:1px;stroke-linecap:butt;stroke-linejoin:miter;stroke-opacity:1"
       d="M 345.1613,497.5235 503.22581,753.97511"
       id="path4382"
       inkscape:path-effect="#path-effect4384"
       inkscape:original-d="M 345.1613,497.5235 503.22581,753.97511"
       inkscape:connector-curvature="0" />
    <path
       style="fill:none;fill-rule:evenodd;stroke:#000000;stroke-width:1.00936306px;stroke-linecap:butt;stroke-linejoin:miter;stroke-opacity:1"
       d="M 466.13217,491.88011 624.19043,753.16689"
       id="path4382-9"
       inkscape:path-effect="#path-effect4384-3"
       inkscape:original-d="M 466.13217,491.88011 624.19043,753.16689"
       inkscape:connector-curvature="0" />
    <path
       style="fill:none;fill-rule:evenodd;stroke:#000000;stroke-width:1.00936306px;stroke-linecap:butt;stroke-linejoin:miter;stroke-opacity:1"
       d="M 587.09991,497.52527 745.15817,758.81205"
       id="path4382-9-7"
       inkscape:path-effect="#path-effect4384-3-8"
       inkscape:original-d="M 587.09991,497.52527 745.15817,758.81205"
       inkscape:connector-curvature="0" />
    <path
       style="fill:none;fill-rule:evenodd;stroke:#000000;stroke-width:1.00936306px;stroke-linecap:butt;stroke-linejoin:miter;stroke-opacity:1"
       d="M 701.61604,492.68656 859.67432,753.97334"
       id="path4382-9-9"
       inkscape:path-effect="#path-effect4384-3-6"
       inkscape:original-d="M 701.61604,492.68656 859.67432,753.97334"
       inkscape:connector-curvature="0" />
    <rect
       style="fill:#ffffff;fill-opacity:1;stroke:#ffffff;stroke-width:1.52272952;stroke-miterlimit:4;stroke-dasharray:none;stroke-opacity:1"
       id="rect4462"
       width="85.461143"
       height="53.203079"
       x="551.62427"
       y="699.14777" />
    <rect
       style="fill:#ffffff;fill-opacity:1;stroke:#ffffff;stroke-width:1.5227294;stroke-miterlimit:4;stroke-dasharray:none;stroke-opacity:1"
       id="rect4462-3"
       width="85.461143"
       height="53.203079"
       x="779.85004"
       y="699.95416"
       inkscape:transform-center-x="135.55444"
       inkscape:transform-center-y="-3.0438298" />
    <rect
       style="fill:#ffffff;fill-opacity:1;stroke:#ffffff;stroke-width:1.61040246;stroke-miterlimit:4;stroke-dasharray:none;stroke-opacity:1"
       id="rect4462-3-5"
       width="85.373466"
       height="59.56702"
       x="392.79715"
       y="633.86902"
       inkscape:transform-center-x="135.41539"
       inkscape:transform-center-y="-3.4079472" />
    <rect
       style="fill:#ffffff;fill-opacity:1;stroke:#ffffff;stroke-width:1.71360934;stroke-miterlimit:4;stroke-dasharray:none;stroke-opacity:1"
       id="rect4462-3-5-7"
       width="85.270264"
       height="67.528336"
       x="550.91333"
       y="495.21097"
       inkscape:transform-center-x="135.25165"
       inkscape:transform-center-y="-3.8634259" />
    <rect
       style="fill:#ffffff;fill-opacity:1;stroke:#ffffff;stroke-width:1.61040246;stroke-miterlimit:4;stroke-dasharray:none;stroke-opacity:1"
       id="rect4462-3-5-7-0"
       width="85.373466"
       height="59.56702"
       x="636.34552"
       y="633.86902"
       inkscape:transform-center-x="135.41539"
       inkscape:transform-center-y="-3.4079472" />
    <rect
       style="fill:#ffffff;fill-opacity:1;stroke:#ffffff;stroke-width:1.71360934;stroke-miterlimit:4;stroke-dasharray:none;stroke-opacity:1"
       id="rect4462-3-5-7-2"
       width="85.270264"
       height="67.528336"
       x="317.04227"
       y="495.21094"
       inkscape:transform-center-x="135.25168"
       inkscape:transform-center-y="-3.8634495" />
    <rect
       style="fill:#ffffff;fill-opacity:1;stroke:#ffffff;stroke-width:1.56718755;stroke-miterlimit:4;stroke-dasharray:none;stroke-opacity:1"
       id="rect4462-3-5-7-07"
       width="85.416679"
       height="56.38443"
       x="484.711"
       y="569.33124"
       inkscape:transform-center-x="135.48394"
       inkscape:transform-center-y="-3.225863" />
    <rect
       style="fill:#ffffff;fill-opacity:1;stroke:#ffffff;stroke-width:1.56718755;stroke-miterlimit:4;stroke-dasharray:none;stroke-opacity:1"
       id="rect4462-3-5-7-7"
       width="85.416679"
       height="56.38443"
       x="716.96906"
       y="569.33124"
       inkscape:transform-center-x="135.48394"
       inkscape:transform-center-y="-3.225863" />
    <ellipse
       style="fill:#decd87;fill-opacity:0;stroke:#000000;stroke-width:1.5;stroke-miterlimit:4;stroke-dasharray:none;stroke-opacity:1"
       id="path4269-1"
       cx="654.83868"
       cy="902.36218"
       rx="4.8387098"
       ry="4.032258" />
    <ellipse
       style="fill:#decd87;fill-opacity:0;stroke:#000000;stroke-width:1.5;stroke-miterlimit:4;stroke-dasharray:none;stroke-opacity:1"
       id="path4269-9"
       cx="625.80646"
       cy="902.36218"
       rx="4.8387098"
       ry="4.032258" />
    <rect
       style="fill:#ffffff;fill-opacity:1;stroke:none;stroke-width:1.51177835;stroke-miterlimit:4;stroke-dasharray:none;stroke-opacity:1"
       id="rect4186"
       width="288.69788"
       height="9.6656418"
       x="95.167183"
       y="750.75513" />
    <ellipse
       style="fill:#ffffff;fill-opacity:1;stroke:#000000;stroke-width:1.31706119;stroke-miterlimit:4;stroke-dasharray:none;stroke-opacity:1"
       id="path4188"
       cx="232.25806"
       cy="649.94281"
       rx="25.897923"
       ry="25.091471" />
    <rect
       style="fill:#ffffff;fill-opacity:1;stroke:#000000;stroke-width:1.89158607;stroke-miterlimit:4;stroke-dasharray:none;stroke-opacity:1"
       id="rect4209"
       width="73.801964"
       height="85.092285"
       x="592.13135"
       y="407.3967" />
    <path
       style="fill:none;fill-rule:evenodd;stroke:#000000;stroke-width:1px;stroke-linecap:butt;stroke-linejoin:miter;stroke-opacity:1"
       d="m 591.93548,407.20092 c -2.75851,-3.62739 -3.95278,-8.40447 -3.2258,-12.90323 0.0434,-0.2688 0.0935,-0.53737 0.10757,-0.8093 0.0141,-0.27193 -0.009,-0.54977 -0.10757,-0.8036 -0.13921,-0.35852 -0.41831,-0.64465 -0.7161,-0.88804 -0.29779,-0.24339 -0.62209,-0.4557 -0.89681,-0.72486 -0.40958,-0.40129 -0.69587,-0.91992 -0.8552,-1.47074 -0.15933,-0.55082 -0.19483,-1.13322 -0.14324,-1.7043 0.10319,-1.14215 0.54511,-2.22318 0.99844,-3.27658 0.5721,-1.32941 1.17827,-2.6748 1.33233,-4.11386 0.077,-0.71953 0.037,-1.4572 -0.17538,-2.14896 -0.2124,-0.69177 -0.60281,-1.3363 -1.15695,-1.80169 -0.29725,-0.24964 -0.63641,-0.44496 -0.93911,-0.68796 -0.3027,-0.243 -0.57643,-0.54919 -0.67379,-0.92495 -0.0676,-0.26103 -0.0483,-0.53574 -0.0298,-0.80476 0.0184,-0.26901 0.0298,-0.53849 0.0298,-0.80814 l 0,-9.67742 c 0,-0.27449 -0.03,-0.54787 -0.0781,-0.81811 -0.024,-0.13512 -0.0471,-0.27151 -0.0435,-0.40871 0.004,-0.1372 0.0371,-0.27796 0.1216,-0.38608 0.0873,-0.1117 0.22311,-0.17892 0.36283,-0.20302 0.13972,-0.0241 0.28366,-0.008 0.42196,0.0229 0.27661,0.0624 0.54462,0.18661 0.82811,0.1801 0.16548,-0.004 0.32902,-0.0534 0.47151,-0.1376 0.14249,-0.0842 0.264,-0.20253 0.35646,-0.33982 0.18491,-0.27458 0.2498,-0.61934 0.21787,-0.94883 -0.0319,-0.3295 -0.15541,-0.64504 -0.3199,-0.93232 -0.16449,-0.28728 -0.36965,-0.54894 -0.57718,-0.80685 -0.20752,-0.25792 -0.41875,-0.51401 -0.59718,-0.79285 -0.17842,-0.27884 -0.32425,-0.58291 -0.38841,-0.90767 -0.0642,-0.32476 -0.0424,-0.67227 0.10008,-0.97106 0.0713,-0.1494 0.1721,-0.28521 0.29805,-0.39261 0.12595,-0.10739 0.27716,-0.18592 0.4387,-0.22201 0.26542,-0.0593 0.54102,-0.003 0.8096,0.0394 0.13429,0.0214 0.26968,0.0396 0.40566,0.0382 0.13598,-0.001 0.27323,-0.0227 0.39765,-0.0776 0.21876,-0.0965 0.38502,-0.29401 0.4677,-0.51835 0.0827,-0.22434 0.0863,-0.47301 0.0366,-0.70687 -0.0995,-0.46773 -0.39731,-0.86407 -0.6734,-1.25449 -0.13805,-0.19521 -0.27299,-0.39378 -0.3789,-0.60813 -0.10592,-0.21435 -0.18251,-0.44602 -0.19747,-0.68465 -0.015,-0.23862 0.0347,-0.48493 0.16442,-0.68578 0.12971,-0.20084 0.34374,-0.35145 0.58107,-0.38044 0.14144,-0.0173 0.28491,0.008 0.42222,0.0458 0.1373,0.0381 0.27077,0.0892 0.40846,0.12589 0.1377,0.0367 0.28194,0.0587 0.42278,0.0371 0.0704,-0.0108 0.13944,-0.0327 0.20162,-0.0674 0.0622,-0.0348 0.11742,-0.0827 0.15782,-0.14136 0.0402,-0.0584 0.0652,-0.12653 0.0767,-0.19645 0.0116,-0.0699 0.01,-0.14161 6e-5,-0.21177 -0.02,-0.14033 -0.0729,-0.27344 -0.12176,-0.4065 -0.0488,-0.13306 -0.0944,-0.27 -0.0984,-0.41168 -0.002,-0.0708 0.007,-0.14237 0.0298,-0.20933 0.0232,-0.067 0.0613,-0.12928 0.11355,-0.17717 0.0525,-0.0481 0.11831,-0.0808 0.18738,-0.0983 0.0691,-0.0175 0.14139,-0.0202 0.21227,-0.0129 0.14176,0.0146 0.27612,0.0683 0.40866,0.12069 0.13254,0.0524 0.26777,0.10453 0.40983,0.11576 0.071,0.006 0.14332,7.3e-4 0.21173,-0.0192 0.0684,-0.02 0.13285,-0.0554 0.18303,-0.10597 0.0502,-0.0506 0.0851,-0.11543 0.10451,-0.18404 0.0194,-0.0686 0.0237,-0.14098 0.0176,-0.21203 -0.0123,-0.14208 -0.0652,-0.27706 -0.11796,-0.40956 -0.0527,-0.1325 -0.10638,-0.2671 -0.12013,-0.40905 -0.007,-0.071 -0.004,-0.14336 0.0148,-0.21227 0.0183,-0.0689 0.052,-0.13429 0.10116,-0.18595 0.049,-0.0515 0.11232,-0.0883 0.17999,-0.10993 0.0677,-0.0216 0.13957,-0.0284 0.21051,-0.0246 0.14188,0.008 0.27796,0.0564 0.41072,0.10708 0.13275,0.0506 0.2664,0.10402 0.40742,0.12138 0.0705,0.009 0.14253,0.008 0.21207,-0.006 0.0695,-0.0145 0.13661,-0.0433 0.1922,-0.0875 0.0553,-0.044 0.0983,-0.10264 0.12741,-0.1671 0.0291,-0.0645 0.0445,-0.13464 0.049,-0.2052 0.009,-0.14112 -0.0242,-0.28157 -0.0666,-0.41649 -0.0424,-0.13492 -0.0941,-0.26733 -0.12339,-0.40568 -0.0293,-0.13834 -0.0352,-0.28565 0.0135,-0.41844 0.0524,-0.14314 0.16646,-0.25976 0.30242,-0.32869 0.13596,-0.0689 0.29236,-0.0923 0.44438,-0.081 0.30404,0.0225 0.58114,0.1759 0.84291,0.33219 0.26177,0.15628 0.52792,0.32231 0.82823,0.37492 0.15015,0.0263 0.30726,0.0226 0.45197,-0.0253 0.1447,-0.0479 0.27618,-0.14218 0.35589,-0.27212 0.0718,-0.11711 0.0991,-0.25741 0.0983,-0.3948 -7.9e-4,-0.13739 -0.0281,-0.27317 -0.0586,-0.40712 -0.0305,-0.13396 -0.0644,-0.26766 -0.0788,-0.4043 -0.0143,-0.13664 -0.008,-0.27775 0.0391,-0.40668 0.0508,-0.138 0.14815,-0.25691 0.26808,-0.34202 0.11994,-0.0851 0.26167,-0.13722 0.40697,-0.15989 0.2906,-0.0453 0.58752,0.0251 0.86335,0.12714 0.27584,0.10208 0.53962,0.23609 0.81976,0.32568 0.28014,0.0896 0.58577,0.13303 0.86765,0.0491 0.185,-0.0551 0.35128,-0.16285 0.49362,-0.29324 0.14234,-0.13038 0.26221,-0.28327 0.37478,-0.44007 0.22514,-0.31362 0.43133,-0.65383 0.7445,-0.87959 0.33804,-0.24368 0.77077,-0.32766 1.18712,-0.31025 0.41635,0.0174 0.8225,0.12868 1.22274,0.24469 0.40024,0.11602 0.802,0.23813 1.21678,0.27826 0.41478,0.0401 0.84947,-0.007 1.21207,-0.2127 0.3328,-0.18849 0.58079,-0.49391 0.81643,-0.79517 0.23564,-0.30127 0.47408,-0.61195 0.79648,-0.81773 0.34515,-0.22031 0.76272,-0.30371 1.17209,-0.31281 0.40936,-0.009 0.8169,0.0503 1.22167,0.11218 0.80954,0.12371 1.62601,0.20063 2.44495,0.20063 l 12.90322,0 c 0.82491,0 1.64618,-0.0939 2.4573,-0.24407 0.40556,-0.0751 0.81524,-0.14722 1.22753,-0.13554 0.41229,0.0117 0.836,0.1168 1.15388,0.37961 0.30183,0.24954 0.47915,0.61392 0.69836,0.93846 0.1096,0.16226 0.23258,0.31773 0.3845,0.44127 0.15193,0.12354 0.33515,0.21414 0.53004,0.23317 0.14039,0.0137 0.28196,-0.01 0.41867,-0.0445 0.13671,-0.0348 0.27041,-0.0808 0.40761,-0.11358 0.1372,-0.0328 0.27975,-0.0521 0.41942,-0.0324 0.13966,0.0198 0.27698,0.082 0.36721,0.19044 0.089,0.1069 0.12545,0.25007 0.12541,0.38915 -4e-5,0.13909 -0.0337,0.27585 -0.0717,0.40965 -0.038,0.1338 -0.0806,0.26704 -0.0992,0.40486 -0.0186,0.13783 -0.012,0.28258 0.0455,0.40924 0.0632,0.13931 0.18541,0.24777 0.32605,0.30796 0.14064,0.0602 0.29842,0.0743 0.4502,0.0552 0.30358,-0.0381 0.57496,-0.20126 0.83595,-0.36092 0.26099,-0.15966 0.53205,-0.32322 0.83551,-0.36219 0.15173,-0.0195 0.30953,-0.006 0.45043,0.0536 0.1409,0.0596 0.26365,0.16737 0.32766,0.30631 0.0581,0.12619 0.0658,0.27073 0.048,0.40852 -0.0178,0.13779 -0.0596,0.27112 -0.0972,0.40487 -0.0376,0.13376 -0.0713,0.27028 -0.0721,0.40922 -7.5e-4,0.13893 0.0342,0.28205 0.12129,0.39029 0.0887,0.11022 0.22496,0.17547 0.36461,0.19807 0.13965,0.0226 0.28306,0.006 0.42096,-0.0258 0.27581,-0.0631 0.54471,-0.18534 0.82734,-0.17226 0.23334,0.0108 0.45682,0.1163 0.63143,0.27147 0.17462,0.15516 0.30279,0.35759 0.39338,0.5729 0.18119,0.43062 0.21577,0.90618 0.31264,1.36321 0.0484,0.22852 0.1134,0.45514 0.21825,0.66387 0.10484,0.20874 0.25142,0.3998 0.44228,0.53447 0.19086,0.13467 0.4282,0.20971 0.66036,0.18393 0.11609,-0.0129 0.2297,-0.0507 0.32859,-0.11287 0.0989,-0.0621 0.18278,-0.14872 0.23887,-0.25117 0.0657,-0.1199 0.092,-0.25832 0.0939,-0.395 0.002,-0.13668 -0.0199,-0.27255 -0.0456,-0.40681 -0.0257,-0.13425 -0.0555,-0.268 -0.07,-0.40391 -0.0146,-0.13592 -0.0136,-0.2751 0.0217,-0.40718 0.0501,-0.18777 0.16729,-0.35233 0.30826,-0.48608 0.14098,-0.13376 0.30569,-0.23957 0.47084,-0.34199 0.16515,-0.10242 0.3326,-0.20284 0.48147,-0.32775 0.14887,-0.12491 0.27978,-0.27681 0.35234,-0.45709 0.10132,-0.25174 0.081,-0.53454 0.0443,-0.80341 -0.0367,-0.26887 -0.0883,-0.5417 -0.0443,-0.80949 0.0326,-0.19867 0.11749,-0.38697 0.23404,-0.55113 0.11654,-0.16415 0.26418,-0.30479 0.426,-0.42455 0.32364,-0.23953 0.70009,-0.39498 1.06766,-0.55933 0.36757,-0.16436 0.73667,-0.34424 1.02901,-0.62112 0.14616,-0.13844 0.27151,-0.30058 0.35649,-0.48309 0.085,-0.18251 0.12862,-0.3859 0.1126,-0.58658 -0.023,-0.28826 -0.16483,-0.55286 -0.22842,-0.83496 -0.0318,-0.14105 -0.0437,-0.28915 -0.0106,-0.42991 0.0331,-0.14077 0.11496,-0.27383 0.23905,-0.34804 0.12144,-0.0726 0.27164,-0.0832 0.41137,-0.061 0.13973,0.0223 0.27249,0.0748 0.40591,0.1219 0.13342,0.0471 0.27117,0.0895 0.41266,0.0903 0.0707,3.7e-4 0.14192,-0.01 0.20826,-0.0345 0.0663,-0.0246 0.12773,-0.0639 0.17471,-0.11674 0.0473,-0.0532 0.0791,-0.11923 0.096,-0.18837 0.0169,-0.0691 0.0193,-0.14134 0.0118,-0.21212 -0.015,-0.14155 -0.0683,-0.27578 -0.1201,-0.40837 -0.0518,-0.13259 -0.10308,-0.26794 -0.11365,-0.40988 -0.005,-0.071 -1.2e-4,-0.14314 0.02,-0.21141 0.0201,-0.0683 0.0555,-0.13258 0.10602,-0.18275 0.0505,-0.0502 0.11507,-0.0852 0.1835,-0.10492 0.0684,-0.0197 0.14065,-0.0244 0.21163,-0.0187 0.14196,0.0113 0.27712,0.0632 0.40968,0.1153 0.13256,0.052 0.26696,0.10532 0.40864,0.11967 0.0708,0.007 0.14311,0.004 0.21212,-0.0132 0.069,-0.0175 0.13475,-0.0501 0.18733,-0.0981 0.0523,-0.0478 0.0906,-0.1099 0.11403,-0.17673 0.0235,-0.0668 0.0324,-0.13828 0.0307,-0.20908 -0.003,-0.14162 -0.0481,-0.27872 -0.0965,-0.41185 -0.0484,-0.13313 -0.10117,-0.26617 -0.12158,-0.40634 -0.0204,-0.14018 -0.005,-0.29108 0.0734,-0.4089 0.0397,-0.0594 0.0942,-0.10836 0.15593,-0.14434 0.0617,-0.036 0.13049,-0.0592 0.20089,-0.0713 0.1408,-0.0243 0.2859,-0.005 0.42429,0.0309 0.1384,0.0355 0.27229,0.0866 0.40948,0.12651 0.13718,0.0399 0.27983,0.0688 0.42231,0.0582 0.19565,-0.0146 0.38066,-0.10388 0.53306,-0.22744 0.15239,-0.12355 0.27475,-0.2802 0.38328,-0.44364 0.21707,-0.32688 0.39164,-0.69489 0.69657,-0.94183 0.32647,-0.26439 0.767,-0.35471 1.18644,-0.3312 0.41944,0.0235 0.82538,0.15068 1.22474,0.28104 0.39936,0.13037 0.80151,0.26583 1.2196,0.30689 0.41809,0.0411 0.86047,-0.0206 1.20793,-0.25673 0.31912,-0.21687 0.52837,-0.55645 0.75219,-0.87074 0.11191,-0.15714 0.23031,-0.31095 0.37109,-0.44285 0.14079,-0.1319 0.30547,-0.24182 0.48962,-0.29931 0.25773,-0.0805 0.53494,-0.0576 0.80404,-0.0356 0.2691,0.022 0.53886,0.0356 0.80886,0.0356 l 3.22581,0 8.06452,0 1.6129,0 c 0.27035,0 0.54041,0.0155 0.80959,0.0406 0.26919,0.0251 0.54891,0.0509 0.80331,-0.0406 0.18236,-0.0656 0.33893,-0.1901 0.46836,-0.33434 0.12942,-0.14424 0.23407,-0.3086 0.33809,-0.47211 0.10402,-0.16351 0.20867,-0.32787 0.3381,-0.47211 0.12942,-0.14424 0.28599,-0.26874 0.46835,-0.33434 0.2544,-0.0915 0.53413,-0.0657 0.80331,-0.0406 0.26919,0.0251 0.53924,0.0406 0.8096,0.0406 l 3.2258,0 8.06452,0 c 1.09527,0 2.18658,-0.11257 3.26685,-0.29324 0.54013,-0.0903 1.0847,-0.1771 1.63216,-0.16349 0.54747,0.0136 1.10774,0.13736 1.5526,0.45673 0.31024,0.22273 0.54887,0.52863 0.78968,0.82505 0.24081,0.29643 0.49465,0.59319 0.82323,0.78785 0.35168,0.20835 0.76772,0.28619 1.17639,0.29464 0.40867,0.008 0.8157,-0.0475 1.22029,-0.10577 0.80917,-0.11651 1.62451,-0.18887 2.44203,-0.18887 l 12.90322,0 c 0.82011,0 1.63753,-0.0805 2.44737,-0.20987 0.40493,-0.0647 0.81288,-0.12681 1.22282,-0.11719 0.40994,0.01 0.82875,0.0975 1.16852,0.32706 0.31772,0.21467 0.54381,0.53639 0.77561,0.84184 0.2318,0.30545 0.48872,0.61131 0.8373,0.77106 0.20281,0.0929 0.42825,0.13133 0.65132,0.1278 0.22306,-0.004 0.44412,-0.048 0.65702,-0.11465 0.42581,-0.1333 0.81836,-0.35343 1.22852,-0.52907 0.41016,-0.17563 0.85554,-0.30868 1.29818,-0.25258 0.22132,0.0281 0.43838,0.10464 0.61886,0.23578 0.18047,0.13113 0.32268,0.31845 0.3848,0.53272 0.0756,0.2607 0.0308,0.53908 -0.0108,0.8073 -0.0417,0.26821 -0.0787,0.54936 0.0108,0.80561 0.058,0.16597 0.16859,0.3131 0.31193,0.41488 0.14334,0.10177 0.31873,0.1577 0.49453,0.1577 0.17579,0 0.35118,-0.0559 0.49452,-0.1577 0.14334,-0.10178 0.25397,-0.24891 0.31193,-0.41488 -0.20441,0.0102 -0.40366,0.10164 -0.54472,0.24993 -0.14106,0.14829 -0.22241,0.35185 -0.22241,0.55652 0,0.20467 0.0814,0.40823 0.22241,0.55652 0.14106,0.14829 0.34031,0.23971 0.54472,0.24993 0.14294,0.007 0.28518,-0.0238 0.42231,-0.0647 0.13714,-0.0409 0.27128,-0.092 0.41007,-0.12697 0.13879,-0.0349 0.28436,-0.0534 0.42516,-0.0277 0.0704,0.0128 0.13905,0.0368 0.20052,0.0734 0.0615,0.0366 0.11562,0.0862 0.15484,0.14603 0.0776,0.11849 0.0919,0.26935 0.071,0.40947 -0.0209,0.14012 -0.0738,0.27308 -0.12205,0.40626 -0.0483,0.13318 -0.0928,0.27043 -0.0956,0.41207 -0.001,0.0708 0.008,0.14223 0.0316,0.20895 0.0238,0.0667 0.0624,0.12867 0.11495,0.17615 0.0529,0.0478 0.11887,0.08 0.18805,0.0971 0.0692,0.0171 0.14151,0.0195 0.21237,0.0119 0.14172,-0.0152 0.27595,-0.0691 0.4085,-0.12153 0.13255,-0.0524 0.26792,-0.10432 0.41005,-0.11501 0.0711,-0.005 0.14335,-10e-5 0.21164,0.0203 0.0683,0.0204 0.13252,0.0563 0.18229,0.10725 0.0499,0.0511 0.0842,0.11637 0.10295,0.18528 0.0187,0.0689 0.0223,0.14145 0.0154,0.21253 -0.0138,0.14218 -0.0681,0.27683 -0.12155,0.40929 -0.0535,0.13245 -0.10726,0.2674 -0.11988,0.40968 -0.006,0.0711 -0.002,0.14366 0.0175,0.21234 0.0196,0.0687 0.0548,0.13348 0.10553,0.18379 0.0507,0.0503 0.11585,0.0851 0.18474,0.10418 0.0689,0.0191 0.14147,0.0228 0.21262,0.016 0.1423,-0.0136 0.27702,-0.0681 0.40946,-0.12196 0.13243,-0.0538 0.26732,-0.10808 0.40968,-0.12103 0.0712,-0.006 0.14376,-0.002 0.21251,0.0172 0.0688,0.0195 0.13362,0.0548 0.1839,0.10562 0.0503,0.0509 0.085,0.11615 0.10381,0.18517 0.0188,0.069 0.0223,0.14172 0.0151,0.21291 -0.0143,0.14238 -0.0695,0.27697 -0.12382,0.40937 -0.0543,0.1324 -0.10877,0.26745 -0.12127,0.41 -0.006,0.0713 -0.002,0.14394 0.0184,0.21261 0.0201,0.0687 0.0562,0.13324 0.10775,0.18284 0.0518,0.0498 0.11809,0.0834 0.18781,0.10089 0.0697,0.0175 0.1428,0.0192 0.21414,0.0105 0.14267,-0.0175 0.27656,-0.076 0.4089,-0.13215 0.13234,-0.0561 0.26829,-0.11118 0.41168,-0.12122 0.0717,-0.005 0.14469,0.002 0.21282,0.0245 0.0681,0.0229 0.13125,0.0626 0.17755,0.11755 0.0479,0.0569 0.0765,0.12858 0.0872,0.20214 0.0107,0.0736 0.004,0.14898 -0.0132,0.22128 -0.0345,0.14462 -0.10976,0.27551 -0.17572,0.40875 -0.066,0.13325 -0.1244,0.27604 -0.12091,0.42467 0.002,0.0743 0.0196,0.14897 0.0572,0.21308 0.0376,0.0641 0.0958,0.1171 0.16546,0.14298 0.08,0.0297 0.17179,0.0219 0.24852,-0.0153 0.0767,-0.0373 0.13836,-0.10252 0.17697,-0.17859 0.0386,-0.0761 0.0549,-0.16242 0.0531,-0.2477 -0.002,-0.0853 -0.0211,-0.1696 -0.0506,-0.24965 -0.0589,-0.1601 -0.15688,-0.30222 -0.24462,-0.44852 -0.0877,-0.14631 -0.16749,-0.30325 -0.18338,-0.4731 -0.0186,-0.19885 0.054,-0.39904 0.17153,-0.56048 0.11757,-0.16145 0.27751,-0.2876 0.44646,-0.39411 0.33789,-0.213 0.72716,-0.3619 0.99491,-0.65831 0.20494,-0.22687 0.32006,-0.52049 0.40312,-0.81472 0.0831,-0.29424 0.13981,-0.5956 0.22927,-0.88795 0.0895,-0.29235 0.21345,-0.57523 0.38252,-0.82995 0.16908,-0.25473 0.38182,-0.47701 0.598,-0.69319 l 1.6129,-1.6129 c 0.27287,-0.27287 0.57023,-0.51965 0.88073,-0.74878 0.15525,-0.11457 0.3106,-0.23083 0.44401,-0.37022 0.13342,-0.13938 0.24512,-0.30582 0.28816,-0.49391 0.0307,-0.1342 0.0253,-0.2744 0.005,-0.41055 -0.0204,-0.13615 -0.0554,-0.26961 -0.0838,-0.40432 -0.0284,-0.1347 -0.0503,-0.27201 -0.0438,-0.40952 0.007,-0.13751 0.043,-0.27622 0.12266,-0.38851 0.0842,-0.11872 0.21311,-0.20191 0.35231,-0.24444 0.13919,-0.0425 0.28825,-0.0462 0.43239,-0.0261 0.28829,0.0403 0.55421,0.17223 0.82821,0.2705 0.66604,0.23888 1.40135,0.27921 2.09041,0.11836 0.68905,-0.16085 1.32963,-0.52184 1.82685,-1.02527 0.49723,-0.50342 0.8499,-1.14736 1.01009,-1.83657 0.16019,-0.68921 0.1279,-1.4216 -0.0886,-2.09523 -0.0877,-0.27296 -0.2057,-0.53932 -0.242,-0.82373 -0.0181,-0.1422 -0.0152,-0.28837 0.0224,-0.42671 0.0376,-0.13834 0.11117,-0.26868 0.2196,-0.36246 0.10535,-0.0911 0.23977,-0.1447 0.37729,-0.16683 0.13751,-0.0221 0.27844,-0.0141 0.41604,0.007 0.27521,0.0431 0.54168,0.14 0.81957,0.1594 0.39899,0.0279 0.7985,-0.10893 1.12983,-0.33297 0.33132,-0.22403 0.59936,-0.53112 0.82511,-0.86127 0.45151,-0.66031 0.74937,-1.42502 1.27087,-2.03157 0.39934,-0.46447 0.91702,-0.81812 1.4733,-1.07455 0.55628,-0.25644 1.15173,-0.41885 1.7525,-0.53835 0.84753,-0.16858 1.71146,-0.25403 2.5504,-0.46116 0.83894,-0.20714 1.66887,-0.54924 2.28831,-1.15175 0.27428,-0.26678 0.50065,-0.57795 0.74823,-0.86969 0.24757,-0.29173 0.52366,-0.56969 0.86468,-0.74321 0.48646,-0.24752 1.05914,-0.25965 1.60161,-0.19938 0.54247,0.0603 1.07851,0.18742 1.62419,0.19938 1.25046,0.0274 2.49746,-0.59608 3.22581,-1.6129 1.5143,0.68652 3.32441,0.68652 4.83871,0 0.54934,-0.24904 1.05621,-0.58092 1.57622,-0.88649 0.52002,-0.30558 1.06238,-0.58861 1.64958,-0.72642 0.78905,-0.18519 1.61342,-0.0988 2.41888,-0.009 0.80545,0.0902 1.62824,0.18257 2.41983,0.009 1.17893,-0.25922 2.14628,-1.07281 3.22581,-1.6129 1.71327,-0.85715 3.70034,-1.01304 5.61014,-0.86242 1.9098,0.15061 3.78399,0.58955 5.68018,0.86242 1.60506,0.23097 3.25342,0.34122 4.83871,0 1.36434,-0.29367 2.63449,-0.91093 3.95883,-1.35115 0.66217,-0.22011 1.34231,-0.39677 2.03699,-0.46257 0.69468,-0.0658 1.40618,-0.0182 2.0687,0.20082 1.14389,0.37818 2.08002,1.24052 3.22581,1.6129 0.64682,0.21022 1.33796,0.25552 2.01697,0.21658 0.67901,-0.0389 1.35024,-0.16002 2.02042,-0.27593 0.67017,-0.11591 1.34376,-0.22714 2.02362,-0.24601 0.67987,-0.0189 1.37021,0.0573 2.0035,0.30536 0.56267,0.22036 1.06397,0.56883 1.5764,0.88909 0.51244,0.32026 1.05416,0.61973 1.64941,0.72381 0.53216,0.0931 1.07747,0.0249 1.61464,-0.0326 0.53717,-0.0575 1.08825,-0.10315 1.61116,0.0326 0.58676,0.15228 1.08979,0.51962 1.58945,0.86287 0.49965,0.34325 1.03442,0.67836 1.63636,0.75004 0.53496,0.0637 1.08126,-0.0872 1.6129,0 0.30039,0.0493 0.58444,0.17336 0.84674,0.32784 0.26229,0.15448 0.50508,0.33947 0.74948,0.52094 0.24441,0.18146 0.49221,0.36054 0.76196,0.50161 0.26974,0.14106 0.5638,0.24372 0.86763,0.26251 0.27061,0.0167 0.54023,-0.0331 0.80981,-0.062 0.26957,-0.029 0.55023,-0.0358 0.80309,0.062 0.17968,0.0695 0.3367,0.18915 0.47067,0.32761 0.13397,0.13846 0.24649,0.29596 0.35623,0.45431 0.10975,0.15835 0.21759,0.31865 0.34361,0.46439 0.12602,0.14573 0.2716,0.27744 0.4424,0.36659 0.24416,0.12744 0.5284,0.16153 0.80322,0.14334 0.27482,-0.0182 0.54362,-0.0859 0.81084,-0.15265 0.26722,-0.0667 0.53656,-0.13292 0.81157,-0.14792 0.27501,-0.015 0.55903,0.0242 0.80017,0.15723 0.16915,0.0934 0.31143,0.22948 0.43413,0.37871 0.1227,0.14922 0.22733,0.31223 0.33572,0.47215 0.10839,0.15992 0.22154,0.31798 0.35863,0.45411 0.13709,0.13612 0.30003,0.25033 0.48443,0.30794 0.2587,0.0808 0.53766,0.0455 0.80594,0.007 0.26829,-0.0384 0.54558,-0.0788 0.80696,-0.007 0.18641,0.0511 0.35441,0.15743 0.49744,0.28745 0.14303,0.13001 0.26267,0.28355 0.37452,0.4412 0.22368,0.31529 0.42703,0.65863 0.74094,0.88425 0.22419,0.16113 0.49382,0.25214 0.7675,0.28857 0.27368,0.0364 0.55213,0.0202 0.82544,-0.0189 0.54663,-0.0781 1.08115,-0.24706 1.63287,-0.26967 0.85358,-0.035 1.71595,0.30171 2.32003,0.90578 0.60407,0.60408 0.94076,1.46645 0.90578,2.32003 -0.0794,0.43905 0.0689,0.91302 0.38439,1.22851 0.31549,0.31549 0.78946,0.46379 1.22851,0.38439 0.28554,-0.0516 0.54895,-0.19146 0.8337,-0.24724 0.14238,-0.0279 0.29127,-0.0341 0.43152,0.003 0.14025,0.0371 0.27142,0.12076 0.34768,0.24419 0.0733,0.11861 0.0912,0.2647 0.0777,0.40346 -0.0136,0.13877 -0.0564,0.27273 -0.0974,0.40601 -0.0409,0.13328 -0.0805,0.26864 -0.0872,0.4079 -0.007,0.13927 0.0223,0.2847 0.10693,0.39553 0.0861,0.11273 0.2227,0.17967 0.36272,0.20221 0.14002,0.0225 0.28377,0.004 0.42167,-0.0289 0.13791,-0.0331 0.27186,-0.0808 0.40867,-0.11816 0.1368,-0.0374 0.27834,-0.0645 0.41985,-0.0551 0.19625,0.013 0.38354,0.0967 0.54048,0.21527 0.15694,0.11855 0.28558,0.27083 0.39837,0.43197 0.22556,0.32227 0.39559,0.68782 0.67405,0.96567 0.2786,0.278 0.64477,0.44727 0.96733,0.67277 0.16129,0.11275 0.31364,0.24153 0.43198,0.39876 0.11834,0.15723 0.20152,0.34495 0.21359,0.54137 0.009,0.14188 -0.0195,0.28358 -0.0578,0.42047 -0.0383,0.13688 -0.0869,0.27088 -0.12042,0.40901 -0.0335,0.13813 -0.0519,0.28234 -0.0285,0.42256 0.0234,0.14021 0.0921,0.27673 0.20672,0.36086 0.11268,0.0827 0.2594,0.10813 0.39883,0.0979 0.13943,-0.0102 0.27414,-0.053 0.40727,-0.0957 0.13312,-0.0427 0.26767,-0.0859 0.40704,-0.0968 0.13937,-0.011 0.28617,0.0131 0.39977,0.0946 0.11575,0.083 0.18643,0.21891 0.21145,0.35914 0.025,0.14022 0.008,0.28499 -0.0249,0.42358 -0.0659,0.27716 -0.19595,0.54546 -0.18659,0.83019 0.007,0.21227 0.0959,0.42125 0.24592,0.57163 0.14998,0.15039 0.35974,0.2401 0.57211,0.24216 0.21238,0.002 0.42471,-0.0842 0.57371,-0.23556 0.149,-0.15136 0.23205,-0.36612 0.22116,-0.57823 -0.0101,-0.19635 -0.0974,-0.38339 -0.22026,-0.53685 -0.12291,-0.15346 -0.28012,-0.27606 -0.44437,-0.38412 -0.32851,-0.21613 -0.69959,-0.38734 -0.94827,-0.69194 -0.18405,-0.22544 -0.28739,-0.51542 -0.28739,-0.80645 0,-0.29103 0.10334,-0.58101 0.28739,-0.80645"
       id="path4247"
       inkscape:path-effect="#path-effect4249"
       inkscape:original-d="m 591.93548,407.20092 c -3.99458,-6.86908 -3.2258,-6.53383 -3.2258,-12.90323 0,-0.53763 0.24043,-1.13203 0,-1.6129 -0.34003,-0.68006 -1.27288,-0.93285 -1.61291,-1.6129 -0.21205,-0.4241 0,-5.6082 0,-6.45162 0,-0.6376 0.34443,-7.37567 0,-8.06451 -0.34003,-0.68006 -1.27287,-0.93285 -1.6129,-1.61291 -0.24044,-0.48087 0,-1.07526 0,-1.6129 0,-3.22581 0,-6.45161 0,-9.67742 0,-0.53763 -0.38016,-1.23274 0,-1.6129 0.38017,-0.38017 1.23274,0.38016 1.6129,0 0.38812,-0.38812 -0.38811,-6.0635 0,-6.45162 0.38017,-0.38016 1.23274,0.38017 1.61291,0 0.80645,-0.80645 -0.80645,-4.03225 0,-4.83871 0.38016,-0.38016 1.23274,0.38017 1.6129,0 0.38017,-0.38016 -0.38016,-1.23273 0,-1.6129 0.38017,-0.38016 1.23274,0.38017 1.6129,0 0.38017,-0.38016 -0.38016,-1.23274 0,-1.6129 0.38017,-0.38017 1.23274,0.38016 1.61291,0 0.38016,-0.38017 -0.38017,-1.23274 0,-1.61291 0.76033,-0.76033 2.46547,0.76033 3.2258,0 0.38017,-0.38016 -0.38016,-1.23273 0,-1.6129 0.76033,-0.76033 2.26406,0.48088 3.22581,0 0.68006,-0.34003 0.93284,-1.27287 1.6129,-1.6129 1.29033,-0.64516 3.54839,0.64516 4.83871,0 0.68006,-0.34003 0.93285,-1.27288 1.61291,-1.6129 0.49086,-0.24544 4.11232,0 4.83871,0 4.30107,0 8.60215,0 12.90322,0 0.72638,0 4.34785,-0.24544 4.83871,0 0.68006,0.34002 0.93284,1.27287 1.6129,1.6129 0.48088,0.24044 1.23274,-0.38017 1.61291,0 0.38016,0.38016 -0.38017,1.23274 0,1.6129 0.76033,0.76033 2.46547,-0.76033 3.2258,0 0.38017,0.38017 -0.38016,1.23274 0,1.6129 0.38017,0.38017 1.13203,-0.24043 1.61291,0 0.89618,0.4481 2.70574,3.22581 3.2258,3.22581 0.53764,0 -0.24043,-1.13203 0,-1.6129 0.34003,-0.68006 1.27288,-0.93285 1.61291,-1.61291 0.24043,-0.48087 -0.24044,-1.13202 0,-1.6129 0.68006,-1.36012 2.54574,-1.86569 3.2258,-3.2258 0.24044,-0.48088 -0.38016,-1.23274 0,-1.61291 0.38017,-0.38016 1.23274,0.38017 1.61291,0 0.38016,-0.38016 -0.38017,-1.23274 0,-1.6129 0.38016,-0.38017 1.23274,0.38016 1.6129,0 0.38016,-0.38017 -0.38016,-1.23274 0,-1.6129 0.38016,-0.38017 1.13203,0.24043 1.6129,0 0.68006,-0.34003 0.93285,-1.27288 1.61291,-1.61291 1.29032,-0.64516 3.54838,0.64516 4.83871,0 0.68006,-0.34003 0.93284,-1.27287 1.6129,-1.6129 0.48087,-0.24044 1.07527,0 1.6129,0 1.07527,0 2.15054,0 3.22581,0 2.68817,0 5.37634,0 8.06452,0 0.53763,0 1.07526,0 1.6129,0 0.53763,0 1.13203,0.24044 1.6129,0 0.68006,-0.34003 0.93285,-1.27287 1.6129,-1.6129 0.48088,-0.24044 1.07527,0 1.61291,0 1.07527,0 2.15054,0 3.2258,0 2.68818,0 5.37635,0 8.06452,0 0.84342,0 6.02751,-0.21205 6.45161,0 0.68006,0.34003 0.89159,1.37246 1.61291,1.6129 1.53013,0.51004 3.2258,0 4.83871,0 4.30107,0 8.60215,0 12.90322,0 0.72639,0 4.34785,-0.24543 4.83871,0 0.68006,0.34003 0.93285,1.27287 1.61291,1.6129 0.6395,0.31975 4.50897,-0.32973 4.8387,0 0.38017,0.38017 -0.38016,1.23274 0,1.61291 0.38017,0.38016 1.07527,0 1.61291,0 0,0.53763 -0.38017,1.23273 0,1.6129 0.38016,0.38016 1.23274,-0.38017 1.6129,0 0.38017,0.38016 -0.38016,1.23274 0,1.6129 0.38017,0.38017 1.23274,-0.38016 1.6129,0 0.38017,0.38017 -0.38016,1.23274 0,1.61291 0.38017,0.38016 1.23274,-0.38017 1.61291,0 0.38016,0.38016 -0.38017,1.23273 0,1.6129 0.38016,0.38016 1.23274,-0.38017 1.6129,0 0.38017,0.38016 0.53764,1.6129 0,1.6129 -0.53763,0 -0.24044,-1.13203 0,-1.6129 0.34003,-0.68006 1.27287,-0.93285 1.6129,-1.6129 2.37324,-4.74647 -3.73642,2.12352 1.61291,-3.22581 0.53763,-0.53764 1.07527,-1.07527 1.6129,-1.6129 0.53764,-0.53764 1.27287,-0.93285 1.6129,-1.61291 0.24044,-0.48087 -0.38016,-1.23274 0,-1.6129 0.38017,-0.38017 1.13203,0.24044 1.61291,0 0.42824,-0.21412 4.62459,-4.41047 4.83871,-4.83871 0.24043,-0.48088 -0.38017,-1.23274 0,-1.6129 0.38016,-0.38017 1.13203,0.24043 1.6129,0 1.36012,-0.68006 1.86569,-2.54575 3.22581,-3.22581 4.74646,-2.37323 -2.12352,3.73642 3.2258,-1.6129 3.78255,-3.78255 -1.14049,0.38016 4.83871,-1.61291 0.72131,-0.24043 0.89159,-1.37246 1.61291,-1.6129 1.02009,-0.34003 2.18264,0.26079 3.2258,0 1.1663,-0.29157 2.15054,-1.07527 3.22581,-1.6129 1.6129,0 3.25713,0.31631 4.83871,0 1.17884,-0.23577 2.04696,-1.37714 3.2258,-1.61291 1.58159,-0.31631 3.25713,0.31632 4.83871,0 1.17885,-0.23576 2.04697,-1.37713 3.22581,-1.6129 1.70321,-0.34064 8.95775,0 11.29032,0 1.61291,0 3.25713,0.31632 4.83871,0 5.91845,-1.18369 0.34655,-3.1565 8.06452,-1.6129 1.17884,0.23577 2.04696,1.37713 3.22581,1.6129 2.63597,0.52719 5.4566,-0.65198 8.06451,0 1.16629,0.29157 2.05952,1.32133 3.22581,1.6129 1.04316,0.26079 2.18264,-0.26079 3.2258,0 1.1663,0.29158 2.08532,1.23274 3.22581,1.61291 0.51005,0.17001 1.10286,-0.17002 1.6129,0 1.1405,0.38016 2.08532,1.23274 3.22581,1.6129 0.51005,0.17001 1.13203,-0.24044 1.6129,0 0.68006,0.34003 0.8916,1.37247 1.61291,1.6129 1.02009,0.34003 2.20571,-0.34003 3.2258,0 0.72132,0.24044 0.93285,1.27288 1.61291,1.61291 0.48087,0.24043 1.13203,-0.24044 1.6129,0 0.68006,0.34003 0.89159,1.37246 1.6129,1.6129 1.02009,0.34003 2.20572,-0.34003 3.22581,0 1.44262,0.48087 1.86569,2.54575 3.22581,3.22581 4.30107,0 -0.53764,-0.53764 1.6129,1.6129 0.38016,0.38016 1.23274,-0.38017 1.6129,0 0.38017,0.38016 -0.38016,1.23274 0,1.6129 0.38017,0.38017 1.13203,-0.24043 1.61291,0 0.68006,0.34003 1.07526,1.07527 1.6129,1.61291 0.53763,0.53763 1.27287,0.93284 1.6129,1.6129 0.24044,0.48087 -0.38016,1.23274 0,1.6129 0.38017,0.38017 1.23274,-0.38016 1.61291,0 0.38016,0.38017 -0.38017,1.23274 0,1.61291 0.38016,0.38016 1.6129,0.53763 1.6129,0 0,-0.76033 -1.6129,-0.85258 -1.6129,-1.61291 0,-1.99307 3.78254,-1.6129 0,-1.6129"
       inkscape:connector-curvature="0" />
    <path
       style="fill:none;fill-rule:evenodd;stroke:#000000;stroke-width:1px;stroke-linecap:butt;stroke-linejoin:miter;stroke-opacity:1"
       d="m 666.12903,408.81382 c 2.50494,1.20734 5.55958,1.20734 8.06452,0 0.26755,-0.12896 0.53591,-0.27298 0.83048,-0.31093 0.14729,-0.019 0.29978,-0.0101 0.43953,0.0401 0.13975,0.0502 0.26603,0.14372 0.34289,0.27079 0.0711,0.11758 0.0973,0.25811 0.0956,0.39551 -0.002,0.1374 -0.0298,0.27301 -0.0607,0.4069 -0.0309,0.1339 -0.0648,0.26766 -0.0784,0.40439 -0.0136,0.13673 -0.006,0.27798 0.0435,0.4061 0.0531,0.13684 0.15317,0.25334 0.27515,0.33495 0.12198,0.0816 0.26504,0.12926 0.41069,0.14734 0.29129,0.0362 0.58497,-0.0433 0.85829,-0.15038 0.27332,-0.10705 0.53609,-0.24252 0.81739,-0.32637 0.2813,-0.0839 0.59109,-0.11288 0.86429,-0.006 0.18014,0.0708 0.33424,0.19702 0.46277,0.34173 0.12852,0.14471 0.23363,0.30833 0.33874,0.47085 0.10511,0.16252 0.21141,0.3255 0.34192,0.46842 0.1305,0.14293 0.28744,0.26613 0.46947,0.33191 0.25497,0.0921 0.53598,0.0653 0.8045,0.0279 0.26852,-0.0374 0.54314,-0.0839 0.8084,-0.0279 0.19039,0.0402 0.36743,0.13235 0.52142,0.2513 0.15399,0.11895 0.28597,0.26426 0.40492,0.41825 0.23791,0.30797 0.42702,0.65338 0.68657,0.94335 0.46953,0.52455 1.1471,0.8343 1.84178,0.94845 0.69467,0.11415 1.40829,0.0452 2.09789,-0.0965 1.37919,-0.2833 2.71686,-0.85711 4.12484,-0.85198 1.10774,0.004 2.17897,0.36765 3.27217,0.54654 0.54661,0.0894 1.10533,0.13267 1.65453,0.0609 0.5492,-0.0718 1.09068,-0.26364 1.52492,-0.60745 0.61565,-0.48744 0.96351,-1.22668 1.39487,-1.88284 0.21568,-0.32808 0.45905,-0.64288 0.76357,-0.89071 0.30453,-0.24782 0.6756,-0.42622 1.06736,-0.45226 0.27097,-0.018 0.54073,0.0364 0.81046,0.0679 0.26974,0.0316 0.55263,0.0386 0.80245,-0.0679 0.1782,-0.076 0.32912,-0.20592 0.45512,-0.35306 0.126,-0.14715 0.22922,-0.31205 0.33394,-0.47502 0.10472,-0.16298 0.21216,-0.32562 0.34516,-0.46647 0.133,-0.14084 0.29395,-0.26004 0.47868,-0.31835 0.25894,-0.0817 0.53865,-0.0382 0.80681,0.004 0.26815,0.0427 0.54904,0.083 0.80609,-0.004 0.18379,-0.0626 0.3415,-0.18703 0.47065,-0.33199 0.12914,-0.14495 0.23234,-0.31073 0.33496,-0.47553 0.10262,-0.1648 0.20602,-0.33047 0.33552,-0.47511 0.12949,-0.14465 0.2877,-0.2686 0.47178,-0.33027 0.25753,-0.0863 0.53825,-0.0442 0.80638,-8.8e-4 0.26813,0.0433 0.54861,0.086 0.80652,8.8e-4 0.18426,-0.0608 0.3431,-0.18374 0.47336,-0.32757 0.13025,-0.14383 0.23449,-0.30888 0.33752,-0.47331 0.10303,-0.16443 0.20618,-0.33004 0.33462,-0.47549 0.12845,-0.14544 0.28471,-0.27113 0.4674,-0.33654 0.25544,-0.0915 0.5368,-0.0582 0.80511,-0.0179 0.26831,0.0404 0.54524,0.0863 0.8078,0.0179 0.18719,-0.0488 0.3563,-0.15404 0.49991,-0.28364 0.14361,-0.1296 0.26338,-0.28332 0.37498,-0.44133 0.22318,-0.31603 0.42466,-0.661 0.73801,-0.88793 0.23266,-0.16849 0.51919,-0.26134 0.80645,-0.26134 0.28726,0 0.57379,0.0928 0.80645,0.26134 -0.0698,-0.43752 0.0817,-0.90467 0.39496,-1.21795 0.31328,-0.31329 0.78043,-0.46477 1.21795,-0.39495 0.28383,0.0453 0.54786,0.17623 0.83033,0.22937 0.14124,0.0266 0.28825,0.0331 0.42789,-8.2e-4 0.13964,-0.034 0.27171,-0.1112 0.35468,-0.22855 0.0799,-0.11296 0.10962,-0.25547 0.10701,-0.39379 -0.003,-0.13833 -0.0354,-0.27417 -0.071,-0.40786 -0.0356,-0.13369 -0.0743,-0.26732 -0.0894,-0.40485 -0.015,-0.13753 -0.005,-0.28098 0.0533,-0.40641 0.0635,-0.1364 0.18192,-0.24368 0.31879,-0.30614 0.13686,-0.0625 0.29105,-0.0819 0.44098,-0.0696 0.29987,0.0247 0.57471,0.17052 0.83692,0.3181 0.26221,0.14757 0.52942,0.30278 0.82665,0.34951 0.14862,0.0234 0.30327,0.0182 0.4462,-0.0288 0.14292,-0.047 0.27345,-0.13755 0.35627,-0.26315 0.0756,-0.11467 0.1089,-0.25343 0.11375,-0.39071 0.005,-0.13727 -0.0173,-0.27407 -0.0452,-0.40858 -0.0278,-0.13451 -0.0614,-0.26804 -0.0799,-0.40415 -0.0185,-0.13611 -0.0216,-0.2761 0.0114,-0.40946 0.0385,-0.15603 0.12586,-0.29803 0.23974,-0.41142 0.11389,-0.1134 0.25363,-0.19898 0.40226,-0.26013 0.29725,-0.12231 0.62419,-0.14744 0.94499,-0.16743 0.32081,-0.02 0.64715,-0.0374 0.9497,-0.14588 0.15128,-0.0543 0.2954,-0.13151 0.41683,-0.23679 0.12142,-0.10529 0.2196,-0.23942 0.27228,-0.39125 0.0446,-0.12846 0.0559,-0.26656 0.0498,-0.40239 -0.006,-0.13584 -0.0293,-0.27025 -0.0523,-0.40428 -0.0229,-0.13402 -0.0457,-0.26853 -0.051,-0.4044 -0.005,-0.13587 0.007,-0.27394 0.0535,-0.40184 0.0549,-0.15202 0.15606,-0.28528 0.28031,-0.38864 0.12424,-0.10336 0.27098,-0.17769 0.42434,-0.2287 0.30671,-0.10203 0.63514,-0.11177 0.95799,-0.12764 0.32285,-0.0159 0.65268,-0.0405 0.94934,-0.16887 0.14832,-0.0642 0.28665,-0.15446 0.39635,-0.27315 0.10969,-0.11869 0.18985,-0.26666 0.21748,-0.4259 0.0239,-0.13776 0.008,-0.27964 -0.0211,-0.41631 -0.0295,-0.13666 -0.0729,-0.26995 -0.10564,-0.40589 -0.0327,-0.13593 -0.0549,-0.27633 -0.0408,-0.41544 0.0141,-0.1391 0.0673,-0.27778 0.1675,-0.37526 0.1,-0.0972 0.23951,-0.14651 0.37851,-0.15762 0.13901,-0.0111 0.27852,0.0132 0.41388,0.0467 0.13537,0.0335 0.26849,0.0763 0.40529,0.10342 0.13679,0.0271 0.27916,0.0381 0.41522,0.008 0.1915,-0.043 0.35749,-0.16605 0.48625,-0.31419 0.12875,-0.14814 0.22457,-0.32143 0.31948,-0.49322 0.0949,-0.1718 0.19093,-0.345 0.31999,-0.49287 0.12906,-0.14787 0.2955,-0.27041 0.48718,-0.31262 0.13636,-0.03 0.27887,-0.0182 0.4157,0.01 0.13684,0.0278 0.26995,0.0712 0.40542,0.10505 0.13547,0.0338 0.27524,0.0581 0.41438,0.0464 0.13913,-0.0117 0.27865,-0.0623 0.37741,-0.16098 0.0988,-0.0987 0.14942,-0.23821 0.16118,-0.37735 0.0118,-0.13914 -0.0125,-0.27892 -0.0463,-0.4144 -0.0338,-0.13548 -0.0773,-0.2686 -0.1051,-0.40543 -0.0278,-0.13684 -0.0397,-0.27933 -0.01,-0.41573 0.042,-0.19168 0.16425,-0.35826 0.31189,-0.48754 0.14764,-0.12927 0.32066,-0.22553 0.49234,-0.32057 0.17169,-0.095 0.3449,-0.19086 0.49316,-0.31941 0.14827,-0.12855 0.27164,-0.29411 0.31551,-0.48538 0.0311,-0.13571 0.021,-0.2779 -0.005,-0.41464 -0.0262,-0.13674 -0.0683,-0.26988 -0.10136,-0.40513 -0.0331,-0.13525 -0.0573,-0.27445 -0.0469,-0.41329 0.0104,-0.13885 0.0581,-0.27839 0.15348,-0.37984 0.096,-0.1021 0.2336,-0.15843 0.37268,-0.17548 0.13908,-0.017 0.28028,0.002 0.41683,0.0338 0.13655,0.0314 0.27014,0.0747 0.40664,0.10636 0.1365,0.0317 0.27758,0.0516 0.41675,0.0353 0.19545,-0.0229 0.38133,-0.11973 0.51212,-0.26676 0.1308,-0.14702 0.20532,-0.34291 0.20532,-0.5397 0,-0.19678 -0.0745,-0.39267 -0.20532,-0.53969 -0.13079,-0.14703 -0.31667,-0.24385 -0.51212,-0.26676 -0.22681,-0.0266 -0.46361,0.048 -0.63423,0.1998 -0.17062,0.15179 -0.27228,0.37829 -0.27228,0.60665 0,0.22837 0.10166,0.45487 0.27228,0.60666 0.17062,0.15179 0.40742,0.22639 0.63423,0.1998 0.0114,0.41904 0.18874,0.83133 0.48516,1.12775 0.29642,0.29642 0.70871,0.47378 1.12775,0.48515 0.27211,0.007 0.54098,-0.0521 0.81137,-0.0835 0.27039,-0.0314 0.55531,-0.0326 0.80153,0.0835 0.17643,0.0832 0.32173,0.22184 0.44137,0.3759 0.11963,0.15405 0.2161,0.32447 0.31777,0.49093 0.10167,0.16646 0.21008,0.33094 0.34925,0.46761 0.13916,0.13668 0.31234,0.24503 0.50451,0.27846 0.13762,0.0239 0.27937,0.009 0.41599,-0.0203 0.13663,-0.0291 0.26993,-0.072 0.4058,-0.10442 0.13587,-0.0324 0.2761,-0.0544 0.41511,-0.0406 0.13901,0.0138 0.27766,0.0661 0.37601,0.16532 0.0983,0.0991 0.14942,0.23802 0.16229,0.377 0.0129,0.13897 -0.01,0.27893 -0.0424,0.41462 -0.0327,0.1357 -0.0754,0.26894 -0.10374,0.4056 -0.0284,0.13666 -0.0421,0.27856 -0.0161,0.41569 0.0443,0.23394 0.20538,0.43764 0.41117,0.55741 0.20578,0.11977 0.45211,0.15995 0.68923,0.13827 0.47422,-0.0434 0.89247,-0.31688 1.28195,-0.59089 0.38947,-0.27402 0.79004,-0.56453 1.25837,-0.6508 0.23417,-0.0431 0.48189,-0.0314 0.70206,0.0593 0.22017,0.0907 0.41001,0.26466 0.49593,0.48672 0.0491,0.12688 0.0637,0.26506 0.0593,0.40104 -0.004,0.13598 -0.0271,0.27063 -0.0506,0.40465 -0.0234,0.13401 -0.0476,0.26831 -0.055,0.40417 -0.007,0.13585 0.003,0.27414 0.0462,0.40304 0.0693,0.20519 0.2221,0.37682 0.40715,0.48935 0.18505,0.11253 0.40075,0.16885 0.61684,0.18342 0.43217,0.0291 0.8583,-0.0986 1.27029,-0.23242 0.41198,-0.13376 0.82396,-0.27281 1.25011,-0.35039 0.42616,-0.0776 0.86116,-0.09 1.29432,-0.09 l 14.51613,0 c 1.10191,0 2.19854,0.13029 3.28058,0.33855 0.54102,0.10414 1.088,0.20411 1.63871,0.18768 0.55071,-0.0164 1.11762,-0.1635 1.53232,-0.52623 0.29145,-0.25493 0.48831,-0.5977 0.71832,-0.9092 0.115,-0.15575 0.24001,-0.30551 0.38763,-0.43077 0.14763,-0.12525 0.31919,-0.22572 0.50695,-0.27293 0.26274,-0.0661 0.53894,-0.0252 0.80728,0.012 0.26835,0.0372 0.5473,0.0696 0.80562,-0.012 0.18413,-0.0582 0.34705,-0.17194 0.4846,-0.30746 0.13756,-0.13553 0.25156,-0.29284 0.36061,-0.4522 0.10904,-0.15937 0.21408,-0.32195 0.33648,-0.47131 0.12239,-0.14936 0.26353,-0.2862 0.43122,-0.38194 0.23858,-0.13622 0.52023,-0.18261 0.79486,-0.17508 0.27462,0.008 0.54505,0.0662 0.81262,0.12854 0.26757,0.0623 0.5355,0.12873 0.80923,0.15218 0.27373,0.0234 0.55635,0.002 0.80909,-0.10564 0.35304,-0.15042 0.61603,-0.45295 0.84848,-0.7583 0.23244,-0.30534 0.45358,-0.62957 0.76443,-0.8546 0.22542,-0.16319 0.49061,-0.26732 0.76375,-0.32064 0.27313,-0.0533 0.55438,-0.0569 0.83141,-0.0306 0.55408,0.0527 1.08897,0.22328 1.63064,0.35121 0.26603,0.0628 0.53581,0.11568 0.80896,0.12622 0.27316,0.0105 0.55104,-0.0225 0.80395,-0.12622 0.35556,-0.14581 0.64193,-0.42183 0.88756,-0.71738 0.24563,-0.29555 0.46038,-0.61717 0.72534,-0.89552 0.62184,-0.65325 1.51746,-1.03721 2.41936,-1.03721 0.90189,0 1.79751,0.38396 2.41935,1.03721 -0.25902,-0.17998 -0.42167,-0.49105 -0.42167,-0.80646 0,-0.3154 0.16265,-0.62647 0.42167,-0.80645 0.22755,-0.15811 0.51428,-0.21328 0.7912,-0.20349 0.27692,0.01 0.54781,0.08 0.81485,0.15398 0.26704,0.074 0.53477,0.15239 0.81055,0.17928 0.27579,0.0269 0.56389,-9.4e-4 0.80921,-0.12977 0.17123,-0.0899 0.31501,-0.22538 0.4379,-0.37473 0.12288,-0.14935 0.22654,-0.31331 0.33377,-0.47427 0.10722,-0.16096 0.21909,-0.32027 0.35575,-0.45712 0.13667,-0.13686 0.30021,-0.25126 0.48548,-0.30678 0.25994,-0.0779 0.53873,-0.0351 0.80693,0.006 0.2682,0.0413 0.54855,0.0797 0.80597,-0.006 0.1838,-0.0613 0.3429,-0.18286 0.47429,-0.32526 0.1314,-0.14241 0.23748,-0.30591 0.34177,-0.46921 0.10429,-0.1633 0.20803,-0.32804 0.33555,-0.47393 0.12751,-0.14588 0.28106,-0.2734 0.4613,-0.3445 0.25232,-0.0995 0.53445,-0.0814 0.80342,-0.0463 0.26896,0.0351 0.54112,0.0857 0.80948,0.0463 0.39285,-0.0577 0.73737,-0.30586 0.99194,-0.61058 0.25457,-0.30471 0.43142,-0.66528 0.60759,-1.02112 0.17617,-0.35584 0.35693,-0.71501 0.6176,-1.01453 0.26066,-0.29952 0.61382,-0.53777 1.00868,-0.57958 0.30076,-0.0318 0.6025,0.0512 0.88295,0.16443 0.28046,0.11322 0.54836,0.25726 0.83402,0.35663 0.28565,0.0994 0.59798,0.1526 0.89085,0.0771 0.14643,-0.0378 0.28558,-0.108 0.39647,-0.21082 0.11089,-0.10282 0.19246,-0.23892 0.22151,-0.38733 0.0273,-0.13933 0.008,-0.28399 -0.027,-0.42153 -0.0352,-0.13754 -0.0864,-0.2705 -0.12474,-0.4072 -0.0384,-0.13669 -0.064,-0.27965 -0.0463,-0.42053 0.009,-0.0704 0.0286,-0.13981 0.0614,-0.20273 0.0329,-0.0629 0.0791,-0.11926 0.1366,-0.16091 0.0574,-0.0416 0.12511,-0.0679 0.19483,-0.0806 0.0697,-0.0127 0.14148,-0.012 0.21174,-0.003 0.1405,0.0187 0.27384,0.0714 0.40679,0.12058 0.13294,0.0492 0.26948,0.0957 0.41112,0.1012 0.0708,0.003 0.14243,-0.005 0.20969,-0.0274 0.0673,-0.0223 0.1301,-0.0596 0.17874,-0.11112 0.0488,-0.0517 0.0824,-0.11685 0.10097,-0.18551 0.0186,-0.0687 0.0224,-0.1408 0.0161,-0.21164 -0.0125,-0.14169 -0.0645,-0.2765 -0.11599,-0.40909 -0.0515,-0.13258 -0.10365,-0.26729 -0.11657,-0.40894 -0.006,-0.0708 -0.003,-0.14298 0.0154,-0.21171 0.0183,-0.0687 0.0515,-0.13402 0.10005,-0.18602 0.0483,-0.0518 0.11087,-0.0894 0.17795,-0.11219 0.0671,-0.0228 0.13859,-0.0311 0.20939,-0.0288 0.1416,0.005 0.27837,0.0502 0.4114,0.099 0.13303,0.0487 0.26623,0.10136 0.40656,0.12078 0.0702,0.01 0.14185,0.0109 0.21168,-9.9e-4 0.0698,-0.0119 0.13782,-0.0373 0.19592,-0.0778 0.0584,-0.0407 0.1059,-0.0962 0.14026,-0.15854 0.0344,-0.0623 0.0557,-0.13142 0.0662,-0.20184 0.0208,-0.14083 -0.002,-0.28479 -0.0389,-0.42227 -0.037,-0.13748 -0.088,-0.27084 -0.12548,-0.40818 -0.0375,-0.13734 -0.0613,-0.28101 -0.0421,-0.42207 0.022,-0.16186 0.10096,-0.31347 0.21161,-0.43364 0.11064,-0.12017 0.25191,-0.2099 0.40314,-0.27164 0.30247,-0.12348 0.63719,-0.13603 0.96384,-0.14212 0.32665,-0.006 0.65999,-0.008 0.96921,-0.11388 0.15462,-0.0527 0.30167,-0.13154 0.4225,-0.24148 0.12082,-0.10993 0.21458,-0.252 0.25551,-0.41014 0.0345,-0.13334 0.031,-0.27399 0.0113,-0.4103 -0.0197,-0.13631 -0.0554,-0.26973 -0.0848,-0.40428 -0.0294,-0.13455 -0.0528,-0.27168 -0.0475,-0.40931 0.005,-0.13763 0.0411,-0.27683 0.12099,-0.38902 0.0842,-0.11822 0.21363,-0.20016 0.35287,-0.24111 0.13923,-0.0409 0.28786,-0.0429 0.43144,-0.0217 0.28714,0.0424 0.55234,0.1737 0.82859,0.26277 0.72829,0.23482 1.56231,0.15984 2.20873,-0.24967 0.3232,-0.20475 0.5967,-0.48902 0.78226,-0.82362 0.18555,-0.3346 0.28202,-0.71916 0.26887,-1.10154 -0.0132,-0.38238 -0.13685,-0.76134 -0.35794,-1.0736 -0.22109,-0.31226 -0.53954,-0.55588 -0.90125,-0.6806 -0.36171,-0.12471 -0.7651,-0.12867 -1.12686,-0.004 -0.36176,0.12457 -0.67889,0.3781 -0.87381,0.70733 -0.1437,0.24271 -0.22083,0.52439 -0.22083,0.80645 0,0.28206 0.0771,0.56374 0.22083,0.80645 -0.0595,0.43571 0.0954,0.89556 0.40638,1.20652 0.31096,0.31095 0.77081,0.46584 1.20652,0.40638 0.2821,-0.0385 0.54679,-0.16 0.82702,-0.21031 0.14011,-0.0251 0.28526,-0.0321 0.42427,-0.001 0.13902,0.0307 0.2719,0.10123 0.36162,0.21176 0.0872,0.10742 0.12908,0.24644 0.13768,0.38453 0.009,0.13809 -0.0141,0.27628 -0.0445,0.41126 -0.0304,0.13497 -0.0686,0.2683 -0.0919,0.40468 -0.0233,0.13638 -0.0314,0.27739 -0.001,0.41244 0.0352,0.15813 0.12233,0.30249 0.23738,0.41654 0.11504,0.11406 0.25719,0.19872 0.40811,0.25762 0.30183,0.1178 0.63239,0.13342 0.95615,0.14606 0.32375,0.0126 0.65396,0.0249 0.95804,0.13675 0.15205,0.0559 0.29609,0.13699 0.41445,0.2476 0.11836,0.11062 0.21027,0.25171 0.25167,0.40833 0.0351,0.13276 0.0334,0.27288 0.0157,0.40905 -0.0178,0.13617 -0.0512,0.2697 -0.0794,0.40411 -0.0281,0.13441 -0.051,0.27102 -0.0471,0.40828 0.004,0.13726 0.0361,0.27622 0.11075,0.39146 0.0817,0.12608 0.2113,0.2176 0.35364,0.26565 0.14235,0.048 0.29675,0.0544 0.44533,0.0321 0.29714,-0.0446 0.56493,-0.19808 0.82711,-0.34485 0.26218,-0.14678 0.53618,-0.29261 0.83547,-0.3192 0.14964,-0.0133 0.30367,0.005 0.4411,0.0654 0.13742,0.0607 0.25721,0.16589 0.32316,0.30087 0.0606,0.12397 0.0738,0.26674 0.0615,0.40418 -0.0122,0.13743 -0.0486,0.27141 -0.0829,0.40503 -0.0344,0.13363 -0.0672,0.26887 -0.072,0.40676 -0.005,0.1379 0.02,0.28014 0.0935,0.39694 0.0779,0.1239 0.20662,0.2113 0.34642,0.25464 0.1398,0.0433 0.29013,0.045 0.43469,0.0221 0.28914,-0.0457 0.55373,-0.18525 0.83179,-0.27675 0.52558,-0.17295 1.09491,-0.17182 1.64243,-0.0919 0.54751,0.0799 1.08052,0.23575 1.61773,0.36823 0.53722,0.13249 1.08597,0.24241 1.63907,0.22742 0.55311,-0.015 1.11588,-0.16367 1.55238,-0.5037 0.30186,-0.23514 0.53013,-0.54931 0.76927,-0.84801 0.23915,-0.2987 0.50188,-0.59282 0.84364,-0.7649 0.24339,-0.12255 0.51691,-0.17717 0.78919,-0.18821 0.27228,-0.011 0.54456,0.0202 0.81385,0.0619 0.53859,0.0834 1.08412,0.20941 1.62276,0.1263 0.59865,-0.0924 1.12594,-0.4333 1.62592,-0.77525 0.49998,-0.34195 1.00984,-0.70071 1.59989,-0.83765 0.40224,-0.0933 0.82287,-0.078 1.23133,-0.0174 0.40847,0.0606 0.80886,0.16539 1.2129,0.25062 0.40404,0.0852 0.81579,0.15119 1.22829,0.13225 0.4125,-0.0189 0.82872,-0.12747 1.16619,-0.36544 0.31299,-0.2207 0.54139,-0.5382 0.77625,-0.84071 0.23486,-0.30251 0.4925,-0.60418 0.83665,-0.77219 0.24515,-0.11968 0.5218,-0.16421 0.7946,-0.16375 0.2728,4.7e-4 0.54357,0.0443 0.81184,0.0939 0.26826,0.0496 0.53607,0.10501 0.8078,0.12916 0.27173,0.0241 0.54942,0.0162 0.81157,-0.0593 0.37537,-0.10807 0.70163,-0.35052 0.96249,-0.64127 0.26086,-0.29075 0.46181,-0.62957 0.65041,-0.97164 0.19066,-0.34582 0.37265,-0.70066 0.62745,-1.00235 0.25481,-0.30168 0.59516,-0.55051 0.98546,-0.61055 0.26799,-0.0412 0.54037,0.008 0.80926,0.043 0.26888,0.0349 0.55049,0.0541 0.80364,-0.043 0.18067,-0.0693 0.33567,-0.19445 0.46496,-0.33842 0.12928,-0.14398 0.23499,-0.3072 0.34025,-0.46956 0.10527,-0.16236 0.21128,-0.32542 0.34106,-0.46895 0.12977,-0.14353 0.28549,-0.26791 0.46663,-0.33597 0.25379,-0.0954 0.53518,-0.0737 0.80393,-0.0379 0.26875,0.0357 0.54182,0.0841 0.80898,0.0379 0.19829,-0.0342 0.38589,-0.12028 0.54942,-0.23754 0.16353,-0.11725 0.30364,-0.2652 0.42309,-0.42713 0.2389,-0.32388 0.3946,-0.69991 0.55965,-1.06696 0.16505,-0.36706 0.346,-0.73541 0.62351,-1.02689 0.13876,-0.14573 0.30111,-0.27063 0.48368,-0.35526 0.18256,-0.0846 0.38586,-0.12803 0.58645,-0.11203 0.28813,0.023 0.55274,0.16432 0.83476,0.22769 0.14101,0.0317 0.28902,0.0435 0.42974,0.0106 0.14072,-0.0329 0.27381,-0.11451 0.34841,-0.23829 0.0729,-0.12104 0.0843,-0.27094 0.0628,-0.41061 -0.0215,-0.13967 -0.0733,-0.27253 -0.12001,-0.40591 -0.0467,-0.13337 -0.089,-0.27088 -0.0904,-0.41219 -6.7e-4,-0.0707 0.009,-0.14177 0.0331,-0.20825 0.024,-0.0665 0.0624,-0.12821 0.11449,-0.17594 0.0523,-0.0479 0.11739,-0.0808 0.1859,-0.0991 0.0685,-0.0183 0.14036,-0.0223 0.21102,-0.0164 0.14132,0.0118 0.27621,0.062 0.40889,0.11209 0.13268,0.0501 0.26727,0.10089 0.40848,0.11387 0.0706,0.006 0.14248,0.003 0.21121,-0.0141 0.0687,-0.0174 0.1343,-0.0493 0.1874,-0.0963 0.0529,-0.0468 0.0925,-0.10773 0.11774,-0.17367 0.0253,-0.0659 0.0365,-0.1368 0.0373,-0.20741 0.001,-0.14123 -0.0384,-0.27947 -0.0839,-0.41318 -0.0455,-0.13372 -0.0971,-0.26634 -0.12071,-0.40559 -0.0236,-0.13926 -0.0169,-0.28847 0.0496,-0.41306 0.0692,-0.12962 0.19858,-0.22103 0.33936,-0.26311 0.14079,-0.0421 0.29217,-0.0383 0.43641,-0.0102 0.28847,0.0561 0.55127,0.20517 0.83713,0.27334 0.29579,0.0705 0.60994,0.0513 0.90089,-0.0371 0.29094,-0.0884 0.55911,-0.24452 0.79232,-0.43967 0.46643,-0.39029 0.78731,-0.92591 1.0537,-1.47264 0.2664,-0.54673 0.48826,-1.11683 0.80251,-1.63752 0.31426,-0.5207 0.73595,-0.99938 1.28929,-1.25176 0.58511,-0.26687 1.2548,-0.25661 1.88005,-0.40704 0.31262,-0.0752 0.62038,-0.19417 0.87154,-0.39496 0.25115,-0.20078 0.44149,-0.49102 0.47422,-0.8109 0.0281,-0.27429 -0.0583,-0.54538 -0.10806,-0.81658 -0.0249,-0.1356 -0.0407,-0.27402 -0.0283,-0.41132 0.0124,-0.1373 0.0544,-0.27415 0.13632,-0.385 0.0891,-0.12047 0.22222,-0.2049 0.36593,-0.24726 0.1437,-0.0424 0.29746,-0.0443 0.44516,-0.0192 0.2954,0.0502 0.56134,0.20358 0.82409,0.34759 0.26276,0.14402 0.53916,0.28411 0.83817,0.3035 0.14951,0.01 0.30263,-0.0122 0.43805,-0.0763 0.13541,-0.0641 0.25203,-0.17209 0.3144,-0.30831 0.0576,-0.12576 0.0671,-0.2691 0.052,-0.40657 -0.0152,-0.13748 -0.0538,-0.2711 -0.0891,-0.40481 -0.0354,-0.13371 -0.0678,-0.2696 -0.0702,-0.40789 -0.002,-0.13829 0.0276,-0.28067 0.10736,-0.39364 0.0829,-0.11743 0.2149,-0.19493 0.35453,-0.22922 0.13963,-0.0343 0.28672,-0.0281 0.42806,-0.002 0.28268,0.0527 0.54667,0.18371 0.83032,0.23095 0.30098,0.0501 0.61449,0.002 0.89605,-0.11519 0.28156,-0.11759 0.53199,-0.3031 0.74315,-0.52335 0.42233,-0.44051 0.68386,-1.00785 0.91705,-1.57179 0.23319,-0.56395 0.44948,-1.14309 0.8036,-1.64009 0.17706,-0.2485 0.38841,-0.47474 0.63789,-0.65041 0.24948,-0.17568 0.53824,-0.29969 0.84097,-0.33788 0.2678,-0.0338 0.53885,-5.3e-4 0.8076,0.0245 0.26875,0.0251 0.54359,0.0415 0.8053,-0.0245 0.38508,-0.0972 0.70808,-0.3668 0.94944,-0.68221 0.24136,-0.31541 0.41192,-0.6779 0.59046,-1.03266 0.17855,-0.35477 0.37027,-0.70948 0.64467,-0.99661 0.13721,-0.14356 0.29463,-0.26905 0.47091,-0.36049 0.17627,-0.0914 0.37183,-0.14824 0.57033,-0.15383 0.27649,-0.008 0.54511,0.0823 0.81777,0.12872 0.13634,0.0232 0.27568,0.0356 0.41301,0.0192 0.13732,-0.0164 0.27315,-0.0628 0.38212,-0.14796 0.11752,-0.0918 0.19899,-0.22557 0.23956,-0.3691 0.0406,-0.14352 0.0418,-0.29641 0.0168,-0.44345 -0.0499,-0.29408 -0.20001,-0.55988 -0.34066,-0.82293 -0.14065,-0.26306 -0.27692,-0.53945 -0.29504,-0.83719 -0.009,-0.14887 0.0128,-0.30113 0.0759,-0.43628 0.0631,-0.13515 0.16903,-0.25221 0.30344,-0.31686 0.12422,-0.0598 0.26666,-0.0729 0.404,-0.0611 0.13733,0.0118 0.27134,0.0474 0.40498,0.0811 0.13365,0.0337 0.26883,0.066 0.40658,0.0709 0.13775,0.005 0.27972,-0.0191 0.39734,-0.091 0.12562,-0.0768 0.21579,-0.2045 0.26183,-0.34434 0.046,-0.13984 0.0502,-0.29112 0.0285,-0.43673 -0.0434,-0.29123 -0.18528,-0.55676 -0.29033,-0.83183 -0.29031,-0.76019 -0.299,-1.59862 -0.22764,-2.40922 0.0714,-0.8106 0.21888,-1.6158 0.22764,-2.42949 0.0143,-1.32391 -0.36978,-2.68746 -1.25393,-3.67297 -0.44208,-0.49275 -1.00356,-0.88247 -1.63001,-1.0965 -0.62644,-0.21403 -1.31747,-0.24836 -1.95477,-0.0692 -0.27494,0.0773 -0.54069,0.19342 -0.82373,0.23154 -0.14152,0.0191 -0.28706,0.018 -0.42536,-0.0176 -0.1383,-0.0355 -0.26925,-0.10698 -0.36381,-0.21398 -0.0923,-0.10447 -0.14671,-0.23891 -0.16909,-0.37652 -0.0224,-0.13762 -0.0141,-0.27872 0.008,-0.4164 0.044,-0.27535 0.14231,-0.54178 0.16124,-0.81998 0.0269,-0.39509 -0.11352,-0.79395 -0.36013,-1.10379 -0.24661,-0.30984 -0.59425,-0.5325 -0.97069,-0.6554 -0.37645,-0.12291 -0.78071,-0.149 -1.17431,-0.10545 -0.39361,0.0435 -0.77741,0.15529 -1.14535,0.3017 -0.73589,0.29283 -1.40884,0.72221 -2.124,1.06254 -0.71516,0.34032 -1.50366,0.59464 -2.29004,0.5004 -0.45052,-0.054 -0.87949,-0.21998 -1.29617,-0.3996 -0.41668,-0.17962 -0.82914,-0.37517 -1.26712,-0.49372 -0.43799,-0.11855 -0.91009,-0.15649 -1.34239,-0.0186 -0.21614,0.0689 -0.41951,0.18178 -0.58448,0.33752 -0.16497,0.15575 -0.29053,0.35509 -0.34855,0.57442 -0.0691,0.26133 -0.0415,0.53739 -0.01,0.80587 0.0315,0.26847 0.0661,0.5426 0.01,0.80703 -0.0424,0.19978 -0.13645,0.38762 -0.26614,0.54539 -0.12969,0.15777 -0.2945,0.28565 -0.47673,0.37787 -0.36445,0.18444 -0.79196,0.22312 -1.19479,0.15551 -0.40283,-0.0676 -0.78321,-0.23646 -1.13296,-0.44744 -0.34976,-0.21098 -0.67183,-0.46419 -0.99428,-0.71492 -0.32245,-0.25074 -0.64753,-0.50055 -1.00185,-0.70377 -0.35432,-0.20323 -0.74089,-0.35967 -1.14631,-0.40948 -0.40542,-0.0498 -0.83153,0.0127 -1.18301,0.22076 -0.17574,0.10405 -0.33115,0.24356 -0.4483,0.41085 -0.11716,0.16729 -0.19548,0.36249 -0.22014,0.56523 -0.0329,0.27033 0.0288,0.54183 0.0676,0.81137 0.0194,0.13477 0.0332,0.27098 0.0266,0.40698 -0.007,0.136 -0.0342,0.27233 -0.0943,0.39455 -0.1049,0.21362 -0.3059,0.37238 -0.53099,0.44964 -0.2251,0.0773 -0.47216,0.0773 -0.70455,0.026 -0.46478,-0.1026 -0.85973,-0.39673 -1.25104,-0.6677 -0.19565,-0.13548 -0.39495,-0.26736 -0.60964,-0.37005 -0.21469,-0.10269 -0.44625,-0.17586 -0.68393,-0.18795 -0.23768,-0.0121 -0.48215,0.0398 -0.68118,0.17024 -0.19903,0.13047 -0.34802,0.34361 -0.37738,0.57978 -0.0176,0.14115 0.007,0.28442 0.0442,0.42165 0.0374,0.13723 0.0878,0.27069 0.12402,0.40823 0.0362,0.13754 0.0582,0.28143 0.0371,0.42209 -0.0105,0.0703 -0.0319,0.13933 -0.0661,0.20171 -0.0342,0.0624 -0.0813,0.11803 -0.13926,0.15923 -0.11499,0.0817 -0.26483,0.1014 -0.40492,0.0846 -0.14008,-0.0168 -0.27371,-0.0667 -0.40669,-0.11379 -0.13299,-0.0471 -0.26901,-0.0922 -0.40995,-0.0987 -0.0705,-0.003 -0.14174,0.003 -0.20924,0.0239 -0.0675,0.0205 -0.13118,0.0551 -0.1821,0.10397 -0.0509,0.0488 -0.0882,0.1109 -0.11134,0.17747 -0.0232,0.0666 -0.0326,0.1375 -0.0318,0.20799 0.002,0.14096 0.043,0.27824 0.0886,0.41163 0.0456,0.1334 0.096,0.26636 0.11678,0.40579 0.0208,0.13944 0.009,0.28861 -0.0623,0.41002 -0.0737,0.12492 -0.20576,0.20881 -0.34642,0.24422 -0.14066,0.0354 -0.28947,0.026 -0.43131,-0.004 -0.28366,-0.0607 -0.54739,-0.2034 -0.83518,-0.23989 -0.27378,-0.0347 -0.56221,0.034 -0.78175,0.20124 -0.21955,0.16721 -0.3642,0.43389 -0.3694,0.70982 -0.003,0.13796 0.0287,0.27668 0.0922,0.39919 0.0635,0.12251 0.15922,0.22843 0.2758,0.30225 0.11657,0.0738 0.25382,0.11514 0.39181,0.11589 0.13798,7.5e-4 0.27622,-0.0393 0.39129,-0.11549 0.12557,-0.0831 0.22165,-0.20757 0.27886,-0.34685 0.0572,-0.13928 0.0765,-0.29279 0.0647,-0.44291 -0.0234,-0.30023 -0.16699,-0.57922 -0.3436,-0.82314 -0.58431,-0.80698 -1.57668,-1.30159 -2.57281,-1.28231 -0.99612,0.0193 -1.96862,0.55191 -2.52127,1.38088 -0.55265,0.82898 -0.67027,1.93153 -0.30494,2.85844 0.36534,0.92691 1.20358,1.65272 2.17322,1.8817"
       id="path4251"
       inkscape:path-effect="#path-effect4253"
       inkscape:original-d="m 666.12903,408.81382 c 13.37076,-3.34269 2.76391,-2.6503 8.06452,0 0.48087,0.24044 1.23274,-0.38016 1.6129,0 0.38017,0.38017 -0.38016,1.23274 0,1.6129 0.76033,0.76033 2.26406,-0.48087 3.22581,0 0.68006,0.34003 0.93284,1.27288 1.6129,1.61291 0.48088,0.24043 1.13203,-0.24044 1.6129,0 0.68006,0.34003 0.93285,1.27287 1.61291,1.6129 0.58328,0.29164 6.94268,0 8.06451,0 0.84342,0 6.02752,0.21205 6.45162,0 1.36012,-0.68006 1.86568,-2.54575 3.2258,-3.22581 0.48088,-0.24043 1.13203,0.24044 1.61291,0 0.68006,-0.34003 0.93284,-1.27287 1.6129,-1.6129 0.48087,-0.24044 1.13203,0.24044 1.6129,0 0.68006,-0.34003 0.93285,-1.27287 1.61291,-1.6129 0.48087,-0.24044 1.13202,0.24043 1.6129,0 0.68006,-0.34003 0.93284,-1.27288 1.6129,-1.61291 0.48088,-0.24043 1.13203,0.24044 1.61291,0 0.68006,-0.34003 0.93284,-1.27287 1.6129,-1.6129 0.48087,-0.24044 1.07527,0 1.6129,0 0.53764,-0.53763 0.93285,-1.27287 1.61291,-1.6129 0.48087,-0.24044 1.23273,0.38016 1.6129,0 0.38016,-0.38017 -0.38017,-1.23274 0,-1.61291 0.76033,-0.76033 2.46548,0.76033 3.22581,0 0.38016,-0.38016 -0.24044,-1.13202 0,-1.6129 3.35625,-6.71252 -0.11135,1.72425 3.2258,-1.6129 0.38017,-0.38017 -0.38016,-1.23274 0,-1.61291 3.33716,-3.33715 -0.13045,5.09962 3.22581,-1.6129 0.24044,-0.48087 -0.38017,-1.23274 0,-1.6129 0.38016,-0.38017 1.13203,0.24044 1.6129,0 0.68006,-0.34003 0.93284,-1.27288 1.6129,-1.6129 0.48088,-0.24044 1.23274,0.38016 1.61291,0 0.38016,-0.38017 -0.24044,-1.13203 0,-1.61291 0.34003,-0.68006 1.27287,-0.93284 1.6129,-1.6129 0.24044,-0.48088 -0.38016,-1.23274 0,-1.6129 0.38017,-0.38017 1.23274,0.38016 1.6129,0 0.38017,-0.38017 -0.53763,-1.61291 0,-1.61291 0.53764,0 -0.38016,1.23274 0,1.61291 4.30108,0 -0.53763,-0.53764 1.61291,1.6129 0.38016,0.38016 1.13203,-0.24044 1.6129,0 0.68006,0.34003 0.93284,1.27287 1.6129,1.6129 0.48088,0.24044 1.23274,-0.38016 1.61291,0 0.38016,0.38017 -0.38017,1.23274 0,1.61291 0.80645,0.80645 4.03226,-0.80646 4.83871,0 0.38016,0.38016 -0.38017,1.23273 0,1.6129 0.0519,0.0519 4.44753,0 4.83871,0 4.83871,0 9.67742,0 14.51613,0 1.36556,0 5.5845,0.28903 6.45161,0 0.72131,-0.24044 0.93284,-1.27288 1.6129,-1.6129 0.48088,-0.24044 1.13203,0.24043 1.6129,0 0.68006,-0.34003 0.8916,-1.37247 1.61291,-1.61291 1.02009,-0.34003 2.20571,0.34003 3.2258,0 0.72132,-0.24044 0.8916,-1.37246 1.61291,-1.6129 1.02009,-0.34003 2.15054,0 3.2258,0 0.53764,0 1.13203,0.24044 1.61291,0 0.68006,-0.34003 0.89159,-1.37247 1.6129,-1.6129 0.007,-0.002 4.83717,0.002 4.83871,0 0.38017,-0.38017 -0.38016,-1.23274 0,-1.61291 0.76033,-0.76033 2.26406,0.48088 3.22581,0 0.68006,-0.34003 0.93284,-1.27287 1.6129,-1.6129 0.48087,-0.24044 1.13203,0.24044 1.6129,0 0.68006,-0.34003 0.93285,-1.27287 1.61291,-1.6129 0.48087,-0.24044 1.13202,0.24043 1.6129,0 1.36012,-0.68006 1.86569,-2.54575 3.22581,-3.22581 0.96175,-0.48088 2.46547,0.76033 3.2258,0 0.38017,-0.38017 -0.38016,-1.23274 0,-1.6129 0.38017,-0.38017 1.23274,0.38016 1.61291,0 0.38016,-0.38017 -0.38017,-1.23274 0,-1.61291 0.38016,-0.38016 1.23273,0.38017 1.6129,0 0.38016,-0.38016 -0.38017,-1.23274 0,-1.6129 3.33715,-3.33715 -0.13045,5.09961 3.22581,-1.6129 0.24043,-0.48088 -0.38017,-1.23274 0,-1.61291 0.38016,-0.38016 1.23273,0.38017 1.6129,0 0.76033,-0.76033 -1.07527,-3.2258 0,-3.2258 0.53763,0 -0.38017,1.23274 0,1.6129 4.30107,0 -0.53764,-0.53763 1.6129,1.6129 0.38017,0.38017 1.23274,-0.38016 1.61291,0 0.38016,0.38017 -0.24044,1.13203 0,1.61291 3.35625,6.71251 -0.11135,-1.72425 3.2258,1.6129 0.38017,0.38016 -0.38016,1.23274 0,1.6129 0.76033,0.76033 2.46548,-0.76033 3.22581,0 0.38016,0.38017 -0.38017,1.23274 0,1.61291 0.38016,0.38016 1.07527,0 1.6129,0 0.84342,0 6.02752,0.21205 6.45161,0 0.68006,-0.34003 0.93285,-1.27288 1.61291,-1.61291 0.96175,-0.48087 2.20571,0.34003 3.2258,0 1.1405,-0.38016 2.08532,-1.23274 3.22581,-1.6129 1.10941,-0.3698 3.88706,0.47582 4.83871,0 0.68006,-0.34003 0.93284,-1.27287 1.6129,-1.6129 0.96175,-0.48088 2.46548,0.76033 3.22581,0 2.15054,-2.15054 -2.68817,-1.61291 1.6129,-1.61291 4.30108,0 -0.53763,0.53764 1.61291,-1.6129 0.38016,-0.38016 1.13202,0.24044 1.6129,0 0.68006,-0.34003 0.93284,-1.27287 1.6129,-1.6129 0.48088,-0.24044 1.13203,0.24043 1.61291,0 1.36012,-0.68006 1.86568,-2.54575 3.2258,-3.22581 0.48088,-0.24044 1.23274,0.38017 1.61291,0 0.38016,-0.38016 -0.38017,-1.23274 0,-1.6129 0.38016,-0.38017 1.23273,0.38016 1.6129,0 0.38016,-0.38017 -0.38017,-1.23274 0,-1.61291 0.38016,-0.38016 1.13203,0.24044 1.6129,0 1.93549,-0.96774 2.90323,-3.87096 4.83871,-4.83871 2.22477,-1.11238 1.4427,1.95332 3.22581,-1.6129 0.24044,-0.48087 -0.38017,-1.23274 0,-1.6129 0.76033,-0.76033 2.46547,0.76033 3.2258,0 0.38017,-0.38017 -0.38016,-1.23274 0,-1.61291 0.38017,-0.38016 1.13203,0.24044 1.61291,0 1.93548,-0.96774 2.90322,-3.87096 4.83871,-4.83871 0.48087,-0.24043 1.13203,0.24044 1.6129,0 1.36012,-0.68005 1.86569,-2.54574 3.22581,-3.2258 0.48087,-0.24044 1.23274,0.38016 1.6129,0 0.76033,-0.76033 -0.76033,-2.46548 0,-3.22581 0.38017,-0.38016 1.23274,0.38017 1.6129,0 0.38017,-0.38016 0,-1.07527 0,-1.6129 0,-0.72638 0.24543,-4.34785 0,-4.83871 -0.21412,-0.42824 -4.41046,-4.62459 -4.83871,-4.83871 -0.48087,-0.24044 -1.23273,0.38016 -1.6129,0 -0.38016,-0.38017 0.38017,-1.23274 0,-1.6129 -0.0731,-0.0731 -7.30404,0 -8.06452,0 -0.39117,0 -4.78683,-0.0519 -4.83871,0 -0.38016,0.38016 0.38017,1.23273 0,1.6129 -0.49943,0.49943 -7.56508,-0.49943 -8.06451,0 -0.38017,0.38016 0.38016,1.23274 0,1.6129 -0.80645,0.80645 -4.03226,-0.80645 -4.83871,0 -0.38017,0.38017 0.38016,1.23274 0,1.61291 -0.38017,0.38016 -1.23274,-0.38017 -1.6129,0 -0.38017,0.38016 0.38016,1.23273 0,1.6129 -0.38017,0.38016 -1.23274,-0.38017 -1.61291,0 -0.38016,0.38016 0.53764,1.6129 0,1.6129 -0.53763,0 0,-2.15054 0,-1.6129 0,3.23169 0.58705,4.83871 -3.2258,4.83871"
       inkscape:connector-curvature="0" />
  </g>
</svg>
