<?xml version="1.0" encoding="UTF-8" standalone="no"?>
<!-- Created with Inkscape (http://www.inkscape.org/) -->

<svg
   width="297mm"
   height="210mm"
   viewBox="0 0 297 210"
   version="1.1"
   id="svg1"
   inkscape:version="1.4 (86a8ad7, 2024-10-11)"
   sodipodi:docname="Iohannes.svg"
   xmlns:inkscape="http://www.inkscape.org/namespaces/inkscape"
   xmlns:sodipodi="http://sodipodi.sourceforge.net/DTD/sodipodi-0.dtd"
   xmlns="http://www.w3.org/2000/svg"
   xmlns:svg="http://www.w3.org/2000/svg">
  <sodipodi:namedview
     id="namedview1"
     pagecolor="#ffffff"
     bordercolor="#000000"
     borderopacity="0.25"
     inkscape:showpageshadow="2"
     inkscape:pageopacity="0.0"
     inkscape:pagecheckerboard="0"
     inkscape:deskcolor="#d1d1d1"
     inkscape:document-units="mm"
     inkscape:zoom="0.93450477"
     inkscape:cx="561.25984"
     inkscape:cy="396.46668"
     inkscape:window-width="1920"
     inkscape:window-height="1121"
     inkscape:window-x="-9"
     inkscape:window-y="-9"
     inkscape:window-maximized="1"
     inkscape:current-layer="g2" />
  <defs
     id="defs1" />
  <g
     inkscape:label="Calque 1"
     inkscape:groupmode="layer"
     id="layer1">
    <g
       id="g2"
       transform="translate(9.5591483,-29.954961)">
      <path
         style="font-size:68.1577px;line-height:1.4;font-family:Calibri;-inkscape-font-specification:Calibri;letter-spacing:13.3255px;fill:#1873b9;fill-opacity:1;stroke:none;stroke-width:3.358;stroke-dasharray:none"
         d="m 29.265831,145.91352 c 4.32e-4,0.25245 -0.0312,0.47334 -0.0936,0.66267 -0.0624,0.18933 -0.171595,0.34711 -0.327591,0.47333 -0.155995,0.0947 -0.36659,0.17356 -0.631782,0.23667 -0.249594,0.0947 -0.569384,0.142 -0.959374,0.142 -0.37439,0 -0.694181,-0.0473 -0.959373,-0.142 -0.265193,-0.0631 -0.475788,-0.142 -0.631783,-0.23667 -0.155996,-0.12623 -0.265193,-0.284 -0.327592,-0.47333 -0.0624,-0.18933 -0.09316,-0.41022 -0.0936,-0.66267 L 25.099578,63.201531 c -4.32e-4,-0.252443 0.0312,-0.473331 0.0936,-0.662665 0.078,-0.189332 0.194995,-0.331331 0.35099,-0.425999 0.171596,-0.126226 0.38219,-0.220888 0.631783,-0.283999 0.265193,-0.09467 0.577185,-0.142 0.935975,-0.142 0.389989,0 0.70978,0.04733 0.959373,0.142 0.265193,0.06311 0.475787,0.157777 0.631782,0.283999 0.155996,0.09467 0.265193,0.236665 0.327592,0.425999 0.0624,0.189334 0.09317,0.410222 0.0936,0.662665 z m 36.559248,-21.72591 c 0,3.4711 -0.226193,6.67396 -0.678581,9.60861 -0.452388,2.9031 -1.130969,5.41176 -2.035744,7.52598 -0.889176,2.11422 -2.012345,3.77088 -3.369507,4.96999 -1.341564,1.16755 -2.901521,1.75133 -4.679872,1.75133 -1.731552,0 -3.24471,-0.52067 -4.539474,-1.562 -1.279166,-1.04133 -2.347737,-2.55599 -3.205713,-4.54399 -0.857976,-1.98799 -1.497558,-4.40199 -1.918747,-7.24198 -0.421188,-2.83999 -0.631782,-6.05863 -0.631782,-9.65594 0,-3.47108 0.218394,-6.65816 0.655182,-9.56127 0.452387,-2.93466 1.123169,-5.45909 2.012344,-7.57331 0.904775,-2.11422 2.027944,-3.75511 3.369507,-4.92266 1.341564,-1.16755 2.90932,-1.75133 4.703271,-1.75133 1.731552,0 3.236911,0.52067 4.516076,1.562 1.294765,1.04133 2.371135,2.55599 3.229111,4.54399 0.857976,1.98799 1.497559,4.40199 1.918747,7.24198 0.436788,2.84 0.655182,6.04287 0.655182,9.6086 z m -4.071487,0.52067 c 0,-2.30353 -0.109197,-4.48085 -0.327592,-6.53194 -0.202794,-2.05111 -0.545985,-3.84977 -1.029572,-5.39599 -0.483586,-1.54622 -1.138768,-2.7611 -1.965545,-3.64466 -0.826777,-0.91511 -1.856349,-1.37266 -3.088715,-1.37266 -1.138769,0 -2.121542,0.41022 -2.948319,1.23066 -0.811178,0.82044 -1.48196,1.988 -2.012345,3.50266 -0.530385,1.48311 -0.928174,3.25021 -1.193367,5.30132 -0.249593,2.0511 -0.37439,4.29153 -0.37439,6.72128 0,2.33509 0.101397,4.52819 0.304192,6.57928 0.218394,2.0511 0.569385,3.84976 1.052971,5.39598 0.499186,1.51466 1.162168,2.72955 1.988946,3.64466 0.826776,0.88355 1.856348,1.32533 3.088714,1.32533 1.123169,0 2.098142,-0.41022 2.92492,-1.23066 0.826777,-0.82045 1.505359,-1.97222 2.035744,-3.45533 0.530385,-1.48311 0.920375,-3.25021 1.169968,-5.30132 0.249593,-2.05109 0.37439,-4.30729 0.37439,-6.76861 z m 37.261235,21.25258 c 0,0.25244 -0.03122,0.47333 -0.0936,0.66266 -0.06243,0.15778 -0.163795,0.29978 -0.30419,0.426 -0.140396,0.12623 -0.335387,0.22089 -0.584982,0.284 -0.249594,0.0631 -0.561582,0.0947 -0.935971,0.0947 -0.38999,0 -0.709782,-0.0316 -0.959377,-0.0947 -0.249594,-0.0631 -0.444586,-0.15778 -0.584981,-0.284 -0.140396,-0.12623 -0.24179,-0.26822 -0.304191,-0.426 -0.06243,-0.18933 -0.0936,-0.41022 -0.0936,-0.66266 v -24.94455 c 0,-2.42975 -0.0936,-4.38619 -0.280791,-5.8693 -0.187194,-1.48311 -0.460188,-2.7611 -0.818974,-3.83399 -0.358787,-1.07289 -0.826779,-1.89333 -1.403963,-2.46133 -0.561583,-0.568 -1.216762,-0.852 -1.965546,-0.852 -0.967174,0 -1.934349,0.69423 -2.901523,2.08267 -0.967167,1.38844 -1.98114,3.42376 -3.041912,6.10598 v 29.77252 c 0,0.25244 -0.03122,0.47333 -0.0936,0.66266 -0.06236,0.15778 -0.163795,0.29978 -0.30419,0.426 -0.140403,0.12623 -0.335394,0.22089 -0.584989,0.284 -0.249594,0.0631 -0.56938,0.0947 -0.95937,0.0947 -0.374395,0 -0.686383,-0.0316 -0.935978,-0.0947 -0.249594,-0.0631 -0.452383,-0.15778 -0.608381,-0.284 -0.140395,-0.12623 -0.24179,-0.26822 -0.30419,-0.426 -0.04676,-0.18933 -0.07017,-0.41022 -0.07017,-0.66266 V 82.723755 c 0,-0.252444 0.02341,-0.473332 0.07017,-0.662664 0.06244,-0.189334 0.163795,-0.347112 0.30419,-0.473334 0.155998,-0.126226 0.358787,-0.220888 0.608381,-0.283998 0.249595,-0.06311 0.561583,-0.09467 0.935978,-0.09467 0.38999,0 0.709776,0.03156 0.95937,0.09467 0.249595,0.06311 0.444586,0.157776 0.584989,0.283998 0.140395,0.126227 0.24179,0.284 0.30419,0.473334 0.06244,0.189332 0.0936,0.41022 0.0936,0.662664 v 25.512605 c 1.10757,-2.36666 2.222938,-4.11799 3.34611,-5.25399 1.123171,-1.16755 2.254134,-1.75133 3.3929,-1.75133 1.403963,0 2.581731,0.48911 3.533304,1.46733 0.967174,0.94667 1.747154,2.22467 2.33994,3.83399 0.592779,1.60934 1.013966,3.50266 1.263561,5.67999 0.265196,2.14577 0.397794,4.7491 0.397794,7.80997 z m 32.277163,0.0473 c 0,0.37867 -0.0624,0.66266 -0.18719,0.852 -0.1248,0.18933 -0.29639,0.33133 -0.51479,0.426 -0.21839,0.0947 -0.53818,0.142 -0.95937,0.142 -0.40559,0 -0.73318,-0.0473 -0.98277,-0.142 -0.23399,-0.0947 -0.40559,-0.23667 -0.51479,-0.426 -0.1092,-0.18934 -0.1638,-0.47333 -0.1638,-0.852 v -4.25999 c -0.92037,1.98799 -1.94994,3.53421 -3.08871,4.63866 -1.12317,1.10444 -2.31653,1.65666 -3.5801,1.65666 -1.10757,0 -2.11375,-0.29978 -3.01852,-0.89933 -0.88918,-0.568 -1.65356,-1.40422 -2.29313,-2.50866 -0.62399,-1.10445 -1.11538,-2.46133 -1.47417,-4.07066 -0.34319,-1.60933 -0.51478,-3.43955 -0.51478,-5.49065 0,-2.39822 0.24179,-4.48087 0.72538,-6.24797 0.48359,-1.7671 1.17777,-3.23442 2.08254,-4.40197 0.90477,-1.16754 2.01234,-2.03531 3.32271,-2.60331 1.31037,-0.59955 2.78452,-0.89932 4.42248,-0.89932 h 2.90152 v -3.31331 c 0,-1.64089 -0.0858,-3.09244 -0.25739,-4.35466 -0.1716,-1.26222 -0.45239,-2.30355 -0.84238,-3.12399 -0.37439,-0.852 -0.86578,-1.48311 -1.47416,-1.89333 -0.60839,-0.44178 -1.35716,-0.66266 -2.24634,-0.66266 -0.95157,0 -1.80955,0.23666 -2.57393,0.70999 -0.74878,0.44178 -1.41176,0.94667 -1.98894,1.51467 -0.56158,0.53644 -1.03737,1.04133 -1.42736,1.51466 -0.37439,0.44178 -0.65518,0.66267 -0.84238,0.66267 -0.12479,0 -0.23399,-0.0631 -0.32759,-0.18934 -0.0936,-0.12622 -0.1794,-0.31555 -0.2574,-0.568 -0.0624,-0.25244 -0.1092,-0.568 -0.14039,-0.94666 -0.0312,-0.41022 -0.0468,-0.852 -0.0468,-1.32533 0,-0.78889 0.0234,-1.40422 0.0702,-1.846 0.0624,-0.47333 0.195,-0.91511 0.39779,-1.32533 0.2184,-0.41022 0.58499,-0.88355 1.09977,-1.41999 0.51479,-0.568 1.10757,-1.07289 1.77835,-1.51467 0.67078,-0.47333 1.40396,-0.85199 2.19954,-1.13599 0.79558,-0.31556 1.59896,-0.47334 2.41014,-0.47334 1.51315,0 2.80012,0.34711 3.86089,1.04134 1.06077,0.69422 1.91875,1.71977 2.57393,3.07665 0.65518,1.32533 1.13097,2.982 1.42736,4.96999 0.29639,1.988 0.44459,4.30733 0.44459,6.95799 z m -3.83749,-19.45392 h -3.29931 c -1.06077,0 -1.98115,0.18933 -2.76112,0.56799 -0.77998,0.34712 -1.42736,0.88355 -1.94215,1.60932 -0.51479,0.69422 -0.89698,1.54621 -1.14657,2.55598 -0.23399,0.97822 -0.35099,2.11422 -0.35099,3.40799 0,2.20888 0.34319,3.97599 1.02957,5.30132 0.70198,1.29378 1.67696,1.94066 2.92492,1.94066 1.01397,0 1.94995,-0.52066 2.80793,-1.56199 0.87357,-1.04133 1.78615,-2.63489 2.73772,-4.78066 z m 38.43119,19.40659 c 0,0.25244 -0.0312,0.47333 -0.0936,0.66266 -0.0624,0.15778 -0.1638,0.29978 -0.3042,0.426 -0.14039,0.12623 -0.33538,0.22089 -0.58498,0.284 -0.24959,0.0631 -0.56159,0.0947 -0.93597,0.0947 -0.38999,0 -0.70978,-0.0316 -0.95937,-0.0947 -0.2496,-0.0631 -0.4446,-0.15778 -0.58499,-0.284 -0.1404,-0.12623 -0.24179,-0.26822 -0.30419,-0.426 -0.0624,-0.18933 -0.0936,-0.41022 -0.0936,-0.66266 v -24.94455 c 0,-2.42975 -0.0936,-4.38619 -0.28079,-5.8693 -0.1872,-1.48311 -0.46019,-2.7611 -0.81898,-3.83399 -0.35879,-1.07289 -0.82678,-1.89333 -1.40396,-2.46133 -0.56159,-0.568 -1.21677,-0.852 -1.96554,-0.852 -0.96718,0 -1.93435,0.69422 -2.90153,2.08267 -0.96717,1.38844 -1.98115,3.42376 -3.04192,6.10598 v 29.77255 c 0,0.25244 -0.0312,0.47333 -0.0936,0.66266 -0.0624,0.15778 -0.1638,0.29978 -0.30419,0.426 -0.1404,0.12623 -0.33539,0.22089 -0.58499,0.284 -0.24959,0.0631 -0.56938,0.0947 -0.95937,0.0947 -0.37439,0 -0.68638,-0.0316 -0.93597,-0.0947 -0.2496,-0.0631 -0.45239,-0.15778 -0.60839,-0.284 -0.1404,-0.12623 -0.24179,-0.26822 -0.30419,-0.426 -0.0468,-0.18933 -0.0702,-0.41022 -0.0702,-0.66266 v -42.59982 c 0,-0.25244 0.0234,-0.45756 0.0702,-0.61533 0.0468,-0.18934 0.14037,-0.34711 0.28079,-0.47333 0.1404,-0.15778 0.3198,-0.25245 0.53819,-0.28401 0.21839,-0.0631 0.50699,-0.0947 0.86577,-0.0947 0.34319,0 0.62398,0.0315 0.84238,0.0947 0.234,0.0316 0.41339,0.12623 0.53819,0.28401 0.12479,0.12622 0.21059,0.28399 0.25739,0.47333 0.0624,0.15777 0.0936,0.36289 0.0936,0.61533 v 5.63265 c 1.18557,-2.68221 2.36334,-4.63865 3.53331,-5.86932 1.18556,-1.26222 2.37893,-1.89333 3.5801,-1.89333 1.40396,0 2.58173,0.48911 3.5333,1.46733 0.96718,0.94667 1.74716,2.22467 2.33994,3.83399 0.59278,1.60934 1.01397,3.50266 1.26356,5.67999 0.26519,2.14577 0.39779,4.73332 0.39779,7.76264 z m 34.54691,0 c 0,0.25244 -0.0312,0.47333 -0.0936,0.66266 -0.0624,0.15778 -0.16379,0.29978 -0.30419,0.426 -0.14039,0.12623 -0.33539,0.22089 -0.58499,0.284 -0.24959,0.0631 -0.56158,0.0947 -0.93597,0.0947 -0.38999,0 -0.70978,-0.0316 -0.95937,-0.0947 -0.2496,-0.0631 -0.44459,-0.15778 -0.58499,-0.284 -0.14039,-0.12623 -0.24179,-0.26822 -0.30419,-0.426 -0.0624,-0.18933 -0.0936,-0.41022 -0.0936,-0.66266 v -24.94455 c 0,-2.42975 -0.0936,-4.38619 -0.28079,-5.8693 -0.1872,-1.48311 -0.46019,-2.7611 -0.81899,-3.83399 -0.35878,-1.07289 -0.82677,-1.89333 -1.40396,-2.46133 -0.56158,-0.568 -1.21676,-0.852 -1.96554,-0.852 -0.96717,0 -1.93435,0.69422 -2.90152,2.08267 -0.96717,1.38844 -1.98115,3.42376 -3.04192,6.10598 v 29.77255 c 0,0.25244 -0.0312,0.47333 -0.0936,0.66266 -0.0624,0.15778 -0.16379,0.29978 -0.30419,0.426 -0.14039,0.12623 -0.33538,0.22089 -0.58498,0.284 -0.24959,0.0631 -0.56938,0.0947 -0.95937,0.0947 -0.37439,0 -0.68638,-0.0316 -0.93598,-0.0947 -0.24959,-0.0631 -0.45239,-0.15778 -0.60838,-0.284 -0.1404,-0.12623 -0.24179,-0.26822 -0.30419,-0.426 -0.0468,-0.18933 -0.0702,-0.41022 -0.0702,-0.66266 v -42.59982 c 0,-0.25244 0.0234,-0.45756 0.0702,-0.61533 0.0468,-0.18934 0.14037,-0.34711 0.28079,-0.47333 0.14039,-0.15778 0.31979,-0.25245 0.53819,-0.28401 0.21839,-0.0631 0.50698,-0.0947 0.86577,-0.0947 0.34319,0 0.62398,0.0315 0.84237,0.0947 0.234,0.0316 0.4134,0.12623 0.53819,0.28401 0.1248,0.12622 0.2106,0.28399 0.2574,0.47333 0.0624,0.15777 0.0936,0.36289 0.0936,0.61533 v 5.63265 c 1.18557,-2.68221 2.36334,-4.63865 3.53331,-5.86932 1.18556,-1.26222 2.37893,-1.89333 3.5801,-1.89333 1.40396,0 2.58173,0.48911 3.5333,1.46733 0.96718,0.94667 1.74716,2.22467 2.33994,3.83399 0.59277,1.60934 1.01397,3.50266 1.26356,5.67999 0.26519,2.14577 0.39779,4.73332 0.39779,7.76264 z m 34.38311,-23.1459 c 0,1.23067 -0.15599,2.11421 -0.46799,2.65065 -0.29639,0.50488 -0.63958,0.75732 -1.02957,0.75732 h -13.80562 c 0,2.36665 0.117,4.49664 0.351,6.38996 0.23399,1.89333 0.62398,3.51843 1.16996,4.87532 0.54599,1.35689 1.25577,2.39822 2.12934,3.12399 0.87358,0.72578 1.94215,1.08867 3.20571,1.08867 0.99837,0 1.88755,-0.15778 2.66753,-0.47334 0.77998,-0.34711 1.45076,-0.72577 2.01235,-1.13599 0.57718,-0.41022 1.04517,-0.77311 1.40395,-1.08867 0.3744,-0.34711 0.65519,-0.52066 0.84238,-0.52066 0.1092,0 0.2028,0.0631 0.2808,0.18933 0.0936,0.0947 0.16379,0.25244 0.21059,0.47333 0.0468,0.22089 0.078,0.53645 0.0936,0.94667 0.0312,0.37866 0.0468,0.852 0.0468,1.41999 0,0.41022 -0.008,0.77311 -0.0234,1.08867 -0.0156,0.284 -0.039,0.55222 -0.0702,0.80466 -0.0156,0.22089 -0.0546,0.426 -0.117,0.61533 -0.0468,0.18934 -0.11697,0.37867 -0.21059,0.568 -0.078,0.15778 -0.32759,0.44178 -0.74878,0.852 -0.42119,0.37867 -0.96717,0.75733 -1.63795,1.136 -0.67078,0.37866 -1.45076,0.71 -2.33994,0.994 -0.87357,0.31555 -1.80955,0.47333 -2.80792,0.47333 -1.73155,0 -3.25251,-0.48911 -4.56288,-1.46733 -1.29476,-0.97822 -2.38673,-2.42977 -3.2759,-4.35466 -0.88918,-1.92488 -1.55997,-4.33888 -2.01235,-7.24198 -0.45239,-2.90311 -0.67858,-6.27952 -0.67858,-10.12927 0,-3.66042 0.23399,-6.94217 0.70198,-9.84527 0.46799,-2.93466 1.13877,-5.41176 2.01234,-7.43131 0.88918,-2.05111 1.95775,-3.61311 3.20571,-4.68599 1.24797,-1.10444 2.64413,-1.65667 4.18849,-1.65667 1.65355,0 3.05751,0.53645 4.21188,1.60933 1.16997,1.07289 2.12934,2.52444 2.87812,4.35466 0.74878,1.79866 1.29476,3.92866 1.63796,6.38998 0.35879,2.42978 0.53819,5.0331 0.53819,7.80997 z m -3.88429,-2.31931 c 0.0468,-4.1022 -0.4056,-7.32086 -1.35716,-9.65596 -0.93598,-2.33511 -2.33214,-3.50266 -4.18849,-3.50266 -0.95157,0 -1.78615,0.36289 -2.50373,1.08866 -0.71758,0.72578 -1.31816,1.68822 -1.80175,2.88733 -0.48359,1.19911 -0.85798,2.60333 -1.12317,4.21266 -0.26519,1.57777 -0.41339,3.23443 -0.44459,4.96997 z m 32.34736,13.86857 c 0,2.17732 -0.20279,4.11799 -0.60838,5.82198 -0.38999,1.704 -0.95158,3.13977 -1.68476,4.30733 -0.73317,1.16755 -1.60675,2.0511 -2.62072,2.65066 -1.01398,0.59955 -2.12934,0.89933 -3.34611,0.89933 -0.74878,0 -1.46636,-0.12623 -2.15274,-0.37867 -0.67078,-0.22089 -1.27917,-0.50489 -1.82515,-0.852 -0.53039,-0.37866 -0.98277,-0.75733 -1.35717,-1.13599 -0.37438,-0.41022 -0.64738,-0.77311 -0.81897,-1.08867 -0.17159,-0.31555 -0.29639,-0.75733 -0.37439,-1.32533 -0.078,-0.568 -0.11699,-1.34111 -0.11699,-2.31933 0,-0.59955 0.0156,-1.10444 0.0468,-1.51466 0.0312,-0.41022 0.0702,-0.74155 0.117,-0.994 0.0468,-0.25244 0.10918,-0.42599 0.18719,-0.52066 0.0936,-0.12623 0.19499,-0.18933 0.30419,-0.18933 0.1716,0 0.42119,0.22088 0.74878,0.66266 0.34319,0.41022 0.75658,0.86778 1.24017,1.37266 0.49918,0.50489 1.08417,0.97822 1.75495,1.42 0.67078,0.41022 1.44296,0.61533 2.31653,0.61533 0.65519,0 1.24797,-0.142 1.77836,-0.426 0.53038,-0.284 0.99057,-0.69422 1.38056,-1.23066 0.38999,-0.568 0.68638,-1.278 0.88917,-2.13 0.2184,-0.85199 0.3276,-1.86177 0.3276,-3.02932 0,-1.19911 -0.156,-2.20889 -0.46799,-3.02933 -0.2964,-0.82043 -0.69418,-1.54621 -1.19337,-2.17732 -0.49919,-0.63109 -1.06077,-1.18332 -1.68475,-1.65665 -0.62398,-0.50488 -1.27137,-1.02554 -1.94215,-1.56198 -0.65518,-0.53644 -1.30257,-1.13599 -1.94214,-1.79866 -0.62399,-0.69421 -1.18558,-1.53043 -1.68476,-2.50864 -0.49919,-0.97822 -0.90478,-2.14576 -1.21677,-3.50263 -0.29639,-1.35689 -0.44458,-2.982 -0.44458,-4.87533 0,-1.67244 0.15599,-3.26599 0.46798,-4.78065 0.32759,-1.54622 0.81118,-2.88733 1.45076,-4.02333 0.63958,-1.16755 1.43516,-2.09843 2.38674,-2.79265 0.96717,-0.69423 2.09034,-1.04134 3.3695,-1.04134 0.56159,0 1.12317,0.0947 1.68476,0.284 0.56158,0.18934 1.06857,0.426 1.52096,0.71 0.45238,0.284 0.83457,0.59956 1.14656,0.94667 0.3276,0.31555 0.56939,0.59955 0.72539,0.85199 0.17159,0.25245 0.28079,0.47334 0.32759,0.66267 0.0624,0.18933 0.10139,0.41022 0.11699,0.66266 0.0312,0.22089 0.0546,0.50489 0.0702,0.852 0.0312,0.34711 0.0468,0.77311 0.0468,1.278 0,0.53644 -0.0156,1.00978 -0.0468,1.42 -0.0156,0.37866 -0.0546,0.69422 -0.11699,0.94666 -0.0468,0.25244 -0.10918,0.44178 -0.1872,0.568 -0.078,0.0947 -0.16379,0.142 -0.25739,0.142 -0.1404,0 -0.34319,-0.17356 -0.60839,-0.52067 -0.26519,-0.34711 -0.60838,-0.70999 -1.02957,-1.08866 -0.42119,-0.41022 -0.92037,-0.78889 -1.49756,-1.136 -0.56158,-0.34711 -1.20896,-0.52066 -1.94214,-0.52066 -0.65519,0 -1.23237,0.15777 -1.73155,0.47333 -0.49919,0.284 -0.91258,0.71 -1.24017,1.278 -0.31199,0.53644 -0.55379,1.18333 -0.72538,1.94066 -0.156,0.75733 -0.23399,1.57777 -0.23399,2.46132 0,1.23067 0.15599,2.272 0.46798,3.124 0.31199,0.82044 0.71758,1.54622 1.21677,2.17733 0.49918,0.63109 1.06857,1.19909 1.70816,1.70398 0.63957,0.50489 1.28695,1.02554 1.94214,1.56199 0.67078,0.53644 1.32596,1.13599 1.96555,1.79865 0.65518,0.66265 1.23236,1.46732 1.73155,2.41397 0.49918,0.94667 0.89697,2.08266 1.19336,3.40798 0.312,1.32532 0.46799,2.90309 0.46799,4.73331 z"
         id="text1"
         aria-label="Iohannes "
         sodipodi:nodetypes="ssccsccssscccsccsssscccscsssccsscscsscscscccscccsssssscssssscsssscsscscssssccssccssssssccscscsscssscssccscccssscscssccscccssccscccccsscscccscccscscccscssssscsssscsscscssssccsscccscccsccscscssscssssscsssscsscscssssccsscccscccsccscscssscscsssscccscscscccscscscssscccscccssccssscccscssscccssssscscccssccscscccscscccssscccccscccssccscccscssccscs" />
      <path
         style="fill:#1873b9;fill-opacity:1;stroke:#1873b9;stroke-width:3.358;stroke-linecap:round;stroke-dasharray:none;stroke-opacity:1"
         d="m 16.281919,62.287931 c 20.668265,-0.283126 20.668265,0 20.668265,0"
         id="path2" />
      <path
         style="fill:#1873b9;fill-opacity:1;stroke:#1873b9;stroke-width:3.358;stroke-linecap:round;stroke-dasharray:none;stroke-opacity:1"
         d="m 16.281919,145.7807 c 20.668265,-0.28313 20.668265,0 20.668265,0"
         id="path2-8" />
    </g>
  </g>
</svg>
