<?xml version="1.0" encoding="UTF-8" standalone="no"?>
<!-- Created with Inkscape (http://www.inkscape.org/) -->

<!-- 
Artwork by John Samuel. 
This work is licensed under a Creative Commons Attribution-ShareAlike 4.0 International License. 
-->

<svg
   xmlns:osb="http://www.openswatchbook.org/uri/2009/osb"
   xmlns:dc="http://purl.org/dc/elements/1.1/"
   xmlns:cc="http://creativecommons.org/ns#"
   xmlns:rdf="http://www.w3.org/1999/02/22-rdf-syntax-ns#"
   xmlns:svg="http://www.w3.org/2000/svg"
   xmlns="http://www.w3.org/2000/svg"
   xmlns:sodipodi="http://sodipodi.sourceforge.net/DTD/sodipodi-0.dtd"
   xmlns:inkscape="http://www.inkscape.org/namespaces/inkscape"
   width="297mm"
   height="210mm"
   viewBox="0 0 1052.3622 744.09448"
   id="svg2"
   version="1.1"
   inkscape:version="0.92.5 (2060ec1f9f, 2020-04-08)"
   sodipodi:docname="juggling.svg">
  <defs
     id="defs4">
    <linearGradient
       id="linearGradient4824"
       osb:paint="solid">
      <stop
         style="stop-color:#000000;stop-opacity:1;"
         offset="0"
         id="stop4826" />
    </linearGradient>
  </defs>
  <sodipodi:namedview
     id="base"
     pagecolor="#ffffff"
     bordercolor="#666666"
     borderopacity="1.0"
     inkscape:pageopacity="0.0"
     inkscape:pageshadow="2"
     inkscape:zoom="0.82492985"
     inkscape:cx="561.25984"
     inkscape:cy="396.85039"
     inkscape:document-units="px"
     inkscape:current-layer="layer1"
     showgrid="false"
     inkscape:window-width="1600"
     inkscape:window-height="851"
     inkscape:window-x="0"
     inkscape:window-y="25"
     inkscape:window-maximized="1"
     showguides="false">
    <sodipodi:guide
       position="0,0"
       orientation="0,1052.3622"
       id="guide4163"
       inkscape:locked="false" />
    <sodipodi:guide
       position="1052.3622,0"
       orientation="-744.09449,0"
       id="guide4165"
       inkscape:locked="false" />
    <sodipodi:guide
       position="1052.3622,744.09449"
       orientation="0,-1052.3622"
       id="guide4167"
       inkscape:locked="false" />
    <sodipodi:guide
       position="0,744.09449"
       orientation="744.09449,0"
       id="guide4169"
       inkscape:locked="false" />
    <sodipodi:guide
       position="-0.83367063,744.2915"
       orientation="372.04721,0"
       id="guide4173"
       inkscape:locked="false" />
    <sodipodi:guide
       position="-0.83367063,372.24429"
       orientation="0,526.18108"
       id="guide4175"
       inkscape:locked="false" />
    <sodipodi:guide
       position="525.34742,372.24429"
       orientation="-372.04721,0"
       id="guide4177"
       inkscape:locked="false" />
    <sodipodi:guide
       position="525.34742,744.2915"
       orientation="0,-526.18108"
       id="guide4179"
       inkscape:locked="false" />
  </sodipodi:namedview>
  <metadata
     id="metadata7">
    <rdf:RDF>
      <cc:Work
         rdf:about="">
        <dc:format>image/svg+xml</dc:format>
        <dc:type
           rdf:resource="http://purl.org/dc/dcmitype/StillImage" />
        <dc:title></dc:title>
      </cc:Work>
    </rdf:RDF>
  </metadata>
  <g
     inkscape:label="Layer 1"
     inkscape:groupmode="layer"
     id="layer1"
     transform="translate(0,-308.26772)">
    <g
       id="g980">
      <path
         inkscape:connector-curvature="0"
         id="path882"
         d="m 254.17095,928.69059 -13.02377,44.32195 v 0"
         style="fill:none;fill-rule:evenodd;stroke:#000000;stroke-width:1.875;stroke-linecap:butt;stroke-linejoin:miter;stroke-miterlimit:4;stroke-dasharray:none;stroke-opacity:1" />
      <path
         sodipodi:open="true"
         d="m 238.6017,772.29001 a 91.814056,91.968117 0 0 1 101.44771,-50.02627 91.814056,91.968117 0 0 1 72.97518,86.51919"
         sodipodi:end="6.2450527"
         sodipodi:start="3.5915455"
         sodipodi:ry="91.968117"
         sodipodi:rx="91.814056"
         sodipodi:cy="812.28906"
         sodipodi:cx="321.27728"
         sodipodi:type="arc"
         id="path896"
         style="opacity:0.97000002;fill:none;fill-opacity:1;fill-rule:nonzero;stroke:#000000;stroke-width:1.875;stroke-linecap:round;stroke-linejoin:round;stroke-miterlimit:4;stroke-dasharray:none;stroke-dashoffset:0;stroke-opacity:1" />
      <path
         sodipodi:nodetypes="ccccccccccccccccssccccsscccscccc"
         inkscape:connector-curvature="0"
         d="m 217.3828,895.2544 c -14.73394,-6.52288 -32.01758,-16.24345 -43.86921,-40.58174 14.14845,-26.88255 22.27686,-53.73204 37.40699,-60.2699 8.83933,-3.31362 6.79813,2.27376 8.47245,4.82159 m 17.43949,119.15294 50.83543,30.42897 45.32272,0.56824 28.13134,-10.22816 10.59518,-15.29032 m 0,0 c 12.47366,-21.51838 21.49186,-41.10802 34.97464,-66.14697 1.32942,-15.65845 10.06174,-37.71267 6.33277,-48.92613 0.85674,-6.1265 -12.99203,-30.67259 -26.31279,8.55106 -6.71368,24.13436 -4.1772,11.79258 -11.97759,35.85656 l -34.73075,52.98237 c 7.95174,-19.91343 13.53798,-29.17802 19.90781,-57.55692 l 5.80687,-33.83718 c 10.83232,-63.12087 -21.67578,-53.08019 -34.2509,-14.44684 l -14.86596,45.67127 c -7.17345,30.55956 -4.96116,53.11657 -8.19393,46.89441 l -7.30381,-9.38639 c -5.88225,-9.01609 -6.23261,-9.30441 -18.75185,-29.45906 l 29.62336,-53.29316 c 22.3703,-40.24474 -14.7819,-45.91355 -32.54763,-8.19926 -6.00399,12.74566 -37.22917,61.62224 -37.19318,61.89673 9.0831,7.99754 47.93065,63.58376 33.55961,43.16869 l -50.35117,-51.19104 29.98819,-56.85124 c 7.14442,-13.5443 -11.5379,-24.83858 -17.27554,-16.62603 l -35.20505,60.01861 -11.90594,26.0511 45.78817,59.35069"
         style="fill:none;fill-rule:evenodd;stroke:#000000;stroke-width:1.875;stroke-linecap:butt;stroke-linejoin:miter;stroke-miterlimit:4;stroke-dasharray:none;stroke-opacity:1"
         id="path892" />
      <path
         inkscape:connector-curvature="0"
         id="path894"
         d="m 361.12201,939.14634 -11.69512,60.57589"
         style="fill:none;fill-rule:evenodd;stroke:#000000;stroke-width:1.875;stroke-linecap:butt;stroke-linejoin:miter;stroke-miterlimit:4;stroke-dasharray:none;stroke-opacity:1" />
      <path
         sodipodi:nodetypes="cccccc"
         inkscape:connector-curvature="0"
         id="rect872"
         d="m 392.12601,812.6409 c 1.03632,-4.17823 2.11617,-7.38217 4.65389,-10.38112 3.30672,-3.65053 11.80047,-5.84095 13.75242,6.12327 0.40656,4.26879 0.1279,6.82454 0.0356,9.84617 -6.71701,-0.154 -12.77936,-3.0617 -18.44186,-5.58832 z"
         inkscape:transform-center-y="-1.3588808"
         inkscape:transform-center-x="-8.7423263"
         style="opacity:0.97000002;fill:#ffffff;fill-opacity:1;fill-rule:nonzero;stroke:#000000;stroke-width:1.875;stroke-linecap:round;stroke-linejoin:round;stroke-miterlimit:4;stroke-dasharray:none;stroke-dashoffset:0;stroke-opacity:1" />
      <path
         sodipodi:nodetypes="ccccc"
         inkscape:connector-curvature="0"
         id="rect874"
         d="m 339.93368,788.98007 c 2.70997,-5.09877 3.71782,-7.8961 10.56392,-13.57829 6.19406,-0.30346 9.19426,-0.88275 14.05506,6.70965 -0.34642,6.55714 -0.4243,13.48095 -1.85938,18.34593 -8.13505,2.55326 -24.83997,-10.65742 -22.7596,-11.47729 z"
         inkscape:transform-center-y="-1.6793835"
         inkscape:transform-center-x="-7.8929951"
         style="opacity:0.97000002;fill:#ffffff;fill-opacity:1;fill-rule:nonzero;stroke:#000000;stroke-width:1.875;stroke-linecap:round;stroke-linejoin:round;stroke-miterlimit:4;stroke-dasharray:none;stroke-dashoffset:0;stroke-opacity:1" />
      <path
         sodipodi:nodetypes="ccccc"
         inkscape:connector-curvature="0"
         id="rect876"
         d="m 287.62128,785.43417 c 5.17823,-7.00276 7.48834,-12.00281 15.33017,-13.42996 7.70707,-0.3499 10.12008,2.67882 11.05696,10.91209 -2.23524,6.57847 -1.33889,8.1867 -6.5714,13.7586 -10.66381,-4.5746 -13.79905,-3.48287 -19.81573,-11.24073 z"
         inkscape:transform-center-y="-0.17020253"
         inkscape:transform-center-x="-8.9885266"
         style="opacity:0.97000002;fill:#ffffff;fill-opacity:1;fill-rule:nonzero;stroke:#000000;stroke-width:1.875;stroke-linecap:round;stroke-linejoin:round;stroke-miterlimit:4;stroke-dasharray:none;stroke-dashoffset:0;stroke-opacity:1" />
      <path
         sodipodi:nodetypes="ccccc"
         inkscape:connector-curvature="0"
         id="rect878"
         d="m 245.475,796.70334 c -4.75488,-1.61578 -9.32244,-4.45735 -13.38616,-10.59646 4.14546,-5.73523 4.06928,-7.5479 9.97808,-12.02398 6.62006,-0.81052 10.15486,3.73306 11.56285,8.18147 -2.28194,6.71667 -5.18976,10.70255 -8.15477,14.43897 z"
         inkscape:transform-center-y="-6.7221495"
         inkscape:transform-center-x="-0.083158363"
         style="opacity:0.97000002;fill:#ffffff;fill-opacity:1;fill-rule:nonzero;stroke:#000000;stroke-width:1.875;stroke-linecap:round;stroke-linejoin:round;stroke-miterlimit:4;stroke-dasharray:none;stroke-dashoffset:0;stroke-opacity:1" />
      <path
         sodipodi:nodetypes="cc"
         inkscape:connector-curvature="0"
         id="path905"
         d="m 316.60129,846.00324 c -7.65935,-2.4873 29.1534,12.80116 41.97116,3.81815"
         style="fill:none;fill-rule:evenodd;stroke:#000000;stroke-width:1.875;stroke-linecap:butt;stroke-linejoin:miter;stroke-miterlimit:4;stroke-dasharray:none;stroke-opacity:1" />
      <path
         sodipodi:nodetypes="cc"
         inkscape:connector-curvature="0"
         id="path907"
         d="m 374.73422,853.19054 c 10.38467,5.09306 20.76934,5.83495 31.15401,4.5185"
         style="fill:none;fill-rule:evenodd;stroke:#000000;stroke-width:1.875;stroke-linecap:butt;stroke-linejoin:miter;stroke-miterlimit:4;stroke-dasharray:none;stroke-opacity:1" />
      <path
         sodipodi:nodetypes="cc"
         inkscape:connector-curvature="0"
         id="path909"
         d="m 242.23425,854.45651 c 14.50345,9.84016 31.55237,8.20548 40.11745,-0.4043"
         style="fill:none;fill-rule:evenodd;stroke:#000000;stroke-width:1.875;stroke-linecap:butt;stroke-linejoin:miter;stroke-miterlimit:4;stroke-dasharray:none;stroke-opacity:1" />
      <path
         sodipodi:nodetypes="cc"
         inkscape:connector-curvature="0"
         id="path911"
         d="m 225.44269,846.43417 c -18.91295,-2.31184 -26.07921,-6.86116 -22.4924,-13.45867"
         style="fill:none;fill-rule:evenodd;stroke:#000000;stroke-width:1.875;stroke-linecap:butt;stroke-linejoin:miter;stroke-miterlimit:4;stroke-dasharray:none;stroke-opacity:1" />
    </g>
    <ellipse
       ry="91.968117"
       rx="91.814056"
       cy="431.13559"
       cx="526.18103"
       id="path953"
       style="opacity:0.97000002;fill:none;fill-opacity:1;fill-rule:nonzero;stroke:#000000;stroke-width:1.875;stroke-linecap:round;stroke-linejoin:round;stroke-miterlimit:4;stroke-dasharray:none;stroke-dashoffset:0;stroke-opacity:1" />
    <g
       id="g951"
       transform="matrix(-1,0,0,1,1086.4735,77.14123)">
      <path
         style="fill:none;fill-rule:evenodd;stroke:#000000;stroke-width:1.875;stroke-linecap:butt;stroke-linejoin:miter;stroke-miterlimit:4;stroke-dasharray:none;stroke-opacity:1"
         d="m 288.2823,851.54936 -13.02377,44.32195 v 0"
         id="path927"
         inkscape:connector-curvature="0" />
      <path
         style="opacity:0.97000002;fill:none;fill-opacity:1;fill-rule:nonzero;stroke:#000000;stroke-width:1.875;stroke-linecap:round;stroke-linejoin:round;stroke-miterlimit:4;stroke-dasharray:none;stroke-dashoffset:0;stroke-opacity:1"
         id="path929"
         sodipodi:type="arc"
         sodipodi:cx="355.38864"
         sodipodi:cy="735.14783"
         sodipodi:rx="91.814056"
         sodipodi:ry="91.968117"
         sodipodi:start="3.5915455"
         sodipodi:end="6.2450527"
         d="m 272.71306,695.14877 a 91.814056,91.968117 0 0 1 101.44771,-50.02626 91.814056,91.968117 0 0 1 72.97518,86.51918"
         sodipodi:open="true" />
      <path
         id="path931"
         style="fill:none;fill-rule:evenodd;stroke:#000000;stroke-width:1.875;stroke-linecap:butt;stroke-linejoin:miter;stroke-miterlimit:4;stroke-dasharray:none;stroke-opacity:1"
         d="m 251.49415,818.11317 c -14.73394,-6.52288 -32.01758,-16.24345 -43.86921,-40.58174 14.14845,-26.88255 22.27686,-53.73204 37.40699,-60.2699 8.83933,-3.31362 6.79813,2.27376 8.47245,4.82159 m 17.43949,119.15294 50.83543,30.42897 45.32272,0.56824 28.13134,-10.22816 10.59518,-15.29032 m 0,0 c 12.47366,-21.51838 21.49186,-41.10802 34.97464,-66.14697 1.32942,-15.65845 10.06174,-37.71267 6.33277,-48.92613 0.85674,-6.1265 -12.99203,-30.67259 -26.31279,8.55106 -6.71368,24.13436 -4.1772,11.79258 -11.97759,35.85656 l -34.73075,52.98237 c 7.95174,-19.91343 13.53798,-29.17802 19.90781,-57.55692 l 5.80687,-33.83718 c 10.83232,-63.12087 -21.67578,-53.08019 -34.2509,-14.44684 l -14.86596,45.67127 c -7.17345,30.55956 -4.96116,53.11657 -8.19393,46.89441 l -7.30381,-9.38639 c -5.88225,-9.01609 -6.23261,-9.30441 -18.75185,-29.45906 l 29.62336,-53.29316 c 22.3703,-40.24474 -14.7819,-45.91355 -32.54763,-8.19926 -6.00399,12.74566 -37.22917,61.62224 -37.19318,61.89673 9.0831,7.99754 47.93065,63.58376 33.55961,43.16869 l -50.35117,-51.19104 29.98819,-56.85124 c 7.14442,-13.5443 -11.5379,-24.83858 -17.27554,-16.62603 l -35.20505,60.01861 -11.90594,26.0511 45.78817,59.35069"
         inkscape:connector-curvature="0"
         sodipodi:nodetypes="ccccccccccccccccssccccsscccscccc" />
      <path
         style="fill:none;fill-rule:evenodd;stroke:#000000;stroke-width:1.875;stroke-linecap:butt;stroke-linejoin:miter;stroke-miterlimit:4;stroke-dasharray:none;stroke-opacity:1"
         d="m 395.23336,862.00511 -11.69512,60.5759"
         id="path933"
         inkscape:connector-curvature="0" />
      <path
         style="opacity:0.97000002;fill:#ffffff;fill-opacity:1;fill-rule:nonzero;stroke:#000000;stroke-width:1.875;stroke-linecap:round;stroke-linejoin:round;stroke-miterlimit:4;stroke-dasharray:none;stroke-dashoffset:0;stroke-opacity:1"
         inkscape:transform-center-x="-8.7423263"
         inkscape:transform-center-y="-1.3588808"
         d="m 426.23736,735.49967 c 1.03632,-4.17823 2.11617,-7.38217 4.65389,-10.38112 3.30672,-3.65053 11.80047,-5.84095 13.75242,6.12327 0.40656,4.26879 0.1279,6.82454 0.0356,9.84617 -6.71701,-0.154 -12.77936,-3.0617 -18.44186,-5.58832 z"
         id="path935"
         inkscape:connector-curvature="0"
         sodipodi:nodetypes="cccccc" />
      <path
         style="opacity:0.97000002;fill:#ffffff;fill-opacity:1;fill-rule:nonzero;stroke:#000000;stroke-width:1.875;stroke-linecap:round;stroke-linejoin:round;stroke-miterlimit:4;stroke-dasharray:none;stroke-dashoffset:0;stroke-opacity:1"
         inkscape:transform-center-x="-7.8929951"
         inkscape:transform-center-y="-1.6793835"
         d="m 374.04503,711.83884 c 2.70997,-5.09877 3.71782,-7.8961 10.56392,-13.57829 6.19406,-0.30346 9.19426,-0.88275 14.05506,6.70965 -0.34642,6.55714 -0.4243,13.48095 -1.85938,18.34593 -8.13505,2.55326 -24.83997,-10.65742 -22.7596,-11.47729 z"
         id="path937"
         inkscape:connector-curvature="0"
         sodipodi:nodetypes="ccccc" />
      <path
         style="opacity:0.97000002;fill:#ffffff;fill-opacity:1;fill-rule:nonzero;stroke:#000000;stroke-width:1.875;stroke-linecap:round;stroke-linejoin:round;stroke-miterlimit:4;stroke-dasharray:none;stroke-dashoffset:0;stroke-opacity:1"
         inkscape:transform-center-x="-8.9885266"
         inkscape:transform-center-y="-0.17020253"
         d="m 321.73263,708.29294 c 5.17823,-7.00276 7.48834,-12.00281 15.33017,-13.42996 7.70707,-0.3499 10.12008,2.67882 11.05696,10.91209 -2.23524,6.57847 -1.33889,8.1867 -6.5714,13.7586 -10.66381,-4.5746 -13.79905,-3.48287 -19.81573,-11.24073 z"
         id="path939"
         inkscape:connector-curvature="0"
         sodipodi:nodetypes="ccccc" />
      <path
         style="opacity:0.97000002;fill:#ffffff;fill-opacity:1;fill-rule:nonzero;stroke:#000000;stroke-width:1.875;stroke-linecap:round;stroke-linejoin:round;stroke-miterlimit:4;stroke-dasharray:none;stroke-dashoffset:0;stroke-opacity:1"
         inkscape:transform-center-x="-0.083158363"
         inkscape:transform-center-y="-6.7221495"
         d="m 279.58635,719.56211 c -4.75488,-1.61578 -9.32244,-4.45735 -13.38616,-10.59646 4.14546,-5.73523 4.06928,-7.5479 9.97808,-12.02398 6.62006,-0.81052 10.15486,3.73306 11.56285,8.18147 -2.28194,6.71667 -5.18976,10.70255 -8.15477,14.43897 z"
         id="path941"
         inkscape:connector-curvature="0"
         sodipodi:nodetypes="ccccc" />
      <path
         style="fill:none;fill-rule:evenodd;stroke:#000000;stroke-width:1.875;stroke-linecap:butt;stroke-linejoin:miter;stroke-miterlimit:4;stroke-dasharray:none;stroke-opacity:1"
         d="m 350.71264,768.86201 c -7.65935,-2.4873 29.1534,12.80116 41.97116,3.81815"
         id="path943"
         inkscape:connector-curvature="0"
         sodipodi:nodetypes="cc" />
      <path
         style="fill:none;fill-rule:evenodd;stroke:#000000;stroke-width:1.875;stroke-linecap:butt;stroke-linejoin:miter;stroke-miterlimit:4;stroke-dasharray:none;stroke-opacity:1"
         d="m 408.84557,776.04931 c 10.38467,5.09306 20.76934,5.83495 31.15401,4.5185"
         id="path945"
         inkscape:connector-curvature="0"
         sodipodi:nodetypes="cc" />
      <path
         style="fill:none;fill-rule:evenodd;stroke:#000000;stroke-width:1.875;stroke-linecap:butt;stroke-linejoin:miter;stroke-miterlimit:4;stroke-dasharray:none;stroke-opacity:1"
         d="m 276.3456,777.31528 c 14.50345,9.84016 31.55237,8.20548 40.11745,-0.4043"
         id="path947"
         inkscape:connector-curvature="0"
         sodipodi:nodetypes="cc" />
      <path
         style="fill:none;fill-rule:evenodd;stroke:#000000;stroke-width:1.875;stroke-linecap:butt;stroke-linejoin:miter;stroke-miterlimit:4;stroke-dasharray:none;stroke-opacity:1"
         d="m 259.55404,769.29294 c -18.91295,-2.31184 -26.07921,-6.86116 -22.4924,-13.45867"
         id="path949"
         inkscape:connector-curvature="0"
         sodipodi:nodetypes="cc" />
    </g>
  </g>
</svg>
