<?xml version="1.0" encoding="UTF-8" standalone="no"?>
<!-- Created with Inkscape (http://www.inkscape.org/) -->

<!-- 
Artwork by John Samuel. 
This work is licensed under a Creative Commons Attribution-ShareAlike 4.0 International License. 
-->

<svg
   xmlns:osb="http://www.openswatchbook.org/uri/2009/osb"
   xmlns:dc="http://purl.org/dc/elements/1.1/"
   xmlns:cc="http://creativecommons.org/ns#"
   xmlns:rdf="http://www.w3.org/1999/02/22-rdf-syntax-ns#"
   xmlns:svg="http://www.w3.org/2000/svg"
   xmlns="http://www.w3.org/2000/svg"
   xmlns:sodipodi="http://sodipodi.sourceforge.net/DTD/sodipodi-0.dtd"
   xmlns:inkscape="http://www.inkscape.org/namespaces/inkscape"
   width="297mm"
   height="210mm"
   viewBox="0 0 1052.3622 744.09448"
   id="svg2"
   version="1.1"
   inkscape:version="0.91 r13725"
   sodipodi:docname="pine-tree-curved.svg">
  <defs
     id="defs4">
    <linearGradient
       id="linearGradient4824"
       osb:paint="solid">
      <stop
         style="stop-color:#000000;stop-opacity:1;"
         offset="0"
         id="stop4826" />
    </linearGradient>
  </defs>
  <sodipodi:namedview
     id="base"
     pagecolor="#ffffff"
     bordercolor="#666666"
     borderopacity="1.0"
     inkscape:pageopacity="0.0"
     inkscape:pageshadow="2"
     inkscape:zoom="0.9192381"
     inkscape:cx="526.1811"
     inkscape:cy="372.04724"
     inkscape:document-units="px"
     inkscape:current-layer="layer1"
     showgrid="false"
     inkscape:window-width="1600"
     inkscape:window-height="847"
     inkscape:window-x="0"
     inkscape:window-y="0"
     inkscape:window-maximized="1"
     showguides="false"
     inkscape:guide-bbox="true"
     inkscape:snap-to-guides="false"
     inkscape:snap-grids="false">
    <sodipodi:guide
       position="471.58033,810.52868"
       orientation="0,1"
       id="guide4797" />
    <inkscape:grid
       type="xygrid"
       id="grid4810" />
    <sodipodi:guide
       position="529.18816,636.36549"
       orientation="1,0"
       id="guide4812" />
    <sodipodi:guide
       position="503.73354,635.02578"
       orientation="0.91549091,-0.40233865"
       id="guide4846" />
    <sodipodi:guide
       position="586.79598,566.70022"
       orientation="0.91800159,0.3965767"
       id="guide4850" />
  </sodipodi:namedview>
  <metadata
     id="metadata7">
    <rdf:RDF>
      <cc:Work
         rdf:about="">
        <dc:format>image/svg+xml</dc:format>
        <dc:type
           rdf:resource="http://purl.org/dc/dcmitype/StillImage" />
        <dc:title></dc:title>
      </cc:Work>
    </rdf:RDF>
  </metadata>
  <g
     inkscape:label="Layer 1"
     inkscape:groupmode="layer"
     id="layer1"
     transform="translate(0,-308.26772)">
    <path
       style="opacity:1;fill:#ffffff;fill-opacity:1;stroke:#000000;stroke-width:2.23879623;stroke-linecap:round;stroke-linejoin:round;stroke-miterlimit:4;stroke-dasharray:none;stroke-dashoffset:0;stroke-opacity:1"
       inkscape:transform-center-y="-41.853478"
       d="m 528.75519,637.43503 c 44.67773,163.16092 140.43337,204.01982 233.58364,251.11713 -137.88576,-30.20978 -288.30819,-36.39096 -460.94252,6.7e-4 89.62419,-50.4023 182.63825,-92.64612 227.35888,-251.1178 z"
       id="path4823"
       inkscape:connector-curvature="0"
       sodipodi:nodetypes="cccc" />
    <path
       sodipodi:nodetypes="cccc"
       inkscape:connector-curvature="0"
       id="path4821"
       d="M 531.43309,587.83278 C 573.27984,720.22194 646.06754,745.68446 714.87628,789.50027 599.25179,763.33562 478.37848,758.16622 348.27477,789.91845 438.34429,758.30284 498.411,689.7262 531.43309,587.83278 Z"
       inkscape:transform-center-y="-41.0025"
       style="opacity:1;fill:#ffffff;fill-opacity:1;stroke:#000000;stroke-width:2.21555257;stroke-linecap:round;stroke-linejoin:round;stroke-miterlimit:4;stroke-dasharray:none;stroke-dashoffset:0;stroke-opacity:1" />
    <path
       style="opacity:1;fill:#ffffff;fill-opacity:1;stroke:#000000;stroke-width:2.09292912;stroke-linecap:round;stroke-linejoin:round;stroke-miterlimit:4;stroke-dasharray:none;stroke-dashoffset:0;stroke-opacity:1"
       inkscape:transform-center-y="-36.599477"
       d="m 531.42767,547.57997 c 34.85552,54.4707 36.72411,122.52117 133.1848,151.6308 -88.08553,-19.56296 -177.1887,-23.86124 -268.16921,5.6e-4 61.53341,-21.79693 105.52685,-74.08126 134.98441,-151.63136 z"
       id="path4819"
       inkscape:connector-curvature="0"
       sodipodi:nodetypes="cccc" />
    <path
       sodipodi:nodetypes="cccc"
       inkscape:connector-curvature="0"
       id="path4817"
       d="m 530.09792,495.36982 c 28.04137,89.05296 66.53642,111.99972 105.00186,135.13363 -67.10605,-15.22583 -135.12684,-19.47477 -205.12466,6.3e-4 78.60942,-39.08528 72.50955,-89.33052 100.1228,-135.13426 z"
       inkscape:transform-center-y="-39.411679"
       style="opacity:1;fill:#ffffff;fill-opacity:1;stroke:#000000;stroke-width:2.17070222;stroke-linecap:round;stroke-linejoin:round;stroke-miterlimit:4;stroke-dasharray:none;stroke-dashoffset:0;stroke-opacity:1" />
    <path
       style="opacity:1;fill:#ffffff;fill-opacity:1;stroke:#000000;stroke-width:2.17139745;stroke-linecap:round;stroke-linejoin:round;stroke-miterlimit:4;stroke-dasharray:none;stroke-dashoffset:0;stroke-opacity:1"
       inkscape:transform-center-y="-39.478067"
       d="m 530.09182,439.10196 c 15.58118,67.96762 44.98115,100.88524 78.21326,124.08307 -49.04617,-12.6236 -100.7076,-13.47859 -155.55439,6.1e-4 30.67373,-31.01831 60.62254,-63.56887 77.34113,-124.08368 z"
       id="path4814"
       inkscape:connector-curvature="0"
       sodipodi:nodetypes="cccc" />
    <path
       sodipodi:nodetypes="cccc"
       inkscape:connector-curvature="0"
       id="path4852"
       d="m 530.10575,370.79387 c 16.73824,56.14292 33.1161,114.65569 56.74637,125.47879 -36.20977,-15.71063 -72.41955,-21.7902 -108.62932,6.3e-4 23.26907,-23.49197 45.98825,-48.67139 51.88295,-125.47942 z"
       inkscape:transform-center-y="-40.850364"
       style="opacity:1;fill:#ffffff;fill-opacity:1;stroke:#000000;stroke-width:2.20641541;stroke-linecap:round;stroke-linejoin:round;stroke-miterlimit:4;stroke-dasharray:none;stroke-dashoffset:0;stroke-opacity:1" />
    <path
       style="fill:none;fill-rule:evenodd;stroke:#000000;stroke-width:1.5;stroke-linecap:butt;stroke-linejoin:miter;stroke-miterlimit:4;stroke-dasharray:none;stroke-opacity:1"
       d="m 501.00175,864.59927 c 0,99.13905 -51.83846,132.01077 -51.83846,132.01077 0,0 43.50895,-5.2073 44.72718,-27.01444 0,21.43544 14.50104,25.83994 14.50104,25.83994 0,0 17.68871,-1.4208 17.68871,-22.85633 0.40194,21.05093 20.65621,23.46633 20.65621,23.46633 0,0 8.92454,-6.7782 7.79349,-27.05985 0.66986,24.11485 47.8131,25.64725 47.8131,25.64725 0,0 -44.92671,-32.23433 -44.92671,-131.37338"
       id="path4193"
       inkscape:connector-curvature="0"
       sodipodi:nodetypes="ccccccccc" />
  </g>
</svg>
