<?xml version="1.0" encoding="UTF-8" standalone="no"?>
<!-- Created with Inkscape (http://www.inkscape.org/) -->

<!-- 
Artwork by John Samuel. 
This work is licensed under a Creative Commons Attribution-ShareAlike 4.0 International License. 
-->

<svg
   xmlns:osb="http://www.openswatchbook.org/uri/2009/osb"
   xmlns:dc="http://purl.org/dc/elements/1.1/"
   xmlns:cc="http://creativecommons.org/ns#"
   xmlns:rdf="http://www.w3.org/1999/02/22-rdf-syntax-ns#"
   xmlns:svg="http://www.w3.org/2000/svg"
   xmlns="http://www.w3.org/2000/svg"
   xmlns:sodipodi="http://sodipodi.sourceforge.net/DTD/sodipodi-0.dtd"
   xmlns:inkscape="http://www.inkscape.org/namespaces/inkscape"
   width="297mm"
   height="210mm"
   viewBox="0 0 1052.3622 744.09448"
   id="svg2"
   version="1.1"
   inkscape:version="0.92.5 (2060ec1f9f, 2020-04-08)"
   sodipodi:docname="rat.svg">
  <defs
     id="defs4">
    <linearGradient
       id="linearGradient4824"
       osb:paint="solid">
      <stop
         style="stop-color:#000000;stop-opacity:1;"
         offset="0"
         id="stop4826" />
    </linearGradient>
  </defs>
  <sodipodi:namedview
     id="base"
     pagecolor="#ffffff"
     bordercolor="#666666"
     borderopacity="1.0"
     inkscape:pageopacity="0.0"
     inkscape:pageshadow="2"
     inkscape:zoom="0.82492985"
     inkscape:cx="561.25984"
     inkscape:cy="396.85039"
     inkscape:document-units="px"
     inkscape:current-layer="layer1"
     showgrid="false"
     inkscape:window-width="1600"
     inkscape:window-height="851"
     inkscape:window-x="0"
     inkscape:window-y="25"
     inkscape:window-maximized="1"
     showguides="false">
    <sodipodi:guide
       position="0,0"
       orientation="0,1052.3622"
       id="guide4163"
       inkscape:locked="false" />
    <sodipodi:guide
       position="1052.3622,0"
       orientation="-744.09449,0"
       id="guide4165"
       inkscape:locked="false" />
    <sodipodi:guide
       position="1052.3622,744.09449"
       orientation="0,-1052.3622"
       id="guide4167"
       inkscape:locked="false" />
    <sodipodi:guide
       position="0,744.09449"
       orientation="744.09449,0"
       id="guide4169"
       inkscape:locked="false" />
    <sodipodi:guide
       position="-0.83367063,744.2915"
       orientation="372.04721,0"
       id="guide4173"
       inkscape:locked="false" />
    <sodipodi:guide
       position="-0.83367063,372.24429"
       orientation="0,526.18108"
       id="guide4175"
       inkscape:locked="false" />
    <sodipodi:guide
       position="525.34742,372.24429"
       orientation="-372.04721,0"
       id="guide4177"
       inkscape:locked="false" />
    <sodipodi:guide
       position="525.34742,744.2915"
       orientation="0,-526.18108"
       id="guide4179"
       inkscape:locked="false" />
  </sodipodi:namedview>
  <metadata
     id="metadata7">
    <rdf:RDF>
      <cc:Work
         rdf:about="">
        <dc:format>image/svg+xml</dc:format>
        <dc:type
           rdf:resource="http://purl.org/dc/dcmitype/StillImage" />
        <dc:title />
      </cc:Work>
    </rdf:RDF>
  </metadata>
  <g
     inkscape:label="Layer 1"
     inkscape:groupmode="layer"
     id="layer1"
     transform="translate(0,-308.26772)">
    <path
       style="fill:none;fill-rule:evenodd;stroke:#000000;stroke-width:1.875;stroke-linecap:butt;stroke-linejoin:miter;stroke-miterlimit:4;stroke-dasharray:none;stroke-opacity:1"
       d="m 459.42095,878.56425 c 17.767,-3.14588 -38.67869,-60.41159 -19.92252,-72.86541"
       id="path952"
       inkscape:connector-curvature="0"
       sodipodi:nodetypes="cc" />
    <path
       style="fill:none;fill-opacity:1;fill-rule:evenodd;stroke:#000000;stroke-width:1.875;stroke-linecap:butt;stroke-linejoin:miter;stroke-miterlimit:4;stroke-dasharray:none;stroke-opacity:1"
       d="m 439.73935,859.65177 c 3.47148,4.76301 1.36736,42.86565 9.06326,54.16666 5.29023,7.76842 1.30397,-13.12903 2.36789,-27.88844 2.31204,13.08741 5.51509,32.91441 11.24937,36.64773 9.69482,6.31177 -3.52565,-21.8453 -5.46121,-37.43703 5.41159,11.38071 9.7821,27.8766 17.47343,33.31769 10.28634,7.27689 -6.46492,-22.61717 -11.68528,-35.94868 7.4005,12.34482 20.19498,30.05656 22.54936,30.37849 7.15584,0.97845 -9.06711,-22.7281 -17.14648,-33.9077 7.06826,1.92263 17.7762,20.45285 17.79486,12.98202 0.005,-3.74265 -21.633,-31.58435 -34.08054,-44.29073"
       id="path1411"
       inkscape:connector-curvature="0"
       sodipodi:nodetypes="cscscscscsc" />
    <path
       style="fill:none;fill-rule:evenodd;stroke:#000000;stroke-width:1.875;stroke-linecap:butt;stroke-linejoin:miter;stroke-miterlimit:4;stroke-dasharray:none;stroke-opacity:1"
       d="m 374.01453,752.8692 c -5.54655,70.49942 48.95518,103.0872 92.90642,133.19505"
       id="path950"
       inkscape:connector-curvature="0"
       sodipodi:nodetypes="cc" />
    <path
       style="fill:none;fill-opacity:1;fill-rule:evenodd;stroke:#000000;stroke-width:1.875;stroke-linecap:butt;stroke-linejoin:miter;stroke-miterlimit:4;stroke-dasharray:none;stroke-opacity:1"
       d="M 374.01453,758.4942 C 399.58676,633.57738 543.68993,583.69206 617.74147,617.31197 748.93519,676.87483 717.32944,746.56476 955.88218,709.62641 920.80756,777.80742 894.86391,855.22126 832.17992,904.07572 669.30597,967.28513 561.47923,922.23627 374.01453,758.4942 Z"
       id="path944"
       inkscape:connector-curvature="0"
       sodipodi:nodetypes="csccc" />
    <path
       style="fill:none;fill-opacity:1;fill-rule:evenodd;stroke:#000000;stroke-width:1.875;stroke-linecap:butt;stroke-linejoin:miter;stroke-miterlimit:4;stroke-dasharray:none;stroke-opacity:1"
       d="M 455.83967,642.17733 C 308.3203,516.26992 231.89593,254.68853 27.394147,367.15395 239.33459,274.73552 298.66914,528.31699 434.24691,659.22425"
       id="path948"
       inkscape:connector-curvature="0"
       sodipodi:nodetypes="ccc" />
    <path
       style="fill:none;fill-rule:evenodd;stroke:#000000;stroke-width:1.875;stroke-linecap:butt;stroke-linejoin:miter;stroke-miterlimit:4;stroke-dasharray:none;stroke-opacity:1"
       d="m 691.37106,931.23616 c 41.65381,22.47366 28.70404,5.96457 125.01062,48.86777"
       id="path954"
       inkscape:connector-curvature="0"
       sodipodi:nodetypes="cc" />
    <path
       style="fill:none;fill-rule:evenodd;stroke:#000000;stroke-width:1.875;stroke-linecap:butt;stroke-linejoin:miter;stroke-miterlimit:4;stroke-dasharray:none;stroke-opacity:1"
       d="m 821.77987,981.24043 c -16.47136,-20.64722 -9.2211,-34.28172 -39.91399,-59.56669"
       id="path956"
       inkscape:connector-curvature="0"
       sodipodi:nodetypes="cc" />
    <path
       style="fill:#ffffff;fill-opacity:1;fill-rule:evenodd;stroke:#000000;stroke-width:1.875;stroke-linecap:butt;stroke-linejoin:miter;stroke-miterlimit:4;stroke-dasharray:none;stroke-opacity:1"
       d="M 751.31934,732.35563 C 902.09087,909.97379 928.9886,813.94355 1024.0698,719.85455 968.33193,667.41207 861.05039,531.16703 751.31934,732.35563 Z"
       id="path958"
       inkscape:connector-curvature="0"
       sodipodi:nodetypes="ccc" />
    <path
       inkscape:connector-curvature="0"
       id="path960"
       d="m 832.17992,904.07572 c 15.69957,32.52078 60.79202,22.58668 88.00501,33.5179 -10.03067,15.28145 14.60816,33.77341 -13.43209,-47.69747 -1.70867,-4.96453 -0.33851,-38.39197 -12.30559,-58.04057"
       style="fill:none;fill-rule:evenodd;stroke:#000000;stroke-width:1.875;stroke-linecap:butt;stroke-linejoin:miter;stroke-miterlimit:4;stroke-dasharray:none;stroke-opacity:1"
       sodipodi:nodetypes="ccsc" />
    <path
       style="fill:none;fill-opacity:1;fill-rule:evenodd;stroke:#000000;stroke-width:1.875;stroke-linecap:butt;stroke-linejoin:miter;stroke-miterlimit:4;stroke-dasharray:none;stroke-opacity:1"
       d="m 826.32571,644.84818 c 2.26206,-29.84743 2.38865,-60.64396 31.82089,-78.41576 26.40738,33.89513 35.70591,25.24993 36.36672,60.23239"
       id="path1550"
       inkscape:connector-curvature="0"
       sodipodi:nodetypes="ccc" />
    <path
       style="fill:#ffffff;fill-opacity:1;fill-rule:evenodd;stroke:#000000;stroke-width:1.875;stroke-linecap:butt;stroke-linejoin:miter;stroke-miterlimit:4;stroke-dasharray:none;stroke-opacity:1"
       d="m 778.9923,683.48782 c -30.2497,-18.31061 -44.70199,-12.69595 -69.32408,-5.68229 -8.88111,42.53716 20.3134,43.19115 39.77612,54.5501"
       id="path1552"
       inkscape:connector-curvature="0"
       sodipodi:nodetypes="ccc" />
    <path
       style="fill:none;fill-rule:evenodd;stroke:#000000;stroke-width:1.875;stroke-linecap:butt;stroke-linejoin:miter;stroke-miterlimit:4;stroke-dasharray:none;stroke-opacity:1"
       d="m 911.56023,751.67544 c 6.98913,25.53647 66.94132,3.42375 88.64387,-3.40938"
       id="path2166"
       inkscape:connector-curvature="0"
       sodipodi:nodetypes="cc" />
    <path
       sodipodi:nodetypes="cscscscscsc"
       inkscape:connector-curvature="0"
       id="path1413"
       d="m 799.12875,963.97473 c 3.4645,3.3923 9.76717,43.07487 17.54873,51.19717 5.34912,5.5836 -0.72793,-10.83 -1.87236,-22.95017 3.6562,10.30437 8.95212,25.95597 14.11262,28.20517 8.72478,3.8023 -5.83217,-17.2452 -9.52359,-29.63287 5.93893,8.4978 11.72898,21.28777 18.70974,24.65637 9.33593,4.5051 -8.3221,-17.47157 -14.37127,-27.57847 7.68385,9.0098 20.47436,21.64027 22.42843,21.58117 5.93921,-0.1797 -10.44851,-17.20777 -18.52473,-25.17957 5.99661,0.5986 29.07823,13.6116 28.07716,7.5474 -0.50217,-3.0379 -32.88382,-19.7951 -44.71192,-28.4116"
       style="fill:#ffffff;fill-opacity:1;fill-rule:evenodd;stroke:#000000;stroke-width:1.875;stroke-linecap:butt;stroke-linejoin:miter;stroke-miterlimit:4;stroke-dasharray:none;stroke-opacity:1" />
    <path
       style="fill:#ffffff;fill-opacity:1;fill-rule:evenodd;stroke:#000000;stroke-width:1.875;stroke-linecap:butt;stroke-linejoin:miter;stroke-miterlimit:4;stroke-dasharray:none;stroke-opacity:1"
       d="m 904.12875,924.59964 c 3.4645,3.39239 9.76717,43.07499 17.54873,51.19729 5.34912,5.5836 -0.72793,-10.83 -1.87236,-22.95003 3.6562,10.30423 8.95212,25.95583 14.11262,28.20503 8.72478,3.8024 -5.83217,-17.2452 -9.52359,-29.63295 5.93893,8.4979 11.72898,21.28785 18.70974,24.65645 9.33593,4.5052 -8.3221,-17.47165 -14.37127,-27.57845 7.68385,9.00967 20.47436,21.64025 22.42843,21.58115 5.93921,-0.1797 -10.44851,-17.20773 -18.52473,-25.17967 5.99661,0.59858 29.07823,13.61161 28.07716,7.54757 -0.50217,-3.03809 -32.88382,-19.79525 -44.71192,-28.41177"
       id="path1415"
       inkscape:connector-curvature="0"
       sodipodi:nodetypes="cscscscscsc" />
    <circle
       style="opacity:1;fill:none;fill-opacity:1;stroke:#000000;stroke-width:1.875;stroke-linecap:round;stroke-linejoin:round;stroke-miterlimit:4;stroke-dasharray:none;stroke-dashoffset:0;stroke-opacity:1"
       id="path1417"
       cx="872.19452"
       cy="705.30109"
       r="14.205937" />
    <path
       sodipodi:nodetypes="cc"
       inkscape:connector-curvature="0"
       id="path852"
       d="m 924.74253,731.33376 c 6.98913,25.53647 61.25902,12.51543 82.96157,5.6823"
       style="fill:none;fill-rule:evenodd;stroke:#000000;stroke-width:1.875;stroke-linecap:butt;stroke-linejoin:miter;stroke-miterlimit:4;stroke-dasharray:none;stroke-opacity:1" />
    <path
       style="fill:none;fill-rule:evenodd;stroke:#000000;stroke-width:1.875;stroke-linecap:butt;stroke-linejoin:miter;stroke-miterlimit:4;stroke-dasharray:none;stroke-opacity:1"
       d="m 924.74253,731.33376 c 19.64338,-12.16871 10.72725,-14.3087 70.52875,-40.57899"
       id="path856"
       inkscape:connector-curvature="0"
       sodipodi:nodetypes="cc" />
  </g>
</svg>
