<?xml version="1.0" encoding="UTF-8" standalone="no"?>
<!-- Created with Inkscape (http://www.inkscape.org/) -->

<svg
   xmlns:dc="http://purl.org/dc/elements/1.1/"
   xmlns:cc="http://creativecommons.org/ns#"
   xmlns:rdf="http://www.w3.org/1999/02/22-rdf-syntax-ns#"
   xmlns:svg="http://www.w3.org/2000/svg"
   xmlns="http://www.w3.org/2000/svg"
   xmlns:sodipodi="http://sodipodi.sourceforge.net/DTD/sodipodi-0.dtd"
   xmlns:inkscape="http://www.inkscape.org/namespaces/inkscape"
   id="svg2"
   version="1.1"
   inkscape:version="0.91 r13725"
   width="356.70001"
   height="531.59998"
   viewBox="0 0 356.70001 531.59998"
   sodipodi:docname="self-portrait.svg">
  <metadata
     id="metadata8">
    <rdf:RDF>
      <cc:Work
         rdf:about="">
        <dc:format>image/svg+xml</dc:format>
        <dc:type
           rdf:resource="http://purl.org/dc/dcmitype/StillImage" />
        <dc:title />
      </cc:Work>
    </rdf:RDF>
  </metadata>
  <defs
     id="defs6" />
  <sodipodi:namedview
     pagecolor="#ffffff"
     bordercolor="#666666"
     borderopacity="1"
     objecttolerance="10"
     gridtolerance="10"
     guidetolerance="10"
     inkscape:pageopacity="0"
     inkscape:pageshadow="2"
     inkscape:window-width="1600"
     inkscape:window-height="847"
     id="namedview4"
     showgrid="false"
     inkscape:zoom="1.2866818"
     inkscape:cx="184.17895"
     inkscape:cy="263.6572"
     inkscape:window-x="0"
     inkscape:window-y="0"
     inkscape:window-maximized="1"
     inkscape:current-layer="svg2" />
  <g
     inkscape:groupmode="layer"
     id="layer1"
     inkscape:label="Layer 1" />
  <path
     style="fill:none;fill-rule:evenodd;stroke:#000000;stroke-width:1px;stroke-linecap:butt;stroke-linejoin:miter;stroke-opacity:1"
     d="m 176.33439,308.652 c 20.13702,0.8586 37.43145,-12.87776 48.99354,-28.15086 11.36117,-14.20987 14.77461,-32.94528 13.91711,-50.72191 0.088,-15.57394 -2.4854,-31.24284 -8.27788,-45.72393 -0.39788,-8.28615 -1.14601,-19.37105 -11.808,-19.89122 -9.64561,-2.30829 -21.29984,-2.48566 -27.63077,-11.39912 -8.02512,-7.6842 -17.365,-13.98888 -27.48519,-18.57339 -11.52801,2.75557 -24.96888,0.60192 -34.62306,8.81145 -6.82893,13.74577 -7.18681,30.05225 -16.04749,42.89838 -8.29533,18.77892 -13.406845,41.12156 -4.70057,61.30947 7.18586,31.97 34.59211,59.70494 67.66231,61.44113 z"
     id="path4140"
     inkscape:connector-curvature="0"
     sodipodi:nodetypes="ccccccccccc" />
  <path
     style="fill:none;fill-rule:evenodd;stroke:#000000;stroke-width:1px;stroke-linecap:butt;stroke-linejoin:miter;stroke-opacity:1"
     d="m 104.92105,231.94596 -4.46886,-10.10351 c -4.250532,-3.50183 -8.686141,-6.77123 -13.172856,-9.96219 -0.736543,-2.09912 -2.833156,0.49185 -1.257505,1.43379 0.742127,8.89439 2.567685,17.63284 5.909817,26.06636 2.29894,3.34853 5.241373,6.35811 5.69359,10.6232 1.347978,1.68307 3.702314,1.15844 5.578814,1.20943 1.30647,-0.0918 2.33021,-1.17481 3.36005,-1.91261 0.57935,-0.79727 2.375,-1.19507 2.24321,-2.19921"
     id="path4146"
     inkscape:connector-curvature="0"
     sodipodi:nodetypes="ccccccccc" />
  <path
     style="fill:none;fill-rule:evenodd;stroke:#000000;stroke-width:1px;stroke-linecap:butt;stroke-linejoin:miter;stroke-opacity:1"
     d="m 92.485961,218.34508 c -0.139626,2.87513 -0.859017,5.73506 -0.587424,8.61987 0.519638,1.78987 1.039277,3.57974 1.558915,5.36961 0.841956,0.0648 1.683918,0.12953 2.525877,0.1943"
     id="path4148"
     inkscape:connector-curvature="0" />
  <path
     style="fill:none;fill-rule:evenodd;stroke:#000000;stroke-width:1px;stroke-linecap:butt;stroke-linejoin:miter;stroke-opacity:1"
     d="m 98.509206,230.97447 c -0.906725,0.58289 -1.81345,1.16579 -2.720175,1.74868 2.196219,1.33082 4.260669,3.31817 6.994739,3.30312"
     id="path4150"
     inkscape:connector-curvature="0" />
  <path
     style="fill:none;fill-rule:evenodd;stroke:#000000;stroke-width:1px;stroke-linecap:butt;stroke-linejoin:miter;stroke-opacity:1"
     d="m 98.314908,239.91219 1.165789,4.08026 -1.554386,1.16579"
     id="path4152"
     inkscape:connector-curvature="0" />
  <path
     style="fill:none;fill-rule:evenodd;stroke:#000000;stroke-width:1px;stroke-linecap:butt;stroke-linejoin:miter;stroke-opacity:1"
     d="m 238.65312,249.37589 c 1.83118,-0.85457 3.95009,-1.51732 4.74364,-3.06365 0.96461,-2.62574 -0.024,-6.19627 2.00713,-9.10653 1.34442,-5.22206 1.59838,-10.64242 1.75895,-16.00882 0.50269,-1.68345 2.58095,-4.0616 2.36873,-5.16296 -2.23591,-0.50777 -4.3063,0.5374 -5.78317,2.83819 -2.46788,3.3636 -2.67683,7.6104 -4.37302,11.32516"
     id="path4154"
     inkscape:connector-curvature="0"
     sodipodi:nodetypes="ccccccc" />
  <path
     style="fill:none;fill-rule:evenodd;stroke:#000000;stroke-width:1px;stroke-linecap:butt;stroke-linejoin:miter;stroke-opacity:1"
     d="m 242.6785,230.78017 c 0.74058,0.93693 1.83237,1.66313 1.72511,3.10877 l -1.53081,2.52588"
     id="path4156"
     inkscape:connector-curvature="0"
     sodipodi:nodetypes="ccc" />
  <path
     style="fill:none;fill-rule:evenodd;stroke:#000000;stroke-width:1px;stroke-linecap:butt;stroke-linejoin:miter;stroke-opacity:1"
     d="m 85.018541,210.96708 c -13.361208,-14.38256 -6.366074,-34.77475 -7.938617,-52.12832 -0.449117,-21.49746 13.714351,-42.54598 28.361676,-54.1873 12.31058,-8.104402 13.33843,-28.248252 30.09583,-28.750352 19.11344,-0.83991 39.24983,15.13025 56.96813,0.53992 10.86759,-7.26873 23.75448,1.87109 29.50433,11.43366 10.18355,18.463592 20.46574,34.326522 30.45423,49.439522 8.31225,15.49349 12.06866,33.84317 6.88228,50.98956 -1.80263,9.70679 -3.45143,19.55943 -7.31366,28.70907"
     id="path4158"
     inkscape:connector-curvature="0"
     sodipodi:nodetypes="ccccccccc" />
  <path
     style="fill:none;fill-rule:evenodd;stroke:#000000;stroke-width:1px;stroke-linecap:butt;stroke-linejoin:miter;stroke-opacity:1"
     d="m 155.48947,220.98037 c -1.2831,2.41356 -3.63971,4.65875 -3.2109,7.62567 0.97557,1.98763 3.73207,3.46159 5.7353,2.03381 4.20373,-1.31129 8.89193,0.68458 11.46071,4.12261 2.37148,2.34868 6.67319,2.3308 8.84322,-0.29136 1.5589,-1.71713 2.77917,-3.97648 5.13666,-4.71599 3.13404,-1.31409 6.60301,-1.08535 9.91572,-0.93371 2.11865,-0.21368 3.04818,-2.7092 2.54036,-4.55606 -0.3437,-2.57381 -2.52325,-4.85617 -5.14866,-5.0845 -0.43146,-0.127 -0.85841,-0.27399 -1.265,-0.46761"
     id="path4160"
     inkscape:connector-curvature="0" />
  <path
     style="fill:none;fill-rule:evenodd;stroke:#000000;stroke-width:1px;stroke-linecap:butt;stroke-linejoin:miter;stroke-opacity:1"
     d="m 179.86145,198.68662 2.39115,13.50582 c 0.83765,3.47003 0.87136,6.00367 2.89889,8.22114"
     id="path4162"
     inkscape:connector-curvature="0"
     sodipodi:nodetypes="ccc" />
  <path
     style="fill:none;fill-rule:evenodd;stroke:#000000;stroke-width:1px;stroke-linecap:butt;stroke-linejoin:miter;stroke-opacity:1"
     d="m 187.41865,186.21723 c 6.82236,-1.13247 13.50071,-3.99376 20.53035,-3.22914 2.23642,0.16878 4.2755,1.16358 6.4709,1.5189 3.55482,0.76355 7.07972,1.96436 10.74839,1.971 1.00059,0.0513 2.02448,-0.30718 0.88922,-1.20871 -4.13254,-5.66448 -10.93361,-9.87738 -18.12522,-9.31034 -2.61163,0.37212 -5.23443,-0.27786 -7.84996,-0.38652 -4.09504,-0.34476 -8.55272,-0.18804 -12.04328,2.25073 -2.33357,1.11515 -4.23715,3.29496 -4.91231,5.80331 -0.64639,2.14669 1.88842,3.07041 3.57428,2.67911 l 0.34952,-0.0375 0.36811,-0.0508 z"
     id="path4164"
     inkscape:connector-curvature="0" />
  <path
     style="fill:none;fill-rule:evenodd;stroke:#000000;stroke-width:1px;stroke-linecap:butt;stroke-linejoin:miter;stroke-opacity:1"
     d="m 166.06955,185.08365 c 1.09393,-3.90697 -2.49167,-8.01686 -6.42137,-8.02175 -6.94121,-1.03188 -14.07213,-1.33278 -21.01387,-0.17941 -6.58193,1.54381 -12.99972,4.34379 -18.07631,8.88493 -1.48172,1.4876 -0.69896,4.85104 1.70033,4.61795 4.70375,0.044 8.9765,-2.20628 13.34007,-3.65323 4.77912,-1.74011 10.01146,-2.67349 15.04755,-1.56142 4.24622,0.66382 8.48995,2.07801 12.83294,1.48136 0.95928,-0.34541 1.77699,-0.97183 2.59066,-1.56843 z"
     id="path4168"
     inkscape:connector-curvature="0" />
  <path
     style="fill:none;fill-rule:evenodd;stroke:#000000;stroke-width:1px;stroke-linecap:butt;stroke-linejoin:miter;stroke-opacity:1"
     d="m 123.93814,199.25341 6.04576,-3.40074 5.29005,-3.02288 8.12399,-1.32251 6.04576,0 6.99042,0.56679 5.29004,4.34539"
     id="path4170"
     inkscape:connector-curvature="0" />
  <path
     style="fill:none;fill-rule:evenodd;stroke:#000000;stroke-width:1px;stroke-linecap:butt;stroke-linejoin:miter;stroke-opacity:1"
     d="m 189.49688,193.20765 6.42362,-2.64502 4.3454,-0.75572 7.17934,0.37786 5.6679,1.32251 5.47898,2.45609 1.51144,1.8893 0,-0.18893"
     id="path4172"
     inkscape:connector-curvature="0" />
  <path
     style="fill:none;fill-rule:evenodd;stroke:#000000;stroke-width:1px;stroke-linecap:butt;stroke-linejoin:miter;stroke-opacity:1"
     d="m 129.03925,199.63127 c 3.45451,-2.46883 7.00595,-5.2985 11.37603,-5.77883 3.04408,-0.49704 6.26075,-0.45941 9.16411,0.67913 2.45698,0.0532 4.14341,2.08229 6.19387,3.13365 1.05402,0.99926 2.84262,1.21516 3.4037,2.7043 -0.29507,1.63746 -2.33582,1.25479 -3.51426,0.98728 -3.1606,-0.43597 -6.35493,0.16671 -9.37614,1.082 -2.27851,0.41829 -4.61303,0.28566 -6.91079,0.47382 -3.25384,-0.20021 -6.43918,-1.20064 -9.32742,-2.68825 -0.34217,-0.18759 -0.67877,-0.38535 -1.0091,-0.5931 z"
     id="path4174"
     inkscape:connector-curvature="0" />
  <path
     style="fill:none;fill-rule:evenodd;stroke:#000000;stroke-width:1px;stroke-linecap:butt;stroke-linejoin:miter;stroke-opacity:1"
     d="m 191.59226,196.67708 c 3.56157,-2.44623 6.95794,-4.21892 11.10626,-4.48975 1.8922,-0.36068 3.81463,-0.13756 5.39655,0.65622 2.75139,0.64192 5.40939,1.70348 7.82103,3.1787 0.44674,1.0557 -0.004,2.33031 -1.00477,2.88113 -2.04946,1.18892 -4.50878,1.2492 -6.81501,1.36773 -4.86672,-0.13621 -9.72558,0.31416 -14.54871,0.92907 -1.05142,-0.0362 -2.73908,0.36958 -3.4204,-0.0363 -3.20574,-0.0683 -0.0756,-2.51989 1.46505,-4.4868 z"
     id="path4176"
     inkscape:connector-curvature="0"
     sodipodi:nodetypes="ccccccccc" />
  <path
     style="fill:none;fill-rule:evenodd;stroke:#000000;stroke-width:1px;stroke-linecap:butt;stroke-linejoin:miter;stroke-opacity:1"
     d="m 136.97432,194.90802 c -0.0174,2.10422 0.55942,4.302 1.99907,5.88828 1.26128,0.76757 2.82749,0.62027 4.19991,0.28155 0.92982,-0.24808 1.8689,-0.46436 2.80272,-0.69178 0.95902,-0.31269 1.71842,-1.21081 1.74839,-2.23702 0.15004,-1.25063 -0.24996,-2.48427 -0.73665,-3.61874"
     id="path4178"
     inkscape:connector-curvature="0" />
  <path
     style="fill:none;fill-rule:evenodd;stroke:#000000;stroke-width:1px;stroke-linecap:butt;stroke-linejoin:miter;stroke-opacity:1"
     d="m 197.55219,193.67155 c -0.0928,1.4896 0.18904,2.98443 0.69515,4.38233 0.75736,0.78714 1.8368,1.10497 2.75974,1.64143 1.87087,0.77557 4.25823,0.55863 5.73224,-0.91448 0.90647,-1.01837 0.96876,-2.49662 0.73553,-3.77562 -0.15102,-0.97673 -0.2029,-2.09857 -0.97098,-2.82028 -0.26453,-0.21033 -0.60716,-0.33999 -0.94793,-0.29972"
     id="path4180"
     inkscape:connector-curvature="0" />
  <path
     style="fill:none;fill-rule:evenodd;stroke:#000000;stroke-width:1px;stroke-linecap:butt;stroke-linejoin:miter;stroke-opacity:1"
     d="m 146.04296,254.60993 c 2.39811,-5.16972 8.13937,-7.58565 13.45248,-8.47892 6.68839,-1.35624 13.51565,-0.13488 20.26685,-0.50704 6.79388,-0.001 14.017,-0.0436 20.14373,3.305 2.15348,1.24414 4.08325,2.93393 5.4232,5.04316 -0.97118,6.94827 -6.81163,12.17543 -13.07831,14.62424 -13.11021,5.13372 -28.53666,3.37634 -40.45005,-3.98954 -3.16373,-2.37858 -5.19209,-6.10574 -5.7579,-9.9969 z"
     id="path4182"
     inkscape:connector-curvature="0" />
  <path
     style="fill:none;fill-rule:evenodd;stroke:#000000;stroke-width:1px;stroke-linecap:butt;stroke-linejoin:miter;stroke-opacity:1"
     d="m 183.16515,252.30182 c 5.28558,-1.10094 25.76244,-2.72373 15.6628,7.06153 -8.14766,4.91423 -18.36956,4.98642 -27.62686,5.3773 -6.87227,-1.00792 -21.5675,0.37091 -22.43207,-10.13609 10.89,-3.53054 23.19908,-1.7469 34.39613,-2.30274 z"
     id="path4184"
     inkscape:connector-curvature="0"
     sodipodi:nodetypes="ccccc" />
  <path
     style="fill:none;fill-rule:evenodd;stroke:#000000;stroke-width:1px;stroke-linecap:butt;stroke-linejoin:miter;stroke-opacity:1"
     d="m 131.30641,208.32206 c 3.82833,0.44817 7.68963,1.77434 11.55837,0.90431 4.58529,-0.65472 9.11619,-2.0011 13.12262,-4.3631 l 0.12876,-0.0657 0.12903,-0.0652"
     id="path4188"
     inkscape:connector-curvature="0" />
  <path
     style="fill:none;fill-rule:evenodd;stroke:#000000;stroke-width:1px;stroke-linecap:butt;stroke-linejoin:miter;stroke-opacity:1"
     d="m 191.38618,204.73238 c 3.01507,0.92528 5.95658,2.14317 9.0682,2.71635 4.78908,0.38644 10.13335,0.83316 14.94202,0.95974"
     id="path4190"
     inkscape:connector-curvature="0"
     sodipodi:nodetypes="ccc" />
  <path
     style="fill:none;fill-rule:evenodd;stroke:#000000;stroke-width:1px;stroke-linecap:butt;stroke-linejoin:miter;stroke-opacity:1"
     d="m 127.52781,212.28959 c 3.5267,0.21162 7.05339,-0.25774 10.58009,-1.51144"
     id="path4192"
     inkscape:connector-curvature="0"
     sodipodi:nodetypes="cc" />
  <path
     style="fill:none;fill-rule:evenodd;stroke:#000000;stroke-width:1px;stroke-linecap:butt;stroke-linejoin:miter;stroke-opacity:1"
     d="m 151.28952,224.73823 c -3.63316,5.73616 -6.35728,12.15895 -11.21936,17.02625 -2.04773,2.47569 -4.63807,4.76185 -7.87772,5.41086 -1.85394,0.60439 -4.09283,0.41228 -5.45542,-1.11529"
     id="path4194"
     inkscape:connector-curvature="0" />
  <path
     style="fill:none;fill-rule:evenodd;stroke:#000000;stroke-width:1px;stroke-linecap:butt;stroke-linejoin:miter;stroke-opacity:1"
     d="m 198.1158,223.49481 c 2.90031,5.78016 6.61206,11.54228 11.58712,15.74816 2.6458,1.88441 5.04384,3.82631 7.99817,5.19987 1.46142,0.54951 3.91636,-1.05014 2.60802,-2.63497"
     id="path4196"
     inkscape:connector-curvature="0"
     sodipodi:nodetypes="cccc" />
  <path
     style="fill:none;fill-rule:evenodd;stroke:#000000;stroke-width:1px;stroke-linecap:butt;stroke-linejoin:miter;stroke-opacity:1"
     d="m 121.82499,277.02315 c 1.47175,16.55565 6.84474,32.59351 7.03844,49.26971 -0.12401,6.25387 -1.45721,12.1853 -5.09546,17.37459"
     id="path4198"
     inkscape:connector-curvature="0" />
  <path
     style="fill:none;fill-rule:evenodd;stroke:#000000;stroke-width:1px;stroke-linecap:butt;stroke-linejoin:miter;stroke-opacity:1"
     d="m 223.24867,283.0464 c 0.15454,7.13048 -1.21049,14.76013 0.63715,21.7446 2.2884,7.72801 5.14293,15.61598 9.07781,22.94399"
     id="path4200"
     inkscape:connector-curvature="0"
     sodipodi:nodetypes="ccc" />
  <path
     style="fill:none;fill-rule:evenodd;stroke:#000000;stroke-width:1px;stroke-linecap:butt;stroke-linejoin:miter;stroke-opacity:1"
     d="m 128.43113,322.87754 c -2.11309,3.19007 -4.19005,6.45153 -5.41149,10.09692 -1.70973,3.42404 -1.76716,7.32482 -1.62236,11.05776 -0.37372,5.14849 -2.18863,10.27371 -1.05336,15.45654 0.72641,7.56572 -0.7784,15.11568 -0.49527,22.69081 -0.0707,6.07285 0.51183,12.23362 -0.74384,18.22296 -0.1943,-0.3886 -0.3886,-0.77719 -0.5829,-1.16579"
     id="path4202"
     inkscape:connector-curvature="0" />
  <path
     style="fill:none;fill-rule:evenodd;stroke:#000000;stroke-width:1px;stroke-linecap:butt;stroke-linejoin:miter;stroke-opacity:1"
     d="m 118.32763,400.59683 c -6.59356,0.16451 -9.34151,7.79402 -14.98882,10.26571 -4.679298,3.48559 -10.330912,1.00552 -14.111069,-2.40817 -6.145328,-0.20776 -0.416951,-11.494 -0.384265,-16.67988 3.969507,-13.28369 7.315638,-26.76071 10.244908,-40.31407 2.901976,-6.17901 6.077096,-12.38364 12.031686,-16.18352 5.97826,-5.07984 10.72454,-11.47911 16.92247,-16.28533"
     id="path4204"
     inkscape:connector-curvature="0"
     sodipodi:nodetypes="ccccccc" />
  <path
     style="fill:none;fill-rule:evenodd;stroke:#000000;stroke-width:1px;stroke-linecap:butt;stroke-linejoin:miter;stroke-opacity:1"
     d="m 224.60876,302.86482 c 8.59451,9.5138 11.6636,23.96826 12.69337,36.15059 -1.34333,14.78745 -2.17172,29.59976 -2.42265,44.44516 -1.42498,5.92881 -1.509,7.94672 4.97017,6.94339 8.46082,2.9209 16.40573,7.25181 25.31721,8.93188 9.5488,0.72014 1.22032,-13.42485 2.80113,-19.04938 -1.75994,-16.65285 -5.96932,-33.12959 -12.87387,-48.36362 -9.43971,-9.20831 -21.54865,-19.54064 -30.29106,-29.44662"
     id="path4206"
     inkscape:connector-curvature="0"
     sodipodi:nodetypes="cccccccc" />
  <path
     style="fill:none;fill-rule:evenodd;stroke:#000000;stroke-width:1px;stroke-linecap:butt;stroke-linejoin:miter;stroke-opacity:1"
     d="m 123.37938,363.48587 c 4.41741,16.5081 12.71729,29.37334 30.45502,37.29297 7.98094,3.51633 15.87988,10.82859 20.10136,9.44346 11.24072,-3.68826 19.53057,-14.30889 27.13918,-18.95443 10.90551,-11.33259 24.89447,-26.91828 31.88865,-41.18858"
     id="path4208"
     inkscape:connector-curvature="0"
     sodipodi:nodetypes="ccscc" />
  <path
     style="fill:none;fill-rule:evenodd;stroke:#000000;stroke-width:1px;stroke-linecap:butt;stroke-linejoin:miter;stroke-opacity:1"
     d="m 124.15657,385.05297 c 5.08463,5.6629 10.4256,11.53507 14.68089,15.47594 8.04789,5.79784 18.11113,10.47903 26.93944,14.71709 6.30227,5.50346 13.43066,1.63188 19.73432,-2.47767 13.55492,-8.81833 25.47527,-19.96662 35.60017,-32.57281"
     id="path4210"
     inkscape:connector-curvature="0"
     sodipodi:nodetypes="ccccc" />
  <path
     style="fill:none;fill-rule:evenodd;stroke:#000000;stroke-width:1px;stroke-linecap:butt;stroke-linejoin:miter;stroke-opacity:1"
     d="m 229.85481,360.57139 c -2.08568,7.04733 -5.16539,13.74185 -8.27525,20.38309 1.05629,4.61161 -1.98611,8.70643 -4.35692,12.34933 -2.00244,3.42926 -3.9806,6.88856 -6.55583,9.9321 -3.13299,3.9848 -6.51767,7.79624 -9.17954,12.12759"
     id="path4212"
     inkscape:connector-curvature="0" />
  <path
     style="fill:none;fill-rule:evenodd;stroke:#000000;stroke-width:1px;stroke-linecap:butt;stroke-linejoin:miter;stroke-opacity:1"
     d="m 122.79649,367.95473 c 1.4187,14.33784 1.47353,29.15684 6.05243,42.90874 3.25353,5.83971 5.21558,12.21899 6.18835,18.1009 -0.38167,5.93786 -0.15052,11.97983 -1.79036,17.76127 -0.86444,3.79285 -2.15804,7.46359 -3.26139,11.18917"
     id="path4214"
     inkscape:connector-curvature="0"
     sodipodi:nodetypes="ccccc" />
  <path
     style="fill:none;fill-rule:evenodd;stroke:#000000;stroke-width:1px;stroke-linecap:butt;stroke-linejoin:miter;stroke-opacity:1"
     d="m 202.45876,414.19771 c 7.8664,-3.82529 15.73866,-7.63944 23.66176,-11.34628 2.47152,-4.31223 6.03399,-8.06988 7.42598,-12.941"
     id="path4216"
     inkscape:connector-curvature="0" />
  <path
     style="fill:none;fill-rule:evenodd;stroke:#000000;stroke-width:1px;stroke-linecap:butt;stroke-linejoin:miter;stroke-opacity:1"
     d="m 201.68157,415.55779 c -1.85789,3.96662 -3.88454,8.04903 -4.0031,12.51884 -1.25773,9.45658 -0.52661,19.03807 0.50574,28.47812"
     id="path4220"
     inkscape:connector-curvature="0" />
  <path
     style="fill:none;fill-rule:evenodd;stroke:#000000;stroke-width:1px;stroke-linecap:butt;stroke-linejoin:miter;stroke-opacity:1"
     d="m 221.30569,409.92315 c -0.34526,6.47598 0.21819,13.11174 -1.69309,19.40284 -0.96139,3.90831 -1.72674,7.94221 -1.26867,11.97878 0.0318,5.24062 -0.58624,10.49319 0.0611,15.71903"
     id="path4222"
     inkscape:connector-curvature="0" />
  <path
     style="fill:none;fill-rule:evenodd;stroke:#000000;stroke-width:1px;stroke-linecap:butt;stroke-linejoin:miter;stroke-opacity:1"
     d="m 119.68771,400.79113 c 1.16579,3.2383 2.33158,6.47661 3.49737,9.71491 2.94647,3.72858 5.86495,7.56473 9.62885,10.52004 l 0.29758,0.54383 0.17708,0.59402"
     id="path4224"
     inkscape:connector-curvature="0" />
  <path
     style="fill:none;fill-rule:evenodd;stroke:#000000;stroke-width:1px;stroke-linecap:butt;stroke-linejoin:miter;stroke-opacity:1"
     d="m 122.40789,414.00341 c -1.18323,2.40392 -2.67649,4.74971 -3.66921,7.18936 l -0.40129,4.71974 c -4.45957,8.77951 -8.37174,17.48997 -12.47412,26.44664 -1.58215,1.98998 -1.88021,3.14171 -1.35439,5.42803"
     id="path4226"
     inkscape:connector-curvature="0"
     sodipodi:nodetypes="ccccc" />
  <path
     style="fill:none;fill-rule:evenodd;stroke:#000000;stroke-width:1px;stroke-linecap:butt;stroke-linejoin:miter;stroke-opacity:1"
     d="m 102.20087,345.80473 c -19.477311,6.59933 -38.789741,13.87182 -57.005681,23.48356 -10.132515,4.8296 -20.22777,9.9092 -29.315922,16.552 -5.644784,9.09866 -15.54738113,16.56896 -16.13737995,28.031 0.72898163,12.23779 3.65098825,24.26966 7.78705015,35.80299 0.9676296,2.81863 1.9681784,5.62579 2.9631678,8.43483"
     id="path4228"
     inkscape:connector-curvature="0" />
  <path
     style="fill:none;fill-rule:evenodd;stroke:#000000;stroke-width:1px;stroke-linecap:butt;stroke-linejoin:miter;stroke-opacity:1"
     d="m 256.08508,329.87227 c 11.79926,6.37564 24.41347,12.398 38.07616,12.75665 19.74973,3.20652 39.68086,8.64093 56.31524,20.16744 2.21275,1.33387 4.42255,2.67268 6.64368,3.99258"
     id="path4230"
     inkscape:connector-curvature="0" />
  <path
     style="fill:none;fill-rule:evenodd;stroke:#000000;stroke-width:1px;stroke-linecap:butt;stroke-linejoin:miter;stroke-opacity:1"
     d="m 357.50876,368.73192 -7.38334,22.5386 -6.60614,19.42982 -2.33158,17.87544 c 0,0 -2.72017,30.69912 -2.72017,29.14473"
     id="path4232"
     inkscape:connector-curvature="0" />
  <path
     style="fill:none;fill-rule:evenodd;stroke:#000000;stroke-width:1px;stroke-linecap:butt;stroke-linejoin:miter;stroke-opacity:1"
     d="m 152.91271,260.79925 c 1.01838,2.52377 3.12275,-1.83273 3.90481,1.20589 2.02451,1.7564 1.8416,-3.04714 5.68632,-0.37361 2.19094,0.69023 2.86831,-2.32675 4.91944,0.31422 2.15606,0.9622 4.79642,0.9098 6.86224,-0.27211 1.6002,1.93562 4.21202,1.22924 6.41285,1.16527 1.78197,-2.04255 2.54357,-2.19604 4.40609,-0.67923 2.48541,0.86199 3.39764,-3.85926 5.08866,-1.05062 1.62273,-0.27655 2.39116,-2.2285 3.38769,-0.075 0.36215,0.0778 0.62893,-0.28929 0.81458,-0.5262"
     id="path4238"
     inkscape:connector-curvature="0"
     sodipodi:nodetypes="cccccccccc" />
  <path
     style="fill:none;fill-rule:evenodd;stroke:#000000;stroke-width:1px;stroke-linecap:butt;stroke-linejoin:miter;stroke-opacity:1"
     d="m 174.33409,256.28182 -0.0486,5.02675"
     id="path4240"
     inkscape:connector-curvature="0"
     sodipodi:nodetypes="cc" />
  <path
     style="fill:none;fill-rule:evenodd;stroke:#000000;stroke-width:1px;stroke-linecap:butt;stroke-linejoin:miter;stroke-opacity:1"
     d="m 182.25175,255.72881 0.19429,5.16759"
     id="path4242"
     inkscape:connector-curvature="0"
     sodipodi:nodetypes="cc" />
  <path
     style="fill:none;fill-rule:evenodd;stroke:#000000;stroke-width:1px;stroke-linecap:butt;stroke-linejoin:miter;stroke-opacity:1"
     d="m 188.7774,256.40397 0,3.53272"
     id="path4244"
     inkscape:connector-curvature="0"
     sodipodi:nodetypes="cc" />
  <path
     style="fill:none;fill-rule:evenodd;stroke:#000000;stroke-width:1px;stroke-linecap:butt;stroke-linejoin:miter;stroke-opacity:1"
     d="m 166.12499,255.45605 c -0.0648,1.61915 -0.12953,3.48117 -0.1943,5.10032"
     id="path4248"
     inkscape:connector-curvature="0"
     sodipodi:nodetypes="cc" />
  <path
     style="fill:none;fill-rule:evenodd;stroke:#000000;stroke-width:1px;stroke-linecap:butt;stroke-linejoin:miter;stroke-opacity:1"
     d="m 159.51885,255.65035 c 0,1.42485 0.21872,3.83409 0.48575,4.66316"
     id="path4250"
     inkscape:connector-curvature="0"
     sodipodi:nodetypes="cc" />
  <path
     style="fill:none;fill-rule:evenodd;stroke:#000000;stroke-width:1px;stroke-linecap:butt;stroke-linejoin:miter;stroke-opacity:1"
     d="m 165.50564,327.89139 c 3.30206,3.16049 7.29022,5.13859 11.36038,6.76522 2.28278,0.85359 4.78986,0.74669 6.72804,-0.53214 2.51711,-1.58257 6.34508,-4.70664 8.49617,-6.71599"
     id="path5872"
     inkscape:connector-curvature="0"
     sodipodi:nodetypes="cccc" />
  <path
     style="fill:none;fill-rule:evenodd;stroke:#000000;stroke-width:1px;stroke-linecap:butt;stroke-linejoin:miter;stroke-opacity:1"
     d="M 274.22964,313.34761 Z"
     id="path5874"
     inkscape:connector-curvature="0" />
  <path
     style="fill:none;fill-rule:evenodd;stroke:#000000;stroke-width:1px;stroke-linecap:butt;stroke-linejoin:miter;stroke-opacity:1"
     d="m 161.59912,280.8521 c 4.61386,2.50588 9.79154,4.1636 15.08409,4.05676 6.80707,0.0269 13.31677,-2.62493 19.1124,-5.99974"
     id="path6028"
     inkscape:connector-curvature="0" />
</svg>
