<?xml version="1.0" encoding="UTF-8" standalone="no"?>
<!-- Created with Inkscape (http://www.inkscape.org/) -->

<!-- 
Artwork by John Samuel. 
This work is licensed under a Creative Commons Attribution-ShareAlike 4.0 International License. 
-->

<svg
   xmlns:dc="http://purl.org/dc/elements/1.1/"
   xmlns:cc="http://creativecommons.org/ns#"
   xmlns:rdf="http://www.w3.org/1999/02/22-rdf-syntax-ns#"
   xmlns:svg="http://www.w3.org/2000/svg"
   xmlns="http://www.w3.org/2000/svg"
   xmlns:sodipodi="http://sodipodi.sourceforge.net/DTD/sodipodi-0.dtd"
   xmlns:inkscape="http://www.inkscape.org/namespaces/inkscape"
   sodipodi:docname="spiral.svg"
   inkscape:version="0.91 r13725"
   version="1.1"
   id="svg2"
   viewBox="0 0 1052.3622 744.09448"
   height="210mm"
   width="297mm">
  <sodipodi:namedview
     inkscape:snap-object-midpoints="true"
     inkscape:window-maximized="1"
     inkscape:window-y="0"
     inkscape:window-x="0"
     inkscape:window-height="847"
     inkscape:window-width="1600"
     showgrid="false"
     inkscape:current-layer="layer1"
     inkscape:document-units="px"
     inkscape:cy="372.04724"
     inkscape:cx="526.1811"
     inkscape:zoom="0.9192381"
     inkscape:pageshadow="2"
     inkscape:pageopacity="0.0"
     borderopacity="1.0"
     bordercolor="#666666"
     pagecolor="#ffffff"
     id="base"
     showguides="false"
     inkscape:guide-bbox="true">
    <sodipodi:guide
       position="526.1811,372.04727"
       orientation="1,0"
       id="guide7552" />
    <sodipodi:guide
       position="526.1811,372.04727"
       orientation="0,1"
       id="guide7554" />
    <inkscape:grid
       type="xygrid"
       id="grid5069" />
  </sodipodi:namedview>
  <defs
     id="defs4" />
  <metadata
     id="metadata7">
    <rdf:RDF>
      <cc:Work
         rdf:about="">
        <dc:format>image/svg+xml</dc:format>
        <dc:type
           rdf:resource="http://purl.org/dc/dcmitype/StillImage" />
        <dc:title />
      </cc:Work>
    </rdf:RDF>
  </metadata>
  <g
     inkscape:label="Layer 1"
     inkscape:groupmode="layer"
     id="layer1"
     transform="translate(0,-308.26772)">
    <path
       sodipodi:type="spiral"
       style="fill:none;fill-rule:evenodd;stroke:#000000;stroke-width:1px;stroke-linecap:butt;stroke-linejoin:miter;stroke-opacity:1"
       id="path4148"
       sodipodi:cx="526.18109"
       sodipodi:cy="680.31494"
       sodipodi:expansion="1"
       sodipodi:revolution="10"
       sodipodi:radius="374.70291"
       sodipodi:argument="-65.245735"
       sodipodi:t0="0"
       d="m 526.18109,680.31494 c -4.20847,-3.74892 2.97716,-7.52252 6.23095,-6.99476 8.81759,1.43021 10.86112,12.50062 7.75857,19.45667 -5.54974,12.44273 -21.69139,14.79506 -32.68237,8.52237 -16.12971,-9.20542 -18.83689,-31.0037 -9.28619,-45.90809 12.72959,-19.86519 40.35875,-22.92415 59.1338,-10.04998 23.62649,16.20082 27.03482,49.73404 10.8138,72.3595 -19.64584,27.40247 -59.12075,31.15903 -85.58522,11.57761 -31.18747,-23.07603 -35.29172,-68.51454 -12.34141,-98.81094 26.49704,-34.97838 77.91307,-39.43007 112.03664,-13.10521 38.77337,29.91198 43.5724,87.31494 13.86902,125.26235 -33.32269,42.57127 -96.71923,47.7176 -138.48806,14.63283 -46.37132,-36.73036 -51.86495,-106.12536 -15.39664,-151.71377 40.13575,-50.17302 115.5329,-56.01397 164.93949,-16.16045 53.97598,43.53939 60.16427,124.94155 16.92425,178.1652 -46.94167,57.77997 -134.35109,64.31561 -191.39091,17.68806 -61.58477,-50.34285 -68.4678,-143.76136 -18.45187,-204.61662 53.74316,-65.39024 153.17223,-72.62068 217.84234,-19.21567 69.19625,57.14272 76.77412,162.58359 19.97948,231.06804 -60.5417,73.00273 -171.9954,80.92806 -244.29376,20.74329 C 330.9834,749.2752 322.71059,631.80782 386.28591,555.6959 453.6241,475.07909 577.10592,466.45879 657.03109,533.425 c 84.4243,70.73586 93.3921,200.23275 23.0347,283.97089 -74.13321,88.23204 -209.64571,97.54737 -297.1966,23.79851 C 290.82919,763.66412 281.16632,622.13552 358.30687,530.77209 439.23398,434.92394 586.7791,424.91352 681.95489,505.44596 781.61136,589.76969 791.96934,743.3317 708.04483,842.3197 620.32467,945.78462 460.74544,956.49018 357.94539,869.17344 250.67186,778.05701 239.61873,612.46027 330.32783,505.84828 424.84038,394.76605 596.45489,383.36532 706.8787,477.46693 821.76976,575.37546 833.51808,753.00798 736.02387,867.2435 634.71947,985.94348 451.06873,998.03941 333.02158,897.15248 210.5126,792.45233 198.06906,602.78317 302.3488,480.92447 410.44461,354.60642 606.13235,341.81525 731.80251,449.48789 861.92972,560.97927 875.06851,762.68576 764.0029,892.16731 649.11604,1026.1037 441.39066,1039.5902 308.09777,925.13151 170.35207,806.84923 156.51801,593.10483 274.36976,456.00067 396.04739,314.44563 615.81094,300.26393 756.72632,421.50885 902.09074,546.58177 916.62008,772.36457 791.98194,917.09112 663.5138,1066.265 431.71163,1081.142 283.17396,953.11055 130.19064,821.24723 114.96599,583.42561 246.39072,431.07686" />
  </g>
</svg>
