<?xml version="1.0" encoding="UTF-8" standalone="no"?>
<!-- Created with Inkscape (http://www.inkscape.org/) -->

<!-- 
Artwork by John Samuel. 
This work is licensed under a Creative Commons Attribution-ShareAlike 4.0 International License. 
-->

<svg
   xmlns:dc="http://purl.org/dc/elements/1.1/"
   xmlns:cc="http://creativecommons.org/ns#"
   xmlns:rdf="http://www.w3.org/1999/02/22-rdf-syntax-ns#"
   xmlns:svg="http://www.w3.org/2000/svg"
   xmlns="http://www.w3.org/2000/svg"
   xmlns:sodipodi="http://sodipodi.sourceforge.net/DTD/sodipodi-0.dtd"
   xmlns:inkscape="http://www.inkscape.org/namespaces/inkscape"
   sodipodi:docname="spiral-dense-inner.svg"
   inkscape:version="0.91 r13725"
   version="1.1"
   id="svg2"
   viewBox="0 0 1052.3622 744.09448"
   height="210mm"
   width="297mm">
  <sodipodi:namedview
     inkscape:snap-object-midpoints="true"
     inkscape:window-maximized="1"
     inkscape:window-y="0"
     inkscape:window-x="0"
     inkscape:window-height="847"
     inkscape:window-width="1600"
     showgrid="false"
     inkscape:current-layer="layer1"
     inkscape:document-units="px"
     inkscape:cy="372.04724"
     inkscape:cx="526.1811"
     inkscape:zoom="0.89702955"
     inkscape:pageshadow="2"
     inkscape:pageopacity="0.0"
     borderopacity="1.0"
     bordercolor="#666666"
     pagecolor="#ffffff"
     id="base"
     showguides="false"
     inkscape:guide-bbox="true">
    <sodipodi:guide
       position="526.1811,372.04727"
       orientation="1,0"
       id="guide7552" />
    <sodipodi:guide
       position="526.1811,372.04727"
       orientation="0,1"
       id="guide7554" />
    <inkscape:grid
       type="xygrid"
       id="grid5069" />
  </sodipodi:namedview>
  <defs
     id="defs4" />
  <metadata
     id="metadata7">
    <rdf:RDF>
      <cc:Work
         rdf:about="">
        <dc:format>image/svg+xml</dc:format>
        <dc:type
           rdf:resource="http://purl.org/dc/dcmitype/StillImage" />
        <dc:title />
      </cc:Work>
    </rdf:RDF>
  </metadata>
  <g
     inkscape:label="Layer 1"
     inkscape:groupmode="layer"
     id="layer1"
     transform="translate(0,-308.26772)">
    <path
       sodipodi:type="spiral"
       style="fill:none;fill-rule:evenodd;stroke:#000000;stroke-width:1.5;stroke-linecap:butt;stroke-linejoin:miter;stroke-opacity:1;stroke-miterlimit:4;stroke-dasharray:none"
       id="path4148"
       sodipodi:cx="526.18109"
       sodipodi:cy="680.31494"
       sodipodi:expansion="3"
       sodipodi:revolution="10"
       sodipodi:radius="374.70291"
       sodipodi:argument="-65.245735"
       sodipodi:t0="0"
       d="m 526.18109,680.31494 c -0.002,-0.001 0.004,-0.004 0.004,-0.004 0.0191,-0.007 0.0306,0.022 0.0311,0.0355 0.002,0.0693 -0.0855,0.0957 -0.14013,0.0869 -0.16494,-0.0268 -0.21472,-0.22906 -0.17464,-0.36728 0.0928,-0.31985 0.48796,-0.403 0.76658,-0.29722 0.54818,0.20811 0.67617,0.89738 0.4575,1.38764 -0.38545,0.86421 -1.4926,1.0498 -2.28005,0.65832 -1.28224,-0.63745 -1.53949,-2.30889 -0.90256,-3.4934 0.97681,-1.81659 3.38156,-2.16086 5.0773,-1.19309 2.48152,1.41624 2.92949,4.74591 1.53275,7.08134 -1.96846,3.29136 -6.43722,3.86098 -9.5551,1.92442 -4.26039,-2.64619 -4.97093,-8.49081 -2.37097,-12.5482 3.46217,-5.40289 10.94199,-6.27493 16.11022,-2.87525 6.73317,4.42911 7.78857,13.82606 3.44013,20.29076 -5.55974,8.26552 -17.17832,9.52747 -25.13942,4.06849 -10.01422,-6.8668 -11.50718,-21.03409 -4.76317,-30.70581 8.36301,-11.99355 25.42867,-13.74332 37.0395,-5.52704 14.21782,10.0611 16.25149,30.39738 6.36298,44.1901 -11.97379,16.70132 -35.97551,19.04727 -52.20721,7.27384 -19.45832,-14.11381 -22.14625,-42.19837 -8.26248,-61.14042 16.49389,-22.50312 49.10128,-25.56403 71.03932,-9.33178 25.85001,19.12677 29.31621,56.71954 10.48459,81.95353 -22.02515,29.51327 -65.08845,33.41836 -93.93261,11.72378 -33.50721,-25.20179 -37.8861,-74.24333 -13.05223,-107.02619 28.6694,-37.8461 84.21949,-42.73501 121.28386,-14.47277 42.54422,32.44071 47.98067,95.05222 15.98829,136.7552 -36.52845,47.61588 -106.77685,53.63869 -153.48982,17.60164 -53.07537,-40.94535 -59.72466,-119.42867 -19.3157,-171.53731 45.70413,-58.93696 133.04299,-66.25417 190.94727,-21.13333 65.21495,50.81754 73.24281,147.65514 23.05738,211.76931 -56.29828,71.92362 -163.30039,80.70617 -234.05299,25.09073 -79.07727,-62.1591 -88.65986,-180.01409 -27.23624,-257.84795 68.41271,-86.69018 197.83151,-97.11945 283.20375,-29.49676 94.77665,75.07185 106.10055,216.78798 31.87518,310.17 C 615.8581,936.72924 461.08855,948.99702 359.21105,867.75263 246.78365,778.095 233.52142,609.49334 322.21391,498.62038 419.82364,376.60013 603.05865,362.29159 723.44135,458.87398 855.58516,564.89224 870.99317,763.58444 766.06636,894.00544 651.17039,1036.8178 436.17459,1053.3798 295.17244,939.64127 141.13224,815.3857 123.36055,583.2173 246.39072,431.07686" />
  </g>
</svg>
