<?xml version="1.0" encoding="UTF-8" standalone="no"?>
<!-- Created with Inkscape (http://www.inkscape.org/) -->

<!-- 
Artwork by John Samuel. 
This work is licensed under a Creative Commons Attribution-ShareAlike 4.0 International License. 
-->

<svg
   xmlns:dc="http://purl.org/dc/elements/1.1/"
   xmlns:cc="http://creativecommons.org/ns#"
   xmlns:rdf="http://www.w3.org/1999/02/22-rdf-syntax-ns#"
   xmlns:svg="http://www.w3.org/2000/svg"
   xmlns="http://www.w3.org/2000/svg"
   xmlns:sodipodi="http://sodipodi.sourceforge.net/DTD/sodipodi-0.dtd"
   xmlns:inkscape="http://www.inkscape.org/namespaces/inkscape"
   sodipodi:docname="spiral-dense-outer.svg"
   inkscape:version="0.91 r13725"
   version="1.1"
   id="svg2"
   viewBox="0 0 1052.3622 744.09448"
   height="210mm"
   width="297mm">
  <sodipodi:namedview
     inkscape:snap-object-midpoints="true"
     inkscape:window-maximized="1"
     inkscape:window-y="0"
     inkscape:window-x="0"
     inkscape:window-height="847"
     inkscape:window-width="1600"
     showgrid="false"
     inkscape:current-layer="layer1"
     inkscape:document-units="px"
     inkscape:cy="372.04724"
     inkscape:cx="526.1811"
     inkscape:zoom="0.9192381"
     inkscape:pageshadow="2"
     inkscape:pageopacity="0.0"
     borderopacity="1.0"
     bordercolor="#666666"
     pagecolor="#ffffff"
     id="base"
     showguides="false"
     inkscape:guide-bbox="true">
    <sodipodi:guide
       position="526.1811,372.04727"
       orientation="1,0"
       id="guide7552" />
    <sodipodi:guide
       position="526.1811,372.04727"
       orientation="0,1"
       id="guide7554" />
    <inkscape:grid
       type="xygrid"
       id="grid5069" />
  </sodipodi:namedview>
  <defs
     id="defs4" />
  <metadata
     id="metadata7">
    <rdf:RDF>
      <cc:Work
         rdf:about="">
        <dc:format>image/svg+xml</dc:format>
        <dc:type
           rdf:resource="http://purl.org/dc/dcmitype/StillImage" />
        <dc:title></dc:title>
      </cc:Work>
    </rdf:RDF>
  </metadata>
  <g
     inkscape:label="Layer 1"
     inkscape:groupmode="layer"
     id="layer1"
     transform="translate(0,-308.26772)">
    <path
       sodipodi:type="spiral"
       style="fill:none;fill-rule:evenodd;stroke:#000000;stroke-width:1px;stroke-linecap:butt;stroke-linejoin:miter;stroke-opacity:1"
       id="path4148"
       sodipodi:cx="526.18109"
       sodipodi:cy="680.31494"
       sodipodi:expansion="0.5"
       sodipodi:revolution="10"
       sodipodi:radius="374.70291"
       sodipodi:argument="-65.245735"
       sodipodi:t0="0"
       d="m 526.18109,680.31494 c -34.57561,-30.80005 9.17179,-57.72478 39.408,-44.23874 38.2265,17.04989 44.00029,67.43993 23.15503,99.97007 -28.2192,44.03757 -89.8159,50.28954 -130.81969,20.89242 -49.82451,-35.72103 -56.37691,-107.71059 -20.22082,-155.43975 41.79495,-55.17296 123.0471,-62.02064 176.59645,-20.10483 60.11003,47.05118 67.25564,136.6811 20.24337,195.45033 -51.75733,64.70096 -149.07754,72.14341 -212.62611,20.51521 -69.00302,-56.05951 -76.7383,-160.52204 -20.86228,-228.50737 60.04813,-73.06162 171.20486,-81.08409 243.35005,-21.25356 76.91233,63.78395 85.21563,181.26031 21.67118,257.33526 -67.31014,80.58323 -190.78731,89.16073 -270.59673,22.10427 -84.09683,-70.65877 -92.94193,-199.8613 -22.54594,-283.23663 73.85441,-87.47141 208.54126,-96.57769 295.33506,-22.99173 90.72205,76.91643 100.08334,216.87445 23.43864,306.95629 -79.86039,93.86131 -224.89934,103.47171 -318.15274,23.88467 -96.8998,-82.69905 -106.7537,-232.64781 -24.32843,-328.96791 85.44299,-99.84655 240.14656,-109.93865 339.43831,-24.769 102.70935,88.10116 113.0346,247.41829 25.20574,349.59499 C 623.18902,953.00387 459.38774,963.55751 354.4056,873.14714 246.19639,779.95765 235.41889,611.79134 328.33943,504.077 423.9713,393.21965 596.39249,382.22258 706.77124,477.58756 820.21518,575.6008 831.42775,752.17466 733.67918,865.15485 633.34122,981.12793 452.7099,992.55212 337.18696,892.47649 218.73855,789.86658 207.10642,605.26677 309.4564,487.25595 414.28893,366.38273 602.77388,354.54617 723.2211,459.12123 846.47156,566.13014 858.50921,758.42188 751.7553,881.25711 642.61349,1006.8399 446.58873,1019.0755 321.41111,910.18618 193.53833,798.95243 181.10796,599.26431 292.09168,471.7874 405.3787,341.66488 608.66426,329.0426 738.39967,442.08203 870.73377,557.38571 883.54516,764.20624 768.48666,896.16145 651.20104,1030.6708 440.90486,1043.6687 306.76663,926.62583 170.11651,807.39125 156.93484,593.67589 275.92898,457.38962 397.08113,318.63175 614.1619,305.2687 752.56282,426.18272 893.39697,549.22253 906.93901,769.61737 784.13506,910.1011 659.23616,1052.9814 435.57628,1066.7001 293.04021,942.03486 148.14262,815.30415 134.24938,588.42619 260.74864,443.86693 389.28504,296.97971 619.33612,282.9141 765.8906,411.22118 914.7409,541.53822 928.97682,774.71927 798.88701,923.24218 666.81336,1074.03 430.54375,1088.4343 280.0782,956.58579 127.37737,822.77861 112.80671,583.46027 246.39072,431.07686" />
  </g>
</svg>
