<?xml version="1.0" encoding="UTF-8" standalone="no"?>
<!-- Created with Inkscape (http://www.inkscape.org/) -->

<!-- 
Artwork by John Samuel. 
This work is licensed under a Creative Commons Attribution-ShareAlike 4.0 International License. 
-->

<svg
   xmlns:dc="http://purl.org/dc/elements/1.1/"
   xmlns:cc="http://creativecommons.org/ns#"
   xmlns:rdf="http://www.w3.org/1999/02/22-rdf-syntax-ns#"
   xmlns:svg="http://www.w3.org/2000/svg"
   xmlns="http://www.w3.org/2000/svg"
   xmlns:sodipodi="http://sodipodi.sourceforge.net/DTD/sodipodi-0.dtd"
   xmlns:inkscape="http://www.inkscape.org/namespaces/inkscape"
   sodipodi:docname="thick-book-side.svg"
   inkscape:version="0.91 r13725"
   version="1.1"
   id="svg2"
   viewBox="0 0 1052.3622 744.09448"
   height="210mm"
   width="297mm">
  <sodipodi:namedview
     inkscape:snap-object-midpoints="true"
     inkscape:window-maximized="1"
     inkscape:window-y="0"
     inkscape:window-x="16"
     inkscape:window-height="849"
     inkscape:window-width="1584"
     showgrid="false"
     inkscape:current-layer="layer1"
     inkscape:document-units="px"
     inkscape:cy="372.04724"
     inkscape:cx="526.1811"
     inkscape:zoom="0.92192593"
     inkscape:pageshadow="2"
     inkscape:pageopacity="0.0"
     borderopacity="1.0"
     bordercolor="#666666"
     pagecolor="#ffffff"
     id="base"
     showguides="false" />
  <defs
     id="defs4">
    <inkscape:path-effect
       effect="spiro"
       id="path-effect5640"
       is_visible="true" />
    <inkscape:path-effect
       effect="spiro"
       id="path-effect5617"
       is_visible="true" />
    <inkscape:path-effect
       is_visible="true"
       id="path-effect5613"
       effect="spiro" />
    <inkscape:path-effect
       effect="spiro"
       id="path-effect5609"
       is_visible="true" />
    <inkscape:path-effect
       is_visible="true"
       id="path-effect5605"
       effect="spiro" />
    <inkscape:path-effect
       effect="spiro"
       id="path-effect5601"
       is_visible="true" />
    <inkscape:path-effect
       is_visible="true"
       id="path-effect5597"
       effect="spiro" />
    <inkscape:path-effect
       effect="spiro"
       id="path-effect5593"
       is_visible="true" />
    <inkscape:path-effect
       is_visible="true"
       id="path-effect5589"
       effect="spiro" />
    <inkscape:path-effect
       effect="spiro"
       id="path-effect5585"
       is_visible="true" />
    <inkscape:path-effect
       is_visible="true"
       id="path-effect5581"
       effect="spiro" />
    <inkscape:path-effect
       effect="spiro"
       id="path-effect5577"
       is_visible="true" />
    <inkscape:path-effect
       is_visible="true"
       id="path-effect5573"
       effect="spiro" />
    <inkscape:path-effect
       is_visible="true"
       id="path-effect5569"
       effect="spiro" />
    <inkscape:path-effect
       effect="spiro"
       id="path-effect5565"
       is_visible="true" />
    <inkscape:path-effect
       is_visible="true"
       id="path-effect5561"
       effect="spiro" />
    <inkscape:path-effect
       effect="spiro"
       id="path-effect5543"
       is_visible="true" />
    <inkscape:path-effect
       effect="spiro"
       id="path-effect5539"
       is_visible="true" />
    <inkscape:path-effect
       effect="spiro"
       id="path-effect5535"
       is_visible="true" />
    <inkscape:path-effect
       effect="spiro"
       id="path-effect5531"
       is_visible="true" />
    <inkscape:path-effect
       effect="spiro"
       id="path-effect5527"
       is_visible="true" />
    <inkscape:path-effect
       effect="spiro"
       id="path-effect5523"
       is_visible="true" />
    <inkscape:path-effect
       is_visible="true"
       id="path-effect5519"
       effect="spiro" />
    <inkscape:path-effect
       effect="spiro"
       id="path-effect5515"
       is_visible="true" />
    <inkscape:path-effect
       effect="spiro"
       id="path-effect5511"
       is_visible="true" />
    <inkscape:path-effect
       effect="spiro"
       id="path-effect5507"
       is_visible="true" />
    <inkscape:path-effect
       effect="skeletal"
       id="path-effect5503"
       is_visible="true"
       pattern="m 0,313.26772 c 0,-2.76 2.24,-5 5,-5 2.76,0 5,2.24 5,5 0,2.76 -2.24,5 -5,5 -2.76,0 -5,-2.24 -5,-5 z"
       copytype="single_stretched"
       prop_scale="1"
       scale_y_rel="false"
       spacing="0"
       normal_offset="0"
       tang_offset="0"
       prop_units="false"
       vertical_pattern="false"
       fuse_tolerance="0" />
    <inkscape:path-effect
       effect="spiro"
       id="path-effect5501"
       is_visible="true" />
    <inkscape:path-effect
       effect="spiro"
       id="path-effect5497"
       is_visible="true" />
    <inkscape:path-effect
       effect="spiro"
       id="path-effect5493"
       is_visible="true" />
    <inkscape:path-effect
       effect="spiro"
       id="path-effect5489"
       is_visible="true" />
    <inkscape:path-effect
       effect="spiro"
       id="path-effect5485"
       is_visible="true" />
    <inkscape:path-effect
       effect="spiro"
       id="path-effect5481"
       is_visible="true" />
    <inkscape:path-effect
       effect="spiro"
       id="path-effect5477"
       is_visible="true" />
    <inkscape:path-effect
       is_visible="true"
       id="path-effect5473"
       effect="spiro" />
    <inkscape:path-effect
       effect="spiro"
       id="path-effect5469"
       is_visible="true" />
    <inkscape:path-effect
       effect="spiro"
       id="path-effect5292"
       is_visible="true" />
  </defs>
  <metadata
     id="metadata7">
    <rdf:RDF>
      <cc:Work
         rdf:about="">
        <dc:format>image/svg+xml</dc:format>
        <dc:type
           rdf:resource="http://purl.org/dc/dcmitype/StillImage" />
        <dc:title></dc:title>
      </cc:Work>
    </rdf:RDF>
  </metadata>
  <g
     inkscape:label="Layer 1"
     inkscape:groupmode="layer"
     id="layer1"
     transform="translate(0,-308.26772)">
    <path
       style="fill:#ffffff;fill-opacity:1;stroke:#000000;stroke-width:1.5;stroke-linecap:round;stroke-miterlimit:4;stroke-dasharray:none;stroke-opacity:1"
       d="m 53.732057,354.90793 589.619473,-0.34521 342.6249,568.75843 -671.51769,0.002 z"
       id="rect4136"
       inkscape:connector-curvature="0"
       sodipodi:nodetypes="ccccc" />
    <path
       sodipodi:nodetypes="ccccc"
       inkscape:connector-curvature="0"
       id="path5276"
       d="m 155.40168,425.84396 443.87283,0.9428 81.81125,127.23329 -459.08185,6.7e-4 z"
       style="fill:#ffffff;fill-opacity:1;stroke:#000000;stroke-width:1;stroke-linecap:round;stroke-miterlimit:4;stroke-dasharray:none;stroke-opacity:1" />
    <path
       style="fill:none;fill-rule:evenodd;stroke:#000000;stroke-width:1.18835723px;stroke-linecap:butt;stroke-linejoin:miter;stroke-opacity:1"
       d="m 225.35857,462.71181 c 0,0 -16.54245,-0.54634 -7.55417,-0.54634 3.96385,0 22.72898,-1.27482 28.11146,-1.27482 4.2884,0 -4.48408,0.61112 0.58984,0.61112 4.42251,0 29.43095,1.24465 34.37772,1.24465 4.4958,0 -8.64333,-1.52153 -3.76776,-1.52153 4.54264,0 7.94581,1.21053 12.77564,1.21053 4.57624,0 9.87337,0.0604 14.67158,0.0604 4.60117,0 18.66828,0.3855 23.44216,0.3855 4.62061,0 -2.92928,-1.03467 1.82475,-1.03467 4.6372,0 32.31579,-0.73436 37.05371,-0.73436 4.65131,0 -6.99523,1.62669 -2.27152,1.62669 4.6641,0 14.37596,-1.83379 19.08692,-1.83379 4.67687,0 1.52365,1.66953 6.22354,1.66953 4.68804,0 31.47915,-0.13573 36.16718,-0.13573 4.69937,0 -11.27792,-1.32724 -6.60157,-1.32724 4.71111,0 28.25872,0.0713 32.923,0.0713 4.72415,0 -9.67962,-0.0571 -5.02787,-0.0571 4.7383,0 19.92779,1.75926 24.56529,1.75926 4.7544,0 20.69758,-0.54827 25.3185,-0.54827 4.77385,0 10.31513,-0.14867 14.91628,-0.14867 4.79786,0 -2.07522,0.69256 2.50071,0.69256 4.83013,0 16.1105,-0.19192 20.65342,-0.19192 4.87556,0 5.49298,-1.7488 9.98877,-1.7488 4.94693,0 -8.87316,0.90638 -4.45052,0.90638 5.0742,0 19.28656,0.98892 23.57516,0.98892 5.38213,0 13.87677,-1.94365 17.84041,-1.94365 8.98817,0 2.9938,1.53583 2.9938,1.53583"
       id="path5299"
       inkscape:connector-curvature="0" />
    <path
       style="fill:none;fill-rule:evenodd;stroke:#000000;stroke-width:1.0845356px;stroke-linecap:butt;stroke-linejoin:miter;stroke-opacity:1"
       d="m 247.30266,511.51754 c 0,0 22.0288,1.27165 29.54603,1.27165 3.30232,0 8.74186,-0.71222 13.23819,-0.71222 3.57333,0 6.49478,-0.2522 10.7334,-0.2522 3.68435,0 -3.32172,-0.55557 0.80975,-0.55557 3.74574,0 -3.65975,0.90665 0.41306,0.90665 3.78452,0 30.64883,0.3887 34.68368,0.3887 3.81187,0 6.06833,0.28487 10.07682,0.28487 3.8328,0 6.32553,0.14017 10.31482,0.14017 3.8487,0 6.95217,-1.50243 10.92569,-1.50243 3.86175,0 -11.12092,0.96611 -7.16033,0.96611 3.87253,0 17.43926,-1.17136 21.38857,-1.17136 3.88278,0 21.46788,1.00164 25.40805,1.00164 3.89118,0 7.80735,-0.009 11.73835,-0.009 3.89979,0 -8.1523,-0.94025 -4.22905,-0.94025 3.90732,0 17.34061,1.82608 21.25566,1.82608 3.91492,0 10.59538,-0.16533 14.50255,-0.16533 3.92302,0 9.1544,-1.32859 13.05396,-1.32859 3.93095,0 -13.27519,0.67916 -9.38405,0.67916 3.93985,0 30.04056,-0.53501 33.92303,-0.53501 3.94947,0 5.08319,-0.30006 8.9559,-0.30006 3.96059,0 11.31092,0.42959 15.17266,0.42959 3.97322,0 0.272,-0.6268 4.12042,-0.6268 3.98853,0 5.26571,1.95221 9.09783,1.95221 4.00829,0 18.68754,-1.15345 22.49924,-1.15345 4.03538,0 8.09112,0.189 11.8761,0.189 4.07311,0 0.18823,-0.97477 3.93425,-0.97477 4.1319,0 4.70132,-0.0568 8.38601,-0.0568 4.23814,0 9.81922,0.0173 13.39222,0.0173 4.49679,0 -4.92081,1.31207 -1.61822,1.31207 7.51718,0 28.9899,-1.18298 28.9899,-1.18298 0,0 -4.15549,-0.13315 -4.15549,-0.13315"
       id="path5301"
       inkscape:connector-curvature="0" />
    <path
       style="fill:none;fill-rule:evenodd;stroke:#000000;stroke-width:1.50604093;stroke-linecap:butt;stroke-linejoin:miter;stroke-miterlimit:4;stroke-dasharray:none;stroke-opacity:1"
       d="m 323.59363,929.9788 660.88136,1.08468"
       id="path5467"
       inkscape:path-effect="#path-effect5469"
       inkscape:original-d="m 323.59363,929.9788 660.88136,1.08468"
       inkscape:connector-curvature="0" />
    <path
       inkscape:connector-curvature="0"
       inkscape:original-d="m 329.31436,988.70767 655.395,1.10288"
       inkscape:path-effect="#path-effect5473"
       id="path5471"
       d="m 329.31436,988.70767 655.395,1.10288"
       style="fill:none;fill-rule:evenodd;stroke:#000000;stroke-width:1.5;stroke-linecap:butt;stroke-linejoin:miter;stroke-miterlimit:4;stroke-dasharray:none;stroke-opacity:1" />
    <path
       style="fill:none;fill-rule:evenodd;stroke:#000000;stroke-width:1.50188065;stroke-linecap:butt;stroke-linejoin:miter;stroke-miterlimit:4;stroke-dasharray:none;stroke-opacity:1"
       d="m 318.33669,995.22349 662.79554,1.08748"
       id="path5475"
       inkscape:path-effect="#path-effect5477"
       inkscape:original-d="m 318.33669,995.22349 662.79554,1.08748"
       inkscape:connector-curvature="0" />
    <path
       style="fill:none;fill-opacity:1;stroke:#000000;stroke-width:1.50604093;stroke-linecap:round;stroke-miterlimit:4;stroke-dasharray:none;stroke-opacity:1"
       id="path5545"
       sodipodi:type="arc"
       sodipodi:cx="983.49475"
       sodipodi:cy="926.77429"
       sodipodi:rx="3.8658943"
       sodipodi:ry="4.316452"
       sodipodi:start="4.9688651"
       sodipodi:end="1.4708937"
       sodipodi:open="true"
       d="m 984.47543,922.59903 a 3.8658943,4.316452 0 0 1 2.87337,4.51284 3.8658943,4.316452 0 0 1 -3.46848,3.95735" />
    <path
       d="m 982.882,989.94631 a 3.8349435,3.0714512 0 0 1 2.85038,3.2112 3.8349435,3.0714512 0 0 1 -3.44072,2.81592"
       sodipodi:open="true"
       sodipodi:end="1.4708937"
       sodipodi:start="4.9688651"
       sodipodi:ry="3.0714512"
       sodipodi:rx="3.8349435"
       sodipodi:cy="992.9173"
       sodipodi:cx="981.90918"
       sodipodi:type="arc"
       id="path5547"
       style="fill:none;fill-opacity:1;stroke:#000000;stroke-width:1.2653178;stroke-linecap:round;stroke-miterlimit:4;stroke-dasharray:none;stroke-opacity:1" />
    <path
       style="fill:none;fill-opacity:1;stroke:#000000;stroke-width:1.58807015;stroke-linecap:round;stroke-miterlimit:4;stroke-dasharray:none;stroke-opacity:1"
       id="path5551"
       sodipodi:type="arc"
       sodipodi:cx="981.91718"
       sodipodi:cy="960.60339"
       sodipodi:rx="4.7227907"
       sodipodi:ry="29.706156"
       sodipodi:start="1.4782066"
       sodipodi:end="4.8955613"
       d="m 982.35383,990.18231 a 4.7227907,29.706156 0 0 1 -4.52513,-14.70863 4.7227907,29.706156 0 0 1 0.23062,-32.00588 4.7227907,29.706156 0 0 1 4.71811,-12.0736"
       sodipodi:open="true" />
    <path
       sodipodi:open="true"
       d="m 329.57832,988.64837 a 14.033484,29.706156 0 0 1 -13.44615,-14.70863 14.033484,29.706156 0 0 1 0.68526,-32.00587 14.033484,29.706156 0 0 1 14.01959,-12.07361"
       sodipodi:end="4.8955613"
       sodipodi:start="1.4782066"
       sodipodi:ry="29.706156"
       sodipodi:rx="14.033484"
       sodipodi:cy="959.06946"
       sodipodi:cx="328.28082"
       sodipodi:type="arc"
       id="path5553"
       style="fill:none;fill-opacity:1;stroke:#000000;stroke-width:1.5;stroke-linecap:round;stroke-miterlimit:4;stroke-dasharray:none;stroke-opacity:1" />
    <path
       style="fill:none;fill-opacity:1;stroke:#000000;stroke-width:1.5;stroke-linecap:round;stroke-miterlimit:4;stroke-dasharray:none;stroke-opacity:1"
       id="path5555"
       sodipodi:type="arc"
       sodipodi:cx="328.28082"
       sodipodi:cy="959.06946"
       sodipodi:rx="14.033484"
       sodipodi:ry="29.706156"
       sodipodi:start="1.4782066"
       sodipodi:end="4.8955613"
       d="m 329.57832,988.64837 a 14.033484,29.706156 0 0 1 -13.44615,-14.70863 14.033484,29.706156 0 0 1 0.68526,-32.00587 14.033484,29.706156 0 0 1 14.01959,-12.07361"
       sodipodi:open="true" />
    <path
       sodipodi:open="true"
       d="m 319.60747,994.11036 a 14.033484,35.517563 0 0 1 -13.44616,-17.58607 14.033484,35.517563 0 0 1 0.68527,-38.26718 14.033484,35.517563 0 0 1 14.01958,-14.43556"
       sodipodi:end="4.8955613"
       sodipodi:start="1.4782066"
       sodipodi:ry="35.517563"
       sodipodi:rx="14.033484"
       sodipodi:cy="958.74493"
       sodipodi:cx="318.30997"
       sodipodi:type="arc"
       id="path5557"
       style="fill:none;fill-opacity:1;stroke:#000000;stroke-width:1.5;stroke-linecap:round;stroke-miterlimit:4;stroke-dasharray:none;stroke-opacity:1" />
    <path
       inkscape:connector-curvature="0"
       inkscape:original-d="m 319.84521,933.9788 660.88136,1.08468"
       inkscape:path-effect="#path-effect5561"
       id="path5559"
       d="m 319.84521,933.9788 660.88136,1.08468"
       style="fill:none;fill-rule:evenodd;stroke:#000000;stroke-width:1.00402725;stroke-linecap:butt;stroke-linejoin:miter;stroke-miterlimit:4;stroke-dasharray:none;stroke-opacity:1" />
    <path
       style="fill:none;fill-rule:evenodd;stroke:#000000;stroke-width:1.00402725;stroke-linecap:butt;stroke-linejoin:miter;stroke-miterlimit:4;stroke-dasharray:none;stroke-opacity:1"
       d="m 316.54478,945.9788 660.88136,1.08468"
       id="path5563"
       inkscape:path-effect="#path-effect5565"
       inkscape:original-d="m 316.54478,945.9788 660.88136,1.08468"
       inkscape:connector-curvature="0" />
    <path
       inkscape:connector-curvature="0"
       inkscape:original-d="m 318.26121,941.9788 660.88135,1.08468"
       inkscape:path-effect="#path-effect5569"
       id="path5567"
       d="m 318.26121,941.9788 660.88135,1.08468"
       style="fill:none;fill-rule:evenodd;stroke:#000000;stroke-width:1.00402725;stroke-linecap:butt;stroke-linejoin:miter;stroke-miterlimit:4;stroke-dasharray:none;stroke-opacity:1" />
    <path
       inkscape:connector-curvature="0"
       inkscape:original-d="m 316.14521,949.9788 660.88136,1.08468"
       inkscape:path-effect="#path-effect5573"
       id="path5571"
       d="m 316.14521,949.9788 660.88136,1.08468"
       style="fill:none;fill-rule:evenodd;stroke:#000000;stroke-width:1.00402725;stroke-linecap:butt;stroke-linejoin:miter;stroke-miterlimit:4;stroke-dasharray:none;stroke-opacity:1" />
    <path
       style="fill:none;fill-rule:evenodd;stroke:#000000;stroke-width:1.00402725;stroke-linecap:butt;stroke-linejoin:miter;stroke-miterlimit:4;stroke-dasharray:none;stroke-opacity:1"
       d="m 315.44521,953.9788 660.88136,1.08468"
       id="path5575"
       inkscape:path-effect="#path-effect5577"
       inkscape:original-d="m 315.44521,953.9788 660.88136,1.08468"
       inkscape:connector-curvature="0" />
    <path
       inkscape:connector-curvature="0"
       inkscape:original-d="m 315.44521,957.9788 660.88136,1.08468"
       inkscape:path-effect="#path-effect5581"
       id="path5579"
       d="m 315.44521,957.9788 660.88136,1.08468"
       style="fill:none;fill-rule:evenodd;stroke:#000000;stroke-width:1.00402725;stroke-linecap:butt;stroke-linejoin:miter;stroke-miterlimit:4;stroke-dasharray:none;stroke-opacity:1" />
    <path
       style="fill:none;fill-rule:evenodd;stroke:#000000;stroke-width:1.00402725;stroke-linecap:butt;stroke-linejoin:miter;stroke-miterlimit:4;stroke-dasharray:none;stroke-opacity:1"
       d="m 315.54521,961.9788 660.88136,1.08468"
       id="path5583"
       inkscape:path-effect="#path-effect5585"
       inkscape:original-d="m 315.54521,961.9788 660.88136,1.08468"
       inkscape:connector-curvature="0" />
    <path
       inkscape:connector-curvature="0"
       inkscape:original-d="m 315.84521,965.9788 660.88136,1.08468"
       inkscape:path-effect="#path-effect5589"
       id="path5587"
       d="m 315.84521,965.9788 660.88136,1.08468"
       style="fill:none;fill-rule:evenodd;stroke:#000000;stroke-width:1.00402725;stroke-linecap:butt;stroke-linejoin:miter;stroke-miterlimit:4;stroke-dasharray:none;stroke-opacity:1" />
    <path
       style="fill:none;fill-rule:evenodd;stroke:#000000;stroke-width:1.00402725;stroke-linecap:butt;stroke-linejoin:miter;stroke-miterlimit:4;stroke-dasharray:none;stroke-opacity:1"
       d="m 316.54478,969.9788 660.88136,1.08468"
       id="path5591"
       inkscape:path-effect="#path-effect5593"
       inkscape:original-d="m 316.54478,969.9788 660.88136,1.08468"
       inkscape:connector-curvature="0" />
    <path
       style="fill:none;fill-rule:evenodd;stroke:#000000;stroke-width:1.00402725;stroke-linecap:butt;stroke-linejoin:miter;stroke-miterlimit:4;stroke-dasharray:none;stroke-opacity:1"
       d="m 316.54478,973.9788 660.88136,1.08468"
       id="path5599"
       inkscape:path-effect="#path-effect5601"
       inkscape:original-d="m 316.54478,973.9788 660.88136,1.08468"
       inkscape:connector-curvature="0" />
    <path
       inkscape:connector-curvature="0"
       inkscape:original-d="m 316.54478,977.9788 660.88136,1.08468"
       inkscape:path-effect="#path-effect5605"
       id="path5603"
       d="m 316.54478,977.9788 660.88136,1.08468"
       style="fill:none;fill-rule:evenodd;stroke:#000000;stroke-width:1.00402725;stroke-linecap:butt;stroke-linejoin:miter;stroke-miterlimit:4;stroke-dasharray:none;stroke-opacity:1" />
    <path
       style="fill:none;fill-rule:evenodd;stroke:#000000;stroke-width:1.00402725;stroke-linecap:butt;stroke-linejoin:miter;stroke-miterlimit:4;stroke-dasharray:none;stroke-opacity:1"
       d="m 318.05321,981.86083 660.88136,1.08468"
       id="path5607"
       inkscape:path-effect="#path-effect5609"
       inkscape:original-d="m 318.05321,981.86083 660.88136,1.08468"
       inkscape:connector-curvature="0" />
    <path
       inkscape:connector-curvature="0"
       inkscape:original-d="m 321.14521,985.97817 658.78135,1.08594"
       inkscape:path-effect="#path-effect5613"
       id="path5611"
       d="m 321.14521,985.97817 658.78135,1.08594"
       style="fill:none;fill-rule:evenodd;stroke:#000000;stroke-width:1.00293505;stroke-linecap:butt;stroke-linejoin:miter;stroke-miterlimit:4;stroke-dasharray:none;stroke-opacity:1" />
    <path
       style="fill:none;fill-rule:evenodd;stroke:#000000;stroke-width:1.00402725;stroke-linecap:butt;stroke-linejoin:miter;stroke-miterlimit:4;stroke-dasharray:none;stroke-opacity:1"
       d="m 317.54521,937.9788 660.88136,1.08468"
       id="path5615"
       inkscape:path-effect="#path-effect5617"
       inkscape:original-d="m 317.54521,937.9788 660.88136,1.08468"
       inkscape:connector-curvature="0" />
    <path
       style="fill:none;fill-rule:evenodd;stroke:#000000;stroke-width:1.46852934;stroke-linecap:butt;stroke-linejoin:miter;stroke-miterlimit:4;stroke-dasharray:none;stroke-opacity:1"
       d="M 46.287466,409.15613 310.1317,987.16538"
       id="path5638"
       inkscape:path-effect="#path-effect5640"
       inkscape:original-d="M 46.287466,409.15613 310.1317,987.16538"
       inkscape:connector-curvature="0"
       sodipodi:nodetypes="cc" />
    <path
       style="fill:none;fill-opacity:1;stroke:#000000;stroke-width:1.65081954;stroke-linecap:round;stroke-miterlimit:4;stroke-dasharray:none;stroke-opacity:1"
       id="path5650"
       sodipodi:type="arc"
       sodipodi:cx="50.356812"
       sodipodi:cy="384.37753"
       sodipodi:rx="5.1613655"
       sodipodi:ry="30.479111"
       sodipodi:start="1.7573022"
       sodipodi:end="5.1209706"
       d="m 49.399758,414.32808 a 5.1613655,30.479111 0 0 1 -4.026744,-22.02464 5.1613655,30.479111 0 0 1 1.609119,-30.98755 5.1613655,30.479111 0 0 1 5.425331,-4.90859"
       sodipodi:open="true" />
  </g>
</svg>
