<?xml version="1.0" encoding="UTF-8" standalone="no"?>
<!-- Created with Inkscape (http://www.inkscape.org/) -->

<!-- 
Artwork by John Samuel. 
This work is licensed under a Creative Commons Attribution-ShareAlike 4.0 International License. 
-->

<svg
   xmlns:osb="http://www.openswatchbook.org/uri/2009/osb"
   xmlns:dc="http://purl.org/dc/elements/1.1/"
   xmlns:cc="http://creativecommons.org/ns#"
   xmlns:rdf="http://www.w3.org/1999/02/22-rdf-syntax-ns#"
   xmlns:svg="http://www.w3.org/2000/svg"
   xmlns="http://www.w3.org/2000/svg"
   xmlns:sodipodi="http://sodipodi.sourceforge.net/DTD/sodipodi-0.dtd"
   xmlns:inkscape="http://www.inkscape.org/namespaces/inkscape"
   width="297mm"
   height="210mm"
   viewBox="0 0 1052.3622 744.09448"
   id="svg2"
   version="1.1"
   inkscape:version="0.91 r13725"
   sodipodi:docname="tree-without-envelope.svg">
  <defs
     id="defs4">
    <inkscape:path-effect
       effect="spiro"
       id="path-effect5629"
       is_visible="true" />
    <inkscape:path-effect
       effect="spiro"
       id="path-effect5625"
       is_visible="true" />
    <inkscape:path-effect
       effect="spiro"
       id="path-effect5621"
       is_visible="true" />
    <inkscape:path-effect
       effect="powerstroke"
       id="path-effect5617"
       is_visible="true"
       offset_points="0,0.5"
       sort_points="true"
       interpolator_type="CubicBezierJohan"
       interpolator_beta="0.2"
       start_linecap_type="zerowidth"
       linejoin_type="round"
       miter_limit="4"
       end_linecap_type="zerowidth"
       cusp_linecap_type="round" />
    <inkscape:path-effect
       effect="spiro"
       id="path-effect5615"
       is_visible="true" />
    <inkscape:path-effect
       effect="powerstroke"
       id="path-effect5611"
       is_visible="true"
       offset_points="0,0.5"
       sort_points="true"
       interpolator_type="CubicBezierJohan"
       interpolator_beta="0.2"
       start_linecap_type="zerowidth"
       linejoin_type="round"
       miter_limit="4"
       end_linecap_type="zerowidth"
       cusp_linecap_type="round" />
    <inkscape:path-effect
       effect="spiro"
       id="path-effect5609"
       is_visible="true" />
    <linearGradient
       id="linearGradient4824"
       osb:paint="solid">
      <stop
         style="stop-color:#000000;stop-opacity:1;"
         offset="0"
         id="stop4826" />
    </linearGradient>
  </defs>
  <sodipodi:namedview
     id="base"
     pagecolor="#ffffff"
     bordercolor="#666666"
     borderopacity="1.0"
     inkscape:pageopacity="0.0"
     inkscape:pageshadow="2"
     inkscape:zoom="0.9192381"
     inkscape:cx="526.1811"
     inkscape:cy="328.53294"
     inkscape:document-units="px"
     inkscape:current-layer="layer1"
     showgrid="false"
     inkscape:window-width="1600"
     inkscape:window-height="847"
     inkscape:window-x="0"
     inkscape:window-y="0"
     inkscape:window-maximized="1"
     showguides="true" />
  <metadata
     id="metadata7">
    <rdf:RDF>
      <cc:Work
         rdf:about="">
        <dc:format>image/svg+xml</dc:format>
        <dc:type
           rdf:resource="http://purl.org/dc/dcmitype/StillImage" />
        <dc:title />
      </cc:Work>
    </rdf:RDF>
  </metadata>
  <g
     inkscape:label="Layer 1"
     inkscape:groupmode="layer"
     id="layer1"
     transform="translate(0,-308.26772)">
    <path
       style="fill:none;fill-rule:evenodd;stroke:#000000;stroke-width:1.5;stroke-linecap:butt;stroke-linejoin:miter;stroke-miterlimit:4;stroke-dasharray:none;stroke-opacity:1"
       d="M 507.75268,738.86847 C 509.0924,1016.1898 387.17817,1016.1898 387.17817,1016.1898"
       id="path5635"
       inkscape:connector-curvature="0"
       sodipodi:nodetypes="cc" />
    <path
       style="fill:none;fill-rule:evenodd;stroke:#000000;stroke-width:1.5;stroke-linecap:butt;stroke-linejoin:miter;stroke-opacity:1;stroke-miterlimit:4;stroke-dasharray:none"
       d="m 388.51788,1017.5296 c 68.32556,1.3397 114.54579,-23.44507 114.54579,-23.44507"
       id="path5639"
       inkscape:connector-curvature="0" />
    <path
       inkscape:connector-curvature="0"
       id="path5641"
       d="m 682.81222,1016.8598 c -68.32556,1.3397 -114.54579,-23.44513 -114.54579,-23.44513"
       style="fill:none;fill-rule:evenodd;stroke:#000000;stroke-width:1.5;stroke-linecap:butt;stroke-linejoin:miter;stroke-opacity:1;stroke-miterlimit:4;stroke-dasharray:none" />
    <path
       style="fill:none;fill-rule:evenodd;stroke:#000000;stroke-width:1.5;stroke-linecap:butt;stroke-linejoin:miter;stroke-opacity:1;stroke-miterlimit:4;stroke-dasharray:none"
       d="m 503.73353,994.08453 c 35.5025,16.74647 32.82306,40.19147 32.82306,40.19147"
       id="path5643"
       inkscape:connector-curvature="0" />
    <path
       inkscape:connector-curvature="0"
       id="path5645"
       d="M 571.46696,993.66653 C 535.96446,1010.413 538.6439,1033.858 538.6439,1033.858"
       style="fill:none;fill-rule:evenodd;stroke:#000000;stroke-width:1.5;stroke-linecap:butt;stroke-linejoin:miter;stroke-opacity:1;stroke-miterlimit:4;stroke-dasharray:none" />
    <path
       style="fill:none;fill-rule:evenodd;stroke:#000000;stroke-width:1px;stroke-linecap:butt;stroke-linejoin:miter;stroke-opacity:1"
       d="m 343.76295,694.45712 c 0,0 14.01017,14.4061 45.55804,0.26395 -20.66929,2.17572 -21.62518,-24.19682 -21.62518,-24.19682"
       id="path6375"
       inkscape:connector-curvature="0"
       sodipodi:nodetypes="ccc" />
    <path
       inkscape:connector-curvature="0"
       id="path6377"
       d="m 388.80056,759.84675 c -5.71239,-32.64346 12.80179,-41.97631 12.80179,-41.97631 0,0 12.87133,-22.32547 56.38563,-22.32547 0,0 50.04144,9.79072 50.04144,45.69001"
       style="fill:none;fill-rule:evenodd;stroke:#000000;stroke-width:1px;stroke-linecap:butt;stroke-linejoin:miter;stroke-opacity:1"
       sodipodi:nodetypes="cccc" />
    <path
       style="fill:none;fill-rule:evenodd;stroke:#000000;stroke-width:1px;stroke-linecap:butt;stroke-linejoin:miter;stroke-opacity:1"
       d="m 348.04838,706.29156 c 0,0 16.31787,21.75715 38.31682,7.42624 -24.28451,11.0866 -12.37303,36.53092 -12.37303,36.53092"
       id="path6379"
       inkscape:connector-curvature="0"
       sodipodi:nodetypes="ccc" />
    <path
       style="fill:none;fill-rule:evenodd;stroke:#000000;stroke-width:1px;stroke-linecap:butt;stroke-linejoin:miter;stroke-opacity:1"
       d="m 523.25941,620.4828 c 4.35143,-179.49647 -66.90323,-129.99896 -66.90323,-129.99896 -4.89534,19.03751 10.33466,33.17965 10.33466,33.17965"
       id="path6397"
       inkscape:connector-curvature="0"
       sodipodi:nodetypes="ccc" />
    <path
       style="fill:none;fill-rule:evenodd;stroke:#000000;stroke-width:1px;stroke-linecap:butt;stroke-linejoin:miter;stroke-opacity:1"
       d="m 349.56422,675.65624 c -4.17468,5.21834 -0.13348,-36.67785 50.99731,-36.67985 0,0 109.64361,-25.02073 108.55575,63.09572 0,-51.1293 -105.30253,-23.70756 -105.30253,-23.70756 -32.41608,0.2253 -27.61404,-18.40025 -27.61404,-18.40025"
       id="path6403"
       inkscape:connector-curvature="0"
       sodipodi:nodetypes="ccccc" />
    <path
       style="fill:none;fill-rule:evenodd;stroke:#000000;stroke-width:1px;stroke-linecap:butt;stroke-linejoin:miter;stroke-opacity:1"
       d="m 399.24368,593.28636 c 0,0 115.31289,-14.14214 116.94468,70.71074 C 518.908,550.85993 405.77083,562.82636 405.77083,562.82636"
       id="path6405"
       inkscape:connector-curvature="0"
       sodipodi:nodetypes="ccc" />
    <path
       style="fill:none;fill-rule:evenodd;stroke:#000000;stroke-width:1px;stroke-linecap:butt;stroke-linejoin:miter;stroke-opacity:1"
       d="m 523.25943,620.4828 c -0.46425,-22.28406 -14.509,-49.80928 -36.69459,-67.80778 -29.80083,-24.17651 -69.91544,-35.53867 -69.91544,-35.53867"
       id="path6409"
       inkscape:connector-curvature="0"
       sodipodi:nodetypes="csc" />
    <path
       style="fill:none;fill-rule:evenodd;stroke:#000000;stroke-width:1px;stroke-linecap:butt;stroke-linejoin:miter;stroke-opacity:1"
       d="m 414.47368,615.04352 c -51.1293,0 -70.61272,27.06446 -70.61272,27.06446"
       id="path6415"
       inkscape:connector-curvature="0"
       sodipodi:nodetypes="cc" />
    <path
       style="fill:none;fill-rule:evenodd;stroke:#000000;stroke-width:1px;stroke-linecap:butt;stroke-linejoin:miter;stroke-opacity:1"
       d="m 414.47368,615.04352 c -44.60215,0 -69.62287,-23.93287 -69.62287,-23.93287"
       id="path6431"
       inkscape:connector-curvature="0"
       sodipodi:nodetypes="cc" />
    <path
       style="fill:none;fill-rule:evenodd;stroke:#000000;stroke-width:1px;stroke-linecap:butt;stroke-linejoin:miter;stroke-opacity:1"
       d="M 401.3534,592.96774 C 362.19053,591.87988 352.78444,560.0134 352.78444,560.0134"
       id="path6435"
       inkscape:connector-curvature="0"
       sodipodi:nodetypes="cc" />
    <path
       style="fill:none;fill-rule:evenodd;stroke:#000000;stroke-width:1px;stroke-linecap:butt;stroke-linejoin:miter;stroke-opacity:1"
       d="m 353.55367,561.03527 c -20.66929,-25.02073 -6.52715,-43.5143 -6.52715,-43.5143"
       id="path6443"
       inkscape:connector-curvature="0" />
    <path
       style="fill:none;fill-rule:evenodd;stroke:#000000;stroke-width:1px;stroke-linecap:butt;stroke-linejoin:miter;stroke-opacity:1"
       d="M 345.87267,591.87989 C 328.46695,571.2106 307.86366,573.70494 307.86366,573.70494"
       id="path6445"
       inkscape:connector-curvature="0"
       sodipodi:nodetypes="cc" />
    <path
       style="fill:none;fill-rule:evenodd;stroke:#000000;stroke-width:1px;stroke-linecap:butt;stroke-linejoin:miter;stroke-opacity:1"
       d="m 338.32366,565.00208 c -22.845,-17.40572 -39.16286,-8.70286 -39.16286,-8.70286"
       id="path6451"
       inkscape:connector-curvature="0" />
    <path
       style="fill:none;fill-rule:evenodd;stroke:#000000;stroke-width:1px;stroke-linecap:butt;stroke-linejoin:miter;stroke-opacity:1"
       d="m 338.32366,565.00208 c -16.31786,-36.98716 -5.43928,-53.30502 -5.43928,-53.30502"
       id="path6453"
       inkscape:connector-curvature="0" />
    <path
       style="fill:none;fill-rule:evenodd;stroke:#000000;stroke-width:1px;stroke-linecap:butt;stroke-linejoin:miter;stroke-opacity:1"
       d="m 405.77082,562.82636 c -25.02072,4.35143 -29.37215,13.05429 -29.37215,13.05429"
       id="path6455"
       inkscape:connector-curvature="0" />
    <path
       style="fill:none;fill-rule:evenodd;stroke:#000000;stroke-width:1px;stroke-linecap:butt;stroke-linejoin:miter;stroke-opacity:1"
       d="m 402.50725,546.5085 c -29.37215,0 -34.81144,17.40572 -34.81144,17.40572"
       id="path6457"
       inkscape:connector-curvature="0" />
    <path
       style="fill:none;fill-rule:evenodd;stroke:#000000;stroke-width:1px;stroke-linecap:butt;stroke-linejoin:miter;stroke-opacity:1"
       d="m 401.41939,545.42064 c -28.28429,-9.79072 -52.21715,-1.08786 -52.21715,-1.08786"
       id="path6459"
       inkscape:connector-curvature="0" />
    <path
       style="fill:none;fill-rule:evenodd;stroke:#000000;stroke-width:1px;stroke-linecap:butt;stroke-linejoin:miter;stroke-opacity:1"
       d="m 376.39868,495.3792 c 0,0 -5.43929,21.75715 30.42701,34.52581 -43.5473,-1.37349 -58.7773,-25.30636 -58.7773,-25.30636"
       id="path6461"
       inkscape:connector-curvature="0"
       sodipodi:nodetypes="ccc" />
    <path
       style="fill:none;fill-rule:evenodd;stroke:#000000;stroke-width:1px;stroke-linecap:butt;stroke-linejoin:miter;stroke-opacity:1"
       d="M 417.73726,518.22421 C 395.98011,507.34563 392.71654,483.41277 392.71654,483.41277"
       id="path6465"
       inkscape:connector-curvature="0" />
    <path
       style="fill:none;fill-rule:evenodd;stroke:#000000;stroke-width:1px;stroke-linecap:butt;stroke-linejoin:miter;stroke-opacity:1"
       d="m 392.71654,484.50063 c -3.26358,-25.02073 11.96643,-38.07502 11.96643,-38.07502"
       id="path6467"
       inkscape:connector-curvature="0" />
    <path
       style="fill:none;fill-rule:evenodd;stroke:#000000;stroke-width:1px;stroke-linecap:butt;stroke-linejoin:miter;stroke-opacity:1"
       d="m 376.39867,498.64277 c 1.08786,-25.02072 -29.37215,-31.54786 -29.37215,-31.54786"
       id="path6469"
       inkscape:connector-curvature="0" />
    <path
       style="fill:none;fill-rule:evenodd;stroke:#000000;stroke-width:1px;stroke-linecap:butt;stroke-linejoin:miter;stroke-opacity:1"
       d="m 398.15582,439.89847 c 0,0 -16.31786,6.52714 -16.31786,30.46001 -1.08786,-16.31786 -36.98715,-17.40572 -36.98715,-17.40572"
       id="path6473"
       inkscape:connector-curvature="0"
       sodipodi:nodetypes="ccc" />
    <path
       style="fill:none;fill-rule:evenodd;stroke:#000000;stroke-width:1px;stroke-linecap:butt;stroke-linejoin:miter;stroke-opacity:1"
       d="m 527.61086,508.43349 c 0,-45.69001 -64.18359,-63.09573 -64.18359,-63.09573 -16.31786,-15.23001 -10.87858,-32.63573 -10.87858,-32.63573"
       id="path6479"
       inkscape:connector-curvature="0"
       sodipodi:nodetypes="ccc" />
    <path
       style="fill:none;fill-rule:evenodd;stroke:#000000;stroke-width:1px;stroke-linecap:butt;stroke-linejoin:miter;stroke-opacity:1"
       d="m 527.61086,502.9942 c -2.17572,-53.30501 -33.72358,-83.76502 -33.72358,-83.76502 -21.75715,-20.66929 -34.81144,4.35143 -34.81144,4.35143"
       id="path6481"
       inkscape:connector-curvature="0"
       sodipodi:nodetypes="ccc" />
    <path
       style="fill:none;fill-rule:evenodd;stroke:#000000;stroke-width:1px;stroke-linecap:butt;stroke-linejoin:miter;stroke-opacity:1"
       d="m 466.69084,467.09491 c -25.02072,-1.08786 -30.46001,13.05429 -30.46001,13.05429 -20.66929,20.66929 -14.14214,32.63572 -14.14214,32.63572"
       id="path6483"
       inkscape:connector-curvature="0"
       sodipodi:nodetypes="ccc" />
    <path
       style="fill:none;fill-rule:evenodd;stroke:#000000;stroke-width:1px;stroke-linecap:butt;stroke-linejoin:miter;stroke-opacity:1"
       d="m 533.05015,443.16204 c 0,0 -3.26357,-29.37215 -21.75715,-68.53502 -8.70286,-26.10858 11.96643,-32.63572 11.96643,-32.63572"
       id="path6485"
       inkscape:connector-curvature="0"
       sodipodi:nodetypes="ccc" />
    <path
       style="fill:none;fill-rule:evenodd;stroke:#000000;stroke-width:1px;stroke-linecap:butt;stroke-linejoin:miter;stroke-opacity:1"
       d="m 454.72441,522.57564 c 0,0 -14.14215,-16.31787 -9.79072,-34.81144 -11.96643,16.31786 -8.70286,28.28429 -8.70286,28.28429"
       id="path6489"
       inkscape:connector-curvature="0"
       sodipodi:nodetypes="ccc" />
    <path
       style="fill:none;fill-rule:evenodd;stroke:#000000;stroke-width:1px;stroke-linecap:butt;stroke-linejoin:miter;stroke-opacity:1"
       d="M 466.69084,466.00705 C 438.40655,454.04062 437.31869,436.6349 437.31869,436.6349"
       id="path6497"
       inkscape:connector-curvature="0" />
    <path
       style="fill:none;fill-rule:evenodd;stroke:#000000;stroke-width:1px;stroke-linecap:butt;stroke-linejoin:miter;stroke-opacity:1"
       d="m 513.46871,333.28844 c 0,0 -29.37215,22.84501 -14.14215,44.60216 -26.10857,-20.6693 -38.07501,-8.70286 -38.07501,-8.70286"
       id="path6507"
       inkscape:connector-curvature="0" />
    <path
       style="fill:none;fill-rule:evenodd;stroke:#000000;stroke-width:1px;stroke-linecap:butt;stroke-linejoin:miter;stroke-opacity:1"
       d="m 452.54869,383.32988 c 0,0 34.81144,-2.17571 35.8993,18.49358 -18.49358,-20.66929 -31.54787,8.70286 -31.54787,8.70286"
       id="path6511"
       inkscape:connector-curvature="0"
       sodipodi:nodetypes="ccc" />
    <path
       sodipodi:nodetypes="ccc"
       inkscape:connector-curvature="0"
       id="path6517"
       d="m 721.58928,694.45712 c 0,0 -14.01017,14.4061 -45.55804,0.26395 20.66929,2.17572 21.62518,-24.19682 21.62518,-24.19682"
       style="fill:none;fill-rule:evenodd;stroke:#000000;stroke-width:1px;stroke-linecap:butt;stroke-linejoin:miter;stroke-opacity:1" />
    <path
       sodipodi:nodetypes="ccccc"
       style="fill:none;fill-rule:evenodd;stroke:#000000;stroke-width:1.5;stroke-linecap:butt;stroke-linejoin:miter;stroke-opacity:1;stroke-miterlimit:4;stroke-dasharray:none"
       d="m 684.16667,759.84675 c 5.71239,-32.64346 -12.80179,-41.97631 -12.80179,-41.97631 0,0 -12.87133,-22.32547 -56.38563,-22.32547 0,0 -50.04144,9.79072 -50.04144,45.69001 -3.68937,272.66352 118.2107,274.52172 118.2107,274.52172"
       id="path6519"
       inkscape:connector-curvature="0" />
    <path
       sodipodi:nodetypes="ccc"
       inkscape:connector-curvature="0"
       id="path6521"
       d="m 717.30385,706.29156 c 0,0 -16.31787,21.75715 -38.31682,7.42624 24.28451,11.0866 12.37303,36.53092 12.37303,36.53092"
       style="fill:none;fill-rule:evenodd;stroke:#000000;stroke-width:1px;stroke-linecap:butt;stroke-linejoin:miter;stroke-opacity:1" />
    <path
       sodipodi:nodetypes="ccc"
       inkscape:connector-curvature="0"
       id="path6523"
       d="m 542.09282,620.4828 c -4.35143,-179.49647 66.90323,-129.99896 66.90323,-129.99896 4.89534,19.03751 -10.33466,33.17965 -10.33466,33.17965"
       style="fill:none;fill-rule:evenodd;stroke:#000000;stroke-width:1px;stroke-linecap:butt;stroke-linejoin:miter;stroke-opacity:1" />
    <path
       sodipodi:nodetypes="ccccc"
       inkscape:connector-curvature="0"
       id="path6525"
       d="m 715.78801,675.65624 c 4.17468,5.21834 0.13348,-36.67785 -50.99731,-36.67985 0,0 -109.64361,-25.02073 -108.55575,63.09572 0,-51.1293 105.30253,-23.70756 105.30253,-23.70756 32.41608,0.2253 27.61404,-18.40025 27.61404,-18.40025"
       style="fill:none;fill-rule:evenodd;stroke:#000000;stroke-width:1px;stroke-linecap:butt;stroke-linejoin:miter;stroke-opacity:1" />
    <path
       sodipodi:nodetypes="ccc"
       inkscape:connector-curvature="0"
       id="path6527"
       d="m 666.10855,593.28636 c 0,0 -115.31289,-14.14214 -116.94468,70.71074 C 546.44423,550.85993 659.5814,562.82636 659.5814,562.82636"
       style="fill:none;fill-rule:evenodd;stroke:#000000;stroke-width:1px;stroke-linecap:butt;stroke-linejoin:miter;stroke-opacity:1" />
    <path
       sodipodi:nodetypes="csc"
       inkscape:connector-curvature="0"
       id="path6529"
       d="m 542.0928,620.4828 c 0.46425,-22.28406 14.509,-49.80928 36.69459,-67.80778 29.80083,-24.17651 69.91544,-35.53867 69.91544,-35.53867"
       style="fill:none;fill-rule:evenodd;stroke:#000000;stroke-width:1px;stroke-linecap:butt;stroke-linejoin:miter;stroke-opacity:1" />
    <path
       sodipodi:nodetypes="cc"
       inkscape:connector-curvature="0"
       id="path6531"
       d="m 650.87855,615.04352 c 51.1293,0 70.61272,27.06446 70.61272,27.06446"
       style="fill:none;fill-rule:evenodd;stroke:#000000;stroke-width:1px;stroke-linecap:butt;stroke-linejoin:miter;stroke-opacity:1" />
    <path
       sodipodi:nodetypes="cc"
       inkscape:connector-curvature="0"
       id="path6533"
       d="m 650.87855,615.04352 c 44.60215,0 69.62287,-23.93287 69.62287,-23.93287"
       style="fill:none;fill-rule:evenodd;stroke:#000000;stroke-width:1px;stroke-linecap:butt;stroke-linejoin:miter;stroke-opacity:1" />
    <path
       sodipodi:nodetypes="cc"
       inkscape:connector-curvature="0"
       id="path6535"
       d="m 663.99883,592.96774 c 39.16287,-1.08786 48.56896,-32.95434 48.56896,-32.95434"
       style="fill:none;fill-rule:evenodd;stroke:#000000;stroke-width:1px;stroke-linecap:butt;stroke-linejoin:miter;stroke-opacity:1" />
    <path
       inkscape:connector-curvature="0"
       id="path6537"
       d="m 711.79856,561.03527 c 20.66929,-25.02073 6.52715,-43.5143 6.52715,-43.5143"
       style="fill:none;fill-rule:evenodd;stroke:#000000;stroke-width:1px;stroke-linecap:butt;stroke-linejoin:miter;stroke-opacity:1" />
    <path
       sodipodi:nodetypes="cc"
       inkscape:connector-curvature="0"
       id="path6539"
       d="m 719.47956,591.87989 c 17.40572,-20.66929 38.00901,-18.17495 38.00901,-18.17495"
       style="fill:none;fill-rule:evenodd;stroke:#000000;stroke-width:1px;stroke-linecap:butt;stroke-linejoin:miter;stroke-opacity:1" />
    <path
       inkscape:connector-curvature="0"
       id="path6541"
       d="m 727.02857,565.00208 c 22.845,-17.40572 39.16286,-8.70286 39.16286,-8.70286"
       style="fill:none;fill-rule:evenodd;stroke:#000000;stroke-width:1px;stroke-linecap:butt;stroke-linejoin:miter;stroke-opacity:1" />
    <path
       inkscape:connector-curvature="0"
       id="path6543"
       d="m 727.02857,565.00208 c 16.31786,-36.98716 5.43928,-53.30502 5.43928,-53.30502"
       style="fill:none;fill-rule:evenodd;stroke:#000000;stroke-width:1px;stroke-linecap:butt;stroke-linejoin:miter;stroke-opacity:1" />
    <path
       inkscape:connector-curvature="0"
       id="path6545"
       d="m 659.58141,562.82636 c 25.02072,4.35143 29.37215,13.05429 29.37215,13.05429"
       style="fill:none;fill-rule:evenodd;stroke:#000000;stroke-width:1px;stroke-linecap:butt;stroke-linejoin:miter;stroke-opacity:1" />
    <path
       inkscape:connector-curvature="0"
       id="path6547"
       d="m 662.84498,546.5085 c 29.37215,0 34.81144,17.40572 34.81144,17.40572"
       style="fill:none;fill-rule:evenodd;stroke:#000000;stroke-width:1px;stroke-linecap:butt;stroke-linejoin:miter;stroke-opacity:1" />
    <path
       inkscape:connector-curvature="0"
       id="path6549"
       d="m 663.93284,545.42064 c 28.28429,-9.79072 52.21715,-1.08786 52.21715,-1.08786"
       style="fill:none;fill-rule:evenodd;stroke:#000000;stroke-width:1px;stroke-linecap:butt;stroke-linejoin:miter;stroke-opacity:1" />
    <path
       sodipodi:nodetypes="ccc"
       inkscape:connector-curvature="0"
       id="path6551"
       d="m 688.95355,495.3792 c 0,0 5.43929,21.75715 -30.42701,34.52581 43.5473,-1.37349 58.7773,-25.30636 58.7773,-25.30636"
       style="fill:none;fill-rule:evenodd;stroke:#000000;stroke-width:1px;stroke-linecap:butt;stroke-linejoin:miter;stroke-opacity:1" />
    <path
       inkscape:connector-curvature="0"
       id="path6553"
       d="m 647.61497,518.22421 c 21.75715,-10.87858 25.02072,-34.81144 25.02072,-34.81144"
       style="fill:none;fill-rule:evenodd;stroke:#000000;stroke-width:1px;stroke-linecap:butt;stroke-linejoin:miter;stroke-opacity:1" />
    <path
       inkscape:connector-curvature="0"
       id="path6555"
       d="m 672.63569,484.50063 c 3.26358,-25.02073 -11.96643,-38.07502 -11.96643,-38.07502"
       style="fill:none;fill-rule:evenodd;stroke:#000000;stroke-width:1px;stroke-linecap:butt;stroke-linejoin:miter;stroke-opacity:1" />
    <path
       inkscape:connector-curvature="0"
       id="path6557"
       d="m 688.95356,498.64277 c -1.08786,-25.02072 29.37215,-31.54786 29.37215,-31.54786"
       style="fill:none;fill-rule:evenodd;stroke:#000000;stroke-width:1px;stroke-linecap:butt;stroke-linejoin:miter;stroke-opacity:1" />
    <path
       sodipodi:nodetypes="ccc"
       inkscape:connector-curvature="0"
       id="path6559"
       d="m 667.19641,439.89847 c 0,0 16.31786,6.52714 16.31786,30.46001 1.08786,-16.31786 36.98715,-17.40572 36.98715,-17.40572"
       style="fill:none;fill-rule:evenodd;stroke:#000000;stroke-width:1px;stroke-linecap:butt;stroke-linejoin:miter;stroke-opacity:1" />
    <path
       sodipodi:nodetypes="ccc"
       inkscape:connector-curvature="0"
       id="path6561"
       d="m 537.74137,508.43349 c 0,-45.69001 64.18359,-63.09573 64.18359,-63.09573 16.31786,-15.23001 10.87858,-32.63573 10.87858,-32.63573"
       style="fill:none;fill-rule:evenodd;stroke:#000000;stroke-width:1px;stroke-linecap:butt;stroke-linejoin:miter;stroke-opacity:1" />
    <path
       sodipodi:nodetypes="ccc"
       inkscape:connector-curvature="0"
       id="path6563"
       d="m 537.74137,502.9942 c 2.17572,-53.30501 33.72358,-83.76502 33.72358,-83.76502 21.75715,-20.66929 34.81144,4.35143 34.81144,4.35143"
       style="fill:none;fill-rule:evenodd;stroke:#000000;stroke-width:1px;stroke-linecap:butt;stroke-linejoin:miter;stroke-opacity:1" />
    <path
       sodipodi:nodetypes="ccc"
       inkscape:connector-curvature="0"
       id="path6565"
       d="m 598.66139,467.09491 c 25.02072,-1.08786 30.46001,13.05429 30.46001,13.05429 20.66929,20.66929 14.14214,32.63572 14.14214,32.63572"
       style="fill:none;fill-rule:evenodd;stroke:#000000;stroke-width:1px;stroke-linecap:butt;stroke-linejoin:miter;stroke-opacity:1" />
    <path
       sodipodi:nodetypes="ccc"
       inkscape:connector-curvature="0"
       id="path6567"
       d="m 532.30208,443.16204 c 0,0 3.26357,-29.37215 21.75715,-68.53502 8.70286,-26.10858 -11.96643,-32.63572 -11.96643,-32.63572"
       style="fill:none;fill-rule:evenodd;stroke:#000000;stroke-width:1px;stroke-linecap:butt;stroke-linejoin:miter;stroke-opacity:1" />
    <path
       sodipodi:nodetypes="ccc"
       inkscape:connector-curvature="0"
       id="path6569"
       d="m 610.62782,522.57564 c 0,0 14.14215,-16.31787 9.79072,-34.81144 11.96643,16.31786 8.70286,28.28429 8.70286,28.28429"
       style="fill:none;fill-rule:evenodd;stroke:#000000;stroke-width:1px;stroke-linecap:butt;stroke-linejoin:miter;stroke-opacity:1" />
    <path
       inkscape:connector-curvature="0"
       id="path6571"
       d="m 598.66139,466.00705 c 28.28429,-11.96643 29.37215,-29.37215 29.37215,-29.37215"
       style="fill:none;fill-rule:evenodd;stroke:#000000;stroke-width:1px;stroke-linecap:butt;stroke-linejoin:miter;stroke-opacity:1" />
    <path
       inkscape:connector-curvature="0"
       id="path6573"
       d="m 551.88352,333.28844 c 0,0 29.37215,22.84501 14.14215,44.60216 26.10857,-20.6693 38.07501,-8.70286 38.07501,-8.70286"
       style="fill:none;fill-rule:evenodd;stroke:#000000;stroke-width:1px;stroke-linecap:butt;stroke-linejoin:miter;stroke-opacity:1" />
    <path
       sodipodi:nodetypes="ccc"
       inkscape:connector-curvature="0"
       id="path6575"
       d="m 612.80354,383.32988 c 0,0 -34.81144,-2.17571 -35.8993,18.49358 18.49358,-20.66929 31.54787,8.70286 31.54787,8.70286"
       style="fill:none;fill-rule:evenodd;stroke:#000000;stroke-width:1px;stroke-linecap:butt;stroke-linejoin:miter;stroke-opacity:1" />
  </g>
</svg>
