<?xml version="1.0" encoding="UTF-8" standalone="no"?>
<!-- Created with Inkscape (http://www.inkscape.org/) -->

<!-- 
Artwork by John Samuel. 
This work is licensed under a Creative Commons Attribution-ShareAlike 4.0 International License. 
-->

<svg
   xmlns:osb="http://www.openswatchbook.org/uri/2009/osb"
   xmlns:dc="http://purl.org/dc/elements/1.1/"
   xmlns:cc="http://creativecommons.org/ns#"
   xmlns:rdf="http://www.w3.org/1999/02/22-rdf-syntax-ns#"
   xmlns:svg="http://www.w3.org/2000/svg"
   xmlns="http://www.w3.org/2000/svg"
   xmlns:xlink="http://www.w3.org/1999/xlink"
   xmlns:sodipodi="http://sodipodi.sourceforge.net/DTD/sodipodi-0.dtd"
   xmlns:inkscape="http://www.inkscape.org/namespaces/inkscape"
   width="297mm"
   height="210mm"
   viewBox="0 0 1052.3622 744.09448"
   id="svg2"
   version="1.1"
   inkscape:version="0.92.5 (2060ec1f9f, 2020-04-08)"
   sodipodi:docname="tree-trunk.svg">
  <defs
     id="defs4">
    <linearGradient
       inkscape:collect="always"
       id="linearGradient1024">
      <stop
         style="stop-color:#e1a779;stop-opacity:1;"
         offset="0"
         id="stop1020" />
      <stop
         style="stop-color:#e1a779;stop-opacity:0;"
         offset="1"
         id="stop1022" />
    </linearGradient>
    <linearGradient
       inkscape:collect="always"
       id="linearGradient1016">
      <stop
         style="stop-color:#e1a779;stop-opacity:1;"
         offset="0"
         id="stop1012" />
      <stop
         style="stop-color:#e1a779;stop-opacity:0;"
         offset="1"
         id="stop1014" />
    </linearGradient>
    <linearGradient
       inkscape:collect="always"
       id="linearGradient988">
      <stop
         style="stop-color:#3b1603;stop-opacity:1;"
         offset="0"
         id="stop984" />
      <stop
         style="stop-color:#3b1603;stop-opacity:0;"
         offset="1"
         id="stop986" />
    </linearGradient>
    <linearGradient
       inkscape:collect="always"
       id="linearGradient965">
      <stop
         style="stop-color:#3b1603;stop-opacity:1;"
         offset="0"
         id="stop961" />
      <stop
         style="stop-color:#3b1603;stop-opacity:0;"
         offset="1"
         id="stop963" />
    </linearGradient>
    <linearGradient
       inkscape:collect="always"
       id="linearGradient947">
      <stop
         style="stop-color:#3b1603;stop-opacity:1;"
         offset="0"
         id="stop943" />
      <stop
         style="stop-color:#3b1603;stop-opacity:0;"
         offset="1"
         id="stop945" />
    </linearGradient>
    <linearGradient
       id="linearGradient4824"
       osb:paint="solid">
      <stop
         style="stop-color:#000000;stop-opacity:1;"
         offset="0"
         id="stop4826" />
    </linearGradient>
    <linearGradient
       inkscape:collect="always"
       xlink:href="#linearGradient947"
       id="linearGradient949"
       x1="374.00064"
       y1="680.73973"
       x2="409.02049"
       y2="680.73973"
       gradientUnits="userSpaceOnUse"
       gradientTransform="matrix(7.9533006,0,0,0.98122155,-2623.7983,7.3205449)" />
    <linearGradient
       inkscape:collect="always"
       xlink:href="#linearGradient965"
       id="linearGradient967"
       x1="173.72554"
       y1="751.03613"
       x2="484.19897"
       y2="715.4917"
       gradientUnits="userSpaceOnUse"
       gradientTransform="rotate(173.67392,257.70075,770.47083)" />
    <linearGradient
       inkscape:collect="always"
       xlink:href="#linearGradient965"
       id="linearGradient972"
       gradientUnits="userSpaceOnUse"
       gradientTransform="rotate(173.67392,280.26294,781.39602)"
       x1="173.72554"
       y1="751.03613"
       x2="437.85165"
       y2="655.44708" />
    <linearGradient
       inkscape:collect="always"
       xlink:href="#linearGradient965"
       id="linearGradient976"
       gradientUnits="userSpaceOnUse"
       gradientTransform="rotate(173.67392,280.26294,781.39602)"
       x1="173.72554"
       y1="751.03613"
       x2="169.75594"
       y2="551.97479" />
    <linearGradient
       inkscape:collect="always"
       xlink:href="#linearGradient965"
       id="linearGradient980"
       gradientUnits="userSpaceOnUse"
       gradientTransform="rotate(173.67392,280.26294,781.39602)"
       x1="-6.6993308"
       y1="737.17682"
       x2="-55.64994"
       y2="527.55762" />
    <linearGradient
       inkscape:collect="always"
       xlink:href="#linearGradient988"
       id="linearGradient990"
       x1="848.17352"
       y1="306.55618"
       x2="921.66925"
       y2="664.40198"
       gradientUnits="userSpaceOnUse" />
    <linearGradient
       inkscape:collect="always"
       xlink:href="#linearGradient965"
       id="linearGradient999"
       gradientUnits="userSpaceOnUse"
       gradientTransform="rotate(173.67392,235.97239,778.37849)"
       x1="173.72554"
       y1="751.03613"
       x2="169.75594"
       y2="551.97479" />
    <linearGradient
       inkscape:collect="always"
       xlink:href="#linearGradient947"
       id="linearGradient1009"
       x1="685.87152"
       y1="785.02515"
       x2="686.9776"
       y2="744.02777"
       gradientUnits="userSpaceOnUse" />
    <radialGradient
       inkscape:collect="always"
       xlink:href="#linearGradient1016"
       id="radialGradient1018"
       cx="543.75128"
       cy="565.41852"
       fx="543.75128"
       fy="565.41852"
       r="60.536274"
       gradientTransform="matrix(1,0,0,0.27941319,0,407.43313)"
       gradientUnits="userSpaceOnUse" />
    <radialGradient
       inkscape:collect="always"
       xlink:href="#linearGradient1024"
       id="radialGradient1026"
       cx="817.39508"
       cy="-472.41956"
       fx="817.39508"
       fy="-472.41956"
       r="49.681484"
       gradientTransform="matrix(1,0,0,0.29751136,0,-331.86937)"
       gradientUnits="userSpaceOnUse" />
  </defs>
  <sodipodi:namedview
     id="base"
     pagecolor="#f8e0b0"
     bordercolor="#666666"
     borderopacity="1.0"
     inkscape:pageopacity="0"
     inkscape:pageshadow="2"
     inkscape:zoom="0.82492985"
     inkscape:cx="561.25984"
     inkscape:cy="396.85039"
     inkscape:document-units="px"
     inkscape:current-layer="layer1"
     showgrid="false"
     inkscape:window-width="1600"
     inkscape:window-height="851"
     inkscape:window-x="0"
     inkscape:window-y="25"
     inkscape:window-maximized="1"
     showguides="false">
    <sodipodi:guide
       position="0,0"
       orientation="0,1052.3622"
       id="guide4163"
       inkscape:locked="false" />
    <sodipodi:guide
       position="1052.3622,0"
       orientation="-744.09449,0"
       id="guide4165"
       inkscape:locked="false" />
    <sodipodi:guide
       position="1052.3622,744.09449"
       orientation="0,-1052.3622"
       id="guide4167"
       inkscape:locked="false" />
    <sodipodi:guide
       position="0,744.09449"
       orientation="744.09449,0"
       id="guide4169"
       inkscape:locked="false" />
    <sodipodi:guide
       position="-0.83367063,744.2915"
       orientation="372.04721,0"
       id="guide4173"
       inkscape:locked="false" />
    <sodipodi:guide
       position="-0.83367063,372.24429"
       orientation="0,526.18108"
       id="guide4175"
       inkscape:locked="false" />
    <sodipodi:guide
       position="525.34742,372.24429"
       orientation="-372.04721,0"
       id="guide4177"
       inkscape:locked="false" />
    <sodipodi:guide
       position="525.34742,744.2915"
       orientation="0,-526.18108"
       id="guide4179"
       inkscape:locked="false" />
  </sodipodi:namedview>
  <metadata
     id="metadata7">
    <rdf:RDF>
      <cc:Work
         rdf:about="">
        <dc:format>image/svg+xml</dc:format>
        <dc:type
           rdf:resource="http://purl.org/dc/dcmitype/StillImage" />
        <dc:title></dc:title>
      </cc:Work>
    </rdf:RDF>
  </metadata>
  <g
     inkscape:label="Layer 1"
     inkscape:groupmode="layer"
     id="layer1"
     transform="translate(0,-308.26772)">
    <path
       id="path28027"
       style="fill:#3b1603;fill-rule:evenodd;stroke:#984d25;stroke-width:1.87499999;stroke-linecap:butt;stroke-linejoin:miter;stroke-miterlimit:4;stroke-dasharray:none;stroke-opacity:1;fill-opacity:1"
       d="m 338.50101,766.56446 c -63.78388,5.57556 -224.36829,58.69302 -299.861359,83.50782 84.012289,-4.42851 238.481119,-63.09584 330.709939,-62.50532 -28.23208,45.64183 -189.05075,99.46645 -231.8379,136.37524 68.81228,-38.59944 254.50558,-101.15466 320.4818,-122.73771 18.36254,50.25274 -40.27812,159.39448 -42.61726,196.0394 36.20762,-44.17495 74.46245,-168.39842 122.16948,-189.22064 35.24679,37.96545 85.15111,146.40407 104.55433,188.65241 -10.2898,-47.01344 -10.22763,-153.38073 -23.86566,-196.60763 75.91981,27.739 287.48336,106.18551 332.98286,142.05752 -34.2577,-42.46747 -235.60592,-94.85969 -247.74834,-151.14921 94.99174,3.45544 266.99888,29.20379 338.6652,44.32196 -48.71003,-27.96239 -215.81754,-59.85739 -294.62265,-74.11972 m -2.26627,-187.43645 a 202.00385,37.572163 0 0 1 -202.00385,37.57216 202.00385,37.572163 0 0 1 -202.00384,-37.57216 202.00385,37.572163 0 0 1 202.00384,-37.57217 202.00385,37.572163 0 0 1 202.00385,37.57217 z m -6.5e-4,1.25335 c 4.18306,67.20216 9.76365,136.50062 2.26692,186.1831 M 340.78192,575.00099 c -8.0647,56.48209 -6.21545,126.08195 -2.28092,191.56347" />
    <ellipse
       ry="33.835667"
       rx="170.43588"
       cy="573.23218"
       cx="543.24133"
       id="ellipse28017"
       style="opacity:0.97000002;fill:#643008;fill-opacity:1;fill-rule:nonzero;stroke:#73381a;stroke-width:2.34281249;stroke-linecap:round;stroke-linejoin:round;stroke-miterlimit:4;stroke-dasharray:none;stroke-dashoffset:0;stroke-opacity:1" />
    <ellipse
       style="opacity:0.97000002;fill:#732a07;fill-opacity:1;fill-rule:nonzero;stroke:#73381a;stroke-width:2.34281249;stroke-linecap:round;stroke-linejoin:round;stroke-miterlimit:4;stroke-dasharray:none;stroke-dashoffset:0;stroke-opacity:1"
       id="ellipse28019"
       cx="543.24133"
       cy="571.70239"
       rx="130.40201"
       ry="29.419037" />
    <ellipse
       ry="23.983288"
       rx="99.793144"
       cy="569.40771"
       cx="543.75128"
       id="ellipse28021"
       style="opacity:0.97000002;fill:#aa6c45;fill-opacity:1;fill-rule:nonzero;stroke:#73381a;stroke-width:2.34281249;stroke-linecap:round;stroke-linejoin:round;stroke-miterlimit:4;stroke-dasharray:none;stroke-dashoffset:0;stroke-opacity:1" />
    <ellipse
       style="opacity:0.97000002;fill:#aa6c45;fill-opacity:1;fill-rule:nonzero;stroke:#73381a;stroke-width:2.34281249;stroke-linecap:round;stroke-linejoin:round;stroke-miterlimit:4;stroke-dasharray:none;stroke-dashoffset:0;stroke-opacity:1"
       id="ellipse28023"
       cx="543.75128"
       cy="566.34814"
       rx="76.96627"
       ry="19.615774" />
    <ellipse
       ry="15.743227"
       rx="59.364868"
       cy="565.41852"
       cx="543.75128"
       id="ellipse28025"
       style="opacity:0.97000002;fill:url(#radialGradient1018);fill-opacity:1;fill-rule:nonzero;stroke:#73381a;stroke-width:2.34281249;stroke-linecap:round;stroke-linejoin:round;stroke-miterlimit:4;stroke-dasharray:none;stroke-dashoffset:0;stroke-opacity:1" />
    <g
       id="g28046"
       transform="matrix(0.64233795,0.97480527,-2.8387943,0.22057055,1426.6363,-91.545541)"
       style="stroke-width:1.09934234;stroke-miterlimit:4;stroke-dasharray:none" />
    <path
       id="ellipse28048"
       transform="matrix(0.47644989,0.87920163,-0.90107908,0.43365481,0,0)"
       style="opacity:0.97000002;fill:#3b1603;fill-opacity:1;fill-rule:nonzero;stroke:#984d25;stroke-width:1.87608373;stroke-linecap:round;stroke-linejoin:round;stroke-miterlimit:4;stroke-dasharray:none;stroke-dashoffset:0;stroke-opacity:1"
       d="m 982.83823,-465.10071 c 0,18.2456 -74.25885,33.03659 -165.86179,33.03659 -91.60294,0 -165.86179,-14.79099 -165.86179,-33.03659 0,-18.2456 74.25885,-33.03659 165.86179,-33.03659 91.60294,0 165.86179,14.79099 165.86179,33.03659 z m -331.72358,0 c 1.39785,-57.88196 -9.41685,-122.99417 8.07703,-163.30461 m 323.64655,163.30461 c 8.24544,-55.1644 15.22192,-122.99847 7.67776,-179.99627"
       inkscape:connector-curvature="0"
       sodipodi:nodetypes="ssssscccc" />
    <ellipse
       style="opacity:0.97000002;fill:#643008;fill-opacity:1;fill-rule:nonzero;stroke:#73381a;stroke-width:1.87608376;stroke-linecap:round;stroke-linejoin:round;stroke-miterlimit:4;stroke-dasharray:none;stroke-dashoffset:0;stroke-opacity:1"
       id="ellipse28050"
       cx="816.97644"
       cy="-465.54901"
       rx="139.94188"
       ry="29.751152"
       transform="matrix(0.47644989,0.87920163,-0.90107908,0.43365481,0,0)" />
    <ellipse
       ry="25.867682"
       rx="107.07077"
       cy="-466.8941"
       cx="816.97644"
       id="ellipse28052"
       style="opacity:0.97000002;fill:#732a07;fill-opacity:1;fill-rule:nonzero;stroke:#73381a;stroke-width:1.87608376;stroke-linecap:round;stroke-linejoin:round;stroke-miterlimit:4;stroke-dasharray:none;stroke-dashoffset:0;stroke-opacity:1"
       transform="matrix(0.47644989,0.87920163,-0.90107908,0.43365481,0,0)" />
    <ellipse
       style="opacity:0.97000002;fill:#aa6c45;fill-opacity:1;fill-rule:nonzero;stroke:#73381a;stroke-width:1.87608376;stroke-linecap:round;stroke-linejoin:round;stroke-miterlimit:4;stroke-dasharray:none;stroke-dashoffset:0;stroke-opacity:1"
       id="ellipse28054"
       cx="817.39508"
       cy="-468.91187"
       rx="81.938385"
       ry="21.088116"
       transform="matrix(0.47644989,0.87920163,-0.90107908,0.43365481,0,0)" />
    <ellipse
       ry="17.247831"
       rx="63.195641"
       cy="-471.60205"
       cx="817.39508"
       id="ellipse28056"
       style="opacity:0.97000002;fill:#aa6c45;fill-opacity:1;fill-rule:nonzero;stroke:#73381a;stroke-width:1.87608376;stroke-linecap:round;stroke-linejoin:round;stroke-miterlimit:4;stroke-dasharray:none;stroke-dashoffset:0;stroke-opacity:1"
       transform="matrix(0.47644989,0.87920163,-0.90107908,0.43365481,0,0)" />
    <ellipse
       style="opacity:0.97000002;fill:url(#radialGradient1026);fill-opacity:1;fill-rule:nonzero;stroke:#73381a;stroke-width:1.87608376;stroke-linecap:round;stroke-linejoin:round;stroke-miterlimit:4;stroke-dasharray:none;stroke-dashoffset:0;stroke-opacity:1"
       id="ellipse28058"
       cx="817.39508"
       cy="-472.41956"
       rx="48.743443"
       ry="13.842764"
       transform="matrix(0.47644989,0.87920163,-0.90107908,0.43365481,0,0)" />
    <path
       style="opacity:0.97000002;fill:#984d25;fill-opacity:1;fill-rule:nonzero;stroke:#984d25;stroke-width:0.15152803;stroke-linecap:round;stroke-linejoin:round;stroke-miterlimit:4;stroke-dasharray:none;stroke-dashoffset:0;stroke-opacity:1"
       d="m 936.55858,633.1233 c -1.70438,-0.7878 -6.64859,-3.00845 -11.06155,-4.96821 -21.41564,-9.51047 -46.92558,-20.27373 -75.19579,-31.72693 l -4.43219,-1.79562 -0.0199,-2.69466 -0.0199,-2.69466 2.06552,0.98658 c 12.16095,5.80854 28.04983,13.04115 53.39565,24.30567 18.52398,8.23267 35.60966,15.95693 41.36715,18.70167 l 35.19238,16.59275 27.23715,18.78848 -67.46784,-35.00398 -1.06069,-0.49028 z"
       id="path927"
       inkscape:connector-curvature="0"
       transform="matrix(0.9375,0,0,0.9375,0,308.26772)"
       sodipodi:nodetypes="cccccccscccccc" />
    <path
       style="opacity:0.97000002;fill:#984d25;fill-opacity:1;fill-rule:nonzero;stroke:#984d25;stroke-width:2.42444849;stroke-linecap:round;stroke-linejoin:round;stroke-miterlimit:4;stroke-dasharray:none;stroke-dashoffset:0;stroke-opacity:1"
       d="m 446.34357,724.16188 c 10e-4,-1.53947 5.2253,-18.07307 11.6086,-36.74133 20.57849,-60.18279 23.64064,-69.71783 28.37432,-88.35322 5.80301,-22.84515 7.84218,-38.75482 6.91192,-53.92703 -0.68876,-11.23349 -2.75414,-20.76391 -4.49984,-20.76391 -0.45962,0 -21.77901,7.04298 -47.37641,15.65107 -99.64418,33.50912 -183.16468,64.46351 -239.65893,88.82247 -10.87357,4.68842 -20.09787,8.19666 -20.49844,7.79609 -0.40058,-0.40058 18.8605,-10.31733 42.80239,-22.03724 106.91035,-52.33419 129.43814,-64.52628 151.05847,-81.75313 9.93197,-7.91369 20.36191,-19.23932 20.36191,-22.11052 0,-1.8629 -28.5058,-0.29562 -50.5252,2.77792 -29.89543,4.17293 -69.2255,12.52672 -133.67906,28.39374 -93.22934,22.95096 -126.205646,30.1619 -144.080689,31.50616 -7.799048,0.58651 -7.208555,0.30915 15.531085,-7.29522 C 193.9427,528.91825 292.3682,501.33797 345.72637,492.41651 l 16.36502,-2.73622 -0.0479,-5.38116 c -0.0264,-2.95964 -0.78892,-23.10993 -1.69459,-44.77844 -1.88194,-45.02592 -1.14666,-100.72484 1.70428,-129.10189 1.00475,-10.00085 1.83351,-18.9673 1.84168,-19.92544 0.01,-1.19926 1.05358,-0.78722 3.34847,1.32235 16.86486,15.50299 73.37347,26.93374 155.40348,31.43552 29.42903,1.61506 112.73479,0.86225 137.04562,-1.23844 68.58054,-5.92601 113.7338,-15.83652 130.53348,-28.65026 l 4.02342,-3.06881 v 4.2191 c 0,2.32051 0.82645,17.21317 1.83654,33.0948 4.06075,63.84672 4.34828,125.95601 0.68645,148.2798 -0.60151,3.66698 -0.64879,7.13366 -0.1051,7.70373 0.54371,0.57007 12.3595,3.16151 26.25732,5.75872 119.93477,22.4134 207.57506,43.08557 256.20156,60.43164 12.6666,4.51842 18.7658,7.20957 16.5177,7.28807 -0.5806,0.0202 -14.7636,-2.38252 -31.5179,-5.33956 C 959.49965,533.2641 837.84607,517.9765 763.67885,513.97434 l -15.4177,-0.83195 1.11874,3.9008 c 3.49822,12.19758 17.12822,26.74293 38.01208,40.5649 13.85865,9.17234 36.71255,21.8969 50.19456,27.94726 5.36661,2.4084 7.57624,4.05883 7.57624,5.65892 0,1.24239 -0.2466,2.2589 -0.54801,2.2589 -0.30141,0 -11.3478,-4.31026 -24.54754,-9.57835 -45.00074,-17.96005 -158.58483,-60.73066 -161.27985,-60.73066 -0.99989,0 -0.91301,1.61214 0.31028,5.75807 4.932,16.71524 8.58609,46.21384 13.92755,112.4338 1.98983,24.66877 4.4787,52.13316 5.5308,61.03199 1.0521,8.89882 1.73107,16.36153 1.5088,16.58379 -0.22224,0.22226 -3.35724,-5.9676 -6.96665,-13.75525 -23.15568,-49.96067 -57.40709,-114.64213 -74.89965,-141.44288 -9.52058,-14.58669 -23.01963,-32.12395 -24.72696,-32.12395 -2.93333,0 -13.18594,7.24763 -20.5618,14.53525 -18.70736,18.48356 -33.59366,43.20244 -70.75095,117.48286 -16.31314,32.61131 -32.02929,60.95166 -34.72446,62.61736 -0.60134,0.37165 -1.09219,-0.58384 -1.09076,-2.12332 z"
       id="path929"
       inkscape:connector-curvature="0"
       transform="matrix(0.9375,0,0,0.9375,0,308.26772)" />
    <path
       style="opacity:0.97000002;fill:#984d25;fill-opacity:1;fill-rule:nonzero;stroke:#984d25;stroke-width:0.85717201;stroke-linecap:round;stroke-linejoin:round;stroke-miterlimit:4;stroke-dasharray:none;stroke-dashoffset:0;stroke-opacity:1"
       d="M 946.5234,377.76223 C 966.22194,378.88927 932.6057,262.40767 885.62636,190.28034 864.53787,157.90321 834.08472,110.96404 814.84684,89.866954 790.49038,63.156611 778.48802,66.323807 780.49218,64.885877 845.28526,18.39863 898.12821,-1.3769651 941.15803,-1.7908825 c 34.49977,-0.3318641 94.65207,3.5504341 134.62057,1.41233904 27.8265,-1.48856204 48.4364,1.76932286 48.4364,1.76932286 0.4098,17.0444676 -0.4783,37.5500876 -1.2136,59.4026676 -1.2449,37.000882 0.347,74.949733 0.417,105.431283 0.1901,82.79686 0.7511,128.88419 0.011,135.47782 1.3491,-0.32772 -20.4253,11.14463 -29.6224,16.11308 -29.6138,15.99792 -24.8071,16.77816 -69.6452,32.34002 -16.5406,5.74069 -78.41595,28.38463 -77.6379,27.60658 z"
       id="path934"
       inkscape:connector-curvature="0"
       transform="matrix(0.9375,0,0,0.9375,0,308.26772)"
       sodipodi:nodetypes="csssssssscsscc" />
    <path
       style="opacity:0.97000002;fill:url(#linearGradient967);fill-opacity:1;fill-rule:nonzero;stroke:none;stroke-width:2.0625;stroke-linecap:round;stroke-linejoin:round;stroke-miterlimit:4;stroke-dasharray:none;stroke-dashoffset:0;stroke-opacity:1"
       inkscape:transform-center-x="2.4765469"
       inkscape:transform-center-y="-21.19942"
       d="M 38.639651,850.07228 C 137.09393,820.88679 226.49435,783.55282 338.501,766.56446 l 46.1908,19.29781 C 273.32197,793.24787 148.63168,827.809 38.639651,850.07228 Z"
       id="path959"
       inkscape:connector-curvature="0"
       sodipodi:nodetypes="cccc" />
    <path
       style="opacity:0.97000002;fill:url(#linearGradient976);fill-opacity:1;fill-rule:nonzero;stroke:none;stroke-width:2.0625;stroke-linecap:round;stroke-linejoin:round;stroke-miterlimit:4;stroke-dasharray:none;stroke-dashoffset:0;stroke-opacity:1"
       inkscape:transform-center-x="2.4765469"
       inkscape:transform-center-y="-21.19942"
       d="m 415.37623,997.24389 c 35.2886,-119.02467 50.31676,-146.95399 43.10388,-206.26755 40.34141,6.50356 70.45728,1.60383 111.87013,2.7502 -91.54591,29.1287 -79.72368,92.72368 -154.97401,203.51735 z"
       id="path974"
       inkscape:connector-curvature="0"
       sodipodi:nodetypes="cccc" />
    <path
       sodipodi:nodetypes="cccc"
       inkscape:connector-curvature="0"
       id="path970"
       d="m 137.51169,923.9422 c 83.6135,-52.38672 194.94113,-92.2465 238.66849,-142.80403 40.34141,6.50356 82.04052,11.442 123.45337,12.58837 -102.64841,23.74536 -252.79401,87.5472 -362.12186,130.21566 z"
       inkscape:transform-center-y="-21.19942"
       inkscape:transform-center-x="2.4765469"
       style="opacity:0.97000002;fill:url(#linearGradient972);fill-opacity:1;fill-rule:nonzero;stroke:none;stroke-width:2.0625;stroke-linecap:round;stroke-linejoin:round;stroke-miterlimit:4;stroke-dasharray:none;stroke-dashoffset:0;stroke-opacity:1" />
    <path
       sodipodi:nodetypes="cccc"
       inkscape:connector-curvature="0"
       id="path978"
       d="m 642.10004,996.67566 c -59.0376,-137.20803 -87.11331,-156.6139 -115.91893,-203.42639 43.76733,0.87907 50.35284,-1.0085 91.76569,0.13787 11.53963,74.28275 11.34167,72.52341 24.15324,203.28852 z"
       inkscape:transform-center-y="-21.19942"
       inkscape:transform-center-x="2.4765469"
       style="opacity:0.97000002;fill:url(#linearGradient980);fill-opacity:1;fill-rule:nonzero;stroke:none;stroke-width:2.0625;stroke-linecap:round;stroke-linejoin:round;stroke-miterlimit:4;stroke-dasharray:none;stroke-dashoffset:0;stroke-opacity:1" />
    <path
       style="opacity:0.97000002;fill:url(#linearGradient949);fill-opacity:1;fill-rule:nonzero;stroke:none;stroke-width:5.76170683;stroke-linecap:round;stroke-linejoin:round;stroke-miterlimit:4;stroke-dasharray:none;stroke-dashoffset:0;stroke-opacity:1"
       d="M 342.46686,579.37679 C 435.25988,613.69581 527.8,607.7429 622.5343,608.82074 l 80.9346,182.1556 c -88.86906,-9.32032 -289.38244,28.10296 -364.00822,-23.63335 -7.18696,-66.13921 -3.69023,-127.73331 3.00618,-187.9662 z"
       id="rect940"
       inkscape:connector-curvature="0"
       sodipodi:nodetypes="ccccc" />
    <path
       style="opacity:0.97000002;fill:url(#linearGradient990);fill-opacity:1;fill-rule:nonzero;stroke:none;stroke-width:2.0625;stroke-linecap:round;stroke-linejoin:round;stroke-miterlimit:4;stroke-dasharray:none;stroke-dashoffset:0;stroke-opacity:1"
       d="m 729.31598,370.76791 c 38.13677,-22.88631 77.69049,-44.35567 118.85753,-64.21172 l 205.77809,3.01539 -0.7365,281.54228 -165.84894,71.30595 C 869.4009,521.2716 814.49542,452.12072 729.31598,370.76791 Z"
       id="rect982"
       inkscape:connector-curvature="0"
       sodipodi:nodetypes="cccccc" />
    <path
       sodipodi:nodetypes="cccc"
       inkscape:connector-curvature="0"
       id="path995"
       d="M 1042.1341,835.2983 C 963.369,817.77281 777.59859,797.22711 703.4689,790.97634 c 20.7007,-6.38215 21.46288,-7.92184 44.04255,-29.79776 40.19425,11.3949 223.63002,33.14587 294.62265,74.11972 z"
       inkscape:transform-center-y="-21.19942"
       inkscape:transform-center-x="2.4765469"
       style="opacity:0.97000002;fill:url(#linearGradient976);fill-opacity:1;fill-rule:nonzero;stroke:none;stroke-width:2.0625;stroke-linecap:round;stroke-linejoin:round;stroke-miterlimit:4;stroke-dasharray:none;stroke-dashoffset:0;stroke-opacity:1" />
    <path
       style="opacity:0.97000002;fill:url(#linearGradient999);fill-opacity:1;fill-rule:nonzero;stroke:none;stroke-width:2.0625;stroke-linecap:round;stroke-linejoin:round;stroke-miterlimit:4;stroke-dasharray:none;stroke-dashoffset:0;stroke-opacity:1"
       inkscape:transform-center-x="2.4765469"
       inkscape:transform-center-y="-21.19942"
       d="M 951.21724,942.12555 C 908.96214,914.0513 680.54147,823.83274 599.95842,792.65249 c 24.84941,3.87005 76.45208,10.34657 103.51048,-1.67615 14.73829,50.12713 231.23407,134.96255 247.74834,151.14921 z"
       id="path997"
       inkscape:connector-curvature="0"
       sodipodi:nodetypes="cccc" />
    <path
       style="opacity:0.97000002;fill:url(#linearGradient1009);fill-opacity:1;fill-rule:nonzero;stroke:none;stroke-width:2.0625;stroke-linecap:round;stroke-linejoin:round;stroke-miterlimit:4;stroke-dasharray:none;stroke-dashoffset:0;stroke-opacity:1"
       d="m 327.5574,637.54779 419.95406,-37.20988 c 1.91958,55.14922 7.99174,113.62051 0,160.84068 -27.27487,68.88987 -346.61801,43.40121 -409.01046,5.38587 z"
       id="rect1001"
       inkscape:connector-curvature="0"
       sodipodi:nodetypes="ccccc" />
  </g>
</svg>
