<?xml version="1.0" encoding="UTF-8" standalone="no"?>
<!-- Created with Inkscape (http://www.inkscape.org/) -->

<!-- 
Artwork by John Samuel. 
This work is licensed under a Creative Commons Attribution-ShareAlike 4.0 International License. 
-->

<svg
   xmlns:osb="http://www.openswatchbook.org/uri/2009/osb"
   xmlns:dc="http://purl.org/dc/elements/1.1/"
   xmlns:cc="http://creativecommons.org/ns#"
   xmlns:rdf="http://www.w3.org/1999/02/22-rdf-syntax-ns#"
   xmlns:svg="http://www.w3.org/2000/svg"
   xmlns="http://www.w3.org/2000/svg"
   xmlns:xlink="http://www.w3.org/1999/xlink"
   xmlns:sodipodi="http://sodipodi.sourceforge.net/DTD/sodipodi-0.dtd"
   xmlns:inkscape="http://www.inkscape.org/namespaces/inkscape"
   width="297mm"
   height="210mm"
   viewBox="0 0 1052.3622 744.09448"
   id="svg2"
   version="1.1"
   inkscape:version="0.92.5 (2060ec1f9f, 2020-04-08)"
   sodipodi:docname="outpost.svg">
  <defs
     id="defs4">
    <linearGradient
       inkscape:collect="always"
       id="linearGradient1018">
      <stop
         style="stop-color:#f3d155;stop-opacity:1;"
         offset="0"
         id="stop1014" />
      <stop
         style="stop-color:#f3d155;stop-opacity:0;"
         offset="1"
         id="stop1016" />
    </linearGradient>
    <linearGradient
       inkscape:collect="always"
       id="linearGradient960">
      <stop
         style="stop-color:#c87e29;stop-opacity:1;"
         offset="0"
         id="stop956" />
      <stop
         style="stop-color:#c87e29;stop-opacity:0;"
         offset="1"
         id="stop958" />
    </linearGradient>
    <inkscape:path-effect
       effect="spiro"
       id="path-effect5629"
       is_visible="true" />
    <inkscape:path-effect
       effect="spiro"
       id="path-effect5625"
       is_visible="true" />
    <inkscape:path-effect
       effect="spiro"
       id="path-effect5621"
       is_visible="true" />
    <inkscape:path-effect
       effect="powerstroke"
       id="path-effect5617"
       is_visible="true"
       offset_points="0,0.5"
       sort_points="true"
       interpolator_type="CubicBezierJohan"
       interpolator_beta="0.2"
       start_linecap_type="zerowidth"
       linejoin_type="round"
       miter_limit="4"
       end_linecap_type="zerowidth"
       cusp_linecap_type="round" />
    <inkscape:path-effect
       effect="spiro"
       id="path-effect5615"
       is_visible="true" />
    <inkscape:path-effect
       effect="powerstroke"
       id="path-effect5611"
       is_visible="true"
       offset_points="0,0.5"
       sort_points="true"
       interpolator_type="CubicBezierJohan"
       interpolator_beta="0.2"
       start_linecap_type="zerowidth"
       linejoin_type="round"
       miter_limit="4"
       end_linecap_type="zerowidth"
       cusp_linecap_type="round" />
    <inkscape:path-effect
       effect="spiro"
       id="path-effect5609"
       is_visible="true" />
    <linearGradient
       id="linearGradient4824"
       osb:paint="solid">
      <stop
         style="stop-color:#000000;stop-opacity:1;"
         offset="0"
         id="stop4826" />
    </linearGradient>
    <linearGradient
       inkscape:collect="always"
       xlink:href="#linearGradient960"
       id="linearGradient1002"
       x1="531.68311"
       y1="-553.45209"
       x2="523.70923"
       y2="-1255.7699"
       gradientUnits="userSpaceOnUse" />
    <linearGradient
       inkscape:collect="always"
       xlink:href="#linearGradient1018"
       id="linearGradient1020"
       x1="566.23486"
       y1="-41.521751"
       x2="561.50836"
       y2="521.19263"
       gradientUnits="userSpaceOnUse"
       gradientTransform="matrix(0.9375,0,0,0.9375,2.2729205,307.96846)" />
  </defs>
  <sodipodi:namedview
     id="base"
     pagecolor="#ffffff"
     bordercolor="#666666"
     borderopacity="1.0"
     inkscape:pageopacity="0.0"
     inkscape:pageshadow="2"
     inkscape:zoom="0.82492985"
     inkscape:cx="561.25984"
     inkscape:cy="674.94794"
     inkscape:document-units="px"
     inkscape:current-layer="layer1"
     showgrid="false"
     inkscape:window-width="1600"
     inkscape:window-height="851"
     inkscape:window-x="0"
     inkscape:window-y="25"
     inkscape:window-maximized="1"
     showguides="false"
     inkscape:guide-bbox="true">
    <inkscape:grid
       type="xygrid"
       id="grid865" />
    <sodipodi:guide
       position="526.1811,755.74608"
       orientation="1,0"
       id="guide867"
       inkscape:locked="false" />
  </sodipodi:namedview>
  <metadata
     id="metadata7">
    <rdf:RDF>
      <cc:Work
         rdf:about="">
        <dc:format>image/svg+xml</dc:format>
        <dc:type
           rdf:resource="http://purl.org/dc/dcmitype/StillImage" />
        <dc:title />
      </cc:Work>
    </rdf:RDF>
  </metadata>
  <g
     inkscape:label="Layer 1"
     inkscape:groupmode="layer"
     id="layer1"
     transform="translate(0,-308.26772)">
    <path
       id="path850"
       transform="scale(1,-1)"
       style="opacity:1;fill:url(#linearGradient1002);fill-opacity:1;fill-rule:nonzero;stroke:none;stroke-width:1.875;stroke-linecap:round;stroke-linejoin:round;stroke-miterlimit:4;stroke-dasharray:none;stroke-dashoffset:0;stroke-opacity:1"
       d="m 532.81957,-659.14288 c -212.80796,0.97813 -413.54678,-19.58874 -532.95180642,-54.60405 L 1.1364603,-1052.3622 H 1054.6351 l -2.1405,333.77706 c -111.12903,36.07492 -306.86708,58.46412 -519.67503,59.44226 z"
       inkscape:connector-curvature="0"
       sodipodi:nodetypes="sccccs" />
    <path
       id="path861"
       style="opacity:1;fill:#f6f7f9;fill-opacity:1;fill-rule:nonzero;stroke:#beb08d;stroke-width:1.875;stroke-linecap:round;stroke-linejoin:round;stroke-miterlimit:4;stroke-dasharray:none;stroke-dashoffset:0;stroke-opacity:1"
       d="M 851.7651,939.59308 C 765.92596,962.01719 651.03446,974.82327 530.76961,975.37201 281.02853,976.51151 71.613056,925.43621 54.14025,859.12468 39.383336,688.51377 125.03122,524.33402 275.82286,434.17789 c 150.79164,-90.15614 341.23533,-91.04752 492.92579,-2.30718 151.69046,88.74034 238.98405,252.11063 225.94214,422.85166 -4.29617,31.99085 -57.08656,62.4466 -142.92569,84.87071 z" />
    <path
       style="fill:none;fill-rule:evenodd;stroke:#beb08d;stroke-width:1.87499999;stroke-linecap:butt;stroke-linejoin:miter;stroke-opacity:1;stroke-miterlimit:4;stroke-dasharray:none"
       d="M 113.64603,911.44114 C 204.72308,657.46605 335.19894,464.38003 526.1811,364.80374"
       id="path873"
       inkscape:connector-curvature="0"
       sodipodi:nodetypes="cc" />
    <path
       inkscape:connector-curvature="0"
       id="path875"
       d="M 213.65454,939.85265 C 298.06445,736.13844 374.59379,527.62736 526.1811,364.80374"
       style="fill:none;fill-rule:evenodd;stroke:#beb08d;stroke-width:1.87499999;stroke-linecap:butt;stroke-linejoin:miter;stroke-opacity:1;stroke-miterlimit:4;stroke-dasharray:none"
       sodipodi:nodetypes="cc" />
    <path
       sodipodi:nodetypes="cc"
       style="fill:none;fill-rule:evenodd;stroke:#beb08d;stroke-width:1.87499999;stroke-linecap:butt;stroke-linejoin:miter;stroke-opacity:1;stroke-miterlimit:4;stroke-dasharray:none"
       d="M 342.07455,965.99123 C 365.69035,747.71237 446.46987,556.51108 526.1811,364.80374"
       id="path877"
       inkscape:connector-curvature="0" />
    <path
       inkscape:connector-curvature="0"
       id="path879"
       d="M 54.140258,859.12468 C 126.67562,559.02795 296.10751,413.53672 526.1811,364.80374"
       style="fill:none;fill-rule:evenodd;stroke:#beb08d;stroke-width:1.87499999;stroke-linecap:butt;stroke-linejoin:miter;stroke-opacity:1;stroke-miterlimit:4;stroke-dasharray:none"
       sodipodi:nodetypes="cc" />
    <path
       inkscape:connector-curvature="0"
       id="path881"
       d="M 467.08518,973.94645 C 480.43992,768.25559 479.25568,556.50682 526.1811,364.80374"
       style="fill:none;fill-rule:evenodd;stroke:#beb08d;stroke-width:1.87499999;stroke-linecap:butt;stroke-linejoin:miter;stroke-opacity:1;stroke-miterlimit:4;stroke-dasharray:none"
       sodipodi:nodetypes="cc" />
    <path
       sodipodi:nodetypes="cc"
       inkscape:connector-curvature="0"
       id="path883"
       d="M 935.42501,911.44114 C 844.34796,657.46605 713.8721,464.38003 522.88994,364.80374"
       style="fill:none;fill-rule:evenodd;stroke:#beb08d;stroke-width:1.87499999;stroke-linecap:butt;stroke-linejoin:miter;stroke-opacity:1;stroke-miterlimit:4;stroke-dasharray:none" />
    <path
       sodipodi:nodetypes="cc"
       style="fill:none;fill-rule:evenodd;stroke:#beb08d;stroke-width:1.87499999;stroke-linecap:butt;stroke-linejoin:miter;stroke-opacity:1;stroke-miterlimit:4;stroke-dasharray:none"
       d="M 835.4165,939.85265 C 751.00659,736.13844 674.47725,527.62736 522.88994,364.80374"
       id="path885"
       inkscape:connector-curvature="0" />
    <path
       inkscape:connector-curvature="0"
       id="path887"
       d="M 706.99649,965.99123 C 683.38069,747.71237 602.60117,556.51108 522.88994,364.80374"
       style="fill:none;fill-rule:evenodd;stroke:#beb08d;stroke-width:1.87499999;stroke-linecap:butt;stroke-linejoin:miter;stroke-opacity:1;stroke-miterlimit:4;stroke-dasharray:none"
       sodipodi:nodetypes="cc" />
    <path
       sodipodi:nodetypes="cc"
       style="fill:none;fill-rule:evenodd;stroke:#beb08d;stroke-width:1.87499999;stroke-linecap:butt;stroke-linejoin:miter;stroke-opacity:1;stroke-miterlimit:4;stroke-dasharray:none"
       d="M 994.93078,859.12468 C 922.39542,559.02795 752.96353,413.53672 522.88994,364.80374"
       id="path889"
       inkscape:connector-curvature="0" />
    <path
       sodipodi:nodetypes="cc"
       style="fill:none;fill-rule:evenodd;stroke:#beb08d;stroke-width:1.87499999;stroke-linecap:butt;stroke-linejoin:miter;stroke-opacity:1;stroke-miterlimit:4;stroke-dasharray:none"
       d="M 581.98586,973.94645 C 568.63112,768.25559 569.81536,556.50682 522.88994,364.80374"
       id="path891"
       inkscape:connector-curvature="0" />
    <path
       sodipodi:open="true"
       d="M 992.14581,762.9698 A 469.728,125.01062 0 0 1 530.76961,883.49701 469.728,125.01062 0 0 1 54.140243,767.24968"
       sodipodi:end="3.0715821"
       sodipodi:start="0.035724864"
       sodipodi:ry="125.01062"
       sodipodi:rx="469.728"
       sodipodi:cy="758.50476"
       sodipodi:cx="522.71753"
       sodipodi:type="arc"
       id="path893"
       style="opacity:1;fill:#af8953;fill-opacity:0;fill-rule:nonzero;stroke:#beb08d;stroke-width:1.87499999;stroke-linecap:round;stroke-linejoin:round;stroke-miterlimit:4;stroke-dasharray:none;stroke-dashoffset:0;stroke-opacity:1" />
    <path
       style="opacity:1;fill:#af8953;fill-opacity:0;fill-rule:nonzero;stroke:#beb08d;stroke-width:1.87499999;stroke-linecap:round;stroke-linejoin:round;stroke-miterlimit:4;stroke-dasharray:none;stroke-dashoffset:0;stroke-opacity:1"
       id="path895"
       sodipodi:type="arc"
       sodipodi:cx="522.71753"
       sodipodi:cy="642.25476"
       sodipodi:rx="469.728"
       sodipodi:ry="125.01062"
       sodipodi:start="0.2934299"
       sodipodi:end="2.8388448"
       d="M 972.36816,678.41248 A 469.728,125.01062 0 0 1 524.90597,767.26402 469.728,125.01062 0 0 1 74.352369,679.52595"
       sodipodi:open="true" />
    <path
       sodipodi:open="true"
       d="M 934.68501,599.18837 A 469.728,125.01062 0 0 1 523.86202,664.14001 469.728,125.01062 0 0 1 111.85463,599.72193"
       sodipodi:end="2.6355769"
       sodipodi:start="0.50114274"
       sodipodi:ry="125.01062"
       sodipodi:rx="469.728"
       sodipodi:cy="539.12976"
       sodipodi:cx="522.71753"
       sodipodi:type="arc"
       id="path897"
       style="opacity:1;fill:#af8953;fill-opacity:0;fill-rule:nonzero;stroke:#beb08d;stroke-width:1.87499999;stroke-linecap:round;stroke-linejoin:round;stroke-miterlimit:4;stroke-dasharray:none;stroke-dashoffset:0;stroke-opacity:1" />
    <path
       style="opacity:1;fill:#af8953;fill-opacity:0;fill-rule:nonzero;stroke:#beb08d;stroke-width:1.875;stroke-linecap:round;stroke-linejoin:round;stroke-miterlimit:4;stroke-dasharray:none;stroke-dashoffset:0;stroke-opacity:1"
       id="path899"
       sodipodi:type="arc"
       sodipodi:cx="522.71753"
       sodipodi:cy="445.37976"
       sodipodi:rx="469.728"
       sodipodi:ry="125.01062"
       sodipodi:start="0.68340545"
       sodipodi:end="2.4403939"
       d="M 886.95725,524.31614 A 469.728,125.01062 0 0 1 526.89648,570.38543 469.728,125.01062 0 0 1 163.81275,526.02837"
       sodipodi:open="true" />
    <path
       sodipodi:open="true"
       d="m 816.65923,462.264 a 469.728,125.01062 0 0 1 -582.11685,1.2116"
       sodipodi:end="2.2312734"
       sodipodi:start="0.89467799"
       sodipodi:ry="125.01062"
       sodipodi:rx="469.728"
       sodipodi:cy="364.75476"
       sodipodi:cx="522.71753"
       sodipodi:type="arc"
       id="path901"
       style="opacity:1;fill:#af8953;fill-opacity:0;fill-rule:nonzero;stroke:#beb08d;stroke-width:1.87499999;stroke-linecap:round;stroke-linejoin:round;stroke-miterlimit:4;stroke-dasharray:none;stroke-dashoffset:0;stroke-opacity:1" />
    <path
       style="opacity:1;fill:#af8953;fill-opacity:0;fill-rule:nonzero;stroke:#beb08d;stroke-width:1.875;stroke-linecap:round;stroke-linejoin:round;stroke-miterlimit:4;stroke-dasharray:none;stroke-dashoffset:0;stroke-opacity:1"
       id="path903"
       sodipodi:type="arc"
       sodipodi:cx="522.71753"
       sodipodi:cy="310.37976"
       sodipodi:rx="469.728"
       sodipodi:ry="125.01062"
       sodipodi:start="1.0648319"
       sodipodi:end="2.0575508"
       d="M 750.37179,419.72748 A 469.728,125.01062 0 0 1 302.99767,420.8711"
       sodipodi:open="true" />
    <path
       d="m 677.58749,389.02545 a 469.728,125.01062 0 0 1 -306.22302,0.32271"
       sodipodi:end="1.8988639"
       sodipodi:start="1.2348091"
       sodipodi:ry="125.01062"
       sodipodi:rx="469.728"
       sodipodi:cy="271.00476"
       sodipodi:cx="522.71753"
       sodipodi:type="arc"
       id="path905"
       style="opacity:1;fill:#af8953;fill-opacity:0;fill-rule:nonzero;stroke:#beb08d;stroke-width:1.87499999;stroke-linecap:round;stroke-linejoin:round;stroke-miterlimit:4;stroke-dasharray:none;stroke-dashoffset:0;stroke-opacity:1"
       sodipodi:open="true" />
    <path
       style="opacity:1;fill:url(#linearGradient1020);fill-opacity:1;fill-rule:nonzero;stroke:none;stroke-width:2.27292037;stroke-linecap:round;stroke-linejoin:round;stroke-miterlimit:4;stroke-dasharray:none;stroke-dashoffset:0;stroke-opacity:1"
       d="m 1040.6566,712.50889 c -5.6254,-1.75659 -21.0595,-5.85854 -34.2979,-9.11548 l -24.06997,-5.92168 -4.71572,-14.33639 c -17.55562,-53.37029 -47.40992,-107.1629 -82.29999,-148.29103 -4.89478,-5.76992 -6.28247,-8.17898 -5.72431,-9.93758 0.57767,-1.82008 0.28466,-2.24959 -1.35695,-1.98905 -1.42188,0.22565 -7.92816,-5.51737 -20.27705,-17.89839 -10.00086,-10.02687 -24.57596,-23.51008 -32.38913,-29.96268 -7.81316,-6.45262 -14.61471,-12.4219 -15.11456,-13.26507 -0.49986,-0.84318 -1.42732,-1.53304 -2.06107,-1.53304 -0.63373,0 -6.10594,-3.4905 -12.16047,-7.75669 -12.98639,-9.15053 -31.362,-20.68244 -43.68147,-27.41299 -4.84416,-2.64653 -8.80756,-5.27706 -8.80756,-5.84562 0,-0.56854 -0.688,-1.03373 -1.52889,-1.03373 -0.8409,0 -9.15127,-3.50889 -18.46749,-7.79752 -17.50025,-8.05608 -39.46202,-17.00979 -47.90713,-19.53152 -2.65647,-0.79324 -4.82995,-1.81675 -4.82995,-2.27448 0,-0.45773 -1.66208,-1.07709 -3.6935,-1.37636 -2.03142,-0.29926 -12.38741,-2.91828 -23.01332,-5.82004 -75.87325,-20.71971 -159.93263,-22.56432 -235.72984,-5.17287 -12.23633,2.80759 -43.08094,11.1535 -46.1123,12.47703 -1.25011,0.54581 -8.66551,3.38558 -16.47867,6.3106 -66.09611,24.74445 -122.68016,61.31982 -172.17373,111.29139 -10.00086,10.09744 -18.69478,19.15026 -19.31983,20.11739 -0.62505,0.96712 -5.27707,6.80191 -10.33784,12.96621 -28.22458,34.37915 -53.1586,76.98961 -69.734639,119.17151 -3.929993,10.00085 -7.612081,18.7688 -8.182421,19.48431 -0.570338,0.71553 -0.895306,1.73834 -0.72215,2.27293 0.173157,0.53458 -0.625157,4.06315 -1.774029,7.84128 l -2.088858,6.8693 -9.834814,2.00744 C 51.382395,699.16656 8.9106845,709.62658 5.7649761,710.83936 4.0656121,711.49453 3.8596897,700.60456 3.2252653,576.52962 2.8455436,502.26712 2.3055094,410.69463 2.0251894,373.03517 l -0.5096729,-68.47173 181.4736435,0.095 c 290.16369,0.15187 866.02484,1.63299 866.62084,2.22894 0.402,0.40198 4.1571,368.20652 4.1214,403.67649 0,3.62751 -0.4714,5.35566 -1.426,5.26851 -0.7814,-0.0713 -6.0233,-1.56689 -11.6488,-3.32348 z"
       id="path1004"
       inkscape:connector-curvature="0" />
    <path
       style="opacity:1;fill:#f1ebc9;fill-opacity:1;fill-rule:nonzero;stroke:none;stroke-width:2.42444849;stroke-linecap:round;stroke-linejoin:round;stroke-miterlimit:4;stroke-dasharray:none;stroke-dashoffset:0;stroke-opacity:1"
       d="M 107.42244,635.10652 C 84.612441,622.29762 68.758978,608.24438 62.328736,595.13337 l -3.173679,-6.47101 2.836399,-11.83823 c 2.955575,-12.33563 14.481,-53.64658 15.372738,-55.10099 0.281548,-0.45921 5.000746,2.38972 10.487106,6.33095 11.803943,8.47958 32.86085,19.58341 50.58471,26.67456 7.0006,2.80088 12.84888,5.19317 12.99618,5.31622 0.14731,0.12304 -3.00813,8.37662 -7.01207,18.34129 -9.1093,22.6704 -22.95525,59.49474 -22.95525,61.0512 0,2.85098 -2.77982,1.99365 -14.04243,-4.33084 z"
       id="path1024"
       inkscape:connector-curvature="0"
       transform="matrix(0.9375,0,0,0.9375,0,308.26772)" />
    <path
       style="opacity:1;fill:#f1ebc9;fill-opacity:1;fill-rule:nonzero;stroke:none;stroke-width:2.42444849;stroke-linecap:round;stroke-linejoin:round;stroke-miterlimit:4;stroke-dasharray:none;stroke-dashoffset:0;stroke-opacity:1"
       d="M 340.27136,696.99871 C 254.01448,685.55552 171.70281,665.64867 130.98055,646.38232 l -8.06158,-3.81406 6.55532,-17.57726 c 3.60543,-9.66749 10.65423,-28.00686 15.66402,-40.75416 l 9.1087,-23.17692 18.46038,5.93224 c 19.37513,6.22619 51.68459,14.62357 74.2227,19.29083 7.33395,1.51874 13.48928,2.86711 13.6785,2.99637 0.18922,0.12927 -7.34078,18.93427 -16.73333,41.78891 -10.19351,24.80357 -16.63502,41.99623 -15.97999,42.65126 0.65503,0.65503 8.06592,-15.90819 18.3848,-41.08977 9.50808,-23.20293 17.43148,-42.34704 17.60757,-42.54247 0.17608,-0.19542 7.88818,1.02349 17.13801,2.7087 20.10455,3.6628 62.15158,9.66926 82.0282,11.71779 l 14.29691,1.47348 -0.65083,3.13769 c -1.78016,8.5821 -6.91008,42.32553 -9.92194,65.26419 -1.86025,14.16787 -3.67575,25.7023 -4.03443,25.63204 -0.3587,-0.0703 -10.47118,-1.43035 -22.4722,-3.02247 z"
       id="path1034"
       inkscape:connector-curvature="0"
       transform="matrix(0.9375,0,0,0.9375,0,308.26772)" />
    <path
       style="opacity:1;fill:#f1ebc9;fill-opacity:1;fill-rule:nonzero;stroke:none;stroke-width:2.42444849;stroke-linecap:round;stroke-linejoin:round;stroke-miterlimit:4;stroke-dasharray:none;stroke-dashoffset:0;stroke-opacity:1"
       d="m 463.91823,707.84626 c -2.66689,-0.20936 -14.39516,-0.97157 -26.06282,-1.6938 -23.07468,-1.42833 -70.32297,-5.61344 -70.99835,-6.28882 -0.69809,-0.69809 4.02763,-36.18599 8.73939,-65.62855 l 4.43749,-27.72876 8.60598,0.77635 c 24.77775,2.23519 56.64926,4.41585 83.15777,5.68968 16.33472,0.78494 29.87231,1.57377 30.08354,1.75296 0.33141,0.28114 -1.60802,37.54738 -4.20907,80.87775 l -0.78225,13.03141 -14.06139,-0.20378 c -7.73377,-0.11208 -16.24339,-0.37508 -18.91029,-0.58444 z"
       id="path1036"
       inkscape:connector-curvature="0"
       transform="matrix(0.9375,0,0,0.9375,0,308.26772)" />
    <path
       style="opacity:1;fill:#f1ebc9;fill-opacity:1;fill-rule:nonzero;stroke:none;stroke-width:2.42444849;stroke-linecap:round;stroke-linejoin:round;stroke-miterlimit:4;stroke-dasharray:none;stroke-dashoffset:0;stroke-opacity:1"
       d="m 500.43895,708.88364 c -0.35723,-0.57801 0.40968,-18.73569 1.70424,-40.35039 1.29456,-21.6147 2.36077,-42.57247 2.36935,-46.57281 l 0.0156,-7.27334 h 54.50062 54.50062 l 0.62863,6.06112 c 0.34575,3.33362 1.23636,18.06214 1.97914,32.73005 0.74278,14.66792 1.74568,32.9422 2.22866,40.60952 0.48299,7.66732 0.66053,14.21333 0.39455,14.54669 -0.86604,1.08541 -117.65258,1.33134 -118.32141,0.24916 z"
       id="path1038"
       inkscape:connector-curvature="0"
       transform="matrix(0.9375,0,0,0.9375,0,308.26772)" />
    <path
       style="opacity:1;fill:#f1ebc9;fill-opacity:1;fill-rule:nonzero;stroke:none;stroke-width:2.42444849;stroke-linecap:round;stroke-linejoin:round;stroke-miterlimit:4;stroke-dasharray:none;stroke-dashoffset:0;stroke-opacity:1"
       d="m 621.64008,698.80566 c -1.2222,-15.76135 -4.37371,-72.544 -4.37464,-78.8204 l -8.4e-4,-5.61187 16.66809,-0.7981 c 25.64752,-1.22805 70.68082,-4.30315 88.18931,-6.02201 9.90488,-0.97239 16.0448,-1.11783 16.52849,-0.39154 1.60157,2.40486 13.17101,80.91055 13.17101,89.37327 0,2.63263 -0.57601,3.61463 -2.12139,3.6166 -1.16677,10e-4 -10.03116,0.79765 -19.69865,1.76926 -23.18512,2.33016 -63.70879,5.19757 -88.03161,6.22901 l -19.54093,0.82866 z"
       id="path1040"
       inkscape:connector-curvature="0"
       transform="matrix(0.9375,0,0,0.9375,0,308.26772)" />
    <path
       style="opacity:1;fill:#f1ebc9;fill-opacity:1;fill-rule:nonzero;stroke:none;stroke-width:2.42444849;stroke-linecap:round;stroke-linejoin:round;stroke-miterlimit:4;stroke-dasharray:none;stroke-dashoffset:0;stroke-opacity:1"
       d="m 754.96189,694.99696 c -0.33337,-2.16686 -1.73708,-12.66775 -3.11934,-23.33532 -1.38226,-10.66758 -4.1799,-29.66921 -6.21699,-42.22586 -2.03709,-12.55665 -3.52198,-23.01166 -3.29977,-23.23335 0.22222,-0.2217 11.85955,-1.83062 25.86074,-3.57538 23.83571,-2.9703 83.89836,-12.4304 85.60057,-13.48242 0.86606,-0.53526 0.67505,-0.97807 20.69205,47.96862 8.04347,19.66834 15.04075,36.21727 15.54949,36.7754 3.70929,4.06933 0.0562,-6.46075 -14.65523,-42.24471 -9.29729,-22.61454 -16.73645,-41.6205 -16.53146,-42.23546 0.20498,-0.61496 10.71218,-3.4353 23.34931,-6.26742 25.30002,-5.67 45.76514,-11.2773 67.6181,-18.52687 14.21981,-4.71733 14.34391,-4.73508 15.32666,-2.19206 0.54492,1.41007 3.83547,9.65528 7.31235,18.32269 12.53087,31.2379 23.09201,60.42598 22.16136,61.2479 -2.18438,1.92914 -25.78572,11.23318 -44.20002,17.42437 -35.14116,11.81505 -82.2289,22.95111 -130.70365,30.9109 -20.65573,3.39177 -58.50603,8.60869 -62.45857,8.60869 -0.96229,0 -1.93829,-1.68236 -2.2856,-3.93972 z"
       id="path1042"
       inkscape:connector-curvature="0"
       transform="matrix(0.9375,0,0,0.9375,0,308.26772)" />
    <path
       style="opacity:1;fill:#f1ebc9;fill-opacity:1;fill-rule:nonzero;stroke:none;stroke-width:2.42444849;stroke-linecap:round;stroke-linejoin:round;stroke-miterlimit:4;stroke-dasharray:none;stroke-dashoffset:0;stroke-opacity:1"
       d="m 992.4365,624.68494 c -3.22746,-8.83243 -10.30652,-27.27762 -15.73123,-40.98932 l -9.86311,-24.93035 5.52958,-2.22926 c 26.01741,-10.48895 46.18466,-21.29101 60.32606,-32.3121 4.1359,-3.22327 7.7735,-5.4499 8.0837,-4.94808 0.7808,1.26341 12.1943,41.09695 15.2392,53.18539 3.215,12.76386 3.1464,14.9553 -0.7057,22.55708 -6.4961,12.81937 -24.6702,28.31788 -47.8164,40.77679 l -9.19399,4.94882 z"
       id="path1046"
       inkscape:connector-curvature="0"
       transform="matrix(0.9375,0,0,0.9375,0,308.26772)" />
    <path
       style="opacity:1;fill:#f1ebc9;fill-opacity:1;fill-rule:nonzero;stroke:none;stroke-width:2.42444849;stroke-linecap:round;stroke-linejoin:round;stroke-miterlimit:4;stroke-dasharray:none;stroke-dashoffset:0;stroke-opacity:1"
       d="m 1056.7665,564.14447 c -1.2377,-4.871 -4.8788,-17.78031 -8.0913,-28.68737 l -5.841,-19.831 4.702,-5.62571 c 2.586,-3.09413 5.9777,-8.08046 7.5369,-11.08071 l 2.835,-5.45501 0.8036,7.87946 c 1.4733,14.44674 2.5197,65.99219 1.3979,68.86146 -0.937,2.39664 -1.4138,1.53232 -3.3431,-6.06112 z"
       id="path1048"
       inkscape:connector-curvature="0"
       transform="matrix(0.9375,0,0,0.9375,0,308.26772)" />
    <path
       style="opacity:1;fill:#f1ebc9;fill-opacity:1;fill-rule:nonzero;stroke:none;stroke-width:2.42444849;stroke-linecap:round;stroke-linejoin:round;stroke-miterlimit:4;stroke-dasharray:none;stroke-dashoffset:0;stroke-opacity:1"
       d="m 57.809003,563.97986 c -0.87206,-12.79427 0.03663,-44.85746 1.638507,-57.81493 l 0.800037,-6.47143 3.389275,5.12621 c 1.864101,2.81942 5.264715,7.20211 7.556921,9.7393 l 4.167648,4.61309 -2.392746,7.14799 c -1.316008,3.93139 -5.064159,16.96409 -8.329221,28.96155 l -5.936477,21.81358 z"
       id="path1050"
       inkscape:connector-curvature="0"
       transform="matrix(0.9375,0,0,0.9375,0,308.26772)" />
    <path
       style="opacity:1;fill:#f1ebc9;fill-opacity:1;fill-rule:nonzero;stroke:none;stroke-width:2.42444849;stroke-linecap:round;stroke-linejoin:round;stroke-miterlimit:4;stroke-dasharray:none;stroke-dashoffset:0;stroke-opacity:1"
       d="m 142.07269,553.3228 c -22.6442,-9.09344 -48.174042,-23.10623 -59.894845,-32.875 l -3.526411,-2.9391 4.549478,-13.84035 c 10.923858,-33.23239 30.441488,-82.33986 32.717548,-82.31918 0.71699,0.007 4.30388,1.4189 7.97086,3.13864 15.77075,7.39616 39.05315,15.78528 66.95227,24.12425 l 10.58384,3.16348 -6.68372,13.32694 c -9.5938,19.1295 -21.29058,44.46997 -32.09471,69.53155 -5.1627,11.97558 -9.85831,21.90114 -10.43469,22.05679 -0.57637,0.15566 -5.1392,-1.35995 -10.13962,-3.36802 z"
       id="path1052"
       inkscape:connector-curvature="0"
       transform="matrix(0.9375,0,0,0.9375,0,308.26772)" />
    <path
       style="opacity:1;fill:#f1ebc9;fill-opacity:1;fill-rule:nonzero;stroke:none;stroke-width:2.42444849;stroke-linecap:round;stroke-linejoin:round;stroke-miterlimit:4;stroke-dasharray:none;stroke-dashoffset:0;stroke-opacity:1"
       d="m 249.96065,584.17652 c -36.85819,-8.33854 -70.50023,-17.416 -87.47661,-23.60337 l -6.8637,-2.5016 3.68222,-8.66507 c 18.06159,-42.50284 43.69899,-96.55132 45.79823,-96.55132 0.7626,0 6.66765,1.33028 13.12235,2.95618 16.17291,4.07386 42.864,9.52998 68.7617,14.05607 11.97277,2.09246 21.90351,3.93775 22.0683,4.10064 0.16478,0.1629 -1.70634,4.88902 -4.15805,10.50251 -2.4517,5.61348 -12.99861,30.66262 -23.43756,55.66474 -15.23424,36.48722 -19.43753,45.49447 -21.29867,45.64112 -1.27532,0.10048 -5.86451,-0.61947 -10.19821,-1.5999 z"
       id="path1054"
       inkscape:connector-curvature="0"
       transform="matrix(0.9375,0,0,0.9375,0,308.26772)" />
    <path
       style="opacity:1;fill:#f1ebc9;fill-opacity:1;fill-rule:nonzero;stroke:none;stroke-width:2.42444849;stroke-linecap:round;stroke-linejoin:round;stroke-miterlimit:4;stroke-dasharray:none;stroke-dashoffset:0;stroke-opacity:1"
       d="m 344.51414,599.44429 c -28.3611,-3.65367 -77.47699,-11.5228 -78.53704,-12.58285 -0.67034,-0.67035 10.59655,-28.42183 32.13557,-79.15314 10.35473,-24.3887 14.55292,-33.03311 16.04268,-33.03311 1.10979,0 14.80415,1.59782 30.43193,3.55071 15.62777,1.9529 35.51303,4.20904 44.18945,5.01366 l 15.77533,1.46295 -5.74916,22.56444 c -5.96532,23.4129 -18.59372,80.71201 -19.91826,90.37552 -0.91437,6.67108 2.17098,6.50933 -34.3705,1.80182 z"
       id="path1056"
       inkscape:connector-curvature="0"
       transform="matrix(0.9375,0,0,0.9375,0,308.26772)" />
    <path
       style="opacity:1;fill:#f1ebc9;fill-opacity:1;fill-rule:nonzero;stroke:none;stroke-width:2.42444849;stroke-linecap:round;stroke-linejoin:round;stroke-miterlimit:4;stroke-dasharray:none;stroke-dashoffset:0;stroke-opacity:1"
       d="m 487.55661,610.84518 c -37.99204,-1.65967 -97.504,-5.74963 -103.99656,-7.14716 -2.47163,-0.53202 -2.69147,-1.0918 -2.00612,-5.10812 2.05268,-12.02903 13.42498,-63.92203 18.25626,-83.30519 7.87032,-31.57589 7.65165,-30.8623 9.28796,-30.30965 1.66506,0.56237 53.82,3.74912 81.18596,4.9606 15.35384,0.67971 17.88031,1.06923 17.88031,2.75675 0,4.714 -4.92235,102.23672 -5.56097,110.1755 -0.6927,8.61085 -0.77235,8.7839 -3.9372,8.55506 -1.7766,-0.12846 -6.77594,-0.38847 -11.10964,-0.57779 z"
       id="path1058"
       inkscape:connector-curvature="0"
       transform="matrix(0.9375,0,0,0.9375,0,308.26772)" />
    <path
       style="opacity:1;fill:#f1ebc9;fill-opacity:1;fill-rule:nonzero;stroke:none;stroke-width:2.42444849;stroke-linecap:round;stroke-linejoin:round;stroke-miterlimit:4;stroke-dasharray:none;stroke-dashoffset:0;stroke-opacity:1"
       d="m 505.84049,602.2618 c 0.0553,-5.16711 1.28266,-32.30578 2.7275,-60.30816 l 2.62699,-50.91342 48.08908,-0.23268 48.08909,-0.23268 0.7128,8.71825 c 0.68272,8.35035 5.54198,104.67508 5.54198,109.85823 0,2.49458 -0.22856,2.5052 -53.94398,2.5052 h -53.94398 z"
       id="path1060"
       inkscape:connector-curvature="0"
       transform="matrix(0.9375,0,0,0.9375,0,308.26772)" />
    <path
       style="opacity:1;fill:#f1ebc9;fill-opacity:1;fill-rule:nonzero;stroke:none;stroke-width:2.42444849;stroke-linecap:round;stroke-linejoin:round;stroke-miterlimit:4;stroke-dasharray:none;stroke-dashoffset:0;stroke-opacity:1"
       d="m 616.73298,610.12018 c -0.46006,-1.56461 -5.63217,-108.98945 -5.567,-115.62676 l 0.0375,-3.82014 14.24364,-0.74649 c 39.09742,-2.04903 78.90055,-4.52096 82.29232,-5.11067 l 3.80081,-0.66083 7.35505,30.1114 c 10.67655,43.7095 20.09308,88.88247 18.53693,88.92528 -0.41994,0.0115 -5.67304,0.53607 -11.67355,1.16559 -18.20228,1.90962 -60.62476,4.76218 -81.82514,5.50206 -11.00094,0.38394 -21.52259,0.93581 -23.38145,1.22641 -2.03209,0.31767 -3.55495,-0.0674 -3.81911,-0.96585 z"
       id="path1062"
       inkscape:connector-curvature="0"
       transform="matrix(0.9375,0,0,0.9375,0,308.26772)" />
    <path
       style="opacity:1;fill:#f1ebc9;fill-opacity:1;fill-rule:nonzero;stroke:none;stroke-width:2.42444849;stroke-linecap:round;stroke-linejoin:round;stroke-miterlimit:4;stroke-dasharray:none;stroke-dashoffset:0;stroke-opacity:1"
       d="m 737.33408,583.37114 c -4.39938,-22.19153 -15.55228,-71.09541 -19.95094,-87.48202 -1.61071,-6.00051 -2.80693,-11.03391 -2.65826,-11.18533 0.14867,-0.15141 8.41986,-1.11248 18.38041,-2.13571 9.96055,-1.02322 29.29287,-3.30748 42.9607,-5.07613 13.66782,-1.76865 26.11442,-3.26234 27.65911,-3.3193 3.24016,-0.11949 2.05774,-2.66121 31.24991,67.17488 12.72869,30.4507 18.05063,44.49396 17.06905,45.04087 -2.42194,1.34943 -52.21405,9.2986 -78.40252,12.51674 -13.66783,1.67956 -26.55424,3.28093 -28.63648,3.5586 l -3.78587,0.50487 z"
       id="path1064"
       inkscape:connector-curvature="0"
       transform="matrix(0.9375,0,0,0.9375,0,308.26772)" />
    <path
       style="opacity:1;fill:#f1ebc9;fill-opacity:1;fill-rule:nonzero;stroke:none;stroke-width:2.42444849;stroke-linecap:round;stroke-linejoin:round;stroke-miterlimit:4;stroke-dasharray:none;stroke-dashoffset:0;stroke-opacity:1"
       d="m 846.99827,562.69535 c -5.21066,-12.74138 -15.66505,-37.74595 -23.23197,-55.5657 -7.56692,-17.81975 -13.75803,-32.84408 -13.75803,-33.38741 0,-0.54333 6.13688,-1.95087 13.63752,-3.12786 19.58461,-3.07321 53.39056,-9.95833 72.67179,-14.80078 9.13353,-2.29387 16.90301,-4.17067 17.26552,-4.17067 2.74583,0 50.14574,103.81459 48.22664,105.62528 -3.18258,3.00279 -60.51472,19.05737 -91.89973,25.73445 l -13.43781,2.85886 z"
       id="path1066"
       inkscape:connector-curvature="0"
       transform="matrix(0.9375,0,0,0.9375,0,308.26772)" />
    <path
       style="opacity:1;fill:#f1ebc9;fill-opacity:1;fill-rule:nonzero;stroke:none;stroke-width:2.42444849;stroke-linecap:round;stroke-linejoin:round;stroke-miterlimit:4;stroke-dasharray:none;stroke-dashoffset:0;stroke-opacity:1"
       d="m 955.52466,532.5589 c -5.58432,-12.83442 -16.3618,-36.35531 -23.94993,-52.26863 -7.58814,-15.91332 -13.5739,-29.15602 -13.30169,-29.42822 0.2722,-0.27221 9.23543,-3.2001 19.91829,-6.50643 19.73828,-6.10897 46.67794,-16.40899 58.16856,-22.23996 l 6.33631,-3.2154 2.3118,4.55215 c 6.6095,13.01499 34.1107,86.45779 34.1107,91.09385 0,2.47952 -21.8021,17.39405 -36.3413,24.86065 -12.39409,6.36496 -34.91197,16.48731 -36.67719,16.48731 -0.23222,0 -4.99122,-10.50089 -10.57555,-23.33532 z"
       id="path1068"
       inkscape:connector-curvature="0"
       transform="matrix(0.9375,0,0,0.9375,0,308.26772)" />
    <path
       style="opacity:1;fill:#f1ebc9;fill-opacity:1;fill-rule:nonzero;stroke:none;stroke-width:2.42444849;stroke-linecap:round;stroke-linejoin:round;stroke-miterlimit:4;stroke-dasharray:none;stroke-dashoffset:0;stroke-opacity:1"
       d="m 1038.5255,502.45755 c -5.587,-17.00535 -18.6774,-51.7126 -25.6042,-67.88566 -3.593,-8.389 -6.5268,-15.75326 -6.5196,-16.36503 0.01,-0.61178 3.3617,-3.02157 7.4544,-5.35511 4.0927,-2.33353 10.8398,-6.76612 14.9936,-9.85021 l 7.5523,-5.60743 3.7481,12.27466 c 8.0096,26.23028 15.9407,63.38192 15.9387,74.66125 -10e-4,6.24712 -4.9824,17.54405 -10.666,24.18866 l -3.5445,4.14398 z"
       id="path1070"
       inkscape:connector-curvature="0"
       transform="matrix(0.9375,0,0,0.9375,0,308.26772)" />
    <path
       style="opacity:1;fill:#f1ebc9;fill-opacity:1;fill-rule:nonzero;stroke:none;stroke-width:2.42444849;stroke-linecap:round;stroke-linejoin:round;stroke-miterlimit:4;stroke-dasharray:none;stroke-dashoffset:0;stroke-opacity:1"
       d="m 70.79196,509.3441 c -2.704444,-2.93398 -6.130001,-7.70711 -7.612351,-10.60697 -2.579412,-5.04599 -2.6307,-5.74109 -1.194011,-16.18248 2.486988,-18.07462 8.357272,-45.71864 13.587905,-63.98742 2.713522,-9.47738 5.170039,-17.62367 5.458927,-18.10285 0.28889,-0.47919 3.677061,1.43006 7.529271,4.24278 3.85221,2.81272 10.832217,7.24923 15.511129,9.85891 l 8.50711,4.74488 -6.52398,15.25682 c -6.405453,14.97967 -21.718662,55.81526 -26.972866,71.92831 -1.467502,4.50038 -2.826986,8.18251 -3.021075,8.18251 -0.194091,0 -2.565617,-2.40052 -5.270059,-5.33449 z"
       id="path1072"
       inkscape:connector-curvature="0"
       transform="matrix(0.9375,0,0,0.9375,0,308.26772)" />
    <path
       style="opacity:1;fill:#f1ebc9;fill-opacity:1;fill-rule:nonzero;stroke:none;stroke-width:2.42444849;stroke-linecap:round;stroke-linejoin:round;stroke-miterlimit:4;stroke-dasharray:none;stroke-dashoffset:0;stroke-opacity:1"
       d="m 105.73988,412.07613 c -10.613802,-5.8828 -21.870623,-13.6162 -22.604791,-15.52941 -0.984143,-2.56464 13.625871,-38.27401 24.515091,-59.91906 5.57476,-11.08126 10.62189,-20.88651 11.21583,-21.78945 0.86368,-1.31301 4.69056,-0.19468 19.11357,5.58555 9.91853,3.97499 19.04048,7.58054 20.27101,8.01233 2.12755,0.74655 2.10316,1.00782 -0.49699,5.32447 -11.3481,18.83956 -21.37899,37.12421 -31.89999,58.14841 l -12.26819,24.51563 z"
       id="path1074"
       inkscape:connector-curvature="0"
       transform="matrix(0.9375,0,0,0.9375,0,308.26772)" />
    <path
       style="opacity:1;fill:#f1ebc9;fill-opacity:1;fill-rule:nonzero;stroke:none;stroke-width:2.42444849;stroke-linecap:round;stroke-linejoin:round;stroke-miterlimit:4;stroke-dasharray:none;stroke-dashoffset:0;stroke-opacity:1"
       d="m 185.87125,444.21506 c -19.98824,-5.91557 -45.64954,-15.29512 -59.13512,-21.61467 l -10.15244,-4.7576 3.10843,-7.04136 c 7.86989,-17.82722 33.72166,-65.55669 42.75642,-78.9401 0.85483,-1.26628 4.33342,-0.5887 17.09727,3.33031 16.40186,5.03602 53.88175,14.53229 67.99039,17.22671 4.3337,0.82763 8.02067,1.58563 8.19326,1.68443 0.1726,0.0988 -5.05487,9.13011 -11.61661,20.06957 -11.13298,18.56048 -30.95287,54.13093 -38.26965,68.68196 -1.76008,3.50029 -3.32733,6.31758 -3.48278,6.26064 -0.15545,-0.0569 -7.57557,-2.26189 -16.48917,-4.89989 z"
       id="path1076"
       inkscape:connector-curvature="0"
       transform="matrix(0.9375,0,0,0.9375,0,308.26772)" />
    <path
       style="opacity:1;fill:#f1ebc9;fill-opacity:1;fill-rule:nonzero;stroke:none;stroke-width:2.42444849;stroke-linecap:round;stroke-linejoin:round;stroke-miterlimit:4;stroke-dasharray:none;stroke-dashoffset:0;stroke-opacity:1"
       d="m 289.33757,467.40681 c -37.9778,-6.57544 -83.017,-16.59665 -83.017,-18.47126 0,-1.2965 17.99802,-34.92132 29.0128,-54.20322 16.68669,-29.21082 23.66743,-40.00122 25.5373,-39.47397 4.87228,1.37384 62.15578,10.41855 77.92077,12.30321 11.32275,1.3536 17.71101,2.60891 17.35952,3.41121 -0.30588,0.6982 -5.31221,11.36123 -11.12515,23.69561 -5.81296,12.33438 -15.87471,34.40437 -22.35945,49.04441 -6.48474,14.64004 -12.26798,26.71667 -12.85163,26.83696 -0.58367,0.12029 -9.79838,-1.29404 -20.47716,-3.14295 z"
       id="path1078"
       inkscape:connector-curvature="0"
       transform="matrix(0.9375,0,0,0.9375,0,308.26772)" />
    <path
       style="opacity:1;fill:#f1ebc9;fill-opacity:1;fill-rule:nonzero;stroke:none;stroke-width:2.42444849;stroke-linecap:round;stroke-linejoin:round;stroke-miterlimit:4;stroke-dasharray:none;stroke-dashoffset:0;stroke-opacity:1"
       d="m 379.66865,479.47304 c -30.71422,-3.2809 -62.70195,-7.47907 -64.24292,-8.43145 -1.45192,-0.89733 8.79987,-24.9393 31.06617,-72.85484 l 13.02302,-28.02463 6.74324,0.74626 c 18.34307,2.02997 59.39512,5.57665 64.54853,5.57665 3.21008,0 5.8365,0.43831 5.8365,0.97404 0,0.53572 -1.92583,6.67261 -4.2796,13.63752 -4.35279,12.88005 -20.41926,66.31931 -24.58116,81.76027 -1.7658,6.55124 -2.81291,8.53078 -4.59351,8.68391 -1.26849,0.10909 -11.85262,-0.82139 -23.52027,-2.06773 z"
       id="path1080"
       inkscape:connector-curvature="0"
       transform="matrix(0.9375,0,0,0.9375,0,308.26772)" />
    <path
       style="opacity:1;fill:#f1ebc9;fill-opacity:1;fill-rule:nonzero;stroke:none;stroke-width:2.42444849;stroke-linecap:round;stroke-linejoin:round;stroke-miterlimit:4;stroke-dasharray:none;stroke-dashoffset:0;stroke-opacity:1"
       d="m 498.46662,487.14292 c -32.35482,-0.9275 -88.18095,-4.47889 -89.38852,-5.68646 -0.7631,-0.7631 8.58714,-33.59692 20.53499,-72.10964 l 9.92498,-31.9922 13.75552,0.78564 c 7.56554,0.4321 24.44464,1.14362 37.50912,1.58116 l 23.7536,0.79554 -0.66739,11.62155 c -0.36706,6.39186 -1.55813,27.98659 -2.64683,47.98829 -1.0887,20.0017 -2.36293,38.82148 -2.83162,41.82174 l -0.85216,5.45501 z"
       id="path1082"
       inkscape:connector-curvature="0"
       transform="matrix(0.9375,0,0,0.9375,0,308.26772)" />
    <path
       style="opacity:1;fill:#f1ebc9;fill-opacity:1;fill-rule:nonzero;stroke:none;stroke-width:2.42444849;stroke-linecap:round;stroke-linejoin:round;stroke-miterlimit:4;stroke-dasharray:none;stroke-dashoffset:0;stroke-opacity:1"
       d="m 511.81022,481.64548 c 0.0107,-7.46738 4.42094,-83.02783 5.46573,-93.64432 l 0.71578,-7.27335 h 41.75736 c 36.30912,0 41.75747,0.23725 41.75823,1.81834 4.7e-4,1.00008 1.05366,18.72886 2.34042,39.39729 1.28675,20.66842 2.70375,43.98858 3.14889,51.82258 l 0.80935,14.24364 h -48.00244 -48.00245 z"
       id="path1084"
       inkscape:connector-curvature="0"
       transform="matrix(0.9375,0,0,0.9375,0,308.26772)" />
    <path
       style="opacity:1;fill:#f1ebc9;fill-opacity:1;fill-rule:nonzero;stroke:none;stroke-width:2.42444849;stroke-linecap:round;stroke-linejoin:round;stroke-miterlimit:4;stroke-dasharray:none;stroke-dashoffset:0;stroke-opacity:1"
       d="m 608.96711,458.19157 c -1.5791,-30.16968 -3.37558,-59.26764 -4.37913,-70.9299 l -0.5852,-6.80061 24.51122,-0.87574 c 13.48117,-0.48166 30.39688,-1.24607 37.59046,-1.69869 l 13.07923,-0.82294 6.6999,21.22765 c 3.68494,11.67521 7.73679,24.50065 9.00411,28.50099 4.01656,12.67838 15.70965,54.35658 15.35078,54.71545 -0.76004,0.76005 -53.84487,4.17494 -76.05959,4.89284 l -23.69522,0.76574 z"
       id="path1086"
       inkscape:connector-curvature="0"
       transform="matrix(0.9375,0,0,0.9375,0,308.26772)" />
    <path
       style="opacity:1;fill:#f1ebc9;fill-opacity:1;fill-rule:nonzero;stroke:none;stroke-width:2.42444849;stroke-linecap:round;stroke-linejoin:round;stroke-miterlimit:4;stroke-dasharray:none;stroke-dashoffset:0;stroke-opacity:1"
       d="m 711.36433,473.62182 c -3.61169,-13.85008 -19.86439,-68.00056 -24.83544,-82.74636 l -4.75229,-14.09684 12.29325,-0.83518 c 6.76128,-0.45934 22.93051,-1.8857 35.93161,-3.16968 13.00111,-1.28398 24.8589,-2.33796 26.35064,-2.34218 2.15358,-0.006 3.62017,1.79518 7.11993,8.74477 8.39296,16.66619 41.8875,90.85385 41.2892,91.45217 -0.13391,0.1339 -8.418,1.35888 -18.40909,2.72217 -15.25999,2.08223 -29.18381,3.67655 -68.5609,7.8504 l -4.33075,0.45905 z"
       id="path1088"
       inkscape:connector-curvature="0"
       transform="matrix(0.9375,0,0,0.9375,0,308.26772)" />
    <path
       style="opacity:1;fill:#f1ebc9;fill-opacity:1;fill-rule:nonzero;stroke:none;stroke-width:2.42444849;stroke-linecap:round;stroke-linejoin:round;stroke-miterlimit:4;stroke-dasharray:none;stroke-dashoffset:0;stroke-opacity:1"
       d="m 795.44981,441.64208 c -6.9078,-15.50132 -17.14592,-37.90718 -22.75138,-49.79081 -5.60547,-11.88363 -10.00479,-21.78415 -9.77628,-22.00116 0.22852,-0.217 12.61817,-2.11116 27.53256,-4.20924 14.9144,-2.09808 36.03784,-5.42596 46.94098,-7.39529 10.90315,-1.96932 20.36736,-3.58059 21.03159,-3.58059 0.66422,0 3.21199,3.13324 5.66171,6.96277 7.14962,11.17665 30.90623,52.87334 40.3218,70.77126 l 8.66425,16.46976 -16.00955,3.90366 c -26.06513,6.35553 -80.71575,17.05386 -87.11684,17.05386 -1.36171,0 -5.6794,-8.39313 -14.49884,-28.18422 z"
       id="path1090"
       inkscape:connector-curvature="0"
       transform="matrix(0.9375,0,0,0.9375,0,308.26772)" />
    <path
       style="opacity:1;fill:#f1ebc9;fill-opacity:1;fill-rule:nonzero;stroke:none;stroke-width:2.42444849;stroke-linecap:round;stroke-linejoin:round;stroke-miterlimit:4;stroke-dasharray:none;stroke-dashoffset:0;stroke-opacity:1"
       d="m 906.04054,429.57927 c -9.93527,-18.99293 -27.41224,-49.7241 -37.8399,-66.53696 l -5.82943,-9.39897 9.27609,-2.02087 c 19.10631,-4.16246 52.18272,-12.74067 65.64771,-17.02543 7.66556,-2.43929 14.79841,-4.6888 15.85077,-4.99891 1.38926,-0.40938 4.25379,3.36176 10.45714,13.76679 11.16091,18.72048 24.53216,43.6151 32.03756,59.64757 5.48832,11.72371 5.82832,12.95421 3.95743,14.32222 -6.06331,4.4336 -49.6255,20.92557 -71.44675,27.04862 -5.24328,1.47126 -10.17672,2.92196 -10.9632,3.22376 -0.84958,0.32601 -5.37406,-6.99105 -11.14742,-18.02782 z"
       id="path1092"
       inkscape:connector-curvature="0"
       transform="matrix(0.9375,0,0,0.9375,0,308.26772)" />
    <path
       style="opacity:1;fill:#f1ebc9;fill-opacity:1;fill-rule:nonzero;stroke:none;stroke-width:2.42444849;stroke-linecap:round;stroke-linejoin:round;stroke-miterlimit:4;stroke-dasharray:none;stroke-dashoffset:0;stroke-opacity:1"
       d="m 998.36571,402.17203 c -6.23674,-13.63322 -25.63988,-49.71325 -34.21138,-63.6159 -2.79055,-4.52617 -5.20308,-8.77869 -5.36116,-9.45004 -0.15809,-0.67135 4.47078,-3.07873 10.28637,-5.34973 5.81559,-2.271 14.49674,-5.85089 19.29145,-7.9553 l 8.71766,-3.8262 2.00789,2.66192 c 6.30776,8.36236 33.97296,69.45016 35.39346,78.15261 0.2871,1.75845 -2.0237,4.08674 -9.0233,9.09168 -5.175,3.70035 -12.0592,8.18825 -15.2981,9.97311 l -5.889,3.24522 z"
       id="path1094"
       inkscape:connector-curvature="0"
       transform="matrix(0.9375,0,0,0.9375,0,308.26772)" />
    <path
       style="opacity:1;fill:#f1ebc9;fill-opacity:1;fill-rule:nonzero;stroke:none;stroke-width:2.42444849;stroke-linecap:round;stroke-linejoin:round;stroke-miterlimit:4;stroke-dasharray:none;stroke-dashoffset:0;stroke-opacity:1"
       d="m 151.16437,322.62061 c -9.04859,-3.25591 -28.28042,-11.20533 -29.40094,-12.15279 -0.53299,-0.45067 15.97737,-26.31841 24.02876,-37.64725 4.24331,-5.97062 12.09745,-16.24197 17.45366,-22.82521 5.35621,-6.58325 10.39592,-12.79876 11.19936,-13.81225 1.2883,-1.62511 3.57861,-1.26043 19.39559,3.08829 9.86413,2.71205 20.25531,5.53189 23.0915,6.26632 l 5.15672,1.33532 -11.33754,13.58952 c -14.03715,16.82535 -26.65904,33.60175 -38.95309,51.77458 -5.187,7.66732 -9.49686,14.02351 -9.57746,14.12487 -0.0806,0.10137 -5.05605,-1.58227 -11.05656,-3.7414 z"
       id="path1096"
       inkscape:connector-curvature="0"
       transform="matrix(0.9375,0,0,0.9375,0,308.26772)" />
    <path
       style="opacity:1;fill:#f1ebc9;fill-opacity:1;fill-rule:nonzero;stroke:none;stroke-width:2.42444849;stroke-linecap:round;stroke-linejoin:round;stroke-miterlimit:4;stroke-dasharray:none;stroke-dashoffset:0;stroke-opacity:1"
       d="m 247.5362,349.60683 c -24.05109,-5.12255 -80.18775,-20.17542 -82.0005,-21.98818 -0.61956,-0.61955 20.3737,-31.2681 29.63352,-43.26267 4.37504,-5.66715 12.88223,-16.21277 18.90485,-23.43472 9.51145,-11.40552 11.35406,-13.05973 14.02367,-12.58984 1.69039,0.29753 13.98345,2.75595 27.31792,5.46316 13.33446,2.7072 31.88149,6.10825 41.21562,7.55789 9.33413,1.44964 17.93878,2.99097 19.12145,3.42517 1.80257,0.66181 -0.31774,4.11359 -13.11164,21.34524 -8.39406,11.30567 -21.88398,30.53444 -29.97759,42.7306 -15.90303,23.96407 -14.70363,22.97345 -25.1273,20.75335 z"
       id="path1098"
       inkscape:connector-curvature="0"
       transform="matrix(0.9375,0,0,0.9375,0,308.26772)" />
    <path
       style="opacity:1;fill:#f1ebc9;fill-opacity:1;fill-rule:nonzero;stroke:none;stroke-width:2.42444849;stroke-linecap:round;stroke-linejoin:round;stroke-miterlimit:4;stroke-dasharray:none;stroke-dashoffset:0;stroke-opacity:1"
       d="m 330.57356,363.69677 c -23.19592,-3.21714 -64.25005,-10.09872 -67.56694,-11.32571 -1.85947,-0.68787 0.27421,-4.45185 14.52433,-25.62207 9.18721,-13.64867 22.85248,-33.03463 30.36729,-43.07993 l 13.66328,-18.26417 17.23437,2.20986 c 17.00769,2.1808 62.25594,7.04344 65.5412,7.04344 1.0748,0 -2.42018,7.58404 -9.58573,20.80094 -6.20249,11.44052 -16.90662,32.12663 -23.78695,45.96914 -14.60959,29.39297 -9.46659,26.55751 -40.39085,22.2685 z"
       id="path1100"
       inkscape:connector-curvature="0"
       transform="matrix(0.9375,0,0,0.9375,0,308.26772)" />
    <path
       style="opacity:1;fill:#f1ebc9;fill-opacity:1;fill-rule:nonzero;stroke:none;stroke-width:2.42444849;stroke-linecap:round;stroke-linejoin:round;stroke-miterlimit:4;stroke-dasharray:none;stroke-dashoffset:0;stroke-opacity:1"
       d="m 416.03537,372.80301 c -5.66714,-0.53899 -20.12292,-1.91256 -32.12394,-3.05238 -12.00102,-1.13981 -21.99452,-2.22005 -22.20777,-2.40053 -0.54646,-0.46248 28.20885,-57.30541 38.79692,-76.69298 7.48018,-13.6968 9.176,-16.03665 11.26138,-15.53824 1.35029,0.32272 14.18335,1.2158 28.5179,1.98462 14.33455,0.76881 27.21332,1.61523 28.61948,1.88093 2.45394,0.46368 2.26414,1.27531 -4.72408,20.20151 -4.00441,10.84514 -11.50051,31.9922 -16.658,46.99348 l -9.37726,27.27505 -5.90036,0.16426 c -3.2452,0.0903 -10.53712,-0.27673 -16.20427,-0.81572 z"
       id="path1102"
       inkscape:connector-curvature="0"
       transform="matrix(0.9375,0,0,0.9375,0,308.26772)" />
    <path
       style="opacity:1;fill:#f1ebc9;fill-opacity:1;fill-rule:nonzero;stroke:none;stroke-width:2.42444849;stroke-linecap:round;stroke-linejoin:round;stroke-miterlimit:4;stroke-dasharray:none;stroke-dashoffset:0;stroke-opacity:1"
       d="m 474.22214,376.33691 c -25.0619,-1.11379 -32.73006,-1.92859 -32.73006,-3.47782 0,-1.24796 19.08927,-55.79674 27.25965,-77.89615 l 5.71419,-15.45586 h 6.35261 c 3.49393,0 14.54933,0.35478 24.56755,0.78841 15.82627,0.68501 18.15696,1.04269 17.77281,2.7275 -0.56192,2.4645 -6.1072,65.76111 -7.20565,82.24896 l -0.8278,12.4253 -9.23857,-0.18184 c -5.08122,-0.10001 -19.33035,-0.63033 -31.66473,-1.1785 z"
       id="path1104"
       inkscape:connector-curvature="0"
       transform="matrix(0.9375,0,0,0.9375,0,308.26772)" />
    <path
       style="opacity:1;fill:#f1ebc9;fill-opacity:1;fill-rule:nonzero;stroke:none;stroke-width:2.42444849;stroke-linecap:round;stroke-linejoin:round;stroke-miterlimit:4;stroke-dasharray:none;stroke-dashoffset:0;stroke-opacity:1"
       d="m 518.38605,370.12085 c 0.39424,-4.16702 1.81952,-21.21393 3.1673,-37.88201 1.34777,-16.66808 2.97788,-34.6553 3.62246,-39.9716 0.64459,-5.3163 1.17197,-10.08943 1.17197,-10.60696 0,-0.51754 14.92137,-0.94097 33.1586,-0.94097 h 33.15859 l 1.36996,13.63752 c 0.75348,7.50064 2.4607,27.0023 3.79382,43.33702 1.33312,16.33472 2.6388,32.01787 2.90149,34.85145 l 0.47764,5.15195 h -41.76932 -41.76932 z"
       id="path1106"
       inkscape:connector-curvature="0"
       transform="matrix(0.9375,0,0,0.9375,0,308.26772)" />
    <path
       style="opacity:1;fill:#f1ebc9;fill-opacity:1;fill-rule:nonzero;stroke:none;stroke-width:2.42444849;stroke-linecap:round;stroke-linejoin:round;stroke-miterlimit:4;stroke-dasharray:none;stroke-dashoffset:0;stroke-opacity:1"
       d="m 603.44711,369.59331 c -0.40968,-4.5436 -1.85523,-21.89861 -3.21233,-38.56669 -1.3571,-16.66809 -2.98661,-34.62763 -3.62112,-39.9101 -0.63452,-5.28247 -1.01887,-9.73929 -0.85411,-9.90405 0.16476,-0.16476 11.2169,-0.69042 24.56031,-1.16815 l 24.26074,-0.86858 5.88448,16.22764 c 13.18812,36.3689 27.46215,77.79764 26.97319,78.2866 -0.52301,0.52301 -24.12986,1.9501 -56.10302,3.39155 l -17.14327,0.77288 z"
       id="path1108"
       inkscape:connector-curvature="0"
       transform="matrix(0.9375,0,0,0.9375,0,308.26772)" />
    <path
       style="opacity:1;fill:#f1ebc9;fill-opacity:1;fill-rule:nonzero;stroke:none;stroke-width:2.42444849;stroke-linecap:round;stroke-linejoin:round;stroke-miterlimit:4;stroke-dasharray:none;stroke-dashoffset:0;stroke-opacity:1"
       d="m 680.14503,370.72696 c -0.7191,-1.83349 -4.47926,-12.60713 -8.35591,-23.94143 -3.87666,-11.3343 -10.91181,-31.16069 -15.63369,-44.05865 -4.72187,-12.89797 -8.58522,-23.67161 -8.58522,-23.94143 0,-0.26983 3.68213,-0.50613 8.18252,-0.52512 4.50038,-0.019 18.24408,-0.80382 30.54155,-1.74406 12.29747,-0.94024 22.74893,-1.46855 23.22547,-1.17404 1.33384,0.82436 16.81774,29.50309 33.46415,61.9811 l 15.03239,29.32897 -4.00657,0.66454 c -6.64563,1.10227 -65.45591,6.62735 -71.61806,6.72835 -0.51655,0.008 -1.52753,-1.48474 -2.24663,-3.31823 z"
       id="path1110"
       inkscape:connector-curvature="0"
       transform="matrix(0.9375,0,0,0.9375,0,308.26772)" />
    <path
       style="opacity:1;fill:#f1ebc9;fill-opacity:1;fill-rule:nonzero;stroke:none;stroke-width:2.42444849;stroke-linecap:round;stroke-linejoin:round;stroke-miterlimit:4;stroke-dasharray:none;stroke-dashoffset:0;stroke-opacity:1"
       d="M 750.58234,346.07958 C 744.93,334.68693 734.22296,314.09287 726.7889,300.31499 c -7.43406,-13.77788 -13.33576,-25.24042 -13.1149,-25.4723 0.22087,-0.23189 10.66729,-1.46352 23.21427,-2.73696 12.54698,-1.27345 30.91669,-3.39854 40.82158,-4.72242 9.90489,-1.32389 18.55908,-2.06703 19.23153,-1.65143 4.17918,2.58287 61.63897,84.42452 60.23665,85.79681 -0.81244,0.79503 -49.86503,8.89746 -70.20203,11.59586 -10.33421,1.37118 -20.4381,2.75763 -22.45308,3.081 -3.65374,0.58636 -3.69132,0.5321 -13.94058,-20.12597 z"
       id="path1112"
       inkscape:connector-curvature="0"
       transform="matrix(0.9375,0,0,0.9375,0,308.26772)" />
    <path
       style="opacity:1;fill:#f1ebc9;fill-opacity:1;fill-rule:nonzero;stroke:none;stroke-width:2.42444849;stroke-linecap:round;stroke-linejoin:round;stroke-miterlimit:4;stroke-dasharray:none;stroke-dashoffset:0;stroke-opacity:1"
       d="m 845.97248,328.25514 c -8.35132,-12.57408 -22.04173,-32.03654 -30.42312,-43.24992 -8.38139,-11.21338 -15.23889,-20.52066 -15.23889,-20.68283 0,-0.16218 3.13663,-0.67359 6.97029,-1.13647 10.24354,-1.23681 50.57192,-8.68337 69.26996,-12.79056 l 16.23514,-3.5662 4.97878,5.63829 c 15.11369,17.11572 31.26359,38.13089 45.93224,59.76969 l 9.45015,13.94058 -3.98788,1.65123 c -7.12482,2.95012 -48.38553,14.31076 -66.41743,18.28723 -9.66749,2.13192 -18.479,4.12928 -19.58113,4.43857 -1.49529,0.41962 -5.85775,-5.24018 -17.18811,-22.29961 z"
       id="path1114"
       inkscape:connector-curvature="0"
       transform="matrix(0.9375,0,0,0.9375,0,308.26772)" />
    <path
       style="opacity:1;fill:#f1ebc9;fill-opacity:1;fill-rule:nonzero;stroke:none;stroke-width:2.42444849;stroke-linecap:round;stroke-linejoin:round;stroke-miterlimit:4;stroke-dasharray:none;stroke-dashoffset:0;stroke-opacity:1"
       d="m 948.21261,313.7105 c -10.66685,-15.96537 -30.31992,-42.02575 -42.2493,-56.02345 l -9.81448,-11.51613 5.72174,-1.57184 c 3.14696,-0.8645 13.35876,-3.72583 22.69289,-6.35851 l 16.97114,-4.78669 2.42445,2.86061 c 10.06651,11.8775 23.2617,28.80205 30.08014,38.58172 9.35648,13.41995 21.43939,32.44502 21.43939,33.75725 0,1.19212 -37.52134,17.32978 -39.23856,16.87622 -0.0873,-0.0231 -3.69963,-5.34169 -8.02741,-11.81918 z"
       id="path1116"
       inkscape:connector-curvature="0"
       transform="matrix(0.9375,0,0,0.9375,0,308.26772)" />
    <path
       style="opacity:1;fill:#f1ebc9;fill-opacity:1;fill-rule:nonzero;stroke:none;stroke-width:2.42444849;stroke-linecap:round;stroke-linejoin:round;stroke-miterlimit:4;stroke-dasharray:none;stroke-dashoffset:0;stroke-opacity:1"
       d="m 872.41631,222.0383 c -11.34612,-11.39583 -27.57398,-26.44744 -36.0619,-33.44804 -12.10987,-9.98788 -14.97622,-12.90387 -13.31296,-13.54355 1.16579,-0.44836 12.04804,-2.57722 24.18278,-4.73081 l 22.06316,-3.91561 8.84856,7.07648 c 24.93444,19.94088 61.66274,55.51935 59.52278,57.65932 -1.28464,1.28464 -40.25915,12.06179 -42.72081,11.81307 -1.04076,-0.10516 -11.17548,-9.51504 -22.52161,-20.91086 z"
       id="path1118"
       inkscape:connector-curvature="0"
       transform="matrix(0.9375,0,0,0.9375,0,308.26772)" />
    <path
       style="opacity:1;fill:#f1ebc9;fill-opacity:1;fill-rule:nonzero;stroke:none;stroke-width:2.42444849;stroke-linecap:round;stroke-linejoin:round;stroke-miterlimit:4;stroke-dasharray:none;stroke-dashoffset:0;stroke-opacity:1"
       d="m 792.87457,255.51402 c -8.5903,-11.12739 -30.55131,-36.23673 -45.83058,-52.40083 l -15.49166,-16.3888 18.95853,-2.06742 c 10.42719,-1.13708 29.4256,-3.52384 42.2187,-5.3039 l 23.26017,-3.23648 6.91156,5.21828 c 22.83695,17.24207 68.83951,61.35772 65.76017,63.06286 -4.04003,2.2371 -81.95934,17.02151 -88.93415,16.87435 -1.44768,-0.0305 -4.24691,-2.38261 -6.85274,-5.75806 z"
       id="path1120"
       inkscape:connector-curvature="0"
       transform="matrix(0.9375,0,0,0.9375,0,308.26772)" />
    <path
       style="opacity:1;fill:#f1ebc9;fill-opacity:1;fill-rule:nonzero;stroke:none;stroke-width:2.42444849;stroke-linecap:round;stroke-linejoin:round;stroke-miterlimit:4;stroke-dasharray:none;stroke-dashoffset:0;stroke-opacity:1"
       d="m 702.6102,256.77788 c -9.87671,-17.07845 -28.06433,-46.66557 -34.70789,-56.46186 -2.63472,-3.88504 -4.55474,-7.29937 -4.26671,-7.58741 0.28803,-0.28803 11.20084,-1.3289 24.25069,-2.31304 13.04985,-0.98414 27.45521,-2.13138 32.01191,-2.54943 l 8.28493,-0.76009 14.5619,15.59185 c 25.26544,27.05244 52.2116,58.32261 51.16214,59.37207 -1.10973,1.10973 -69.86775,8.95154 -78.48831,8.95154 -4.56026,0 -4.59135,-0.0346 -12.80866,-14.24363 z"
       id="path1122"
       inkscape:connector-curvature="0"
       transform="matrix(0.9375,0,0,0.9375,0,308.26772)" />
    <path
       style="opacity:1;fill:#f1ebc9;fill-opacity:1;fill-rule:nonzero;stroke:none;stroke-width:2.42444849;stroke-linecap:round;stroke-linejoin:round;stroke-miterlimit:4;stroke-dasharray:none;stroke-dashoffset:0;stroke-opacity:1"
       d="m 645.04543,272.67993 c -0.74876,-1.91221 -3.97455,-10.29551 -7.16842,-18.62956 -4.74917,-12.39241 -20.36474,-52.25267 -22.64744,-57.80977 -0.80278,-1.95434 3.91686,-2.55392 25.92557,-3.29359 l 18.43552,-0.61957 13.22159,20.86061 c 12.34186,19.47259 35.43732,58.18716 34.97102,58.62138 -0.24945,0.23229 -30.1727,2.42632 -48.36946,3.54653 l -13.00699,0.80072 z"
       id="path1124"
       inkscape:connector-curvature="0"
       transform="matrix(0.9375,0,0,0.9375,0,308.26772)" />
    <path
       style="opacity:1;fill:#f1ebc9;fill-opacity:1;fill-rule:nonzero;stroke:none;stroke-width:2.42444849;stroke-linecap:round;stroke-linejoin:round;stroke-miterlimit:4;stroke-dasharray:none;stroke-dashoffset:0;stroke-opacity:1"
       d="m 594.84717,272.83985 c -0.35813,-2.66689 -1.74912,-14.39516 -3.09108,-26.06282 -1.34196,-11.66766 -3.41477,-28.18599 -4.60624,-36.70739 l -2.16631,-15.49346 13.32938,0.34066 13.32937,0.34066 4.6697,11.51613 c 11.65988,28.75488 26.44857,68.24938 25.79912,68.89883 -0.39378,0.39379 -11.04275,1.00854 -23.66438,1.36613 l -22.94841,0.65016 z"
       id="path1126"
       inkscape:connector-curvature="0"
       transform="matrix(0.9375,0,0,0.9375,0,308.26772)" />
    <path
       style="opacity:1;fill:#f1ebc9;fill-opacity:1;fill-rule:nonzero;stroke:none;stroke-width:2.42444849;stroke-linecap:round;stroke-linejoin:round;stroke-miterlimit:4;stroke-dasharray:none;stroke-dashoffset:0;stroke-opacity:1"
       d="m 526.95749,273.74902 c 0.35109,-2.50021 2.02003,-16.27411 3.70876,-30.60867 1.68872,-14.33455 3.74166,-30.97233 4.56209,-36.97284 l 1.49169,-10.91001 22.5552,-0.32929 22.55521,-0.32929 0.72981,3.96596 c 1.27536,6.93061 7.81729,59.32588 8.70619,69.72913 l 0.85451,10.00085 h -32.90091 -32.90091 z"
       id="path1128"
       inkscape:connector-curvature="0"
       transform="matrix(0.9375,0,0,0.9375,0,308.26772)" />
    <path
       style="opacity:1;fill:#f1ebc9;fill-opacity:1;fill-rule:nonzero;stroke:none;stroke-width:2.42444849;stroke-linecap:round;stroke-linejoin:round;stroke-miterlimit:4;stroke-dasharray:none;stroke-dashoffset:0;stroke-opacity:1"
       d="M 499.47299,277.13759 C 487.69211,276.774 477.6568,276.0784 477.1723,275.5918 c -0.98398,-0.98825 -0.72624,-1.70281 17.27971,-47.9073 l 12.87305,-33.03312 h 13.3128 13.31281 l -0.8138,5.75807 c -1.52865,10.81593 -7.82825,61.50283 -8.66301,69.7029 -0.51439,5.05301 -1.35849,8.08762 -2.20703,7.93441 -0.75573,-0.13646 -11.01296,-0.54558 -22.79384,-0.90917 z"
       id="path1130"
       inkscape:connector-curvature="0"
       transform="matrix(0.9375,0,0,0.9375,0,308.26772)" />
    <path
       style="opacity:1;fill:#f1ebc9;fill-opacity:1;fill-rule:nonzero;stroke:none;stroke-width:2.42444849;stroke-linecap:round;stroke-linejoin:round;stroke-miterlimit:4;stroke-dasharray:none;stroke-dashoffset:0;stroke-opacity:1"
       d="m 433.81438,274.00174 c -11.89006,-0.86159 -21.84067,-1.78892 -22.11248,-2.06073 -0.70191,-0.70191 19.81046,-35.6025 34.77872,-59.17395 l 12.65843,-19.93401 17.5424,0.45278 c 9.64831,0.24904 19.79019,0.79454 22.5375,1.21223 l 4.99511,0.75944 -12.3954,31.51783 c -6.81748,17.3348 -13.8861,35.47271 -15.70805,40.30645 l -3.31265,8.78863 -8.68265,-0.15107 c -4.77546,-0.0831 -18.41087,-0.85601 -30.30093,-1.7176 z"
       id="path1132"
       inkscape:connector-curvature="0"
       transform="matrix(0.9375,0,0,0.9375,0,308.26772)" />
    <path
       style="opacity:1;fill:#f1ebc9;fill-opacity:1;fill-rule:nonzero;stroke:none;stroke-width:2.42444849;stroke-linecap:round;stroke-linejoin:round;stroke-miterlimit:4;stroke-dasharray:none;stroke-dashoffset:0;stroke-opacity:1"
       d="m 393.60922,270.91353 c -42.62367,-4.59215 -66.84027,-7.61849 -67.7656,-8.46866 -1.73164,-1.59098 47.41555,-58.45861 62.47391,-72.28781 l 2.91384,-2.67599 20.58451,1.6676 c 11.32149,0.91718 25.93116,2.038 32.46594,2.49073 l 11.88143,0.82313 -2.1324,3.21582 c -7.68292,11.58643 -26.01417,41.27034 -35.29894,57.1598 -7.49687,12.82976 -11.68437,18.84192 -13.20212,18.95483 -1.22252,0.091 -6.58678,-0.3048 -11.92057,-0.87945 z"
       id="path1134"
       inkscape:connector-curvature="0"
       transform="matrix(0.9375,0,0,0.9375,0,308.26772)" />
    <path
       style="opacity:1;fill:#f1ebc9;fill-opacity:1;fill-rule:nonzero;stroke:none;stroke-width:2.42444849;stroke-linecap:round;stroke-linejoin:round;stroke-miterlimit:4;stroke-dasharray:none;stroke-dashoffset:0;stroke-opacity:1"
       d="m 301.48018,259.42548 c -20.0321,-3.18772 -67.69266,-12.44866 -71.52123,-13.89732 -2.10234,-0.79548 0.233,-3.55395 17.57725,-20.76201 17.60031,-17.46211 44.19208,-40.99586 52.39926,-46.37341 2.56493,-1.68061 4.7404,-1.58058 23.4002,1.0759 11.3148,1.61082 29.02763,3.8111 39.36185,4.88951 10.33421,1.07841 20.05998,2.22027 21.61281,2.53746 2.54467,0.5198 1.46596,1.98462 -10.92861,14.84047 -13.90804,14.42564 -38.76934,42.79289 -47.66265,54.38405 -2.66381,3.4719 -5.11604,6.28697 -5.4494,6.25571 -0.33337,-0.0313 -8.78863,-1.35892 -18.78948,-2.95036 z"
       id="path1136"
       inkscape:connector-curvature="0"
       transform="matrix(0.9375,0,0,0.9375,0,308.26772)" />
    <path
       style="opacity:1;fill:#f1ebc9;fill-opacity:1;fill-rule:nonzero;stroke:none;stroke-width:2.42444849;stroke-linecap:round;stroke-linejoin:round;stroke-miterlimit:4;stroke-dasharray:none;stroke-dashoffset:0;stroke-opacity:1"
       d="m 205.10835,239.48625 c -9.66749,-2.58055 -19.7279,-5.44923 -22.35648,-6.37484 l -4.77922,-1.68292 18.7198,-18.79941 c 10.29589,-10.33967 26.08407,-24.90684 35.08483,-32.37148 15.56766,-12.91078 16.57176,-13.53327 20.60782,-12.77577 2.33353,0.43796 13.59255,2.51771 25.02004,4.62165 l 20.77726,3.82536 -13.43801,10.87655 c -7.3909,5.98211 -24.10493,21.37473 -37.14228,34.20584 -13.03736,12.83111 -23.97704,23.29276 -24.3104,23.24812 -0.33336,-0.0447 -8.51587,-2.19254 -18.18336,-4.7731 z"
       id="path1138"
       inkscape:connector-curvature="0"
       transform="matrix(0.9375,0,0,0.9375,0,308.26772)" />
    <path
       style="opacity:1;fill:#f1ebc9;fill-opacity:1;fill-rule:nonzero;stroke:none;stroke-width:2.42444849;stroke-linecap:round;stroke-linejoin:round;stroke-miterlimit:4;stroke-dasharray:none;stroke-dashoffset:0;stroke-opacity:1"
       d="m 293.60072,172.14032 c -1.00008,-0.22539 -9.7281,-1.81505 -19.39559,-3.5326 -24.53582,-4.35907 -23.41,-3.49866 -13.74598,-10.5054 22.3958,-16.23772 59.15504,-37.65805 62.93039,-36.67078 1.36999,0.35826 12.77779,1.86202 25.35067,3.34168 l 22.8598,2.6903 -18.98111,11.4066 c -10.43961,6.27363 -26.06733,16.48139 -34.72826,22.68391 -15.39651,11.0262 -17.76245,12.05735 -24.28992,10.58629 z"
       id="path1140"
       inkscape:connector-curvature="0"
       transform="matrix(0.9375,0,0,0.9375,0,308.26772)" />
    <path
       style="opacity:1;fill:#f1ebc9;fill-opacity:1;fill-rule:nonzero;stroke:none;stroke-width:2.42444849;stroke-linecap:round;stroke-linejoin:round;stroke-miterlimit:4;stroke-dasharray:none;stroke-dashoffset:0;stroke-opacity:1"
       d="m 386.33588,184.05128 c -28.21958,-2.8571 -69.39113,-7.93268 -77.28124,-9.52714 -3.25538,-0.65785 -3.15395,-0.80774 4.22013,-6.23623 12.06179,-8.87939 34.3223,-23.33755 49.49185,-32.14487 l 14.00969,-8.13392 18.72036,1.73142 c 10.2962,0.95228 23.62988,2.05416 29.63039,2.44863 6.00051,0.39446 13.21836,1.00423 16.03966,1.35503 l 5.12966,0.63783 -7.55411,6.20466 c -10.22507,8.39849 -25.99653,22.44826 -38.46581,34.2667 -8.79471,8.33567 -10.83657,9.71216 -13.94058,9.39789 z"
       id="path1142"
       inkscape:connector-curvature="0"
       transform="matrix(0.9375,0,0,0.9375,0,308.26772)" />
    <path
       style="opacity:1;fill:#f1ebc9;fill-opacity:1;fill-rule:nonzero;stroke:none;stroke-width:2.42444849;stroke-linecap:round;stroke-linejoin:round;stroke-miterlimit:4;stroke-dasharray:none;stroke-dashoffset:0;stroke-opacity:1"
       d="m 431.18818,187.86734 c -12.66775,-0.90041 -26.29355,-2.06072 -30.27957,-2.57848 l -7.2473,-0.94138 17.55121,-15.97163 c 9.65316,-8.78439 22.46072,-20.12843 28.46123,-25.20898 l 10.91002,-9.23737 9.69779,0.65418 c 5.33379,0.3598 14.6073,0.6658 20.60781,0.68001 6.00051,0.0142 11.62945,0.482 12.50875,1.03955 1.19667,0.75879 -1.2695,4.94588 -9.80649,16.64952 -6.27288,8.59969 -14.57483,20.40893 -18.44878,26.24276 -4.27315,6.43499 -7.80638,10.54835 -8.98298,10.45794 -1.06669,-0.082 -12.30395,-0.88572 -24.97169,-1.78612 z"
       id="path1144"
       inkscape:connector-curvature="0"
       transform="matrix(0.9375,0,0,0.9375,0,308.26772)" />
    <path
       style="opacity:1;fill:#f1ebc9;fill-opacity:1;fill-rule:nonzero;stroke:none;stroke-width:2.42444849;stroke-linecap:round;stroke-linejoin:round;stroke-miterlimit:4;stroke-dasharray:none;stroke-dashoffset:0;stroke-opacity:1"
       d="m 470.28241,190.1337 c -4.50038,-0.24309 -8.18251,-0.75582 -8.18251,-1.13939 0,-0.87187 16.79587,-24.99363 28.31681,-40.6678 l 8.65603,-11.77649 14.32532,-0.0427 c 13.11929,-0.0391 14.26846,0.13646 13.64989,2.0854 -0.37149,1.17046 -5.23089,13.30786 -10.79867,26.97199 l -10.12323,24.84389 -13.83056,0.0836 c -7.60681,0.0459 -17.5127,-0.11535 -22.01308,-0.35845 z"
       id="path1146"
       inkscape:connector-curvature="0"
       transform="matrix(0.9375,0,0,0.9375,0,308.26772)" />
    <path
       style="opacity:1;fill:#f1ebc9;fill-opacity:1;fill-rule:nonzero;stroke:none;stroke-width:2.42444849;stroke-linecap:round;stroke-linejoin:round;stroke-miterlimit:4;stroke-dasharray:none;stroke-dashoffset:0;stroke-opacity:1"
       d="m 512.71026,191.35867 c -1.83349,-0.27775 -3.33362,-0.65916 -3.33362,-0.84758 0,-0.18842 4.84211,-12.28958 10.76025,-26.89147 l 10.76024,-26.54889 6.36535,-0.37176 6.36535,-0.37177 -0.67964,3.40233 c -0.3738,1.87128 -2.47718,14.44872 -4.67418,27.94986 l -3.99454,24.54754 -9.11779,-0.18163 c -5.01479,-0.0999 -10.61793,-0.40888 -12.45142,-0.68663 z"
       id="path1148"
       inkscape:connector-curvature="0"
       transform="matrix(0.9375,0,0,0.9375,0,308.26772)" />
    <path
       style="opacity:1;fill:#f1ebc9;fill-opacity:1;fill-rule:nonzero;stroke:none;stroke-width:2.42444849;stroke-linecap:round;stroke-linejoin:round;stroke-miterlimit:4;stroke-dasharray:none;stroke-dashoffset:0;stroke-opacity:1"
       d="m 538.01717,187.07498 c 0.39215,-2.83357 2.42734,-15.24372 4.52265,-27.5781 l 3.80966,-22.42615 12.99811,-0.34373 c 12.67226,-0.33511 13.01392,-0.27433 13.62877,2.42445 0.34686,1.5225 2.2684,12.85994 4.27009,25.19433 2.00168,12.33438 3.83923,23.65352 4.08344,25.15365 l 0.44401,2.7275 h -22.23486 -22.23486 z"
       id="path1150"
       inkscape:connector-curvature="0"
       transform="matrix(0.9375,0,0,0.9375,0,308.26772)" />
    <path
       style="opacity:1;fill:#f1ebc9;fill-opacity:1;fill-rule:nonzero;stroke:none;stroke-width:2.42444849;stroke-linecap:round;stroke-linejoin:round;stroke-miterlimit:4;stroke-dasharray:none;stroke-dashoffset:0;stroke-opacity:1"
       d="m 584.53455,191.3171 c 0,-0.50042 -1.90608,-12.36506 -4.23573,-26.36588 -2.32965,-14.00082 -4.2389,-26.13792 -4.24278,-26.97132 -0.005,-1.00574 1.97792,-1.51528 5.89595,-1.51528 h 5.903 l 10.97904,26.97199 10.97905,26.97199 -5.66898,0.80297 c -7.96585,1.12831 -19.60955,1.19097 -19.60955,0.10553 z"
       id="path1152"
       inkscape:connector-curvature="0"
       transform="matrix(0.9375,0,0,0.9375,0,308.26772)" />
    <path
       style="opacity:1;fill:#f1ebc9;fill-opacity:1;fill-rule:nonzero;stroke:none;stroke-width:2.42444849;stroke-linecap:round;stroke-linejoin:round;stroke-miterlimit:4;stroke-dasharray:none;stroke-dashoffset:0;stroke-opacity:1"
       d="m 609.79436,182.8322 c -1.76961,-4.50039 -6.76125,-16.77416 -11.09254,-27.27505 l -7.87506,-19.09253 h 14.37667 14.37667 l 7.13406,9.39474 c 3.92373,5.1671 12.45195,17.03175 18.9516,26.36587 l 11.81754,16.97114 -11.92683,0.76679 c -6.55976,0.42173 -16.56584,0.83085 -22.23573,0.90917 l -10.3089,0.14238 z"
       id="path1154"
       inkscape:connector-curvature="0"
       transform="matrix(0.9375,0,0,0.9375,0,308.26772)" />
    <path
       style="opacity:1;fill:#f1ebc9;fill-opacity:1;fill-rule:nonzero;stroke:none;stroke-width:2.42444849;stroke-linecap:round;stroke-linejoin:round;stroke-miterlimit:4;stroke-dasharray:none;stroke-dashoffset:0;stroke-opacity:1"
       d="m 653.26943,178.31309 c -4.02941,-6.01521 -12.40804,-17.91174 -18.61917,-26.43671 -6.80031,-9.33364 -10.69643,-15.68406 -9.79348,-15.96272 0.82473,-0.25452 10.86638,-0.79875 22.31479,-1.20939 l 20.81527,-0.74662 11.2158,9.33491 c 12.723,10.58936 20.17423,17.21485 35.32055,31.40636 l 10.58454,9.9173 -18.464,1.46496 c -10.1552,0.80573 -24.67043,1.84829 -32.25606,2.31681 l -13.79205,0.85186 z"
       id="path1156"
       inkscape:connector-curvature="0"
       transform="matrix(0.9375,0,0,0.9375,0,308.26772)" />
    <path
       style="opacity:1;fill:#f1ebc9;fill-opacity:1;fill-rule:nonzero;stroke:none;stroke-width:2.42444849;stroke-linecap:round;stroke-linejoin:round;stroke-miterlimit:4;stroke-dasharray:none;stroke-dashoffset:0;stroke-opacity:1"
       d="m 712.00088,168.59344 c -8.90023,-8.3415 -21.174,-19.34014 -27.27505,-24.44142 -6.10104,-5.10129 -11.24693,-9.653 -11.43532,-10.11493 -0.18839,-0.46192 5.81212,-1.20665 13.33446,-1.65495 7.52235,-0.44831 23.01576,-1.67809 34.4298,-2.73285 l 20.7528,-1.91775 10.15892,5.8317 c 15.3568,8.81552 35.39354,21.59843 48.93696,31.2205 l 12.13538,8.6217 -9.6978,1.50354 c -15.55758,2.41203 -56.17137,7.43676 -66.06622,8.1737 l -9.09168,0.67712 z"
       id="path1158"
       inkscape:connector-curvature="0"
       transform="matrix(0.9375,0,0,0.9375,0,308.26772)" />
    <path
       style="opacity:1;fill:#f1ebc9;fill-opacity:1;fill-rule:nonzero;stroke:none;stroke-width:2.42444849;stroke-linecap:round;stroke-linejoin:round;stroke-miterlimit:4;stroke-dasharray:none;stroke-dashoffset:0;stroke-opacity:1"
       d="m 811.8266,169.07322 c -9.46763,-7.20617 -36.57009,-25.07461 -50.30731,-33.16722 -7.66731,-4.51682 -14.07445,-8.32751 -14.23807,-8.4682 -0.16363,-0.14068 9.58886,-1.46781 21.67219,-2.94918 12.08333,-1.48136 23.39998,-2.97115 25.1481,-3.31064 2.39998,-0.46608 6.88945,1.5012 18.3312,8.03273 15.21547,8.68575 53.81288,33.85191 53.06531,34.59948 -0.41464,0.41464 -46.50293,9.047 -47.98402,8.98743 -0.46118,-0.0186 -3.0205,-1.69453 -5.6874,-3.7244 z"
       id="path1160"
       inkscape:connector-curvature="0"
       transform="matrix(0.9375,0,0,0.9375,0,308.26772)" />
    <path
       style="opacity:1;fill:#f1ebc9;fill-opacity:1;fill-rule:nonzero;stroke:none;stroke-width:2.42444849;stroke-linecap:round;stroke-linejoin:round;stroke-miterlimit:4;stroke-dasharray:none;stroke-dashoffset:0;stroke-opacity:1"
       d="m 723.94034,115.74221 c -9.00076,-4.6176 -24.37978,-11.78539 -34.1756,-15.928422 -9.79582,-4.143034 -17.67949,-7.663872 -17.51928,-7.824084 0.16021,-0.160212 10.7497,-1.13803 23.5322,-2.172928 l 23.2409,-1.881633 14.95484,5.420927 c 28.69245,10.40063 58.77598,24.1698 55.42705,25.36886 -2.6278,0.94086 -29.34005,4.17486 -40.0034,4.84313 l -9.09168,0.56978 z"
       id="path1162"
       inkscape:connector-curvature="0"
       transform="matrix(0.9375,0,0,0.9375,0,308.26772)" />
    <path
       style="opacity:1;fill:#f1ebc9;fill-opacity:1;fill-rule:nonzero;stroke:none;stroke-width:2.42444849;stroke-linecap:round;stroke-linejoin:round;stroke-miterlimit:4;stroke-dasharray:none;stroke-dashoffset:0;stroke-opacity:1"
       d="m 657.87412,122.66889 c -5.33379,-4.20253 -16.44064,-12.36398 -24.68188,-18.13654 l -14.98409,-10.495582 6.49852,-0.10518 c 3.57418,-0.05785 13.59003,-0.521728 22.25743,-1.030844 l 15.75891,-0.925666 16.36503,6.554761 c 9.00077,3.605121 25.59336,11.023121 36.87244,16.484461 l 20.50741,9.92969 -5.96072,0.83943 c -8.2955,1.16822 -52.30844,4.63021 -58.14071,4.57326 -4.0174,-0.0392 -6.36646,-1.28535 -14.49234,-7.68779 z"
       id="path1164"
       inkscape:connector-curvature="0"
       transform="matrix(0.9375,0,0,0.9375,0,308.26772)" />
    <path
       style="opacity:1;fill:#f1ebc9;fill-opacity:1;fill-rule:nonzero;stroke:none;stroke-width:2.42444849;stroke-linecap:round;stroke-linejoin:round;stroke-miterlimit:4;stroke-dasharray:none;stroke-dashoffset:0;stroke-opacity:1"
       d="m 605.57124,114.19161 -14.72393,-18.666233 4.42002,-0.730963 c 2.43101,-0.40203 7.30483,-0.736967 10.8307,-0.744305 5.8503,-0.01217 7.38679,0.640557 17.57725,7.467151 14.24937,9.54566 36.43319,25.86011 38.42172,28.25615 1.33561,1.60931 0.70531,1.84293 -4.98362,1.84723 -3.58193,0.003 -13.33137,0.28218 -21.66541,0.62106 l -15.1528,0.61614 z"
       id="path1166"
       inkscape:connector-curvature="0"
       transform="matrix(0.9375,0,0,0.9375,0,308.26772)" />
    <path
       style="opacity:1;fill:#f1ebc9;fill-opacity:1;fill-rule:nonzero;stroke:none;stroke-width:2.42444849;stroke-linecap:round;stroke-linejoin:round;stroke-miterlimit:4;stroke-dasharray:none;stroke-dashoffset:0;stroke-opacity:1"
       d="m 581.99227,115.11366 -7.98606,-19.258555 5.4132,-0.375562 c 2.97726,-0.206559 6.08739,-0.11685 6.91141,0.199353 1.96274,0.753176 30.2416,35.820864 29.49128,36.571174 -0.31686,0.31687 -6.26134,0.92397 -13.20995,1.34913 l -12.63383,0.77301 z"
       id="path1168"
       inkscape:connector-curvature="0"
       transform="matrix(0.9375,0,0,0.9375,0,308.26772)" />
    <path
       style="opacity:1;fill:#f1ebc9;fill-opacity:1;fill-rule:nonzero;stroke:none;stroke-width:2.42444849;stroke-linecap:round;stroke-linejoin:round;stroke-miterlimit:4;stroke-dasharray:none;stroke-dashoffset:0;stroke-opacity:1"
       d="m 573.66034,127.06988 c -0.74157,-3.83366 -2.41675,-12.03153 -3.72262,-18.21748 -1.30587,-6.18596 -2.37431,-11.77734 -2.37431,-12.4253 0,-2.591838 3.47611,-0.967716 4.61345,2.155509 0.66767,1.833491 4.23839,10.561501 7.93493,19.395591 l 6.72099,16.06197 h -5.91207 -5.91207 z"
       id="path1170"
       inkscape:connector-curvature="0"
       transform="matrix(0.9375,0,0,0.9375,0,308.26772)" />
    <path
       style="opacity:1;fill:#f1ebc9;fill-opacity:1;fill-rule:nonzero;stroke:none;stroke-width:2.42444849;stroke-linecap:round;stroke-linejoin:round;stroke-miterlimit:4;stroke-dasharray:none;stroke-dashoffset:0;stroke-opacity:1"
       d="m 547.34205,131.31266 c 0.35711,-1.50012 2.13579,-10.25545 3.95264,-19.45627 l 3.30335,-16.728763 4.91884,0.363739 4.91885,0.363739 3.81,19.092535 3.81001,19.09253 h -12.68149 c -12.5354,0 -12.674,-0.0314 -12.0322,-2.72751 z"
       id="path1172"
       inkscape:connector-curvature="0"
       transform="matrix(0.9375,0,0,0.9375,0,308.26772)" />
    <path
       style="opacity:1;fill:#f1ebc9;fill-opacity:1;fill-rule:nonzero;stroke:none;stroke-width:2.42444849;stroke-linecap:round;stroke-linejoin:round;stroke-miterlimit:4;stroke-dasharray:none;stroke-dashoffset:0;stroke-opacity:1"
       d="m 505.54692,132.98758 c -3.19006,-0.75778 -3.10177,-0.9182 8.48557,-15.4173 19.19137,-24.013934 17.33744,-22.321288 24.44816,-22.321288 4.44414,0 6.11599,0.442686 5.83633,1.545387 -0.21557,0.849962 -3.66495,9.568671 -7.66529,19.374911 l -7.27335,17.82953 -10.3039,-0.12275 c -5.66715,-0.0675 -11.75453,-0.46733 -13.52752,-0.88849 z"
       id="path1174"
       inkscape:connector-curvature="0"
       transform="matrix(0.9375,0,0,0.9375,0,308.26772)" />
    <path
       style="opacity:1;fill:#f1ebc9;fill-opacity:1;fill-rule:nonzero;stroke:none;stroke-width:2.42444849;stroke-linecap:round;stroke-linejoin:round;stroke-miterlimit:4;stroke-dasharray:none;stroke-dashoffset:0;stroke-opacity:1"
       d="m 532.41999,133.73711 c 0.006,-0.16668 3.52069,-8.75832 7.81022,-19.09253 5.23125,-12.60301 8.47885,-18.929738 9.86358,-19.21548 1.32481,-0.273378 1.84887,0.160931 1.46273,1.212225 -0.33095,0.901025 -2.15955,9.684365 -4.06355,19.518535 l -3.46183,17.88031 h -5.81112 c -3.19611,0 -5.80613,-0.13638 -5.80003,-0.30306 z"
       id="path1176"
       inkscape:connector-curvature="0"
       transform="matrix(0.9375,0,0,0.9375,0,308.26772)" />
    <path
       style="opacity:1;fill:#f1ebc9;fill-opacity:1;fill-rule:nonzero;stroke:none;stroke-width:2.42444849;stroke-linecap:round;stroke-linejoin:round;stroke-miterlimit:4;stroke-dasharray:none;stroke-dashoffset:0;stroke-opacity:1"
       d="m 411.79259,128.45624 c -11.3343,-0.91143 -22.51018,-1.98616 -24.83529,-2.3883 -3.82919,-0.66228 -4.02356,-0.88027 -2.06307,-2.31382 3.25821,-2.38246 39.5535,-19.06034 55.22485,-25.376121 15.26551,-6.152215 16.13493,-6.243654 45.2476,-4.758828 l 15.38732,0.784797 -12.35676,8.472422 c -6.79622,4.65983 -18.03494,12.75972 -24.97493,17.99976 l -12.61817,9.52735 -9.20187,-0.14506 c -5.06103,-0.0798 -18.47538,-0.89077 -29.80968,-1.8022 z"
       id="path1178"
       inkscape:connector-curvature="0"
       transform="matrix(0.9375,0,0,0.9375,0,308.26772)" />
    <path
       style="opacity:1;fill:#f1ebc9;fill-opacity:1;fill-rule:nonzero;stroke:none;stroke-width:2.42444849;stroke-linecap:round;stroke-linejoin:round;stroke-miterlimit:4;stroke-dasharray:none;stroke-dashoffset:0;stroke-opacity:1"
       d="m 373.60752,124.88269 c -1.00008,-0.20657 -12.36625,-1.60802 -25.25814,-3.11432 l -23.43981,-2.73875 7.07478,-3.57767 c 11.96657,-6.05142 35.40511,-15.97575 51.44619,-21.783308 l 15.27802,-5.5313 22.30093,1.745587 c 12.26551,0.960073 23.34025,1.878318 24.61056,2.040545 1.27029,0.162226 -3.63922,2.682194 -10.91003,5.599927 -7.2708,2.917729 -23.3114,10.253559 -35.64579,16.301829 -26.07438,12.7858 -23.17864,11.528 -25.45671,11.05746 z"
       id="path1180"
       inkscape:connector-curvature="0"
       transform="matrix(0.9375,0,0,0.9375,0,308.26772)" />
    <path
       style="opacity:1;fill:#f1ebc9;fill-opacity:1;fill-rule:nonzero;stroke:none;stroke-width:2.42444849;stroke-linecap:round;stroke-linejoin:round;stroke-miterlimit:4;stroke-dasharray:none;stroke-dashoffset:0;stroke-opacity:1"
       d="m 464.74351,131.69294 -10.08474,-0.68333 13.1153,-9.83491 c 7.21342,-5.4092 18.84306,-13.77918 25.84366,-18.59995 l 12.72835,-8.765045 10.28955,0.806306 c 5.65925,0.443468 10.50351,1.020264 10.76501,1.281768 0.26151,0.261504 -2.21097,3.631887 -5.49439,7.489741 -3.28342,3.85785 -9.94887,12.06016 -14.81211,18.22735 l -8.84225,11.21308 -11.71182,-0.22585 c -6.4415,-0.12421 -16.24995,-0.53333 -21.79656,-0.90916 z"
       id="path1182"
       inkscape:connector-curvature="0"
       transform="matrix(0.9375,0,0,0.9375,0,308.26772)" />
    <path
       style="opacity:1;fill:#cdcdc3;fill-opacity:1;fill-rule:nonzero;stroke:none;stroke-width:2.42444849;stroke-linecap:round;stroke-linejoin:round;stroke-miterlimit:4;stroke-dasharray:none;stroke-dashoffset:0;stroke-opacity:1"
       d="m 426.64234,87.631422 c -9.16745,-0.643287 -16.66809,-1.577232 -16.66809,-2.075433 0,-2.565964 53.13351,-14.304848 81.82514,-18.077778 22.03872,-2.898077 48.75284,-4.429634 41.21563,-2.362947 -23.64224,6.482646 -52.11396,15.07239 -63.43947,19.139295 -15.05448,5.405951 -14.56522,5.367469 -42.93321,3.376863 z"
       id="path1184"
       inkscape:connector-curvature="0"
       transform="matrix(0.9375,0,0,0.9375,0,308.26772)" />
    <path
       style="opacity:1;fill:#cdcdc3;fill-opacity:1;fill-rule:nonzero;stroke:none;stroke-width:2.42444849;stroke-linecap:round;stroke-linejoin:round;stroke-miterlimit:4;stroke-dasharray:none;stroke-dashoffset:0;stroke-opacity:1"
       d="m 479.07104,90.457435 c -8.33405,-0.364898 -14.60731,-1.012517 -13.94058,-1.439153 5.07223,-3.245715 81.17845,-25.125653 82.5668,-23.737304 0.28054,0.280535 -5.09021,3.691924 -11.93499,7.580864 -6.84477,3.88894 -16.58668,9.698727 -21.64869,12.910639 -7.7949,4.945976 -10.02146,5.802228 -14.54669,5.594122 -2.93868,-0.135144 -12.16181,-0.544269 -20.49585,-0.909168 z"
       id="path1186"
       inkscape:connector-curvature="0"
       transform="matrix(0.9375,0,0,0.9375,0,308.26772)" />
    <path
       style="opacity:1;fill:#cdcdc3;fill-opacity:1;fill-rule:nonzero;stroke:none;stroke-width:2.42444849;stroke-linecap:round;stroke-linejoin:round;stroke-miterlimit:4;stroke-dasharray:none;stroke-dashoffset:0;stroke-opacity:1"
       d="m 521.49889,84.532668 c 15.77222,-9.691707 30.74058,-17.817095 30.17088,-16.377884 -0.25926,0.654978 -4.8354,6.175921 -10.16918,12.268765 l -9.6978,11.077896 -10.91002,0.05382 -10.91001,0.05382 11.51613,-7.076427 z"
       id="path1188"
       inkscape:connector-curvature="0"
       transform="matrix(0.9375,0,0,0.9375,0,308.26772)" />
    <path
       style="opacity:1;fill:#cdcdc3;fill-opacity:1;fill-rule:nonzero;stroke:none;stroke-width:2.42444849;stroke-linecap:round;stroke-linejoin:round;stroke-miterlimit:4;stroke-dasharray:none;stroke-dashoffset:0;stroke-opacity:1"
       d=""
       id="path1190"
       inkscape:connector-curvature="0"
       transform="matrix(0.9375,0,0,0.9375,0,308.26772)" />
    <path
       style="opacity:1;fill:#cdcdc3;fill-opacity:1;fill-rule:nonzero;stroke:none;stroke-width:2.42444849;stroke-linecap:round;stroke-linejoin:round;stroke-miterlimit:4;stroke-dasharray:none;stroke-dashoffset:0;stroke-opacity:1"
       d="m 556.26649,87.672591 c 0.4206,-2.166851 1.37999,-6.102431 2.13198,-8.745733 l 1.36726,-4.806004 1.87778,8.745733 1.87779,8.745733 h -4.00976 c -3.87255,0 -3.98359,-0.134817 -3.24505,-3.939729 z"
       id="path1192"
       inkscape:connector-curvature="0"
       transform="matrix(0.9375,0,0,0.9375,0,308.26772)" />
    <path
       style="opacity:1;fill:#cdcdc3;fill-opacity:1;fill-rule:nonzero;stroke:none;stroke-width:2.42444849;stroke-linecap:round;stroke-linejoin:round;stroke-miterlimit:4;stroke-dasharray:none;stroke-dashoffset:0;stroke-opacity:1"
       d="m 537.37513,89.490927 c 4.24249,-5.533651 17.21375,-19.74278 17.63671,-19.319819 0.26238,0.262375 -1.4975,5.193982 -3.91084,10.959128 l -4.38789,10.482084 h -5.48219 c -5.03258,0 -5.34881,-0.173986 -3.85579,-2.121393 z"
       id="path1194"
       inkscape:connector-curvature="0"
       transform="matrix(0.9375,0,0,0.9375,0,308.26772)" />
    <path
       style="opacity:1;fill:#cdcdc3;fill-opacity:1;fill-rule:nonzero;stroke:none;stroke-width:2.42444849;stroke-linecap:round;stroke-linejoin:round;stroke-miterlimit:4;stroke-dasharray:none;stroke-dashoffset:0;stroke-opacity:1"
       d="m 576.89461,79.490077 c -5.84752,-6.667234 -10.31211,-12.122243 -9.92133,-12.122243 1.8369,0 40.59353,22.673375 40.59353,23.747996 0,0.273069 -4.50908,0.49649 -10.02018,0.49649 h -10.02018 z"
       id="path1196"
       inkscape:connector-curvature="0"
       transform="matrix(0.9375,0,0,0.9375,0,308.26772)" />
    <path
       style="opacity:1;fill:#cdcdc3;fill-opacity:1;fill-rule:nonzero;stroke:none;stroke-width:2.42444849;stroke-linecap:round;stroke-linejoin:round;stroke-miterlimit:4;stroke-dasharray:none;stroke-dashoffset:0;stroke-opacity:1"
       d="m 606.20537,86.571947 c -4.13526,-2.672746 -14.08117,-8.632569 -22.10203,-13.24405 -8.02086,-4.611482 -13.89509,-8.384512 -13.05383,-8.384512 4.50704,0 53.23027,13.635997 72.88403,20.397794 9.87566,3.397684 10.12757,3.573923 6.06112,4.2405 -2.33353,0.382515 -11.44905,0.955205 -20.25671,1.272644 l -16.01393,0.577163 z"
       id="path1198"
       inkscape:connector-curvature="0"
       transform="matrix(0.9375,0,0,0.9375,0,308.26772)" />
    <path
       style="opacity:1;fill:#cdcdc3;fill-opacity:1;fill-rule:nonzero;stroke:none;stroke-width:2.42444849;stroke-linecap:round;stroke-linejoin:round;stroke-miterlimit:4;stroke-dasharray:none;stroke-dashoffset:0;stroke-opacity:1"
       d=""
       id="path1200"
       inkscape:connector-curvature="0"
       transform="matrix(0.9375,0,0,0.9375,0,308.26772)" />
    <path
       style="opacity:1;fill:#cdcdc3;fill-opacity:1;fill-rule:nonzero;stroke:none;stroke-width:2.42444849;stroke-linecap:round;stroke-linejoin:round;stroke-miterlimit:4;stroke-dasharray:none;stroke-dashoffset:0;stroke-opacity:1"
       d=""
       id="path1202"
       inkscape:connector-curvature="0"
       transform="matrix(0.9375,0,0,0.9375,0,308.26772)" />
    <path
       style="opacity:1;fill:#cdcdc3;fill-opacity:1;fill-rule:nonzero;stroke:none;stroke-width:2.42444849;stroke-linecap:round;stroke-linejoin:round;stroke-miterlimit:4;stroke-dasharray:none;stroke-dashoffset:0;stroke-opacity:1"
       d="m 643.32743,82.384582 c -10.66758,-3.705214 -28.94186,-9.381532 -40.60952,-12.614041 -22.99377,-6.370394 -22.73427,-7.058741 1.81834,-4.823279 17.61569,1.60387 44.07898,5.546603 60.61121,9.030388 21.45079,4.520256 43.43714,10.649728 41.63913,11.60838 -0.89965,0.47967 -7.63624,1.22666 -14.97019,1.659978 -7.33396,0.433319 -16.88023,1.032534 -21.21393,1.331589 -7.15652,0.49385 -9.65899,-0.07436 -27.27504,-6.193015 z"
       id="path1204"
       inkscape:connector-curvature="0"
       transform="matrix(0.9375,0,0,0.9375,0,308.26772)" />
    <path
       style="opacity:1;fill:#cdcdc3;fill-opacity:1;fill-rule:nonzero;stroke:none;stroke-width:2.42444849;stroke-linecap:round;stroke-linejoin:round;stroke-miterlimit:4;stroke-dasharray:none;stroke-dashoffset:0;stroke-opacity:1"
       d="m 572.01809,90.703151 c -1.80397,-3.052542 -8.27341,-19.920668 -7.81571,-20.378363 0.49097,-0.490973 6.37317,5.882726 16.12731,17.474862 l 3.20815,3.81267 h -5.49122 c -3.02018,0 -5.73301,-0.409126 -6.02853,-0.909169 z"
       id="path1206"
       inkscape:connector-curvature="0"
       transform="matrix(0.9375,0,0,0.9375,0,308.26772)" />
  </g>
</svg>
