<?xml version="1.0" encoding="UTF-8" standalone="no"?>
<!-- Created with Inkscape (http://www.inkscape.org/) -->

<!-- 
Artwork by John Samuel. 
This work is licensed under a Creative Commons Attribution-ShareAlike 4.0 International License. 
-->

<svg
   xmlns:osb="http://www.openswatchbook.org/uri/2009/osb"
   xmlns:dc="http://purl.org/dc/elements/1.1/"
   xmlns:cc="http://creativecommons.org/ns#"
   xmlns:rdf="http://www.w3.org/1999/02/22-rdf-syntax-ns#"
   xmlns:svg="http://www.w3.org/2000/svg"
   xmlns="http://www.w3.org/2000/svg"
   xmlns:xlink="http://www.w3.org/1999/xlink"
   xmlns:sodipodi="http://sodipodi.sourceforge.net/DTD/sodipodi-0.dtd"
   xmlns:inkscape="http://www.inkscape.org/namespaces/inkscape"
   width="297mm"
   height="210mm"
   viewBox="0 0 1052.3622 744.09448"
   id="svg2"
   version="1.1"
   inkscape:version="0.92.5 (2060ec1f9f, 2020-04-08)"
   sodipodi:docname="skiboard.svg">
  <defs
     id="defs4">
    <linearGradient
       inkscape:collect="always"
       id="linearGradient1741">
      <stop
         style="stop-color:#2d3e69;stop-opacity:1;"
         offset="0"
         id="stop1737" />
      <stop
         style="stop-color:#2d3e69;stop-opacity:0;"
         offset="1"
         id="stop1739" />
    </linearGradient>
    <linearGradient
       id="linearGradient4824"
       osb:paint="solid">
      <stop
         style="stop-color:#000000;stop-opacity:1;"
         offset="0"
         id="stop4826" />
    </linearGradient>
    <linearGradient
       inkscape:collect="always"
       xlink:href="#linearGradient1741"
       id="linearGradient1743"
       x1="18.425809"
       y1="129.73593"
       x2="556.18317"
       y2="137.00928"
       gradientUnits="userSpaceOnUse"
       gradientTransform="matrix(0.9375,0,0,0.9375,3.414002,211.69457)" />
    <linearGradient
       inkscape:collect="always"
       xlink:href="#linearGradient1741"
       id="linearGradient1747"
       gradientUnits="userSpaceOnUse"
       x1="18.425809"
       y1="129.73593"
       x2="653.16113"
       y2="118.82591"
       gradientTransform="matrix(-0.9375,0,0,0.9375,1055.7899,211.69457)" />
    <linearGradient
       inkscape:collect="always"
       xlink:href="#linearGradient1741"
       id="linearGradient1767"
       gradientUnits="userSpaceOnUse"
       gradientTransform="matrix(0.9375,0,0,0.9375,3.414002,211.69457)"
       x1="18.425809"
       y1="129.73593"
       x2="556.18317"
       y2="137.00928" />
    <linearGradient
       inkscape:collect="always"
       xlink:href="#linearGradient1741"
       id="linearGradient1769"
       gradientUnits="userSpaceOnUse"
       gradientTransform="matrix(-0.9375,0,0,0.9375,1055.7899,211.69457)"
       x1="18.425809"
       y1="129.73593"
       x2="647.09998"
       y2="126.09926" />
  </defs>
  <sodipodi:namedview
     id="base"
     pagecolor="#e7e8ed"
     bordercolor="#666666"
     borderopacity="1.0"
     inkscape:pageopacity="0"
     inkscape:pageshadow="2"
     inkscape:zoom="0.82492985"
     inkscape:cx="561.25984"
     inkscape:cy="396.85039"
     inkscape:document-units="px"
     inkscape:current-layer="g909"
     showgrid="false"
     inkscape:window-width="1600"
     inkscape:window-height="851"
     inkscape:window-x="0"
     inkscape:window-y="25"
     inkscape:window-maximized="1"
     showguides="false">
    <sodipodi:guide
       position="0,0"
       orientation="0,1052.3622"
       id="guide4163"
       inkscape:locked="false" />
    <sodipodi:guide
       position="1052.3622,0"
       orientation="-744.09449,0"
       id="guide4165"
       inkscape:locked="false" />
    <sodipodi:guide
       position="1052.3622,744.09449"
       orientation="0,-1052.3622"
       id="guide4167"
       inkscape:locked="false" />
    <sodipodi:guide
       position="0,744.09449"
       orientation="744.09449,0"
       id="guide4169"
       inkscape:locked="false" />
    <sodipodi:guide
       position="-0.83367063,744.2915"
       orientation="372.04721,0"
       id="guide4173"
       inkscape:locked="false" />
    <sodipodi:guide
       position="-0.83367063,372.24429"
       orientation="0,526.18108"
       id="guide4175"
       inkscape:locked="false" />
    <sodipodi:guide
       position="525.34742,372.24429"
       orientation="-372.04721,0"
       id="guide4177"
       inkscape:locked="false" />
    <sodipodi:guide
       position="525.34742,744.2915"
       orientation="0,-526.18108"
       id="guide4179"
       inkscape:locked="false" />
  </sodipodi:namedview>
  <metadata
     id="metadata7">
    <rdf:RDF>
      <cc:Work
         rdf:about="">
        <dc:format>image/svg+xml</dc:format>
        <dc:type
           rdf:resource="http://purl.org/dc/dcmitype/StillImage" />
        <dc:title></dc:title>
      </cc:Work>
    </rdf:RDF>
  </metadata>
  <g
     inkscape:label="Layer 1"
     inkscape:groupmode="layer"
     id="layer1"
     transform="translate(0,-308.26772)">
    <g
       id="g909"
       transform="translate(2.2682993,86.345013)">
      <g
         id="g1657"
         transform="matrix(1.0915117,0,0,0.99935855,-38.667133,13.561293)"
         style="stroke-width:1.79525614;stroke-miterlimit:4;stroke-dasharray:none">
        <path
           sodipodi:nodetypes="cscsscc"
           inkscape:connector-curvature="0"
           id="path1655"
           d="m 122.82555,752.05046 c -69.027643,-7.75892 -74.427233,-34.94548 -74.396194,-70.24738 0.03103,-35.3019 5.354912,-65.49449 74.396174,-73.22319 263.33184,24.96417 531.67938,16.76892 779.38658,-0.002 46.10253,-3.12135 80.21677,32.78907 80.18577,68.09097 -0.031,35.3019 -12.44833,67.6499 -81.48958,75.3786 -250.47341,-24.10971 -508.6344,-27.36396 -778.08275,0.003"
           style="opacity:0.97000002;fill:none;fill-opacity:1;fill-rule:nonzero;stroke:#000000;stroke-width:1.79525614;stroke-linecap:round;stroke-linejoin:round;stroke-miterlimit:4;stroke-dasharray:none;stroke-dashoffset:0;stroke-opacity:1" />
      </g>
      <g
         style="fill:#ffffff;stroke-width:1.79525614;stroke-miterlimit:4;stroke-dasharray:none"
         transform="matrix(1.0915117,0,0,0.99935855,-38.667133,4.1862927)"
         id="g877">
        <path
           style="opacity:0.97000002;fill:#ffffff;fill-opacity:1;fill-rule:nonzero;stroke:#000000;stroke-width:1.79525614;stroke-linecap:round;stroke-linejoin:round;stroke-miterlimit:4;stroke-dasharray:none;stroke-dashoffset:0;stroke-opacity:1"
           d="m 122.82555,752.05046 c -69.027643,-7.75892 -74.427233,-34.94548 -74.396194,-70.24738 0.03103,-35.3019 5.354912,-65.49449 74.396174,-73.22319 263.33184,24.96417 531.67938,16.76892 779.38658,-0.002 46.10253,-3.12135 80.21677,32.78907 80.18577,68.09097 -0.031,35.3019 -12.44833,67.6499 -81.48958,75.3786 -250.47341,-24.10971 -508.6344,-27.36396 -778.08275,0.003"
           id="path872"
           inkscape:connector-curvature="0"
           sodipodi:nodetypes="cscsscc" />
      </g>
      <g
         transform="translate(-5.682323,350.69835)"
         id="g1765">
        <g
           id="g1759"
           transform="matrix(1.0915117,0,0,0.99935855,-32.98481,-346.51206)"
           style="fill:#ffffff;stroke:#2d3e69;stroke-width:1.79525614;stroke-miterlimit:4;stroke-dasharray:none;stroke-opacity:1">
          <path
             sodipodi:nodetypes="cscsscc"
             inkscape:connector-curvature="0"
             id="path1757"
             d="m 122.82555,752.05046 c -69.027643,-7.75892 -74.427233,-34.94548 -74.396194,-70.24738 0.03103,-35.3019 5.354912,-65.49449 74.396174,-73.22319 263.33184,24.96417 531.67938,16.76892 779.38658,-0.002 46.10253,-3.12135 80.21677,32.78907 80.18577,68.09097 -0.031,35.3019 -12.44833,67.6499 -81.48958,75.3786 -250.47341,-24.10971 -508.6344,-27.36396 -778.08275,0.003"
             style="opacity:0.97000002;fill:#ffffff;fill-opacity:1;fill-rule:nonzero;stroke:#2d3e69;stroke-width:1.79525614;stroke-linecap:round;stroke-linejoin:round;stroke-miterlimit:4;stroke-dasharray:none;stroke-dashoffset:0;stroke-opacity:1" />
        </g>
        <path
           style="opacity:0.97000002;fill:url(#linearGradient1767);fill-opacity:1;fill-rule:nonzero;stroke:#2d3e69;stroke-width:2.27292037;stroke-linecap:round;stroke-linejoin:round;stroke-miterlimit:4;stroke-dasharray:none;stroke-dashoffset:0;stroke-opacity:1"
           d="m 84.898203,401.50437 c -30.978687,-5.23438 -50.623092,-16.18245 -57.82267,-32.22524 -4.233776,-9.43411 -5.250875,-16.27265 -5.250875,-35.30461 0,-18.76011 2.178211,-30.24392 7.439392,-39.22145 8.998374,-15.35456 31.206854,-26.22876 61.918185,-30.31772 8.086548,-1.07666 14.962775,-0.88539 41.480795,1.15383 122.76563,9.4406 217.22129,12.79645 359.65618,12.77795 137.08476,-0.0178 253.12067,-3.43237 393.78348,-11.58779 21.87686,-1.26839 49.74855,-2.5977 61.93706,-2.95402 19.94981,-0.58322 23.08472,-0.41406 31.41853,1.69537 25.73942,6.51503 47.72572,25.07256 55.14112,46.54194 3.4276,9.92351 3.6772,29.99385 0.5054,40.63681 -8.021,26.91434 -30.3094,42.38959 -70.49202,48.94397 -13.38506,2.18328 -9.86981,2.3048 -67.14549,-2.32104 -253.27474,-20.45557 -530.90213,-19.63793 -773.09575,2.27684 -21.7892,1.97159 -27.322353,1.9583 -39.473337,-0.0948 z"
           id="path1761"
           inkscape:connector-curvature="0" />
        <path
           inkscape:connector-curvature="0"
           id="path1763"
           d="m 974.30568,401.50437 c 30.97872,-5.23438 50.62312,-16.18245 57.82262,-32.22524 4.2338,-9.43411 5.2509,-16.27264 5.2509,-35.30461 0,-18.7601 -2.1782,-30.24391 -7.4394,-39.22144 -8.9983,-15.35457 -31.20682,-26.22876 -61.91816,-30.31773 -8.08654,-1.07665 -14.96277,-0.88539 -41.48079,1.15383 -122.76563,9.44061 -217.22129,12.79645 -359.65618,12.77795 -137.08476,-0.0178 -253.12067,-3.43237 -393.78348,-11.58779 -21.87686,-1.26839 -49.74855,-2.59769 -61.93706,-2.95402 -19.949814,-0.58322 -23.08472,-0.41405 -31.418532,1.69537 -25.739438,6.51503 -47.725688,25.07257 -55.141125,46.54195 -3.427594,9.9235 -3.677157,29.99385 -0.505407,40.6368 8.020969,26.91435 30.309375,42.38959 70.492032,48.94397 13.385062,2.18328 9.869812,2.3048 67.145492,-2.32104 253.27474,-20.45557 530.90213,-19.63793 773.09575,2.27684 21.7892,1.97159 27.32235,1.9583 39.47334,-0.0948 z"
           style="opacity:0.97000002;fill:url(#linearGradient1769);fill-opacity:1;fill-rule:nonzero;stroke:#2d3e69;stroke-width:2.27292037;stroke-linecap:round;stroke-linejoin:round;stroke-miterlimit:4;stroke-dasharray:none;stroke-dashoffset:0;stroke-opacity:1" />
      </g>
      <rect
         style="opacity:0.97000002;fill:none;fill-opacity:1;fill-rule:nonzero;stroke:#787a79;stroke-width:8.34374996;stroke-linecap:round;stroke-linejoin:round;stroke-miterlimit:4;stroke-dasharray:none;stroke-dashoffset:0;stroke-opacity:1"
         id="rect883"
         width="57.540047"
         height="74.693176"
         x="366.29626"
         y="641.67566"
         rx="15.608784"
         ry="19.393801" />
      <g
         style="stroke-width:1.63158177;stroke-miterlimit:4;stroke-dasharray:none"
         transform="matrix(0,-0.99935855,-1.3214889,0,1380.5048,1204.8462)"
         id="g868" />
      <rect
         ry="19.393801"
         rx="15.608784"
         y="641.67566"
         x="618.5177"
         height="74.693176"
         width="57.540047"
         id="rect881"
         style="opacity:0.97000002;fill:none;fill-opacity:1;fill-rule:nonzero;stroke:#787a79;stroke-width:8.34374996;stroke-linecap:round;stroke-linejoin:round;stroke-miterlimit:4;stroke-dasharray:none;stroke-dashoffset:0;stroke-opacity:1" />
      <rect
         y="651.31042"
         x="404.4274"
         height="55.960411"
         width="58.108967"
         id="rect879"
         style="opacity:0.97000002;fill:#3a3b3d;fill-opacity:1;fill-rule:nonzero;stroke:#3a3b3d;stroke-width:1.875;stroke-linecap:round;stroke-linejoin:round;stroke-miterlimit:4;stroke-dasharray:none;stroke-dashoffset:0;stroke-opacity:1"
         rx="14.25" />
      <g
         style="stroke-width:1.79525614;stroke-miterlimit:4;stroke-dasharray:none;fill:#ffffff"
         transform="matrix(1.0915117,0,0,0.99935855,-38.667133,-164.56371)"
         id="g1661">
        <path
           style="opacity:0.97000002;fill:#ffffff;fill-opacity:1;fill-rule:nonzero;stroke:#000000;stroke-width:1.79525614;stroke-linecap:round;stroke-linejoin:round;stroke-miterlimit:4;stroke-dasharray:none;stroke-dashoffset:0;stroke-opacity:1"
           d="m 122.82555,752.05046 c -69.027643,-7.75892 -74.427233,-34.94548 -74.396194,-70.24738 0.03103,-35.3019 5.354912,-65.49449 74.396174,-73.22319 263.33184,24.96417 531.67938,16.76892 779.38658,-0.002 46.10253,-3.12135 80.21677,32.78907 80.18577,68.09097 -0.031,35.3019 -12.44833,67.6499 -81.48958,75.3786 -250.47341,-24.10971 -508.6344,-27.36396 -778.08275,0.003"
           id="path1659"
           inkscape:connector-curvature="0"
           sodipodi:nodetypes="cscsscc" />
      </g>
      <g
         id="g1755"
         transform="translate(-5.682323,172.57335)">
        <g
           style="fill:#ffffff;stroke:#2d3e69;stroke-width:1.79525614;stroke-miterlimit:4;stroke-dasharray:none;stroke-opacity:1"
           transform="matrix(1.0915117,0,0,0.99935855,-32.98481,-346.51206)"
           id="g891">
          <path
             style="opacity:0.97000002;fill:#ffffff;fill-opacity:1;fill-rule:nonzero;stroke:#2d3e69;stroke-width:1.79525614;stroke-linecap:round;stroke-linejoin:round;stroke-miterlimit:4;stroke-dasharray:none;stroke-dashoffset:0;stroke-opacity:1"
             d="m 122.82555,752.05046 c -69.027643,-7.75892 -74.427233,-34.94548 -74.396194,-70.24738 0.03103,-35.3019 5.354912,-65.49449 74.396174,-73.22319 263.33184,24.96417 531.67938,16.76892 779.38658,-0.002 46.10253,-3.12135 80.21677,32.78907 80.18577,68.09097 -0.031,35.3019 -12.44833,67.6499 -81.48958,75.3786 -250.47341,-24.10971 -508.6344,-27.36396 -778.08275,0.003"
             id="path889"
             inkscape:connector-curvature="0"
             sodipodi:nodetypes="cscsscc" />
        </g>
        <path
           inkscape:connector-curvature="0"
           id="path1713"
           d="m 84.898203,401.50437 c -30.978687,-5.23438 -50.623092,-16.18245 -57.82267,-32.22524 -4.233776,-9.43411 -5.250875,-16.27265 -5.250875,-35.30461 0,-18.76011 2.178211,-30.24392 7.439392,-39.22145 8.998374,-15.35456 31.206854,-26.22876 61.918185,-30.31772 8.086548,-1.07666 14.962775,-0.88539 41.480795,1.15383 122.76563,9.4406 217.22129,12.79645 359.65618,12.77795 137.08476,-0.0178 253.12067,-3.43237 393.78348,-11.58779 21.87686,-1.26839 49.74855,-2.5977 61.93706,-2.95402 19.94981,-0.58322 23.08472,-0.41406 31.41853,1.69537 25.73942,6.51503 47.72572,25.07256 55.14112,46.54194 3.4276,9.92351 3.6772,29.99385 0.5054,40.63681 -8.021,26.91434 -30.3094,42.38959 -70.49202,48.94397 -13.38506,2.18328 -9.86981,2.3048 -67.14549,-2.32104 -253.27474,-20.45557 -530.90213,-19.63793 -773.09575,2.27684 -21.7892,1.97159 -27.322353,1.9583 -39.473337,-0.0948 z"
           style="opacity:0.97000002;fill:url(#linearGradient1743);fill-opacity:1;fill-rule:nonzero;stroke:#2d3e69;stroke-width:2.27292037;stroke-linecap:round;stroke-linejoin:round;stroke-miterlimit:4;stroke-dasharray:none;stroke-dashoffset:0;stroke-opacity:1" />
        <path
           style="opacity:0.97000002;fill:url(#linearGradient1747);fill-opacity:1;fill-rule:nonzero;stroke:#2d3e69;stroke-width:2.27292037;stroke-linecap:round;stroke-linejoin:round;stroke-miterlimit:4;stroke-dasharray:none;stroke-dashoffset:0;stroke-opacity:1"
           d="m 974.30568,401.50437 c 30.97872,-5.23438 50.62312,-16.18245 57.82262,-32.22524 4.2338,-9.43411 5.2509,-16.27264 5.2509,-35.30461 0,-18.7601 -2.1782,-30.24391 -7.4394,-39.22144 -8.9983,-15.35457 -31.20682,-26.22876 -61.91816,-30.31773 -8.08654,-1.07665 -14.96277,-0.88539 -41.48079,1.15383 -122.76563,9.44061 -217.22129,12.79645 -359.65618,12.77795 -137.08476,-0.0178 -253.12067,-3.43237 -393.78348,-11.58779 -21.87686,-1.26839 -49.74855,-2.59769 -61.93706,-2.95402 -19.949814,-0.58322 -23.08472,-0.41405 -31.418532,1.69537 -25.739438,6.51503 -47.725688,25.07257 -55.141125,46.54195 -3.427594,9.9235 -3.677157,29.99385 -0.505407,40.6368 8.020969,26.91435 30.309375,42.38959 70.492032,48.94397 13.385062,2.18328 9.869812,2.3048 67.145492,-2.32104 253.27474,-20.45557 530.90213,-19.63793 773.09575,2.27684 21.7892,1.97159 27.32235,1.9583 39.47334,-0.0948 z"
           id="path1745"
           inkscape:connector-curvature="0" />
      </g>
      <rect
         ry="19.393801"
         rx="15.608784"
         y="469.17566"
         x="366.29626"
         height="74.693176"
         width="57.540047"
         id="rect885"
         style="opacity:0.97000002;fill:none;fill-opacity:1;fill-rule:nonzero;stroke:#787a79;stroke-width:8.34374996;stroke-linecap:round;stroke-linejoin:round;stroke-miterlimit:4;stroke-dasharray:none;stroke-dashoffset:0;stroke-opacity:1" />
      <g
         id="g887"
         transform="matrix(0,-0.99935855,-1.3214889,0,1380.5048,1032.3462)"
         style="stroke-width:1.63158177;stroke-miterlimit:4;stroke-dasharray:none" />
      <rect
         style="opacity:0.97000002;fill:none;fill-opacity:1;fill-rule:nonzero;stroke:#787a79;stroke-width:8.34374996;stroke-linecap:round;stroke-linejoin:round;stroke-miterlimit:4;stroke-dasharray:none;stroke-dashoffset:0;stroke-opacity:1"
         id="rect893"
         width="57.540047"
         height="74.693176"
         x="618.5177"
         y="469.17566"
         rx="15.608784"
         ry="19.393801" />
      <rect
         style="opacity:0.97000002;fill:#3a3b3d;fill-opacity:1;fill-rule:nonzero;stroke:#3a3b3d;stroke-width:1.875;stroke-linecap:round;stroke-linejoin:round;stroke-miterlimit:4;stroke-dasharray:none;stroke-dashoffset:0;stroke-opacity:1"
         id="rect895"
         width="44.27943"
         height="55.718498"
         x="597.3222"
         y="478.55688"
         ry="11.25" />
      <rect
         y="478.06146"
         x="404.4274"
         height="55.960411"
         width="58.108967"
         id="rect1651"
         style="opacity:0.97000002;fill:#3a3b3d;fill-opacity:1;fill-rule:nonzero;stroke:#3a3b3d;stroke-width:1.875;stroke-linecap:round;stroke-linejoin:round;stroke-miterlimit:4;stroke-dasharray:none;stroke-dashoffset:0;stroke-opacity:1"
         rx="14.25" />
      <rect
         y="652.93188"
         x="597.3222"
         height="55.718498"
         width="44.27943"
         id="rect1653"
         style="opacity:0.97000002;fill:#3a3b3d;fill-opacity:1;fill-rule:nonzero;stroke:#3a3b3d;stroke-width:1.875;stroke-linecap:round;stroke-linejoin:round;stroke-miterlimit:4;stroke-dasharray:none;stroke-dashoffset:0;stroke-opacity:1"
         ry="11.25" />
      <path
         style="opacity:0.97000002;fill:#2a2d34;fill-opacity:1;fill-rule:nonzero;stroke:#2a2d34;stroke-width:7.62883043;stroke-linecap:round;stroke-linejoin:round;stroke-miterlimit:4;stroke-dasharray:none;stroke-dashoffset:0;stroke-opacity:1"
         d="m 95.558289,386.98994 c -31.959216,-3.95659 -54.950383,-13.48536 -65.485326,-27.1406 -3.247848,-4.20981 -11.231569,-19.98352 -11.231569,-22.13125 0,-0.53194 5.302322,8.55437 7.592318,11.81056 10.888274,15.48223 32.60401,25.15567 67.14171,29.90879 9.715478,1.33705 10.762258,1.31307 34.715468,-0.79542 97.19592,-8.5557 181.32136,-13.36501 295.99287,-16.9214 45.43122,-1.40899 208.37207,-1.41158 255.00867,-0.004 112.7512,3.40292 200.8222,8.24064 300.34116,16.49767 l 31.18911,2.58775 12.9552,-1.8106 c 31.7622,-4.43904 52.4046,-11.73019 63.7427,-22.51466 1.5322,-1.45739 6.2145,-9.94967 6.2145,-9.44285 0,1.7059 -15.2444,19.80064 -21.2422,23.36388 -12.6693,7.52672 -30.6415,13.18859 -51.2801,16.15506 -10.382,1.49223 -11.0071,1.48515 -33.10333,-0.37491 -92.50308,-7.78694 -179.92328,-12.8288 -288.6735,-16.64894 -41.20624,-1.44747 -206.78581,-2.01289 -255.54316,-0.87261 -111.945,2.61802 -223.14235,8.78082 -323.90512,17.9515 -13.44344,1.22353 -17.16268,1.28169 -24.429401,0.38206 z"
         id="path1771"
         inkscape:connector-curvature="0"
         transform="matrix(0.9375,0,0,0.9375,-2.2682993,221.92271)"
         sodipodi:nodetypes="csssssscscscsscsssscc" />
      <path
         style="opacity:0.97000002;fill:#2a2d34;fill-opacity:1;fill-rule:nonzero;stroke:#2a2d34;stroke-width:7.62883043;stroke-linecap:round;stroke-linejoin:round;stroke-miterlimit:4;stroke-dasharray:none;stroke-dashoffset:0;stroke-opacity:1"
         d="m 91.927364,576.58494 c -39.427611,-6.16378 -60.338192,-17.81158 -68.259315,-38.02243 -1.950884,-4.97771 -6.414412,-16.49492 -3.7096,-11.93214 1.200381,2.02494 9.572528,17.02799 12.318843,19.72061 11.580352,11.35393 30.383432,18.50422 60.369482,22.95683 9.973506,1.48097 11.767276,1.51198 23.355166,0.40378 80.47772,-7.69644 186.46232,-14.01109 297.56717,-17.7293 43.97931,-1.47181 232.7155,-1.46863 276.86655,0.005 113.77283,3.79652 204.26864,8.97574 301.22328,17.23951 10.17596,0.86734 19.85196,1.41307 21.50196,1.21274 35.759,-4.34139 55.3109,-10.09061 70.1865,-20.63829 7.2554,-5.14455 7.8675,-6.61283 0,0 -14.1125,11.86204 -36.1474,19.96341 -63.8979,23.49274 -6.6565,0.84656 -12.9334,4.45411 -35.86101,2.5451 C 830.6719,563.10656 704.48554,557.85055 551.5738,557.84414 c -150.68961,-0.006 -276.16487,5.26818 -416.48738,17.50753 -31.99653,2.79084 -33.01048,2.81981 -43.159056,1.23327 z"
         id="path1773"
         inkscape:connector-curvature="0"
         transform="matrix(0.9375,0,0,0.9375,-2.2682993,221.92271)"
         sodipodi:nodetypes="sssscsscsccccccss" />
    </g>
  </g>
</svg>
