<?xml version="1.0" encoding="UTF-8" standalone="no"?>
<!-- Created with Inkscape (http://www.inkscape.org/) -->

<!-- 
Artwork by John Samuel. 
This work is licensed under a Creative Commons Attribution-ShareAlike 4.0 International License. 
-->

<svg
   xmlns:osb="http://www.openswatchbook.org/uri/2009/osb"
   xmlns:dc="http://purl.org/dc/elements/1.1/"
   xmlns:cc="http://creativecommons.org/ns#"
   xmlns:rdf="http://www.w3.org/1999/02/22-rdf-syntax-ns#"
   xmlns:svg="http://www.w3.org/2000/svg"
   xmlns="http://www.w3.org/2000/svg"
   xmlns:sodipodi="http://sodipodi.sourceforge.net/DTD/sodipodi-0.dtd"
   xmlns:inkscape="http://www.inkscape.org/namespaces/inkscape"
   width="297mm"
   height="210mm"
   viewBox="0 0 1052.3622 744.09448"
   id="svg2"
   version="1.1"
   inkscape:version="0.91 r13725"
   sodipodi:docname="apple-ellipse-tilted-union.svg">
  <defs
     id="defs4">
    <linearGradient
       id="linearGradient4737"
       osb:paint="solid">
      <stop
         style="stop-color:#ffffff;stop-opacity:1;"
         offset="0"
         id="stop4739" />
    </linearGradient>
  </defs>
  <sodipodi:namedview
     id="base"
     pagecolor="#ffffff"
     bordercolor="#666666"
     borderopacity="1.0"
     inkscape:pageopacity="0.0"
     inkscape:pageshadow="2"
     inkscape:zoom="0.89702955"
     inkscape:cx="526.1811"
     inkscape:cy="372.04724"
     inkscape:document-units="px"
     inkscape:current-layer="layer1"
     showgrid="false"
     inkscape:window-width="1600"
     inkscape:window-height="847"
     inkscape:window-x="0"
     inkscape:window-y="0"
     inkscape:window-maximized="1"
     showguides="false"
     inkscape:guide-bbox="true">
    <sodipodi:guide
       position="531.9623,469.95441"
       orientation="1,0"
       id="guide4174" />
    <sodipodi:guide
       position="666.85662,401.41939"
       orientation="0,1"
       id="guide4176" />
    <inkscape:grid
       type="xygrid"
       id="grid5406" />
  </sodipodi:namedview>
  <metadata
     id="metadata7">
    <rdf:RDF>
      <cc:Work
         rdf:about="">
        <dc:format>image/svg+xml</dc:format>
        <dc:type
           rdf:resource="http://purl.org/dc/dcmitype/StillImage" />
        <dc:title></dc:title>
      </cc:Work>
    </rdf:RDF>
  </metadata>
  <g
     inkscape:label="Layer 1"
     inkscape:groupmode="layer"
     id="layer1"
     transform="translate(0,-308.26772)">
    <path
       style="fill:none;fill-rule:evenodd;stroke:#4f2800;stroke-width:3.32200003;stroke-linecap:butt;stroke-linejoin:miter;stroke-miterlimit:4;stroke-dasharray:none;stroke-opacity:1"
       d="m 491.32461,592.62994 c -0.17504,-169.86872 45.4979,-178.26921 49.05721,-180.93869"
       id="path5987"
       inkscape:connector-curvature="0"
       sodipodi:nodetypes="cc" />
    <path
       style="fill:none;fill-rule:evenodd;stroke:#4f2800;stroke-width:3.322;stroke-linecap:butt;stroke-linejoin:miter;stroke-miterlimit:4;stroke-dasharray:none;stroke-opacity:1"
       d="m 518.70341,389.18608 40.25073,40.25073"
       id="path5989"
       inkscape:connector-curvature="0" />
    <path
       style="fill:#65c800;fill-opacity:1;fill-rule:evenodd;stroke:#65c800;stroke-width:3.32200003;stroke-linecap:butt;stroke-linejoin:miter;stroke-miterlimit:4;stroke-dasharray:none;stroke-opacity:1"
       d="m 520.87913,493.62039 c 15.41473,-103.64261 282.99994,-68.66776 285.01865,-63.09573 0.96208,4.16905 -199.83798,111.29404 -285.01865,63.09573 z"
       id="path5995"
       inkscape:connector-curvature="0"
       sodipodi:nodetypes="ccc" />
    <path
       style="fill:none;fill-rule:evenodd;stroke:#c16100;stroke-width:3.322;stroke-linecap:butt;stroke-linejoin:miter;stroke-miterlimit:4;stroke-dasharray:none;stroke-opacity:1"
       d="m 492.59483,518.64111 c 55.48073,-69.62288 308.95151,-89.2043 308.95151,-89.2043"
       id="path5993"
       inkscape:connector-curvature="0"
       sodipodi:nodetypes="cc" />
    <path
       sodipodi:nodetypes="cc"
       inkscape:connector-curvature="0"
       id="path8626"
       d="m 482.68498,591.51515 c 0,-170 59.67573,-179.89152 59.67573,-179.89152"
       style="fill:none;fill-rule:evenodd;stroke:#4f2800;stroke-width:3.32200003;stroke-linecap:butt;stroke-linejoin:miter;stroke-miterlimit:4;stroke-dasharray:none;stroke-opacity:1" />
    <path
       style="opacity:0.98999999;fill:#c16100;fill-opacity:1;stroke:#4f2800;stroke-width:1.30932629;stroke-linecap:round;stroke-linejoin:round;stroke-miterlimit:4;stroke-dasharray:none;stroke-dashoffset:0;stroke-opacity:1"
       d="m 485.48988,284.99949 c -1.10809,-1.0011 -1.4694,-1.5666 -1.18355,-1.85245 0.26347,-0.26347 0.41167,-3.89161 0.41205,-10.08754 0.002,-40.44414 5.60351,-81.95806 14.92443,-110.61748 1.81819,-5.59048 5.5736,-15.26017 5.82784,-15.00593 0.0968,0.0968 -0.54963,2.53937 -1.43652,5.42792 -4.14374,13.49575 -7.40765,29.28225 -9.83911,47.58854 -0.73702,5.54899 -0.89928,6.16048 -1.98383,7.47622 l -1.18115,1.43295 0.9774,0.80067 0.97741,0.80067 -0.56494,5.32087 c -1.41117,13.29097 -2.43498,32.88731 -2.81077,53.79983 -0.25066,13.94926 -0.29712,14.62164 -1.06885,15.46991 -0.44374,0.48775 -0.95274,0.88681 -1.1311,0.88681 -0.17837,0 -1.04205,-0.64845 -1.91931,-1.44099 z"
       id="path8630"
       inkscape:connector-curvature="0"
       transform="translate(0,308.26772)" />
    <path
       style="opacity:0.98999999;fill:#7c3e00;fill-opacity:1;stroke:#8d4700;stroke-width:1.30932629;stroke-linecap:round;stroke-linejoin:round;stroke-miterlimit:4;stroke-dasharray:none;stroke-dashoffset:0;stroke-opacity:1"
       d="m 485.57525,285.79337 c -0.72066,-0.56788 -1.45923,-1.42424 -1.64126,-1.90302 -0.26709,-0.70249 -0.56573,-0.83606 -1.54721,-0.69201 l -1.21623,0.17851 0.004,-5.6612 c 0.0126,-19.08238 1.80615,-46.96143 4.15501,-64.58483 4.14913,-31.13079 10.52553,-54.36956 20.33147,-74.09793 8.15005,-16.39693 18.65932,-28.64804 29.83768,-34.78308 l 2.89978,-1.59149 -10.30039,-10.305896 -10.30038,-10.305892 0.98813,-0.928305 0.98814,-0.928304 19.91514,19.617176 c 10.95333,10.789451 19.91514,19.805331 19.91514,20.035301 0,0.22997 -0.39141,0.83477 -0.86979,1.34398 l -0.8698,0.92586 -8.34012,-8.33335 c -9.57261,-9.56485 -8.52554,-9.09588 -13.60821,-6.09487 -17.66767,10.4317 -30.80114,40.96745 -37.61306,87.45159 -0.53505,3.65112 -0.97282,6.90459 -0.97282,7.22992 0,0.33652 1.23182,-0.55141 2.8575,-2.05977 3.68567,-3.41968 10.95029,-8.8449 16.78159,-12.53248 40.87004,-25.84531 119.62737,-47.47815 223.34696,-61.34833 19.84637,-2.65401 60.25509,-7.08574 60.67923,-6.65485 0.0796,0.0809 0.26404,0.78564 0.40979,1.56609 l 0.26501,1.41899 -3.67856,0.27319 c -23.79953,1.76747 -70.9811,7.87822 -103.78961,13.44238 -98.56208,16.71563 -165.55752,40.25123 -194.4628,68.31508 -3.59237,3.4878 -3.13025,1.82945 -4.35728,15.63654 -1.57688,17.74374 -2.38152,35.39586 -2.38501,52.32182 l -0.002,11.33146 -1.77362,0 c -1.4612,0 -1.77362,0.1281 -1.77362,0.72719 0,0.83889 -1.17981,2.03382 -2.00173,2.02741 -0.30809,-0.002 -1.14981,-0.469 -1.87047,-1.03688 z m 20.83078,-138.97626 c 0.006,-0.27097 0.71005,-2.25676 1.56488,-4.41287 0.85484,-2.15611 1.4779,-3.99654 1.38459,-4.08985 -0.27911,-0.27911 -4.15162,8.26769 -3.91761,8.64634 0.31974,0.51734 0.95589,0.42297 0.96814,-0.14362 z"
       id="path8632"
       inkscape:connector-curvature="0"
       transform="translate(0,308.26772)" />
    <path
       style="opacity:1;fill:#ff0c0c;fill-opacity:1;stroke:#ff0000;stroke-width:2.78699994;stroke-linecap:round;stroke-linejoin:round;stroke-miterlimit:4;stroke-dasharray:none;stroke-dashoffset:0;stroke-opacity:1"
       d="m 376.72095,551.27215 a 214.43166,157.46379 72.641406 0 0 -31.13282,5.2539 214.43166,157.46379 72.641406 0 0 -86.3164,251.64649 214.43166,157.46379 72.641406 0 0 214.26758,157.68551 214.43166,157.46379 72.641406 0 0 13.80664,-5.5156 157.46379,214.43166 17.358594 0 0 13.80468,5.5156 157.46379,214.43166 17.358594 0 0 214.26953,-157.68551 157.46379,214.43166 17.358594 0 0 -86.3164,-251.64649 157.46379,214.43166 17.358594 0 0 -141.75781,40.4961 214.43166,157.46379 72.641406 0 0 -110.625,-45.75 z"
       id="path4170"
       inkscape:connector-curvature="0" />
  </g>
</svg>
