<?xml version="1.0" encoding="UTF-8" standalone="no"?>
<!-- Created with Inkscape (http://www.inkscape.org/) -->

<!-- 
Artwork by John Samuel. 
This work is licensed under a Creative Commons Attribution-ShareAlike 4.0 International License. 
-->

<svg
   xmlns:osb="http://www.openswatchbook.org/uri/2009/osb"
   xmlns:dc="http://purl.org/dc/elements/1.1/"
   xmlns:cc="http://creativecommons.org/ns#"
   xmlns:rdf="http://www.w3.org/1999/02/22-rdf-syntax-ns#"
   xmlns:svg="http://www.w3.org/2000/svg"
   xmlns="http://www.w3.org/2000/svg"
   xmlns:sodipodi="http://sodipodi.sourceforge.net/DTD/sodipodi-0.dtd"
   xmlns:inkscape="http://www.inkscape.org/namespaces/inkscape"
   sodipodi:docname="boat.svg"
   inkscape:version="0.91 r13725"
   version="1.1"
   id="svg2"
   viewBox="0 0 1052.3622 744.09448"
   height="210mm"
   width="297mm">
  <sodipodi:namedview
     showguides="false"
     inkscape:window-maximized="1"
     inkscape:window-y="0"
     inkscape:window-x="0"
     inkscape:window-height="847"
     inkscape:window-width="1600"
     showgrid="false"
     inkscape:current-layer="layer1"
     inkscape:document-units="px"
     inkscape:cy="372.04724"
     inkscape:cx="526.1811"
     inkscape:zoom="0.89702955"
     inkscape:pageshadow="2"
     inkscape:pageopacity="0.0"
     borderopacity="1.0"
     bordercolor="#666666"
     pagecolor="#ffffff"
     id="base"
     inkscape:guide-bbox="true">
    <sodipodi:guide
       position="0,0"
       orientation="0,1052.3622"
       id="guide4163" />
    <sodipodi:guide
       position="1052.3622,0"
       orientation="-744.09449,0"
       id="guide4165" />
    <sodipodi:guide
       position="1052.3622,744.09449"
       orientation="0,-1052.3622"
       id="guide4167" />
    <sodipodi:guide
       position="0,744.09449"
       orientation="744.09449,0"
       id="guide4169" />
    <sodipodi:guide
       position="-0.83367063,744.2915"
       orientation="372.04721,0"
       id="guide4173" />
    <sodipodi:guide
       position="-0.83367063,372.24429"
       orientation="0,526.18108"
       id="guide4175" />
    <sodipodi:guide
       position="525.34742,372.24429"
       orientation="-372.04721,0"
       id="guide4177" />
    <sodipodi:guide
       position="525.34742,744.2915"
       orientation="0,-526.18108"
       id="guide4179" />
    <inkscape:grid
       type="xygrid"
       id="grid9321" />
    <sodipodi:guide
       id="guide7490"
       orientation="-0.67962021,0.73356416"
       position="525.34742,0" />
    <sodipodi:guide
       id="guide7492"
       orientation="-0.67403535,-0.73869909"
       position="525.34742,0" />
  </sodipodi:namedview>
  <defs
     id="defs4">
    <linearGradient
       id="linearGradient4824"
       osb:paint="solid">
      <stop
         style="stop-color:#000000;stop-opacity:1;"
         offset="0"
         id="stop4826" />
    </linearGradient>
  </defs>
  <metadata
     id="metadata7">
    <rdf:RDF>
      <cc:Work
         rdf:about="">
        <dc:format>image/svg+xml</dc:format>
        <dc:type
           rdf:resource="http://purl.org/dc/dcmitype/StillImage" />
        <dc:title></dc:title>
      </cc:Work>
    </rdf:RDF>
  </metadata>
  <g
     inkscape:label="Layer 1"
     inkscape:groupmode="layer"
     id="layer1"
     transform="translate(0,-308.26772)">
    <path
       sodipodi:nodetypes="cc"
       inkscape:connector-curvature="0"
       id="path8072"
       d="m 35.580806,598.45596 c 489.766604,-96.99403 978.445694,0.91031 978.565594,1.052"
       style="fill:none;fill-rule:evenodd;stroke:#55473c;stroke-width:1.5;stroke-linecap:butt;stroke-linejoin:miter;stroke-opacity:1;stroke-miterlimit:4;stroke-dasharray:none" />
    <path
       style="opacity:0.98999999;fill:#ffffff;fill-opacity:1;stroke:#a46510;stroke-width:1.5;stroke-linecap:round;stroke-linejoin:round;stroke-miterlimit:4;stroke-dasharray:none;stroke-dashoffset:0;stroke-opacity:1"
       d="m 245.16045,589.93725 -30.15177,-0.0527 -60.42437,31.68162 m 30.66999,6.80634 59.90615,-38.43523"
       id="path8336"
       inkscape:connector-curvature="0"
       sodipodi:nodetypes="ccccc" />
    <path
       style="opacity:0.98999999;fill:#ffffff;fill-opacity:1;stroke:#a46510;stroke-width:1.5;stroke-linecap:round;stroke-linejoin:round;stroke-miterlimit:4;stroke-dasharray:none;stroke-dashoffset:0;stroke-opacity:1"
       d="m 397.52115,588.20373 -29.98518,-0.0524 -55.55483,58.85361 m 37.244,3.79892 48.29601,-62.60009"
       id="path8334"
       inkscape:connector-curvature="0"
       sodipodi:nodetypes="ccccc" />
    <path
       style="opacity:0.98999999;fill:#ffffff;fill-opacity:1;stroke:#a46510;stroke-width:1.5;stroke-linecap:round;stroke-linejoin:round;stroke-miterlimit:4;stroke-dasharray:none;stroke-dashoffset:0;stroke-opacity:1"
       d="m 822.09477,590.94282 29.4936,0.0516 59.48879,34.42468 m -28.61911,5.84267 -60.36328,-40.31894"
       id="path8332"
       inkscape:connector-curvature="0"
       sodipodi:nodetypes="ccccc" />
    <path
       style="opacity:0.98999999;fill:#ffffff;fill-opacity:1;stroke:#a46510;stroke-width:1.5;stroke-linecap:round;stroke-linejoin:round;stroke-miterlimit:4;stroke-dasharray:none;stroke-dashoffset:0;stroke-opacity:1"
       d="m 670.07209,588.68043 29.65611,0.0519 57.22621,61.50561 m -41.16892,0.80585 -45.7134,-62.36333"
       id="path8330"
       inkscape:connector-curvature="0"
       sodipodi:nodetypes="ccccc" />
    <path
       style="opacity:0.98999999;fill:#ffffff;fill-opacity:1;stroke:#a46510;stroke-width:1.5;stroke-linecap:round;stroke-linejoin:round;stroke-miterlimit:4;stroke-dasharray:none;stroke-dashoffset:0;stroke-opacity:1"
       d="m 511.22143,584.41659 29.81997,0.0522 5.44616,74.51777 m -41.95029,-1.20079 6.68416,-73.36914"
       id="rect8100"
       inkscape:connector-curvature="0"
       sodipodi:nodetypes="ccccc" />
    <path
       sodipodi:nodetypes="cccc"
       inkscape:connector-curvature="0"
       id="path8342"
       d="m 670.07209,598.68043 0.11416,-8.30903 m 41.69747,63.42625 -41.81163,-55.11719"
       style="opacity:0.98999999;fill:#ffffff;fill-opacity:1;stroke:#a46510;stroke-width:1.5;stroke-linecap:round;stroke-linejoin:round;stroke-miterlimit:4;stroke-dasharray:none;stroke-dashoffset:0;stroke-opacity:1" />
    <path
       sodipodi:nodetypes="cccc"
       inkscape:connector-curvature="0"
       id="path8344"
       d="m 397.52115,596.20373 0.11416,-6.74114 m -43.95101,62.65253 43.83685,-55.91135"
       style="opacity:0.98999999;fill:#ffffff;fill-opacity:1;stroke:#a46510;stroke-width:1.5;stroke-linecap:round;stroke-linejoin:round;stroke-miterlimit:4;stroke-dasharray:none;stroke-dashoffset:0;stroke-opacity:1" />
    <path
       sodipodi:nodetypes="cccc"
       inkscape:connector-curvature="0"
       id="path8348"
       d="m 245.16045,595.93725 0.50497,-5.62665 m -54.27977,40.16014 53.7748,-34.53346"
       style="opacity:0.98999999;fill:#ffffff;fill-opacity:1;stroke:#a46510;stroke-width:1.5;stroke-linecap:round;stroke-linejoin:round;stroke-miterlimit:4;stroke-dasharray:none;stroke-dashoffset:0;stroke-opacity:1" />
    <path
       sodipodi:nodetypes="cccc"
       inkscape:connector-curvature="0"
       id="path8350"
       d="m 822.09477,596.94282 0.50905,-5.52235 m 53.72288,41.38214 -54.23193,-35.85978"
       style="opacity:0.98999999;fill:#ffffff;fill-opacity:1;stroke:#a46510;stroke-width:1.5;stroke-linecap:round;stroke-linejoin:round;stroke-miterlimit:4;stroke-dasharray:none;stroke-dashoffset:0;stroke-opacity:1" />
    <path
       style="opacity:0.98999999;fill:#a46510;fill-opacity:1;stroke:#a46510;stroke-width:1.71170151;stroke-linecap:round;stroke-linejoin:round;stroke-miterlimit:4;stroke-dasharray:none;stroke-dashoffset:0;stroke-opacity:1"
       d="m 331.25569,647.08345 c -7.70236,-0.8679 -16.08137,-1.72771 -16.54668,-1.91068 -0.46532,-0.18297 12.797,-13.15701 27.39849,-28.83121 l 26.54816,-28.49852 13.60328,0 c 10.72625,0 13.36632,0.3044 12.48287,1.43932 -0.61623,0.79162 -10.90883,14.3932 -22.87245,30.22571 -15.67081,20.73858 -20.1692,28.83769 -21.91889,28.96989 -1.33577,0.10091 -10.99242,-0.52661 -18.69478,-1.39451 z"
       id="path8373"
       inkscape:connector-curvature="0"
       sodipodi:nodetypes="scscscsss" />
    <path
       style="opacity:0.98999999;fill:#a46510;fill-opacity:1;stroke:#a46510;stroke-width:1.67218566;stroke-linecap:round;stroke-linejoin:round;stroke-miterlimit:4;stroke-dasharray:none;stroke-dashoffset:0;stroke-opacity:1"
       d="m 510.07238,349.83118 c -2.29926,-0.24051 -4.18455,-0.78325 -4.18955,-1.20609 -0.0249,-2.10675 5.71149,-64.80795 6.21522,-67.93493 l 0.58364,-3.62306 13.6349,0 13.6349,0 2.50716,35.39459 c 1.37893,19.46703 2.4945,36.02167 2.47904,36.78809 -0.0213,1.05515 -3.74984,1.34799 -15.35648,1.20609 -8.4306,-0.10307 -17.20957,-0.38418 -19.50883,-0.62469 z"
       id="path8375"
       inkscape:connector-curvature="0"
       transform="translate(0,308.26772)" />
    <path
       style="opacity:0.98999999;fill:#a46510;fill-opacity:1;stroke:#a46510;stroke-width:1.70854771;stroke-linecap:round;stroke-linejoin:round;stroke-miterlimit:4;stroke-dasharray:none;stroke-dashoffset:0;stroke-opacity:1"
       d="m 694.56151,621.41646 c -11.93819,-16.26711 -22.11691,-30.299 -22.61936,-31.18196 -0.76534,-1.34489 1.27383,-1.59929 12.56651,-1.56778 l 13.48008,0.0376 27.12378,29.1195 c 14.91808,16.01573 26.92823,29.3139 26.68922,29.5515 -0.48734,0.48446 -29.68893,3.68473 -33.24961,3.6439 -1.65834,-0.019 -8.23632,-8.13577 -23.99062,-29.60276 z"
       id="path8377"
       inkscape:connector-curvature="0" />
    <path
       style="opacity:0.98999999;fill:#a46510;fill-opacity:1;stroke:#a46510;stroke-width:1.67218566;stroke-linecap:round;stroke-linejoin:round;stroke-miterlimit:4;stroke-dasharray:none;stroke-dashoffset:0;stroke-opacity:1"
       d="m 854.8176,303.12919 c -14.40661,-9.57811 -26.67042,-17.85543 -27.25289,-18.39405 -0.61358,-0.56737 4.07564,-0.97659 11.1479,-0.97285 l 12.20696,0.006 27.49228,15.87931 c 15.12075,8.73362 27.3599,16.01433 27.19811,16.17935 -0.28028,0.28589 -22.85859,4.71651 -24.03518,4.71651 -0.30984,0 -12.35057,-7.83663 -26.75718,-17.41473 z"
       id="path8379"
       inkscape:connector-curvature="0"
       transform="translate(0,308.26772)" />
    <path
       style="opacity:0.98999999;fill:#a46510;fill-opacity:1;stroke:#a46510;stroke-width:1.7229867;stroke-linecap:round;stroke-linejoin:round;stroke-miterlimit:4;stroke-dasharray:none;stroke-dashoffset:0;stroke-opacity:1"
       d="m 171.51623,624.92443 c -7.30036,-1.34318 -13.51085,-2.70363 -13.8011,-3.02323 -0.29023,-0.3196 12.93882,-7.78928 29.39792,-16.59932 l 29.92562,-16.01824 12.5405,0.32911 12.54051,0.32912 -25.70324,16.85129 c -14.13678,9.2682 -27.03605,17.68876 -28.66503,18.71234 -2.7417,1.72278 -3.9481,1.6796 -16.23518,-0.58107 z"
       id="path8381"
       inkscape:connector-curvature="0" />
    <path
       style="opacity:0.98999999;fill:#4e3109;fill-opacity:1;stroke:#4e3109;stroke-width:1.67218566;stroke-linecap:round;stroke-linejoin:round;stroke-miterlimit:4;stroke-dasharray:none;stroke-dashoffset:0;stroke-opacity:1"
       d="m 545.01363,313.57648 c -1.43529,-20.38673 -2.82795,-37.44302 -3.09481,-37.90287 -0.26686,-0.45985 -7.45604,-0.83609 -15.97595,-0.83609 l -15.49076,0 -0.58365,3.62306 c -0.6533,4.0555 -6.22942,66.06549 -6.21521,69.11701 0.008,1.71017 -1.19451,1.95068 -9.74533,1.94921 -24.06141,-0.004 -134.31087,-6.75972 -136.04523,-8.33622 -0.17571,-0.15972 9.00813,-12.14915 20.40854,-26.64317 20.22879,-25.71809 20.71976,-26.46663 20.3857,-31.08045 l -0.34229,-4.72768 -15.34746,-0.31028 c -14.72366,-0.29767 -15.44863,-0.20667 -17.83665,2.23887 -1.36906,1.40204 -13.72069,14.4593 -27.44808,29.01614 -22.27625,23.62225 -23.66275,27.02438 -26.78541,27.02438 -8.65993,0 -113.80826,-14.92525 -113.79601,-16.12599 0.003,-0.32773 10.99502,-7.61905 24.42595,-16.20294 21.7196,-13.88128 24.47784,-15.97688 24.94397,-18.95144 0.28826,-1.8394 0.30339,-3.72061 0.0337,-4.18046 -0.26977,-0.45985 -7.54195,-0.83609 -16.16041,-0.83609 l -15.66995,0 -30.24937,15.80769 c -16.63715,8.69423 -30.50195,16.17399 -30.81065,16.62169 -0.59909,0.86884 -47.11367,-7.7307 -87.439478,-16.16565 -13.451737,-2.81371 -24.948014,-5.11583 -25.547282,-5.11583 -9.256741,0 54.993262,-11.54474 101.84274,-18.29958 82.88275,-11.95018 171.29096,-19.63563 264.20534,-22.96774 41.81771,-1.49967 155.96741,-1.52015 196.76052,-0.0353 96.87098,3.52605 182.32603,10.19504 272.07763,21.23316 51.95311,6.38947 125.65596,17.5717 131.47646,19.94768 2.444,0.99766 -35.57648,10.64208 -75.24829,19.08775 l -21.73842,4.62786 -28.98373,-16.81347 -28.98373,-16.81347 -15.32919,0 -15.32919,0 0.004,4.18046 0.004,4.18047 24.69151,16.16278 24.69153,16.16279 -6.02333,1.3266 c -9.39303,2.06875 -54.84903,8.9413 -83.04421,12.55556 l -25.53966,3.27388 -3.90177,-4.34063 c -2.14597,-2.38735 -14.6755,-15.90357 -27.8434,-30.03606 l -23.94163,-25.69543 -15.91213,0 -15.91213,0 0,5.64942 c 0,5.5993 0.17759,5.88368 20.01516,32.05023 l 20.01516,26.4008 -5.24418,0.74489 c -15.33892,2.17875 -109.79923,6.44855 -143.51487,6.48716 l -12.29935,0.0141 -2.60961,-37.06679 z"
       id="path8383"
       inkscape:connector-curvature="0"
       sodipodi:nodetypes="csscscsssscsssscsscscsssssssssscccccccccsscsscccsscssccc"
       transform="translate(0,308.26772)" />
    <path
       style="opacity:0.98999999;fill:#82520f;fill-opacity:1;stroke:#82520f;stroke-width:0.41804641;stroke-linecap:round;stroke-linejoin:round;stroke-miterlimit:4;stroke-dasharray:none;stroke-dashoffset:0;stroke-opacity:1"
       d="m 352.96134,341.38988 c -0.80474,-0.0463 -1.46316,-0.14668 -1.46316,-0.22298 0,-0.0763 10.12717,-13.26677 22.50483,-29.31215 l 22.50483,-29.1734 0.0808,2.44783 0.0807,2.44783 -1.89015,2.42316 c -1.03958,1.33274 -10.54468,13.45959 -21.12242,26.94855 l -19.23227,24.5254 -1.46316,-0.0842 z"
       id="path8385"
       inkscape:connector-curvature="0"
       transform="translate(0,308.26772)" />
    <path
       style="opacity:0.98999999;fill:#82520f;fill-opacity:1;stroke:#82520f;stroke-width:0.41804641;stroke-linecap:round;stroke-linejoin:round;stroke-miterlimit:4;stroke-dasharray:none;stroke-dashoffset:0;stroke-opacity:1"
       d="m 189.78622,320.27278 c -1.20499,-0.20173 -2.22667,-0.4051 -2.27041,-0.45193 -0.0665,-0.0712 56.46383,-36.44254 56.99494,-36.67029 0.24501,-0.10506 -0.0149,3.32396 -0.29092,3.83817 -0.18846,0.35108 -49.19459,32.72823 -49.70551,32.82867 -0.0948,0.0186 -3.52311,0.65712 -4.7281,0.45538 z"
       id="path8387"
       inkscape:connector-curvature="0"
       transform="translate(0,308.26772)"
       sodipodi:nodetypes="sccccs" />
    <path
       style="opacity:0.98999999;fill:#82520f;fill-opacity:1;stroke:#82520f;stroke-width:0.41804641;stroke-linecap:round;stroke-linejoin:round;stroke-miterlimit:4;stroke-dasharray:none;stroke-dashoffset:0;stroke-opacity:1"
       d="m 711.38563,343.35532 c -0.23902,-0.26824 -9.41367,-12.32789 -20.38812,-26.79921 l -19.95356,-26.31149 0,-3.47706 c 0,-3.44159 0.005,-3.47029 0.51803,-2.81241 0.28492,0.36556 10.2033,13.88182 22.04086,30.03613 16.01606,21.85658 21.42761,29.43183 21.1507,29.60735 -0.6927,0.4391 -2.9021,0.27948 -3.36791,-0.24331 z"
       id="path8389"
       inkscape:connector-curvature="0"
       transform="translate(0,308.26772)" />
    <path
       style="opacity:0.98999999;fill:#82520f;fill-opacity:1;stroke:#82520f;stroke-width:0.41804641;stroke-linecap:round;stroke-linejoin:round;stroke-miterlimit:4;stroke-dasharray:none;stroke-dashoffset:0;stroke-opacity:1"
       d="m 848.94653,305.38744 -25.64018,-16.97061 -0.0848,-1.59076 c -0.0466,-0.87492 0.0198,-1.69536 0.14763,-1.82319 0.12784,-0.12783 12.62604,8.02986 27.77379,18.12822 19.34237,12.89473 27.38775,18.40314 27.02538,18.5034 -0.28378,0.0785 -1.01762,0.22311 -1.63076,0.32131 -0.61313,0.0982 -1.30291,0.22887 -1.53284,0.29039 -0.22992,0.0615 -11.95612,-7.52492 -26.05822,-16.85876 z"
       id="path8391"
       inkscape:connector-curvature="0"
       transform="translate(0,308.26772)" />
    <path
       sodipodi:nodetypes="ccccc"
       inkscape:connector-curvature="0"
       id="rect7487"
       d="m 35.217839,595.1388 c 363.643011,82.34673 680.906021,82.34673 981.926561,0 L 844.95147,757.95675 c -200.20633,48.7095 -416.5888,53.12483 -636.11764,1.13859 z"
       style="opacity:0.98999999;fill:#73480e;fill-opacity:1;stroke:#73480e;stroke-width:1.5168277;stroke-linecap:round;stroke-linejoin:round;stroke-miterlimit:4;stroke-dasharray:none;stroke-dashoffset:0;stroke-opacity:1" />
  </g>
</svg>
