<?xml version="1.0" encoding="UTF-8" standalone="no"?>
<!-- Created with Inkscape (http://www.inkscape.org/) -->

<!-- 
Artwork by John Samuel. 
This work is licensed under a Creative Commons Attribution-ShareAlike 4.0 International License. 
-->

<svg
   xmlns:osb="http://www.openswatchbook.org/uri/2009/osb"
   xmlns:dc="http://purl.org/dc/elements/1.1/"
   xmlns:cc="http://creativecommons.org/ns#"
   xmlns:rdf="http://www.w3.org/1999/02/22-rdf-syntax-ns#"
   xmlns:svg="http://www.w3.org/2000/svg"
   xmlns="http://www.w3.org/2000/svg"
   xmlns:sodipodi="http://sodipodi.sourceforge.net/DTD/sodipodi-0.dtd"
   xmlns:inkscape="http://www.inkscape.org/namespaces/inkscape"
   width="297mm"
   height="210mm"
   viewBox="0 0 1052.3622 744.09448"
   id="svg2"
   version="1.1"
   inkscape:version="0.91 r13725"
   sodipodi:docname="brinjal.svg">
  <defs
     id="defs4">
    <linearGradient
       id="linearGradient4824"
       osb:paint="solid">
      <stop
         style="stop-color:#000000;stop-opacity:1;"
         offset="0"
         id="stop4826" />
    </linearGradient>
  </defs>
  <sodipodi:namedview
     id="base"
     pagecolor="#ffffff"
     bordercolor="#666666"
     borderopacity="1.0"
     inkscape:pageopacity="0.0"
     inkscape:pageshadow="2"
     inkscape:zoom="0.89702955"
     inkscape:cx="526.1811"
     inkscape:cy="372.04724"
     inkscape:document-units="px"
     inkscape:current-layer="layer1"
     showgrid="false"
     inkscape:window-width="1600"
     inkscape:window-height="847"
     inkscape:window-x="0"
     inkscape:window-y="0"
     inkscape:window-maximized="1"
     showguides="false"
     inkscape:guide-bbox="true">
    <sodipodi:guide
       position="521.08372,386.18939"
       orientation="1,0"
       id="guide14965" />
    <sodipodi:guide
       position="521.08372,386.18939"
       orientation="0,1"
       id="guide14967" />
    <sodipodi:guide
       position="521.08372,285.01865"
       orientation="0,1"
       id="guide14969" />
    <inkscape:grid
       type="xygrid"
       id="grid14978" />
  </sodipodi:namedview>
  <metadata
     id="metadata7">
    <rdf:RDF>
      <cc:Work
         rdf:about="">
        <dc:format>image/svg+xml</dc:format>
        <dc:type
           rdf:resource="http://purl.org/dc/dcmitype/StillImage" />
        <dc:title />
      </cc:Work>
    </rdf:RDF>
  </metadata>
  <g
     inkscape:label="Layer 1"
     inkscape:groupmode="layer"
     id="layer1"
     transform="translate(0,-308.26772)">
    <path
       style="opacity:1;fill:#722b65;fill-opacity:1;stroke:#722b65;stroke-width:1.5;stroke-linecap:round;stroke-linejoin:round;stroke-miterlimit:4;stroke-dasharray:none;stroke-dashoffset:0;stroke-opacity:1"
       d="m 393.33348,607.15637 c -31.48451,46.69044 -54.96885,107.16678 -65.08565,175.14015 -28.03955,188.39385 87.377,258.99738 198.97155,258.76228 94.06479,-0.1982 219.22889,-113.57832 198.97156,-258.76228 -9.0696,-65.00171 -34.76061,-129.00245 -66.64952,-175.17397"
       id="path14972"
       inkscape:connector-curvature="0"
       sodipodi:nodetypes="csssc" />
    <path
       style="fill:#74b91e;fill-opacity:1;fill-rule:evenodd;stroke:#74b91e;stroke-width:1.5;stroke-linecap:butt;stroke-linejoin:miter;stroke-miterlimit:4;stroke-dasharray:none;stroke-opacity:1"
       d="m 502.62499,504.89079 c -0.67777,-240.87527 119.64396,-188.10308 122.12436,-160.24695 6.2296,18.0919 1.84877,25.23407 -5.3654,25.63942 -4.65226,0.41004 -5.58454,-0.20249 -8.16656,-4.95369 -2.19873,-0.85079 -86.90069,-82.34667 -57.56494,140.78596 38.7851,10.04203 87.91202,67.90001 103.74385,100.08904 15.83183,32.18904 -58.59382,-43.30176 -71.03637,-34.37167 -12.44255,8.93009 24.91336,69.52571 8.19507,74.22932 -19.90281,5.59956 -44.81014,-69.50046 -66.88946,-69.72019 -21.55053,-0.21446 -42.99783,74.04476 -62.11657,68.31707 -17.90335,-5.36358 28.76406,-74.22386 15.33998,-75.55602 -25.42564,-2.52315 -93.03352,51.94315 -86.07945,38.09043 24.51374,-48.83212 66.77108,-89.4797 107.81549,-102.30272 z"
       id="path14982"
       inkscape:connector-curvature="0"
       sodipodi:nodetypes="cccccccsssssc" />
    <path
       style="opacity:1;fill:#722b65;fill-opacity:1;stroke:#722b65;stroke-width:1.67218566;stroke-linecap:round;stroke-linejoin:round;stroke-miterlimit:4;stroke-dasharray:none;stroke-dashoffset:0;stroke-opacity:1"
       d="m 419.6754,597.52846 c 28.76082,-17.22726 45.05907,-24.96491 56.92517,-27.02543 7.46787,-1.29678 7.0548,2.78815 -2.60584,25.76939 l -5.27203,12.54139 -33.94406,0 -33.94406,0 18.84082,-11.28535 z"
       id="path4302"
       inkscape:connector-curvature="0" />
    <path
       style="opacity:1;fill:#722b65;fill-opacity:1;stroke:#722b65;stroke-width:1.67218566;stroke-linecap:round;stroke-linejoin:round;stroke-miterlimit:4;stroke-dasharray:none;stroke-dashoffset:0;stroke-opacity:1"
       d="m 502.21458,604.07595 c 10.33288,-16.48205 17.58237,-24.59467 23.24884,-26.01687 1.5602,-0.39158 4.30168,-0.10516 6.09219,0.63649 5.40864,2.24033 17.85176,16.53732 25.00007,28.72475 0.64521,1.10006 -5.30284,1.39349 -28.24701,1.39349 l -29.06433,0 2.97024,-4.73786 z"
       id="path4304"
       inkscape:connector-curvature="0" />
    <path
       style="opacity:1;fill:#722b65;fill-opacity:1;stroke:#722b65;stroke-width:1.67218566;stroke-linecap:round;stroke-linejoin:round;stroke-miterlimit:4;stroke-dasharray:none;stroke-dashoffset:0;stroke-opacity:1"
       d="m 606.0135,609.09585 c 7.5109,-0.19286 19.80146,-0.19286 27.31236,0 7.51091,0.19287 1.36562,0.35067 -13.65618,0.35067 -15.0218,0 -21.16708,-0.1578 -13.65618,-0.35067 z"
       id="path4306"
       inkscape:connector-curvature="0" />
    <path
       style="opacity:1;fill:#722b65;fill-opacity:1;stroke:#722b65;stroke-width:1.67218566;stroke-linecap:round;stroke-linejoin:round;stroke-miterlimit:4;stroke-dasharray:none;stroke-dashoffset:0;stroke-opacity:1"
       d="m 591.78427,605.98621 c -5.41998,-14.25902 -7.78992,-28.83045 -5.23963,-32.21566 1.57453,-2.09001 1.78275,-2.09667 6.71072,-0.21467 2.79718,1.06826 8.25432,3.98448 12.12698,6.4805 5.87743,3.78813 38.81379,27.61236 38.81224,28.07449 -2.6e-4,0.08 -11.59854,0.14555 -25.77393,0.14555 -24.9015,0 -25.80265,-0.0768 -26.63638,-2.27021 z"
       id="path4308"
       inkscape:connector-curvature="0" />
  </g>
</svg>
