<?xml version="1.0" encoding="UTF-8" standalone="no"?>
<!-- Created with Inkscape (http://www.inkscape.org/) -->

<!-- 
Artwork by John Samuel. 
This work is licensed under a Creative Commons Attribution-ShareAlike 4.0 International License. 
-->

<svg
   xmlns:osb="http://www.openswatchbook.org/uri/2009/osb"
   xmlns:dc="http://purl.org/dc/elements/1.1/"
   xmlns:cc="http://creativecommons.org/ns#"
   xmlns:rdf="http://www.w3.org/1999/02/22-rdf-syntax-ns#"
   xmlns:svg="http://www.w3.org/2000/svg"
   xmlns="http://www.w3.org/2000/svg"
   xmlns:sodipodi="http://sodipodi.sourceforge.net/DTD/sodipodi-0.dtd"
   xmlns:inkscape="http://www.inkscape.org/namespaces/inkscape"
   width="297mm"
   height="210mm"
   viewBox="0 0 1052.3622 744.09448"
   id="svg2"
   version="1.1"
   inkscape:version="0.91 r13725"
   sodipodi:docname="cloud.svg">
  <defs
     id="defs4">
    <linearGradient
       id="linearGradient4824"
       osb:paint="solid">
      <stop
         style="stop-color:#000000;stop-opacity:1;"
         offset="0"
         id="stop4826" />
    </linearGradient>
  </defs>
  <sodipodi:namedview
     id="base"
     pagecolor="#ffffff"
     bordercolor="#666666"
     borderopacity="1.0"
     inkscape:pageopacity="0.0"
     inkscape:pageshadow="2"
     inkscape:zoom="0.89702955"
     inkscape:cx="526.1811"
     inkscape:cy="372.04724"
     inkscape:document-units="px"
     inkscape:current-layer="layer1"
     showgrid="false"
     inkscape:window-width="1600"
     inkscape:window-height="847"
     inkscape:window-x="0"
     inkscape:window-y="0"
     inkscape:window-maximized="1"
     showguides="false" />
  <metadata
     id="metadata7">
    <rdf:RDF>
      <cc:Work
         rdf:about="">
        <dc:format>image/svg+xml</dc:format>
        <dc:type
           rdf:resource="http://purl.org/dc/dcmitype/StillImage" />
        <dc:title></dc:title>
      </cc:Work>
    </rdf:RDF>
  </metadata>
  <g
     inkscape:label="Layer 1"
     inkscape:groupmode="layer"
     id="layer1"
     transform="translate(0,-308.26772)">
    <path
       style="fill:#a49996;fill-opacity:1;stroke:#969fa6;stroke-width:4.5;stroke-linecap:round;stroke-linejoin:round;stroke-miterlimit:4;stroke-dasharray:none;stroke-dashoffset:0;stroke-opacity:1"
       d="M 522.67969 142.63477 A 104.49791 98.469185 0 0 0 418.18164 241.10352 A 104.49791 98.469185 0 0 0 419.58398 256.93164 A 104.49791 98.469185 0 0 0 384.6875 251.15234 A 104.49791 98.469185 0 0 0 280.21094 349.20312 A 104.49791 98.469185 0 0 0 280.18164 349.20117 A 104.49791 98.469185 0 0 0 175.68359 447.66992 A 104.49791 98.469185 0 0 0 280.18164 546.13867 A 104.49791 98.469185 0 0 0 330.29492 533.95898 A 104.49791 98.469185 0 0 0 428.18164 598.13867 A 104.49791 98.469185 0 0 0 520.8457 545.00586 A 104.49791 98.469185 0 0 0 615.23438 601.45898 A 104.49791 98.469185 0 0 0 716.48438 526.84961 A 104.49791 98.469185 0 0 0 772.18164 542.13867 A 104.49791 98.469185 0 0 0 876.67969 443.66992 A 104.49791 98.469185 0 0 0 772.18164 345.20117 A 104.49791 98.469185 0 0 0 767.78711 345.34766 A 104.49791 98.469185 0 0 0 663.34961 248.47266 A 104.49791 98.469185 0 0 0 626.00195 255.00195 A 104.49791 98.469185 0 0 0 627.17773 241.10352 A 104.49791 98.469185 0 0 0 522.67969 142.63477 z "
       transform="translate(0,308.26772)"
       id="path4964" />
  </g>
</svg>
