<?xml version="1.0" encoding="UTF-8" standalone="no"?>
<!-- Created with Inkscape (http://www.inkscape.org/) -->

<!-- 
Artwork by John Samuel. 
This work is licensed under a Creative Commons Attribution-ShareAlike 4.0 International License. 
-->

<svg
   xmlns:osb="http://www.openswatchbook.org/uri/2009/osb"
   xmlns:dc="http://purl.org/dc/elements/1.1/"
   xmlns:cc="http://creativecommons.org/ns#"
   xmlns:rdf="http://www.w3.org/1999/02/22-rdf-syntax-ns#"
   xmlns:svg="http://www.w3.org/2000/svg"
   xmlns="http://www.w3.org/2000/svg"
   xmlns:sodipodi="http://sodipodi.sourceforge.net/DTD/sodipodi-0.dtd"
   xmlns:inkscape="http://www.inkscape.org/namespaces/inkscape"
   width="297mm"
   height="210mm"
   viewBox="0 0 1052.3622 744.09448"
   id="svg2"
   version="1.1"
   inkscape:version="0.92.5 (2060ec1f9f, 2020-04-08)"
   sodipodi:docname="fish.svg">
  <defs
     id="defs4">
    <linearGradient
       id="linearGradient4824"
       osb:paint="solid">
      <stop
         style="stop-color:#000000;stop-opacity:1;"
         offset="0"
         id="stop4826" />
    </linearGradient>
  </defs>
  <sodipodi:namedview
     id="base"
     pagecolor="#ffffff"
     bordercolor="#666666"
     borderopacity="1.0"
     inkscape:pageopacity="0.0"
     inkscape:pageshadow="2"
     inkscape:zoom="0.82492985"
     inkscape:cx="561.25984"
     inkscape:cy="396.85039"
     inkscape:document-units="px"
     inkscape:current-layer="layer1"
     showgrid="false"
     inkscape:window-width="1600"
     inkscape:window-height="851"
     inkscape:window-x="0"
     inkscape:window-y="25"
     inkscape:window-maximized="1"
     showguides="false">
    <sodipodi:guide
       position="0,0"
       orientation="0,1052.3622"
       id="guide22179"
       inkscape:locked="false" />
    <sodipodi:guide
       position="1052.3622,0"
       orientation="-744.09449,0"
       id="guide22181"
       inkscape:locked="false" />
    <sodipodi:guide
       position="1052.3622,744.09449"
       orientation="0,-1052.3622"
       id="guide22183"
       inkscape:locked="false" />
    <sodipodi:guide
       position="0,744.09449"
       orientation="744.09449,0"
       id="guide22185"
       inkscape:locked="false" />
    <sodipodi:guide
       position="0,0"
       orientation="0,1052.3622"
       id="guide22187"
       inkscape:locked="false" />
    <sodipodi:guide
       position="1052.3622,0"
       orientation="-744.09449,0"
       id="guide22189"
       inkscape:locked="false" />
    <sodipodi:guide
       position="1052.3622,744.09449"
       orientation="0,-1052.3622"
       id="guide22191"
       inkscape:locked="false" />
    <sodipodi:guide
       position="0,744.09449"
       orientation="744.09449,0"
       id="guide22193"
       inkscape:locked="false" />
    <sodipodi:guide
       position="1.8457631,741.61205"
       orientation="372.04721,0"
       id="guide22197"
       inkscape:locked="false" />
    <sodipodi:guide
       position="1.8457631,369.56484"
       orientation="0,526.18109"
       id="guide22199"
       inkscape:locked="false" />
    <sodipodi:guide
       position="528.02686,369.56484"
       orientation="-372.04721,0"
       id="guide22201"
       inkscape:locked="false" />
    <sodipodi:guide
       position="528.02686,741.61205"
       orientation="0,-526.18109"
       id="guide22203"
       inkscape:locked="false" />
    <inkscape:grid
       type="xygrid"
       id="grid22211" />
  </sodipodi:namedview>
  <metadata
     id="metadata7">
    <rdf:RDF>
      <cc:Work
         rdf:about="">
        <dc:format>image/svg+xml</dc:format>
        <dc:type
           rdf:resource="http://purl.org/dc/dcmitype/StillImage" />
        <dc:title />
      </cc:Work>
    </rdf:RDF>
  </metadata>
  <g
     inkscape:label="Layer 1"
     inkscape:groupmode="layer"
     id="layer1"
     transform="translate(0,-308.26772)">
    <g
       id="g2290"
       transform="matrix(1.7165353,0,0,0.88998205,-173.3888,87.467719)">
      <path
         id="path2271"
         d="M 359.67677,802.68218 C 388.73143,892.63095 540.48736,916.94747 541.4046,917.73886 460.97863,920.83861 357.22767,909.83133 305.29717,873.9745 264.8219,846.02724 246.39322,824.65281 241.9822,795.03132"
         style="fill:#b3b3b3;fill-rule:evenodd;stroke:#b3b3b3;stroke-width:1.5;stroke-linecap:butt;stroke-linejoin:miter;stroke-miterlimit:4;stroke-dasharray:none;stroke-opacity:1"
         transform="translate(0,2.8293938e-6)"
         inkscape:connector-curvature="0" />
      <path
         style="fill:none;fill-rule:evenodd;stroke:#666666;stroke-width:0.9375px;stroke-linecap:butt;stroke-linejoin:miter;stroke-opacity:1"
         d="M 541.4046,916.10866 C 383.06138,906.51587 289.63759,866.23453 260.5101,795.5592"
         id="path2257"
         inkscape:connector-curvature="0"
         sodipodi:nodetypes="cc" />
      <path
         style="fill:none;fill-rule:evenodd;stroke:#666666;stroke-width:0.9375px;stroke-linecap:butt;stroke-linejoin:miter;stroke-opacity:1"
         d="M 541.4046,916.10866 C 339.76281,892.99967 325.04856,843.18674 286.38799,796.79471"
         id="path2259"
         inkscape:connector-curvature="0"
         sodipodi:nodetypes="cc" />
      <path
         style="fill:none;fill-rule:evenodd;stroke:#666666;stroke-width:0.9375px;stroke-linecap:butt;stroke-linejoin:miter;stroke-opacity:1"
         d="m 310.25365,799.06762 c 39.95341,48.03725 81.59064,95.66493 231.15095,117.04104 C 397.61125,886.97354 366.69772,842.98582 335.25578,799.06762"
         id="path2261"
         inkscape:connector-curvature="0"
         sodipodi:nodetypes="ccc" />
    </g>
    <g
       id="g2278"
       transform="matrix(1.6415526,0,0,0.75852619,-152.54894,135.75191)">
      <path
         id="path2269"
         d="M 359.67677,569.65515 C 388.73143,479.70638 582.20434,456.59521 541.4046,454.59848 455.23502,462.61612 256.30757,473.50226 237.78089,576.2844"
         style="fill:#b3b3b3;fill-rule:evenodd;stroke:#b3b3b3;stroke-width:1.5;stroke-linecap:butt;stroke-linejoin:miter;stroke-miterlimit:4;stroke-dasharray:none;stroke-opacity:1"
         transform="translate(0,2.8293938e-6)"
         inkscape:connector-curvature="0" />
      <path
         sodipodi:nodetypes="cc"
         inkscape:connector-curvature="0"
         id="path2251"
         d="M 541.4046,454.59848 C 383.06138,464.19127 289.63759,504.47261 260.5101,575.14794"
         style="fill:none;fill-rule:evenodd;stroke:#666666;stroke-width:0.9375px;stroke-linecap:butt;stroke-linejoin:miter;stroke-opacity:1" />
      <path
         sodipodi:nodetypes="cc"
         inkscape:connector-curvature="0"
         id="path2253"
         d="M 541.4046,454.59848 C 339.76281,477.70747 325.04856,527.5204 286.38799,573.91243"
         style="fill:none;fill-rule:evenodd;stroke:#666666;stroke-width:0.9375px;stroke-linecap:butt;stroke-linejoin:miter;stroke-opacity:1" />
      <path
         sodipodi:nodetypes="ccc"
         inkscape:connector-curvature="0"
         id="path2255"
         d="M 310.25365,571.63952 C 350.20706,523.60227 391.84429,475.97459 541.4046,454.59848 397.61125,483.7336 366.69772,527.72132 335.25578,571.63952"
         style="fill:none;fill-rule:evenodd;stroke:#666666;stroke-width:0.9375px;stroke-linecap:butt;stroke-linejoin:miter;stroke-opacity:1" />
    </g>
    <g
       id="g2162"
       style="fill:#b3b3b3;stroke:#b3b3b3">
      <path
         style="fill:#b3b3b3;fill-rule:evenodd;stroke:#b3b3b3;stroke-width:1.5;stroke-linecap:butt;stroke-linejoin:miter;stroke-miterlimit:4;stroke-dasharray:none;stroke-opacity:1"
         d="M 893.55188,685.55901 C 816.2767,613.92365 646.1148,532.56683 458.34089,532.36658 266.02115,532.16148 21.832323,578.49058 21.665059,685.10972 21.498278,791.42226 268.47556,851.45069 455.70838,851.49101 c 187.23284,0.0403 358.48673,-94.46494 436.60366,-165.69074"
         id="path4313"
         inkscape:connector-curvature="0"
         sodipodi:nodetypes="csssc" />
    </g>
    <g
       id="g2159" />
    <g
       id="g2210"
       style="stroke:#b3b3b3"
       transform="translate(-28.125)">
      <g
         transform="matrix(1,0,0,-1,0,1371.7352)"
         id="g2205"
         style="stroke:#b3b3b3">
        <path
           id="path23777"
           style="fill:none;fill-rule:evenodd;stroke:#b3b3b3;stroke-width:1.5;stroke-linecap:butt;stroke-linejoin:miter;stroke-miterlimit:4;stroke-dasharray:none;stroke-opacity:1"
           d="M 888.96624,690.81305 C 996.7466,551.69554 1020.6978,447.92189 1020.6978,447.92189 v 0 m -131.73156,233.0003 c 107.78036,139.1175 131.73156,242.89117 131.73156,242.89117 v 0 m 0.3216,-472.24692 c 3.4477,6.26101 40.0238,132.9028 -17.0875,233.30119 57.1671,143.29404 12.0963,234.10213 17.0875,233.30118"
           inkscape:connector-curvature="0" />
      </g>
    </g>
    <g
       id="g2186"
       transform="translate(0,-35.625)">
      <ellipse
         ry="8.6264601"
         rx="8.6264763"
         cy="687.92224"
         cx="78.45462"
         id="path22856"
         style="opacity:1;fill:#000000;fill-opacity:1;stroke:#000000;stroke-width:1.5;stroke-linecap:round;stroke-linejoin:round;stroke-miterlimit:4;stroke-dasharray:none;stroke-dashoffset:0;stroke-opacity:1" />
      <ellipse
         style="opacity:1;fill:none;fill-opacity:1;stroke:#000000;stroke-width:1.5;stroke-linecap:round;stroke-linejoin:round;stroke-miterlimit:4;stroke-dasharray:none;stroke-dashoffset:0;stroke-opacity:1"
         id="ellipse4308"
         cx="78.45462"
         cy="687.92224"
         rx="14.17511"
         ry="14.175083" />
    </g>
    <path
       style="opacity:0.58999999;fill:#b3b3b3;fill-opacity:1;stroke:#b3b3b3;stroke-width:2.27292037;stroke-linecap:round;stroke-linejoin:round;stroke-miterlimit:4;stroke-dasharray:none;stroke-dashoffset:0;stroke-opacity:1"
       d="m 989.0693,907.85545 c -8.3537,-26.89697 -28.51458,-72.21062 -47.60255,-106.992 -17.11256,-31.18188 -42.60662,-70.88987 -64.41185,-100.32385 -5.6851,-7.67408 -10.33655,-14.23026 -10.33655,-14.56928 0,-0.33903 5.36604,-7.96711 11.92454,-16.9513 48.5388,-66.49105 86.18364,-135.51633 108.03941,-198.0998 l 4.892,-14.00829 1.2107,4.34837 c 18.2497,65.54615 13.7503,137.08765 -13.3702,212.59286 l -4.588,12.7733 6.6373,13.93352 c 22.3981,47.01922 29.8788,104.74341 21.6147,166.78741 -2.3087,17.33261 -6.7287,39.41237 -9.4135,47.02344 l -1.368,3.87849 z"
       id="path2213"
       inkscape:connector-curvature="0" />
    <path
       style="opacity:0.58999999;fill:#b3b3b3;fill-opacity:1;stroke:#b3b3b3;stroke-width:2.27292037;stroke-linecap:round;stroke-linejoin:round;stroke-miterlimit:4;stroke-dasharray:none;stroke-dashoffset:0;stroke-opacity:1"
       d="M 990.1588,911.95245 C 971.37703,850.13218 923.90419,762.55764 872.24467,694.43294 l -6.59343,-8.69492 3.51102,-4.37437 c 7.4133,-9.23616 31.10719,-43.16949 42.11493,-60.31507 31.53534,-49.11946 58.56712,-103.00066 74.84761,-149.19036 2.9925,-8.49025 5.696,-14.58089 6.0535,-13.63753 1.8847,4.97429 6.6856,27.54641 8.8224,41.4808 2.9178,19.02624 3.5322,61.93451 1.1555,80.68867 -4.3314,34.17872 -13.3544,70.77396 -24.1519,97.95498 l -3.2511,8.18419 6.7111,13.98157 c 11.2555,23.44879 17.7934,45.48768 22.4187,75.57182 2.7978,18.19716 2.7729,68.45303 -0.044,88.42251 -3.0501,21.62537 -9.8924,53.98187 -11.4153,53.98187 -0.154,0 -1.1734,-2.94059 -2.2653,-6.53465 z"
       id="path2215"
       inkscape:connector-curvature="0" />
    <path
       style="fill:none;fill-rule:evenodd;stroke:#808080;stroke-width:0.9375px;stroke-linecap:butt;stroke-linejoin:miter;stroke-opacity:1"
       d="M 865.65124,685.73802 C 920.2558,629.057 966.97848,563.06102 998.0707,478.59269"
       id="path2217"
       inkscape:connector-curvature="0"
       sodipodi:nodetypes="cc" />
    <path
       sodipodi:nodetypes="cc"
       inkscape:connector-curvature="0"
       id="path2219"
       d="M 865.65124,685.73802 C 920.2558,629.057 970.19288,589.57978 1001.2851,505.11145"
       style="fill:none;fill-rule:evenodd;stroke:#808080;stroke-width:0.9375px;stroke-linecap:butt;stroke-linejoin:miter;stroke-opacity:1" />
    <path
       style="fill:none;fill-rule:evenodd;stroke:#808080;stroke-width:0.9375px;stroke-linecap:butt;stroke-linejoin:miter;stroke-opacity:1"
       d="M 865.65124,685.73802 C 920.2558,629.057 972.6037,620.92013 1003.6959,536.4518"
       id="path2221"
       inkscape:connector-curvature="0"
       sodipodi:nodetypes="cc" />
    <path
       style="fill:none;fill-rule:evenodd;stroke:#666666;stroke-width:0.9375px;stroke-linecap:butt;stroke-linejoin:miter;stroke-opacity:1"
       d="m 1002.0886,586.27493 c -35.4132,38.18732 -89.44132,67.06719 -136.43736,99.46309 44.85858,-22.64208 94.06929,-39.48131 133.22296,-69.72994"
       id="path2223"
       inkscape:connector-curvature="0"
       sodipodi:nodetypes="ccc" />
    <path
       style="fill:none;fill-rule:evenodd;stroke:#808080;stroke-width:0.9375px;stroke-linecap:butt;stroke-linejoin:miter;stroke-opacity:1"
       d="m 990.8382,640.91964 c -36.61405,20.05439 -82.82371,30.51317 -125.18695,44.81838 39.77969,-6.26446 78.62036,-7.83383 120.36535,-23.92481"
       id="path2225"
       inkscape:connector-curvature="0"
       sodipodi:nodetypes="ccc" />
    <path
       sodipodi:nodetypes="cc"
       inkscape:connector-curvature="0"
       id="path2239"
       d="m 865.65124,685.14381 c 54.60456,56.68102 101.32724,122.677 132.41946,207.14533"
       style="fill:none;fill-rule:evenodd;stroke:#808080;stroke-width:0.9375px;stroke-linecap:butt;stroke-linejoin:miter;stroke-opacity:1" />
    <path
       style="fill:none;fill-rule:evenodd;stroke:#808080;stroke-width:0.9375px;stroke-linecap:butt;stroke-linejoin:miter;stroke-opacity:1"
       d="m 865.65124,685.14381 c 54.60456,56.68102 104.54164,96.15824 135.63386,180.62657"
       id="path2241"
       inkscape:connector-curvature="0"
       sodipodi:nodetypes="cc" />
    <path
       sodipodi:nodetypes="cc"
       inkscape:connector-curvature="0"
       id="path2243"
       d="M 865.65124,685.14381 C 920.2558,741.82483 972.6037,749.9617 1003.6959,834.43003"
       style="fill:none;fill-rule:evenodd;stroke:#808080;stroke-width:0.9375px;stroke-linecap:butt;stroke-linejoin:miter;stroke-opacity:1" />
    <path
       sodipodi:nodetypes="ccc"
       inkscape:connector-curvature="0"
       id="path2245"
       d="m 1002.0886,784.6069 c -35.4132,-38.18732 -89.44132,-67.06719 -136.43736,-99.46309 44.85858,22.64208 94.06929,39.48131 133.22296,69.72994"
       style="fill:none;fill-rule:evenodd;stroke:#808080;stroke-width:0.9375px;stroke-linecap:butt;stroke-linejoin:miter;stroke-opacity:1" />
    <path
       sodipodi:nodetypes="ccc"
       inkscape:connector-curvature="0"
       id="path2247"
       d="m 990.8382,729.96219 c -36.61405,-20.05439 -82.82371,-30.51317 -125.18695,-44.81838 39.77969,6.26446 78.62036,7.83383 120.36535,23.92481"
       style="fill:none;fill-rule:evenodd;stroke:#808080;stroke-width:0.9375px;stroke-linecap:butt;stroke-linejoin:miter;stroke-opacity:1" />
    <path
       style="fill:none;fill-rule:evenodd;stroke:#808080;stroke-width:0.9375px;stroke-linecap:butt;stroke-linejoin:miter;stroke-opacity:1"
       d="m 865.65126,685.73802 109.10194,0.79131"
       id="path2249"
       inkscape:connector-curvature="0" />
    <path
       style="fill:none;fill-rule:evenodd;stroke:#666666;stroke-width:0.9375px;stroke-linecap:butt;stroke-linejoin:miter;stroke-opacity:1"
       d="m 176.15134,569.3666 c 63.27115,111.40206 11.55697,185.13512 -20.45628,231.83789"
       id="path2263"
       inkscape:connector-curvature="0"
       sodipodi:nodetypes="cc" />
    <path
       style="fill:none;fill-rule:evenodd;stroke:#666666;stroke-width:0.9375px;stroke-linecap:butt;stroke-linejoin:miter;stroke-opacity:1"
       d="m 38.24173,728.47103 c 38.396017,24.39546 86.72467,2.39217 104.55434,-17.0469"
       id="path2265"
       inkscape:connector-curvature="0"
       sodipodi:nodetypes="cc" />
    <g
       id="g2307"
       style="stroke:#666666">
      <path
         sodipodi:nodetypes="cccc"
         inkscape:connector-curvature="0"
         id="path2292"
         d="m 201.15346,723.92519 c 76.16026,-26.12262 92.4082,-35.14175 126.1471,-38.63965 3.61181,28.20656 0.1472,64.2073 -20.45629,77.2793 -35.98791,2.76814 -83.34042,8.80888 -119.32833,-3.40938"
         style="fill:none;fill-rule:evenodd;stroke:#666666;stroke-width:0.9375px;stroke-linecap:butt;stroke-linejoin:miter;stroke-opacity:1" />
      <path
         sodipodi:nodetypes="cc"
         inkscape:connector-curvature="0"
         id="path2294"
         d="m 196.03939,736.99448 c 45.09727,-5.59022 91.15007,-8.92266 130.12471,-28.97973"
         style="fill:none;fill-rule:evenodd;stroke:#666666;stroke-width:0.9375px;stroke-linecap:butt;stroke-linejoin:miter;stroke-opacity:1" />
      <path
         style="fill:none;fill-rule:evenodd;stroke:#666666;stroke-width:0.9375px;stroke-linecap:butt;stroke-linejoin:miter;stroke-opacity:1"
         d="m 193.42585,746.42519 c 42.76625,-5.0455 84.83719,-1.74721 128.98825,-23.41044"
         id="path2296"
         inkscape:connector-curvature="0"
         sodipodi:nodetypes="cc" />
      <path
         sodipodi:nodetypes="cc"
         inkscape:connector-curvature="0"
         id="path2298"
         d="m 190.01647,753.24395 c 44.57562,-0.39464 90.01133,6.44444 130.12471,-14.77398"
         style="fill:none;fill-rule:evenodd;stroke:#666666;stroke-width:0.9375px;stroke-linecap:butt;stroke-linejoin:miter;stroke-opacity:1" />
      <path
         style="fill:none;fill-rule:evenodd;stroke:#666666;stroke-width:0.9375px;stroke-linecap:butt;stroke-linejoin:miter;stroke-opacity:1"
         d="m 197.91439,729.49448 c 46.8387,-8.90554 89.14007,-19.51258 123.87418,-32.95734"
         id="path2300"
         inkscape:connector-curvature="0"
         sodipodi:nodetypes="cc" />
    </g>
    <path
       style="opacity:0.58999999;fill:#808080;fill-opacity:1;stroke:#666666;stroke-width:1.875;stroke-linecap:round;stroke-linejoin:round;stroke-miterlimit:4;stroke-dasharray:none;stroke-dashoffset:0;stroke-opacity:1"
       id="path2315"
       sodipodi:type="arc"
       sodipodi:cx="168.16469"
       sodipodi:cy="584.51849"
       sodipodi:rx="34.329376"
       sodipodi:ry="15.579375"
       sodipodi:start="4.9471881"
       sodipodi:end="0.91449625"
       sodipodi:open="true"
       d="m 176.15134,569.3666 a 34.329376,15.579375 0 0 1 25.58316,11.89278 34.329376,15.579375 0 0 1 -12.62238,15.60196" />
    <path
       d="m 189.11212,596.86135 a 34.329376,15.579375 0 0 1 25.73909,12.24318 34.329376,15.579375 0 0 1 -14.04803,15.67466"
       sodipodi:open="true"
       sodipodi:end="0.96038678"
       sodipodi:start="4.9471881"
       sodipodi:ry="15.579375"
       sodipodi:rx="34.329376"
       sodipodi:cy="612.01324"
       sodipodi:cx="181.12547"
       sodipodi:type="arc"
       id="path2317"
       style="opacity:0.58999999;fill:#808080;fill-opacity:1;stroke:#666666;stroke-width:1.875;stroke-linecap:round;stroke-linejoin:round;stroke-miterlimit:4;stroke-dasharray:none;stroke-dashoffset:0;stroke-opacity:1" />
    <path
       style="opacity:0.58999999;fill:#808080;fill-opacity:1;stroke:#666666;stroke-width:1.875;stroke-linecap:round;stroke-linejoin:round;stroke-miterlimit:4;stroke-dasharray:none;stroke-dashoffset:0;stroke-opacity:1"
       id="path2323"
       sodipodi:type="arc"
       sodipodi:cx="190.50047"
       sodipodi:cy="640.13824"
       sodipodi:rx="34.329376"
       sodipodi:ry="15.579375"
       sodipodi:start="4.9810464"
       sodipodi:end="1.0899421"
       sodipodi:open="true"
       d="m 199.61277,625.11773 a 34.329376,15.579375 0 0 1 25.02404,13.37067 34.329376,15.579375 0 0 1 -18.25774,15.46252" />
    <path
       d="m 204.91572,653.20326 a 34.329376,15.579375 0 0 1 25.52807,14.66457 34.329376,15.579375 0 0 1 -23.85544,15.23357"
       sodipodi:open="true"
       sodipodi:end="1.2610898"
       sodipodi:start="4.9713292"
       sodipodi:ry="15.579375"
       sodipodi:rx="34.329376"
       sodipodi:cy="668.26324"
       sodipodi:cx="196.12547"
       sodipodi:type="arc"
       id="path2325"
       style="opacity:0.58999999;fill:#808080;fill-opacity:1;stroke:#666666;stroke-width:1.875;stroke-linecap:round;stroke-linejoin:round;stroke-miterlimit:4;stroke-dasharray:none;stroke-dashoffset:0;stroke-opacity:1" />
    <path
       style="opacity:0.58999999;fill:#808080;fill-opacity:1;stroke:#666666;stroke-width:1.875;stroke-linecap:round;stroke-linejoin:round;stroke-miterlimit:4;stroke-dasharray:none;stroke-dashoffset:0;stroke-opacity:1"
       id="path2327"
       sodipodi:type="arc"
       sodipodi:cx="196.12547"
       sodipodi:cy="698.26324"
       sodipodi:rx="34.329376"
       sodipodi:ry="15.579375"
       sodipodi:start="4.9713292"
       sodipodi:end="1.4145231"
       sodipodi:open="true"
       d="m 204.91572,683.20326 a 34.329376,15.579375 0 0 1 25.49391,15.85938 34.329376,15.579375 0 0 1 -28.9412,14.59013" />
    <path
       d="m 201.46843,713.65278 a 34.329376,15.579375 0 0 1 25.02907,17.73559 34.329376,15.579375 0 0 1 -36.77658,12.84586"
       sodipodi:open="true"
       sodipodi:end="1.6570468"
       sodipodi:start="4.9713292"
       sodipodi:ry="15.579375"
       sodipodi:rx="34.329376"
       sodipodi:cy="728.71277"
       sodipodi:cx="192.67818"
       sodipodi:type="arc"
       id="path2329"
       style="opacity:0.58999999;fill:#808080;fill-opacity:1;stroke:#666666;stroke-width:1.875;stroke-linecap:round;stroke-linejoin:round;stroke-miterlimit:4;stroke-dasharray:none;stroke-dashoffset:0;stroke-opacity:1" />
    <path
       style="opacity:0.58999999;fill:#808080;fill-opacity:1;stroke:#666666;stroke-width:1.875;stroke-linecap:round;stroke-linejoin:round;stroke-miterlimit:4;stroke-dasharray:none;stroke-dashoffset:0;stroke-opacity:1"
       id="path2333"
       sodipodi:type="arc"
       sodipodi:cx="169.87547"
       sodipodi:cy="-759.62988"
       sodipodi:rx="34.329376"
       sodipodi:ry="15.579375"
       sodipodi:start="4.8200454"
       sodipodi:end="0.96038678"
       sodipodi:open="true"
       d="m 173.56412,-775.11906 a 34.329376,15.579375 0 0 1 29.56179,11.614 34.329376,15.579375 0 0 1 -13.57273,16.64113"
       transform="scale(1,-1)" />
    <path
       transform="scale(1,-1)"
       d="m 155.37529,-803.21442 a 34.329376,15.579375 0 0 1 28.81497,11.26997 34.329376,15.579375 0 0 1 -11.78302,16.41405"
       sodipodi:open="true"
       sodipodi:end="0.90214435"
       sodipodi:start="4.8365026"
       sodipodi:ry="15.579375"
       sodipodi:rx="34.329376"
       sodipodi:cy="-787.75488"
       sodipodi:cx="151.12547"
       sodipodi:type="arc"
       id="path2335"
       style="opacity:0.58999999;fill:#808080;fill-opacity:1;stroke:#666666;stroke-width:1.875;stroke-linecap:round;stroke-linejoin:round;stroke-miterlimit:4;stroke-dasharray:none;stroke-dashoffset:0;stroke-opacity:1" />
    <path
       sodipodi:nodetypes="cc"
       inkscape:connector-curvature="0"
       id="path2337"
       d="m 176.15134,569.3666 c 63.27115,111.40206 11.55697,185.13512 -20.45628,231.83789"
       style="fill:none;fill-rule:evenodd;stroke:#666666;stroke-width:0.9375px;stroke-linecap:butt;stroke-linejoin:miter;stroke-opacity:1" />
    <path
       d="m 176.15134,569.3666 a 34.329376,15.579375 0 0 1 25.58316,11.89278 34.329376,15.579375 0 0 1 -12.62238,15.60196"
       sodipodi:open="true"
       sodipodi:end="0.91449625"
       sodipodi:start="4.9471881"
       sodipodi:ry="15.579375"
       sodipodi:rx="34.329376"
       sodipodi:cy="584.51849"
       sodipodi:cx="168.16469"
       sodipodi:type="arc"
       id="path2339"
       style="opacity:0.58999999;fill:#999999;fill-opacity:1;stroke:#999999;stroke-width:1.875;stroke-linecap:round;stroke-linejoin:round;stroke-miterlimit:4;stroke-dasharray:none;stroke-dashoffset:0;stroke-opacity:1" />
    <path
       style="opacity:0.58999999;fill:#999999;fill-opacity:1;stroke:#999999;stroke-width:1.875;stroke-linecap:round;stroke-linejoin:round;stroke-miterlimit:4;stroke-dasharray:none;stroke-dashoffset:0;stroke-opacity:1"
       id="path2341"
       sodipodi:type="arc"
       sodipodi:cx="181.12547"
       sodipodi:cy="612.01324"
       sodipodi:rx="34.329376"
       sodipodi:ry="15.579375"
       sodipodi:start="4.9471881"
       sodipodi:end="0.96038678"
       sodipodi:open="true"
       d="m 189.11212,596.86135 a 34.329376,15.579375 0 0 1 25.73909,12.24318 34.329376,15.579375 0 0 1 -14.04803,15.67466" />
    <path
       d="m 199.61277,625.11773 a 34.329376,15.579375 0 0 1 25.02404,13.37067 34.329376,15.579375 0 0 1 -18.25774,15.46252"
       sodipodi:open="true"
       sodipodi:end="1.0899421"
       sodipodi:start="4.9810464"
       sodipodi:ry="15.579375"
       sodipodi:rx="34.329376"
       sodipodi:cy="640.13824"
       sodipodi:cx="190.50047"
       sodipodi:type="arc"
       id="path2343"
       style="opacity:0.58999999;fill:#999999;fill-opacity:1;stroke:#999999;stroke-width:1.875;stroke-linecap:round;stroke-linejoin:round;stroke-miterlimit:4;stroke-dasharray:none;stroke-dashoffset:0;stroke-opacity:1" />
    <path
       style="opacity:0.58999999;fill:#999999;fill-opacity:1;stroke:#999999;stroke-width:1.875;stroke-linecap:round;stroke-linejoin:round;stroke-miterlimit:4;stroke-dasharray:none;stroke-dashoffset:0;stroke-opacity:1"
       id="path2345"
       sodipodi:type="arc"
       sodipodi:cx="196.12547"
       sodipodi:cy="668.26324"
       sodipodi:rx="34.329376"
       sodipodi:ry="15.579375"
       sodipodi:start="4.9713292"
       sodipodi:end="1.2610898"
       sodipodi:open="true"
       d="m 204.91572,653.20326 a 34.329376,15.579375 0 0 1 25.52807,14.66457 34.329376,15.579375 0 0 1 -23.85544,15.23357" />
    <path
       d="m 204.91572,683.20326 a 34.329376,15.579375 0 0 1 25.49391,15.85938 34.329376,15.579375 0 0 1 -28.9412,14.59013"
       sodipodi:open="true"
       sodipodi:end="1.4145231"
       sodipodi:start="4.9713292"
       sodipodi:ry="15.579375"
       sodipodi:rx="34.329376"
       sodipodi:cy="698.26324"
       sodipodi:cx="196.12547"
       sodipodi:type="arc"
       id="path2347"
       style="opacity:0.58999999;fill:#999999;fill-opacity:1;stroke:#999999;stroke-width:1.875;stroke-linecap:round;stroke-linejoin:round;stroke-miterlimit:4;stroke-dasharray:none;stroke-dashoffset:0;stroke-opacity:1" />
    <path
       style="opacity:0.58999999;fill:#999999;fill-opacity:1;stroke:#999999;stroke-width:1.875;stroke-linecap:round;stroke-linejoin:round;stroke-miterlimit:4;stroke-dasharray:none;stroke-dashoffset:0;stroke-opacity:1"
       id="path2349"
       sodipodi:type="arc"
       sodipodi:cx="192.67818"
       sodipodi:cy="728.71277"
       sodipodi:rx="34.329376"
       sodipodi:ry="15.579375"
       sodipodi:start="4.9713292"
       sodipodi:end="1.6570468"
       sodipodi:open="true"
       d="m 201.46843,713.65278 a 34.329376,15.579375 0 0 1 25.02907,17.73559 34.329376,15.579375 0 0 1 -36.77658,12.84586" />
    <path
       transform="scale(1,-1)"
       d="m 173.56412,-775.11906 a 34.329376,15.579375 0 0 1 29.56179,11.614 34.329376,15.579375 0 0 1 -13.57273,16.64113"
       sodipodi:open="true"
       sodipodi:end="0.96038678"
       sodipodi:start="4.8200454"
       sodipodi:ry="15.579375"
       sodipodi:rx="34.329376"
       sodipodi:cy="-759.62988"
       sodipodi:cx="169.87547"
       sodipodi:type="arc"
       id="path2351"
       style="opacity:0.58999999;fill:#999999;fill-opacity:1;stroke:#999999;stroke-width:1.875;stroke-linecap:round;stroke-linejoin:round;stroke-miterlimit:4;stroke-dasharray:none;stroke-dashoffset:0;stroke-opacity:1" />
    <path
       style="opacity:0.58999999;fill:#999999;fill-opacity:1;stroke:#999999;stroke-width:1.875;stroke-linecap:round;stroke-linejoin:round;stroke-miterlimit:4;stroke-dasharray:none;stroke-dashoffset:0;stroke-opacity:1"
       id="path2353"
       sodipodi:type="arc"
       sodipodi:cx="151.12547"
       sodipodi:cy="-787.75488"
       sodipodi:rx="34.329376"
       sodipodi:ry="15.579375"
       sodipodi:start="4.8365026"
       sodipodi:end="0.90214435"
       sodipodi:open="true"
       d="m 155.37529,-803.21442 a 34.329376,15.579375 0 0 1 28.81497,11.26997 34.329376,15.579375 0 0 1 -11.78302,16.41405"
       transform="scale(1,-1)" />
  </g>
</svg>
