<?xml version="1.0" encoding="UTF-8" standalone="no"?>
<!-- Created with Inkscape (http://www.inkscape.org/) -->

<!-- 
Artwork by John Samuel. 
This work is licensed under a Creative Commons Attribution-ShareAlike 4.0 International License. 
-->

<svg
   xmlns:osb="http://www.openswatchbook.org/uri/2009/osb"
   xmlns:dc="http://purl.org/dc/elements/1.1/"
   xmlns:cc="http://creativecommons.org/ns#"
   xmlns:rdf="http://www.w3.org/1999/02/22-rdf-syntax-ns#"
   xmlns:svg="http://www.w3.org/2000/svg"
   xmlns="http://www.w3.org/2000/svg"
   xmlns:sodipodi="http://sodipodi.sourceforge.net/DTD/sodipodi-0.dtd"
   xmlns:inkscape="http://www.inkscape.org/namespaces/inkscape"
   sodipodi:docname="flashlight-topview.svg"
   inkscape:version="0.91 r13725"
   version="1.1"
   id="svg2"
   viewBox="0 0 1052.3622 744.09448"
   height="210mm"
   width="297mm">
  <sodipodi:namedview
     showguides="false"
     inkscape:window-maximized="1"
     inkscape:window-y="0"
     inkscape:window-x="0"
     inkscape:window-height="847"
     inkscape:window-width="1600"
     showgrid="false"
     inkscape:current-layer="layer1"
     inkscape:document-units="px"
     inkscape:cy="603.12014"
     inkscape:cx="526.1811"
     inkscape:zoom="2.5371827"
     inkscape:pageshadow="2"
     inkscape:pageopacity="0.0"
     borderopacity="1.0"
     bordercolor="#666666"
     pagecolor="#ffffff"
     id="base"
     inkscape:guide-bbox="true">
    <sodipodi:guide
       id="guide4163"
       orientation="0,1052.3622"
       position="0,0" />
    <sodipodi:guide
       id="guide4165"
       orientation="-744.09449,0"
       position="1052.3622,0" />
    <sodipodi:guide
       id="guide4167"
       orientation="0,-1052.3622"
       position="1052.3622,744.09449" />
    <sodipodi:guide
       id="guide4169"
       orientation="744.09449,0"
       position="0,744.09449" />
    <sodipodi:guide
       id="guide4173"
       orientation="372.04721,0"
       position="-0.83367063,744.2915" />
    <sodipodi:guide
       id="guide4175"
       orientation="0,526.18108"
       position="-0.83367063,372.24429" />
    <sodipodi:guide
       id="guide4177"
       orientation="-372.04721,0"
       position="525.34742,372.24429" />
    <sodipodi:guide
       id="guide4179"
       orientation="0,-526.18108"
       position="525.34742,744.2915" />
    <inkscape:grid
       id="grid9321"
       type="xygrid" />
  </sodipodi:namedview>
  <defs
     id="defs4">
    <linearGradient
       osb:paint="solid"
       id="linearGradient4824">
      <stop
         id="stop4826"
         offset="0"
         style="stop-color:#000000;stop-opacity:1;" />
    </linearGradient>
  </defs>
  <metadata
     id="metadata7">
    <rdf:RDF>
      <cc:Work
         rdf:about="">
        <dc:format>image/svg+xml</dc:format>
        <dc:type
           rdf:resource="http://purl.org/dc/dcmitype/StillImage" />
        <dc:title></dc:title>
      </cc:Work>
    </rdf:RDF>
  </metadata>
  <g
     transform="translate(0,-308.26772)"
     id="layer1"
     inkscape:groupmode="layer"
     inkscape:label="Layer 1">
    <path
       style="opacity:0.98999999;fill:#42483b;fill-opacity:1;stroke:#42483b;stroke-width:1.5;stroke-linecap:round;stroke-linejoin:round;stroke-miterlimit:4;stroke-dasharray:none;stroke-dashoffset:0;stroke-opacity:1"
       id="path4347"
       sodipodi:type="arc"
       sodipodi:cx="-526.18237"
       sodipodi:cy="-343.26724"
       sodipodi:rx="107.92806"
       sodipodi:ry="27.896458"
       sodipodi:start="0"
       sodipodi:end="6.2433364"
       sodipodi:open="true"
       d="m -418.25431,-343.26724 a 107.92806,27.896458 0 0 1 -106.85288,27.89507 107.92806,27.896458 0 0 1 -108.98182,-27.33929 107.92806,27.896458 0 0 1 104.68151,-28.43978 107.92806,27.896458 0 0 1 111.06751,26.77265"
       transform="scale(-1,-1)" />
    <path
       transform="scale(-1,-1)"
       d="m -438.76064,-343.26724 a 87.42173,22.59613 0 0 1 -86.55083,22.59501 87.42173,22.59613 0 0 1 -88.27528,-22.14483 87.42173,22.59613 0 0 1 84.79202,-23.03622 87.42173,22.59613 0 0 1 89.96469,21.68584"
       sodipodi:open="true"
       sodipodi:end="6.2433364"
       sodipodi:start="0"
       sodipodi:ry="22.59613"
       sodipodi:rx="87.42173"
       sodipodi:cy="-343.26724"
       sodipodi:cx="-526.18237"
       sodipodi:type="arc"
       id="path4384"
       style="opacity:0.98999999;fill:#fdfd8a;fill-opacity:1;stroke:#fdfd8a;stroke-width:1.5;stroke-linecap:round;stroke-linejoin:round;stroke-miterlimit:4;stroke-dasharray:none;stroke-dashoffset:0;stroke-opacity:1" />
    <path
       style="opacity:0.98999999;fill:#ffff00;fill-opacity:1;stroke:#ffff00;stroke-width:1.5;stroke-linecap:round;stroke-linejoin:round;stroke-miterlimit:4;stroke-dasharray:none;stroke-dashoffset:0;stroke-opacity:1"
       id="path4386"
       sodipodi:type="arc"
       sodipodi:cx="525.67773"
       sodipodi:cy="422.08844"
       sodipodi:rx="26.754971"
       sodipodi:ry="81.379707"
       sodipodi:start="3.9342372"
       sodipodi:end="5.4962803"
       d="m 506.8967,364.12882 a 26.754971,81.379707 0 0 1 37.67113,0.32883"
       sodipodi:open="true" />
    <path
       style="opacity:0.98999999;fill:none;fill-opacity:1;stroke:#363b31;stroke-width:1.5;stroke-linecap:round;stroke-linejoin:round;stroke-miterlimit:4;stroke-dasharray:none;stroke-dashoffset:0;stroke-opacity:1"
       d="m 568.55984,496.73015 0,535.13285 m -80.29831,0 0,-535.13285"
       id="rect4316"
       inkscape:connector-curvature="0"
       sodipodi:nodetypes="cccc" />
    <path
       style="opacity:0.98999999;fill:none;fill-opacity:1;stroke:#363b31;stroke-width:1.5;stroke-linecap:round;stroke-linejoin:round;stroke-miterlimit:4;stroke-dasharray:none;stroke-dashoffset:0;stroke-opacity:1"
       d="m 418.04641,416.15633 0,-74.13361 m 216.26938,0 0,74.13361"
       id="rect4318"
       inkscape:connector-curvature="0"
       sodipodi:nodetypes="cccc" />
    <path
       style="fill:none;fill-rule:evenodd;stroke:#363b31;stroke-width:1.5;stroke-linecap:butt;stroke-linejoin:miter;stroke-miterlimit:4;stroke-dasharray:none;stroke-opacity:1"
       d="m 633.98927,415.43273 -66.00352,81.70621"
       id="path4320"
       inkscape:connector-curvature="0"
       sodipodi:nodetypes="cc" />
    <path
       inkscape:connector-curvature="0"
       id="path4322"
       d="m 418.9692,416.87403 70.23179,80.26491"
       style="fill:none;fill-rule:evenodd;stroke:#363b31;stroke-width:1.5;stroke-linecap:butt;stroke-linejoin:miter;stroke-miterlimit:4;stroke-dasharray:none;stroke-opacity:1"
       sodipodi:nodetypes="cc" />
    <path
       id="ellipse4349"
       style="opacity:0.98999999;fill:none;fill-opacity:1;stroke:#363b31;stroke-width:1.5;stroke-linecap:round;stroke-linejoin:round;stroke-miterlimit:4;stroke-dasharray:none;stroke-dashoffset:0;stroke-opacity:1"
       sodipodi:type="arc"
       sodipodi:cx="-526.37946"
       sodipodi:cy="412.00003"
       sodipodi:rx="107.73164"
       sodipodi:ry="27.897785"
       sodipodi:start="0"
       sodipodi:end="3.1638569"
       sodipodi:open="true"
       d="m -418.64781,412.00003 a 107.73164,27.897785 0 0 1 -54.55971,24.26305 107.73164,27.897785 0 0 1 -108.41658,-0.31255 107.73164,27.897785 0 0 1 -52.4603,-24.57157"
       transform="scale(-1,1)" />
    <path
       id="ellipse4353"
       style="opacity:0.98999999;fill:#363b31;fill-opacity:1;stroke:#363b31;stroke-width:1.54644346;stroke-linecap:round;stroke-linejoin:round;stroke-miterlimit:4;stroke-dasharray:none;stroke-dashoffset:0;stroke-opacity:1"
       sodipodi:type="arc"
       sodipodi:cx="-528.42651"
       sodipodi:cy="985.55206"
       sodipodi:rx="39.776272"
       sodipodi:ry="15.032449"
       sodipodi:start="0"
       sodipodi:end="3.2372016"
       sodipodi:open="true"
       d="m -488.65024,985.55206 a 39.776272,15.032449 0 0 1 -20.99587,13.25137 39.776272,15.032449 0 0 1 -40.82231,-0.73808 39.776272,15.032449 0 0 1 -17.55271,-13.94833"
       transform="scale(-1,1)" />
    <path
       style="opacity:0.98999999;fill:none;fill-opacity:1;stroke:#363b31;stroke-width:1.5;stroke-linecap:round;stroke-linejoin:round;stroke-miterlimit:4;stroke-dasharray:none;stroke-dashoffset:0;stroke-opacity:1"
       id="ellipse4359"
       transform="scale(-1,-1)"
       sodipodi:type="arc"
       sodipodi:cx="-528.82068"
       sodipodi:cy="-1031.2648"
       sodipodi:rx="40.19376"
       sodipodi:ry="13.996183"
       sodipodi:start="3.1415927"
       sodipodi:end="0.019988094"
       d="m -569.01444,-1031.2648 a 40.19376,13.996183 0 0 1 20.32925,-12.1674 40.19376,13.996183 0 0 1 40.42344,0.1407 40.19376,13.996183 0 0 1 19.6268,12.3065"
       sodipodi:open="true" />
    <path
       id="ellipse4361"
       style="opacity:0.98999999;fill:none;fill-opacity:1;stroke:#363b31;stroke-width:1.5;stroke-linecap:round;stroke-linejoin:round;stroke-miterlimit:4;stroke-dasharray:none;stroke-dashoffset:0;stroke-opacity:1"
       sodipodi:type="arc"
       sodipodi:cx="-528.82068"
       sodipodi:cy="-493.2648"
       sodipodi:rx="40.19376"
       sodipodi:ry="13.996183"
       sodipodi:start="3.2856573"
       sodipodi:end="6.0578508"
       d="m -568.59806,-495.27419 a 40.19376,13.996183 0 0 1 38.14456,-11.97524 40.19376,13.996183 0 0 1 40.81046,10.85743"
       transform="scale(-1,-1)"
       sodipodi:open="true" />
    <path
       style="opacity:0.98999999;fill:#363b31;fill-opacity:1;stroke:#363b31;stroke-width:1.68037713;stroke-linecap:round;stroke-linejoin:round;stroke-miterlimit:4;stroke-dasharray:none;stroke-dashoffset:0;stroke-opacity:1"
       d="m 489.17832,741.39024 c 0,-232.62693 -1.49405,-245.83198 0.37711,-244.15531 11.37602,10.19353 58.22054,12.94627 74.58712,3.47144 l 3.64994,-2.113 0,242.84211 0,242.84214 -9.26524,0.71764 c -5.09588,0.3947 -20.40169,5.46161 -36.92471,5.4653 l -32.42422,-4.73393 0,-244.33607 z"
       id="path9695"
       inkscape:connector-curvature="0"
       sodipodi:nodetypes="ssscccscccs" />
    <path
       style="opacity:0.98999999;fill:#363b31;fill-opacity:1;stroke:#363b31;stroke-width:1.70662117;stroke-linecap:round;stroke-linejoin:round;stroke-miterlimit:4;stroke-dasharray:none;stroke-dashoffset:0;stroke-opacity:1"
       d="m 495.05283,439.46254 c -1.84252,-0.25932 -8.12374,-1.02981 -13.95831,-1.71223 -22.7087,-2.65604 -44.42486,-8.69986 -54.06587,-15.04707 -8.2371,-5.42294 -8.46732,-6.58673 -8.46732,-42.8039 l 0,-31.34371 4.58534,3.44821 c 9.81063,7.37769 32.72958,13.9772 61.29784,17.65069 17.96658,2.31028 68.27723,1.93708 87.64099,-0.65009 26.62582,-3.55745 51.03013,-11.24753 58.36282,-18.39081 l 2.5125,-2.44759 0,33.43882 0,33.4388 -4.4846,6.08304 c -6.41827,8.70593 -25.45991,12.01853 -55.81526,16.76752 -8.07769,1.26373 -70.7705,2.53063 -77.60813,1.56832 z"
       id="path9697"
       inkscape:connector-curvature="0"
       sodipodi:nodetypes="sssscsssscccsss" />
    <path
       style="opacity:0.98999999;fill:#42483b;fill-opacity:1;stroke:#42483b;stroke-width:1.71594453;stroke-linecap:round;stroke-linejoin:round;stroke-miterlimit:4;stroke-dasharray:none;stroke-dashoffset:0;stroke-opacity:1"
       d="m 513.32726,505.64708 c -11.08954,-1.61117 -20.26186,-5.3012 -26.31345,-11.24809 -6.02026,-5.91609 -64.69656,-72.44023 -64.22038,-72.93557 0.16751,-0.17424 7.15064,2.77285 10.11632,4.06104 2.96568,1.28818 10.23859,4.00551 16.3547,5.13917 49.6103,9.19546 127.46011,7.98413 167.50318,-4.3138 4.29575,-1.31929 10.88504,-4.3883 10.88504,-4.3883 0,0 -54.12562,69.76448 -58.16899,73.75184 -5.44434,5.36895 -12.23287,6.596 -24.38901,8.74413 -10.49718,1.85498 -20.74916,2.79035 -31.76741,1.18958 z"
       id="path9699"
       inkscape:connector-curvature="0"
       sodipodi:nodetypes="sssssscsss" />
    <path
       style="opacity:0.98999999;fill:#30342b;fill-opacity:1;stroke:#30342b;stroke-width:1.73736155;stroke-linecap:round;stroke-linejoin:round;stroke-miterlimit:4;stroke-dasharray:none;stroke-dashoffset:0;stroke-opacity:1"
       d="m 505.50232,1041.9108 c -9.26347,-2.5592 -13.45298,-5.1087 -15.64715,-9.5222 -0.95037,-1.9115 -1.41264,-9.2651 -1.42398,-22.6514 l -0.0168,-19.8209 3.70238,2.33897 c 9.40421,5.94101 30.07149,9.07933 47.56142,7.22193 10.58413,-1.12398 25.57707,-5.53539 26.86918,-7.69655 2.16826,-3.62663 1.61071,1.45343 1.61071,20.65635 0,24.6788 0.18657,24.2529 -12.49419,28.5227 -11.09457,3.7354 -38.22089,4.2498 -50.16157,0.9511 z"
       id="path9701"
       inkscape:connector-curvature="0"
       sodipodi:nodetypes="scscsssscs" />
  </g>
</svg>
