<?xml version="1.0" encoding="UTF-8" standalone="no"?>
<!-- Created with Inkscape (http://www.inkscape.org/) -->

<!-- 
Artwork by John Samuel. 
This work is licensed under a Creative Commons Attribution-ShareAlike 4.0 International License. 
-->

<svg
   xmlns:osb="http://www.openswatchbook.org/uri/2009/osb"
   xmlns:dc="http://purl.org/dc/elements/1.1/"
   xmlns:cc="http://creativecommons.org/ns#"
   xmlns:rdf="http://www.w3.org/1999/02/22-rdf-syntax-ns#"
   xmlns:svg="http://www.w3.org/2000/svg"
   xmlns="http://www.w3.org/2000/svg"
   xmlns:sodipodi="http://sodipodi.sourceforge.net/DTD/sodipodi-0.dtd"
   xmlns:inkscape="http://www.inkscape.org/namespaces/inkscape"
   width="297mm"
   height="210mm"
   viewBox="0 0 1052.3622 744.09448"
   id="svg2"
   version="1.1"
   inkscape:version="0.91 r13725"
   sodipodi:docname="flower-bud.svg">
  <defs
     id="defs4">
    <linearGradient
       id="linearGradient4737"
       osb:paint="solid">
      <stop
         style="stop-color:#ffffff;stop-opacity:1;"
         offset="0"
         id="stop4739" />
    </linearGradient>
  </defs>
  <sodipodi:namedview
     id="base"
     pagecolor="#ffffff"
     bordercolor="#666666"
     borderopacity="1.0"
     inkscape:pageopacity="0.0"
     inkscape:pageshadow="2"
     inkscape:zoom="0.91603442"
     inkscape:cx="526.1811"
     inkscape:cy="372.04724"
     inkscape:document-units="px"
     inkscape:current-layer="layer1"
     showgrid="false"
     inkscape:window-width="1600"
     inkscape:window-height="847"
     inkscape:window-x="0"
     inkscape:window-y="0"
     inkscape:window-maximized="1"
     showguides="false"
     inkscape:guide-bbox="true"
     inkscape:snap-grids="false">
    <sodipodi:guide
       position="535.00043,129.23087"
       orientation="1,0"
       id="guide4174" />
    <sodipodi:guide
       position="527.61086,386.18939"
       orientation="0,1"
       id="guide4176" />
    <inkscape:grid
       type="xygrid"
       id="grid4811" />
  </sodipodi:namedview>
  <metadata
     id="metadata7">
    <rdf:RDF>
      <cc:Work
         rdf:about="">
        <dc:format>image/svg+xml</dc:format>
        <dc:type
           rdf:resource="http://purl.org/dc/dcmitype/StillImage" />
        <dc:title></dc:title>
      </cc:Work>
    </rdf:RDF>
  </metadata>
  <g
     inkscape:label="Layer 1"
     inkscape:groupmode="layer"
     id="layer1"
     transform="translate(0,-308.26772)">
    <path
       style="fill:none;fill-rule:evenodd;stroke:#80ff00;stroke-width:1.5;stroke-linecap:butt;stroke-linejoin:miter;stroke-miterlimit:4;stroke-dasharray:none;stroke-opacity:1"
       d="m 607.87205,603.61796 c -8.00662,26.94668 -20.96001,52.28414 -35.32948,77.96924"
       id="path6193"
       inkscape:connector-curvature="0"
       sodipodi:nodetypes="cc" />
    <path
       style="fill:none;fill-rule:evenodd;stroke:#80ff00;stroke-width:1.5;stroke-linecap:butt;stroke-linejoin:miter;stroke-miterlimit:4;stroke-dasharray:none;stroke-opacity:1"
       d="m 520.36553,785.07103 0.94103,79.99387"
       id="path7007"
       inkscape:connector-curvature="0"
       sodipodi:nodetypes="cc" />
    <path
       sodipodi:nodetypes="cc"
       inkscape:connector-curvature="0"
       id="path7009"
       d="m 548.84523,783.98317 0.14683,81.08173"
       style="fill:none;fill-rule:evenodd;stroke:#80ff00;stroke-width:1.5;stroke-linecap:butt;stroke-linejoin:miter;stroke-miterlimit:4;stroke-dasharray:none;stroke-opacity:1" />
    <path
       sodipodi:nodetypes="cccc"
       inkscape:connector-curvature="0"
       id="path6189"
       d="m 533.61149,603.61796 c 7.38641,24.85934 23.61216,50.20081 37.36379,74.14431 m 0,0 c 32.38618,45.1901 53.83374,85.40045 -24.63742,107.99105"
       style="fill:none;fill-rule:evenodd;stroke:#80ff00;stroke-width:1.5;stroke-linecap:butt;stroke-linejoin:miter;stroke-miterlimit:4;stroke-dasharray:none;stroke-opacity:1" />
    <path
       style="fill:none;fill-rule:evenodd;stroke:#80ff00;stroke-width:1.5;stroke-linecap:butt;stroke-linejoin:miter;stroke-miterlimit:4;stroke-dasharray:none;stroke-opacity:1"
       d="M 533.71172,603.61796 C 511.93346,675.39592 402.20133,751.19332 520.98535,785.75332"
       id="path6191"
       inkscape:connector-curvature="0"
       sodipodi:nodetypes="cc" />
    <path
       sodipodi:nodetypes="cc"
       inkscape:connector-curvature="0"
       id="path6197"
       d="m 463.68199,604.70582 c 8.00662,26.94668 16.5426,45.24039 30.91207,70.92549"
       style="fill:none;fill-rule:evenodd;stroke:#80ff00;stroke-width:1.5;stroke-linecap:butt;stroke-linejoin:miter;stroke-miterlimit:4;stroke-dasharray:none;stroke-opacity:1" />
    <path
       style="fill:none;fill-rule:evenodd;stroke:#80ff00;stroke-width:1px;stroke-linecap:butt;stroke-linejoin:miter;stroke-opacity:1"
       d="m 520.40305,865.50069 c 0,0 37.33685,2.74003 28.38321,-1.54383"
       id="path16810"
       inkscape:connector-curvature="0"
       sodipodi:nodetypes="cc" />
    <path
       style="opacity:0.98999999;fill:#4d9306;fill-opacity:1;stroke:#4d9306;stroke-width:2.24706388;stroke-linecap:round;stroke-linejoin:round;stroke-miterlimit:4;stroke-dasharray:none;stroke-dashoffset:0;stroke-opacity:1"
       d="m 527.26179,557.3538 c -1.37981,-0.0631 -3.20347,-0.20804 -4.05259,-0.32216 l -1.54384,-0.20749 -0.14499,-22.85761 c -0.0797,-12.57169 -0.25344,-30.5556 -0.38596,-39.96425 l -0.24097,-17.10663 -6.17537,-2.04895 c -19.77604,-6.56156 -33.14278,-14.54333 -40.42738,-24.14065 -2.31162,-3.04551 -5.0335,-8.56056 -5.90508,-11.96479 -1.51651,-5.92326 -1.28204,-14.13666 0.61341,-21.48797 3.41582,-13.24788 10.34274,-26.32632 29.50338,-55.70419 5.05346,-7.74816 10.67156,-16.43228 12.48467,-19.29804 9.91716,-15.67483 17.73344,-30.72816 21.49899,-41.40484 0.58228,-1.65095 1.10539,-2.95357 1.16248,-2.8947 0.0571,0.0589 0.91229,2.33969 1.90045,5.0685 3.50502,9.67922 9.75858,22.84809 16.94562,35.68442 5.1962,9.28062 18.35068,31.80658 18.99308,32.52407 0.30006,0.33513 0.54556,0.79439 0.54556,1.02058 0,0.22618 0.47762,0.9243 1.06139,1.55138 1.62498,1.74556 8.45414,11.94647 12.44309,18.58659 6.38238,10.62431 10.48429,19.65573 12.63903,27.82808 1.32238,5.01546 1.65624,13.61843 0.69598,17.9346 -2.1237,9.54563 -8.0198,17.24281 -18.52387,24.18236 -7.74896,5.11939 -20.31303,10.56186 -30.2189,13.09016 -1.11446,0.28444 -2.02629,0.65802 -2.02629,0.83017 0,0.17214 -0.34737,0.31299 -0.77192,0.31299 -0.50198,0 -0.77193,0.25731 -0.77193,0.73579 0,0.52379 0.20412,0.68241 0.70844,0.55053 0.67839,-0.17741 0.71929,0.6874 0.9645,20.39556 0.14084,11.31946 0.25625,29.02927 0.25647,39.35513 3.7e-4,17.51041 0.0459,18.79415 0.67583,19.0692 1.39917,0.61091 -1.69852,0.85405 -10.51743,0.82553 -4.88241,-0.0158 -10.00604,-0.0803 -11.38585,-0.14337 z"
       id="path16812"
       inkscape:connector-curvature="0"
       transform="translate(0,308.26772)" />
    <path
       style="opacity:0.98999999;fill:#4d9306;fill-opacity:1;stroke:#4d9306;stroke-width:2.24706388;stroke-linecap:round;stroke-linejoin:round;stroke-miterlimit:4;stroke-dasharray:none;stroke-dashoffset:0;stroke-opacity:1"
       d="m 581.89529,462.7832 c 5.14865,-3.4722 11.71022,-10.05792 14.14785,-14.19993 9.69987,-16.48195 4.77766,-36.4459 -16.82695,-68.24828 -2.57081,-3.78428 -4.84788,-7.13099 -5.06016,-7.43713 -0.27371,-0.39475 -0.1782,-0.91928 0.32842,-1.80361 2.71257,-4.73488 9.58893,-17.75777 13.58576,-25.72955 7.5378,-15.03434 14.02165,-30.2381 17.58195,-41.22726 0.70494,-2.17586 1.37504,-3.95467 1.48911,-3.95292 0.24475,0.004 0.79594,0.99067 5.81835,10.41776 20.27137,38.0495 28.12408,70.23657 23.11706,94.75338 -4.9652,24.31204 -21.89407,43.15002 -51.57318,57.38923 -3.01231,1.44523 -5.69537,2.62768 -5.96235,2.62768 -0.26699,0 1.24237,-1.16522 3.35414,-2.58937 z"
       id="path16814"
       inkscape:connector-curvature="0"
       transform="translate(0,308.26772)" />
    <path
       style="opacity:0.98999999;fill:#4d9306;fill-opacity:1;stroke:#4d9306;stroke-width:2.24706388;stroke-linecap:round;stroke-linejoin:round;stroke-miterlimit:4;stroke-dasharray:none;stroke-dashoffset:0;stroke-opacity:1"
       d="m 489.82359,774.84992 c -16.21823,-7.09525 -27.9571,-14.61061 -37.38288,-23.93295 -27.93411,-27.62756 -28.22805,-66.52339 -0.92042,-121.79814 4.37655,-8.8588 11.59212,-22.21615 11.99738,-22.20938 0.13946,0.002 0.76839,1.69574 1.39761,3.76312 5.85178,19.22668 15.91592,41.98574 27.58585,62.38265 l 1.15619,2.02081 -1.30572,1.93889 c -3.05853,4.54165 -9.49238,15.09097 -12.97143,21.26871 -11.66028,20.70509 -15.45286,36.06736 -12.13678,49.16127 0.9604,3.79226 4.08404,9.80545 6.92861,13.33801 4.23523,5.25955 10.94778,10.46731 18.85677,14.62952 2.16431,1.139 3.67458,2.06725 3.35616,2.0628 -0.31842,-0.004 -3.27102,-1.18584 -6.56134,-2.62531 z"
       id="path16816"
       inkscape:connector-curvature="0" />
    <path
       style="opacity:0.98999999;fill:#ce2194;fill-opacity:1;stroke:#ce2194;stroke-width:2.24706388;stroke-linecap:round;stroke-linejoin:round;stroke-miterlimit:4;stroke-dasharray:none;stroke-dashoffset:0;stroke-opacity:1"
       d="m 571.96222,369.76258 c -1.39082,-2.11145 -15.92072,-27.15376 -19.35773,-33.36308 -4.0765,-7.36462 -9.38483,-18.05473 -12.13921,-24.44635 -2.4684,-5.72802 -5.87023,-14.86867 -5.87023,-15.7732 0,-0.29706 -0.33316,-0.62723 -0.74035,-0.73372 -0.63691,-0.16655 -0.93071,0.35747 -2.10281,3.75058 -3.68941,10.68041 -10.54128,24.26612 -19.67027,39.00167 -4.02334,6.49427 -16.77625,26.09656 -17.39868,26.74321 -0.38556,0.40058 -1.20156,-0.84405 -4.17518,-6.36835 -7.45763,-13.85453 -13.07923,-25.69527 -17.52993,-36.92316 -1.91266,-4.82512 -6.65574,-18.45605 -8.03646,-23.09566 l -0.54156,-1.81981 4.33795,-7.25027 c 12.87694,-21.52202 28.52906,-44.70144 54.4143,-80.58283 5.51304,-7.64203 10.44773,-14.45542 10.96597,-15.14088 l 0.94226,-1.24628 0.15797,0.2188 9.38,12.99227 c 27.89336,38.63518 44.72937,63.66768 57.78656,85.91948 l 3.93685,6.70912 -2.26714,6.62801 c -4.39461,12.84762 -8.92701,23.38859 -17.02065,39.5847 -5.12472,10.25505 -10.92288,21.28539 -13.24428,25.19575 l -0.86623,1.45916 z"
       id="path16818"
       inkscape:connector-curvature="0"
       transform="translate(0,308.26772)"
       sodipodi:nodetypes="sssscsscssscsssccsscssscs" />
  </g>
</svg>
