<?xml version="1.0" encoding="UTF-8" standalone="no"?>
<!-- Created with Inkscape (http://www.inkscape.org/) -->

<svg
   width="297mm"
   height="210mm"
   viewBox="0 0 297 210"
   version="1.1"
   id="svg1"
   inkscape:version="1.3.1 (9b9bdc1480, 2023-11-25, custom)"
   sodipodi:docname="JS.svg"
   xmlns:inkscape="http://www.inkscape.org/namespaces/inkscape"
   xmlns:sodipodi="http://sodipodi.sourceforge.net/DTD/sodipodi-0.dtd"
   xmlns="http://www.w3.org/2000/svg"
   xmlns:svg="http://www.w3.org/2000/svg">
  <sodipodi:namedview
     id="namedview1"
     pagecolor="#ffffff"
     bordercolor="#000000"
     borderopacity="0.25"
     inkscape:showpageshadow="2"
     inkscape:pageopacity="0.0"
     inkscape:pagecheckerboard="0"
     inkscape:deskcolor="#d1d1d1"
     inkscape:document-units="mm"
     inkscape:zoom="0.92292368"
     inkscape:cx="560.71809"
     inkscape:cy="396.56584"
     inkscape:window-width="1850"
     inkscape:window-height="1010"
     inkscape:window-x="0"
     inkscape:window-y="0"
     inkscape:window-maximized="1"
     inkscape:current-layer="layer1"
     showgrid="false" />
  <defs
     id="defs1" />
  <g
     inkscape:label="Calque 1"
     inkscape:groupmode="layer"
     id="layer1">
    <path
       d="m 25.079395,188.2256 c -4.703827,-6.31404 -4.973636,-12.94481 0,-19.9501 12.91297,4.96749 25.228116,7.45124 36.945441,7.45124 12.83326,0 22.95639,-3.16478 30.369394,-9.49433 7.412998,-6.40967 11.1195,-15.5034 11.1195,-27.28117 V 17.207509 c 10.51875,-3.62102 15.81048,-2.402432 22.23901,0 V 138.71088 c 0,17.30612 -5.61954,31.08691 -16.8586,41.34239 -11.159362,10.17536 -26.18464,15.26303 -45.075836,15.26303 -17.297003,0 -30.209972,-2.36356 -38.738909,-7.0907 z"
       id="text2"
       style="font-size:245.499px;font-family:'Noto Mono';-inkscape-font-specification:'Noto Mono';text-align:center;text-anchor:middle;fill:#1873b9;stroke-width:0.793751"
       aria-label="J"
       sodipodi:nodetypes="ccscsccscsc" />
    <path
       d="m 162.44232,187.02379 c -6.38676,-8.49897 -3.03013,-14.91066 0,-21.39229 16.81874,6.8904 33.31865,10.3356 49.49971,10.3356 27.8984,0 41.84759,-9.6145 41.84759,-28.84352 0,-8.33259 -2.82969,-14.74226 -8.48908,-19.22902 -5.57967,-4.48677 -16.93831,-9.81481 -34.07589,-15.98413 -16.57962,-5.84883 -28.49622,-12.819348 -35.7498,-20.911558 -7.17387,-8.172335 -10.76081,-18.748294 -10.76081,-31.727883 0,-13.941039 5.10142,-24.837483 15.30426,-32.689333 10.28255,-7.931971 24.35131,-11.897956 42.20628,-11.897956 18.25353,0 34.83314,3.124716 49.73885,9.374147 0.33545,9.04215 -3.19096,14.776307 -7.65213,19.709746 -15.38397,-6.249431 -29.73172,-9.374147 -43.04323,-9.374147 -23.35495,0 -35.03241,8.372635 -35.03241,25.117905 0,8.172335 2.59056,14.74225 7.7717,19.709746 5.26083,4.967495 16.0615,10.295536 32.40198,15.984121 19.60859,7.050642 32.68098,14.341652 39.21717,21.873012 6.61591,7.45125 9.92385,17.06575 9.92385,28.84353 0,15.38322 -5.53981,27.48147 -16.61946,36.29477 -10.99993,8.73318 -26.66289,13.09977 -46.98887,13.09977 -21.12306,0 -37.62296,-2.76417 -49.49971,-8.29251 z"
       id="text2-7"
       style="font-size:245.499px;font-family:'Noto Mono';-inkscape-font-specification:'Noto Mono';text-align:center;text-anchor:middle;fill:#1873b9;stroke-width:0.793751"
       aria-label="S"
       sodipodi:nodetypes="ccsscccscsccsscccscsc" />
  </g>
</svg>
