<?xml version="1.0" encoding="UTF-8" standalone="no"?>
<!-- Created with Inkscape (http://www.inkscape.org/) -->

<svg
   width="297mm"
   height="210mm"
   viewBox="0 0 297 210"
   version="1.1"
   id="svg1"
   inkscape:version="1.3 (0e150ed6c4, 2023-07-21)"
   sodipodi:docname="JS.svg"
   xmlns:inkscape="http://www.inkscape.org/namespaces/inkscape"
   xmlns:sodipodi="http://sodipodi.sourceforge.net/DTD/sodipodi-0.dtd"
   xmlns="http://www.w3.org/2000/svg"
   xmlns:svg="http://www.w3.org/2000/svg">
  <sodipodi:namedview
     id="namedview1"
     pagecolor="#ffffff"
     bordercolor="#000000"
     borderopacity="0.25"
     inkscape:showpageshadow="2"
     inkscape:pageopacity="0.0"
     inkscape:pagecheckerboard="0"
     inkscape:deskcolor="#d1d1d1"
     inkscape:document-units="mm"
     inkscape:zoom="1.0636785"
     inkscape:cx="561.25984"
     inkscape:cy="451.73426"
     inkscape:window-width="1920"
     inkscape:window-height="1121"
     inkscape:window-x="-9"
     inkscape:window-y="-9"
     inkscape:window-maximized="1"
     inkscape:current-layer="layer1" />
  <defs
     id="defs1" />
  <g
     inkscape:label="Calque 1"
     inkscape:groupmode="layer"
     id="layer1">
    <path
       d="m 21.519011,138.64281 h 20.194471 c 0.531886,12.76527 2.925373,21.25543 7.180462,25.96642 4.255088,4.71099 10.143826,7.06648 17.666215,7.06648 5.546812,0 10.333787,-1.25373 14.360924,-3.76119 4.027137,-2.58345 6.800543,-6.04071 8.320218,-10.37178 1.519674,-4.40705 2.279511,-11.39756 2.279511,-20.97151 V 21.455891 H 113.63208 V 135.3175 c 0,13.98101 -1.70964,24.80869 -5.12891,32.48304 -3.34328,7.67436 -8.700131,13.52511 -16.070553,17.55224 -7.294437,4.02714 -15.880598,6.04071 -25.758482,6.04071 -14.664859,0 -25.91045,-4.2171 -33.736773,-12.65129 -7.75034,-8.43419 -11.722286,-23.45895 -11.418351,-40.09939 z m 120.472199,-5.77116 h 21.10627 c 0.98779,8.35821 3.2673,15.40107 6.83853,20.79592 3.64722,5.31886 9.27002,9.64993 16.86839,12.99322 7.59837,3.2673 16.14654,4.90095 25.64451,4.90095 8.43419,0 15.8806,-1.25373 22.33921,-3.7612 6.45862,-2.50746 11.2456,-5.92673 14.36093,-10.2578 3.19131,-4.40705 4.78697,-9.19403 4.78697,-14.36092 0,-5.24288 -1.51967,-9.8019 -4.55902,-13.67707 -3.03935,-3.95116 -8.05428,-7.25645 -15.04478,-9.91588 -4.48304,-1.74763 -14.39892,-4.44505 -29.74763,-8.09227 -15.34871,-3.7232 -26.10041,-7.21845 -32.25509,-10.48575 -7.97829,-4.179105 -13.94301,-9.345999 -17.89417,-15.50068 -3.87517,-6.230665 -5.81275,-13.183176 -5.81275,-20.857532 0,-8.434193 2.39349,-16.298509 7.18046,-23.592946 4.78697,-7.370421 11.77748,-12.955225 20.97151,-16.754411 9.19403,-3.799187 19.41384,-5.69878 30.65943,-5.69878 12.38535,0 23.28901,2.013569 32.71099,6.040706 9.49797,3.951154 16.79241,9.801901 21.88332,17.55224 5.09091,7.75034 8.32381,18.122119 8.70373,27.924019 h -21.69695 c -1.13975,-10.561738 -5.01492,-18.540029 -11.62551,-23.934873 -6.5346,-5.394845 -16.22252,-8.092267 -29.06377,-8.092267 -13.37314,0 -23.13705,2.469471 -29.29173,7.408413 -6.0787,4.862959 -9.11805,10.751697 -9.11805,17.666216 0,6.002714 2.16554,10.941656 6.49661,14.816826 4.25509,3.87517 15.34872,7.864315 33.28087,11.967436 18.00815,4.027137 30.3555,7.560382 37.04207,10.599733 9.72591,4.48304 16.90637,10.18182 21.54138,17.09633 4.63501,6.83854 6.95251,14.74085 6.95251,23.70693 0,8.89009 -2.54545,17.28629 -7.63636,25.1886 -5.09091,7.82633 -12.42334,13.94302 -21.99729,18.35007 -9.49797,4.33107 -20.21167,6.49661 -32.14111,6.49661 -15.12076,0 -27.81004,-2.20353 -38.06785,-6.61059 -10.18182,-4.40705 -18.1981,-11.01764 -24.04885,-19.83175 -5.77476,-8.89009 -9.06285,-20.90989 -9.36678,-32.0795 z"
       id="text1"
       style="font-size:233.422px;font-family:Arial;-inkscape-font-specification:Arial;text-align:center;text-anchor:middle;fill:#1873b9;stroke:#1873b9;stroke-width:3.64726"
       aria-label="JS"
       sodipodi:nodetypes="ccssccsccsccsccccccsscscccccscsscscccscsccccsccsccc" />
  </g>
</svg>
