<?xml version="1.0" encoding="UTF-8" standalone="no"?>
<!-- Created with Inkscape (http://www.inkscape.org/) -->

<!-- 
Artwork by John Samuel. 
This work is licensed under a Creative Commons Attribution-ShareAlike 4.0 International License. 
-->

<svg
   xmlns:osb="http://www.openswatchbook.org/uri/2009/osb"
   xmlns:dc="http://purl.org/dc/elements/1.1/"
   xmlns:cc="http://creativecommons.org/ns#"
   xmlns:rdf="http://www.w3.org/1999/02/22-rdf-syntax-ns#"
   xmlns:svg="http://www.w3.org/2000/svg"
   xmlns="http://www.w3.org/2000/svg"
   xmlns:sodipodi="http://sodipodi.sourceforge.net/DTD/sodipodi-0.dtd"
   xmlns:inkscape="http://www.inkscape.org/namespaces/inkscape"
   width="297mm"
   height="210mm"
   viewBox="0 0 1052.3622 744.09448"
   id="svg2"
   version="1.1"
   inkscape:version="0.92.5 (2060ec1f9f, 2020-04-08)"
   sodipodi:docname="juggling.svg">
  <defs
     id="defs4">
    <linearGradient
       id="linearGradient2636"
       osb:paint="solid">
      <stop
         style="stop-color:#d73976;stop-opacity:1;"
         offset="0"
         id="stop2634" />
    </linearGradient>
    <linearGradient
       id="linearGradient4824"
       osb:paint="solid">
      <stop
         style="stop-color:#000000;stop-opacity:1;"
         offset="0"
         id="stop4826" />
    </linearGradient>
  </defs>
  <sodipodi:namedview
     id="base"
     pagecolor="#ffffff"
     bordercolor="#666666"
     borderopacity="1.0"
     inkscape:pageopacity="0.0"
     inkscape:pageshadow="2"
     inkscape:zoom="0.82492985"
     inkscape:cx="561.25984"
     inkscape:cy="396.85039"
     inkscape:document-units="px"
     inkscape:current-layer="g2892"
     showgrid="false"
     inkscape:window-width="1600"
     inkscape:window-height="851"
     inkscape:window-x="0"
     inkscape:window-y="25"
     inkscape:window-maximized="1"
     showguides="false">
    <sodipodi:guide
       position="0,0"
       orientation="0,1052.3622"
       id="guide4163"
       inkscape:locked="false" />
    <sodipodi:guide
       position="1052.3622,0"
       orientation="-744.09449,0"
       id="guide4165"
       inkscape:locked="false" />
    <sodipodi:guide
       position="1052.3622,744.09449"
       orientation="0,-1052.3622"
       id="guide4167"
       inkscape:locked="false" />
    <sodipodi:guide
       position="0,744.09449"
       orientation="744.09449,0"
       id="guide4169"
       inkscape:locked="false" />
    <sodipodi:guide
       position="-0.83367063,744.2915"
       orientation="372.04721,0"
       id="guide4173"
       inkscape:locked="false" />
    <sodipodi:guide
       position="-0.83367063,372.24429"
       orientation="0,526.18108"
       id="guide4175"
       inkscape:locked="false" />
    <sodipodi:guide
       position="525.34742,372.24429"
       orientation="-372.04721,0"
       id="guide4177"
       inkscape:locked="false" />
    <sodipodi:guide
       position="525.34742,744.2915"
       orientation="0,-526.18108"
       id="guide4179"
       inkscape:locked="false" />
  </sodipodi:namedview>
  <metadata
     id="metadata7">
    <rdf:RDF>
      <cc:Work
         rdf:about="">
        <dc:format>image/svg+xml</dc:format>
        <dc:type
           rdf:resource="http://purl.org/dc/dcmitype/StillImage" />
        <dc:title></dc:title>
      </cc:Work>
    </rdf:RDF>
  </metadata>
  <g
     inkscape:label="Layer 1"
     inkscape:groupmode="layer"
     id="layer1"
     transform="translate(0,-308.26772)">
    <g
       id="g980"
       style="stroke:#a75432;stroke-opacity:1"
       transform="matrix(1.5513283,0,0,1.5513283,-271.63562,-489.99237)">
      <g
         id="g2785">
        <g
           id="g2860">
          <ellipse
             id="path896"
             style="opacity:0.97000002;fill:#322e3d;fill-opacity:1;fill-rule:nonzero;stroke:#322e3d;stroke-width:1.875;stroke-linecap:round;stroke-linejoin:round;stroke-miterlimit:4;stroke-dasharray:none;stroke-dashoffset:0;stroke-opacity:1"
             cx="316.44269"
             cy="806.24597"
             rx="91.814056"
             ry="91.968117" />
          <path
             sodipodi:nodetypes="ccccccccccccccccssccccsscccscccc"
             inkscape:connector-curvature="0"
             d="m 221.00872,889.2112 c -14.73394,-6.52288 -32.01758,-16.24345 -43.86921,-40.58174 14.14845,-26.88255 22.27686,-53.73204 37.40699,-60.2699 8.83933,-3.31362 6.79813,2.27376 8.47245,4.82159 m 17.43949,119.15294 50.83543,30.42897 45.32272,0.56824 28.13134,-10.22816 10.59518,-15.29032 m 0,0 c 12.47366,-21.51838 21.49186,-41.10802 34.97464,-66.14697 1.32942,-15.65845 10.06174,-37.71267 6.33277,-48.92613 0.85674,-6.1265 -12.99203,-30.67259 -26.31279,8.55106 -6.71368,24.13436 -4.1772,11.79258 -11.97759,35.85656 l -34.73075,52.98237 c 7.95174,-19.91343 13.53798,-29.17802 19.90781,-57.55692 l 5.80687,-33.83718 c 10.83232,-63.12087 -21.67578,-53.08019 -34.2509,-14.44684 l -14.86596,45.67127 c -7.17345,30.55956 -4.96116,53.11657 -8.19393,46.89441 l -7.30381,-9.38639 c -5.88225,-9.01609 -6.23261,-9.30441 -18.75185,-29.45906 l 29.62336,-53.29316 c 22.3703,-40.24474 -14.7819,-45.91355 -32.54763,-8.19926 -6.00399,12.74566 -37.22917,61.62224 -37.19318,61.89673 9.0831,7.99754 47.93065,63.58376 33.55961,43.16869 l -50.35117,-51.19104 29.98819,-56.85124 c 7.14442,-13.5443 -11.5379,-24.83858 -17.27554,-16.62603 l -35.20505,60.01861 -11.90594,26.0511 45.78817,59.35069"
             style="fill:#a75432;fill-opacity:1;fill-rule:evenodd;stroke:#a75432;stroke-width:1.875;stroke-linecap:butt;stroke-linejoin:miter;stroke-miterlimit:4;stroke-dasharray:none;stroke-opacity:1"
             id="path892" />
          <path
             sodipodi:nodetypes="cccccc"
             inkscape:connector-curvature="0"
             id="rect872"
             d="m 395.75193,806.5977 c 1.03632,-4.17823 2.11617,-7.38217 4.65389,-10.38112 3.30672,-3.65053 11.80047,-5.84095 13.75242,6.12327 0.40656,4.26879 0.1279,6.82454 0.0356,9.84617 -6.71701,-0.154 -12.77936,-3.0617 -18.44186,-5.58832 z"
             inkscape:transform-center-y="-1.3588808"
             inkscape:transform-center-x="-8.7423263"
             style="opacity:0.97000002;fill:#d1a19b;fill-opacity:1;fill-rule:nonzero;stroke:#d1a19b;stroke-width:1.875;stroke-linecap:round;stroke-linejoin:round;stroke-miterlimit:4;stroke-dasharray:none;stroke-dashoffset:0;stroke-opacity:1" />
          <path
             sodipodi:nodetypes="ccccc"
             inkscape:connector-curvature="0"
             id="rect874"
             d="m 343.16795,782.93687 c 2.70997,-5.09877 4.10947,-7.8961 10.95557,-13.57829 6.19406,-0.30346 9.19426,-0.88275 14.05506,6.70965 -0.34642,6.55714 -0.4243,7.99787 -1.85938,12.86285 -8.13505,2.55326 -25.23162,-5.17434 -23.15125,-5.99421 z"
             inkscape:transform-center-y="-1.6793835"
             inkscape:transform-center-x="-7.8929951"
             style="opacity:0.97000002;fill:#d1a19b;fill-opacity:1;fill-rule:nonzero;stroke:#d1a19b;stroke-width:1.875;stroke-linecap:round;stroke-linejoin:round;stroke-miterlimit:4;stroke-dasharray:none;stroke-dashoffset:0;stroke-opacity:1" />
          <path
             sodipodi:nodetypes="ccccc"
             inkscape:connector-curvature="0"
             id="rect876"
             d="m 291.2472,779.39097 c 5.17823,-7.00276 7.48834,-12.00281 15.33017,-13.42996 7.70707,-0.3499 10.12008,2.67882 11.05696,10.91209 -2.23524,6.57847 -1.33889,8.1867 -6.5714,13.7586 -10.66381,-4.5746 -13.79905,-3.48287 -19.81573,-11.24073 z"
             inkscape:transform-center-y="-0.17020253"
             inkscape:transform-center-x="-8.9885266"
             style="opacity:0.97000002;fill:#d1a19b;fill-opacity:1;fill-rule:nonzero;stroke:#d1a19b;stroke-width:1.875;stroke-linecap:round;stroke-linejoin:round;stroke-miterlimit:4;stroke-dasharray:none;stroke-dashoffset:0;stroke-opacity:1" />
          <path
             sodipodi:nodetypes="ccccc"
             inkscape:connector-curvature="0"
             id="rect878"
             d="m 249.10092,790.66014 c -4.75488,-1.61578 -9.32244,-4.45735 -13.38616,-10.59646 4.14546,-5.73523 4.06928,-7.5479 9.97808,-12.02398 6.62006,-0.81052 10.15486,3.73306 11.56285,8.18147 -2.28194,6.71667 -5.18976,10.70255 -8.15477,14.43897 z"
             inkscape:transform-center-y="-6.7221495"
             inkscape:transform-center-x="-0.083158363"
             style="opacity:0.97000002;fill:#d1a19b;fill-opacity:1;fill-rule:nonzero;stroke:#d1a19b;stroke-width:1.875;stroke-linecap:round;stroke-linejoin:round;stroke-miterlimit:4;stroke-dasharray:none;stroke-dashoffset:0;stroke-opacity:1" />
          <path
             sodipodi:nodetypes="cc"
             inkscape:connector-curvature="0"
             id="path905"
             d="m 322.10221,839.96004 c -7.65935,-2.4873 29.1534,12.80116 41.97116,3.81815"
             style="fill:none;fill-rule:evenodd;stroke:#b5613f;stroke-width:1.875;stroke-linecap:butt;stroke-linejoin:miter;stroke-miterlimit:4;stroke-dasharray:none;stroke-opacity:1" />
          <path
             sodipodi:nodetypes="cc"
             inkscape:connector-curvature="0"
             id="path907"
             d="m 378.36014,847.14734 c 10.38467,5.09306 20.76934,5.83495 31.15401,4.5185"
             style="fill:none;fill-rule:evenodd;stroke:#b5613f;stroke-width:1.875;stroke-linecap:butt;stroke-linejoin:miter;stroke-miterlimit:4;stroke-dasharray:none;stroke-opacity:1" />
          <path
             sodipodi:nodetypes="cc"
             inkscape:connector-curvature="0"
             id="path909"
             d="m 245.86017,848.41331 c 14.50345,9.84016 31.55237,8.20548 40.11745,-0.4043"
             style="fill:none;fill-rule:evenodd;stroke:#b5613f;stroke-width:1.875;stroke-linecap:butt;stroke-linejoin:miter;stroke-miterlimit:4;stroke-dasharray:none;stroke-opacity:1" />
          <path
             sodipodi:nodetypes="cc"
             inkscape:connector-curvature="0"
             id="path911"
             d="m 229.06861,840.39097 c -18.91295,-2.31184 -26.07921,-6.86116 -22.4924,-13.45867"
             style="fill:none;fill-rule:evenodd;stroke:#b5613f;stroke-width:1.875;stroke-linecap:butt;stroke-linejoin:miter;stroke-miterlimit:4;stroke-dasharray:none;stroke-opacity:1" />
          <path
             style="fill:none;fill-rule:evenodd;stroke:#000000;stroke-width:0.9375px;stroke-linecap:butt;stroke-linejoin:miter;stroke-opacity:1"
             d="M 244.7731,966.96934 Z"
             id="path2684"
             inkscape:connector-curvature="0" />
          <path
             id="path2686"
             style="fill:#a75432;fill-opacity:1;fill-rule:evenodd;stroke:#a75432;stroke-width:0.9375px;stroke-linecap:butt;stroke-linejoin:miter;stroke-opacity:1"
             d="m 353.05281,993.67903 c -35.11015,-2.51317 -70.21236,-4.9747 -108.27971,-26.70969 m 119.97483,-33.8662 -11.69512,60.57589 m -95.25594,-71.03164 -13.02377,44.32195 v 0"
             inkscape:connector-curvature="0" />
          <path
             sodipodi:nodetypes="cscsccccccc"
             style="opacity:1;fill:#914a35;fill-opacity:1;fill-rule:nonzero;stroke:#914a35;stroke-width:0.78329736;stroke-linecap:round;stroke-linejoin:round;stroke-miterlimit:4;stroke-dasharray:none;stroke-dashoffset:0;stroke-opacity:1"
             d="m 350.48931,992.79607 c -3.61998,-0.66493 -115.21786,2.74045 -115.21786,2.50648 0,-0.67483 22.68264,-70.639 22.91003,-70.72161 0.17439,-0.0634 7.62869,4.24376 16.5651,9.57139 l 16.24801,9.68659 22.84207,0.32683 22.84206,0.32683 13.42595,-4.88964 c 7.38427,-2.68931 13.47368,-4.8419 13.53203,-4.78356 0.0959,0.0959 -10.47228,55.28904 -10.98726,57.382 -0.21792,0.88568 0.40337,1.47765 -2.16013,0.59469 z"
             id="path2691"
             inkscape:connector-curvature="0" />
          <path
             style="opacity:1;fill:#a75432;fill-opacity:1;fill-rule:nonzero;stroke:#a75432;stroke-width:0.92017192;stroke-linecap:round;stroke-linejoin:round;stroke-miterlimit:4;stroke-dasharray:none;stroke-dashoffset:0;stroke-opacity:1"
             d="m 209.67612,872.56557 c -8.14074,-9.15862 -15.11413,-17.10509 -15.4964,-17.65883 -0.64748,-0.93793 -0.31181,-1.73863 4.90441,-11.69928 3.07971,-5.88086 5.62985,-10.73958 5.667,-10.79714 0.0372,-0.0576 1.07361,0.73358 2.30327,1.75816 2.67418,2.22817 7.5187,4.08253 14.35264,5.49382 4.65836,0.96202 4.81562,1.03304 4.59011,2.07289 -0.12842,0.59221 -0.38293,9.73498 -0.56556,20.31724 -0.18263,10.58227 -0.472,21.02355 -0.64306,23.20283 l -0.31102,3.96233 z"
             id="path2693"
             inkscape:connector-curvature="0" />
          <path
             style="opacity:1;fill:#a75432;fill-opacity:1;fill-rule:nonzero;stroke:#a75432;stroke-width:0.83952534;stroke-linecap:round;stroke-linejoin:round;stroke-miterlimit:4;stroke-dasharray:none;stroke-dashoffset:0;stroke-opacity:1"
             d="m 216.57564,836.68988 c -4.13241,-1.12088 -8.10005,-3.03062 -9.61986,-4.63032 -0.7165,-0.75418 -0.98218,-1.51469 -0.97074,-2.77875 0.0136,-1.49735 1.18608,-3.70903 8.39679,-15.83851 4.60957,-7.75397 8.41594,-14.04649 8.45861,-13.98337 0.0426,0.0632 -0.063,5.84377 -0.2347,12.84588 -0.17175,7.00213 -0.32855,15.59564 -0.34847,19.09671 -0.0423,7.43556 0.47151,6.95733 -5.68163,5.28836 z"
             id="path2695"
             inkscape:connector-curvature="0" />
        </g>
        <g
           id="g2892"
           transform="matrix(-1,0,0,1,1030.7091,2.7351714)">
          <ellipse
             ry="91.968117"
             rx="91.814056"
             cy="806.24597"
             cx="316.44269"
             style="opacity:0.97000002;fill:#322e3d;fill-opacity:1;fill-rule:nonzero;stroke:#322e3d;stroke-width:1.875;stroke-linecap:round;stroke-linejoin:round;stroke-miterlimit:4;stroke-dasharray:none;stroke-dashoffset:0;stroke-opacity:1"
             id="ellipse2862" />
          <path
             id="path2864"
             style="fill:#a75432;fill-opacity:1;fill-rule:evenodd;stroke:#a75432;stroke-width:1.875;stroke-linecap:butt;stroke-linejoin:miter;stroke-miterlimit:4;stroke-dasharray:none;stroke-opacity:1"
             d="m 221.00872,889.2112 c -14.73394,-6.52288 -32.01758,-16.24345 -43.86921,-40.58174 14.14845,-26.88255 22.27686,-53.73204 37.40699,-60.2699 8.83933,-3.31362 6.79813,2.27376 8.47245,4.82159 m 17.43949,119.15294 50.83543,30.42897 45.32272,0.56824 28.13134,-10.22816 10.59518,-15.29032 m 0,0 c 12.47366,-21.51838 21.49186,-41.10802 34.97464,-66.14697 1.32942,-15.65845 10.06174,-37.71267 6.33277,-48.92613 0.85674,-6.1265 -12.99203,-30.67259 -26.31279,8.55106 -6.71368,24.13436 -4.1772,11.79258 -11.97759,35.85656 l -34.73075,52.98237 c 7.95174,-19.91343 13.53798,-29.17802 19.90781,-57.55692 l 5.80687,-33.83718 c 10.83232,-63.12087 -21.67578,-53.08019 -34.2509,-14.44684 l -14.86596,45.67127 c -7.17345,30.55956 -4.96116,53.11657 -8.19393,46.89441 l -7.30381,-9.38639 c -5.88225,-9.01609 -6.23261,-9.30441 -18.75185,-29.45906 l 29.62336,-53.29316 c 22.3703,-40.24474 -14.7819,-45.91355 -32.54763,-8.19926 -6.00399,12.74566 -37.22917,61.62224 -37.19318,61.89673 9.0831,7.99754 47.93065,63.58376 33.55961,43.16869 l -50.35117,-51.19104 29.98819,-56.85124 c 7.14442,-13.5443 -11.5379,-24.83858 -17.27554,-16.62603 l -35.20505,60.01861 -11.90594,26.0511 45.78817,59.35069"
             inkscape:connector-curvature="0"
             sodipodi:nodetypes="ccccccccccccccccssccccsscccscccc" />
          <path
             style="opacity:0.97000002;fill:#d1a19b;fill-opacity:1;fill-rule:nonzero;stroke:#d1a19b;stroke-width:1.875;stroke-linecap:round;stroke-linejoin:round;stroke-miterlimit:4;stroke-dasharray:none;stroke-dashoffset:0;stroke-opacity:1"
             inkscape:transform-center-x="-8.7423263"
             inkscape:transform-center-y="-1.3588808"
             d="m 395.75193,806.5977 c 1.03632,-4.17823 2.11617,-7.38217 4.65389,-10.38112 3.30672,-3.65053 11.80047,-5.84095 13.75242,6.12327 0.40656,4.26879 0.1279,6.82454 0.0356,9.84617 -6.71701,-0.154 -12.77936,-3.0617 -18.44186,-5.58832 z"
             id="path2866"
             inkscape:connector-curvature="0"
             sodipodi:nodetypes="cccccc" />
          <path
             style="opacity:0.97000002;fill:#d1a19b;fill-opacity:1;fill-rule:nonzero;stroke:#d1a19b;stroke-width:1.875;stroke-linecap:round;stroke-linejoin:round;stroke-miterlimit:4;stroke-dasharray:none;stroke-dashoffset:0;stroke-opacity:1"
             inkscape:transform-center-x="-7.8929951"
             inkscape:transform-center-y="-1.6793835"
             d="m 343.16795,782.93687 c 2.70997,-5.09877 4.10947,-7.8961 10.95557,-13.57829 6.19406,-0.30346 9.19426,-0.88275 14.05506,6.70965 -0.34642,6.55714 -0.4243,7.99787 -1.85938,12.86285 -8.13505,2.55326 -25.23162,-5.17434 -23.15125,-5.99421 z"
             id="path2868"
             inkscape:connector-curvature="0"
             sodipodi:nodetypes="ccccc" />
          <path
             style="opacity:0.97000002;fill:#d1a19b;fill-opacity:1;fill-rule:nonzero;stroke:#d1a19b;stroke-width:1.875;stroke-linecap:round;stroke-linejoin:round;stroke-miterlimit:4;stroke-dasharray:none;stroke-dashoffset:0;stroke-opacity:1"
             inkscape:transform-center-x="-8.9885266"
             inkscape:transform-center-y="-0.17020253"
             d="m 291.2472,779.39097 c 5.17823,-7.00276 7.48834,-12.00281 15.33017,-13.42996 7.70707,-0.3499 10.12008,2.67882 11.05696,10.91209 -2.23524,6.57847 -1.33889,8.1867 -6.5714,13.7586 -10.66381,-4.5746 -13.79905,-3.48287 -19.81573,-11.24073 z"
             id="path2870"
             inkscape:connector-curvature="0"
             sodipodi:nodetypes="ccccc" />
          <path
             style="opacity:0.97000002;fill:#d1a19b;fill-opacity:1;fill-rule:nonzero;stroke:#d1a19b;stroke-width:1.875;stroke-linecap:round;stroke-linejoin:round;stroke-miterlimit:4;stroke-dasharray:none;stroke-dashoffset:0;stroke-opacity:1"
             inkscape:transform-center-x="-0.083158363"
             inkscape:transform-center-y="-6.7221495"
             d="m 249.10092,790.66014 c -4.75488,-1.61578 -9.32244,-4.45735 -13.38616,-10.59646 4.14546,-5.73523 4.06928,-7.5479 9.97808,-12.02398 6.62006,-0.81052 10.15486,3.73306 11.56285,8.18147 -2.28194,6.71667 -5.18976,10.70255 -8.15477,14.43897 z"
             id="path2872"
             inkscape:connector-curvature="0"
             sodipodi:nodetypes="ccccc" />
          <path
             style="fill:none;fill-rule:evenodd;stroke:#b5613f;stroke-width:1.875;stroke-linecap:butt;stroke-linejoin:miter;stroke-miterlimit:4;stroke-dasharray:none;stroke-opacity:1"
             d="m 322.10221,839.96004 c -7.65935,-2.4873 29.1534,12.80116 41.97116,3.81815"
             id="path2874"
             inkscape:connector-curvature="0"
             sodipodi:nodetypes="cc" />
          <path
             style="fill:none;fill-rule:evenodd;stroke:#b5613f;stroke-width:1.875;stroke-linecap:butt;stroke-linejoin:miter;stroke-miterlimit:4;stroke-dasharray:none;stroke-opacity:1"
             d="m 378.36014,847.14734 c 10.38467,5.09306 20.76934,5.83495 31.15401,4.5185"
             id="path2876"
             inkscape:connector-curvature="0"
             sodipodi:nodetypes="cc" />
          <path
             style="fill:none;fill-rule:evenodd;stroke:#b5613f;stroke-width:1.875;stroke-linecap:butt;stroke-linejoin:miter;stroke-miterlimit:4;stroke-dasharray:none;stroke-opacity:1"
             d="m 245.86017,848.41331 c 14.50345,9.84016 31.55237,8.20548 40.11745,-0.4043"
             id="path2878"
             inkscape:connector-curvature="0"
             sodipodi:nodetypes="cc" />
          <path
             style="fill:none;fill-rule:evenodd;stroke:#b5613f;stroke-width:1.875;stroke-linecap:butt;stroke-linejoin:miter;stroke-miterlimit:4;stroke-dasharray:none;stroke-opacity:1"
             d="m 229.06861,840.39097 c -18.91295,-2.31184 -26.07921,-6.86116 -22.4924,-13.45867"
             id="path2880"
             inkscape:connector-curvature="0"
             sodipodi:nodetypes="cc" />
          <path
             inkscape:connector-curvature="0"
             id="path2882"
             d="M 244.7731,966.96934 Z"
             style="fill:none;fill-rule:evenodd;stroke:#000000;stroke-width:0.9375px;stroke-linecap:butt;stroke-linejoin:miter;stroke-opacity:1" />
          <path
             inkscape:connector-curvature="0"
             d="m 353.05281,993.67903 c -35.11015,-2.51317 -70.21236,-4.9747 -108.27971,-26.70969 m 119.97483,-33.8662 -11.69512,60.57589 m -95.25594,-71.03164 -13.02377,44.32195 v 0"
             style="fill:#a75432;fill-opacity:1;fill-rule:evenodd;stroke:#a75432;stroke-width:0.9375px;stroke-linecap:butt;stroke-linejoin:miter;stroke-opacity:1"
             id="path2884" />
          <path
             inkscape:connector-curvature="0"
             id="path2886"
             d="m 350.48931,992.79607 c -3.61998,-0.66493 -115.21786,2.74045 -115.21786,2.50648 0,-0.67483 22.68264,-70.639 22.91003,-70.72161 0.17439,-0.0634 7.62869,4.24376 16.5651,9.57139 l 16.24801,9.68659 22.84207,0.32683 22.84206,0.32683 13.42595,-4.88964 c 7.38427,-2.68931 13.47368,-4.8419 13.53203,-4.78356 0.0959,0.0959 -10.47228,55.28904 -10.98726,57.382 -0.21792,0.88568 0.40337,1.47765 -2.16013,0.59469 z"
             style="opacity:1;fill:#914a35;fill-opacity:1;fill-rule:nonzero;stroke:#914a35;stroke-width:0.78329736;stroke-linecap:round;stroke-linejoin:round;stroke-miterlimit:4;stroke-dasharray:none;stroke-dashoffset:0;stroke-opacity:1"
             sodipodi:nodetypes="cscsccccccc" />
          <path
             inkscape:connector-curvature="0"
             id="path2888"
             d="m 209.67612,872.56557 c -8.14074,-9.15862 -15.11413,-17.10509 -15.4964,-17.65883 -0.64748,-0.93793 -0.31181,-1.73863 4.90441,-11.69928 3.07971,-5.88086 5.62985,-10.73958 5.667,-10.79714 0.0372,-0.0576 1.07361,0.73358 2.30327,1.75816 2.67418,2.22817 7.5187,4.08253 14.35264,5.49382 4.65836,0.96202 4.81562,1.03304 4.59011,2.07289 -0.12842,0.59221 -0.38293,9.73498 -0.56556,20.31724 -0.18263,10.58227 -0.472,21.02355 -0.64306,23.20283 l -0.31102,3.96233 z"
             style="opacity:1;fill:#a75432;fill-opacity:1;fill-rule:nonzero;stroke:#a75432;stroke-width:0.92017192;stroke-linecap:round;stroke-linejoin:round;stroke-miterlimit:4;stroke-dasharray:none;stroke-dashoffset:0;stroke-opacity:1" />
          <path
             inkscape:connector-curvature="0"
             id="path2890"
             d="m 216.57564,836.68988 c -4.13241,-1.12088 -8.10005,-3.03062 -9.61986,-4.63032 -0.7165,-0.75418 -0.98218,-1.51469 -0.97074,-2.77875 0.0136,-1.49735 1.18608,-3.70903 8.39679,-15.83851 4.60957,-7.75397 8.41594,-14.04649 8.45861,-13.98337 0.0426,0.0632 -0.063,5.84377 -0.2347,12.84588 -0.17175,7.00213 -0.32855,15.59564 -0.34847,19.09671 -0.0423,7.43556 0.47151,6.95733 -5.68163,5.28836 z"
             style="opacity:1;fill:#a75432;fill-opacity:1;fill-rule:nonzero;stroke:#a75432;stroke-width:0.83952534;stroke-linecap:round;stroke-linejoin:round;stroke-miterlimit:4;stroke-dasharray:none;stroke-dashoffset:0;stroke-opacity:1" />
        </g>
      </g>
      <path
         style="opacity:0.97000002;fill:#322e3d;fill-opacity:1;fill-rule:nonzero;stroke:#322e3d;stroke-width:1.875;stroke-linecap:round;stroke-linejoin:round;stroke-miterlimit:4;stroke-dasharray:none;stroke-dashoffset:0;stroke-opacity:1"
         id="ellipse2697"
         sodipodi:type="arc"
         sodipodi:cx="514.27972"
         sodipodi:cy="514.96899"
         sodipodi:rx="91.814056"
         sodipodi:ry="91.968117"
         sodipodi:start="0"
         sodipodi:end="3.1261958"
         d="m 606.09378,514.96899 a 91.814056,91.968117 0 0 1 -91.10724,91.9654 91.814056,91.968117 0 0 1 -92.50999,-90.54943 l 91.80317,-1.41597 z" />
    </g>
  </g>
</svg>
