<?xml version="1.0" encoding="UTF-8" standalone="no"?>
<!-- Created with Inkscape (http://www.inkscape.org/) -->

<!-- 
Artwork by John Samuel. 
This work is licensed under a Creative Commons Attribution-ShareAlike 4.0 International License. 
-->

<svg
   xmlns:osb="http://www.openswatchbook.org/uri/2009/osb"
   xmlns:dc="http://purl.org/dc/elements/1.1/"
   xmlns:cc="http://creativecommons.org/ns#"
   xmlns:rdf="http://www.w3.org/1999/02/22-rdf-syntax-ns#"
   xmlns:svg="http://www.w3.org/2000/svg"
   xmlns="http://www.w3.org/2000/svg"
   xmlns:sodipodi="http://sodipodi.sourceforge.net/DTD/sodipodi-0.dtd"
   xmlns:inkscape="http://www.inkscape.org/namespaces/inkscape"
   width="297mm"
   height="210mm"
   viewBox="0 0 1052.3622 744.09448"
   id="svg2"
   version="1.1"
   inkscape:version="0.91 r13725"
   sodipodi:docname="lamp-adjusted-edge.svg">
  <defs
     id="defs4">
    <linearGradient
       id="linearGradient4824"
       osb:paint="solid">
      <stop
         style="stop-color:#000000;stop-opacity:1;"
         offset="0"
         id="stop4826" />
    </linearGradient>
  </defs>
  <sodipodi:namedview
     id="base"
     pagecolor="#ffffff"
     bordercolor="#666666"
     borderopacity="1.0"
     inkscape:pageopacity="0.0"
     inkscape:pageshadow="2"
     inkscape:zoom="0.89702955"
     inkscape:cx="526.1811"
     inkscape:cy="372.04724"
     inkscape:document-units="px"
     inkscape:current-layer="layer1"
     showgrid="false"
     inkscape:window-width="1600"
     inkscape:window-height="847"
     inkscape:window-x="0"
     inkscape:window-y="0"
     inkscape:window-maximized="1"
     showguides="false">
    <sodipodi:guide
       position="0,0"
       orientation="0,1052.3622"
       id="guide4163" />
    <sodipodi:guide
       position="1052.3622,0"
       orientation="-744.09449,0"
       id="guide4165" />
    <sodipodi:guide
       position="1052.3622,744.09449"
       orientation="0,-1052.3622"
       id="guide4167" />
    <sodipodi:guide
       position="0,744.09449"
       orientation="744.09449,0"
       id="guide4169" />
    <sodipodi:guide
       position="-0.83367063,744.2915"
       orientation="372.04721,0"
       id="guide4173" />
    <sodipodi:guide
       position="-0.83367063,372.24429"
       orientation="0,526.18108"
       id="guide4175" />
    <sodipodi:guide
       position="525.34742,372.24429"
       orientation="-372.04721,0"
       id="guide4177" />
    <sodipodi:guide
       position="525.34742,744.2915"
       orientation="0,-526.18108"
       id="guide4179" />
    <inkscape:grid
       type="xygrid"
       id="grid6840" />
  </sodipodi:namedview>
  <metadata
     id="metadata7">
    <rdf:RDF>
      <cc:Work
         rdf:about="">
        <dc:format>image/svg+xml</dc:format>
        <dc:type
           rdf:resource="http://purl.org/dc/dcmitype/StillImage" />
        <dc:title></dc:title>
      </cc:Work>
    </rdf:RDF>
  </metadata>
  <g
     inkscape:label="Layer 1"
     inkscape:groupmode="layer"
     id="layer1"
     transform="translate(0,-308.26772)">
    <path
       style="opacity:1;fill:#ffffff;fill-opacity:1;stroke:#a69a8a;stroke-width:1.5;stroke-linecap:round;stroke-linejoin:round;stroke-miterlimit:4;stroke-dasharray:none;stroke-dashoffset:0;stroke-opacity:1"
       d="m 642.54006,961.91039 a 117.30756,18.843346 0 0 1 -55.68613,16.84719 117.30756,18.843346 0 0 1 -118.72029,0.40627 117.30756,18.843346 0 0 1 -60.10228,-16.45096"
       id="ellipse6828" />
    <path
       style="fill:none;fill-rule:evenodd;stroke:#a69a8a;stroke-width:1.61481619;stroke-linecap:butt;stroke-linejoin:miter;stroke-miterlimit:4;stroke-dasharray:none;stroke-opacity:1"
       d="m 408.21824,963.82597 c -0.80308,-15.42288 -0.50814,-19.25041 -0.50814,-19.25041"
       id="path6846"
       inkscape:connector-curvature="0"
       sodipodi:nodetypes="cc" />
    <ellipse
       style="opacity:1;fill:#ffffff;fill-opacity:1;stroke:#a69a8a;stroke-width:1.5;stroke-linecap:round;stroke-linejoin:round;stroke-miterlimit:4;stroke-dasharray:none;stroke-dashoffset:0;stroke-opacity:1"
       id="path6826"
       cx="525.33893"
       cy="944.79279"
       rx="117.30756"
       ry="18.843346" />
    <path
       style="fill:none;fill-rule:evenodd;stroke:#ffc000;stroke-width:1.5;stroke-linecap:butt;stroke-linejoin:miter;stroke-miterlimit:4;stroke-dasharray:none;stroke-opacity:1"
       d="m 648.48332,362.30243 44.01595,170.34923 c -0.0544,12.57398 -72.31476,22.76915 -163.42415,23.19088 -91.10942,0.42173 -168.272,-9.08179 -174.42004,-21.45381 l 47.93154,-173.17797"
       id="path4183"
       inkscape:connector-curvature="0"
       sodipodi:nodetypes="ccscc" />
    <path
       inkscape:connector-curvature="0"
       id="path6850"
       d="m 643.09793,963.24589 c -0.80308,-15.42289 -0.25725,-18.47602 -0.25725,-18.47602"
       style="fill:none;fill-rule:evenodd;stroke:#a69a8a;stroke-width:1.61481619;stroke-linecap:butt;stroke-linejoin:miter;stroke-miterlimit:4;stroke-dasharray:none;stroke-opacity:1"
       sodipodi:nodetypes="cc" />
    <ellipse
       ry="18.843346"
       rx="117.30756"
       cy="944.79279"
       cx="525.33893"
       id="ellipse6830"
       style="opacity:1;fill:#8d7e6b;fill-opacity:1;stroke:#8d7e6b;stroke-width:1.5;stroke-linecap:round;stroke-linejoin:round;stroke-miterlimit:4;stroke-dasharray:none;stroke-dashoffset:0;stroke-opacity:1" />
    <path
       style="opacity:1;fill:#a69a8a;fill-opacity:1;stroke:#a69a8a;stroke-width:1.5;stroke-linecap:round;stroke-linejoin:round;stroke-miterlimit:4;stroke-dasharray:none;stroke-dashoffset:0;stroke-opacity:1"
       d="m 518.41002,555.7046 15.3398,0 0,390.68212 c -3.63115,1.48539 -5.7192,4.40017 -15.3398,0 z"
       id="rect6803"
       inkscape:connector-curvature="0"
       sodipodi:nodetypes="ccccc" />
    <ellipse
       ry="18.825136"
       rx="123.19223"
       cy="364.79279"
       cx="525.33893"
       id="ellipse21696"
       style="opacity:1;fill:#ffca28;fill-opacity:1;stroke:#ffca28;stroke-width:1.53641999;stroke-linecap:round;stroke-linejoin:round;stroke-miterlimit:4;stroke-dasharray:none;stroke-dashoffset:0;stroke-opacity:1" />
    <path
       style="opacity:0.98999999;fill:#ffd145;fill-opacity:1;stroke:#ffd145;stroke-width:6.49031019;stroke-linecap:round;stroke-linejoin:round;stroke-miterlimit:4;stroke-dasharray:none;stroke-dashoffset:0;stroke-opacity:1"
       d="m 469.66123,245.38242 c -53.7635,-3.22213 -84.38916,-7.16506 -102.0424,-13.13757 -13.94502,-4.71794 -15.14779,5.05476 10.98379,-89.24462 12.57316,-45.371974 22.92258,-82.596277 22.99872,-82.720674 0.0761,-0.124398 2.62853,1.004753 5.672,2.509223 3.04346,1.504471 11.05178,3.964926 17.79627,5.467678 60.12208,13.39593 196.64528,9.246517 221.00904,-6.717229 2.01198,-1.318305 2.6579,-1.367903 3.07678,-0.236257 1.56781,4.235526 41.7917,161.553439 41.7917,163.449669 0,4.85074 -18.40097,10.6521 -46.2638,14.5858 -36.37584,5.13556 -68.00968,6.79831 -124.85653,6.56278 -24.52539,-0.10156 -47.0999,-0.33507 -50.16557,-0.5188 z"
       id="path21738"
       inkscape:connector-curvature="0"
       transform="translate(0,308.26772)" />
    <path
       style="opacity:0.98999999;fill:#a69a8a;fill-opacity:1;stroke:#a69a8a;stroke-width:6.49031019;stroke-linecap:round;stroke-linejoin:round;stroke-miterlimit:4;stroke-dasharray:none;stroke-dashoffset:0;stroke-opacity:1"
       d="m 479.69434,670.84667 c -27.18909,-2.08263 -53.90031,-6.50487 -63.15328,-10.45549 -6.64195,-2.83583 -7.63592,-4.46246 -7.63592,-12.4962 0,-7.19171 1.8e-4,-7.19209 2.50828,-5.58464 6.9319,4.44269 29.51816,9.16464 57.69041,12.06091 18.58974,1.91114 93.81892,1.90357 112.59384,-0.0113 28.54112,-2.91098 50.59839,-7.57181 57.62654,-12.17683 l 2.68149,-1.75699 -0.33338,7.64974 c -0.31682,7.27014 -0.51729,7.77341 -4.03993,10.14231 -6.47615,4.35508 -25.84969,8.57714 -53.14775,11.58246 -14.09085,1.5513 -88.49751,2.29406 -104.7903,1.04606 z"
       id="path21740"
       inkscape:connector-curvature="0"
       transform="translate(0,308.26772)" />
  </g>
</svg>
