<?xml version="1.0" encoding="UTF-8" standalone="no"?>
<!-- Created with Inkscape (http://www.inkscape.org/) -->

<!-- 
Artwork by John Samuel. 
This work is licensed under a Creative Commons Attribution-ShareAlike 4.0 International License. 
-->

<svg
   xmlns:dc="http://purl.org/dc/elements/1.1/"
   xmlns:cc="http://creativecommons.org/ns#"
   xmlns:rdf="http://www.w3.org/1999/02/22-rdf-syntax-ns#"
   xmlns:svg="http://www.w3.org/2000/svg"
   xmlns="http://www.w3.org/2000/svg"
   xmlns:sodipodi="http://sodipodi.sourceforge.net/DTD/sodipodi-0.dtd"
   xmlns:inkscape="http://www.inkscape.org/namespaces/inkscape"
   width="297mm"
   height="210mm"
   viewBox="0 0 1052.3622 744.09446"
   id="svg2"
   version="1.1"
   inkscape:version="0.91 r13725"
   sodipodi:docname="pencil-perspective-slanting.svg">
  <defs
     id="defs4">
    <inkscape:path-effect
       effect="spiro"
       id="path-effect4893"
       is_visible="true" />
    <inkscape:path-effect
       effect="spiro"
       id="path-effect4889"
       is_visible="true" />
    <inkscape:path-effect
       effect="spiro"
       id="path-effect4885"
       is_visible="true" />
    <inkscape:path-effect
       effect="spiro"
       id="path-effect4881"
       is_visible="true" />
    <inkscape:path-effect
       effect="spiro"
       id="path-effect4877"
       is_visible="true" />
    <inkscape:path-effect
       effect="spiro"
       id="path-effect4873"
       is_visible="true" />
    <inkscape:path-effect
       effect="spiro"
       id="path-effect4869"
       is_visible="true" />
    <inkscape:path-effect
       effect="spiro"
       id="path-effect4865"
       is_visible="true" />
    <inkscape:path-effect
       effect="spiro"
       id="path-effect4861"
       is_visible="true" />
    <inkscape:path-effect
       effect="spiro"
       id="path-effect4857"
       is_visible="true" />
    <inkscape:path-effect
       effect="skeletal"
       id="path-effect4853"
       is_visible="true"
       pattern="m 0,791.6142 c 0,-2.76 2.24,-5 5,-5 2.76,0 5,2.24 5,5 0,2.76 -2.24,5 -5,5 -2.76,0 -5,-2.24 -5,-5 z"
       copytype="single_stretched"
       prop_scale="1"
       scale_y_rel="false"
       spacing="0"
       normal_offset="0"
       tang_offset="0"
       prop_units="false"
       vertical_pattern="false"
       fuse_tolerance="0" />
    <inkscape:path-effect
       effect="spiro"
       id="path-effect4851"
       is_visible="true" />
    <inkscape:path-effect
       effect="spiro"
       id="path-effect4847"
       is_visible="true" />
    <inkscape:path-effect
       effect="spiro"
       id="path-effect4843"
       is_visible="true" />
    <inkscape:path-effect
       effect="spiro"
       id="path-effect4839"
       is_visible="true" />
    <inkscape:path-effect
       effect="spiro"
       id="path-effect4835"
       is_visible="true" />
    <inkscape:path-effect
       effect="spiro"
       id="path-effect4149"
       is_visible="true" />
  </defs>
  <sodipodi:namedview
     id="base"
     pagecolor="#ffffff"
     bordercolor="#666666"
     borderopacity="1.0"
     inkscape:pageopacity="0.0"
     inkscape:pageshadow="2"
     inkscape:zoom="0.89702955"
     inkscape:cx="526.1811"
     inkscape:cy="238.27239"
     inkscape:document-units="px"
     inkscape:current-layer="g4982"
     showgrid="false"
     showguides="false"
     inkscape:window-width="1600"
     inkscape:window-height="847"
     inkscape:window-x="0"
     inkscape:window-y="0"
     inkscape:window-maximized="1"
     units="mm" />
  <metadata
     id="metadata7">
    <rdf:RDF>
      <cc:Work
         rdf:about="">
        <dc:format>image/svg+xml</dc:format>
        <dc:type
           rdf:resource="http://purl.org/dc/dcmitype/StillImage" />
        <dc:title></dc:title>
      </cc:Work>
    </rdf:RDF>
  </metadata>
  <g
     inkscape:label="Layer 1"
     inkscape:groupmode="layer"
     id="layer1"
     transform="translate(0,-308.26774)">
    <g
       id="g4982"
       transform="matrix(0.75190931,-0.65926655,0.65926655,0.75190931,-513.94602,326.50046)"
       style="stroke:#400080;stroke-opacity:1">
      <path
         inkscape:connector-curvature="0"
         id="path4155"
         d="m 154.56323,893.81633 874.03657,0"
         style="fill:none;fill-rule:evenodd;stroke:#400080;stroke-width:1.5;stroke-linecap:butt;stroke-linejoin:miter;stroke-miterlimit:4;stroke-dasharray:none;stroke-opacity:1" />
      <path
         inkscape:connector-curvature="0"
         id="path4165"
         d="m 154.563,957.08863 869.7778,0 0,0"
         style="fill:none;fill-rule:evenodd;stroke:#400080;stroke-width:1.5;stroke-linecap:butt;stroke-linejoin:miter;stroke-miterlimit:4;stroke-dasharray:none;stroke-opacity:1" />
      <path
         d="M 65.94755,912.33762 A 54.774235,28.656101 0 0 1 63.868352,934.1917 L 14.345471,921.948 Z"
         sodipodi:end="0.44146358"
         sodipodi:start="5.941188"
         sodipodi:ry="28.656101"
         sodipodi:rx="54.774235"
         sodipodi:cy="921.948"
         sodipodi:cx="14.345471"
         sodipodi:type="arc"
         id="path4174"
         style="fill:#424242;fill-opacity:1;stroke:#424242;stroke-width:1.50380242;stroke-miterlimit:4;stroke-dasharray:none;stroke-opacity:1"
         transform="matrix(0.9999763,-0.00688507,-0.00687259,0.99997638,0,0)" />
      <path
         inkscape:connector-curvature="0"
         id="path4775"
         d="m 58.205913,933.3188 97.521317,24.08647"
         style="fill:none;fill-rule:evenodd;stroke:#ffc000;stroke-width:1.44654298;stroke-linecap:butt;stroke-linejoin:miter;stroke-miterlimit:4;stroke-dasharray:none;stroke-opacity:1" />
      <path
         inkscape:connector-curvature="0"
         id="path4777"
         d="m 60.958438,911.9752 78.258912,-15.13592 14.50469,-3.07827 -8.46821,2.0739"
         style="fill:none;fill-rule:evenodd;stroke:#ffc000;stroke-width:1.45300853;stroke-linecap:butt;stroke-linejoin:miter;stroke-miterlimit:4;stroke-dasharray:none;stroke-opacity:1"
         sodipodi:nodetypes="cccc" />
      <path
         inkscape:connector-curvature="0"
         id="path4155-0"
         d="m 154.563,907.74523 878.037,0"
         style="fill:none;fill-rule:evenodd;stroke:#400080;stroke-width:1.50342882;stroke-linecap:butt;stroke-linejoin:miter;stroke-miterlimit:4;stroke-dasharray:none;stroke-opacity:1" />
      <path
         inkscape:connector-curvature="0"
         id="path4155-5"
         d="m 154.563,938.36418 878.037,0"
         style="fill:none;fill-rule:evenodd;stroke:#400080;stroke-width:1.50342882;stroke-linecap:butt;stroke-linejoin:miter;stroke-miterlimit:4;stroke-dasharray:none;stroke-opacity:1" />
      <path
         inkscape:connector-curvature="0"
         id="path4913"
         d="m 154.88379,907.97421 c -28.62887,19.88806 -0.37672,30.24074 -0.37672,30.24074"
         style="fill:none;fill-rule:evenodd;stroke:#400080;stroke-width:1.5;stroke-linecap:butt;stroke-linejoin:miter;stroke-miterlimit:4;stroke-dasharray:none;stroke-opacity:1" />
      <path
         inkscape:connector-curvature="0"
         id="path4913-7"
         d="m 155.16688,938.01929 c -29.3295,12.56028 -0.38594,19.09849 -0.38594,19.09849"
         style="fill:none;fill-rule:evenodd;stroke:#400080;stroke-width:1.5;stroke-linecap:butt;stroke-linejoin:miter;stroke-miterlimit:4;stroke-dasharray:none;stroke-opacity:1" />
      <path
         inkscape:connector-curvature="0"
         id="path4913-7-2"
         d="m 154.61547,893.62618 c -29.70853,9.31088 -0.39093,14.15762 -0.39093,14.15762"
         style="fill:none;fill-rule:evenodd;stroke:#400080;stroke-width:1.5;stroke-linecap:butt;stroke-linejoin:miter;stroke-miterlimit:4;stroke-dasharray:none;stroke-opacity:1" />
      <path
         inkscape:connector-curvature="0"
         id="path4961"
         d="m 1027.9287,893.47628 4.4968,14.1565 -0.1666,31.14431 -8.6604,19.15292"
         style="fill:none;fill-rule:evenodd;stroke:#400080;stroke-width:1px;stroke-linecap:butt;stroke-linejoin:miter;stroke-opacity:1" />
    </g>
    <path
       style="opacity:0.98999999;fill:#ffc000;fill-opacity:1;stroke:#ffc000;stroke-width:1.67218566;stroke-linecap:round;stroke-linejoin:round;stroke-miterlimit:4;stroke-dasharray:none;stroke-dashoffset:0;stroke-opacity:1"
       d="m 145.81043,678.20587 c -0.006,-3.55197 -3.68969,-9.31366 -7.46745,-11.67893 -1.71539,-1.07401 -3.29135,-2.06801 -3.50213,-2.20888 -0.21078,-0.14088 10.80062,-14.62761 24.46979,-32.19272 11.63445,-14.95046 18.03544,-23.01851 21.55832,-26.9181 2.86273,-3.16886 3.82493,-3.58513 4.15048,-2.70511 1.01486,2.74338 4.84485,3.0355 10.24056,0.78103 l 3.66738,-1.53233 -0.47648,5.7457 c -0.95854,11.55869 5.36146,18.42254 15.68757,17.03752 3.69532,-0.49565 4.19533,-0.31502 3.53978,1.27874 -0.41986,1.02075 -1.03172,4.05619 -1.35969,6.74542 -0.50847,4.16922 -0.22403,5.17033 1.93088,6.79578 2.4941,1.8813 2.0481,2.16041 -34.04877,21.30806 -20.11678,10.67099 -36.98324,19.56902 -37.48102,19.7734 -0.49778,0.20438 -0.90693,-0.79893 -0.90922,-2.22958 z"
       id="path5601"
       inkscape:connector-curvature="0"
       transform="translate(0,308.26774)"
       sodipodi:nodetypes="cscsssscsssssssc" />
    <path
       style="opacity:0.98999999;fill:#400080;fill-opacity:1;stroke:#400080;stroke-width:1.67218566;stroke-linecap:round;stroke-linejoin:round;stroke-miterlimit:4;stroke-dasharray:none;stroke-dashoffset:0;stroke-opacity:1"
       d="m 207.01814,621.43782 c -1.5933,-0.5987 -3.59992,-2.40749 -4.45916,-4.01953 -1.93206,-3.62477 -1.734,-15.32932 0.3071,-18.14841 1.01636,-1.40376 629.24258,-559.623985 658.40632,-577.493587 0,0 0.95352,1.537912 8.34112,10.022955 4.74012,5.44428 8.61841,10.390637 8.61841,10.991901 0,0.976 -655.04407,576.047531 -658.13441,577.784581 -2.51919,1.41601 -10.24933,1.92553 -13.07938,0.86209 z"
       id="path5603"
       inkscape:connector-curvature="0"
       transform="translate(0,308.26774)"
       sodipodi:nodetypes="ssssssss" />
    <path
       style="opacity:0.98999999;fill:#400080;fill-opacity:1;stroke:#400080;stroke-width:1.67218566;stroke-linecap:round;stroke-linejoin:round;stroke-miterlimit:4;stroke-dasharray:none;stroke-dashoffset:0;stroke-opacity:1"
       d="m 218.48705,637.78382 c -0.76642,-0.77651 0.97133,-10.58155 0.97133,-11.67279 0,-7.88756 -15.96146,4.5411 325.18833,-294.59934 180.6404,-158.39626 334.58653,-288.939124 334.0092,-289.2771 -5.68631,-3.32883 -1.26364,-7.924259 4.71102,11.790598 l 2.34801,7.747839 -4.0202,3.831624 C 869.93776,76.810142 234.05646,634.86294 231.62233,636.07975 c -4.61838,2.30871 -11.59576,3.26384 -13.13528,1.70407 z"
       id="path5605"
       inkscape:connector-curvature="0"
       transform="translate(0,308.26774)"
       sodipodi:nodetypes="ssssscsss" />
    <path
       style="opacity:0.98999999;fill:#400080;fill-opacity:1;stroke:#400080;stroke-width:1.67218566;stroke-linecap:round;stroke-linejoin:round;stroke-miterlimit:4;stroke-dasharray:none;stroke-dashoffset:0;stroke-opacity:1"
       d="m 183.93321,602.37484 c 0.087,-4.95009 8.21939,-12.5159 20.5596,-23.49728 7.27417,-6.47318 155.16041,-136.20155 328.63608,-288.28525 L 848.5392,14.076495 l 5.38037,3.015699 c 4.11611,2.307082 7.78935,3.277647 6.64987,4.130489 -0.81922,0.613135 -151.82898,130.541967 -332.20519,288.730727 -180.37621,158.18877 -324.95783,289.51882 -327.5549,290.8811 -5.30374,2.78205 -16.91268,3.62031 -16.87614,1.54033 z"
       id="path5607"
       inkscape:connector-curvature="0"
       transform="translate(0,308.26774)"
       sodipodi:nodetypes="ssscsssss" />
  </g>
</svg>
