<?xml version="1.0" encoding="UTF-8" standalone="no"?>
<!-- Created with Inkscape (http://www.inkscape.org/) -->

<!-- 
Artwork by John Samuel. 
This work is licensed under a Creative Commons Attribution-ShareAlike 4.0 International License. 
-->

<svg
   xmlns:osb="http://www.openswatchbook.org/uri/2009/osb"
   xmlns:dc="http://purl.org/dc/elements/1.1/"
   xmlns:cc="http://creativecommons.org/ns#"
   xmlns:rdf="http://www.w3.org/1999/02/22-rdf-syntax-ns#"
   xmlns:svg="http://www.w3.org/2000/svg"
   xmlns="http://www.w3.org/2000/svg"
   xmlns:sodipodi="http://sodipodi.sourceforge.net/DTD/sodipodi-0.dtd"
   xmlns:inkscape="http://www.inkscape.org/namespaces/inkscape"
   width="297mm"
   height="210mm"
   viewBox="0 0 1052.3622 744.09448"
   id="svg2"
   version="1.1"
   inkscape:version="0.91 r13725"
   sodipodi:docname="pine-tree-curved-cutout.svg">
  <defs
     id="defs4">
    <linearGradient
       id="linearGradient4824"
       osb:paint="solid">
      <stop
         style="stop-color:#000000;stop-opacity:1;"
         offset="0"
         id="stop4826" />
    </linearGradient>
  </defs>
  <sodipodi:namedview
     id="base"
     pagecolor="#ffffff"
     bordercolor="#666666"
     borderopacity="1.0"
     inkscape:pageopacity="0.0"
     inkscape:pageshadow="2"
     inkscape:zoom="0.89702955"
     inkscape:cx="526.1811"
     inkscape:cy="372.04724"
     inkscape:document-units="px"
     inkscape:current-layer="layer1"
     showgrid="false"
     inkscape:window-width="1600"
     inkscape:window-height="847"
     inkscape:window-x="0"
     inkscape:window-y="0"
     inkscape:window-maximized="1"
     showguides="false"
     inkscape:guide-bbox="true"
     inkscape:snap-to-guides="false"
     inkscape:snap-grids="false">
    <sodipodi:guide
       position="471.58033,810.52868"
       orientation="0,1"
       id="guide4797" />
    <inkscape:grid
       type="xygrid"
       id="grid4810" />
    <sodipodi:guide
       position="529.18816,636.36549"
       orientation="1,0"
       id="guide4812" />
    <sodipodi:guide
       position="503.73354,635.02578"
       orientation="0.91549091,-0.40233865"
       id="guide4846" />
    <sodipodi:guide
       position="586.79598,566.70022"
       orientation="0.91800159,0.3965767"
       id="guide4850" />
  </sodipodi:namedview>
  <metadata
     id="metadata7">
    <rdf:RDF>
      <cc:Work
         rdf:about="">
        <dc:format>image/svg+xml</dc:format>
        <dc:type
           rdf:resource="http://purl.org/dc/dcmitype/StillImage" />
        <dc:title />
      </cc:Work>
    </rdf:RDF>
  </metadata>
  <g
     inkscape:label="Layer 1"
     inkscape:groupmode="layer"
     id="layer1"
     transform="translate(0,-308.26772)">
    <path
       style="opacity:1;fill:#1e3b00;fill-opacity:1;stroke:#1e3b00;stroke-width:2.23879623;stroke-linecap:round;stroke-linejoin:round;stroke-miterlimit:4;stroke-dasharray:none;stroke-dashoffset:0;stroke-opacity:1"
       d="M 530.10547 62.525391 C 524.21077 139.33342 501.49173 164.51389 478.22266 188.00586 C 489.99587 180.92081 501.76975 176.79783 513.54297 174.97852 C 496.83354 209.13753 474.9834 232.4348 452.75 254.91797 C 470.22565 250.62314 487.37725 247.78951 504.22461 246.32227 C 492.52132 273.34562 475.39168 299.65457 429.97461 322.23633 C 452.00456 316.10696 473.83831 312.33074 495.50977 310.50391 C 469.42981 349.38332 436.68951 376.687 396.44336 390.94336 C 426.27589 383.11907 455.90599 378.34057 485.36523 376.11719 C 451.49695 425.8673 406.0625 461.36634 348.27539 481.65039 C 387.20291 472.15 425.29817 465.9784 462.67969 462.66211 C 416.31912 519.68036 358.17993 548.35163 301.39648 580.28516 C 474.03081 543.89353 624.45213 550.07538 762.33789 580.28516 C 702.21319 549.88576 641.01002 522.07178 593.15039 462.30469 C 634.45974 465.67921 674.981 472.20437 714.87695 481.23242 C 667.89553 451.31574 619.06238 429.94563 579.48633 377.26367 C 607.98555 379.9718 636.35205 384.66681 664.61328 390.94336 C 608.59956 374.0397 584.49696 343.9986 567.29492 311.11719 C 590.0256 313.27466 612.61434 317.1346 635.09961 322.23633 C 607.01635 305.34648 578.9238 288.52238 554.88867 246.0332 C 573.04211 247.42812 590.84024 250.42293 608.30469 254.91797 C 583.25511 237.43199 560.38657 214.41471 543.96875 175.03516 C 558.26296 177.11331 572.55735 181.80391 586.85156 188.00586 C 563.22129 177.18276 546.84371 118.66831 530.10547 62.525391 z "
       transform="translate(0,308.26772)"
       id="path4823" />
    <path
       style="fill:#7c3e00;fill-rule:evenodd;stroke:#7c3e00;stroke-width:1.5;stroke-linecap:butt;stroke-linejoin:miter;stroke-miterlimit:4;stroke-dasharray:none;stroke-opacity:1;fill-opacity:1"
       d="m 501.00175,864.59927 c 0,99.13905 -51.83846,132.01077 -51.83846,132.01077 0,0 43.50895,-5.2073 44.72718,-27.01444 0,21.43544 14.50104,25.83994 14.50104,25.83994 0,0 17.68871,-1.4208 17.68871,-22.85633 0.40194,21.05093 20.65621,23.46633 20.65621,23.46633 0,0 8.92454,-6.7782 7.79349,-27.05985 0.66986,24.11485 47.8131,25.64725 47.8131,25.64725 0,0 -44.92671,-32.23433 -44.92671,-131.37338"
       id="path4193"
       inkscape:connector-curvature="0"
       sodipodi:nodetypes="ccccccccc" />
  </g>
</svg>
