<?xml version="1.0" encoding="UTF-8" standalone="no"?>
<!-- Created with Inkscape (http://www.inkscape.org/) -->

<!-- 
Artwork by John Samuel. 
This work is licensed under a Creative Commons Attribution-ShareAlike 4.0 International License. 
-->

<svg
   xmlns:osb="http://www.openswatchbook.org/uri/2009/osb"
   xmlns:dc="http://purl.org/dc/elements/1.1/"
   xmlns:cc="http://creativecommons.org/ns#"
   xmlns:rdf="http://www.w3.org/1999/02/22-rdf-syntax-ns#"
   xmlns:svg="http://www.w3.org/2000/svg"
   xmlns="http://www.w3.org/2000/svg"
   xmlns:sodipodi="http://sodipodi.sourceforge.net/DTD/sodipodi-0.dtd"
   xmlns:inkscape="http://www.inkscape.org/namespaces/inkscape"
   width="297mm"
   height="210mm"
   viewBox="0 0 1052.3622 744.09448"
   id="svg2"
   version="1.1"
   inkscape:version="0.92.5 (2060ec1f9f, 2020-04-08)"
   sodipodi:docname="rat.svg">
  <defs
     id="defs4">
    <linearGradient
       id="linearGradient4824"
       osb:paint="solid">
      <stop
         style="stop-color:#000000;stop-opacity:1;"
         offset="0"
         id="stop4826" />
    </linearGradient>
  </defs>
  <sodipodi:namedview
     id="base"
     pagecolor="#ffffff"
     bordercolor="#666666"
     borderopacity="1.0"
     inkscape:pageopacity="0.0"
     inkscape:pageshadow="2"
     inkscape:zoom="0.82492985"
     inkscape:cx="561.25984"
     inkscape:cy="396.85039"
     inkscape:document-units="px"
     inkscape:current-layer="layer1"
     showgrid="false"
     inkscape:window-width="1600"
     inkscape:window-height="851"
     inkscape:window-x="0"
     inkscape:window-y="25"
     inkscape:window-maximized="1"
     showguides="false">
    <sodipodi:guide
       position="0,0"
       orientation="0,1052.3622"
       id="guide4163"
       inkscape:locked="false" />
    <sodipodi:guide
       position="1052.3622,0"
       orientation="-744.09449,0"
       id="guide4165"
       inkscape:locked="false" />
    <sodipodi:guide
       position="1052.3622,744.09449"
       orientation="0,-1052.3622"
       id="guide4167"
       inkscape:locked="false" />
    <sodipodi:guide
       position="0,744.09449"
       orientation="744.09449,0"
       id="guide4169"
       inkscape:locked="false" />
    <sodipodi:guide
       position="-0.83367063,744.2915"
       orientation="372.04721,0"
       id="guide4173"
       inkscape:locked="false" />
    <sodipodi:guide
       position="-0.83367063,372.24429"
       orientation="0,526.18108"
       id="guide4175"
       inkscape:locked="false" />
    <sodipodi:guide
       position="525.34742,372.24429"
       orientation="-372.04721,0"
       id="guide4177"
       inkscape:locked="false" />
    <sodipodi:guide
       position="525.34742,744.2915"
       orientation="0,-526.18108"
       id="guide4179"
       inkscape:locked="false" />
  </sodipodi:namedview>
  <metadata
     id="metadata7">
    <rdf:RDF>
      <cc:Work
         rdf:about="">
        <dc:format>image/svg+xml</dc:format>
        <dc:type
           rdf:resource="http://purl.org/dc/dcmitype/StillImage" />
        <dc:title />
      </cc:Work>
    </rdf:RDF>
  </metadata>
  <g
     inkscape:label="Layer 1"
     inkscape:groupmode="layer"
     id="layer1"
     transform="translate(0,-308.26772)">
    <path
       style="fill:none;fill-rule:evenodd;stroke:#9c9e99;stroke-width:0.9375px;stroke-linecap:butt;stroke-linejoin:miter;stroke-opacity:1"
       d="m 459.56332,878.44567 c 17.767,-3.14588 -38.67869,-60.41159 -19.92252,-72.86541"
       id="path952"
       inkscape:connector-curvature="0"
       sodipodi:nodetypes="cc" />
    <path
       style="fill:#a18582;fill-opacity:1;fill-rule:evenodd;stroke:#a18582;stroke-width:1.73629892px;stroke-linecap:butt;stroke-linejoin:miter;stroke-opacity:1"
       d="m 439.88172,859.53319 c 3.47148,4.76301 1.36736,42.86565 9.06326,54.16666 5.29023,7.76842 1.30397,-13.12903 2.36789,-27.88844 2.31204,13.08741 5.51509,32.91441 11.24937,36.64773 9.69482,6.31177 -3.52565,-21.8453 -5.46121,-37.43703 5.41159,11.38071 9.7821,27.8766 17.47343,33.31769 10.28634,7.27689 -6.46492,-22.61717 -11.68528,-35.94868 7.4005,12.34482 20.19498,30.05656 22.54936,30.37849 7.15584,0.97845 -9.06711,-22.7281 -17.14648,-33.9077 7.06826,1.92263 17.7762,20.45285 17.79486,12.98202 0.005,-3.74265 -21.633,-31.58435 -34.08054,-44.29073"
       id="path1411"
       inkscape:connector-curvature="0"
       sodipodi:nodetypes="cscscscscsc" />
    <path
       style="fill:none;fill-rule:evenodd;stroke:#9c9e99;stroke-width:0.9375px;stroke-linecap:butt;stroke-linejoin:miter;stroke-opacity:1"
       d="m 374.1569,752.75062 c -5.54655,70.49942 48.95518,103.0872 92.90642,133.19505"
       id="path950"
       inkscape:connector-curvature="0"
       sodipodi:nodetypes="cc" />
    <path
       style="opacity:1;fill:#9c9e99;fill-opacity:1;stroke:#9c9e99;stroke-width:2.27292037;stroke-linecap:round;stroke-linejoin:round;stroke-miterlimit:4;stroke-dasharray:none;stroke-dashoffset:0;stroke-opacity:1"
       d="m 451.11884,874.80996 c -6.32564,-4.22578 -7.53396,-5.59162 -8.57903,-9.69739 -1.45825,-5.72899 -4.58356,-7.78381 -3.35902,-2.20849 0.42813,1.94923 0.50835,3.54405 0.17829,3.54405 -1.5668,0 -23.8053,-18.73169 -31.132,-26.22277 -22.03369,-22.52802 -31.63939,-43.2445 -32.89519,-70.94458 l -0.61827,-13.63753 2.70041,2.37269 c 12.6363,11.10271 55.32973,46.62204 58.75392,48.88103 0.20182,0.13315 -0.10884,1.96529 -0.69038,4.07142 -2.06399,7.47519 1.16441,15.43326 19.51005,48.09261 6.37709,11.35264 7.69177,16.46959 4.93879,19.22255 -1.16894,1.16896 -2.85126,0.50547 -8.80757,-3.47359 z"
       id="path846"
       inkscape:connector-curvature="0" />
    <path
       style="fill:#6e6a61;fill-opacity:1;fill-rule:evenodd;stroke:#6e6a61;stroke-width:0.9375px;stroke-linecap:butt;stroke-linejoin:miter;stroke-opacity:1"
       d="M 374.1569,758.37562 C 399.72913,633.4588 543.8323,583.57348 617.88384,617.19339 749.07756,676.75625 717.47181,746.44618 956.02455,709.50783 920.94993,777.68884 895.00628,855.10268 832.32229,903.95714 669.44834,967.16655 561.6216,922.11769 374.1569,758.37562 Z"
       id="path944"
       inkscape:connector-curvature="0"
       sodipodi:nodetypes="csccc" />
    <path
       style="fill:#6d757b;fill-opacity:1;fill-rule:evenodd;stroke:#6d757b;stroke-width:0.9375px;stroke-linecap:butt;stroke-linejoin:miter;stroke-opacity:1"
       d="M 455.98204,642.05875 C 308.46267,516.15134 232.0383,254.56995 27.536515,367.03537 239.47696,274.61694 298.81151,528.19841 434.38928,659.10567"
       id="path948"
       inkscape:connector-curvature="0"
       sodipodi:nodetypes="ccc" />
    <path
       style="fill:none;fill-rule:evenodd;stroke:#9c9e99;stroke-width:0.9375px;stroke-linecap:butt;stroke-linejoin:miter;stroke-opacity:1"
       d="m 691.51343,931.11758 c 41.65381,22.47366 28.70404,5.96457 125.01062,48.86777"
       id="path954"
       inkscape:connector-curvature="0"
       sodipodi:nodetypes="cc" />
    <path
       style="fill:none;fill-rule:evenodd;stroke:#9c9e99;stroke-width:0.9375px;stroke-linecap:butt;stroke-linejoin:miter;stroke-opacity:1"
       d="m 821.92224,981.12185 c -16.47136,-20.64722 -9.2211,-34.28172 -39.91399,-59.56669"
       id="path956"
       inkscape:connector-curvature="0"
       sodipodi:nodetypes="cc" />
    <path
       style="fill:#8a8778;fill-opacity:1;fill-rule:evenodd;stroke:#8a8778;stroke-width:0.9375px;stroke-linecap:butt;stroke-linejoin:miter;stroke-opacity:1"
       d="M 751.46171,732.23705 C 902.23324,909.85521 929.13097,813.82497 1024.2122,719.73597 968.4743,667.29349 861.19276,531.04845 751.46171,732.23705 Z"
       id="path958"
       inkscape:connector-curvature="0"
       sodipodi:nodetypes="ccc" />
    <path
       inkscape:connector-curvature="0"
       id="path960"
       d="m 832.32229,903.95714 c 15.69957,32.52078 60.79202,22.58668 88.00501,33.5179 -10.03067,15.28145 14.60816,33.77341 -13.43209,-47.69747 -1.70867,-4.96453 -0.33851,-38.39197 -12.30559,-58.04057"
       style="fill:none;fill-rule:evenodd;stroke:#9c9e99;stroke-width:0.9375px;stroke-linecap:butt;stroke-linejoin:miter;stroke-opacity:1"
       sodipodi:nodetypes="ccsc" />
    <path
       style="fill:#9c9e99;fill-opacity:1;fill-rule:evenodd;stroke:#9c9e99;stroke-width:0.9375px;stroke-linecap:butt;stroke-linejoin:miter;stroke-opacity:1"
       d="m 826.46808,644.7296 c 2.26206,-29.84743 2.38865,-60.64396 31.82089,-78.41576 26.40738,33.89513 35.70591,25.24993 36.36672,60.23239"
       id="path1550"
       inkscape:connector-curvature="0"
       sodipodi:nodetypes="ccc" />
    <path
       style="fill:#9c9e99;fill-opacity:1;fill-rule:evenodd;stroke:#9c9e99;stroke-width:0.9375px;stroke-linecap:butt;stroke-linejoin:miter;stroke-opacity:1"
       d="m 781.00967,683.36924 c -30.2497,-18.31061 -44.70199,-12.69595 -69.32408,-5.68229 -8.88111,42.53716 20.3134,43.19115 39.77612,54.5501"
       id="path1552"
       inkscape:connector-curvature="0"
       sodipodi:nodetypes="ccc" />
    <path
       style="fill:none;fill-rule:evenodd;stroke:#000000;stroke-width:0.9375px;stroke-linecap:butt;stroke-linejoin:miter;stroke-opacity:1"
       d="m 911.7026,751.55686 c 6.98913,25.53647 66.94132,3.42375 88.6439,-3.40938"
       id="path2166"
       inkscape:connector-curvature="0"
       sodipodi:nodetypes="cc" />
    <path
       sodipodi:nodetypes="cscscscscsc"
       inkscape:connector-curvature="0"
       id="path1413"
       d="m 799.27112,963.85615 c 3.4645,3.3923 9.76717,43.07495 17.54873,51.19725 5.34912,5.5836 -0.72793,-10.83 -1.87236,-22.95025 3.6562,10.30445 8.95212,25.95605 14.11262,28.20525 8.72478,3.8023 -5.83217,-17.2452 -9.52359,-29.63295 5.93893,8.4978 11.72898,21.28785 18.70974,24.65645 9.33593,4.5051 -8.3221,-17.47165 -14.37127,-27.57855 7.68385,9.0098 20.47436,21.64035 22.42843,21.58125 5.93921,-0.1797 -10.44851,-17.20785 -18.52473,-25.17965 5.99661,0.5986 29.07823,13.6116 28.07716,7.5474 -0.50217,-3.0379 -32.88382,-19.7951 -44.71192,-28.4116"
       style="fill:#a18582;fill-opacity:1;fill-rule:evenodd;stroke:#a18582;stroke-width:1.4284575px;stroke-linecap:butt;stroke-linejoin:miter;stroke-opacity:1" />
    <path
       style="fill:#a18582;fill-opacity:1;fill-rule:evenodd;stroke:#a18582;stroke-width:1.4284575px;stroke-linecap:butt;stroke-linejoin:miter;stroke-opacity:1"
       d="m 904.27112,924.48106 c 3.4645,3.39239 9.76717,43.07499 17.54873,51.19729 5.34912,5.5836 -0.72793,-10.83 -1.87236,-22.95003 3.6562,10.30423 8.95212,25.95583 14.11262,28.20503 8.72478,3.8024 -5.83217,-17.2452 -9.52359,-29.63295 5.93893,8.4979 11.72898,21.28785 18.70974,24.65645 9.33593,4.5052 -8.3221,-17.47165 -14.37127,-27.57845 7.68385,9.00967 20.47436,21.64025 22.42843,21.58115 5.93921,-0.1797 -10.44851,-17.20773 -18.52473,-25.17967 5.99661,0.59858 29.07823,13.61161 28.07716,7.54757 -0.50217,-3.03809 -32.88382,-19.79525 -44.71192,-28.41177"
       id="path1415"
       inkscape:connector-curvature="0"
       sodipodi:nodetypes="cscscscscsc" />
    <circle
       style="opacity:1;fill:#000000;fill-opacity:1;stroke:#000000;stroke-width:1.875;stroke-linecap:round;stroke-linejoin:round;stroke-miterlimit:4;stroke-dasharray:none;stroke-dashoffset:0;stroke-opacity:1"
       id="path1417"
       cx="872.33685"
       cy="705.1825"
       r="14.205937" />
    <path
       sodipodi:nodetypes="cc"
       inkscape:connector-curvature="0"
       id="path852"
       d="m 924.8849,731.21518 c 6.98913,25.53647 61.25902,12.51543 82.9616,5.6823"
       style="fill:none;fill-rule:evenodd;stroke:#80645f;stroke-width:0.9375px;stroke-linecap:butt;stroke-linejoin:miter;stroke-opacity:1" />
    <path
       style="fill:none;fill-rule:evenodd;stroke:#80645f;stroke-width:0.9375px;stroke-linecap:butt;stroke-linejoin:miter;stroke-opacity:1"
       d="m 924.8849,731.21518 c 19.64338,-12.16871 10.72725,-14.3087 70.52875,-40.57899"
       id="path856"
       inkscape:connector-curvature="0"
       sodipodi:nodetypes="cc" />
    <path
       style="opacity:1;fill:#80645f;fill-opacity:1;stroke:#80645f;stroke-width:2.27292037;stroke-linecap:round;stroke-linejoin:round;stroke-miterlimit:4;stroke-dasharray:none;stroke-dashoffset:0;stroke-opacity:1"
       d="m 944.59839,744.90079 c -7.85894,-1.38372 -14.77337,-5.21668 -17.33025,-9.60689 l -2.00604,-3.44439 13.21285,-9.81821 c 8.93691,-6.64085 18.36948,-12.33012 29.14708,-17.58012 8.76384,-4.26905 18.43153,-9.04043 21.48384,-10.60306 l 5.54962,-2.84115 14.62981,14.09973 14.6299,14.09974 -7.8522,8.69603 -7.852,8.69602 -12.81966,3.07935 c -23.12569,5.55489 -39.40191,7.22854 -50.79295,5.22295 z"
       id="path860"
       inkscape:connector-curvature="0" />
    <path
       style="opacity:1;fill:#9c9e99;fill-opacity:1;stroke:#9c9e99;stroke-width:2.27292037;stroke-linecap:round;stroke-linejoin:round;stroke-miterlimit:4;stroke-dasharray:none;stroke-dashoffset:0;stroke-opacity:1"
       d="m 790.15218,967.67055 c -12.19434,-5.61687 -42.093,-16.51817 -57.60183,-21.00214 -8.1257,-2.34933 -19.63236,-6.36938 -25.57036,-8.93346 l -10.79637,-4.66195 15.34222,-0.84944 c 18.09047,-1.00161 44.00184,-4.52699 58.96863,-8.02302 l 10.66908,-2.49214 5.64038,5.11407 c 7.87896,7.14378 15.30104,17.29419 19.78206,27.05389 2.09653,4.56627 3.81189,8.52969 3.81189,8.80759 0,0.2779 -2.58021,0.5053 -5.7338,0.5053 h -5.7338 l 0.74621,3.9776 c 0.92166,4.9129 0.13823,4.9543 -9.52431,0.5037 z"
       id="path862"
       inkscape:connector-curvature="0" />
    <path
       style="opacity:1;fill:#9c9e99;fill-opacity:1;stroke:#9c9e99;stroke-width:2.27292037;stroke-linecap:round;stroke-linejoin:round;stroke-miterlimit:4;stroke-dasharray:none;stroke-dashoffset:0;stroke-opacity:1"
       d="m 884.26779,929.63811 c -20.5114,-3.06557 -29.56831,-5.67906 -37.64811,-10.86386 -5.53263,-3.55027 -12.3656,-11.29694 -12.34799,-13.99915 0.005,-0.68754 3.12161,-3.8071 6.92698,-6.93236 13.96612,-11.4701 30.56984,-30.61703 44.76487,-51.62155 l 8.48849,-12.5605 1.57268,3.11129 c 4.21546,8.33959 6.79251,20.37227 8.65006,40.38863 0.80409,8.66469 2.43417,16.3529 5.54197,26.13859 2.42155,7.62485 4.74311,15.26973 5.15903,16.98863 l 0.75622,3.12527 h -6.3954 c -6.85962,0 -7.01886,0.26793 -4.32754,7.28141 0.86377,2.25096 1.05025,2.26027 -21.14126,-1.0564 z"
       id="path864"
       inkscape:connector-curvature="0" />
  </g>
</svg>
