<?xml version="1.0" encoding="UTF-8" standalone="no"?>
<!-- Created with Inkscape (http://www.inkscape.org/) -->

<!-- 
Artwork by John Samuel. 
This work is licensed under a Creative Commons Attribution-ShareAlike 4.0 International License. 
-->

<svg
   xmlns:osb="http://www.openswatchbook.org/uri/2009/osb"
   xmlns:dc="http://purl.org/dc/elements/1.1/"
   xmlns:cc="http://creativecommons.org/ns#"
   xmlns:rdf="http://www.w3.org/1999/02/22-rdf-syntax-ns#"
   xmlns:svg="http://www.w3.org/2000/svg"
   xmlns="http://www.w3.org/2000/svg"
   xmlns:sodipodi="http://sodipodi.sourceforge.net/DTD/sodipodi-0.dtd"
   xmlns:inkscape="http://www.inkscape.org/namespaces/inkscape"
   width="297mm"
   height="210mm"
   viewBox="0 0 1052.3622 744.09448"
   id="svg2"
   version="1.1"
   inkscape:version="0.92.5 (2060ec1f9f, 2020-04-08)"
   sodipodi:docname="rat.svg">
  <defs
     id="defs4">
    <linearGradient
       id="linearGradient4824"
       osb:paint="solid">
      <stop
         style="stop-color:#000000;stop-opacity:1;"
         offset="0"
         id="stop4826" />
    </linearGradient>
  </defs>
  <sodipodi:namedview
     id="base"
     pagecolor="#ffffff"
     bordercolor="#666666"
     borderopacity="1.0"
     inkscape:pageopacity="0.0"
     inkscape:pageshadow="2"
     inkscape:zoom="0.82492985"
     inkscape:cx="561.25984"
     inkscape:cy="396.85039"
     inkscape:document-units="px"
     inkscape:current-layer="layer1"
     showgrid="false"
     inkscape:window-width="1600"
     inkscape:window-height="851"
     inkscape:window-x="0"
     inkscape:window-y="25"
     inkscape:window-maximized="1"
     showguides="false">
    <sodipodi:guide
       position="0,0"
       orientation="0,1052.3622"
       id="guide4163"
       inkscape:locked="false" />
    <sodipodi:guide
       position="1052.3622,0"
       orientation="-744.09449,0"
       id="guide4165"
       inkscape:locked="false" />
    <sodipodi:guide
       position="1052.3622,744.09449"
       orientation="0,-1052.3622"
       id="guide4167"
       inkscape:locked="false" />
    <sodipodi:guide
       position="0,744.09449"
       orientation="744.09449,0"
       id="guide4169"
       inkscape:locked="false" />
    <sodipodi:guide
       position="-0.83367063,744.2915"
       orientation="372.04721,0"
       id="guide4173"
       inkscape:locked="false" />
    <sodipodi:guide
       position="-0.83367063,372.24429"
       orientation="0,526.18108"
       id="guide4175"
       inkscape:locked="false" />
    <sodipodi:guide
       position="525.34742,372.24429"
       orientation="-372.04721,0"
       id="guide4177"
       inkscape:locked="false" />
    <sodipodi:guide
       position="525.34742,744.2915"
       orientation="0,-526.18108"
       id="guide4179"
       inkscape:locked="false" />
  </sodipodi:namedview>
  <metadata
     id="metadata7">
    <rdf:RDF>
      <cc:Work
         rdf:about="">
        <dc:format>image/svg+xml</dc:format>
        <dc:type
           rdf:resource="http://purl.org/dc/dcmitype/StillImage" />
        <dc:title></dc:title>
      </cc:Work>
    </rdf:RDF>
  </metadata>
  <g
     inkscape:label="Layer 1"
     inkscape:groupmode="layer"
     id="layer1"
     transform="translate(0,-308.26772)">
    <path
       style="fill:none;fill-rule:evenodd;stroke:#9c9e99;stroke-width:0.9375px;stroke-linecap:butt;stroke-linejoin:miter;stroke-opacity:1"
       d="m 449.46076,916.28052 c 17.767,-3.14588 -38.67869,-60.41159 -19.92252,-72.86541"
       id="path952"
       inkscape:connector-curvature="0"
       sodipodi:nodetypes="cc" />
    <path
       style="fill:#a18582;fill-opacity:1;fill-rule:evenodd;stroke:#a18582;stroke-width:1.73629892px;stroke-linecap:butt;stroke-linejoin:miter;stroke-opacity:1"
       d="m 429.77916,897.36804 c 3.47148,4.76301 1.36736,42.86565 9.06326,54.16666 5.29023,7.76842 1.30397,-13.12903 2.36789,-27.88844 2.31204,13.08741 5.51509,32.91441 11.24937,36.64773 9.69482,6.31177 -3.52565,-21.8453 -5.46121,-37.43703 5.41159,11.38071 9.7821,27.8766 17.47343,33.31769 10.28634,7.27689 -6.46492,-22.61717 -11.68528,-35.94868 7.4005,12.34482 20.19498,30.05656 22.54936,30.37849 7.15584,0.97845 -9.06711,-22.7281 -17.14648,-33.9077 7.06826,1.92263 17.7762,20.45285 17.79486,12.98202 0.005,-3.74265 -21.633,-31.58435 -34.08054,-44.29073"
       id="path1411"
       inkscape:connector-curvature="0"
       sodipodi:nodetypes="cscscscscsc" />
    <path
       style="fill:none;fill-rule:evenodd;stroke:#9c9e99;stroke-width:0.9375px;stroke-linecap:butt;stroke-linejoin:miter;stroke-opacity:1"
       d="m 364.05434,790.58547 c -5.54655,70.49942 48.95518,103.0872 92.90642,133.19505"
       id="path950"
       inkscape:connector-curvature="0"
       sodipodi:nodetypes="cc" />
    <path
       style="opacity:1;fill:#9c9e99;fill-opacity:1;stroke:#9c9e99;stroke-width:2.27292037;stroke-linecap:round;stroke-linejoin:round;stroke-miterlimit:4;stroke-dasharray:none;stroke-dashoffset:0;stroke-opacity:1"
       d="m 441.01628,912.64481 c -6.32564,-4.22578 -7.53396,-5.59162 -8.57903,-9.69739 -1.45825,-5.72899 -4.58356,-7.78381 -3.35902,-2.20849 0.42813,1.94923 0.50835,3.54405 0.17829,3.54405 -1.5668,0 -23.8053,-18.73169 -31.132,-26.22277 -22.03369,-22.52802 -31.63939,-43.2445 -32.89519,-70.94458 l -0.61827,-13.63753 2.70041,2.37269 c 12.6363,11.10271 55.32973,46.62204 58.75392,48.88103 0.20182,0.13315 -0.10884,1.96529 -0.69038,4.07142 -2.06399,7.47519 1.16441,15.43326 19.51005,48.09261 6.37709,11.35264 7.69177,16.46959 4.93879,19.22255 -1.16894,1.16896 -2.85126,0.50547 -8.80757,-3.47359 z"
       id="path846"
       inkscape:connector-curvature="0" />
    <path
       style="fill:#6e6a61;fill-opacity:1;fill-rule:evenodd;stroke:#6e6a61;stroke-width:0.9375px;stroke-linecap:butt;stroke-linejoin:miter;stroke-opacity:1"
       d="M 364.05434,796.21047 C 389.62657,671.29365 533.72974,621.40833 607.78128,655.02824 738.975,714.5911 707.36925,784.28103 945.92199,747.34268 910.84737,815.52369 884.90372,892.93753 822.21973,941.79199 659.34578,1005.0014 551.51904,959.95254 364.05434,796.21047 Z"
       id="path944"
       inkscape:connector-curvature="0"
       sodipodi:nodetypes="csccc" />
    <path
       style="fill:#6d757b;fill-opacity:1;fill-rule:evenodd;stroke:#6d757b;stroke-width:0.9375px;stroke-linecap:butt;stroke-linejoin:miter;stroke-opacity:1"
       d="M 445.87948,679.8936 C 298.36011,553.98619 221.93574,292.4048 17.433958,404.87022 229.3744,312.45179 288.70895,566.03326 424.28672,696.94052"
       id="path948"
       inkscape:connector-curvature="0"
       sodipodi:nodetypes="ccc" />
    <path
       style="fill:none;fill-rule:evenodd;stroke:#9c9e99;stroke-width:0.9375px;stroke-linecap:butt;stroke-linejoin:miter;stroke-opacity:1"
       d="m 681.41087,968.95243 c 41.65381,22.47366 28.70404,5.96457 125.01062,48.86777"
       id="path954"
       inkscape:connector-curvature="0"
       sodipodi:nodetypes="cc" />
    <path
       style="fill:none;fill-rule:evenodd;stroke:#9c9e99;stroke-width:0.9375px;stroke-linecap:butt;stroke-linejoin:miter;stroke-opacity:1"
       d="m 811.81968,1018.9567 c -16.47136,-20.64722 -9.2211,-34.28172 -39.91399,-59.56669"
       id="path956"
       inkscape:connector-curvature="0"
       sodipodi:nodetypes="cc" />
    <path
       style="fill:#8a8778;fill-rule:evenodd;stroke:#8a8778;stroke-width:0.9375px;stroke-linecap:butt;stroke-linejoin:miter;stroke-opacity:1;fill-opacity:1"
       d="M 741.35915,770.0719 C 892.13068,947.69006 919.02841,851.65982 1014.1096,757.57082 958.37174,705.12834 851.0902,568.8833 741.35915,770.0719 Z"
       id="path958"
       inkscape:connector-curvature="0"
       sodipodi:nodetypes="ccc" />
    <path
       inkscape:connector-curvature="0"
       id="path960"
       d="m 822.21973,941.79199 c 15.69957,32.52078 60.79202,22.58668 88.00501,33.5179 -10.03067,15.28145 14.60816,33.77341 -13.43209,-47.69747 -1.70867,-4.96453 -0.33851,-38.39197 -12.30559,-58.04057"
       style="fill:none;fill-rule:evenodd;stroke:#9c9e99;stroke-width:0.9375px;stroke-linecap:butt;stroke-linejoin:miter;stroke-opacity:1"
       sodipodi:nodetypes="ccsc" />
    <path
       style="fill:#9c9e99;fill-rule:evenodd;stroke:#9c9e99;stroke-width:0.9375px;stroke-linecap:butt;stroke-linejoin:miter;stroke-opacity:1;fill-opacity:1"
       d="m 816.36552,682.56445 c 2.26206,-29.84743 2.38865,-60.64396 31.82089,-78.41576 26.40738,33.89513 35.70591,25.24993 36.36672,60.23239"
       id="path1550"
       inkscape:connector-curvature="0"
       sodipodi:nodetypes="ccc" />
    <path
       style="fill:#9c9e99;fill-rule:evenodd;stroke:#9c9e99;stroke-width:0.9375px;stroke-linecap:butt;stroke-linejoin:miter;stroke-opacity:1;fill-opacity:1"
       d="m 770.90711,721.20409 c -30.2497,-18.31061 -44.70199,-12.69595 -69.32408,-5.68229 -8.88111,42.53716 20.3134,43.19115 39.77612,54.5501"
       id="path1552"
       inkscape:connector-curvature="0"
       sodipodi:nodetypes="ccc" />
    <path
       style="fill:none;fill-rule:evenodd;stroke:#000000;stroke-width:0.9375px;stroke-linecap:butt;stroke-linejoin:miter;stroke-opacity:1"
       d="m 901.60004,789.39171 c 6.98913,25.53647 66.94132,3.42375 88.6439,-3.40938"
       id="path2166"
       inkscape:connector-curvature="0"
       sodipodi:nodetypes="cc" />
    <path
       sodipodi:nodetypes="cscscscscsc"
       inkscape:connector-curvature="0"
       id="path1413"
       d="m 789.16856,1001.691 c 3.4645,3.3923 9.76717,43.0749 17.54873,51.1972 5.34912,5.5836 -0.72793,-10.83 -1.87236,-22.9502 3.6562,10.3044 8.95212,25.956 14.11262,28.2052 8.72478,3.8023 -5.83217,-17.2452 -9.52359,-29.6329 5.93893,8.4978 11.72898,21.2878 18.70974,24.6564 9.33593,4.5051 -8.3221,-17.4716 -14.37127,-27.5785 7.68385,9.0098 20.47436,21.6403 22.42843,21.5812 5.93921,-0.1797 -10.44851,-17.2078 -18.52473,-25.1796 5.99661,0.5986 29.07823,13.6116 28.07716,7.5474 -0.50217,-3.0379 -32.88382,-19.7951 -44.71192,-28.4116"
       style="fill:#a18582;fill-rule:evenodd;stroke:#a18582;stroke-width:1.4284575px;stroke-linecap:butt;stroke-linejoin:miter;stroke-opacity:1;fill-opacity:1" />
    <path
       style="fill:#a18582;fill-rule:evenodd;stroke:#a18582;stroke-width:1.4284575px;stroke-linecap:butt;stroke-linejoin:miter;stroke-opacity:1;fill-opacity:1"
       d="m 894.16856,962.31591 c 3.4645,3.39239 9.76717,43.07499 17.54873,51.19729 5.34912,5.5836 -0.72793,-10.83 -1.87236,-22.95003 3.6562,10.30423 8.95212,25.95583 14.11262,28.20503 8.72478,3.8024 -5.83217,-17.2452 -9.52359,-29.63295 5.93893,8.4979 11.72898,21.28785 18.70974,24.65645 9.33593,4.5052 -8.3221,-17.47165 -14.37127,-27.57845 7.68385,9.00967 20.47436,21.64025 22.42843,21.58115 5.93921,-0.1797 -10.44851,-17.20773 -18.52473,-25.17967 5.99661,0.59858 29.07823,13.61161 28.07716,7.54757 -0.50217,-3.03809 -32.88382,-19.79525 -44.71192,-28.41177"
       id="path1415"
       inkscape:connector-curvature="0"
       sodipodi:nodetypes="cscscscscsc" />
    <circle
       style="opacity:1;fill:#000000;fill-opacity:1;stroke:#000000;stroke-width:1.875;stroke-linecap:round;stroke-linejoin:round;stroke-miterlimit:4;stroke-dasharray:none;stroke-dashoffset:0;stroke-opacity:1"
       id="path1417"
       cx="862.23431"
       cy="743.01733"
       r="14.205937" />
    <path
       sodipodi:nodetypes="cc"
       inkscape:connector-curvature="0"
       id="path852"
       d="m 914.78234,769.05003 c 6.98913,25.53647 61.25902,12.51543 82.9616,5.6823"
       style="fill:none;fill-rule:evenodd;stroke:#80645f;stroke-width:0.9375px;stroke-linecap:butt;stroke-linejoin:miter;stroke-opacity:1" />
    <path
       style="fill:none;fill-rule:evenodd;stroke:#80645f;stroke-width:0.9375px;stroke-linecap:butt;stroke-linejoin:miter;stroke-opacity:1"
       d="m 914.78234,769.05003 c 19.64338,-12.16871 10.72725,-14.3087 70.52875,-40.57899"
       id="path856"
       inkscape:connector-curvature="0"
       sodipodi:nodetypes="cc" />
    <path
       style="opacity:1;fill:#80645f;fill-opacity:1;stroke:#80645f;stroke-width:2.42444849;stroke-linecap:round;stroke-linejoin:round;stroke-miterlimit:4;stroke-dasharray:none;stroke-dashoffset:0;stroke-opacity:1"
       d="m 996.79555,506.09911 c -8.38286,-1.47596 -15.75826,-5.56445 -18.4856,-10.24734 l -2.13977,-3.67402 14.09371,-10.47276 c 9.5327,-7.08357 19.59411,-13.15213 31.09021,-18.75213 9.3481,-4.55365 19.6603,-9.64312 22.9161,-11.30993 l 5.9196,-3.03056 15.6051,15.03972 15.6052,15.03972 -8.3756,9.27576 -8.3755,9.27576 -13.6743,3.28464 c -24.6674,5.92521 -42.0287,7.71044 -54.17915,5.57114 z"
       id="path860"
       inkscape:connector-curvature="0"
       transform="matrix(0.9375,0,0,0.9375,0,308.26772)" />
    <path
       style="opacity:1;fill:#9c9e99;fill-opacity:1;stroke:#9c9e99;stroke-width:2.42444849;stroke-linecap:round;stroke-linejoin:round;stroke-miterlimit:4;stroke-dasharray:none;stroke-dashoffset:0;stroke-opacity:1"
       d="m 832.05293,743.72014 c -13.0073,-5.99128 -44.8992,-17.61933 -61.44195,-22.40223 -8.66741,-2.50595 -20.94118,-6.79401 -27.27505,-9.52902 l -11.51613,-4.97275 16.36503,-0.90607 c 19.29651,-1.06838 46.9353,-4.82879 62.89988,-8.55789 l 11.38035,-2.65828 6.0164,5.45501 c 8.40423,7.62003 16.32111,18.44713 21.10087,28.85748 2.2363,4.87069 4.06601,9.09832 4.06601,9.39474 0,0.29643 -2.75222,0.53896 -6.11605,0.53896 h -6.11605 l 0.79595,4.24278 c 0.98311,5.24044 0.14745,5.28464 -10.15926,0.53727 z"
       id="path862"
       inkscape:connector-curvature="0"
       transform="matrix(0.9375,0,0,0.9375,0,308.26772)" />
    <path
       style="opacity:1;fill:#9c9e99;fill-opacity:1;stroke:#9c9e99;stroke-width:2.42444849;stroke-linecap:round;stroke-linejoin:round;stroke-miterlimit:4;stroke-dasharray:none;stroke-dashoffset:0;stroke-opacity:1"
       d="m 932.44292,703.15226 c -21.87883,-3.26995 -31.53954,-6.05767 -40.15799,-11.58812 -5.90147,-3.78696 -13.18997,-12.05007 -13.17119,-14.93243 0.005,-0.73337 3.32972,-4.0609 7.38878,-7.39452 14.89719,-12.23477 32.60783,-32.65816 47.74919,-55.06298 l 9.05439,-13.39787 1.67753,3.31871 c 4.49649,8.89556 7.24534,21.73042 9.22673,43.08121 0.8577,9.24233 2.59645,17.44309 5.91144,27.88116 2.58298,8.13317 5.05931,16.28771 5.50296,18.1212 l 0.80663,3.33362 h -6.82175 c -7.31693,0 -7.48679,0.2858 -4.61605,7.76684 0.92136,2.40103 1.12027,2.41096 -22.55067,-1.12682 z"
       id="path864"
       inkscape:connector-curvature="0"
       transform="matrix(0.9375,0,0,0.9375,0,308.26772)" />
  </g>
</svg>
