<?xml version="1.0" encoding="UTF-8" standalone="no"?>
<!-- Created with Inkscape (http://www.inkscape.org/) -->

<!-- 
Artwork by John Samuel. 
This work is licensed under a Creative Commons Attribution-ShareAlike 4.0 International License. 
-->

<svg
   xmlns:osb="http://www.openswatchbook.org/uri/2009/osb"
   xmlns:dc="http://purl.org/dc/elements/1.1/"
   xmlns:cc="http://creativecommons.org/ns#"
   xmlns:rdf="http://www.w3.org/1999/02/22-rdf-syntax-ns#"
   xmlns:svg="http://www.w3.org/2000/svg"
   xmlns="http://www.w3.org/2000/svg"
   xmlns:sodipodi="http://sodipodi.sourceforge.net/DTD/sodipodi-0.dtd"
   xmlns:inkscape="http://www.inkscape.org/namespaces/inkscape"
   sodipodi:docname="ring.svg"
   inkscape:version="0.91 r13725"
   version="1.1"
   id="svg2"
   viewBox="0 0 1052.3622 744.09448"
   height="210mm"
   width="297mm">
  <sodipodi:namedview
     showguides="false"
     inkscape:window-maximized="1"
     inkscape:window-y="0"
     inkscape:window-x="0"
     inkscape:window-height="847"
     inkscape:window-width="1600"
     showgrid="false"
     inkscape:current-layer="layer1"
     inkscape:document-units="px"
     inkscape:cy="372.04724"
     inkscape:cx="526.1811"
     inkscape:zoom="0.89702955"
     inkscape:pageshadow="2"
     inkscape:pageopacity="0.0"
     borderopacity="1.0"
     bordercolor="#666666"
     pagecolor="#ffffff"
     id="base"
     inkscape:guide-bbox="true">
    <sodipodi:guide
       id="guide4163"
       orientation="0,1052.3622"
       position="0,0" />
    <sodipodi:guide
       id="guide4165"
       orientation="-744.09449,0"
       position="1052.3622,0" />
    <sodipodi:guide
       id="guide4167"
       orientation="0,-1052.3622"
       position="1052.3622,744.09449" />
    <sodipodi:guide
       id="guide4169"
       orientation="744.09449,0"
       position="0,744.09449" />
    <sodipodi:guide
       id="guide4173"
       orientation="372.04721,0"
       position="-0.83367063,744.2915" />
    <sodipodi:guide
       id="guide4175"
       orientation="0,526.18108"
       position="-0.83367063,372.24429" />
    <sodipodi:guide
       id="guide4177"
       orientation="-372.04721,0"
       position="525.34742,372.24429" />
    <sodipodi:guide
       id="guide4179"
       orientation="0,-526.18108"
       position="525.34742,744.2915" />
    <inkscape:grid
       id="grid9321"
       type="xygrid" />
  </sodipodi:namedview>
  <defs
     id="defs4">
    <marker
       inkscape:isstock="true"
       style="overflow:visible;"
       id="marker7353"
       refX="0.0"
       refY="0.0"
       orient="auto"
       inkscape:stockid="Arrow1Lend">
      <path
         transform="scale(0.8) rotate(180) translate(12.5,0)"
         style="fill-rule:evenodd;stroke:#000000;stroke-width:1pt;stroke-opacity:1;fill:#000000;fill-opacity:1"
         d="M 0.0,0.0 L 5.0,-5.0 L -12.5,0.0 L 5.0,5.0 L 0.0,0.0 z "
         id="path7355" />
    </marker>
    <marker
       inkscape:isstock="true"
       style="overflow:visible"
       id="marker7275"
       refX="0.0"
       refY="0.0"
       orient="auto"
       inkscape:stockid="Arrow1Lstart">
      <path
         transform="scale(0.8) translate(12.5,0)"
         style="fill-rule:evenodd;stroke:#000000;stroke-width:1pt;stroke-opacity:1;fill:#000000;fill-opacity:1"
         d="M 0.0,0.0 L 5.0,-5.0 L -12.5,0.0 L 5.0,5.0 L 0.0,0.0 z "
         id="path7277" />
    </marker>
    <linearGradient
       osb:paint="solid"
       id="linearGradient4824">
      <stop
         id="stop4826"
         offset="0"
         style="stop-color:#000000;stop-opacity:1;" />
    </linearGradient>
  </defs>
  <metadata
     id="metadata7">
    <rdf:RDF>
      <cc:Work
         rdf:about="">
        <dc:format>image/svg+xml</dc:format>
        <dc:type
           rdf:resource="http://purl.org/dc/dcmitype/StillImage" />
        <dc:title></dc:title>
      </cc:Work>
    </rdf:RDF>
  </metadata>
  <g
     transform="translate(0,-308.26772)"
     id="layer1"
     inkscape:groupmode="layer"
     inkscape:label="Layer 1">
    <ellipse
       style="opacity:0.98999999;fill:none;fill-opacity:1;stroke:#fccf62;stroke-width:1.38618791;stroke-linecap:round;stroke-linejoin:round;stroke-miterlimit:4;stroke-dasharray:none;stroke-dashoffset:0;stroke-opacity:1"
       id="path6939"
       cx="527.93665"
       cy="654.84058"
       rx="225.43997"
       ry="132.35498" />
    <ellipse
       ry="157.5799"
       rx="247.42432"
       cy="657.39801"
       cx="526.26447"
       id="ellipse6941"
       style="opacity:0.98999999;fill:none;fill-opacity:1;stroke:#fccf62;stroke-width:1.36880064;stroke-linecap:round;stroke-linejoin:round;stroke-miterlimit:4;stroke-dasharray:none;stroke-dashoffset:0;stroke-opacity:1" />
    <path
       sodipodi:nodetypes="ccscc"
       inkscape:connector-curvature="0"
       id="path6951"
       d="m 773.10879,674.11987 -0.3698,67.12478 C 753.26594,812.38501 656.31068,869.54531 523.32024,868.86156 390.3298,868.17781 302.36029,810.17205 278.73899,743.24465 l -0.1876,-86.63361"
       style="fill:none;fill-rule:evenodd;stroke:#f7c445;stroke-width:1.5;stroke-linecap:butt;stroke-linejoin:miter;stroke-miterlimit:4;stroke-dasharray:none;stroke-opacity:1" />
    <path
       sodipodi:open="true"
       d="M 748.43209,-671.71378 A 258.30832,189.21167 0 0 1 528.7149,-578.29367 258.30832,189.21167 0 0 1 306.045,-667.88406"
       sodipodi:end="2.587188"
       sodipodi:start="0.53076917"
       sodipodi:ry="189.21167"
       sodipodi:rx="258.30832"
       sodipodi:cy="-767.49213"
       sodipodi:cx="525.66235"
       sodipodi:type="arc"
       style="opacity:0.98999999;fill:none;fill-opacity:1;stroke:#fccf62;stroke-width:1.5;stroke-linecap:round;stroke-linejoin:round;stroke-miterlimit:4;stroke-dasharray:none;stroke-dashoffset:0;stroke-opacity:1;marker-end:url(#Arrow1Lend)"
       id="path6953"
       transform="scale(1,-1)" />
    <path
       style="opacity:0.98999999;fill:#f7c445;fill-opacity:1;stroke:#f7c445;stroke-width:1.69371915;stroke-linecap:round;stroke-linejoin:round;stroke-miterlimit:4;stroke-dasharray:none;stroke-dashoffset:0;stroke-opacity:1"
       d="m 494.67374,868.26513 c -27.56793,-2.42989 -57.90179,-8.01922 -79.04356,-14.56459 -65.51379,-20.2827 -114.76391,-59.47292 -133.33792,-106.10212 -2.62783,-6.59701 -2.69108,-7.52338 -2.64939,-38.79921 l 0.0427,-32.04085 3.15003,9.85522 c 6.17678,19.3246 16.1928,35.61535 32.43119,52.74838 37.46942,39.53373 94.54157,65.14251 165.99975,74.48557 19.27441,2.52011 68.64568,2.89123 86.58805,0.65086 C 671.77251,801.5228 748.8425,753.25484 770.49234,687.58892 l 2.66703,-8.08933 -0.5128,30.58168 c -0.57593,34.3469 -0.84778,35.92041 -8.94859,51.79995 -29.43212,57.69407 -106.20011,97.78427 -202.88714,105.95285 -13.06269,1.1036 -55.37795,1.37939 -66.13712,0.43106 z"
       id="path7419"
       inkscape:connector-curvature="0" />
    <path
       style="opacity:0.98999999;fill:#f7c445;fill-opacity:1;stroke:#fccf62;stroke-width:1.7056706;stroke-linecap:round;stroke-linejoin:round;stroke-miterlimit:4;stroke-dasharray:none;stroke-dashoffset:0;stroke-opacity:1"
       d="m 742.74664,665.15463 c -3.68768,-4.46589 -12.16283,-13.01072 -18.83368,-18.98853 -41.6423,-37.31606 -97.46202,-60.89261 -161.73422,-68.3116 -22.00377,-2.53991 -66.79318,-1.69684 -87.62821,1.64942 -65.79722,10.5675 -119.17522,36.40903 -158.60846,76.78603 -6.71995,6.88077 -12.37721,12.51047 -12.57169,12.51047 -0.1945,0 -0.34619,-5.33705 -0.33711,-11.86014 0.0199,-14.34389 1.98756,-23.58198 7.72067,-36.24971 5.68638,-12.56447 9.88094,-18.72126 20.72394,-30.41866 40.43829,-43.62474 113.07217,-69.53073 195.03564,-69.56246 24.4238,-0.009 41.00997,1.26916 61.19026,4.7171 75.10295,12.83181 133.2266,47.65928 155.34361,93.08132 6.477,13.30189 8.59674,22.73967 8.61902,38.37456 0.0113,7.91079 -0.47115,14.61665 -1.09738,15.25424 -0.73824,0.75165 -3.39289,-1.61782 -7.82239,-6.98204 z"
       id="path7421"
       inkscape:connector-curvature="0" />
    <path
       style="opacity:0.98999999;fill:#fccf62;fill-opacity:1;stroke:#fccf62;stroke-width:1.67218566;stroke-linecap:round;stroke-linejoin:round;stroke-miterlimit:4;stroke-dasharray:none;stroke-dashoffset:0;stroke-opacity:1"
       d="m 495.8588,504.43356 c -72.19811,-6.29044 -135.03057,-31.09848 -173.91658,-68.66722 -6.63939,-6.41447 -14.07839,-14.27032 -16.53113,-17.45744 -28.57743,-37.13399 -33.01157,-79.26954 -12.4778,-118.57075 26.25384,-50.24932 92.87612,-89.54079 173.38356,-102.25552 38.20908,-6.03445 77.22491,-6.26096 115.41593,-0.67005 63.08672,9.23547 118.66394,34.48455 153.24858,69.62178 42.89799,43.58342 49.17448,97.05062 17.03279,145.0966 -3.23296,4.83269 -11.39785,14.30492 -18.14419,21.04941 -37.31594,37.30562 -93.66546,61.71637 -162.20541,70.26776 -16.82129,2.09872 -59.63694,2.99417 -75.80575,1.58543 z m 79.15012,-27.21975 c 64.53795,-8.80994 116.46163,-31.0138 148.73479,-63.60267 41.19526,-41.59825 40.82123,-93.27033 -0.97629,-134.87382 -31.11874,-30.9743 -81.42831,-52.95282 -141.93387,-62.00604 -21.97368,-3.28783 -68.01409,-4.09578 -91.66349,-1.60857 -64.67125,6.80148 -119.77214,28.85066 -153.85932,61.56836 -22.98099,22.0577 -33.42548,43.7555 -33.42548,69.43941 0,14.34422 2.56265,25.58739 8.63668,37.89182 24.15948,48.94093 93.56924,85.24822 180.30857,94.31692 18.71911,1.9571 66.25258,1.32161 84.17841,-1.12541 z"
       id="path7423"
       inkscape:connector-curvature="0"
       transform="translate(0,308.26772)" />
  </g>
</svg>
