<?xml version="1.0" encoding="UTF-8" standalone="no"?>
<!-- Created with Inkscape (http://www.inkscape.org/) -->

<!-- 
Artwork by John Samuel. 
This work is licensed under a Creative Commons Attribution-ShareAlike 4.0 International License. 
-->

<svg
   xmlns:dc="http://purl.org/dc/elements/1.1/"
   xmlns:cc="http://creativecommons.org/ns#"
   xmlns:rdf="http://www.w3.org/1999/02/22-rdf-syntax-ns#"
   xmlns:svg="http://www.w3.org/2000/svg"
   xmlns="http://www.w3.org/2000/svg"
   xmlns:sodipodi="http://sodipodi.sourceforge.net/DTD/sodipodi-0.dtd"
   xmlns:inkscape="http://www.inkscape.org/namespaces/inkscape"
   width="297mm"
   height="210mm"
   viewBox="0 0 1052.3622 744.09448"
   id="svg2"
   version="1.1"
   inkscape:version="0.91 r13725"
   sodipodi:docname="slate.svg">
  <defs
     id="defs4" />
  <sodipodi:namedview
     id="base"
     pagecolor="#ffffff"
     bordercolor="#666666"
     borderopacity="1.0"
     inkscape:pageopacity="0.0"
     inkscape:pageshadow="2"
     inkscape:zoom="0.89702955"
     inkscape:cx="526.1811"
     inkscape:cy="372.04724"
     inkscape:document-units="px"
     inkscape:current-layer="layer1"
     showgrid="false"
     inkscape:window-width="1600"
     inkscape:window-height="847"
     inkscape:window-x="0"
     inkscape:window-y="0"
     inkscape:window-maximized="1"
     showguides="false"
     inkscape:guide-bbox="true">
    <inkscape:grid
       type="xygrid"
       id="grid4167" />
    <sodipodi:guide
       position="-262.17365,376.39867"
       orientation="0,1"
       id="guide5424" />
    <sodipodi:guide
       position="526.72979,509.17212"
       orientation="1,0"
       id="guide4608" />
  </sodipodi:namedview>
  <metadata
     id="metadata7">
    <rdf:RDF>
      <cc:Work
         rdf:about="">
        <dc:format>image/svg+xml</dc:format>
        <dc:type
           rdf:resource="http://purl.org/dc/dcmitype/StillImage" />
        <dc:title></dc:title>
      </cc:Work>
    </rdf:RDF>
  </metadata>
  <g
     inkscape:label="Layer 1"
     inkscape:groupmode="layer"
     id="layer1"
     transform="translate(0,-308.26772)">
    <path
       id="path4652"
       d="m 349.77838,324.46885 c -25.00438,0 -45.13395,20.13149 -45.13395,45.13587 l 0,43.03406 c 0,1.93478 0.13341,3.83671 0.36738,5.70604 l -124.33974,0 c -24.67604,0 -44.54227,19.86623 -44.54227,44.54226 l 0,510.73366 c 0,24.67606 19.86623,44.54036 44.54227,44.54036 l 691.02,0 c 24.67604,0 44.54034,-19.8643 44.54034,-44.54036 l 0,-510.73366 c -10e-6,-24.67603 -19.8643,-44.54226 -44.54034,-44.54226 l -124.27014,0 c 0.23397,-1.86929 0.36738,-3.7713 0.36738,-5.70604 l 0,-43.03406 c 0,-25.00438 -20.12955,-45.13587 -45.13394,-45.13587 l -352.87699,0 z"
       style="opacity:1;fill:#ed8c29;fill-opacity:1;stroke:#ed8c29;stroke-width:1.5;stroke-linecap:round;stroke-linejoin:round;stroke-miterlimit:4;stroke-dasharray:none;stroke-dashoffset:0;stroke-opacity:1"
       inkscape:connector-curvature="0" />
    <path
       style="opacity:1;fill:#ce7011;fill-opacity:1;stroke:#ce7011;stroke-width:1.5;stroke-linecap:round;stroke-linejoin:round;stroke-miterlimit:4;stroke-dasharray:none;stroke-dashoffset:0;stroke-opacity:1"
       d="m 347.99653,334.96535 c -25.25695,0 -45.58984,20.33484 -45.58984,45.59179 l 0,43.46875 c 0,1.95432 0.13475,3.87546 0.37109,5.76368 l -125.5957,0 c -24.92529,0 -44.99219,20.06689 -44.99219,44.99218 l 0,515.89258 c 0,24.92527 20.0669,44.99027 44.99219,44.99027 l 698,0 c 24.92529,0 44.99024,-20.065 44.99024,-44.99027 l 0,-515.89258 c -10e-6,-24.92529 -20.06495,-44.99218 -44.99024,-44.99218 l -125.52539,0 c 0.23633,-1.88818 0.37109,-3.8094 0.37109,-5.76368 l 0,-43.46875 c 0,-25.25695 -20.33288,-45.59179 -45.58984,-45.59179 l -356.44141,0 z"
       id="rect4606"
       inkscape:connector-curvature="0" />
    <rect
       style="opacity:1;fill:#ffffff;fill-opacity:1;stroke:#ed8c29;stroke-width:1.5;stroke-linecap:round;stroke-linejoin:round;stroke-miterlimit:4;stroke-dasharray:none;stroke-dashoffset:0;stroke-opacity:1"
       id="rect4602"
       width="364.77676"
       height="70.685951"
       x="344.02332"
       y="366.08139"
       ry="23.932913" />
    <rect
       style="opacity:1;fill:#5b5c56;fill-opacity:1;stroke:#5b5c56;stroke-width:1.5;stroke-linecap:round;stroke-linejoin:round;stroke-miterlimit:4;stroke-dasharray:none;stroke-dashoffset:0;stroke-opacity:1"
       id="rect4161"
       width="705.91071"
       height="530.65686"
       x="173.22621"
       y="467.88858"
       ry="17.557669" />
    <rect
       ry="20.625355"
       y="365.90393"
       x="343.96967"
       height="60.917065"
       width="364.88406"
       id="rect4654"
       style="opacity:1;fill:#ffffff;fill-opacity:1;stroke:#ed8c29;stroke-width:1.5;stroke-linecap:round;stroke-linejoin:round;stroke-miterlimit:4;stroke-dasharray:none;stroke-dashoffset:0;stroke-opacity:1" />
    <path
       style="opacity:0.98999999;fill:#ed8c29;fill-opacity:1;stroke:#ed8c29;stroke-width:5.01655722;stroke-linecap:round;stroke-linejoin:round;stroke-miterlimit:4;stroke-dasharray:none;stroke-dashoffset:0;stroke-opacity:1"
       d="m 361.11062,126.0155 c -5.27121,-1.64406 -10.55539,-6.02009 -13.06108,-10.81636 -2.34782,-4.49409 -1.92015,-4.9858 1.49301,-1.71655 7.11252,6.8126 -4.26328,6.39964 176.10109,6.39283 111.52043,-0.004 166.10656,-0.38402 168.95703,-1.1756 2.31602,-0.64316 5.95303,-2.69896 8.08223,-4.56843 4.34174,-3.81209 4.88985,-3.17994 1.73246,1.99805 -2.8189,4.62291 -8.52318,8.82223 -14.02562,10.32525 -3.13379,0.85601 -52.00691,1.19773 -164.4316,1.14969 -131.83479,-0.0563 -160.82991,-0.3358 -164.84752,-1.58888 z"
       id="path24002"
       inkscape:connector-curvature="0"
       transform="translate(0,308.26772)" />
  </g>
</svg>
