<?xml version="1.0" encoding="UTF-8" standalone="no"?>
<!-- Created with Inkscape (http://www.inkscape.org/) -->

<!-- 
Artwork by John Samuel. 
This work is licensed under a Creative Commons Attribution-ShareAlike 4.0 International License. 
-->

<svg
   xmlns:osb="http://www.openswatchbook.org/uri/2009/osb"
   xmlns:dc="http://purl.org/dc/elements/1.1/"
   xmlns:cc="http://creativecommons.org/ns#"
   xmlns:rdf="http://www.w3.org/1999/02/22-rdf-syntax-ns#"
   xmlns:svg="http://www.w3.org/2000/svg"
   xmlns="http://www.w3.org/2000/svg"
   xmlns:sodipodi="http://sodipodi.sourceforge.net/DTD/sodipodi-0.dtd"
   xmlns:inkscape="http://www.inkscape.org/namespaces/inkscape"
   sodipodi:docname="torch.svg"
   inkscape:version="0.91 r13725"
   version="1.1"
   id="svg2"
   viewBox="0 0 1052.3622 744.09448"
   height="210mm"
   width="297mm">
  <sodipodi:namedview
     showguides="false"
     inkscape:window-maximized="1"
     inkscape:window-y="0"
     inkscape:window-x="0"
     inkscape:window-height="847"
     inkscape:window-width="1600"
     showgrid="false"
     inkscape:current-layer="layer1"
     inkscape:document-units="px"
     inkscape:cy="372.04724"
     inkscape:cx="526.1811"
     inkscape:zoom="0.89702955"
     inkscape:pageshadow="2"
     inkscape:pageopacity="0.0"
     borderopacity="1.0"
     bordercolor="#666666"
     pagecolor="#ffffff"
     id="base"
     inkscape:guide-bbox="true">
    <sodipodi:guide
       id="guide4163"
       orientation="0,1052.3622"
       position="0,0" />
    <sodipodi:guide
       id="guide4165"
       orientation="-744.09449,0"
       position="1052.3622,0" />
    <sodipodi:guide
       id="guide4167"
       orientation="0,-1052.3622"
       position="1052.3622,744.09449" />
    <sodipodi:guide
       id="guide4169"
       orientation="744.09449,0"
       position="0,744.09449" />
    <sodipodi:guide
       id="guide4173"
       orientation="372.04721,0"
       position="-0.83367063,744.2915" />
    <sodipodi:guide
       id="guide4175"
       orientation="0,526.18108"
       position="-0.83367063,372.24429" />
    <sodipodi:guide
       id="guide4177"
       orientation="-372.04721,0"
       position="525.34742,372.24429" />
    <sodipodi:guide
       id="guide4179"
       orientation="0,-526.18108"
       position="525.34742,744.2915" />
    <inkscape:grid
       id="grid9321"
       type="xygrid" />
  </sodipodi:namedview>
  <defs
     id="defs4">
    <linearGradient
       osb:paint="solid"
       id="linearGradient4824">
      <stop
         id="stop4826"
         offset="0"
         style="stop-color:#000000;stop-opacity:1;" />
    </linearGradient>
  </defs>
  <metadata
     id="metadata7">
    <rdf:RDF>
      <cc:Work
         rdf:about="">
        <dc:format>image/svg+xml</dc:format>
        <dc:type
           rdf:resource="http://purl.org/dc/dcmitype/StillImage" />
        <dc:title></dc:title>
      </cc:Work>
    </rdf:RDF>
  </metadata>
  <g
     transform="translate(0,-308.26772)"
     id="layer1"
     inkscape:groupmode="layer"
     inkscape:label="Layer 1">
    <path
       style="opacity:0.98999999;fill:none;fill-opacity:1;stroke:#a25202;stroke-width:1.5;stroke-linecap:round;stroke-linejoin:round;stroke-miterlimit:4;stroke-dasharray:none;stroke-dashoffset:0;stroke-opacity:1"
       d="m 380.39009,428.07601 0,-71.91036 m 291.86373,0 0,71.91036"
       id="rect4318"
       inkscape:connector-curvature="0"
       sodipodi:nodetypes="cccc" />
    <path
       style="fill:none;fill-rule:evenodd;stroke:#a25202;stroke-width:1.5;stroke-linecap:butt;stroke-linejoin:miter;stroke-miterlimit:4;stroke-dasharray:none;stroke-opacity:1"
       d="M 672.50628,424.95326 599.25017,988.88604"
       id="path4320"
       inkscape:connector-curvature="0"
       sodipodi:nodetypes="cc" />
    <path
       inkscape:connector-curvature="0"
       id="path4322"
       d="m 379.9821,425.82842 75.81257,563.05762"
       style="fill:none;fill-rule:evenodd;stroke:#a25202;stroke-width:1.5;stroke-linecap:butt;stroke-linejoin:miter;stroke-miterlimit:4;stroke-dasharray:none;stroke-opacity:1"
       sodipodi:nodetypes="cc" />
    <path
       id="ellipse4349"
       style="opacity:0.98999999;fill:none;fill-opacity:1;stroke:#a25202;stroke-width:1.50987327;stroke-linecap:round;stroke-linejoin:round;stroke-miterlimit:4;stroke-dasharray:none;stroke-dashoffset:0;stroke-opacity:1"
       sodipodi:type="arc"
       sodipodi:cx="-526.14447"
       sodipodi:cy="421.58725"
       sodipodi:rx="146.32968"
       sodipodi:ry="36.373238"
       sodipodi:start="0"
       sodipodi:end="3.1638569"
       sodipodi:open="true"
       d="m -379.81479,421.58725 a 146.32968,36.373238 0 0 1 -74.10733,31.63425 146.32968,36.373238 0 0 1 -147.26002,-0.4075 146.32968,36.373238 0 0 1 -71.25575,-32.03651"
       transform="scale(-1,1)" />
    <path
       id="ellipse4353"
       style="opacity:0.98999999;fill:none;fill-opacity:1;stroke:#bf650a;stroke-width:1.5;stroke-linecap:round;stroke-linejoin:round;stroke-miterlimit:4;stroke-dasharray:none;stroke-dashoffset:0;stroke-opacity:1"
       sodipodi:type="arc"
       sodipodi:cx="-528.86591"
       sodipodi:cy="986.2334"
       sodipodi:rx="72.188705"
       sodipodi:ry="24.460957"
       sodipodi:start="0"
       sodipodi:end="3.2372016"
       sodipodi:open="true"
       d="m -456.6772,986.2334 a 72.188705,24.460957 0 0 1 -38.10475,21.5628 72.188705,24.460957 0 0 1 -74.08712,-1.201 72.188705,24.460957 0 0 1 -31.85585,-22.69693"
       transform="scale(-1,1)" />
    <path
       transform="scale(-1,1)"
       d="m -672.50715,352.32969 a 146.32961,36.377937 0 0 1 155.90487,-33.21448 146.32961,36.377937 0 0 1 136.0209,38.23543 146.32961,36.377937 0 0 1 -151.66029,34.40762 146.32961,36.377937 0 0 1 -140.75351,-37.16172"
       sodipodi:open="true"
       sodipodi:end="3.1638569"
       sodipodi:start="3.2262702"
       sodipodi:ry="36.377937"
       sodipodi:rx="146.32961"
       sodipodi:cy="355.4064"
       sodipodi:cx="-526.70184"
       sodipodi:type="arc"
       style="opacity:0.98999999;fill:none;fill-opacity:1;stroke:#a65809;stroke-width:1.50997055;stroke-linecap:round;stroke-linejoin:round;stroke-miterlimit:4;stroke-dasharray:none;stroke-dashoffset:0;stroke-opacity:1"
       id="path4987" />
    <path
       transform="scale(-1,1)"
       d="m -456.6772,1021.2678 a 72.188705,24.460957 0 0 1 -38.10475,21.5628 72.188705,24.460957 0 0 1 -74.08712,-1.201 72.188705,24.460957 0 0 1 -31.85585,-22.6969"
       sodipodi:open="true"
       sodipodi:end="3.2372016"
       sodipodi:start="0"
       sodipodi:ry="24.460957"
       sodipodi:rx="72.188705"
       sodipodi:cy="1021.2678"
       sodipodi:cx="-528.86591"
       sodipodi:type="arc"
       style="opacity:0.98999999;fill:none;fill-opacity:1;stroke:#bf650a;stroke-width:1.5;stroke-linecap:round;stroke-linejoin:round;stroke-miterlimit:4;stroke-dasharray:none;stroke-dashoffset:0;stroke-opacity:1"
       id="path4989" />
    <path
       style="fill:none;fill-rule:evenodd;stroke:#bf650a;stroke-width:1.5;stroke-linecap:butt;stroke-linejoin:miter;stroke-opacity:1;stroke-miterlimit:4;stroke-dasharray:none"
       d="m 455.9867,985.68744 c 1.1149,36.88626 1.1149,35.80126 1.1149,35.80126"
       id="path4991"
       inkscape:connector-curvature="0" />
    <path
       inkscape:connector-curvature="0"
       id="path4993"
       d="m 599.99966,985.68744 c 1.11489,36.88626 1.11489,35.80126 1.11489,35.80126"
       style="fill:none;fill-rule:evenodd;stroke:#bf650a;stroke-width:1.5;stroke-linecap:butt;stroke-linejoin:miter;stroke-opacity:1;stroke-miterlimit:4;stroke-dasharray:none" />
    <path
       id="path4995"
       style="opacity:0.98999999;fill:none;fill-opacity:1;stroke:#a65809;stroke-width:1.22988045;stroke-linecap:round;stroke-linejoin:round;stroke-miterlimit:4;stroke-dasharray:none;stroke-dashoffset:0;stroke-opacity:1"
       sodipodi:type="arc"
       sodipodi:cx="-526.70184"
       sodipodi:cy="355.40628"
       sodipodi:rx="119.18638"
       sodipodi:ry="29.630058"
       sodipodi:start="3.2262702"
       sodipodi:end="3.1638569"
       sodipodi:open="true"
       d="m -645.46118,352.90028 a 119.18638,29.630058 0 0 1 126.9855,-27.0534 119.18638,29.630058 0 0 1 110.78987,31.14299 119.18638,29.630058 0 0 1 -123.52825,28.02523 119.18638,29.630058 0 0 1 -114.64462,-30.26846"
       transform="scale(-1,1)" />
    <path
       style="opacity:0.98999999;fill:#a25202;fill-opacity:1;stroke:#a25202;stroke-width:1.67538548;stroke-linecap:round;stroke-linejoin:round;stroke-miterlimit:4;stroke-dasharray:none;stroke-dashoffset:0;stroke-opacity:1"
       d="m 509.23648,1010.8922 c -1.53282,-0.269 -6.54933,-1.041 -11.14779,-1.7155 -18.91734,-2.7746 -36.43097,-10.61516 -39.19646,-17.54748 -0.66724,-1.67257 -1.61015,-4.0482 -2.09535,-5.27918 -0.4852,-1.23098 -17.26397,-124.86062 -37.28614,-274.73252 C 399.48857,561.74561 382.82697,437.22949 382.48496,434.91503 l -1.17924,-7.5525 7.1117,7.68561 c 0,0 45.16774,17.87953 87.9331,22.01276 21.33492,2.062 72.6447,2.37454 93.64137,0.5704 47.86671,-4.11297 83.96997,-13.34119 96.9489,-24.78075 l 3.92693,-3.46118 -0.56978,3.18827 c -1.23554,6.91362 -71.87922,555.34508 -71.87922,558.02346 0,6.28102 -13.3616,13.3852 -33.07179,17.5837 -8.23628,1.7545 -16.22848,2.4422 -32.14273,2.7659 -11.64943,0.2369 -22.43491,0.2106 -23.96772,-0.058 z"
       id="path9772"
       inkscape:connector-curvature="0"
       sodipodi:nodetypes="csssssccssscsssscc" />
    <path
       style="opacity:0.98999999;fill:#bf650a;fill-opacity:1;stroke:#bf650a;stroke-width:1.71975231;stroke-linecap:round;stroke-linejoin:round;stroke-miterlimit:4;stroke-dasharray:none;stroke-dashoffset:0;stroke-opacity:1"
       d="m 482.32068,457.33327 c -36.57495,-3.20212 -68.94847,-10.42129 -86.16391,-19.21424 -15.9956,-8.1699 -15.09746,-5.52834 -15.09746,-44.40317 l 0,-32.83965 3.52347,3.11282 c 17.58321,15.53397 66.52094,25.87739 129.06739,27.27956 71.09658,1.59383 134.55257,-9.54313 153.40691,-26.92395 l 3.79995,-3.50297 0,32.33783 0,32.33782 -2.85583,3.56342 c -8.9584,11.17799 -41.15493,21.53732 -82.7408,26.62212 -18.50471,2.26263 -83.88979,3.29822 -102.93972,1.63041 z"
       id="path9774"
       inkscape:connector-curvature="0" />
    <path
       style="opacity:0.98999999;fill:#bf650a;fill-opacity:1;stroke:#bf650a;stroke-width:1.77027059;stroke-linecap:round;stroke-linejoin:round;stroke-miterlimit:4;stroke-dasharray:none;stroke-dashoffset:0;stroke-opacity:1"
       d="m 515.51,1046.4509 c -27.3224,-1.5683 -48.61946,-8.5568 -56.2088,-18.4442 -2.88492,-3.7586 -2.96841,-4.3355 -2.96841,-20.5122 l 0,-16.64497 4.25397,3.74761 c 5.56647,4.90391 16.1673,9.38576 30.12516,12.73646 9.77887,2.3474 14.7057,2.7059 37.19711,2.7059 22.73511,0 27.36545,-0.3443 37.6292,-2.7976 13.98936,-3.3438 23.95761,-7.59196 29.71439,-12.66356 l 4.23266,-3.72881 0,17.26257 0,17.2624 -3.39076,3.7172 c -11.41542,12.514 -43.72888,19.4748 -80.58452,17.3592 z"
       id="path9776"
       inkscape:connector-curvature="0" />
    <path
       style="opacity:0.98999999;fill:#a65809;fill-opacity:1;stroke:#a65809;stroke-width:1.67218566;stroke-linecap:round;stroke-linejoin:round;stroke-miterlimit:4;stroke-dasharray:none;stroke-dashoffset:0;stroke-opacity:1"
       d="M 489.72745,81.108665 C 439.29035,77.746002 394.12231,67.048313 383.9144,54.91689 373.37776,42.394808 392.73495,29.040456 433.19687,20.570096 515.67882,3.3031965 644.42325,13.907329 667.90812,39.902264 c 3.44752,3.816003 3.94118,5.00812 3.36189,8.118483 -4.21226,22.616591 -93.77152,38.939649 -181.54256,33.087918 z m 86.7991,-5.963788 c 36.26966,-4.422857 60.86302,-12.392694 67.95864,-22.022993 8.39728,-11.39693 -7.75279,-22.850599 -42.1639,-29.902731 -37.00073,-7.582846 -95.0649,-8.729217 -136.00444,-2.68516 -52.85444,7.8031 -74.51135,25.07076 -49.29937,39.307772 13.89165,7.844512 42.09879,14.159214 75.49695,16.901421 17.12599,1.406157 67.18358,0.453823 84.01212,-1.598309 z"
       id="path9778"
       inkscape:connector-curvature="0"
       transform="translate(0,308.26772)"
       sodipodi:nodetypes="sssssssssssss" />
  </g>
</svg>
