<?xml version="1.0" encoding="UTF-8" standalone="no"?>
<!-- Created with Inkscape (http://www.inkscape.org/) -->

<!-- 
Artwork by John Samuel. 
This work is licensed under a Creative Commons Attribution-ShareAlike 4.0 International License. 
-->

<svg
   xmlns:osb="http://www.openswatchbook.org/uri/2009/osb"
   xmlns:dc="http://purl.org/dc/elements/1.1/"
   xmlns:cc="http://creativecommons.org/ns#"
   xmlns:rdf="http://www.w3.org/1999/02/22-rdf-syntax-ns#"
   xmlns:svg="http://www.w3.org/2000/svg"
   xmlns="http://www.w3.org/2000/svg"
   xmlns:sodipodi="http://sodipodi.sourceforge.net/DTD/sodipodi-0.dtd"
   xmlns:inkscape="http://www.inkscape.org/namespaces/inkscape"
   width="297mm"
   height="210mm"
   viewBox="0 0 1052.3622 744.09448"
   id="svg2"
   version="1.1"
   inkscape:version="0.91 r13725"
   sodipodi:docname="tree-with-branches.svg">
  <defs
     id="defs4">
    <inkscape:path-effect
       effect="spiro"
       id="path-effect5629"
       is_visible="true" />
    <inkscape:path-effect
       effect="spiro"
       id="path-effect5625"
       is_visible="true" />
    <inkscape:path-effect
       effect="spiro"
       id="path-effect5621"
       is_visible="true" />
    <inkscape:path-effect
       effect="powerstroke"
       id="path-effect5617"
       is_visible="true"
       offset_points="0,0.5"
       sort_points="true"
       interpolator_type="CubicBezierJohan"
       interpolator_beta="0.2"
       start_linecap_type="zerowidth"
       linejoin_type="round"
       miter_limit="4"
       end_linecap_type="zerowidth"
       cusp_linecap_type="round" />
    <inkscape:path-effect
       effect="spiro"
       id="path-effect5615"
       is_visible="true" />
    <inkscape:path-effect
       effect="powerstroke"
       id="path-effect5611"
       is_visible="true"
       offset_points="0,0.5"
       sort_points="true"
       interpolator_type="CubicBezierJohan"
       interpolator_beta="0.2"
       start_linecap_type="zerowidth"
       linejoin_type="round"
       miter_limit="4"
       end_linecap_type="zerowidth"
       cusp_linecap_type="round" />
    <inkscape:path-effect
       effect="spiro"
       id="path-effect5609"
       is_visible="true" />
    <linearGradient
       id="linearGradient4824"
       osb:paint="solid">
      <stop
         style="stop-color:#000000;stop-opacity:1;"
         offset="0"
         id="stop4826" />
    </linearGradient>
  </defs>
  <sodipodi:namedview
     id="base"
     pagecolor="#ffffff"
     bordercolor="#666666"
     borderopacity="1.0"
     inkscape:pageopacity="0.0"
     inkscape:pageshadow="2"
     inkscape:zoom="20.297462"
     inkscape:cx="771.27055"
     inkscape:cy="486.34725"
     inkscape:document-units="px"
     inkscape:current-layer="layer1"
     showgrid="false"
     inkscape:window-width="1600"
     inkscape:window-height="847"
     inkscape:window-x="0"
     inkscape:window-y="0"
     inkscape:window-maximized="1"
     showguides="false" />
  <metadata
     id="metadata7">
    <rdf:RDF>
      <cc:Work
         rdf:about="">
        <dc:format>image/svg+xml</dc:format>
        <dc:type
           rdf:resource="http://purl.org/dc/dcmitype/StillImage" />
        <dc:title />
      </cc:Work>
    </rdf:RDF>
  </metadata>
  <g
     inkscape:label="Layer 1"
     inkscape:groupmode="layer"
     id="layer1"
     transform="translate(0,-308.26772)">
    <ellipse
       style="fill:none;fill-opacity:1;stroke:#80ff00;stroke-width:1.5;stroke-linecap:round;stroke-linejoin:round;stroke-miterlimit:4;stroke-dasharray:none;stroke-dashoffset:0;stroke-opacity:1"
       id="path4964"
       cx="424.69019"
       cy="680.59076"
       rx="104.49791"
       ry="98.469185" />
    <ellipse
       ry="98.469185"
       rx="104.49791"
       cy="530.54248"
       cx="391.19727"
       id="ellipse4966"
       style="fill:none;fill-opacity:1;stroke:#80ff00;stroke-width:1.5;stroke-linecap:round;stroke-linejoin:round;stroke-miterlimit:4;stroke-dasharray:none;stroke-dashoffset:0;stroke-opacity:1" />
    <ellipse
       style="fill:none;fill-opacity:1;stroke:#80ff00;stroke-width:1.5;stroke-linecap:round;stroke-linejoin:round;stroke-miterlimit:4;stroke-dasharray:none;stroke-dashoffset:0;stroke-opacity:1"
       id="ellipse4968"
       cx="529.18811"
       cy="422.02542"
       rx="104.49791"
       ry="98.469185" />
    <ellipse
       ry="98.469185"
       rx="104.49791"
       cy="527.8631"
       cx="669.8584"
       id="ellipse4970"
       style="fill:#504416;fill-opacity:1;stroke:#80ff00;stroke-width:1.5;stroke-linecap:round;stroke-linejoin:round;stroke-miterlimit:4;stroke-dasharray:none;stroke-dashoffset:0;stroke-opacity:1" />
    <ellipse
       style="fill:none;fill-opacity:1;stroke:#80ff00;stroke-width:1.5;stroke-linecap:round;stroke-linejoin:round;stroke-miterlimit:4;stroke-dasharray:none;stroke-dashoffset:0;stroke-opacity:1"
       id="ellipse4972"
       cx="645.74353"
       cy="677.91138"
       rx="104.49791"
       ry="98.469185" />
    <rect
       style="fill:#ffffff;fill-opacity:1;stroke:none;stroke-width:1.65668869;stroke-linecap:round;stroke-linejoin:round;stroke-miterlimit:4;stroke-dasharray:none;stroke-dashoffset:0;stroke-opacity:1"
       id="rect4974"
       width="378.98315"
       height="259.74838"
       x="344.38556"
       y="483.06088" />
    <rect
       y="437.5105"
       x="420.74942"
       height="84.245453"
       width="216.87746"
       id="rect4976"
       style="fill:#ffffff;fill-opacity:1;stroke:none;stroke-width:1.65668869;stroke-linecap:round;stroke-linejoin:round;stroke-miterlimit:4;stroke-dasharray:none;stroke-dashoffset:0;stroke-opacity:1" />
    <path
       style="fill:none;fill-rule:evenodd;stroke:#ff8000;stroke-width:1.5;stroke-linecap:butt;stroke-linejoin:miter;stroke-opacity:1;stroke-miterlimit:4;stroke-dasharray:none"
       d="M 507.75268,738.86847 C 509.0924,1016.1898 387.17817,1016.1898 387.17817,1016.1898"
       id="path5635"
       inkscape:connector-curvature="0" />
    <path
       inkscape:connector-curvature="0"
       id="path5637"
       d="m 566.81482,736.62992 c -5.56638,277.26858 116.33369,279.12678 116.33369,279.12678"
       style="fill:none;fill-rule:evenodd;stroke:#ff8000;stroke-width:1.5;stroke-linecap:butt;stroke-linejoin:miter;stroke-opacity:1;stroke-miterlimit:4;stroke-dasharray:none" />
    <path
       style="fill:none;fill-rule:evenodd;stroke:#ff8000;stroke-width:1.5;stroke-linecap:butt;stroke-linejoin:miter;stroke-opacity:1;stroke-miterlimit:4;stroke-dasharray:none"
       d="m 388.51788,1017.5296 c 68.32556,1.3397 114.54579,-23.44507 114.54579,-23.44507"
       id="path5639"
       inkscape:connector-curvature="0" />
    <path
       inkscape:connector-curvature="0"
       id="path5641"
       d="m 682.81222,1016.8598 c -68.32556,1.3397 -114.54579,-23.44513 -114.54579,-23.44513"
       style="fill:none;fill-rule:evenodd;stroke:#ff8000;stroke-width:1.5;stroke-linecap:butt;stroke-linejoin:miter;stroke-opacity:1;stroke-miterlimit:4;stroke-dasharray:none" />
    <path
       style="fill:none;fill-rule:evenodd;stroke:#ff8000;stroke-width:1.5;stroke-linecap:butt;stroke-linejoin:miter;stroke-opacity:1;stroke-miterlimit:4;stroke-dasharray:none"
       d="m 503.73353,994.08453 c 35.5025,16.74647 32.82306,40.19147 32.82306,40.19147"
       id="path5643"
       inkscape:connector-curvature="0" />
    <path
       inkscape:connector-curvature="0"
       id="path5645"
       d="M 571.46696,993.66653 C 535.96446,1010.413 538.6439,1033.858 538.6439,1033.858"
       style="fill:none;fill-rule:evenodd;stroke:#ff8000;stroke-width:1.5;stroke-linecap:butt;stroke-linejoin:miter;stroke-opacity:1;stroke-miterlimit:4;stroke-dasharray:none" />
    <path
       style="fill:none;fill-rule:evenodd;stroke:#ff8000;stroke-width:1.5;stroke-linecap:butt;stroke-linejoin:miter;stroke-opacity:1;stroke-miterlimit:4;stroke-dasharray:none"
       d="m 508.02942,741.23498 c 1.08785,-72.88645 -63.09573,-70.71073 -63.09573,-70.71073"
       id="path6235"
       inkscape:connector-curvature="0" />
    <path
       inkscape:connector-curvature="0"
       id="path6237"
       d="m 566.18254,740.14712 c -1.08785,-72.88645 63.09573,-77.23787 63.09573,-77.23787"
       style="fill:none;fill-rule:evenodd;stroke:#ff8000;stroke-width:1.5;stroke-linecap:butt;stroke-linejoin:miter;stroke-opacity:1;stroke-miterlimit:4;stroke-dasharray:none"
       sodipodi:nodetypes="cc" />
    <path
       style="fill:none;fill-rule:evenodd;stroke:#ff8000;stroke-width:1.5;stroke-linecap:butt;stroke-linejoin:miter;stroke-opacity:1;stroke-miterlimit:4;stroke-dasharray:none"
       d="m 518.90135,681.32902 c 0,-51.76094 -89.27452,-49.03668 -89.27452,-49.03668"
       id="path6243"
       inkscape:connector-curvature="0" />
    <path
       inkscape:connector-curvature="0"
       id="path6245"
       d="m 555.19229,680.25095 c 0,-55.19833 86.00536,-52.29315 86.00536,-52.29315"
       style="fill:none;fill-rule:evenodd;stroke:#ff8000;stroke-width:1.5;stroke-linecap:butt;stroke-linejoin:miter;stroke-opacity:1;stroke-miterlimit:4;stroke-dasharray:none" />
    <path
       style="fill:none;fill-rule:evenodd;stroke:#ff8000;stroke-width:1.5;stroke-linecap:butt;stroke-linejoin:miter;stroke-opacity:1;stroke-miterlimit:4;stroke-dasharray:none"
       d="m 518.908,679.22711 c -1.08786,-90.29217 -44.60216,-90.29217 -44.60216,-90.29217"
       id="path6247"
       inkscape:connector-curvature="0"
       sodipodi:nodetypes="cc" />
    <path
       inkscape:connector-curvature="0"
       id="path6249"
       d="m 554.15244,681.40283 c 1.08786,-90.29217 48.95359,-87.0286 48.95359,-87.0286"
       style="fill:none;fill-rule:evenodd;stroke:#ff8000;stroke-width:1.5;stroke-linecap:butt;stroke-linejoin:miter;stroke-opacity:1;stroke-miterlimit:4;stroke-dasharray:none"
       sodipodi:nodetypes="cc" />
    <path
       inkscape:connector-curvature="0"
       id="path6251"
       d="m 504.82139,578.52299 c 35.5025,16.74647 32.82306,40.19147 32.82306,40.19147"
       style="fill:none;fill-rule:evenodd;stroke:#ff8000;stroke-width:1.5;stroke-linecap:butt;stroke-linejoin:miter;stroke-opacity:1;stroke-miterlimit:4;stroke-dasharray:none" />
    <path
       style="fill:none;fill-rule:evenodd;stroke:#ff8000;stroke-width:1.5;stroke-linecap:butt;stroke-linejoin:miter;stroke-opacity:1;stroke-miterlimit:4;stroke-dasharray:none"
       d="m 572.78158,580.70824 c -37.8241,16.73845 -34.96944,40.17222 -34.96944,40.17222"
       id="path6253"
       inkscape:connector-curvature="0" />
    <path
       style="fill:none;fill-rule:evenodd;stroke:#ff8000;stroke-width:1px;stroke-linecap:butt;stroke-linejoin:miter;stroke-opacity:1"
       d="m 430.79278,632.21115 15.37138,39.01966"
       id="path6674"
       inkscape:connector-curvature="0" />
    <path
       style="fill:none;fill-rule:evenodd;stroke:#ff8000;stroke-width:1px;stroke-linecap:butt;stroke-linejoin:miter;stroke-opacity:1"
       d="m 475.33037,589.25012 29.95448,-10.64173 0,0 0.78828,0.39414"
       id="path6676"
       inkscape:connector-curvature="0" />
    <path
       style="fill:none;fill-rule:evenodd;stroke:#ff8000;stroke-width:1px;stroke-linecap:butt;stroke-linejoin:miter;stroke-opacity:1"
       d="m 572.68244,581.36736 c 1.97069,0 30.34863,13.40069 30.34863,13.40069"
       id="path6678"
       inkscape:connector-curvature="0" />
    <path
       style="fill:none;fill-rule:evenodd;stroke:#ff8000;stroke-width:1px;stroke-linecap:butt;stroke-linejoin:miter;stroke-opacity:1"
       d="m 640.86831,627.4815 -11.82414,35.86655"
       id="path6680"
       inkscape:connector-curvature="0" />
    <path
       style="opacity:0.98999999;fill:#ff8000;fill-opacity:1;stroke:#ff8000;stroke-width:1.67218566;stroke-linecap:round;stroke-linejoin:round;stroke-miterlimit:4;stroke-dasharray:none;stroke-dashoffset:0;stroke-opacity:1"
       d="m 536.10088,716.22081 c -1.87956,-6.27341 -5.40902,-11.65404 -11.64915,-17.75903 -5.63436,-5.51234 -17.88791,-13.38137 -20.83728,-13.38137 -1.03032,0 -5.07805,1.44589 -8.99494,3.2131 -23.18449,10.46025 -54.06697,17.12331 -90.73092,19.57568 l -8.91833,0.59652 7.83058,-2.57482 c 48.47073,-15.93798 83.88852,-74.20099 98.03769,-161.27408 3.91932,-24.1192 5.86045,-44.08322 7.37073,-75.80575 1.4567,-30.59698 0.86891,-52.16609 -1.6709,-61.31348 -7.33206,-26.40722 -25.96269,-41.83913 -55.85847,-46.26807 l -4.48907,-0.66504 -6.83556,-17.50199 c -3.75955,-9.6261 -6.36152,-17.67531 -5.78214,-17.88713 0.57938,-0.21182 7.1375,0.20166 14.57361,0.91885 39.28783,3.78921 65.02704,18.31017 68.30686,38.5358 1.34518,8.29539 1.75808,9.52019 2.95914,8.77789 0.80146,-0.49533 0.94796,-4.44178 0.44659,-12.02959 -1.65493,-25.04516 -6.85066,-46.27832 -14.49536,-59.23749 -4.56788,-7.74341 -14.86457,-17.75996 -20.26353,-19.71225 -2.05365,-0.74261 -3.73285,-1.62566 -3.73157,-1.96234 0.001,-0.33668 5.33335,-2.49317 11.84904,-4.79219 l 11.84671,-4.18004 5.98675,3.42528 c 13.08619,7.48715 24.9399,22.32539 24.9399,31.21926 0,1.69132 0.30449,3.86865 0.67667,4.8385 1.15923,3.02094 2.6677,1.93554 2.6677,-1.91952 0,-9.27176 12.49916,-24.33054 26.27237,-31.65252 l 6.70391,-3.56387 11.66032,5.01987 c 6.41318,2.76093 12.07403,5.43054 12.57969,5.93246 0.50564,0.50193 -0.81388,1.23775 -2.93228,1.63517 -2.1184,0.39741 -6.87373,2.67584 -10.5674,5.06317 -13.7958,8.91665 -23.67282,27.52543 -27.54994,51.90534 -3.26171,20.51012 -2.01408,40.54211 1.38063,22.16765 1.87272,-10.13637 5.08436,-16.32369 12.13064,-23.36997 10.6626,-10.6626 30.31901,-17.89487 55.51845,-20.42716 6.69768,-0.67305 12.80506,-1.22373 13.57195,-1.22373 0.9296,0 -0.4678,5.57353 -4.19253,16.72186 -5.2025,15.57142 -5.77757,16.72186 -8.35884,16.72186 -4.16151,0 -19.06704,5.27418 -26.01828,9.20633 -8.30214,4.6963 -21.01453,17.71052 -25.31643,25.91751 -8.72249,16.64036 -10.29985,32.67454 -8.2341,83.70152 1.8169,44.88023 5.84868,77.21569 13.53776,108.57489 15.76782,64.30762 46.8238,108.68687 86.34273,123.3845 6.46836,2.40567 6.55492,2.48957 2.62646,2.54575 -14.39688,0.20584 -45.794,-4.82819 -65.51367,-10.50412 -12.65635,-3.64287 -30.04035,-10.12982 -31.31252,-11.68445 -1.06474,-1.30115 -2.83122,-0.51851 -10.85477,4.80926 -11.89251,7.89683 -18.94943,16.469 -22.01149,26.73776 l -1.27739,4.28383 -1.42002,-4.73961 z"
       id="path6684"
       inkscape:connector-curvature="0"
       transform="translate(0,308.26772)" />
    <path
       style="opacity:0.98999999;fill:#80ff00;fill-opacity:1;stroke:#80ff00;stroke-width:1.67218566;stroke-linecap:round;stroke-linejoin:round;stroke-miterlimit:4;stroke-dasharray:none;stroke-dashoffset:0;stroke-opacity:1"
       d="m 412.10877,468.83066 c -43.75848,-5.47038 -79.14302,-36.20042 -88.36361,-76.74022 -3.96163,-17.41798 -1.54326,-41.13226 5.85964,-57.45901 3.41718,-7.53642 10.94922,-19.28849 13.96788,-21.79375 1.94213,-1.61183 2.52723,-6.25883 0.64128,-5.09324 -2.6198,1.61912 -20.15523,-10.80629 -30.12484,-21.34612 -11.64849,-12.31476 -19.32089,-26.26742 -23.46067,-42.66447 -2.00173,-7.92856 -2.29104,-11.69092 -1.88593,-24.52539 0.4232,-13.4077 0.89082,-16.36693 4.04531,-25.60002 10.7477,-31.45816 35.13623,-54.26656 68.77867,-64.32253 14.37302,-4.29619 36.48821,-5.01451 52.53031,-1.70624 12.62507,2.60359 16.46514,2.95427 13.78379,1.25872 -1.32562,-0.83824 -1.62366,-3.83478 -1.52289,-15.3113 0.10479,-11.92759 0.60555,-15.878247 3.05184,-24.075424 6.52312,-21.857979 19.30115,-40.04514 37.07283,-52.766304 8.18327,-5.857681 25.10003,-13.917034 34.39298,-16.385243 32.43494,-8.614729 67.73446,-1.62479 94.00361,18.614402 17.78768,13.704603 31.97332,36.281022 35.76829,56.925167 0.66878,3.638133 1.21598,12.039432 1.21598,18.669542 l 0,12.05476 -3.62307,1.58445 -3.62307,1.58444 4.73786,0.091 c 2.60582,0.0501 4.73786,-0.33158 4.73786,-0.848 0,-0.51641 4.64032,-2.10675 10.31181,-3.53409 13.51893,-3.40228 34.9537,-3.69307 48.21469,-0.65408 32.07079,7.34959 58.12781,27.59322 71.29845,55.39161 6.34454,13.39102 8.68037,24.01377 8.68037,39.47613 0,10.13987 -0.57672,15.5359 -2.38295,22.29581 -6.01766,22.52133 -19.16397,41.37117 -38.49521,55.19631 -4.64416,3.32137 -8.44392,6.45091 -8.44392,6.95453 0,0.5036 2.53582,4.22416 5.63517,8.26789 20.59523,26.87065 25.48015,60.92609 13.1628,91.76526 -6.80061,17.02679 -20.43854,33.6111 -36.74716,44.68607 -26.43652,17.95269 -63.31564,22.71474 -94.29913,12.17646 -15.03012,-5.11214 -30.6577,-14.68315 -39.86664,-24.41609 -3.11181,-3.28888 -3.28668,-3.97594 -3.22149,-12.65778 0.25267,-33.64866 22.22177,-60.18457 55.527,-67.06963 l 6.65305,-1.37535 5.86597,-18.30356 c 3.2263,-10.06696 5.87605,-18.42898 5.88835,-18.58227 0.0557,-0.6939 -11.48563,-0.16043 -20.60125,0.95225 -31.58792,3.85569 -53.58207,15.0587 -62.23655,31.701 -3.41092,6.55911 -3.504,6.04952 -1.25436,-6.86704 5.44415,-31.25814 17.80947,-50.04855 36.60914,-55.63146 3.05142,-0.90616 6.46029,-1.64758 7.57527,-1.64758 4.49855,0 1.25047,-1.996 -14.18602,-8.71754 l -16.18016,-7.04535 -7.49258,4.18052 c -8.74656,4.88016 -19.36964,14.59606 -23.31197,21.32117 l -2.76822,4.72225 -3.29784,-6.59958 c -3.80466,-7.61377 -13.30833,-16.97684 -22.66627,-22.33091 l -6.22141,-3.55953 -14.18851,5.11492 c -7.80366,2.8132 -15.06639,5.11393 -16.13937,5.11273 -3.99402,-0.004 -1.75592,2.12585 3.98746,3.79548 18.54522,5.39125 31.78109,27.68245 36.35038,61.21952 1.7007,12.48261 1.57323,12.86701 -2.31857,6.99148 -8.96533,-13.53521 -29.79504,-23.09126 -58.54904,-26.86058 -12.5699,-1.64777 -26.01274,-2.2156 -26.01274,-1.09878 0,0.31488 0.52356,1.44361 1.16347,2.50828 0.63991,1.06467 4.32562,9.96224 8.19046,19.7724 l 7.02701,17.83665 6.5805,0.6783 c 26.32388,2.71343 46.54055,20.02527 52.25805,44.74939 0.88618,3.8321 1.9544,11.10612 2.37382,16.16448 0.63157,7.61692 0.48663,9.19702 -0.84364,9.19702 -0.88342,0 -3.58923,2.04643 -6.01292,4.54762 -13.0991,13.51799 -32.83263,24.07642 -52.9001,28.30423 -9.78035,2.06052 -25.69292,2.85216 -34.69925,1.72626 z"
       id="path6686"
       inkscape:connector-curvature="0"
       transform="translate(0,308.26772)" />
  </g>
</svg>
