<?xml version="1.0" encoding="UTF-8" standalone="no"?>
<!-- Created with Inkscape (http://www.inkscape.org/) -->

<!-- 
Artwork by John Samuel. 
This work is licensed under a Creative Commons Attribution-ShareAlike 4.0 International License. 
-->

<svg
   xmlns:osb="http://www.openswatchbook.org/uri/2009/osb"
   xmlns:dc="http://purl.org/dc/elements/1.1/"
   xmlns:cc="http://creativecommons.org/ns#"
   xmlns:rdf="http://www.w3.org/1999/02/22-rdf-syntax-ns#"
   xmlns:svg="http://www.w3.org/2000/svg"
   xmlns="http://www.w3.org/2000/svg"
   xmlns:sodipodi="http://sodipodi.sourceforge.net/DTD/sodipodi-0.dtd"
   xmlns:inkscape="http://www.inkscape.org/namespaces/inkscape"
   width="297mm"
   height="210mm"
   viewBox="0 0 1052.3622 744.09448"
   id="svg2"
   version="1.1"
   inkscape:version="0.91 r13725"
   sodipodi:docname="wand.svg">
  <defs
     id="defs4">
    <linearGradient
       id="linearGradient4824"
       osb:paint="solid">
      <stop
         style="stop-color:#000000;stop-opacity:1;"
         offset="0"
         id="stop4826" />
    </linearGradient>
  </defs>
  <sodipodi:namedview
     id="base"
     pagecolor="#ffffff"
     bordercolor="#666666"
     borderopacity="1.0"
     inkscape:pageopacity="0.0"
     inkscape:pageshadow="2"
     inkscape:zoom="3.5881182"
     inkscape:cx="801.6452"
     inkscape:cy="639.59696"
     inkscape:document-units="px"
     inkscape:current-layer="layer1"
     showgrid="false"
     inkscape:window-width="1600"
     inkscape:window-height="847"
     inkscape:window-x="0"
     inkscape:window-y="0"
     inkscape:window-maximized="1"
     showguides="false">
    <sodipodi:guide
       position="0,0"
       orientation="0,1052.3622"
       id="guide4163" />
    <sodipodi:guide
       position="1052.3622,0"
       orientation="-744.09449,0"
       id="guide4165" />
    <sodipodi:guide
       position="1052.3622,744.09449"
       orientation="0,-1052.3622"
       id="guide4167" />
    <sodipodi:guide
       position="0,744.09449"
       orientation="744.09449,0"
       id="guide4169" />
    <sodipodi:guide
       position="-0.83367063,744.2915"
       orientation="372.04721,0"
       id="guide4173" />
    <sodipodi:guide
       position="-0.83367063,372.24429"
       orientation="0,526.18108"
       id="guide4175" />
    <sodipodi:guide
       position="525.34742,372.24429"
       orientation="-372.04721,0"
       id="guide4177" />
    <sodipodi:guide
       position="525.34742,744.2915"
       orientation="0,-526.18108"
       id="guide4179" />
  </sodipodi:namedview>
  <metadata
     id="metadata7">
    <rdf:RDF>
      <cc:Work
         rdf:about="">
        <dc:format>image/svg+xml</dc:format>
        <dc:type
           rdf:resource="http://purl.org/dc/dcmitype/StillImage" />
        <dc:title></dc:title>
      </cc:Work>
    </rdf:RDF>
  </metadata>
  <g
     inkscape:label="Layer 1"
     inkscape:groupmode="layer"
     id="layer1"
     transform="translate(0,-308.26772)">
    <path
       style="opacity:1;fill:#cf6800;fill-opacity:1;stroke:#cf6800;stroke-width:1.5;stroke-linecap:round;stroke-linejoin:round;stroke-miterlimit:4;stroke-dasharray:none;stroke-dashoffset:0;stroke-opacity:1"
       d="M 242.85445,814.11384 919.16434,332.71009 c -0.546,5.12015 0.815,8.96897 6.55232,9.90025 L 261.68734,839.01413 Z"
       id="rect6703"
       inkscape:connector-curvature="0"
       sodipodi:nodetypes="ccccc" />
    <path
       transform="matrix(0.80090556,-0.59879069,0.59879069,0.80090556,0,0)"
       style="opacity:1;fill:#7c3e00;fill-opacity:1;stroke:#7c3e00;stroke-width:1.5;stroke-linecap:round;stroke-linejoin:round;stroke-miterlimit:4;stroke-dasharray:none;stroke-dashoffset:0;stroke-opacity:1"
       d="m -543.96472,791.51398 c 95.75164,-33.29078 170.6587,33.77395 249.94858,0 l 0,46.47804 c -80.39449,-31.81106 -163.62271,31.20553 -249.94858,0 z"
       id="rect6705"
       inkscape:connector-curvature="0"
       sodipodi:nodetypes="ccccc" />
    <path
       style="opacity:1;fill:#7c3e00;fill-opacity:1;stroke:#7c3e00;stroke-width:1.5;stroke-linecap:round;stroke-linejoin:round;stroke-miterlimit:4;stroke-dasharray:none;stroke-dashoffset:0;stroke-opacity:1"
       d="m -291.91918,780.95831 c 4.32378,0 7.50671,10.41747 5.44541,14.21829 -11.23601,20.71808 -5.48957,21.46198 -1.17723,35.70167 1.25321,4.13819 0.0556,15.86708 -4.26818,15.86708 -4.32379,0 -6.02763,-3.86293 -7.80467,-7.80467 -8.44052,-18.72234 -9.68206,-35.73448 0,-50.1777 2.40757,-3.59149 3.48088,-7.80467 7.80467,-7.80467 z"
       id="rect6707"
       inkscape:connector-curvature="0"
       sodipodi:nodetypes="sssssss"
       transform="matrix(0.80090556,-0.59879069,0.59879069,0.80090556,0,0)" />
    <path
       transform="matrix(0.80090556,-0.59879069,0.59879069,0.80090556,0,0)"
       style="opacity:1;fill:#7c3e00;fill-opacity:1;stroke:#7c3e00;stroke-width:1.5;stroke-linecap:round;stroke-linejoin:round;stroke-miterlimit:4;stroke-dasharray:none;stroke-dashoffset:0;stroke-opacity:1"
       d="m -549.03096,782.57507 6.15001,0 c 2.62023,0 6.59036,3.56954 5.28874,5.84361 -9.31939,16.28193 -6.96972,31.90967 -0.98155,52.28808 0.73872,2.51394 -1.68696,7.65535 -4.30719,7.65535 l -6.15001,0 c -2.62023,0 -3.77588,-2.28919 -4.72966,-4.72966 -8.19508,-20.969 -7.25778,-39.49408 0,-56.32772 1.03739,-2.40612 2.10943,-4.72966 4.72966,-4.72966 z"
       id="rect6709"
       inkscape:connector-curvature="0"
       sodipodi:nodetypes="sssssssss" />
    <path
       style="fill:none;fill-rule:evenodd;stroke:#cf6800;stroke-width:1.5;stroke-linecap:butt;stroke-linejoin:miter;stroke-opacity:1;stroke-miterlimit:4;stroke-dasharray:none"
       d="m 919.32677,332.46924 c 7.06968,2.05889 6.14061,5.41888 6.30621,9.85345"
       id="path6791"
       inkscape:connector-curvature="0"
       sodipodi:nodetypes="cc" />
    <path
       style="opacity:0.98999999;fill:none;fill-opacity:1;stroke:#cf6800;stroke-width:1.62257755;stroke-linecap:round;stroke-linejoin:round;stroke-miterlimit:4;stroke-dasharray:none;stroke-dashoffset:0;stroke-opacity:1"
       d="m 923.24097,32.656923 c -2.14452,-1.115344 -3.18944,-2.944319 -3.1989,-5.599186 l -0.006,-1.717652 0.87219,0.324164 c 0.4797,0.178289 1.40463,0.791321 2.05539,1.362293 1.29233,1.133882 1.81028,2.506836 1.81028,4.798584 0,1.408187 -0.20779,1.520943 -1.53284,0.831797 z"
       id="path11300"
       inkscape:connector-curvature="0"
       transform="translate(0,308.26772)" />
    <path
       style="opacity:0.98999999;fill:none;fill-opacity:1;stroke:#cf6800;stroke-width:1.62257755;stroke-linecap:round;stroke-linejoin:round;stroke-miterlimit:4;stroke-dasharray:none;stroke-dashoffset:0;stroke-opacity:1"
       d=""
       id="path11302"
       inkscape:connector-curvature="0"
       transform="translate(0,308.26772)" />
    <path
       style="opacity:0.98999999;fill:none;fill-opacity:1;stroke:#cf6800;stroke-width:1.62257755;stroke-linecap:round;stroke-linejoin:round;stroke-miterlimit:4;stroke-dasharray:none;stroke-dashoffset:0;stroke-opacity:1"
       d="m 922.84791,31.261923 c -1.0761,-0.905484 -1.56766,-1.825261 -1.83505,-3.433704 l -0.2038,-1.225867 0.89517,0.637414 c 0.49234,0.350578 1.11903,1.005535 1.39265,1.455461 0.47596,0.782665 0.98348,2.956738 0.74573,3.194495 -0.0625,0.06248 -0.51009,-0.220031 -0.9947,-0.627799 z"
       id="path11304"
       inkscape:connector-curvature="0"
       transform="translate(0,308.26772)" />
    <path
       style="opacity:0.98999999;fill:none;fill-opacity:1;stroke:#cf6800;stroke-width:1.62257755;stroke-linecap:round;stroke-linejoin:round;stroke-miterlimit:4;stroke-dasharray:none;stroke-dashoffset:0;stroke-opacity:1"
       d=""
       id="path11306"
       inkscape:connector-curvature="0"
       transform="translate(0,308.26772)" />
  </g>
</svg>
