<?xml version="1.0" encoding="UTF-8" standalone="no"?>
<!-- Created with Inkscape (http://www.inkscape.org/) -->

<!-- 
Artwork by John Samuel. 
This work is licensed under a Creative Commons Attribution-ShareAlike 4.0 International License. 
-->

<svg
   xmlns:osb="http://www.openswatchbook.org/uri/2009/osb"
   xmlns:dc="http://purl.org/dc/elements/1.1/"
   xmlns:cc="http://creativecommons.org/ns#"
   xmlns:rdf="http://www.w3.org/1999/02/22-rdf-syntax-ns#"
   xmlns:svg="http://www.w3.org/2000/svg"
   xmlns="http://www.w3.org/2000/svg"
   xmlns:sodipodi="http://sodipodi.sourceforge.net/DTD/sodipodi-0.dtd"
   xmlns:inkscape="http://www.inkscape.org/namespaces/inkscape"
   sodipodi:docname="zebra-crossing.svg"
   inkscape:version="0.91 r13725"
   version="1.1"
   id="svg2"
   viewBox="0 0 1052.3622 744.09448"
   height="210mm"
   width="297mm">
  <sodipodi:namedview
     showguides="false"
     inkscape:window-maximized="1"
     inkscape:window-y="0"
     inkscape:window-x="0"
     inkscape:window-height="847"
     inkscape:window-width="1600"
     showgrid="false"
     inkscape:current-layer="layer1"
     inkscape:document-units="px"
     inkscape:cy="372.04724"
     inkscape:cx="526.1811"
     inkscape:zoom="0.89702955"
     inkscape:pageshadow="2"
     inkscape:pageopacity="0.0"
     borderopacity="1.0"
     bordercolor="#666666"
     pagecolor="#ffffff"
     id="base">
    <sodipodi:guide
       id="guide4163"
       orientation="0,1052.3622"
       position="0,0" />
    <sodipodi:guide
       id="guide4165"
       orientation="-744.09449,0"
       position="1052.3622,0" />
    <sodipodi:guide
       id="guide4167"
       orientation="0,-1052.3622"
       position="1052.3622,744.09449" />
    <sodipodi:guide
       id="guide4169"
       orientation="744.09449,0"
       position="0,744.09449" />
    <sodipodi:guide
       id="guide4173"
       orientation="372.04721,0"
       position="-0.83367063,744.2915" />
    <sodipodi:guide
       id="guide4175"
       orientation="0,526.18108"
       position="-0.83367063,372.24429" />
    <sodipodi:guide
       id="guide4177"
       orientation="-372.04721,0"
       position="525.34742,372.24429" />
    <sodipodi:guide
       id="guide4179"
       orientation="0,-526.18108"
       position="525.34742,744.2915" />
    <inkscape:grid
       id="grid4911"
       type="xygrid" />
  </sodipodi:namedview>
  <defs
     id="defs4">
    <linearGradient
       osb:paint="solid"
       id="linearGradient4824">
      <stop
         id="stop4826"
         offset="0"
         style="stop-color:#000000;stop-opacity:1;" />
    </linearGradient>
  </defs>
  <metadata
     id="metadata7">
    <rdf:RDF>
      <cc:Work
         rdf:about="">
        <dc:format>image/svg+xml</dc:format>
        <dc:type
           rdf:resource="http://purl.org/dc/dcmitype/StillImage" />
        <dc:title></dc:title>
      </cc:Work>
    </rdf:RDF>
  </metadata>
  <g
     transform="translate(0,-308.26772)"
     id="layer1"
     inkscape:groupmode="layer"
     inkscape:label="Layer 1">
    <rect
       style="opacity:0.98999999;fill:#535355;fill-opacity:0.98431373;stroke:#535355;stroke-width:5.82200003;stroke-linecap:round;stroke-linejoin:round;stroke-miterlimit:4;stroke-dasharray:none;stroke-dashoffset:0;stroke-opacity:0.98431373"
       id="rect23298"
       width="1052.3622"
       height="749.13922"
       x="0"
       y="308.79697"
       ry="5.66899e-05" />
    <path
       d="M795.014788408 400.838777546C795.014788408 400.838777546 849.663482282 400.838777546 849.663482282 400.838777546C849.663482282 400.838777546 1038.89420459 961.17842078 1038.89420459 961.17842078C1038.89420459 961.17842078 951.054602234 961.17842078 951.054602234 961.17842078C951.054602234 961.17842078 795.014788408 400.838777546 795.014788408 400.838777546M711.488263305 400.838777546C711.488263305 400.838777546 766.136957178 400.838777546 766.136957178 400.838777546C766.136957178 400.838777546 904.637807389 961.17842078 904.637807389 961.17842078C904.637807389 961.17842078 816.798205038 961.17842078 816.798205038 961.17842078C816.798205038 961.17842078 711.488263305 400.838777546 711.488263305 400.838777546M627.961738201 400.838777546C627.961738201 400.838777546 682.610432075 400.838777546 682.610432075 400.838777546C682.610432075 400.838777546 770.381410193 961.17842078 770.381410193 961.17842078C770.381410193 961.17842078 682.541807842 961.17842078 682.541807842 961.17842078C682.541807842 961.17842078 627.961738201 400.838777546 627.961738201 400.838777546M544.435171671 400.838777546C544.435171671 400.838777546 599.083865545 400.838777546 599.083865545 400.838777546C599.083865545 400.838777546 636.124946411 961.17842078 636.124946411 961.17842078C636.124946411 961.17842078 548.285344059 961.17842078 548.285344059 961.17842078C548.285344059 961.17842078 544.435171671 400.838777546 544.435171671 400.838777546M460.908625854 400.838777546C460.908625854 400.838777546 515.557319728 400.838777546 515.557319728 400.838777546C515.557319728 400.838777546 501.868515921 961.17842078 501.868515921 961.17842078C501.868515921 961.17842078 414.02891357 961.17842078 414.02891357 961.17842078C414.02891357 961.17842078 460.908625854 400.838777546 460.908625854 400.838777546M377.382080038 400.838777546C377.382080038 400.838777546 432.030773911 400.838777546 432.030773911 400.838777546C432.030773911 400.838777546 367.612085432 961.17842078 367.612085432 961.17842078C367.612085432 961.17842078 279.77248308 961.17842078 279.77248308 961.17842078C279.77248308 961.17842078 377.382080038 400.838777546 377.382080038 400.838777546M293.85554803 400.838777546C293.85554803 400.838777546 348.504241903 400.838777546 348.504241903 400.838777546C348.504241903 400.838777546 233.355677138 961.17842078 233.355677138 961.17842078C233.355677138 961.17842078 145.516074787 961.17842078 145.516074787 961.17842078C145.516074787 961.17842078 293.85554803 400.838777546 293.85554803 400.838777546M210.329002213 400.838777546C210.329002213 400.838777546 264.977696086 400.838777546 264.977696086 400.838777546C264.977696086 400.838777546 99.099246649 961.17842078 99.099246649 961.17842078C99.099246649 961.17842078 11.2596442974 961.17842078 11.2596442974 961.17842078C11.2596442974 961.17842078 210.329002213 400.838777546 210.329002213 400.838777546"
       style="opacity:1;fill:#ffffff;fill-opacity:1;stroke:#ffffff;stroke-width:1.5;stroke-linecap:round;stroke-linejoin:round;stroke-miterlimit:4;stroke-dasharray:none;stroke-dashoffset:0;stroke-opacity:1"
       id="use4890" />
  </g>
</svg>
