<?xml version="1.0" encoding="UTF-8" standalone="no"?>
<svg xmlns="http://www.w3.org/2000/svg" width="431" height="295" version="1.1">
<defs id="defs1">
  <marker id="Arrow1Send1" refY="0" refX="0" orient="auto">
    <path id="path1" d="M0,0,5-5-12.5,0,5,5,0,0z" transform="matrix(-0.2,0,0,-0.2,-1.2,0)" stroke="#00F" stroke-width="1pt" fill="#00F"/>
  </marker>
</defs>
<g id="g0" transform="matrix(1.25,0,0,-1.25,-180,665)">
<g id="g1" fill-opacity="0.8" fill="#F00">
  <path id="path22" d="m475.83,325.5,12.834-7.25-4.417,11.417"/>
  <path id="path26" d="m471.42,336.92,12.833-7.25-4.417,10.583"/>
  <path id="path28" d="m475.83,325.5-4.416,11.417,12.833-7.25"/>
  <path id="path34" d="m467,347.5,12.833-7.25-4.416,9.667"/>
  <path id="path36" d="M471.42,336.92,467,347.5,479.83,340.25"/>
  <path id="path42" d="m463,331.92,12.833-6.417-4.416,11.417"/>
  <path id="path46" d="m462.58,357.17,12.834-7.25-4.417,8.833"/>
  <path id="path48" d="m467,347.5-4.417,9.667,12.834-7.25"/>
  <path id="path54" d="M458.58,343.33,471.42,336.92,467,347.5"/>
  <path id="path56" d="m463,331.92-4.417,11.416,12.834-6.416"/>
  <path id="path62" d="M462.58,357.17,458.17,366,471,358.75"/>
  <path id="path64" d="m458.17,366,12.833-7.25-4.417,7.917"/>
  <path id="path70" d="M458.58,343.33,454.17,353.92,467,347.5"/>
  <path id="path72" d="m454.17,353.92,12.83-6.42-4.417,9.667"/>
  <path id="path78" d="m453.75,373.92,12.833-7.25-4.416,7"/>
  <path id="path80" d="m458.17,366-4.417,7.917,12.833-7.25"/>
  <path id="path86" d="m450.17,337.42,12.833-5.5-4.417,11.416"/>
  <path id="path90" d="m449.75,363.58,12.833-6.416-4.416,8.833"/>
  <path id="path92" d="m454.17,353.92-4.417,9.666,12.833-6.416"/>
  <path id="path98" d="m449.33,381,12.834-7.333-4.417,6.25"/>
  <path id="path100" d="m453.75,373.92-4.417,7.083,12.834-7.333"/>
  <path id="path106" d="m445.75,348.83,12.833-5.5-4.416,10.584"/>
  <path id="path108" d="m450.17,337.42-4.417,11.416,12.833-5.5"/>
  <path id="path114" d="m449.75,363.58-4.417,8.834,12.834-6.417"/>
  <path id="path116" d="m445.33,372.42,12.84-6.42-4.42,7.92"/>
  <path id="path122" d="m444.92,387.17,12.833-7.25-4.417,5.25"/>
  <path id="path124" d="m449.33,381-4.416,6.167,12.833-7.25"/>
  <path id="path130" d="m445.75,348.83-4.417,10.584,12.834-5.5"/>
  <path id="path132" d="m441.33,359.42,12.834-5.5-4.417,9.666"/>
  <path id="path138" d="m440.92,380.33,12.83-6.41-4.42,7.08"/>
  <path id="path140" d="m445.33,372.42-4.416,7.916,12.833-6.416"/>
  <path id="path146" d="m440.5,392.42,12.833-7.25-4.416,4.416"/>
  <path id="path148" d="m444.92,387.17-4.417,5.25,12.833-7.25"/>
  <path id="path154" d="m437.33,342.08,12.834-4.666-4.417,11.416"/>
  <path id="path158" d="m441.33,359.42-4.416,9.666,12.833-5.5"/>
  <path id="path160" d="m436.92,369.08,12.833-5.5-4.417,8.834"/>
  <path id="path166" d="m436.5,387.33,12.833-6.333-4.416,6.167"/>
  <path id="path168" d="m440.92,380.33-4.417,7,12.833-6.333"/>
  <path id="path174" d="m440.5,392.42-4.417,4.416,12.834-7.25"/>
  <path id="path176" d="m436.08,396.83,12.834-7.25-4.417,3.584"/>
  <path id="path182" d="m432.92,353.5,12.833-4.667-4.417,10.584"/>
  <path id="path184" d="m437.33,342.08-4.416,11.417,12.833-4.667"/>
  <path id="path190" d="m436.92,369.08-4.417,8.834,12.833-5.5"/>
  <path id="path192" d="m432.5,377.92,12.833-5.5-4.416,7.916"/>
  <path id="path198" d="m432.08,393.5,12.834-6.333-4.417,5.25"/>
  <path id="path200" d="m436.5,387.33-4.417,6.167,12.834-6.333"/>
  <path id="path206" d="m427.25,403.08,12.833-7.25-4.416,1.75"/>
  <path id="path208" d="m431.67,400.42,12.833-7.25-4.417,2.666"/>
  <path id="path210" d="m422.83,404.83,12.834-7.25-4.417,0.917"/>
  <path id="path212" d="m427.25,403.08-4.417,1.75,12.834-7.25"/>
  <path id="path214" d="m436.08,396.83-4.416,3.584,12.833-7.25"/>
  <path id="path220" d="m428.5,364.08,12.833-4.666-4.416,9.666"/>
  <path id="path222" d="m432.92,353.5-4.417,10.583,12.833-4.666"/>
  <path id="path228" d="m428.08,385.83,12.834-5.5-4.417,7"/>
  <path id="path230" d="m432.5,377.92-4.417,7.916,12.834-5.5"/>
  <path id="path236" d="m418.42,405.75,12.833-7.25-4.417,0"/>
  <path id="path238" d="m427.67,398.83,12.833-6.416-4.417,4.416"/>
  <path id="path240" d="m432.08,393.5-4.416,5.333,12.833-6.416"/>
  <path id="path246" d="m431.67,400.42-4.417,2.666,12.833-7.25"/>
  <path id="path252" d="m424.5,345.83,12.833-3.75-4.416,11.417"/>
  <path id="path254" d="m414,405.75-4.417-0.833,12.834-7.25"/>
  <path id="path256" d="m418.42,405.75-4.417,0,12.833-7.25"/>
  <path id="path258" d="m414,405.75,12.833-7.25-4.416-0.833"/>
  <path id="path260" d="m422.83,404.83-4.416,0.917,12.833-7.25"/>
  <path id="path262" d="m414.83,404.33,12.834-5.5-4.417,4.417"/>
  <path id="path264" d="m410,411.25,12.833-6.417-4.416,0.917"/>
  <path id="path266" d="m414.42,409.42-4.42,1.83,12.83-6.42"/>
  <path id="path268" d="m414.42,409.42,12.833-6.334-4.417,1.75"/>
  <path id="path270" d="m418.83,406.75,12.834-6.333-4.417,2.666"/>
  <path id="path272" d="m423.25,403.25-4.417,3.5,12.834-6.333"/>
  <path id="path274" d="m423.25,403.25,12.833-6.417-4.416,3.584"/>
  <path id="path276" d="m427.67,398.83-4.417,4.417,12.833-6.417"/>
  <path id="path280" d="m424.08,373.75,12.834-4.667-4.417,8.834"/>
  <path id="path282" d="m428.5,364.08-4.417,9.667,12.834-4.667"/>
  <path id="path288" d="m423.67,392.83,12.833-5.5-4.417,6.167"/>
  <path id="path290" d="m428.08,385.83-4.416,7,12.833-5.5"/>
  <path id="path304" d="m424.5,345.83-4.333,11.417,12.75-3.75"/>
  <path id="path306" d="m420.17,357.25,12.75-3.75-4.417,10.583"/>
  <path id="path308" d="m410,411.25-4.417,0.917,12.834-6.417"/>
  <path id="path310" d="m405.58,412.17,12.834-6.417-4.417,0"/>
  <path id="path312" d="m410.42,408.75,12.833-5.5-4.417,3.5"/>
  <path id="path314" d="m405.58,412.17-4.416,0,12.84-6.42"/>
  <path id="path316" d="m401.17,412.17,12.83-6.42-4.417-0.833"/>
  <path id="path318" d="m414.83,404.33-4.416,4.417,12.833-5.5"/>
  <path id="path320" d="m418.83,406.75-4.416,2.667,12.833-6.334"/>
  <path id="path326" d="m424.08,373.75-4.416,8.75,12.833-4.583"/>
  <path id="path328" d="m419.67,382.5,12.833-4.583-4.417,7.916"/>
  <path id="path334" d="m409.58,404.92,12.834-7.25-4.417-1.75"/>
  <path id="path336" d="m419.25,399,12.833-5.5-4.416,5.333"/>
  <path id="path338" d="m423.67,392.83-4.42,6.17,12.83-5.5"/>
  <path id="path352" d="m420.17,357.25-4.417,10.583,12.75-3.75"/>
  <path id="path354" d="m415.75,367.83,12.75-3.75-4.417,9.667"/>
  <path id="path356" d="m397.17,416.75,12.833-5.5-4.417,0.917"/>
  <path id="path358" d="m406,412.25,12.833-5.5-4.416,2.667"/>
  <path id="path360" d="m410.42,408.75-4.417,3.5,12.833-5.5"/>
  <path id="path366" d="m415.25,390.42,12.833-4.584-4.416,7"/>
  <path id="path368" d="m419.67,382.5-4.417,7.917,12.833-4.584"/>
  <path id="path374" d="m419.25,399-4.417,5.333,12.834-5.5"/>
  <path id="path388" d="m411.75,348.67,12.75-2.834-4.333,11.417"/>
  <path id="path390" d="m409.58,404.92-4.41-1.67,12.83-7.33"/>
  <path id="path392" d="m405.17,403.25,12.83-7.33-4.42-2.59"/>
  <path id="path394" d="m410.83,397.5-4.33,6.17,12.75-4.67"/>
  <path id="path396" d="m406.5,403.67,12.75-4.667-4.417,5.333"/>
  <path id="path400" d="m415.75,367.83-4.417,9.667,12.75-3.75"/>
  <path id="path402" d="m411.33,377.5,12.75-3.75-4.416,8.75"/>
  <path id="path404" d="m401.58,414.92,12.834-5.5-4.417,1.833"/>
  <path id="path406" d="m401.58,414.92-4.416,1.833,12.833-5.5"/>
  <path id="path408" d="m406,412.25-4.417,2.667,12.834-5.5"/>
  <path id="path414" d="m410.83,397.5,12.84-4.67-4.42,6.17"/>
  <path id="path416" d="m400.75,400.58,12.833-7.25-4.416-3.5"/>
  <path id="path418" d="m405.17,403.25-4.417-2.667,12.833-7.25"/>
  <path id="path420" d="m415.25,390.42-4.417,7.083,12.834-4.667"/>
  <path id="path438" d="m407.33,360.08,12.834-2.833-4.417,10.583"/>
  <path id="path440" d="m411.75,348.67-4.417,11.416,12.834-2.833"/>
  <path id="path444" d="m401.17,412.17-4.417-0.834,12.833-6.416"/>
  <path id="path446" d="m402.08,409,12.75-4.667-4.416,4.417"/>
  <path id="path448" d="m396.75,411.33,12.833-6.416-4.416-1.667"/>
  <path id="path450" d="m406.5,403.67-4.417,5.333,12.75-4.667"/>
  <path id="path454" d="m411.33,377.5-4.416,8.75,12.75-3.75"/>
  <path id="path456" d="m406.92,386.25,12.75-3.75-4.417,7.917"/>
  <path id="path478" d="m402.92,370.67,12.833-2.834-4.417,9.667"/>
  <path id="path480" d="m407.33,360.08-4.416,10.584,12.833-2.834"/>
  <path id="path482" d="m392.33,409.58-4.41-2.58,12.83-6.42"/>
  <path id="path484" d="m396.75,411.33-4.417-1.75,12.834-6.333"/>
  <path id="path486" d="m392.33,409.58,12.834-6.333-4.417-2.667"/>
  <path id="path488" d="m393.67,407.42,12.83-3.75-4.42,5.33"/>
  <path id="path492" d="m388.42,417.67,12.75-5.5-4.417-0.834"/>
  <path id="path494" d="m402.08,409-4.416,4.417,12.75-4.667"/>
  <path id="path496" d="m392.83,417.67-4.416,0,12.75-5.5"/>
  <path id="path498" d="m392.83,417.67,12.75-5.5-4.416,0"/>
  <path id="path500" d="m397.17,416.75-4.334,0.917,12.75-5.5"/>
  <path id="path502" d="m397.67,413.42,12.75-4.667-4.417,3.5"/>
  <path id="path506" d="m396.33,397.17,12.834-7.334-4.417-4.333"/>
  <path id="path508" d="m400.75,400.58-4.417-3.416,12.834-7.334"/>
  <path id="path510" d="m406.92,386.25-4.417,8,12.75-3.833"/>
  <path id="path512" d="m402.5,394.25,12.75-3.833-4.417,7.083"/>
  <path id="path534" d="m398.92,350.67,12.833-2-4.417,11.416"/>
  <path id="path536" d="m387.92,407-4.334-3.5,12.75-6.333"/>
  <path id="path538" d="m383.58,403.5,12.75-6.333-4.416-4.417"/>
  <path id="path540" d="m387.92,407,12.833-6.417-4.417-3.416"/>
  <path id="path542" d="m396.33,397.17-4.416-4.417,12.833-7.25"/>
  <path id="path544" d="m389.67,397.08,12.833-2.833-4.417,7"/>
  <path id="path546" d="m402.5,394.25-4.417,7,12.75-3.75"/>
  <path id="path548" d="m398.08,401.25,12.75-3.75-4.333,6.167"/>
  <path id="path552" d="m391.92,392.75-4.417-5.167,12.833-7.333"/>
  <path id="path554" d="m391.92,392.75,12.833-7.25-4.417-5.25"/>
  <path id="path556" d="m398.5,380.33,12.833-2.833-4.416,8.75"/>
  <path id="path558" d="m402.92,370.67-4.417,9.666,12.833-2.833"/>
  <path id="path560" d="m388.42,417.67-4.417-0.834,12.75-5.5"/>
  <path id="path562" d="m384,416.83,12.75-5.5-4.417-1.75"/>
  <path id="path564" d="m389.25,412.75,12.833-3.75-4.416,4.417"/>
  <path id="path566" d="m379.58,415.08,12.75-5.5-4.416-2.583"/>
  <path id="path568" d="m384,416.83-4.417-1.75,12.75-5.5"/>
  <path id="path570" d="m393.67,407.42-4.42,5.33,12.83-3.75"/>
  <path id="path572" d="m397.67,413.42-4.417,3.5,12.75-4.667"/>
  <path id="path574" d="m393.25,416.92,12.75-4.667-4.417,2.667"/>
  <path id="path600" d="m398.92,350.67-4.417,11.416,12.833-2"/>
  <path id="path602" d="m394.5,362.08,12.833-2-4.416,10.584"/>
  <path id="path604" d="m385.25,404.17,12.833-2.917-4.416,6.167"/>
  <path id="path606" d="m398.08,401.25-4.416,6.167,12.833-3.75"/>
  <path id="path610" d="m389.67,397.08-4.417,7.084,12.833-2.917"/>
  <path id="path614" d="m394.08,389.17,12.834-2.917-4.417,8"/>
  <path id="path616" d="m398.5,380.33-4.417,8.834,12.834-2.917"/>
  <path id="path618" d="m375.58,422.33,12.84-4.66-4.42-0.84"/>
  <path id="path620" d="m389.25,412.75-4.417,4.417,12.834-3.75"/>
  <path id="path622" d="m384.83,417.17,12.834-3.75-4.417,3.5"/>
  <path id="path624" d="m384.42,421.33,12.75-4.583-4.334,0.917"/>
  <path id="path626" d="m388.83,419.58,12.75-4.666-4.416,1.833"/>
  <path id="path628" d="m380,422.25,12.833-4.583-4.416,0"/>
  <path id="path630" d="m384.42,421.33-4.42,0.92,12.83-4.58"/>
  <path id="path632" d="m393.25,416.92-4.417,2.666,12.75-4.666"/>
  <path id="path658" d="m390.08,372.67,12.834-2-4.417,9.666"/>
  <path id="path660" d="m394.5,362.08-4.417,10.584,12.834-2"/>
  <path id="path666" d="m394.08,389.17-4.416,7.916,12.833-2.833"/>
  <path id="path670" d="m380,422.25-4.417,0.083,12.834-4.666"/>
  <path id="path672" d="m384.83,417.17-4.416,3.5,12.833-3.75"/>
  <path id="path674" d="m380.42,420.67,12.833-3.75-4.417,2.666"/>
  <path id="path676" d="m388.83,419.58-4.416,1.75,12.75-4.583"/>
  <path id="path698" d="m386.08,351.83,12.834-1.166-4.417,11.416"/>
  <path id="path700" d="m370.75,409-4.417-4.333,12.834-5.5"/>
  <path id="path702" d="m366.33,404.67,12.834-5.5-4.417-5.25"/>
  <path id="path704" d="m370.75,409,12.833-5.5-4.416-4.333"/>
  <path id="path706" d="m379.17,399.17-4.417-5.25,12.75-6.334"/>
  <path id="path708" d="m379.17,399.17,12.75-6.417-4.417-5.167"/>
  <path id="path710" d="m383.58,403.5-4.416-4.333,12.75-6.417"/>
  <path id="path712" d="m376.83,399.08,12.834-2-4.417,7.084"/>
  <path id="path716" d="m390.08,372.67-4.416,9.666,12.833-2"/>
  <path id="path718" d="m385.67,382.33,12.833-2-4.417,8.834"/>
  <path id="path720" d="m379.58,415.08-4.416-2.583,12.75-5.5"/>
  <path id="path722" d="m380.83,410.33,12.834-2.916-4.417,5.333"/>
  <path id="path724" d="m375.17,412.5,12.75-5.5-4.334-3.5"/>
  <path id="path726" d="m385.25,404.17-4.417,6.166,12.834-2.916"/>
  <path id="path734" d="m367.17,426,12.833-3.75-4.417,0.083"/>
  <path id="path736" d="M371.58,425.17,367.17,426,380,422.25"/>
  <path id="path738" d="m371.58,425.17,12.84-3.84-4.42,0.92"/>
  <path id="path740" d="m376,423.33,12.833-3.75-4.416,1.75"/>
  <path id="path742" d="m380.42,420.67-4.417,2.666,12.833-3.75"/>
  <path id="path762" d="m381.67,363.25,12.833-1.167-4.417,10.584"/>
  <path id="path764" d="m386.08,351.83-4.416,11.417,12.833-1.167"/>
  <path id="path770" d="m385.67,382.33-4.417,8.834,12.833-2"/>
  <path id="path772" d="m381.25,391.17,12.833-2-4.416,7.916"/>
  <path id="path774" d="m366.75,419.75,12.833-4.667-4.416-2.583"/>
  <path id="path776" d="m380.83,410.33-4.416,5.25,12.833-2.833"/>
  <path id="path778" d="m371.17,421.5-4.417-1.75,12.833-4.667"/>
  <path id="path780" d="m371.17,421.5,12.833-4.667-4.417-1.75"/>
  <path id="path782" d="M375.58,422.33,371.17,421.5,384,416.83"/>
  <path id="path784" d="m376.42,415.58,12.833-2.833-4.417,4.417"/>
  <path id="path790" d="m376,423.33-4.417,1.834,12.834-3.834"/>
  <path id="path812" d="m377.25,373.83,12.833-1.166-4.416,9.666"/>
  <path id="path814" d="m381.67,363.25-4.417,10.583,12.833-1.166"/>
  <path id="path816" d="m375.17,412.5-4.417-3.5,12.833-5.5"/>
  <path id="path818" d="m372.42,406.17,12.833-2-4.417,6.166"/>
  <path id="path820" d="m376.83,399.08-4.416,7.084,12.833-2"/>
  <path id="path826" d="m381.25,391.17-4.417,7.916,12.834-2"/>
  <path id="path828" d="m362.33,417.17,12.84-4.67-4.42-3.5"/>
  <path id="path830" d="m366.75,419.75-4.417-2.583,12.834-4.667"/>
  <path id="path832" d="m368,412.33,12.833-2-4.416,5.25"/>
  <path id="path836" d="M376.42,415.58,372,420l12.833-2.833"/>
  <path id="path838" d="m372,420,12.833-2.833-4.416,3.5"/>
  <path id="path860" d="m373.25,352.08,12.833-0.25-4.416,11.417"/>
  <path id="path862" d="m366.33,404.67-4.416-5.25,12.833-5.5"/>
  <path id="path864" d="m368.42,392.25-4.417,8,12.833-1.167"/>
  <path id="path866" d="m368.42,392.25,12.833-1.083-4.417,7.916"/>
  <path id="path870" d="m372.83,383.5,12.834-1.167-4.417,8.834"/>
  <path id="path872" d="m377.25,373.83-4.417,9.667,12.834-1.167"/>
  <path id="path874" d="m362.33,417.17-4.416-3.5,12.84-4.67"/>
  <path id="path876" d="m357.92,413.67,12.83-4.67-4.417-4.333"/>
  <path id="path878" d="m372.42,406.17-4.417,6.166,12.833-2"/>
  <path id="path884" d="m368,412.33-4.417,5.25,12.834-2"/>
  <path id="path886" d="m363.58,417.58,12.834-2-4.41,4.42"/>
  <path id="path890" d="m367.17,426-4.417,0.083,12.833-3.75"/>
  <path id="path892" d="m362.75,426.08,12.833-3.75-4.416-0.833"/>
  <path id="path894" d="m367.58,423.58,12.834-2.916-4.417,2.666"/>
  <path id="path896" d="m362.75,426.08-4.417-0.833,12.834-3.75"/>
  <path id="path898" d="m358.33,425.25,12.834-3.75-4.417-1.75"/>
  <path id="path900" d="m372,420-4.417,3.583,12.834-2.916"/>
  <path id="path920" d="m368.83,363.5,12.834-0.25-4.417,10.583"/>
  <path id="path922" d="m373.25,352.08-4.417,11.417,12.834-0.25"/>
  <path id="path924" d="m364,400.25,12.833-1.167-4.416,7.084"/>
  <path id="path930" d="m372.83,383.5-4.416,8.75,12.833-1.083"/>
  <path id="path932" d="m357.92,413.67-4.417-4.334,12.833-4.666"/>
  <path id="path934" d="m359.58,407.25,12.834-1.083-4.417,6.166"/>
  <path id="path940" d="m358.33,425.25-4.416-1.75,12.833-3.75"/>
  <path id="path942" d="m359.17,422,12.833-2-4.417,3.583"/>
  <path id="path944" d="m354.33,428.92,12.84-2.92-4.42,0.08"/>
  <path id="path946" d="m367.58,423.58-4.41,2.67,12.83-2.92"/>
  <path id="path948" d="m363.17,426.25,12.833-2.917-4.417,1.834"/>
  <path id="path952" d="m353.92,423.5,12.833-3.75-4.417-2.583"/>
  <path id="path954" d="M363.58,417.58,359.17,422,372,420"/>
  <path id="path974" d="m368.83,363.5-4.416,10.583,12.833-0.25"/>
  <path id="path976" d="m364.42,374.08,12.833-0.25-4.417,9.667"/>
  <path id="path978" d="m353.5,409.33,12.833-4.666-4.416-5.25"/>
  <path id="path980" d="m364,400.25-4.417,7,12.834-1.083"/>
  <path id="path986" d="m345.08,417.42,12.834-3.75-4.417-4.334"/>
  <path id="path988" d="m349.5,420.92-4.417-3.5,12.834-3.75"/>
  <path id="path990" d="m349.5,420.92,12.833-3.75-4.416-3.5"/>
  <path id="path992" d="m355.17,413.42,12.833-1.084-4.417,5.25"/>
  <path id="path996" d="m359.58,407.25-4.416,6.167,12.833-1.084"/>
  <path id="path1000" d="m349.92,428.92-4.417-0.834,12.833-2.833"/>
  <path id="path1002" d="m345.5,428.08,12.833-2.833-4.416-1.75"/>
  <path id="path1004" d="m349.92,428.92,12.833-2.834-4.417-0.833"/>
  <path id="path1006" d="m354.33,428.92-4.416,0,12.833-2.834"/>
  <path id="path1008" d="m354.75,425.58,12.833-2-4.416,2.667"/>
  <path id="path1010" d="m359.17,422-4.417,3.583,12.833-2"/>
  <path id="path1014" d="m358.75,428,12.833-2.833-4.416,0.833"/>
  <path id="path1016" d="m358.75,428-4.417,0.917,12.834-2.917"/>
  <path id="path1018" d="m363.17,426.25-4.417,1.75,12.833-2.833"/>
  <path id="path1036" d="m360.42,351.42,12.833,0.666-4.417,11.417"/>
  <path id="path1038" d="m355.58,392.5,12.834-0.25-4.417,8"/>
  <path id="path1042" d="m364.42,374.08-4.42,9.67,12.83-0.25"/>
  <path id="path1044" d="m360,383.75,12.833-0.25-4.416,8.75"/>
  <path id="path1046" d="m353.5,409.33-4.417-5.25,12.834-4.666"/>
  <path id="path1048" d="m351.17,400.5,12.833-0.25-4.417,7"/>
  <path id="path1054" d="m353.92,423.5-4.417-2.583,12.833-3.75"/>
  <path id="path1056" d="m355.17,413.42-4.417,5.333,12.833-1.167"/>
  <path id="path1058" d="m350.75,418.75,12.833-1.167-4.416,4.417"/>
  <path id="path1064" d="m350.33,428.25,12.834-2-4.417,1.75"/>
  <path id="path1068" d="m354.75,425.58-4.417,2.667,12.834-2"/>
  <path id="path1084" d="m356,362.83,12.833,0.667-4.416,10.583"/>
  <path id="path1086" d="m360.42,351.42-4.42,11.41,12.83,0.67"/>
  <path id="path1088" d="m355.58,392.5-4.416,8,12.833-0.25"/>
  <path id="path1094" d="m360,383.75-4.417,8.75,12.834-0.25"/>
  <path id="path1096" d="m345.08,417.42-4.416-4.334,12.833-3.75"/>
  <path id="path1098" d="m340.67,413.08,12.833-3.75-4.417-5.25"/>
  <path id="path1100" d="m346.75,407.5,12.833-0.25-4.416,6.167"/>
  <path id="path1104" d="m340.67,413.08-4.417-5.25,12.833-3.75"/>
  <path id="path1106" d="m351.17,400.5-4.417,7,12.833-0.25"/>
  <path id="path1114" d="m337.08,430.92,12.834-2-4.417-0.834"/>
  <path id="path1116" d="m341.5,430.92-4.417,0,12.834-2"/>
  <path id="path1118" d="m341.5,430.92,12.833-2-4.416,0"/>
  <path id="path1120" d="m350.33,428.25-4.416,1.75,12.833-2"/>
  <path id="path1122" d="m345.92,430,12.833-2-4.417,0.917"/>
  <path id="path1140" d="m356,362.83-4.417,10.584,12.834,0.666"/>
  <path id="path1142" d="m351.58,373.42,12.834,0.666-4.417,9.667"/>
  <path id="path1148" d="m346.75,407.5-4.417,6.167,12.834-0.25"/>
  <path id="path1152" d="m342.33,413.67,12.834-0.25-4.417,5.333"/>
  <path id="path1156" d="m345.5,428.08-4.417-1.666,12.834-2.917"/>
  <path id="path1158" d="m341.08,426.42,12.84-2.92-4.42-2.58"/>
  <path id="path1160" d="m346.33,423.17,12.84-1.17-4.42,3.58"/>
  <path id="path1164" d="m341.08,426.42-4.416-2.667,12.833-2.833"/>
  <path id="path1166" d="m336.67,423.75,12.833-2.833-4.417-3.5"/>
  <path id="path1168" d="m350.75,418.75-4.417,4.417,12.834-1.167"/>
  <path id="path1186" d="m347.58,349.92,12.834,1.5-4.417,11.416"/>
  <path id="path1188" d="m342.75,391.92,12.833,0.583-4.416,8"/>
  <path id="path1192" d="m347.17,383.08,12.83,0.67-4.42,8.75"/>
  <path id="path1194" d="m351.58,373.42-4.416,9.666,12.833,0.667"/>
  <path id="path1196" d="m338.33,399.83,12.834,0.667-4.417,7"/>
  <path id="path1206" d="m341.92,426.67,12.833-1.084-4.417,2.667"/>
  <path id="path1208" d="m346.33,423.17-4.416,3.5,12.833-1.084"/>
  <path id="path1212" d="m345.92,430-4.417,0.917,12.833-2"/>
  <path id="path1228" d="m343.17,361.33,12.833,1.5-4.417,10.584"/>
  <path id="path1230" d="m347.58,349.92-4.416,11.416,12.833,1.5"/>
  <path id="path1232" d="m342.75,391.92-4.417,7.916,12.834,0.667"/>
  <path id="path1238" d="m347.17,383.08-4.417,8.834,12.833,0.583"/>
  <path id="path1240" d="m327.83,415.92-4.416-5.167,12.833-2.917"/>
  <path id="path1242" d="m327.83,415.92,12.834-2.834-4.417-5.25"/>
  <path id="path1244" d="m333.92,406.92,12.833,0.583-4.417,6.167"/>
  <path id="path1246" d="m338.33,399.83-4.416,7.084,12.833,0.583"/>
  <path id="path1252" d="m336.67,423.75-4.417-3.417,12.833-2.916"/>
  <path id="path1254" d="m332.25,420.33,12.833-2.916-4.416-4.334"/>
  <path id="path1256" d="m337.92,419,12.833-0.25-4.417,4.417"/>
  <path id="path1258" d="m342.33,413.67-4.41,5.33,12.83-0.25"/>
  <path id="path1264" d="m337.08,430.92-4.416-0.834,12.833-2"/>
  <path id="path1266" d="m324.25,432.08,12.833-1.166-4.416-0.834"/>
  <path id="path1268" d="m332.67,430.08,12.833-2-4.417-1.666"/>
  <path id="path1270" d="m337.5,429.33-4.417,1.834,12.834-1.167"/>
  <path id="path1272" d="m328.67,432.08-4.417,0,12.833-1.166"/>
  <path id="path1274" d="m328.67,432.08,12.833-1.166-4.417,0"/>
  <path id="path1276" d="m333.08,431.17,12.84-1.17-4.42,0.92"/>
  <path id="path1278" d="m337.5,429.33,12.833-1.083-4.416,1.75"/>
  <path id="path1282" d="m341.92,426.67-4.417,2.666,12.833-1.083"/>
  <path id="path1298" d="m343.17,361.33-4.417,10.584,12.833,1.5"/>
  <path id="path1300" d="m338.75,371.92,12.833,1.5-4.416,9.666"/>
  <path id="path1306" d="m332.25,420.33-4.417-4.416,12.834-2.834"/>
  <path id="path1308" d="m333.92,406.92-4.417,6.166,12.833,0.584"/>
  <path id="path1314" d="m323.83,425.75,12.834-2-4.417-3.417"/>
  <path id="path1316" d="m337.92,419-4.417,4.417,12.833-0.25"/>
  <path id="path1318" d="m328.25,428.42-4.417-2.667,12.834-2"/>
  <path id="path1320" d="m328.25,428.42,12.833-2-4.416-2.667"/>
  <path id="path1322" d="m333.5,423.42,12.833-0.25-4.416,3.5"/>
  <path id="path1330" d="m333.08,431.17-4.416,0.916,12.833-1.166"/>
  <path id="path1344" d="m334.83,347.58,12.75,2.334-4.416,11.416"/>
  <path id="path1346" d="m329.92,390.42,12.833,1.5-4.417,7.916"/>
  <path id="path1350" d="m334.33,381.58,12.834,1.5-4.417,8.834"/>
  <path id="path1352" d="m338.75,371.92-4.417,9.666,12.834,1.5"/>
  <path id="path1354" d="m325.58,398.33,12.75,1.5-4.416,7.084"/>
  <path id="path1360" d="m329.5,413.08,12.833,0.584-4.416,5.333"/>
  <path id="path1366" d="m332.67,430.08-4.417-1.666,12.833-2"/>
  <path id="path1368" d="m333.5,423.42-4.417,3.5,12.834-0.25"/>
  <path id="path1372" d="m329.08,426.92,12.834-0.25-4.417,2.666"/>
  <path id="path1388" d="m334.83,347.58-4.416,11.417,12.75,2.333"/>
  <path id="path1390" d="m330.42,359,12.75,2.333-4.417,10.584"/>
  <path id="path1392" d="m329.92,390.42-4.334,7.916,12.75,1.5"/>
  <path id="path1398" d="m334.33,381.58-4.416,8.834,12.833,1.5"/>
  <path id="path1400" d="m321.17,405.42,12.75,1.5-4.417,6.166"/>
  <path id="path1404" d="m325.58,398.33-4.416,7.084,12.75,1.5"/>
  <path id="path1408" d="m319.42,422.33,12.833-2-4.417-4.416"/>
  <path id="path1410" d="m323.83,425.75-4.416-3.417,12.833-2"/>
  <path id="path1412" d="m325.08,418.33,12.84,0.67-4.42,4.42"/>
  <path id="path1414" d="m315,417.92,12.833-2-4.416-5.167"/>
  <path id="path1416" d="m319.42,422.33-4.417-4.416,12.833-2"/>
  <path id="path1418" d="m329.5,413.08-4.417,5.25,12.834,0.667"/>
  <path id="path1424" d="m324.25,432.08-4.417-0.833,12.834-1.167"/>
  <path id="path1426" d="m319.83,431.25,12.834-1.167-4.417-1.666"/>
  <path id="path1428" d="m324.67,429.58,12.833-0.25-4.417,1.834"/>
  <path id="path1430" d="m319.83,431.25-4.416-1.75,12.833-1.083"/>
  <path id="path1432" d="m315.42,429.5,12.833-1.083-4.417-2.667"/>
  <path id="path1434" d="m329.08,426.92-4.416,2.666,12.833-0.25"/>
  <path id="path1452" d="m330.42,359-4.417,10.5,12.75,2.417"/>
  <path id="path1454" d="m326,369.5,12.75,2.417-4.417,9.666"/>
  <path id="path1460" d="m315,417.92-4.417-5.167,12.834-2"/>
  <path id="path1462" d="m321.17,405.42-4.417,6.166,12.75,1.5"/>
  <path id="path1468" d="m325.08,418.33-4.416,4.417,12.833,0.667"/>
  <path id="path1472" d="m320.67,422.75,12.833,0.667-4.417,3.5"/>
  <path id="path1476" d="m315.83,432.33-4.416,0,12.833-0.25"/>
  <path id="path1478" d="m311.42,432.33,12.833-0.25-4.417-0.833"/>
  <path id="path1480" d="m315.83,432.33,12.834-0.25-4.417,0"/>
  <path id="path1482" d="m320.25,431.42-4.417,0.916,12.834-0.25"/>
  <path id="path1484" d="m320.25,431.42,12.833-0.25-4.416,0.916"/>
  <path id="path1486" d="m324.67,429.58-4.417,1.834,12.833-0.25"/>
  <path id="path1502" d="m322,344.25,12.833,3.333-4.416,11.417"/>
  <path id="path1504" d="m317.17,388,12.75,2.417-4.334,7.916"/>
  <path id="path1508" d="m321.58,379.25,12.75,2.333-4.416,8.834"/>
  <path id="path1510" d="m326,369.5-4.417,9.75,12.75,2.333"/>
  <path id="path1512" d="m312.75,395.92,12.833,2.416-4.416,7.084"/>
  <path id="path1518" d="m316.75,411.58,12.75,1.5-4.417,5.25"/>
  <path id="path1524" d="m311,426.92,12.833-1.167-4.416-3.417"/>
  <path id="path1526" d="m315.42,429.5-4.42-2.58,12.83-1.17"/>
  <path id="path1528" d="m320.67,422.75-4.417,3.583,12.833,0.584"/>
  <path id="path1532" d="m316.25,426.33,12.833,0.584-4.416,2.666"/>
  <path id="path1548" d="m322,344.25-4.417,11.5,12.834,3.25"/>
  <path id="path1550" d="M317.58,355.75,330.42,359,326,369.5"/>
  <path id="path1552" d="m317.17,388-4.417,7.917,12.833,2.416"/>
  <path id="path1558" d="m321.58,379.25-4.416,8.75,12.75,2.417"/>
  <path id="path1560" d="m308.33,403,12.834,2.417-4.417,6.166"/>
  <path id="path1562" d="m312.75,395.92-4.417,7.083,12.834,2.417"/>
  <path id="path1568" d="m302.17,419.08,12.83-1.16-4.42-5.17"/>
  <path id="path1570" d="m316.75,411.58-4.417,5.25,12.75,1.5"/>
  <path id="path1572" d="m306.58,423.42-4.41-4.34,12.83-1.16"/>
  <path id="path1574" d="m306.58,423.42,12.84-1.09-4.42-4.41"/>
  <path id="path1576" d="m312.33,416.83,12.75,1.5-4.416,4.417"/>
  <path id="path1582" d="M302.67,429.75,315.42,429.5,311,426.92"/>
  <path id="path1584" d="m307,431.5-4.333-1.75,12.75-0.25"/>
  <path id="path1586" d="m307,431.5,12.833-0.25-4.416-1.75"/>
  <path id="path1588" d="M311.42,432.33,307,431.5,319.83,431.25"/>
  <path id="path1590" d="m311.92,429,12.75,0.583-4.417,1.834"/>
  <path id="path1592" d="m316.25,426.33-4.333,2.667,12.75,0.583"/>
  <path id="path1610" d="m313.17,366.25,12.833,3.25-4.417,9.75"/>
  <path id="path1612" d="m317.58,355.75-4.416,10.5,12.833,3.25"/>
  <path id="path1618" d="m308.33,403-4.416,6.167,12.833,2.416"/>
  <path id="path1624" d="m311,426.92-4.417-3.5,12.834-1.084"/>
  <path id="path1626" d="m312.33,416.83-4.416,4.417,12.75,1.5"/>
  <path id="path1630" d="m307.92,421.25,12.75,1.5-4.417,3.583"/>
  <path id="path1634" d="m311.92,429-4.417,1.75,12.75,0.667"/>
  <path id="path1638" d="m307.5,430.75,12.75,0.667-4.417,0.916"/>
  <path id="path1652" d="m309.17,340.17,12.833,4.083-4.417,11.5"/>
  <path id="path1654" d="m304.33,384.75-4.416,7.917,12.833,3.25"/>
  <path id="path1656" d="m304.33,384.75,12.834,3.25-4.417,7.917"/>
  <path id="path1660" d="m308.75,375.92,12.833,3.333-4.416,8.75"/>
  <path id="path1662" d="m313.17,366.25-4.417,9.667,12.833,3.333"/>
  <path id="path1664" d="m299.92,392.67,12.833,3.25-4.417,7.083"/>
  <path id="path1670" d="m302.17,419.08-4.417-5.25,12.833-1.083"/>
  <path id="path1672" d="m303.92,409.17,12.833,2.416-4.417,5.25"/>
  <path id="path1678" d="m298.25,427.17-4.417-3.5,12.75-0.25"/>
  <path id="path1680" d="m293.83,423.67,12.75-0.25-4.416-4.334"/>
  <path id="path1682" d="m298.25,427.17,12.75-0.25-4.417-3.5"/>
  <path id="path1684" d="m307.92,421.25-4.417,3.583,12.75,1.5"/>
  <path id="path1686" d="m302.67,429.75-4.417-2.583,12.75-0.25"/>
  <path id="path1688" d="m303.5,424.83,12.75,1.5-4.333,2.667"/>
  <path id="path1696" d="m298.67,431.67,12.75,0.666-4.42-0.84"/>
  <path id="path1698" d="m303.08,431.67-4.416,0,12.75,0.666"/>
  <path id="path1700" d="m294.25,430.83,12.75,0.67-4.33-1.75"/>
  <path id="path1702" d="m298.67,431.67-4.42-0.84,12.75,0.67"/>
  <path id="path1704" d="m307.5,430.75-4.417,0.917,12.75,0.666"/>
  <path id="path1706" d="m303.08,431.67,12.75,0.666-4.416,0"/>
  <path id="path1718" d="m304.75,351.58,12.833,4.167-4.416,10.5"/>
  <path id="path1720" d="m309.17,340.17-4.417,11.416,12.833,4.167"/>
  <path id="path1726" d="m308.75,375.92-4.417,8.833,12.834,3.25"/>
  <path id="path1728" d="m295.5,399.75,12.833,3.25-4.416,6.167"/>
  <path id="path1732" d="m299.92,392.67-4.42,7.08,12.83,3.25"/>
  <path id="path1736" d="m303.92,409.17-4.417,5.25,12.833,2.416"/>
  <path id="path1738" d="m299.5,414.42,12.833,2.416-4.416,4.417"/>
  <path id="path1744" d="m299.08,427.5,12.834,1.5-4.417,1.75"/>
  <path id="path1746" d="m303.5,424.83-4.417,2.667,12.834,1.5"/>
  <path id="path1770" d="m304.75,351.58-4.417,10.584,12.834,4.083"/>
  <path id="path1772" d="m300.33,362.17,12.834,4.083-4.417,9.667"/>
  <path id="path1778" d="m295.5,399.75-4.417,6.167,12.834,3.25"/>
  <path id="path1782" d="m291.08,405.92,12.834,3.25-4.417,5.25"/>
  <path id="path1786" d="m289.42,419.33,12.75-0.25-4.417-5.25"/>
  <path id="path1788" d="m293.83,423.67-4.416-4.334,12.75-0.25"/>
  <path id="path1790" d="m299.5,414.42-4.417,4.416,12.834,2.417"/>
  <path id="path1794" d="m295.08,418.83,12.834,2.417-4.417,3.583"/>
  <path id="path1798" d="m289.83,429.17,12.834,0.583-4.417-2.583"/>
  <path id="path1800" d="m294.25,430.83-4.417-1.666,12.834,0.583"/>
  <path id="path1802" d="m299.08,427.5-4.416,1.75,12.833,1.5"/>
  <path id="path1804" d="m294.67,429.25,12.833,1.5-4.417,0.917"/>
  <path id="path1820" d="m296.33,335.17,12.834,5-4.417,11.416"/>
  <path id="path1822" d="m291.5,380.58-4.417,8,12.834,4.084"/>
  <path id="path1824" d="m291.5,380.58,12.833,4.167-4.416,7.917"/>
  <path id="path1828" d="m300.33,362.17-4.416,9.666,12.833,4.084"/>
  <path id="path1830" d="m295.92,371.83,12.833,4.084-4.417,8.833"/>
  <path id="path1836" d="m289.42,419.33-4.417-5.25,12.75-0.25"/>
  <path id="path1838" d="m291.08,405.92-4.416,5.25,12.833,3.25"/>
  <path id="path1844" d="m281,423.08,12.833,0.584-4.416-4.334"/>
  <path id="path1846" d="m295.08,418.83-4.416,3.584,12.833,2.416"/>
  <path id="path1848" d="m285.42,426.5-4.417-3.417,12.833,0.584"/>
  <path id="path1850" d="m285.42,426.5,12.833,0.667-4.417-3.5"/>
  <path id="path1852" d="m290.67,422.42,12.833,2.416-4.417,2.667"/>
  <path id="path1858" d="m285.83,430.17,12.834,1.5-4.417-0.834"/>
  <path id="path1860" d="m285.83,430.17-4.416-0.834,12.833,1.5"/>
  <path id="path1862" d="m281.42,429.33,12.833,1.5-4.417-1.666"/>
  <path id="path1864" d="m290.25,430.17-4.417,0,12.834,1.5"/>
  <path id="path1866" d="m290.25,430.17,12.833,1.5-4.416,0"/>
  <path id="path1868" d="m294.67,429.25-4.417,0.917,12.833,1.5"/>
  <path id="path1882" d="m291.92,346.58,12.833,5-4.417,10.584"/>
  <path id="path1884" d="m296.33,335.17-4.416,11.416,12.833,5"/>
  <path id="path1886" d="m287.08,388.58,12.834,4.084-4.417,7.083"/>
  <path id="path1892" d="m295.92,371.83-4.417,8.75,12.833,4.167"/>
  <path id="path1894" d="m282.67,395.58,12.833,4.167-4.417,6.167"/>
  <path id="path1900" d="m286.67,411.17,12.833,3.25-4.417,4.416"/>
  <path id="path1906" d="m289.83,429.17-4.416-2.667,12.833,0.667"/>
  <path id="path1908" d="m286.25,425.08,12.833,2.417-4.416,1.75"/>
  <path id="path1910" d="m290.67,422.42-4.417,2.666,12.833,2.417"/>
  <path id="path1928" d="m287.5,357.08,12.833,5.084-4.416,9.666"/>
  <path id="path1930" d="m291.92,346.58-4.417,10.5,12.833,5.084"/>
  <path id="path1932" d="m287.08,388.58-4.416,7,12.833,4.167"/>
  <path id="path1938" d="m278.25,401.75,12.833,4.167-4.416,5.25"/>
  <path id="path1942" d="m282.67,395.58-4.417,6.167,12.833,4.167"/>
  <path id="path1946" d="m276.58,418.67,12.834,0.666-4.417-5.25"/>
  <path id="path1948" d="m281,423.08-4.417-4.416,12.834,0.666"/>
  <path id="path1950" d="m282.25,415.58,12.833,3.25-4.416,3.584"/>
  <path id="path1952" d="m276.58,418.67-4.41-5.17,12.83,0.58"/>
  <path id="path1954" d="m286.67,411.17-4.417,4.416,12.833,3.25"/>
  <path id="path1960" d="m277,427.58,12.833,1.584-4.416-2.667"/>
  <path id="path1962" d="m281.42,429.33-4.417-1.75,12.833,1.584"/>
  <path id="path1964" d="m277,427.58-4.417-2.583,12.834,1.5"/>
  <path id="path1966" d="m272.58,425,12.834,1.5-4.417-3.417"/>
  <path id="path1968" d="m286.25,425.08-4.417,1.75,12.834,2.417"/>
  <path id="path1970" d="m281.83,426.83,12.834,2.417-4.417,0.917"/>
  <path id="path1986" d="m283.5,329.25,12.833,5.917-4.416,11.416"/>
  <path id="path1988" d="m274.25,383.5,12.833,5.083-4.416,7"/>
  <path id="path1992" d="m283.08,366.83,12.834,5-4.417,8.75"/>
  <path id="path1994" d="m287.5,357.08-4.417,9.75,12.834,5"/>
  <path id="path2000" d="m278.25,401.75-4.417,5.333,12.834,4.084"/>
  <path id="path2002" d="m273.83,407.08,12.834,4.084-4.417,4.416"/>
  <path id="path2008" d="m282.25,415.58-4.417,3.584,12.834,3.25"/>
  <path id="path2010" d="m277.83,419.17,12.834,3.25-4.417,2.666"/>
  <path id="path2016" d="m268.58,427,12.834,2.333-4.417-1.75"/>
  <path id="path2018" d="m273,427.83-4.417-0.833,12.834,2.333"/>
  <path id="path2020" d="m273,427.83,12.833,2.334-4.416-0.834"/>
  <path id="path2022" d="m277.42,427.75-4.417,0.083,12.833,2.334"/>
  <path id="path2024" d="m277.42,427.75,12.833,2.417-4.417,0"/>
  <path id="path2026" d="m281.83,426.83-4.416,0.917,12.833,2.417"/>
  <path id="path2040" d="m283.5,329.25-4.417,11.417,12.834,5.916"/>
  <path id="path2042" d="m279.08,340.67,12.834,5.916-4.417,10.5"/>
  <path id="path2044" d="m274.25,383.5-4.417,7.083,12.834,5"/>
  <path id="path2050" d="m278.67,375.58,12.833,5-4.417,8"/>
  <path id="path2052" d="m283.08,366.83-4.416,8.75,12.833,5"/>
  <path id="path2058" d="m273.83,407.08-4.416,4.417,12.833,4.083"/>
  <path id="path2064" d="m272.58,425-4.416-3.417,12.833,1.5"/>
  <path id="path2066" d="m268.17,421.58,12.833,1.5-4.417-4.416"/>
  <path id="path2068" d="m273.42,421.83,12.833,3.25-4.417,1.75"/>
  <path id="path2070" d="m277.83,419.17-4.416,2.666,12.833,3.25"/>
  <path id="path2088" d="m279.08,340.67-4.416,10.583,12.833,5.833"/>
  <path id="path2090" d="m274.67,351.25,12.833,5.833-4.417,9.75"/>
  <path id="path2092" d="m269.83,390.58,12.834,5-4.417,6.167"/>
  <path id="path2098" d="m278.67,375.58-4.417,7.917,12.833,5.083"/>
  <path id="path2100" d="m265.42,396.75,12.833,5-4.417,5.333"/>
  <path id="path2106" d="m263.75,417.17,12.833,1.5-4.416-5.167"/>
  <path id="path2108" d="m263.75,417.17-4.417-5.167,12.834,1.5"/>
  <path id="path2110" d="m268.17,421.58-4.417-4.416,12.833,1.5"/>
  <path id="path2112" d="m269.42,411.5-4.42,3.5,12.833,4.167"/>
  <path id="path2114" d="m269.42,411.5,12.833,4.083-4.417,3.584"/>
  <path id="path2120" d="m268.58,427-4.416-1.75,12.833,2.333"/>
  <path id="path2122" d="M264.17,425.25,277,427.58,272.58,425"/>
  <path id="path2124" d="m264.17,425.25-4.42-2.58,12.83,2.33"/>
  <path id="path2126" d="m259.75,422.67,12.833,2.333-4.416-3.417"/>
  <path id="path2128" d="m269,423.58-4.417,0.917,12.834,3.25"/>
  <path id="path2130" d="m264.58,424.5,12.834,3.25-4.417,0.083"/>
  <path id="path2132" d="m269,423.58,12.833,3.25-4.416,0.917"/>
  <path id="path2136" d="m273.42,421.83-4.417,1.75,12.833,3.25"/>
  <path id="path2150" d="m270.67,322.5,12.833,6.75-4.417,11.417"/>
  <path id="path2152" d="m261.42,377.67,12.833,5.833-4.417,7.083"/>
  <path id="path2156" d="m274.67,351.25-4.417,9.667,12.833,5.916"/>
  <path id="path2158" d="m270.25,360.92,12.833,5.916-4.416,8.75"/>
  <path id="path2160" d="m269.83,390.58-4.416,6.167,12.833,5"/>
  <path id="path2166" d="m261,402.08,12.833,5-4.416,4.417"/>
  <path id="path2168" d="m265.42,396.75-4.417,5.333,12.833,5"/>
  <path id="path2174" d="m255.33,419.17-4.416-4.334,12.833,2.334"/>
  <path id="path2176" d="m250.92,414.83,12.83,2.34-4.42-5.17"/>
  <path id="path2178" d="m255.33,419.17,12.834,2.416-4.417-4.416"/>
  <path id="path2180" d="m265,415-4.417,2.667,12.834,4.166"/>
  <path id="path2182" d="m265,415,12.833,4.167-4.416,2.666"/>
  <path id="path2190" d="m255.75,423.67-4.417-1.667,12.834,3.25"/>
  <path id="path2192" d="m251.33,422,12.834,3.25-4.417-2.583"/>
  <path id="path2194" d="m255.75,423.67,12.833,3.333-4.416-1.75"/>
  <path id="path2196" d="m264.58,424.5-4.416,0.083,12.833,3.25"/>
  <path id="path2198" d="M260.17,424.58,273,427.83,268.58,427"/>
  <path id="path2210" d="m270.67,322.5-4.417,11.417,12.833,6.75"/>
  <path id="path2212" d="m266.25,333.92,12.833,6.75-4.416,10.583"/>
  <path id="path2214" d="m257,384.67,12.833,5.916-4.416,6.167"/>
  <path id="path2216" d="m261.42,377.67-4.417,7,12.833,5.916"/>
  <path id="path2222" d="m265.83,369.75,12.834,5.833-4.417,7.917"/>
  <path id="path2224" d="m270.25,360.92-4.417,8.833,12.834,5.833"/>
  <path id="path2230" d="m261,402.08-4.417,4.417,12.834,5"/>
  <path id="path2232" d="m256.58,406.5,12.834,5-4.41,3.5"/>
  <path id="path2238" d="m259.75,422.67-4.417-3.5,12.834,2.416"/>
  <path id="path2240" d="m256.17,419.5,12.83,4.08-4.42,0.92"/>
  <path id="path2242" d="m260.58,417.67-4.41,1.83,12.83,4.08"/>
  <path id="path2244" d="m260.58,417.67,12.834,4.166-4.417,1.75"/>
  <path id="path2262" d="m266.25,333.92-4.417,10.583,12.834,6.75"/>
  <path id="path2264" d="m261.83,344.5,12.834,6.75-4.417,9.667"/>
  <path id="path2266" d="m257,384.67-4.417,6.166,12.834,5.917"/>
  <path id="path2272" d="m265.83,369.75-4.416,7.917,12.833,5.833"/>
  <path id="path2278" d="m250.92,414.83-4.42-5.25,12.83,2.42"/>
  <path id="path2280" d="m252.17,410,12.833,5-4.417,2.667"/>
  <path id="path2282" d="m256.58,406.5-4.41,3.5,12.83,5"/>
  <path id="path2288" d="m260.17,424.58-4.42-0.91,12.83,3.33"/>
  <path id="path2292" d="m246.92,419.42,12.833,3.25-4.417-3.5"/>
  <path id="path2294" d="m251.33,422-4.416-2.583,12.833,3.25"/>
  <path id="path2296" d="m251.75,420.33,12.833,4.167-4.416,0.083"/>
  <path id="path2298" d="m256.17,419.5-4.417,0.833,12.833,4.167"/>
  <path id="path2312" d="m257.83,314.83,12.834,7.667-4.417,11.417"/>
  <path id="path2316" d="m257.42,354.17,12.833,6.75-4.417,8.833"/>
  <path id="path2318" d="m261.83,344.5-4.416,9.667,12.833,6.75"/>
  <path id="path2320" d="m252.58,390.83-4.416,5.334,12.833,5.916"/>
  <path id="path2322" d="m252.58,390.83,12.834,5.917-4.417,5.333"/>
  <path id="path2332" d="m238.08,411.58,12.834,3.25-4.417-5.25"/>
  <path id="path2334" d="m242.5,415.92-4.417-4.334,12.834,3.25"/>
  <path id="path2336" d="m242.5,415.92,12.833,3.25-4.416-4.334"/>
  <path id="path2338" d="m247.75,412.67,12.833,5-4.416,1.833"/>
  <path id="path2340" d="m252.17,410-4.417,2.667,12.833,5"/>
  <path id="path2358" d="m253.42,326.25,12.833,7.667-4.417,10.583"/>
  <path id="path2360" d="m257.83,314.83-4.416,11.417,12.833,7.667"/>
  <path id="path2366" d="m253,362.92,12.833,6.833-4.416,7.917"/>
  <path id="path2368" d="m257.42,354.17-4.417,8.75,12.833,6.833"/>
  <path id="path2370" d="m248.17,396.17,12.83,5.91-4.42,4.42"/>
  <path id="path2380" d="m238.5,417.83,12.833,4.167-4.416-2.583"/>
  <path id="path2382" d="m251.75,420.33-4.417,0.084,12.834,4.166"/>
  <path id="path2384" d="m247.33,420.42,12.834,4.166-4.417-0.916"/>
  <path id="path2388" d="m246.92,419.42-4.417-3.5,12.833,3.25"/>
  <path id="path2390" d="m243.33,414.42,12.834,5.083-4.417,0.833"/>
  <path id="path2392" d="m247.75,412.67-4.417,1.75,12.834,5.083"/>
  <path id="path2408" d="m249,336.83,12.833,7.667-4.416,9.667"/>
  <path id="path2410" d="m253.42,326.25-4.42,10.58,12.83,7.67"/>
  <path id="path2412" d="m239.75,384.08,12.833,6.75-4.416,5.334"/>
  <path id="path2418" d="m253,362.92-4.417,7.916,12.834,6.834"/>
  <path id="path2420" d="m248.58,370.83,12.834,6.834-4.417,7"/>
  <path id="path2422" d="m243.75,400.58,12.833,5.917-4.416,3.5"/>
  <path id="path2424" d="m248.17,396.17-4.417,4.416,12.833,5.917"/>
  <path id="path2434" d="m242.92,419.58,12.83,4.09-4.42-1.67"/>
  <path id="path2436" d="m242.92,419.58-4.42-1.75,12.83,4.17"/>
  <path id="path2438" d="m247.33,420.42-4.416-0.834,12.833,4.084"/>
  <path id="path2454" d="m245.08,306.33,12.75,8.5-4.416,11.417"/>
  <path id="path2456" d="m244.17,377.92-4.417,6.166,12.833,6.75"/>
  <path id="path2458" d="m244.17,377.92,12.833,6.75-4.417,6.166"/>
  <path id="path2462" d="m249,336.83-4.333,9.667,12.75,7.667"/>
  <path id="path2464" d="m244.67,346.5,12.75,7.667-4.417,8.75"/>
  <path id="path2466" d="m239.75,384.08-4.333,5.334,12.75,6.75"/>
  <path id="path2468" d="m235.42,389.42,12.75,6.75-4.417,4.416"/>
  <path id="path2474" d="m248.58,370.83-4.416,7.084,12.833,6.75"/>
  <path id="path2476" d="m243.75,400.58-4.417,3.5,12.834,5.917"/>
  <path id="path2478" d="m238.08,411.58-4.416-5.25,12.833,3.25"/>
  <path id="path2480" d="m239.33,404.08,12.834,5.917-4.417,2.667"/>
  <path id="path2486" d="m234.08,415.25,12.834,4.167-4.417-3.5"/>
  <path id="path2488" d="m229.67,411.75,12.833,4.167-4.417-4.334"/>
  <path id="path2490" d="m234.08,415.25-4.416-3.5,12.833,4.167"/>
  <path id="path2492" d="m243.33,414.42-4.416,0.916,12.833,5"/>
  <path id="path2494" d="m238.5,417.83-4.417-2.583,12.834,4.167"/>
  <path id="path2496" d="m238.92,415.33,12.833,5-4.417,0.084"/>
  <path id="path2514" d="m245.08,306.33-4.416,11.417,12.75,8.5"/>
  <path id="path2516" d="m240.67,317.75,12.75,8.5-4.417,10.583"/>
  <path id="path2522" d="m240.25,355.33,12.75,7.584-4.417,7.916"/>
  <path id="path2524" d="m244.67,346.5-4.417,8.833,12.75,7.584"/>
  <path id="path2526" d="m235.42,389.42-4.417,4.416,12.75,6.75"/>
  <path id="path2528" d="m231,393.83,12.75,6.75-4.417,3.5"/>
  <path id="path2534" d="m239.33,404.08-4.416,2.667,12.833,5.917"/>
  <path id="path2536" d="m234.92,406.75,12.833,5.917-4.417,1.75"/>
  <path id="path2544" d="m225.67,412.83,12.833,5-4.417-2.583"/>
  <path id="path2546" d="m234.5,415.42-4.417-0.834,12.834,5"/>
  <path id="path2548" d="m230.08,414.58,12.834,5-4.417-1.75"/>
  <path id="path2550" d="m234.5,415.42,12.833,5-4.416-0.834"/>
  <path id="path2552" d="m238.92,415.33-4.417,0.084,12.833,5"/>
  <path id="path2568" d="m240.67,317.75-4.417,10.5,12.75,8.583"/>
  <path id="path2570" d="m236.25,328.25,12.75,8.583-4.333,9.667"/>
  <path id="path2576" d="m235.83,363.25,12.75,7.583-4.416,7.084"/>
  <path id="path2578" d="m240.25,355.33-4.417,7.917,12.75,7.583"/>
  <path id="path2580" d="m226.58,397.33,12.75,6.75-4.416,2.667"/>
  <path id="path2582" d="m231,393.83-4.417,3.5,12.75,6.75"/>
  <path id="path2588" d="m216.83,406.75,12.834,5-4.417-4.333"/>
  <path id="path2590" d="m229.67,411.75-4.417-4.333,12.833,4.166"/>
  <path id="path2592" d="m225.25,407.42,12.833,4.166-4.416-5.25"/>
  <path id="path2594" d="m230.5,408.58-4.417,0.917,12.834,5.833"/>
  <path id="path2596" d="m234.92,406.75-4.417,1.833,12.833,5.834"/>
  <path id="path2598" d="m230.5,408.58,12.833,5.834-4.416,0.916"/>
  <path id="path2618" d="m232.25,296.92,12.833,9.416-4.416,11.417"/>
  <path id="path2620" d="m227,376.42-4.417,5.333,12.834,7.667"/>
  <path id="path2622" d="m227,376.42,12.75,7.666-4.333,5.334"/>
  <path id="path2626" d="m231.83,338,12.834,8.5-4.417,8.833"/>
  <path id="path2628" d="m236.25,328.25-4.417,9.75,12.834,8.5"/>
  <path id="path2634" d="m235.83,363.25-4.416,7,12.75,7.667"/>
  <path id="path2636" d="m231.42,370.25,12.75,7.667-4.417,6.166"/>
  <path id="path2638" d="m225.25,407.42-4.417-5.25,12.834,4.166"/>
  <path id="path2640" d="m222.17,400,12.75,6.75-4.417,1.833"/>
  <path id="path2642" d="m226.58,397.33-4.416,2.667,12.75,6.75"/>
  <path id="path2648" d="m230.08,414.58-4.416-1.75,12.833,5"/>
  <path id="path2652" d="m221.25,410.25,12.833,5-4.416-3.5"/>
  <path id="path2654" d="m225.67,412.83-4.417-2.583,12.833,5"/>
  <path id="path2656" d="m221.25,410.25-4.417-3.5,12.834,5"/>
  <path id="path2658" d="m221.75,409.5,12.75,5.917-4.417-0.834"/>
  <path id="path2660" d="m226.08,409.5-4.333,0,12.75,5.917"/>
  <path id="path2662" d="m226.08,409.5,12.834,5.833-4.417,0.084"/>
  <path id="path2678" d="m227.83,308.33,12.834,9.417-4.417,10.5"/>
  <path id="path2680" d="m232.25,296.92-4.417,11.416,12.834,9.417"/>
  <path id="path2682" d="m222.58,381.75,12.834,7.667-4.417,4.416"/>
  <path id="path2688" d="m231.83,338-4.416,8.75,12.833,8.583"/>
  <path id="path2690" d="m227.42,346.75,12.833,8.583-4.417,7.917"/>
  <path id="path2696" d="m231.42,370.25-4.417,6.167,12.75,7.666"/>
  <path id="path2698" d="m212.42,402.42-4.334-5.25,12.75,5"/>
  <path id="path2700" d="m212.42,402.42,12.833,5-4.417-5.25"/>
  <path id="path2702" d="m216.83,406.75-4.416-4.333,12.833,5"/>
  <path id="path2704" d="m217.75,401.75,12.75,6.833-4.417,0.917"/>
  <path id="path2706" d="m222.17,400-4.417,1.75,12.75,6.833"/>
  <path id="path2728" d="m223.42,318.92,12.833,9.333-4.417,9.75"/>
  <path id="path2730" d="m227.83,308.33-4.416,10.584,12.833,9.333"/>
  <path id="path2732" d="m218.17,386.17,12.833,7.666-4.417,3.5"/>
  <path id="path2734" d="m222.58,381.75-4.416,4.417,12.833,7.666"/>
  <path id="path2740" d="m227.42,346.75-4.417,7.917,12.833,8.583"/>
  <path id="path2742" d="m223,354.67,12.833,8.583-4.416,7"/>
  <path id="path2748" d="m212.92,406.92-4.417-2.584,12.75,5.917"/>
  <path id="path2750" d="m212.92,406.92,12.75,5.916-4.417-2.583"/>
  <path id="path2752" d="m217.33,408.67-4.416-1.75,12.75,5.916"/>
  <path id="path2754" d="m217.33,408.67,12.75,5.916-4.416-1.75"/>
  <path id="path2756" d="m208.5,404.33,12.75,5.917-4.417-3.5"/>
  <path id="path2758" d="m221.75,409.5-4.417-0.833,12.75,5.916"/>
  <path id="path2778" d="M223.42,318.92,219,328.58,231.83,338"/>
  <path id="path2780" d="m219,328.58,12.833,9.417-4.416,8.75"/>
  <path id="path2782" d="m213.75,389.67,12.833,7.666-4.416,2.667"/>
  <path id="path2784" d="m218.17,386.17-4.417,3.5,12.833,7.666"/>
  <path id="path2790" d="m218.58,361.75,12.834,8.5-4.417,6.167"/>
  <path id="path2792" d="m223,354.67-4.417,7.083,12.834,8.5"/>
  <path id="path2794" d="m217.75,401.75-4.417,0.917,12.75,6.833"/>
  <path id="path2816" d="m219,328.58-4.417,8.75,12.834,9.417"/>
  <path id="path2818" d="m214.58,337.33,12.834,9.417-4.417,7.917"/>
  <path id="path2820" d="m213.75,389.67-4.417,2.666,12.834,7.667"/>
  <path id="path2822" d="m209.33,392.33,12.834,7.667-4.417,1.75"/>
  <path id="path2828" d="m214.17,367.92,12.833,8.5-4.417,5.333"/>
  <path id="path2830" d="m218.58,361.75-4.416,6.167,12.833,8.5"/>
  <path id="path2832" d="m195.67,397.58,12.833,6.75-4.417-3.5"/>
  <path id="path2834" d="m204.08,400.83,12.75,5.917-4.416-4.333"/>
  <path id="path2836" d="m208.5,404.33-4.417-3.5,12.75,5.917"/>
  <path id="path2838" d="m208.92,402.75-4.417-0.833,12.833,6.75"/>
  <path id="path2840" d="m204.5,401.92,12.833,6.75-4.416-1.75"/>
  <path id="path2842" d="m208.92,402.75,12.833,6.75-4.417-0.833"/>
  <path id="path2844" d="m213.33,402.67-4.416,0.083,12.833,6.75"/>
  <path id="path2846" d="m213.33,402.67,12.75,6.833-4.333,0"/>
  <path id="path2868" d="m210.17,345.33,12.833,9.334-4.417,7.083"/>
  <path id="path2870" d="m214.58,337.33-4.416,8,12.833,9.334"/>
  <path id="path2872" d="m199.67,396.5,12.75,5.917-4.334-5.25"/>
  <path id="path2874" d="m199.67,396.5-4.417-5.25,12.833,5.917"/>
  <path id="path2876" d="m204.92,394.17-4.417,0.916,12.833,7.584"/>
  <path id="path2878" d="m209.33,392.33-4.416,1.834,12.833,7.583"/>
  <path id="path2880" d="m204.92,394.17,12.833,7.583-4.417,0.917"/>
  <path id="path2886" d="m214.17,367.92-4.417,5.333,12.833,8.5"/>
  <path id="path2888" d="m209.75,373.25,12.833,8.5-4.416,4.417"/>
  <path id="path2908" d="m210.17,345.33-4.417,7,12.833,9.417"/>
  <path id="path2910" d="m205.75,352.33,12.833,9.417-4.416,6.167"/>
  <path id="path2912" d="m200.08,400.17-4.416-2.584,12.833,6.75"/>
  <path id="path2914" d="m200.08,400.17,12.834,6.75-4.417-2.584"/>
  <path id="path2916" d="m204.5,401.92-4.417-1.75,12.834,6.75"/>
  <path id="path2920" d="m186.83,389.75,12.834,6.75-4.417-5.25"/>
  <path id="path2922" d="m191.25,394.08-4.417-4.333,12.834,6.75"/>
  <path id="path2924" d="m191.25,394.08,12.833,6.75-4.416-4.333"/>
  <path id="path2926" d="m204.08,400.83-4.416-4.333,12.75,5.917"/>
  <path id="path2928" d="m200.5,395.08-4.417,0,12.834,7.667"/>
  <path id="path2930" d="m195.67,397.58-4.417-3.5,12.833,6.75"/>
  <path id="path2932" d="m196.08,395.08,12.834,7.667-4.417-0.833"/>
  <path id="path2934" d="m200.5,395.08,12.833,7.584-4.416,0.083"/>
  <path id="path2938" d="m205.33,377.67,12.834,8.5-4.417,3.5"/>
  <path id="path2940" d="m209.75,373.25-4.417,4.417,12.834,8.5"/>
  <path id="path2958" d="m205.75,352.33-4.417,6.167,12.834,9.417"/>
  <path id="path2960" d="m201.33,358.5,12.834,9.417-4.417,5.333"/>
  <path id="path2966" d="m205.33,377.67-4.416,3.5,12.833,8.5"/>
  <path id="path2968" d="m200.92,381.17,12.833,8.5-4.417,2.666"/>
  <path id="path2986" d="m196.92,363.83,12.833,9.417-4.417,4.417"/>
  <path id="path2988" d="m201.33,358.5-4.416,5.333,12.833,9.417"/>
  <path id="path2994" d="m196.5,383.83,12.833,8.5-4.416,1.834"/>
  <path id="path2996" d="m200.92,381.17-4.417,2.666,12.833,8.5"/>
  <path id="path3012" d="m192.5,368.25,12.833,9.417-4.416,3.5"/>
  <path id="path3014" d="m196.92,363.83-4.417,4.417,12.833,9.417"/>
  <path id="path3020" d="m192.08,385.58,12.834,8.584-4.417,0.916"/>
  <path id="path3022" d="m196.5,383.83-4.417,1.75,12.834,8.584"/>
  <path id="path3028" d="m191.67,394.25,12.833,7.667-4.417-1.75"/>
  <path id="path3030" d="m196.08,395.08-4.416-0.833,12.833,7.667"/>
  <path id="path3040" d="m192.5,368.25-4.417,3.5,12.834,9.417"/>
  <path id="path3042" d="m188.08,371.75,12.834,9.417-4.417,2.666"/>
  <path id="path3048" d="m186.83,389.75-4.416-5.25,12.833,6.75"/>
  <path id="path3050" d="m187.67,386.5,12.833,8.583-4.417,0"/>
  <path id="path3052" d="m192.08,385.58-4.416,0.917,12.833,8.583"/>
  <path id="path3058" d="m182.83,389.92,12.834,7.666-4.417-3.5"/>
  <path id="path3060" d="m187.25,392.5,12.833,7.667-4.416-2.584"/>
  <path id="path3062" d="m182.83,389.92-4.416-3.5,12.833,7.666"/>
  <path id="path3064" d="m178.42,386.42,12.833,7.666-4.417-4.333"/>
  <path id="path3066" d="m191.67,394.25-4.417-1.75,12.833,7.667"/>
  <path id="path3076" d="m183.67,374.42,12.833,9.416-4.417,1.75"/>
  <path id="path3078" d="m188.08,371.75-4.416,2.667,12.833,9.416"/>
  <path id="path3084" d="m174,382.08,12.833,7.667-4.416-5.25"/>
  <path id="path3086" d="m178.42,386.42-4.42-4.34,12.83,7.67"/>
  <path id="path3088" d="m183.25,386.58,12.833,8.5-4.416-0.833"/>
  <path id="path3090" d="m187.67,386.5-4.417,0.083,12.833,8.5"/>
  <path id="path3096" d="m187.25,392.5-4.417-2.583,12.834,7.666"/>
  <path id="path3104" d="m179.25,376.25,12.833,9.333-4.416,0.917"/>
  <path id="path3106" d="m183.67,374.42-4.417,1.833,12.833,9.333"/>
  <path id="path3112" d="m178.83,385.75,12.834,8.5-4.417-1.75"/>
  <path id="path3114" d="m183.25,386.58-4.417-0.833,12.834,8.5"/>
  <path id="path3124" d="m174,382.08-4.417-5.25,12.834,7.667"/>
  <path id="path3126" d="m174.83,377.17,12.834,9.333-4.417,0.083"/>
  <path id="path3128" d="m179.25,376.25-4.417,0.917,12.834,9.333"/>
  <path id="path3134" d="m170,381.42-4.417-3.5,12.834,8.5"/>
  <path id="path3136" d="m165.58,377.92,12.834,8.5-4.417-4.334"/>
  <path id="path3138" d="m170,381.42,12.833,8.5-4.416-3.5"/>
  <path id="path3140" d="m178.83,385.75-4.416-1.75,12.833,8.5"/>
  <path id="path3142" d="m174.42,384,12.833,8.5-4.417-2.583"/>
  <path id="path3152" d="m170.42,377.17,12.833,9.416-4.417-0.833"/>
  <path id="path3154" d="m174.83,377.17-4.416,0,12.833,9.416"/>
  <path id="path3160" d="m174.42,384-4.417-2.583,12.833,8.5"/>
  <path id="path3168" d="m161.17,373.58,12.833,8.5-4.417-5.25"/>
  <path id="path3170" d="m165.58,377.92-4.416-4.334,12.833,8.5"/>
  <path id="path3172" d="m166,376.33,12.833,9.417-4.416-1.75"/>
  <path id="path3174" d="m170.42,377.17-4.42-0.84,12.83,9.42"/>
  <path id="path3184" d="m152.75,368.5,12.833,9.417-4.416-4.334"/>
  <path id="path3186" d="m166,376.33-4.417-1.75,12.834,9.417"/>
  <path id="path3188" d="M161.58,374.58,174.42,384,170,381.42"/>
  <path id="path3198" d="m157.17,372,12.833,9.417-4.417-3.5"/>
  <path id="path3200" d="m157.17,372-4.417-3.5,12.833,9.417"/>
  <path id="path3202" d="M161.58,374.58,157.17,372,170,381.42"/>
  <path id="path3208" d="m161.17,373.58-4.417-5.25,12.833,8.5"/>
  <path id="path3216" d="m148.33,364.17,12.834,9.416-4.417-5.25"/>
  <path id="path3218" d="m152.75,368.5-4.417-4.333,12.834,9.416"/>
  <path id="path3224" d="m148.33,364.17-4.416-5.25,12.833,9.416"/>
</g>
<g id="g2" fill="#00F">
  <path id="path1" fill-opacity="0.4" transform="matrix(0.8,0,0,-0.8,0,842)" d="M290.31,571.04,610.83,544.37,500.41,466.87,179.89,493.54z"/>
  <path id="path2" d="m313.75,426.34,0,98.719,5,0,0-98.719-5,0z"/>
  <path id="path3" d="m316.25,519.05-5-5,5,17.5,5-17.5-5,5z" stroke="#00F" stroke-width="1pt"/>
</g>
</g>
</svg>